0
SECTION
2
HEADER
9
$INSUNITS
70
4
9
$ACADVER
1
AC1014
9
$HANDSEED
5
FFFF
0
ENDSEC
0
SECTION
2
TABLES
0
TABLE
2
VPORT
5
8
100
AcDbSymbolTable
0
ENDTAB
0
TABLE
2
LTYPE
5
5
100
AcDbSymbolTable
0
LTYPE
5
14
100
AcDbSymbolTableRecord
100
AcDbLinetypeTableRecord
2
BYBLOCK
70
0
0
LTYPE
5
15
100
AcDbSymbolTableRecord
100
AcDbLinetypeTableRecord
2
BYLAYER
70
0
0
ENDTAB
0
TABLE
2
LAYER
5
2
100
AcDbSymbolTable
70
2
0
LAYER
5
50
100
AcDbSymbolTableRecord
100
AcDbLayerTableRecord
2
0
70
0
6
CONTINUOUS
0
ENDTAB
0
TABLE
2
STYLE
5
3
100
AcDbSymbolTable
70
1
0
STYLE
5
11
100
AcDbSymbolTableRecord
100
AcDbTextStyleTableRecord
2
STANDARD
70
0
0
ENDTAB
0
TABLE
2
VIEW
5
6
100
AcDbSymbolTable
70
0
0
ENDTAB
0
TABLE
2
UCS
5
7
100
AcDbSymbolTable
70
0
0
ENDTAB
0
TABLE
2
APPID
5
9
100
AcDbSymbolTable
70
2
0
APPID
5
12
100
AcDbSymbolTableRecord
100
AcDbRegAppTableRecord
2
ACAD
70
0
0
ENDTAB
0
TABLE
2
DIMSTYLE
5
A
100
AcDbSymbolTable
70
1
0
ENDTAB
0
TABLE
2
BLOCK_RECORD
5
1
100
AcDbSymbolTable
70
1
0
BLOCK_RECORD
5
1F
100
AcDbSymbolTableRecord
100
AcDbBlockTableRecord
2
*MODEL_SPACE
0
BLOCK_RECORD
5
1B
100
AcDbSymbolTableRecord
100
AcDbBlockTableRecord
2
*PAPER_SPACE
0
ENDTAB
0
ENDSEC
0
SECTION
2
BLOCKS
0
BLOCK
5
20
100
AcDbEntity
100
AcDbBlockBegin
2
*MODEL_SPACE
0
ENDBLK
5
21
100
AcDbEntity
100
AcDbBlockEnd
0
BLOCK
5
1C
100
AcDbEntity
100
AcDbBlockBegin
2
*PAPER_SPACE
0
ENDBLK
5
1D
100
AcDbEntity
100
AcDbBlockEnd
0
ENDSEC
0
SECTION
2
ENTITIES
0
CIRCLE
5
100
100
AcDbEntity
8
0
100
AcDbCircle
10
0.050000000000001141
20
-27.217428343757781
30
0
40
1.45
210
0
220
0
230
1
0
CIRCLE
5
101
100
AcDbEntity
8
0
100
AcDbCircle
10
-29
20
4.6663987903353163
30
0
40
1.4500000000000002
210
0
220
0
230
1
0
CIRCLE
5
102
100
AcDbEntity
8
0
100
AcDbCircle
10
-24.499999999999996
20
-44.434856687515577
30
0
40
1.4500000000000002
210
0
220
0
230
1
0
CIRCLE
5
103
100
AcDbEntity
8
0
100
AcDbCircle
10
24.700000000000003
20
-44.434856687515577
30
0
40
1.4500000000000002
210
0
220
0
230
1
0
ARC
5
104
100
AcDbEntity
8
0
100
AcDbCircle
10
-31.999999999999975
20
-32.163161356794234
30
0
40
2.000000000000024
210
0
220
0
230
1
100
AcDbArc
50
180
51
243.39399745339969
0
ARC
5
105
100
AcDbEntity
8
0
100
AcDbCircle
10
-35.650000000000013
20
-39.450136037688935
30
0
40
6.1500000000000199
210
0
220
-0
230
1
100
AcDbArc
50
0
51
63.393997453399891
0
LINE
5
106
100
AcDbEntity
8
0
100
AcDbLine
10
-29.499999999999993
20
-39.450136037688928
30
0
11
-29.499999999999996
21
-52.434856687515577
31
0
0
ARC
5
107
100
AcDbEntity
8
0
100
AcDbCircle
10
-27.499999999999993
20
-52.43485668751557
30
0
40
2.0000000000000062
210
0
220
0
230
1
100
AcDbArc
50
180
51
269.99999999999989
0
LINE
5
108
100
AcDbEntity
8
0
100
AcDbLine
10
7.240110491648295
20
-54.43485668751557
30
0
11
27.699999999999999
21
-54.434856687515577
31
0
0
ARC
5
109
100
AcDbEntity
8
0
100
AcDbCircle
10
27.699999999999989
20
-52.43485668751557
30
0
40
2.0000000000000107
210
0
220
0
230
1
100
AcDbArc
50
270.00000000000034
51
360
0
LINE
5
110
100
AcDbEntity
8
0
100
AcDbLine
10
29.700000000000006
20
-52.434856687515591
30
0
11
29.700000000000003
21
-39.450136037688914
31
0
0
ARC
5
111
100
AcDbEntity
8
0
100
AcDbCircle
10
35.649999999999984
20
-39.450136037688914
30
0
40
5.9499999999999886
210
0
220
0
230
1
100
AcDbArc
50
117.3303048270291
51
180
0
ARC
5
112
100
AcDbEntity
8
0
100
AcDbCircle
10
31.999999999999993
20
-32.387558604485079
30
0
40
2.0000000000000067
210
0
220
0
230
1
100
AcDbArc
50
-62.66969517297084
51
0
0
LINE
5
113
100
AcDbEntity
8
0
100
AcDbLine
10
33.999999999999993
20
-32.387558604485079
30
0
11
34
21
-4.6401679000062934
31
0
0
LINE
5
114
100
AcDbEntity
8
0
100
AcDbLine
10
-34
20
7.6663987903353226
30
0
11
-34
21
-32.163161356794255
31
0
0
LINE
5
115
100
AcDbEntity
8
0
100
AcDbLine
10
-19.891546914551846
20
-22.829385094616672
30
0
11
-36
21
-22.829385094616654
31
0
0
LINE
5
116
100
AcDbEntity
8
0
100
AcDbLine
10
-13.891546914551874
20
-8.6057863019943284
30
0
11
-9.8915469145518706
21
-8.6057863019943266
31
0
0
LINE
5
117
100
AcDbEntity
8
0
100
AcDbLine
10
-19.891546914551846
20
-22.829385094616672
30
0
11
-9.8915469145518902
21
-22.829385094616686
31
0
0
LINE
5
118
100
AcDbEntity
8
0
100
AcDbLine
10
-9.8915469145518902
20
-22.829385094616686
30
0
11
-9.8915469145518706
21
-8.6057863019943266
31
0
0
LINE
5
119
100
AcDbEntity
8
0
100
AcDbLine
10
-13.891546914551874
20
-8.6057863019943284
30
0
11
-34.000000506639481
21
-8.6057863019943266
31
0
0
LINE
5
120
100
AcDbEntity
8
0
100
AcDbLine
10
21.475992388935087
20
-2.9875070341394383
30
0
11
16.626280399349948
21
-6.2928287658731605
31
0
0
ARC
5
121
100
AcDbEntity
8
0
100
AcDbCircle
10
13.528759621026797
20
-1.7480113847393119
30
0
40
5.4999999999999982
210
0
220
0
230
1
100
AcDbArc
50
239.52749441966071
51
304.27639049421083
0
LINE
5
122
100
AcDbEntity
8
0
100
AcDbLine
10
10.739573022202229
20
-6.4883107547092518
30
0
11
-16.246297760470124
21
9.3901440157789313
31
0
0
LINE
5
123
100
AcDbEntity
8
0
100
AcDbLine
10
-17.260547432769972
20
9.6663987903353163
30
0
11
-31.999999999999996
21
9.6663987903353217
31
0
0
ARC
5
124
100
AcDbEntity
8
0
100
AcDbCircle
10
22.602363581052604
20
-4.6401679000063218
30
0
40
2.0000000000000275
210
0
220
0
230
1
100
AcDbArc
50
90.000000000000199
51
124.27639049421049
0
ARC
5
125
100
AcDbEntity
8
0
100
AcDbCircle
10
-17.260547432769972
20
7.6663987903353261
30
0
40
1.9999999999999927
210
0
220
-0
230
1
100
AcDbArc
50
59.527494419660485
51
90
0
ARC
5
126
100
AcDbEntity
8
0
100
AcDbCircle
10
-32.000000000000007
20
7.6663987903353279
30
0
40
1.999999999999994
210
0
220
-0
230
1
100
AcDbArc
50
89.999999999999702
51
180
0
ARC
5
127
100
AcDbEntity
8
0
100
AcDbCircle
10
31.999999999999993
20
-4.6401679000063014
30
0
40
2.0000000000000062
210
0
220
-0
230
1
100
AcDbArc
50
0
51
89.999999999999901
0
LINE
5
128
100
AcDbEntity
8
0
100
AcDbLine
10
31.999999999999996
20
-2.6401679000062956
30
0
11
22.602363581052597
21
-2.6401679000062952
31
0
0
CIRCLE
5
129
100
AcDbEntity
8
0
100
AcDbCircle
10
29
20
-7.6401679000062952
30
0
40
1.4500000000000002
210
0
220
0
230
1
0
LINE
5
130
100
AcDbEntity
8
0
100
AcDbLine
10
21.160110491648357
20
-43.793220465045223
30
0
11
21.16011049164841
21
-49.812993217026886
31
0
0
LINE
5
131
100
AcDbEntity
8
0
100
AcDbLine
10
21.160110491648425
20
-51.903447713063564
30
0
11
21.160110491648464
21
-56.793220465045231
31
0
0
LINE
5
132
100
AcDbEntity
8
0
100
AcDbLine
10
21.160110491648467
20
-56.793220465045231
30
0
11
20.060110491648469
21
-56.793220465045238
31
0
0
LINE
5
133
100
AcDbEntity
8
0
100
AcDbLine
10
8.9601104916484591
20
-56.793220465045323
30
0
11
10.060110491648459
21
-56.793220465045316
31
0
0
LINE
5
134
100
AcDbEntity
8
0
100
AcDbLine
10
8.9601104916484182
20
-51.90344771306367
30
0
11
8.9601104916484591
21
-56.793220465045337
31
0
0
LINE
5
135
100
AcDbEntity
8
0
100
AcDbLine
10
8.9601104916483489
20
-43.793220465045323
30
0
11
8.9601104916484005
21
-49.812993217026985
31
0
0
ARC
5
136
100
AcDbEntity
8
0
100
AcDbCircle
10
9.060110491648409
20
-50.858220465045328
30
0
40
1.0499999999999963
210
0
220
0
230
1
100
AcDbArc
50
95.46502379990639
51
264.53497620009466
0
LINE
5
137
100
AcDbEntity
8
0
100
AcDbLine
10
10.060110491648349
20
-43.793220465045309
30
0
11
8.9601104916483472
21
-43.793220465045323
31
0
0
LINE
5
138
100
AcDbEntity
8
0
100
AcDbLine
10
20.060110491648359
20
-43.793220465045231
30
0
11
21.160110491648357
21
-43.793220465045223
31
0
0
ARC
5
139
100
AcDbEntity
8
0
100
AcDbCircle
10
21.060110491648416
20
-50.858220465045221
30
0
40
1.0500000000000047
210
-0
220
0
230
1
100
AcDbArc
50
-84.534976200093709
51
84.534976200094462
0
CIRCLE
5
140
100
AcDbEntity
8
0
100
AcDbCircle
10
24.700000000000003
20
-44.434856687515577
30
0
40
2.5
210
0
220
0
230
1
0
CIRCLE
5
141
100
AcDbEntity
8
0
100
AcDbCircle
10
-24.499999999999996
20
-44.434856687515577
30
0
40
2.5
210
0
220
0
230
1
0
CIRCLE
5
142
100
AcDbEntity
8
0
100
AcDbCircle
10
0.050000000000001141
20
-27.217428343757781
30
0
40
2.5
210
0
220
0
230
1
0
CIRCLE
5
143
100
AcDbEntity
8
0
100
AcDbCircle
10
29
20
-7.6401679000062952
30
0
40
2.5
210
0
220
0
230
1
0
CIRCLE
5
144
100
AcDbEntity
8
0
100
AcDbCircle
10
-29
20
4.6663987903353163
30
0
40
2.5
210
0
220
0
230
1
0
LINE
5
145
100
AcDbEntity
8
0
100
AcDbLine
10
-21.043090795212255
20
-56.793220465045337
30
0
11
-13.043090795212247
21
-56.793220465045366
31
0
0
LINE
5
146
100
AcDbEntity
8
0
100
AcDbLine
10
-21.543090795212212
20
-44.993220465045326
30
0
11
-21.543090795212251
21
-56.293220465045337
31
0
0
ARC
5
147
100
AcDbEntity
8
0
100
AcDbCircle
10
-21.043090795212255
20
-56.293220465045337
30
0
40
0.49999999999999378
210
0
220
0
230
1
100
AcDbArc
50
180
51
270.0000000000004
0
ARC
5
148
100
AcDbEntity
8
0
100
AcDbCircle
10
-21.043090795212255
20
-56.293220465045337
30
0
40
0.49999999999999378
210
0
220
0
230
1
100
AcDbArc
50
180
51
270.0000000000004
0
ARC
5
149
100
AcDbEntity
8
0
100
AcDbCircle
10
-13.043090795212244
20
-56.293220465045366
30
0
40
0.49999999999999822
210
0
220
0
230
1
100
AcDbArc
50
-89.999999999999801
51
0
0
ARC
5
150
100
AcDbEntity
8
0
100
AcDbCircle
10
-13.043090795212244
20
-56.293220465045366
30
0
40
0.49999999999999822
210
0
220
0
230
1
100
AcDbArc
50
-89.999999999999801
51
0
0
LINE
5
151
100
AcDbEntity
8
0
100
AcDbLine
10
-12.543090795212246
20
-56.293220465045366
30
0
11
-12.543090795212208
21
-44.993220465045354
31
0
0
LINE
5
152
100
AcDbEntity
8
0
100
AcDbLine
10
-12.043090795212215
20
-47.393220465045395
30
0
11
-12.043090795212201
21
-44.99322046504539
31
0
0
LINE
5
153
100
AcDbEntity
8
0
100
AcDbLine
10
-12.043090795212201
20
-44.99322046504539
30
0
11
-12.043090795212215
21
-47.393220465045395
31
0
0
LINE
5
154
100
AcDbEntity
8
0
100
AcDbLine
10
-12.043090795212203
20
-45.443220465045393
30
0
11
-12.043090795212208
21
-46.943220465045393
31
0
0
LINE
5
155
100
AcDbEntity
8
0
100
AcDbLine
10
-13.243090795212197
20
-42.293220465045387
30
0
11
-15.643090795212199
21
-42.29322046504538
31
0
0
LINE
5
156
100
AcDbEntity
8
0
100
AcDbLine
10
-15.643090795212199
20
-42.29322046504538
30
0
11
-13.243090795212197
21
-42.293220465045387
31
0
0
LINE
5
157
100
AcDbEntity
8
0
100
AcDbLine
10
-18.4430907952122
20
-42.293220465045366
30
0
11
-20.843090795212206
21
-42.293220465045358
31
0
0
LINE
5
158
100
AcDbEntity
8
0
100
AcDbLine
10
-20.843090795212206
20
-42.293220465045358
30
0
11
-18.4430907952122
21
-42.293220465045366
31
0
0
LINE
5
159
100
AcDbEntity
8
0
100
AcDbLine
10
-15.269852232581659
20
-42.993220465045326
30
0
11
-14.553090795212189
21
-42.993220465045326
31
0
0
LINE
5
160
100
AcDbEntity
8
0
100
AcDbLine
10
-14.553090795212189
20
-42.993220465045326
30
0
11
-15.269852232581659
21
-42.993220465045326
31
0
0
LINE
5
161
100
AcDbEntity
8
0
100
AcDbLine
10
-15.643090795212192
20
-42.993220465045326
30
0
11
-15.269852232581659
21
-42.993220465045326
31
0
0
LINE
5
162
100
AcDbEntity
8
0
100
AcDbLine
10
-18.4430907952122
20
-42.993220465045312
30
0
11
-15.643090795212192
21
-42.993220465045326
31
0
0
LINE
5
163
100
AcDbEntity
8
0
100
AcDbLine
10
-19.143090795212196
20
-42.993220465045312
30
0
11
-15.269852232581659
21
-42.993220465045326
31
0
0
LINE
5
164
100
AcDbEntity
8
0
100
AcDbLine
10
-17.793090795212194
20
-42.993220465045319
30
0
11
-16.293090795212194
21
-42.993220465045319
31
0
0
LINE
5
165
100
AcDbEntity
8
0
100
AcDbLine
10
-18.043090795212194
20
-42.993220465045319
30
0
11
-16.043090795212191
21
-42.993220465045319
31
0
0
LINE
5
166
100
AcDbEntity
8
0
100
AcDbLine
10
-20.843090795212209
20
-44.493220465045354
30
0
11
-20.843090795212209
21
-44.993220465045354
31
0
0
LINE
5
167
100
AcDbEntity
8
0
100
AcDbLine
10
-20.843090795212209
20
-44.993220465045354
30
0
11
-20.843090795212206
21
-43.39322046504536
31
0
0
LINE
5
168
100
AcDbEntity
8
0
100
AcDbLine
10
-20.843090795212206
20
-43.39322046504536
30
0
11
-20.843090795212198
21
-42.293220465045358
31
0
0
LINE
5
169
100
AcDbEntity
8
0
100
AcDbLine
10
-20.843090795212198
20
-42.293220465045358
30
0
11
-20.843090795212209
21
-44.993220465045354
31
0
0
LINE
5
170
100
AcDbEntity
8
0
100
AcDbLine
10
-20.843090795212209
20
-44.993220465045354
30
0
11
-20.843090795212209
21
-44.493220465045354
31
0
0
ARC
5
171
100
AcDbEntity
8
0
100
AcDbCircle
10
-7.7894357662616622
20
-55.593220465045441
30
0
40
1.9999999999999938
210
0
220
0
230
1
100
AcDbArc
50
192.14632501876105
51
270.00000000000023
0
LINE
5
172
100
AcDbEntity
8
0
100
AcDbLine
10
-7.7894357662616551
20
-57.593220465045434
30
0
11
3.3296567495582261
21
-57.593220465045434
31
0
0
ARC
5
173
100
AcDbEntity
8
0
100
AcDbCircle
10
3.3296567495582212
20
-55.59322046504542
30
0
40
2.0000000000000107
210
0
220
0
230
1
100
AcDbArc
50
270.00000000000017
51
347.85367498123861
0
ARC
5
174
100
AcDbEntity
8
0
100
AcDbCircle
10
7.2401104916482932
20
-56.434856687515577
30
0
40
2.0000000000000018
210
0
220
-0
230
1
100
AcDbArc
50
89.999999999999943
51
167.85367498123898
0
LINE
5
175
100
AcDbEntity
8
0
100
AcDbLine
10
-27.499999999999996
20
-54.434856687515577
30
0
11
-11.699889508351715
21
-54.434856687515577
31
0
0
ARC
5
176
100
AcDbEntity
8
0
100
AcDbCircle
10
-11.699889508351717
20
-56.434856687515584
30
0
40
1.9999999999999973
210
0
220
-0
230
1
100
AcDbArc
50
12.146325018761022
51
89.999999999999943
0
LINE
5
177
100
AcDbEntity
8
0
100
AcDbLine
10
1.2401104916482852
20
-58.593220465045441
30
0
11
-2.2298895083517163
21
-58.593220465045434
31
0
0
LINE
5
178
100
AcDbEntity
8
0
100
AcDbLine
10
2.5401104916482842
20
-58.593220465045441
30
0
11
2.5401104916482882
21
-56.735925563357441
31
0
0
LINE
5
179
100
AcDbEntity
8
0
100
AcDbLine
10
2.5401104916482842
20
-58.593220465045441
30
0
11
1.2401104916482852
21
-58.593220465045441
31
0
0
LINE
5
180
100
AcDbEntity
8
0
100
AcDbLine
10
2.5401104916482926
20
-54.750515366733438
30
0
11
2.5401104916482971
21
-52.777594574730443
31
0
0
LINE
5
181
100
AcDbEntity
8
0
100
AcDbLine
10
-6.409889508351716
20
-58.59322046504542
30
0
11
-5.1098895083517162
21
-58.59322046504542
31
0
0
LINE
5
182
100
AcDbEntity
8
0
100
AcDbLine
10
-2.2398895083517156
20
-58.593220465045434
30
0
11
-5.1098895083517162
21
-58.59322046504542
31
0
0
LINE
5
183
100
AcDbEntity
8
0
100
AcDbLine
10
-2.2398895083517156
20
-58.593220465045434
30
0
11
-2.2298895083517163
21
-58.593220465045434
31
0
0
LINE
5
184
100
AcDbEntity
8
0
100
AcDbLine
10
2.5401104916482891
20
-56.393220465045445
30
0
11
2.5401104916482882
21
-56.735925563357441
31
0
0
LINE
5
185
100
AcDbEntity
8
0
100
AcDbLine
10
2.5401104916482891
20
-56.393220465045445
30
0
11
2.5401104916482895
21
-56.093220465045441
31
0
0
LINE
5
186
100
AcDbEntity
8
0
100
AcDbLine
10
2.5401104916482895
20
-56.093220465045441
30
0
11
2.5401104916482904
21
-55.893220465045431
31
0
0
LINE
5
187
100
AcDbEntity
8
0
100
AcDbLine
10
2.5401104916482904
20
-55.893220465045431
30
0
11
2.5401104916482904
21
-55.593220465045441
31
0
0
LINE
5
188
100
AcDbEntity
8
0
100
AcDbLine
10
2.5401104916482908
20
-55.393220465045438
30
0
11
2.5401104916482904
21
-55.593220465045441
31
0
0
LINE
5
189
100
AcDbEntity
8
0
100
AcDbLine
10
2.5401104916482908
20
-55.393220465045438
30
0
11
2.5401104916482908
21
-55.293220465045437
31
0
0
LINE
5
190
100
AcDbEntity
8
0
100
AcDbLine
10
2.5401104916482908
20
-55.293220465045437
30
0
11
2.5401104916482913
21
-55.093220465045441
31
0
0
LINE
5
191
100
AcDbEntity
8
0
100
AcDbLine
10
2.5401104916482926
20
-54.750515366733438
30
0
11
2.5401104916482913
21
-55.093220465045441
31
0
0
LINE
5
192
100
AcDbEntity
8
0
100
AcDbLine
10
2.5401104916482979
20
-52.333220465045443
30
0
11
2.5401104916482971
21
-52.777594574730443
31
0
0
LINE
5
193
100
AcDbEntity
8
0
100
AcDbLine
10
2.5401104916482979
20
-52.333220465045443
30
0
11
2.5401104916482984
21
-51.983220465045441
31
0
0
LINE
5
194
100
AcDbEntity
8
0
100
AcDbLine
10
2.5401104916482997
20
-51.643220465045438
30
0
11
2.5401104916482984
21
-51.983220465045441
31
0
0
LINE
5
195
100
AcDbEntity
8
0
100
AcDbLine
10
2.5401104916482997
20
-51.643220465045438
30
0
11
2.5401104916483002
21
-51.293220465045437
31
0
0
LINE
5
196
100
AcDbEntity
8
0
100
AcDbLine
10
-6.4098895083517116
20
-56.735925563357426
30
0
11
-6.409889508351716
21
-58.59322046504542
31
0
0
LINE
5
197
100
AcDbEntity
8
0
100
AcDbLine
10
-6.4098895083517
20
-51.643220465045417
30
0
11
-6.4098895083516991
21
-51.293220465045415
31
0
0
LINE
5
198
100
AcDbEntity
8
0
100
AcDbLine
10
-6.4098895083517
20
-51.643220465045417
30
0
11
-6.4098895083517018
21
-51.98322046504542
31
0
0
LINE
5
199
100
AcDbEntity
8
0
100
AcDbLine
10
-6.4098895083517027
20
-52.333220465045414
30
0
11
-6.4098895083517018
21
-51.98322046504542
31
0
0
LINE
5
200
100
AcDbEntity
8
0
100
AcDbLine
10
-6.4098895083517027
20
-52.333220465045414
30
0
11
-6.4098895083517027
21
-52.77759457473023
31
0
0
LINE
5
201
100
AcDbEntity
8
0
100
AcDbLine
10
-6.4098895083517027
20
-52.77759457473023
30
0
11
-6.4098895083517071
21
-54.750515366733424
31
0
0
LINE
5
202
100
AcDbEntity
8
0
100
AcDbLine
10
-6.4098895083517071
20
-54.750515366733424
30
0
11
-6.409889508351708
21
-55.093220465045427
31
0
0
LINE
5
203
100
AcDbEntity
8
0
100
AcDbLine
10
-6.4098895083517089
20
-55.293220465045422
30
0
11
-6.409889508351708
21
-55.093220465045427
31
0
0
LINE
5
204
100
AcDbEntity
8
0
100
AcDbLine
10
-6.4098895083517089
20
-55.393220465045417
30
0
11
-6.4098895083517089
21
-55.293220465045422
31
0
0
LINE
5
205
100
AcDbEntity
8
0
100
AcDbLine
10
-6.4098895083517089
20
-55.393220465045417
30
0
11
-6.4098895083517089
21
-55.593220465045412
31
0
0
LINE
5
206
100
AcDbEntity
8
0
100
AcDbLine
10
-6.4098895083517107
20
-55.893220465045417
30
0
11
-6.4098895083517089
21
-55.593220465045412
31
0
0
LINE
5
207
100
AcDbEntity
8
0
100
AcDbLine
10
-6.4098895083517107
20
-56.09322046504542
30
0
11
-6.4098895083517107
21
-55.893220465045417
31
0
0
LINE
5
208
100
AcDbEntity
8
0
100
AcDbLine
10
-6.4098895083517116
20
-56.393220465045424
30
0
11
-6.4098895083517107
21
-56.09322046504542
31
0
0
LINE
5
209
100
AcDbEntity
8
0
100
AcDbLine
10
-6.4098895083517116
20
-56.393220465045424
30
0
11
-6.4098895083517116
21
-56.735925563357426
31
0
0
LINE
5
210
100
AcDbEntity
8
0
100
AcDbLine
10
-5.6298895083516998
20
-51.293220465045422
30
0
11
-5.6298895083517007
21
-51.993220465045425
31
0
0
LINE
5
211
100
AcDbEntity
8
0
100
AcDbLine
10
1.7601104915443
20
-51.293220465045444
30
0
11
1.7601104915442987
21
-51.993220465045447
31
0
0
LINE
5
212
100
AcDbEntity
8
0
100
AcDbLine
10
2.2401104916483003
20
-51.643220465045438
30
0
11
2.2401104916483012
21
-51.293220465045437
31
0
0
LINE
5
213
100
AcDbEntity
8
0
100
AcDbLine
10
2.2401104916483003
20
-51.643220465045438
30
0
11
2.2401104916482999
21
-51.983220465045434
31
0
0
LINE
5
214
100
AcDbEntity
8
0
100
AcDbLine
10
2.2401104916482995
20
-51.993220465045425
30
0
11
2.2401104916482999
21
-51.983220465045434
31
0
0
LINE
5
215
100
AcDbEntity
8
0
100
AcDbLine
10
2.5401104916483002
20
-51.293220465045437
30
0
11
2.2401104916483012
21
-51.293220465045437
31
0
0
LINE
5
216
100
AcDbEntity
8
0
100
AcDbLine
10
2.2401104916482995
20
-51.993220465045425
30
0
11
1.7601104915442987
21
-51.993220465045447
31
0
0
LINE
5
217
100
AcDbEntity
8
0
100
AcDbLine
10
1.2401104916483008
20
-51.293220465045437
30
0
11
1.6401104915680764
21
-51.293220465045437
31
0
0
LINE
5
218
100
AcDbEntity
8
0
100
AcDbLine
10
-4.489889508351701
20
-51.493220465045425
30
0
11
-4.4898895083517019
21
-52.09322046504542
31
0
0
ARC
5
219
100
AcDbEntity
8
0
100
AcDbCircle
10
-4.2898895083517017
20
-52.093220465045427
30
0
40
0.20000000000000018
210
0
220
0
230
1
100
AcDbArc
50
180
51
269.99999999999972
0
LINE
5
220
100
AcDbEntity
8
0
100
AcDbLine
10
-4.2898895083517026
20
-52.293220465045422
30
0
11
-3.2398895083517019
21
-52.293220465045422
31
0
0
ARC
5
221
100
AcDbEntity
8
0
100
AcDbCircle
10
-3.2398895083517019
20
-52.093220465045427
30
0
40
0.19999999999999574
210
-0
220
0
230
1
100
AcDbArc
50
-90
51
89.999999999999872
0
LINE
5
222
100
AcDbEntity
8
0
100
AcDbLine
10
-0.62988950835169977
20
-51.293220465045437
30
0
11
-3.2398895083517005
21
-51.293220465045422
31
0
0
ARC
5
223
100
AcDbEntity
8
0
100
AcDbCircle
10
-0.62988950835170088
20
-52.093220465045434
30
0
40
0.19999999999999574
210
-0
220
0
230
1
100
AcDbArc
50
89.999999999999872
51
269.99999999999989
0
LINE
5
224
100
AcDbEntity
8
0
100
AcDbLine
10
0.42011049164829783
20
-52.293220465045437
30
0
11
-0.62988950835170132
21
-52.29322046504543
31
0
0
ARC
5
225
100
AcDbEntity
8
0
100
AcDbCircle
10
0.42011049164829894
20
-52.093220465045434
30
0
40
0.20000000000000462
210
0
220
0
230
1
100
AcDbArc
50
-90.000000000000313
51
0
0
LINE
5
226
100
AcDbEntity
8
0
100
AcDbLine
10
0.62011049164830023
20
-51.493220465045439
30
0
11
0.62011049164829901
21
-52.093220465045434
31
0
0
ARC
5
227
100
AcDbEntity
8
0
100
AcDbCircle
10
0.82011049164830041
20
-51.493220465045439
30
0
40
0.19999999999999574
210
-0
220
0
230
1
100
AcDbArc
50
89.999999999999872
51
180
0
LINE
5
228
100
AcDbEntity
8
0
100
AcDbLine
10
1.2401104916483008
20
-51.293220465045437
30
0
11
0.82011049164830085
21
-51.293220465045444
31
0
0
LINE
5
229
100
AcDbEntity
8
0
100
AcDbLine
10
-4.6898895083517003
20
-51.293220465045422
30
0
11
-5.1098895083517002
21
-51.293220465045422
31
0
0
ARC
5
230
100
AcDbEntity
8
0
100
AcDbCircle
10
-4.6898895083517003
20
-51.493220465045425
30
0
40
0.19999999999999962
210
-0
220
0
230
1
100
AcDbArc
50
0
51
90
0
LINE
5
231
100
AcDbEntity
8
0
100
AcDbLine
10
-5.1098895083517002
20
-51.293220465045422
30
0
11
-5.5098895083517618
21
-51.293220465045422
31
0
0
LINE
5
232
100
AcDbEntity
8
0
100
AcDbLine
10
-6.1098895083517011
20
-51.993220465045425
30
0
11
-5.6298895083517007
21
-51.993220465045425
31
0
0
LINE
5
233
100
AcDbEntity
8
0
100
AcDbLine
10
-6.1098895083517011
20
-51.993220465045425
30
0
11
-6.1098895083517011
21
-51.983220465045427
31
0
0
LINE
5
234
100
AcDbEntity
8
0
100
AcDbLine
10
-6.1098895083517011
20
-51.643220465045417
30
0
11
-6.1098895083517011
21
-51.983220465045427
31
0
0
LINE
5
235
100
AcDbEntity
8
0
100
AcDbLine
10
-6.1098895083517011
20
-51.643220465045417
30
0
11
-6.1098895083517002
21
-51.293220465045415
31
0
0
LINE
5
236
100
AcDbEntity
8
0
100
AcDbLine
10
-6.4098895083516991
20
-51.293220465045415
30
0
11
-6.1098895083517002
21
-51.293220465045415
31
0
0
LINE
5
237
100
AcDbEntity
8
0
100
AcDbLine
10
-5.6298895083516998
20
-51.293220465045422
30
0
11
-5.5098895083517618
21
-51.293220465045422
31
0
0
LINE
5
238
100
AcDbEntity
8
0
100
AcDbLine
10
1.6401104915680764
20
-51.293220465045437
30
0
11
1.7601104915443
21
-51.293220465045444
31
0
0
LINE
5
239
100
AcDbEntity
8
0
100
AcDbLine
10
-3.2398895083517005
20
-51.293220465045422
30
0
11
-3.4898895083517956
21
-51.293220465045422
31
0
0
LINE
5
240
100
AcDbEntity
8
0
100
AcDbLine
10
-3.7496971294868504
20
-51.293220465045422
30
0
11
-3.4898895083517956
21
-51.293220465045422
31
0
0
LINE
5
241
100
AcDbEntity
8
0
100
AcDbLine
10
-3.7496971294868504
20
-51.293220465045422
30
0
11
-3.8996971294870471
21
-51.293220465045422
31
0
0
LINE
5
242
100
AcDbEntity
8
0
100
AcDbLine
10
-0.12008188721669977
20
-51.293220465045437
30
0
11
0.029918112783646738
21
-51.293220465045437
31
0
0
LINE
5
243
100
AcDbEntity
8
0
100
AcDbLine
10
-0.12008188721669977
20
-51.293220465045437
30
0
11
-0.37988950835159957
21
-51.293220465045437
31
0
0
LINE
5
244
100
AcDbEntity
8
0
100
AcDbLine
10
-0.62988950835169977
20
-51.293220465045437
30
0
11
-0.37988950835159957
21
-51.293220465045437
31
0
0
LINE
5
245
100
AcDbEntity
8
0
100
AcDbLine
10
-3.2398895083517014
20
-51.893220465045431
30
0
11
-3.4898895083517969
21
-51.893220465045431
31
0
0
LINE
5
246
100
AcDbEntity
8
0
100
AcDbLine
10
-0.62988950835170043
20
-51.893220465045438
30
0
11
-0.37988950835160629
21
-51.893220465045431
31
0
0
LINE
5
247
100
AcDbEntity
8
0
100
AcDbLine
10
-0.37988950835160629
20
-51.893220465045431
30
0
11
-0.12008188721665075
21
-51.893220465045431
31
0
0
LINE
5
248
100
AcDbEntity
8
0
100
AcDbLine
10
-0.12008188721665075
20
-51.893220465045431
30
0
11
0.029918112783645628
21
-51.893220465045431
31
0
0
ELLIPSE
5
249
100
AcDbEntity
8
0
100
AcDbEllipse
10
0.029918112783299255
20
-51.793220465045437
30
0
11
-2.1649348980190559e-16
21
-0.10000000000000002
31
0.0
40
0.8660254037843288
41
4.0020209368663018e-12
42
1.5707963267947829
0
LINE
5
250
100
AcDbEntity
8
0
100
AcDbLine
10
0.11652065316173216
20
-51.793220465045437
30
0
11
0.11652065316229973
21
-51.393220465045431
31
0
0
ELLIPSE
5
251
100
AcDbEntity
8
0
100
AcDbEllipse
10
0.029918112783300366
20
-51.393220465045431
30
0
11
2.1649348980190559e-16
21
0.10000000000000002
31
0.0
40
0.8660254037843288
41
4.712388980384576
42
6.2831853071755894
0
LINE
5
252
100
AcDbEntity
8
0
100
AcDbLine
10
-3.4898895083517969
20
-51.893220465045431
30
0
11
-3.7496971294867514
21
-51.893220465045431
31
0
0
ELLIPSE
5
253
100
AcDbEntity
8
0
100
AcDbEllipse
10
-3.8996971294867007
20
-51.393220465045424
30
0
11
2.1649348980190569e-16
21
0.10000000000000002
31
0.0
40
0.8660254037843288
41
4.0074610296874206e-12
42
1.5707963267950102
0
LINE
5
254
100
AcDbEntity
8
0
100
AcDbLine
10
-3.9862996698657014
20
-51.793220465045437
30
0
11
-3.986299669865133
21
-51.393220465045424
31
0
0
ELLIPSE
5
255
100
AcDbEntity
8
0
100
AcDbEllipse
10
-3.8996971294867011
20
-51.793220465045422
30
0
11
2.1649348980190569e-16
21
0.10000000000000002
31
0.0
40
0.8660254037843288
41
1.5707963267951239
42
3.1415926535898002
0
LINE
5
256
100
AcDbEntity
8
0
100
AcDbLine
10
-3.7496971294867514
20
-51.893220465045431
30
0
11
-3.8996971294867007
21
-51.893220465045424
31
0
0
LINE
5
257
100
AcDbEntity
8
0
100
AcDbLine
10
25.426492000515939
20
7.5917681102843826
30
4.4408920985006262e-15
11
11.223507500416314
21
7.5917681159607291
31
4.4408920985006262e-15
0
LINE
5
258
100
AcDbEntity
8
0
100
AcDbLine
10
18.324999750466127
20
7.5917681131225558
30
4.4408920985006262e-15
11
18.324999750466098
21
-54.434856687515577
31
4.4408920985006262e-15
0
ENDSEC
0
SECTION
2
OBJECTS
0
DICTIONARY
5
C
100
AcDbDictionary
3
ACAD_GROUP
350
D
3
ACAD_MLINESTYLE
350
17
0
DICTIONARY
5
D
100
AcDbDictionary
0
DICTIONARY
5
1A
330
C
100
AcDbDictionary
0
DICTIONARY
5
17
100
AcDbDictionary
0
ENDSEC
0
EOF
