0
SECTION
2
HEADER
9
$INSUNITS
70
4
9
$ACADVER
1
AC1014
9
$HANDSEED
5
FFFF
0
ENDSEC
0
SECTION
2
TABLES
0
TABLE
2
VPORT
5
8
100
AcDbSymbolTable
0
ENDTAB
0
TABLE
2
LTYPE
5
5
100
AcDbSymbolTable
0
LTYPE
5
14
100
AcDbSymbolTableRecord
100
AcDbLinetypeTableRecord
2
BYBLOCK
70
0
0
LTYPE
5
15
100
AcDbSymbolTableRecord
100
AcDbLinetypeTableRecord
2
BYLAYER
70
0
0
ENDTAB
0
TABLE
2
LAYER
5
2
100
AcDbSymbolTable
70
2
0
LAYER
5
50
100
AcDbSymbolTableRecord
100
AcDbLayerTableRecord
2
0
70
0
6
CONTINUOUS
0
ENDTAB
0
TABLE
2
STYLE
5
3
100
AcDbSymbolTable
70
1
0
STYLE
5
11
100
AcDbSymbolTableRecord
100
AcDbTextStyleTableRecord
2
STANDARD
70
0
0
ENDTAB
0
TABLE
2
VIEW
5
6
100
AcDbSymbolTable
70
0
0
ENDTAB
0
TABLE
2
UCS
5
7
100
AcDbSymbolTable
70
0
0
ENDTAB
0
TABLE
2
APPID
5
9
100
AcDbSymbolTable
70
2
0
APPID
5
12
100
AcDbSymbolTableRecord
100
AcDbRegAppTableRecord
2
ACAD
70
0
0
ENDTAB
0
TABLE
2
DIMSTYLE
5
A
100
AcDbSymbolTable
70
1
0
ENDTAB
0
TABLE
2
BLOCK_RECORD
5
1
100
AcDbSymbolTable
70
1
0
BLOCK_RECORD
5
1F
100
AcDbSymbolTableRecord
100
AcDbBlockTableRecord
2
*MODEL_SPACE
0
BLOCK_RECORD
5
1B
100
AcDbSymbolTableRecord
100
AcDbBlockTableRecord
2
*PAPER_SPACE
0
ENDTAB
0
ENDSEC
0
SECTION
2
BLOCKS
0
BLOCK
5
20
100
AcDbEntity
100
AcDbBlockBegin
2
*MODEL_SPACE
0
ENDBLK
5
21
100
AcDbEntity
100
AcDbBlockEnd
0
BLOCK
5
1C
100
AcDbEntity
100
AcDbBlockBegin
2
*PAPER_SPACE
0
ENDBLK
5
1D
100
AcDbEntity
100
AcDbBlockEnd
0
ENDSEC
0
SECTION
2
ENTITIES
0
CIRCLE
5
100
100
AcDbEntity
8
0
100
AcDbCircle
10
0.050000000000001141
20
-27.217428343757781
30
0
40
1.45
210
0
220
0
230
1
0
CIRCLE
5
101
100
AcDbEntity
8
0
100
AcDbCircle
10
-29
20
4.6663987903353163
30
0
40
1.4500000000000002
210
0
220
0
230
1
0
CIRCLE
5
102
100
AcDbEntity
8
0
100
AcDbCircle
10
-24.499999999999996
20
-44.434856687515577
30
0
40
1.4500000000000002
210
0
220
0
230
1
0
CIRCLE
5
103
100
AcDbEntity
8
0
100
AcDbCircle
10
24.700000000000003
20
-44.434856687515577
30
0
40
1.4500000000000002
210
0
220
0
230
1
0
ARC
5
104
100
AcDbEntity
8
0
100
AcDbCircle
10
-31.999999999999975
20
-32.163161356794234
30
0
40
2.000000000000024
210
0
220
0
230
1
100
AcDbArc
50
180
51
243.39399745339969
0
ARC
5
105
100
AcDbEntity
8
0
100
AcDbCircle
10
-35.650000000000013
20
-39.450136037688935
30
0
40
6.1500000000000199
210
0
220
-0
230
1
100
AcDbArc
50
0
51
63.393997453399891
0
LINE
5
106
100
AcDbEntity
8
0
100
AcDbLine
10
-29.499999999999993
20
-39.450136037688928
30
0
11
-29.499999999999996
21
-52.434856687515577
31
0
0
ARC
5
107
100
AcDbEntity
8
0
100
AcDbCircle
10
-27.499999999999993
20
-52.43485668751557
30
0
40
2.0000000000000062
210
0
220
0
230
1
100
AcDbArc
50
180
51
269.99999999999989
0
LINE
5
108
100
AcDbEntity
8
0
100
AcDbLine
10
-27.499999999999996
20
-54.434856687515577
30
0
11
27.699999999999999
21
-54.434856687515577
31
0
0
ARC
5
109
100
AcDbEntity
8
0
100
AcDbCircle
10
27.699999999999989
20
-52.43485668751557
30
0
40
2.0000000000000107
210
0
220
0
230
1
100
AcDbArc
50
270.00000000000034
51
360
0
LINE
5
110
100
AcDbEntity
8
0
100
AcDbLine
10
29.700000000000006
20
-52.434856687515591
30
0
11
29.700000000000003
21
-39.450136037688914
31
0
0
ARC
5
111
100
AcDbEntity
8
0
100
AcDbCircle
10
35.649999999999984
20
-39.450136037688914
30
0
40
5.9499999999999886
210
0
220
0
230
1
100
AcDbArc
50
117.3303048270291
51
180
0
ARC
5
112
100
AcDbEntity
8
0
100
AcDbCircle
10
31.999999999999993
20
-32.387558604485079
30
0
40
2.0000000000000067
210
0
220
0
230
1
100
AcDbArc
50
-62.66969517297084
51
0
0
LINE
5
113
100
AcDbEntity
8
0
100
AcDbLine
10
33.999999999999993
20
-32.387558604485079
30
0
11
34
21
-4.6401679000062934
31
0
0
LINE
5
114
100
AcDbEntity
8
0
100
AcDbLine
10
-34
20
7.6663987903353226
30
0
11
-34
21
-32.163161356794255
31
0
0
LINE
5
115
100
AcDbEntity
8
0
100
AcDbLine
10
-19.891546914551846
20
-22.829385094616672
30
0
11
-36
21
-22.829385094616654
31
0
0
LINE
5
116
100
AcDbEntity
8
0
100
AcDbLine
10
-13.891546914551874
20
-8.6057863019943284
30
0
11
-9.8915469145518706
21
-8.6057863019943266
31
0
0
LINE
5
117
100
AcDbEntity
8
0
100
AcDbLine
10
-19.891546914551846
20
-22.829385094616672
30
0
11
-9.8915469145518902
21
-22.829385094616686
31
0
0
LINE
5
118
100
AcDbEntity
8
0
100
AcDbLine
10
-9.8915469145518902
20
-22.829385094616686
30
0
11
-9.8915469145518706
21
-8.6057863019943266
31
0
0
LINE
5
119
100
AcDbEntity
8
0
100
AcDbLine
10
-13.891546914551874
20
-8.6057863019943284
30
0
11
-34.000000506639481
21
-8.6057863019943266
31
0
0
LINE
5
120
100
AcDbEntity
8
0
100
AcDbLine
10
21.475992388935087
20
-2.9875070341394383
30
0
11
16.626280399349948
21
-6.2928287658731605
31
0
0
ARC
5
121
100
AcDbEntity
8
0
100
AcDbCircle
10
13.528759621026797
20
-1.7480113847393119
30
0
40
5.4999999999999982
210
0
220
0
230
1
100
AcDbArc
50
239.52749441966071
51
304.27639049421083
0
LINE
5
122
100
AcDbEntity
8
0
100
AcDbLine
10
10.739573022202229
20
-6.4883107547092518
30
0
11
-16.246297760470124
21
9.3901440157789313
31
0
0
LINE
5
123
100
AcDbEntity
8
0
100
AcDbLine
10
-17.260547432769972
20
9.6663987903353163
30
0
11
-31.999999999999996
21
9.6663987903353217
31
0
0
ARC
5
124
100
AcDbEntity
8
0
100
AcDbCircle
10
22.602363581052604
20
-4.6401679000063218
30
0
40
2.0000000000000275
210
0
220
0
230
1
100
AcDbArc
50
90.000000000000199
51
124.27639049421049
0
ARC
5
125
100
AcDbEntity
8
0
100
AcDbCircle
10
-17.260547432769972
20
7.6663987903353261
30
0
40
1.9999999999999927
210
0
220
-0
230
1
100
AcDbArc
50
59.527494419660485
51
90
0
ARC
5
126
100
AcDbEntity
8
0
100
AcDbCircle
10
-32.000000000000007
20
7.6663987903353279
30
0
40
1.999999999999994
210
0
220
-0
230
1
100
AcDbArc
50
89.999999999999702
51
180
0
ARC
5
127
100
AcDbEntity
8
0
100
AcDbCircle
10
31.999999999999993
20
-4.6401679000063014
30
0
40
2.0000000000000062
210
0
220
-0
230
1
100
AcDbArc
50
0
51
89.999999999999901
0
LINE
5
128
100
AcDbEntity
8
0
100
AcDbLine
10
31.999999999999996
20
-2.6401679000062956
30
0
11
22.602363581052597
21
-2.6401679000062952
31
0
0
CIRCLE
5
129
100
AcDbEntity
8
0
100
AcDbCircle
10
29
20
-7.6401679000062952
30
0
40
1.4500000000000002
210
0
220
0
230
1
0
LINE
5
130
100
AcDbEntity
8
0
100
AcDbLine
10
19.160110491648354
20
-43.793220465045238
30
0
11
19.160110491648407
21
-49.8129932170269
31
0
0
LINE
5
131
100
AcDbEntity
8
0
100
AcDbLine
10
19.160110491648421
20
-51.903447713063578
30
0
11
19.160110491648464
21
-56.793220465045245
31
0
0
LINE
5
132
100
AcDbEntity
8
0
100
AcDbLine
10
19.160110491648467
20
-56.793220465045245
30
0
11
18.060110491648466
21
-56.793220465045252
31
0
0
LINE
5
133
100
AcDbEntity
8
0
100
AcDbLine
10
6.9601104916484582
20
-56.793220465045344
30
0
11
8.0601104916484587
21
-56.793220465045337
31
0
0
LINE
5
134
100
AcDbEntity
8
0
100
AcDbLine
10
6.9601104916484156
20
-51.903447713063684
30
0
11
6.9601104916484582
21
-56.793220465045351
31
0
0
LINE
5
135
100
AcDbEntity
8
0
100
AcDbLine
10
6.9601104916483472
20
-43.793220465045337
30
0
11
6.9601104916483978
21
-49.812993217027
31
0
0
ARC
5
136
100
AcDbEntity
8
0
100
AcDbCircle
10
7.0601104916484081
20
-50.858220465045349
30
0
40
1.0499999999999963
210
0
220
0
230
1
100
AcDbArc
50
95.465023799906447
51
264.5349762000946
0
LINE
5
137
100
AcDbEntity
8
0
100
AcDbLine
10
8.0601104916483486
20
-43.79322046504533
30
0
11
6.9601104916483472
21
-43.793220465045337
31
0
0
LINE
5
138
100
AcDbEntity
8
0
100
AcDbLine
10
18.060110491648352
20
-43.793220465045252
30
0
11
19.160110491648354
21
-43.793220465045238
31
0
0
ARC
5
139
100
AcDbEntity
8
0
100
AcDbCircle
10
19.060110491648416
20
-50.858220465045243
30
0
40
1.0500000000000052
210
-0
220
0
230
1
100
AcDbArc
50
-84.534976200093652
51
84.534976200094846
0
CIRCLE
5
140
100
AcDbEntity
8
0
100
AcDbCircle
10
24.700000000000003
20
-44.434856687515577
30
0
40
2.5
210
0
220
0
230
1
0
CIRCLE
5
141
100
AcDbEntity
8
0
100
AcDbCircle
10
-24.499999999999996
20
-44.434856687515577
30
0
40
2.5
210
0
220
0
230
1
0
CIRCLE
5
142
100
AcDbEntity
8
0
100
AcDbCircle
10
0.050000000000001141
20
-27.217428343757781
30
0
40
2.5
210
0
220
0
230
1
0
CIRCLE
5
143
100
AcDbEntity
8
0
100
AcDbCircle
10
29
20
-7.6401679000062952
30
0
40
2.5
210
0
220
0
230
1
0
CIRCLE
5
144
100
AcDbEntity
8
0
100
AcDbCircle
10
-29
20
4.6663987903353163
30
0
40
2.5
210
0
220
0
230
1
0
ENDSEC
0
SECTION
2
OBJECTS
0
DICTIONARY
5
C
100
AcDbDictionary
3
ACAD_GROUP
350
D
3
ACAD_MLINESTYLE
350
17
0
DICTIONARY
5
D
100
AcDbDictionary
0
DICTIONARY
5
1A
330
C
100
AcDbDictionary
0
DICTIONARY
5
17
100
AcDbDictionary
0
ENDSEC
0
EOF
