0
SECTION
2
HEADER
9
$INSUNITS
70
4
9
$ACADVER
1
AC1014
9
$HANDSEED
5
FFFF
0
ENDSEC
0
SECTION
2
TABLES
0
TABLE
2
VPORT
5
8
100
AcDbSymbolTable
0
ENDTAB
0
TABLE
2
LTYPE
5
5
100
AcDbSymbolTable
0
LTYPE
5
14
100
AcDbSymbolTableRecord
100
AcDbLinetypeTableRecord
2
BYBLOCK
70
0
0
LTYPE
5
15
100
AcDbSymbolTableRecord
100
AcDbLinetypeTableRecord
2
BYLAYER
70
0
0
ENDTAB
0
TABLE
2
LAYER
5
2
100
AcDbSymbolTable
70
2
0
LAYER
5
50
100
AcDbSymbolTableRecord
100
AcDbLayerTableRecord
2
0
70
0
6
CONTINUOUS
0
ENDTAB
0
TABLE
2
STYLE
5
3
100
AcDbSymbolTable
70
1
0
STYLE
5
11
100
AcDbSymbolTableRecord
100
AcDbTextStyleTableRecord
2
STANDARD
70
0
0
ENDTAB
0
TABLE
2
VIEW
5
6
100
AcDbSymbolTable
70
0
0
ENDTAB
0
TABLE
2
UCS
5
7
100
AcDbSymbolTable
70
0
0
ENDTAB
0
TABLE
2
APPID
5
9
100
AcDbSymbolTable
70
2
0
APPID
5
12
100
AcDbSymbolTableRecord
100
AcDbRegAppTableRecord
2
ACAD
70
0
0
ENDTAB
0
TABLE
2
DIMSTYLE
5
A
100
AcDbSymbolTable
70
1
0
ENDTAB
0
TABLE
2
BLOCK_RECORD
5
1
100
AcDbSymbolTable
70
1
0
BLOCK_RECORD
5
1F
100
AcDbSymbolTableRecord
100
AcDbBlockTableRecord
2
*MODEL_SPACE
0
BLOCK_RECORD
5
1B
100
AcDbSymbolTableRecord
100
AcDbBlockTableRecord
2
*PAPER_SPACE
0
ENDTAB
0
ENDSEC
0
SECTION
2
BLOCKS
0
BLOCK
5
20
100
AcDbEntity
100
AcDbBlockBegin
2
*MODEL_SPACE
0
ENDBLK
5
21
100
AcDbEntity
100
AcDbBlockEnd
0
BLOCK
5
1C
100
AcDbEntity
100
AcDbBlockBegin
2
*PAPER_SPACE
0
ENDBLK
5
1D
100
AcDbEntity
100
AcDbBlockEnd
0
ENDSEC
0
SECTION
2
ENTITIES
0
CIRCLE
5
100
100
AcDbEntity
8
0
100
AcDbCircle
10
0.050000000000001141
20
-27.217428343757781
30
0
40
1.45
210
0
220
0
230
1
0
CIRCLE
5
101
100
AcDbEntity
8
0
100
AcDbCircle
10
-29
20
4.6663987903353163
30
0
40
1.4500000000000002
210
0
220
0
230
1
0
CIRCLE
5
102
100
AcDbEntity
8
0
100
AcDbCircle
10
-24.499999999999996
20
-44.434856687515577
30
0
40
1.4500000000000002
210
0
220
0
230
1
0
CIRCLE
5
103
100
AcDbEntity
8
0
100
AcDbCircle
10
24.700000000000003
20
-44.434856687515577
30
0
40
1.4500000000000002
210
0
220
0
230
1
0
ARC
5
104
100
AcDbEntity
8
0
100
AcDbCircle
10
-31.999999999999975
20
-32.163161356794234
30
0
40
2.000000000000024
210
0
220
0
230
1
100
AcDbArc
50
180
51
243.39399745339969
0
ARC
5
105
100
AcDbEntity
8
0
100
AcDbCircle
10
-35.650000000000013
20
-39.450136037688935
30
0
40
6.1500000000000199
210
0
220
-0
230
1
100
AcDbArc
50
0
51
63.393997453399891
0
LINE
5
106
100
AcDbEntity
8
0
100
AcDbLine
10
-29.499999999999993
20
-39.450136037688928
30
0
11
-29.499999999999996
21
-52.434856687515577
31
0
0
ARC
5
107
100
AcDbEntity
8
0
100
AcDbCircle
10
-27.499999999999993
20
-52.43485668751557
30
0
40
2.0000000000000062
210
0
220
0
230
1
100
AcDbArc
50
180
51
269.99999999999989
0
LINE
5
108
100
AcDbEntity
8
0
100
AcDbLine
10
7.240110491648295
20
-54.43485668751557
30
0
11
27.699999999999999
21
-54.434856687515577
31
0
0
ARC
5
109
100
AcDbEntity
8
0
100
AcDbCircle
10
27.699999999999989
20
-52.43485668751557
30
0
40
2.0000000000000107
210
0
220
0
230
1
100
AcDbArc
50
270.00000000000034
51
360
0
LINE
5
110
100
AcDbEntity
8
0
100
AcDbLine
10
29.700000000000006
20
-52.434856687515591
30
0
11
29.700000000000003
21
-39.450136037688914
31
0
0
ARC
5
111
100
AcDbEntity
8
0
100
AcDbCircle
10
35.649999999999984
20
-39.450136037688914
30
0
40
5.9499999999999886
210
0
220
0
230
1
100
AcDbArc
50
117.3303048270291
51
180
0
ARC
5
112
100
AcDbEntity
8
0
100
AcDbCircle
10
31.999999999999993
20
-32.387558604485079
30
0
40
2.0000000000000067
210
0
220
0
230
1
100
AcDbArc
50
-62.66969517297084
51
0
0
LINE
5
113
100
AcDbEntity
8
0
100
AcDbLine
10
33.999999999999993
20
-32.387558604485079
30
0
11
34
21
-4.6401679000062934
31
0
0
LINE
5
114
100
AcDbEntity
8
0
100
AcDbLine
10
-34
20
7.6663987903353226
30
0
11
-34
21
-32.163161356794255
31
0
0
LINE
5
115
100
AcDbEntity
8
0
100
AcDbLine
10
-19.891546914551846
20
-22.829385094616672
30
0
11
-36
21
-22.829385094616654
31
0
0
LINE
5
116
100
AcDbEntity
8
0
100
AcDbLine
10
-13.891546914551874
20
-8.6057863019943284
30
0
11
-9.8915469145518706
21
-8.6057863019943266
31
0
0
LINE
5
117
100
AcDbEntity
8
0
100
AcDbLine
10
-19.891546914551846
20
-22.829385094616672
30
0
11
-9.8915469145518902
21
-22.829385094616686
31
0
0
LINE
5
118
100
AcDbEntity
8
0
100
AcDbLine
10
-9.8915469145518902
20
-22.829385094616686
30
0
11
-9.8915469145518706
21
-8.6057863019943266
31
0
0
LINE
5
119
100
AcDbEntity
8
0
100
AcDbLine
10
-13.891546914551874
20
-8.6057863019943284
30
0
11
-34.000000506639481
21
-8.6057863019943266
31
0
0
LINE
5
120
100
AcDbEntity
8
0
100
AcDbLine
10
21.475992388935087
20
-2.9875070341394383
30
0
11
16.626280399349948
21
-6.2928287658731605
31
0
0
ARC
5
121
100
AcDbEntity
8
0
100
AcDbCircle
10
13.528759621026797
20
-1.7480113847393119
30
0
40
5.4999999999999982
210
0
220
0
230
1
100
AcDbArc
50
239.52749441966071
51
304.27639049421083
0
LINE
5
122
100
AcDbEntity
8
0
100
AcDbLine
10
10.739573022202229
20
-6.4883107547092518
30
0
11
-16.246297760470124
21
9.3901440157789313
31
0
0
LINE
5
123
100
AcDbEntity
8
0
100
AcDbLine
10
-17.260547432769972
20
9.6663987903353163
30
0
11
-31.999999999999996
21
9.6663987903353217
31
0
0
ARC
5
124
100
AcDbEntity
8
0
100
AcDbCircle
10
22.602363581052604
20
-4.6401679000063218
30
0
40
2.0000000000000275
210
0
220
0
230
1
100
AcDbArc
50
90.000000000000199
51
124.27639049421049
0
ARC
5
125
100
AcDbEntity
8
0
100
AcDbCircle
10
-17.260547432769972
20
7.6663987903353261
30
0
40
1.9999999999999927
210
0
220
-0
230
1
100
AcDbArc
50
59.527494419660485
51
90
0
ARC
5
126
100
AcDbEntity
8
0
100
AcDbCircle
10
-32.000000000000007
20
7.6663987903353279
30
0
40
1.999999999999994
210
0
220
-0
230
1
100
AcDbArc
50
89.999999999999702
51
180
0
ARC
5
127
100
AcDbEntity
8
0
100
AcDbCircle
10
31.999999999999993
20
-4.6401679000063014
30
0
40
2.0000000000000062
210
0
220
-0
230
1
100
AcDbArc
50
0
51
89.999999999999901
0
LINE
5
128
100
AcDbEntity
8
0
100
AcDbLine
10
31.999999999999996
20
-2.6401679000062956
30
0
11
22.602363581052597
21
-2.6401679000062952
31
0
0
CIRCLE
5
129
100
AcDbEntity
8
0
100
AcDbCircle
10
29
20
-7.6401679000062952
30
0
40
1.4500000000000002
210
0
220
0
230
1
0
CIRCLE
5
130
100
AcDbEntity
8
0
100
AcDbCircle
10
24.700000000000003
20
-44.434856687515577
30
0
40
2.5
210
0
220
0
230
1
0
CIRCLE
5
131
100
AcDbEntity
8
0
100
AcDbCircle
10
-24.499999999999996
20
-44.434856687515577
30
0
40
2.5
210
0
220
0
230
1
0
CIRCLE
5
132
100
AcDbEntity
8
0
100
AcDbCircle
10
0.050000000000001141
20
-27.217428343757781
30
0
40
2.5
210
0
220
0
230
1
0
CIRCLE
5
133
100
AcDbEntity
8
0
100
AcDbCircle
10
29
20
-7.6401679000062952
30
0
40
2.5
210
0
220
0
230
1
0
CIRCLE
5
134
100
AcDbEntity
8
0
100
AcDbCircle
10
-29
20
4.6663987903353163
30
0
40
2.5
210
0
220
0
230
1
0
ARC
5
135
100
AcDbEntity
8
0
100
AcDbCircle
10
-7.7894357662616622
20
-55.593220465045441
30
0
40
1.9999999999999938
210
0
220
0
230
1
100
AcDbArc
50
192.14632501876105
51
270.00000000000023
0
LINE
5
136
100
AcDbEntity
8
0
100
AcDbLine
10
-7.7894357662616551
20
-57.593220465045434
30
0
11
3.3296567495582261
21
-57.593220465045434
31
0
0
ARC
5
137
100
AcDbEntity
8
0
100
AcDbCircle
10
3.3296567495582212
20
-55.59322046504542
30
0
40
2.0000000000000107
210
0
220
0
230
1
100
AcDbArc
50
270.00000000000017
51
347.85367498123861
0
ARC
5
138
100
AcDbEntity
8
0
100
AcDbCircle
10
7.2401104916482932
20
-56.434856687515577
30
0
40
2.0000000000000018
210
0
220
-0
230
1
100
AcDbArc
50
89.999999999999943
51
167.85367498123898
0
LINE
5
139
100
AcDbEntity
8
0
100
AcDbLine
10
-27.499999999999996
20
-54.434856687515577
30
0
11
-11.699889508351715
21
-54.434856687515577
31
0
0
ARC
5
140
100
AcDbEntity
8
0
100
AcDbCircle
10
-11.699889508351717
20
-56.434856687515584
30
0
40
1.9999999999999973
210
0
220
-0
230
1
100
AcDbArc
50
12.146325018761022
51
89.999999999999943
0
LINE
5
141
100
AcDbEntity
8
0
100
AcDbLine
10
1.2401104916482852
20
-58.593220465045441
30
0
11
-2.2298895083517163
21
-58.593220465045434
31
0
0
LINE
5
142
100
AcDbEntity
8
0
100
AcDbLine
10
2.5401104916482842
20
-58.593220465045441
30
0
11
2.5401104916482882
21
-56.735925563357441
31
0
0
LINE
5
143
100
AcDbEntity
8
0
100
AcDbLine
10
2.5401104916482842
20
-58.593220465045441
30
0
11
1.2401104916482852
21
-58.593220465045441
31
0
0
LINE
5
144
100
AcDbEntity
8
0
100
AcDbLine
10
2.5401104916482926
20
-54.750515366733438
30
0
11
2.5401104916482971
21
-52.777594574730443
31
0
0
LINE
5
145
100
AcDbEntity
8
0
100
AcDbLine
10
-6.409889508351716
20
-58.59322046504542
30
0
11
-5.1098895083517162
21
-58.59322046504542
31
0
0
LINE
5
146
100
AcDbEntity
8
0
100
AcDbLine
10
-2.2398895083517156
20
-58.593220465045434
30
0
11
-5.1098895083517162
21
-58.59322046504542
31
0
0
LINE
5
147
100
AcDbEntity
8
0
100
AcDbLine
10
-2.2398895083517156
20
-58.593220465045434
30
0
11
-2.2298895083517163
21
-58.593220465045434
31
0
0
LINE
5
148
100
AcDbEntity
8
0
100
AcDbLine
10
2.5401104916482891
20
-56.393220465045445
30
0
11
2.5401104916482882
21
-56.735925563357441
31
0
0
LINE
5
149
100
AcDbEntity
8
0
100
AcDbLine
10
2.5401104916482891
20
-56.393220465045445
30
0
11
2.5401104916482895
21
-56.093220465045441
31
0
0
LINE
5
150
100
AcDbEntity
8
0
100
AcDbLine
10
2.5401104916482895
20
-56.093220465045441
30
0
11
2.5401104916482904
21
-55.893220465045431
31
0
0
LINE
5
151
100
AcDbEntity
8
0
100
AcDbLine
10
2.5401104916482904
20
-55.893220465045431
30
0
11
2.5401104916482904
21
-55.593220465045441
31
0
0
LINE
5
152
100
AcDbEntity
8
0
100
AcDbLine
10
2.5401104916482908
20
-55.393220465045438
30
0
11
2.5401104916482904
21
-55.593220465045441
31
0
0
LINE
5
153
100
AcDbEntity
8
0
100
AcDbLine
10
2.5401104916482908
20
-55.393220465045438
30
0
11
2.5401104916482908
21
-55.293220465045437
31
0
0
LINE
5
154
100
AcDbEntity
8
0
100
AcDbLine
10
2.5401104916482908
20
-55.293220465045437
30
0
11
2.5401104916482913
21
-55.093220465045441
31
0
0
LINE
5
155
100
AcDbEntity
8
0
100
AcDbLine
10
2.5401104916482926
20
-54.750515366733438
30
0
11
2.5401104916482913
21
-55.093220465045441
31
0
0
LINE
5
156
100
AcDbEntity
8
0
100
AcDbLine
10
2.5401104916482979
20
-52.333220465045443
30
0
11
2.5401104916482971
21
-52.777594574730443
31
0
0
LINE
5
157
100
AcDbEntity
8
0
100
AcDbLine
10
2.5401104916482979
20
-52.333220465045443
30
0
11
2.5401104916482984
21
-51.983220465045441
31
0
0
LINE
5
158
100
AcDbEntity
8
0
100
AcDbLine
10
2.5401104916482997
20
-51.643220465045438
30
0
11
2.5401104916482984
21
-51.983220465045441
31
0
0
LINE
5
159
100
AcDbEntity
8
0
100
AcDbLine
10
2.5401104916482997
20
-51.643220465045438
30
0
11
2.5401104916483002
21
-51.293220465045437
31
0
0
LINE
5
160
100
AcDbEntity
8
0
100
AcDbLine
10
-6.4098895083517116
20
-56.735925563357426
30
0
11
-6.409889508351716
21
-58.59322046504542
31
0
0
LINE
5
161
100
AcDbEntity
8
0
100
AcDbLine
10
-6.4098895083517
20
-51.643220465045417
30
0
11
-6.4098895083516991
21
-51.293220465045415
31
0
0
LINE
5
162
100
AcDbEntity
8
0
100
AcDbLine
10
-6.4098895083517
20
-51.643220465045417
30
0
11
-6.4098895083517018
21
-51.98322046504542
31
0
0
LINE
5
163
100
AcDbEntity
8
0
100
AcDbLine
10
-6.4098895083517027
20
-52.333220465045414
30
0
11
-6.4098895083517018
21
-51.98322046504542
31
0
0
LINE
5
164
100
AcDbEntity
8
0
100
AcDbLine
10
-6.4098895083517027
20
-52.333220465045414
30
0
11
-6.4098895083517027
21
-52.77759457473023
31
0
0
LINE
5
165
100
AcDbEntity
8
0
100
AcDbLine
10
-6.4098895083517027
20
-52.77759457473023
30
0
11
-6.4098895083517071
21
-54.750515366733424
31
0
0
LINE
5
166
100
AcDbEntity
8
0
100
AcDbLine
10
-6.4098895083517071
20
-54.750515366733424
30
0
11
-6.409889508351708
21
-55.093220465045427
31
0
0
LINE
5
167
100
AcDbEntity
8
0
100
AcDbLine
10
-6.4098895083517089
20
-55.293220465045422
30
0
11
-6.409889508351708
21
-55.093220465045427
31
0
0
LINE
5
168
100
AcDbEntity
8
0
100
AcDbLine
10
-6.4098895083517089
20
-55.393220465045417
30
0
11
-6.4098895083517089
21
-55.293220465045422
31
0
0
LINE
5
169
100
AcDbEntity
8
0
100
AcDbLine
10
-6.4098895083517089
20
-55.393220465045417
30
0
11
-6.4098895083517089
21
-55.593220465045412
31
0
0
LINE
5
170
100
AcDbEntity
8
0
100
AcDbLine
10
-6.4098895083517107
20
-55.893220465045417
30
0
11
-6.4098895083517089
21
-55.593220465045412
31
0
0
LINE
5
171
100
AcDbEntity
8
0
100
AcDbLine
10
-6.4098895083517107
20
-56.09322046504542
30
0
11
-6.4098895083517107
21
-55.893220465045417
31
0
0
LINE
5
172
100
AcDbEntity
8
0
100
AcDbLine
10
-6.4098895083517116
20
-56.393220465045424
30
0
11
-6.4098895083517107
21
-56.09322046504542
31
0
0
LINE
5
173
100
AcDbEntity
8
0
100
AcDbLine
10
-6.4098895083517116
20
-56.393220465045424
30
0
11
-6.4098895083517116
21
-56.735925563357426
31
0
0
LINE
5
174
100
AcDbEntity
8
0
100
AcDbLine
10
-5.6298895083516998
20
-51.293220465045422
30
0
11
-5.6298895083517007
21
-51.993220465045425
31
0
0
LINE
5
175
100
AcDbEntity
8
0
100
AcDbLine
10
1.7601104915443
20
-51.293220465045444
30
0
11
1.7601104915442987
21
-51.993220465045447
31
0
0
LINE
5
176
100
AcDbEntity
8
0
100
AcDbLine
10
2.2401104916483003
20
-51.643220465045438
30
0
11
2.2401104916483012
21
-51.293220465045437
31
0
0
LINE
5
177
100
AcDbEntity
8
0
100
AcDbLine
10
2.2401104916483003
20
-51.643220465045438
30
0
11
2.2401104916482999
21
-51.983220465045434
31
0
0
LINE
5
178
100
AcDbEntity
8
0
100
AcDbLine
10
2.2401104916482995
20
-51.993220465045425
30
0
11
2.2401104916482999
21
-51.983220465045434
31
0
0
LINE
5
179
100
AcDbEntity
8
0
100
AcDbLine
10
2.5401104916483002
20
-51.293220465045437
30
0
11
2.2401104916483012
21
-51.293220465045437
31
0
0
LINE
5
180
100
AcDbEntity
8
0
100
AcDbLine
10
2.2401104916482995
20
-51.993220465045425
30
0
11
1.7601104915442987
21
-51.993220465045447
31
0
0
LINE
5
181
100
AcDbEntity
8
0
100
AcDbLine
10
1.2401104916483008
20
-51.293220465045437
30
0
11
1.6401104915680764
21
-51.293220465045437
31
0
0
LINE
5
182
100
AcDbEntity
8
0
100
AcDbLine
10
-4.489889508351701
20
-51.493220465045425
30
0
11
-4.4898895083517019
21
-52.09322046504542
31
0
0
ARC
5
183
100
AcDbEntity
8
0
100
AcDbCircle
10
-4.2898895083517017
20
-52.093220465045427
30
0
40
0.20000000000000018
210
0
220
0
230
1
100
AcDbArc
50
180
51
269.99999999999972
0
LINE
5
184
100
AcDbEntity
8
0
100
AcDbLine
10
-4.2898895083517026
20
-52.293220465045422
30
0
11
-3.2398895083517019
21
-52.293220465045422
31
0
0
ARC
5
185
100
AcDbEntity
8
0
100
AcDbCircle
10
-3.2398895083517019
20
-52.093220465045427
30
0
40
0.19999999999999574
210
-0
220
0
230
1
100
AcDbArc
50
-90
51
89.999999999999872
0
LINE
5
186
100
AcDbEntity
8
0
100
AcDbLine
10
-0.62988950835169977
20
-51.293220465045437
30
0
11
-3.2398895083517005
21
-51.293220465045422
31
0
0
ARC
5
187
100
AcDbEntity
8
0
100
AcDbCircle
10
-0.62988950835170088
20
-52.093220465045434
30
0
40
0.19999999999999574
210
-0
220
0
230
1
100
AcDbArc
50
89.999999999999872
51
269.99999999999989
0
LINE
5
188
100
AcDbEntity
8
0
100
AcDbLine
10
0.42011049164829783
20
-52.293220465045437
30
0
11
-0.62988950835170132
21
-52.29322046504543
31
0
0
ARC
5
189
100
AcDbEntity
8
0
100
AcDbCircle
10
0.42011049164829894
20
-52.093220465045434
30
0
40
0.20000000000000462
210
0
220
0
230
1
100
AcDbArc
50
-90.000000000000313
51
0
0
LINE
5
190
100
AcDbEntity
8
0
100
AcDbLine
10
0.62011049164830023
20
-51.493220465045439
30
0
11
0.62011049164829901
21
-52.093220465045434
31
0
0
ARC
5
191
100
AcDbEntity
8
0
100
AcDbCircle
10
0.82011049164830041
20
-51.493220465045439
30
0
40
0.19999999999999574
210
-0
220
0
230
1
100
AcDbArc
50
89.999999999999872
51
180
0
LINE
5
192
100
AcDbEntity
8
0
100
AcDbLine
10
1.2401104916483008
20
-51.293220465045437
30
0
11
0.82011049164830085
21
-51.293220465045444
31
0
0
LINE
5
193
100
AcDbEntity
8
0
100
AcDbLine
10
-4.6898895083517003
20
-51.293220465045422
30
0
11
-5.1098895083517002
21
-51.293220465045422
31
0
0
ARC
5
194
100
AcDbEntity
8
0
100
AcDbCircle
10
-4.6898895083517003
20
-51.493220465045425
30
0
40
0.19999999999999962
210
-0
220
0
230
1
100
AcDbArc
50
0
51
90
0
LINE
5
195
100
AcDbEntity
8
0
100
AcDbLine
10
-5.1098895083517002
20
-51.293220465045422
30
0
11
-5.5098895083517618
21
-51.293220465045422
31
0
0
LINE
5
196
100
AcDbEntity
8
0
100
AcDbLine
10
-6.1098895083517011
20
-51.993220465045425
30
0
11
-5.6298895083517007
21
-51.993220465045425
31
0
0
LINE
5
197
100
AcDbEntity
8
0
100
AcDbLine
10
-6.1098895083517011
20
-51.993220465045425
30
0
11
-6.1098895083517011
21
-51.983220465045427
31
0
0
LINE
5
198
100
AcDbEntity
8
0
100
AcDbLine
10
-6.1098895083517011
20
-51.643220465045417
30
0
11
-6.1098895083517011
21
-51.983220465045427
31
0
0
LINE
5
199
100
AcDbEntity
8
0
100
AcDbLine
10
-6.1098895083517011
20
-51.643220465045417
30
0
11
-6.1098895083517002
21
-51.293220465045415
31
0
0
LINE
5
200
100
AcDbEntity
8
0
100
AcDbLine
10
-6.4098895083516991
20
-51.293220465045415
30
0
11
-6.1098895083517002
21
-51.293220465045415
31
0
0
LINE
5
201
100
AcDbEntity
8
0
100
AcDbLine
10
-5.6298895083516998
20
-51.293220465045422
30
0
11
-5.5098895083517618
21
-51.293220465045422
31
0
0
LINE
5
202
100
AcDbEntity
8
0
100
AcDbLine
10
1.6401104915680764
20
-51.293220465045437
30
0
11
1.7601104915443
21
-51.293220465045444
31
0
0
LINE
5
203
100
AcDbEntity
8
0
100
AcDbLine
10
-3.2398895083517005
20
-51.293220465045422
30
0
11
-3.4898895083517956
21
-51.293220465045422
31
0
0
LINE
5
204
100
AcDbEntity
8
0
100
AcDbLine
10
-3.7496971294868504
20
-51.293220465045422
30
0
11
-3.4898895083517956
21
-51.293220465045422
31
0
0
LINE
5
205
100
AcDbEntity
8
0
100
AcDbLine
10
-3.7496971294868504
20
-51.293220465045422
30
0
11
-3.8996971294870471
21
-51.293220465045422
31
0
0
LINE
5
206
100
AcDbEntity
8
0
100
AcDbLine
10
-0.12008188721669977
20
-51.293220465045437
30
0
11
0.029918112783646738
21
-51.293220465045437
31
0
0
LINE
5
207
100
AcDbEntity
8
0
100
AcDbLine
10
-0.12008188721669977
20
-51.293220465045437
30
0
11
-0.37988950835159957
21
-51.293220465045437
31
0
0
LINE
5
208
100
AcDbEntity
8
0
100
AcDbLine
10
-0.62988950835169977
20
-51.293220465045437
30
0
11
-0.37988950835159957
21
-51.293220465045437
31
0
0
LINE
5
209
100
AcDbEntity
8
0
100
AcDbLine
10
-3.2398895083517014
20
-51.893220465045431
30
0
11
-3.4898895083517969
21
-51.893220465045431
31
0
0
LINE
5
210
100
AcDbEntity
8
0
100
AcDbLine
10
-0.62988950835170043
20
-51.893220465045438
30
0
11
-0.37988950835160629
21
-51.893220465045431
31
0
0
LINE
5
211
100
AcDbEntity
8
0
100
AcDbLine
10
-0.37988950835160629
20
-51.893220465045431
30
0
11
-0.12008188721665075
21
-51.893220465045431
31
0
0
LINE
5
212
100
AcDbEntity
8
0
100
AcDbLine
10
-0.12008188721665075
20
-51.893220465045431
30
0
11
0.029918112783645628
21
-51.893220465045431
31
0
0
ELLIPSE
5
213
100
AcDbEntity
8
0
100
AcDbEllipse
10
0.029918112783299255
20
-51.793220465045437
30
0
11
-2.1649348980190559e-16
21
-0.10000000000000002
31
0.0
40
0.8660254037843288
41
4.0020209368663018e-12
42
1.5707963267947829
0
LINE
5
214
100
AcDbEntity
8
0
100
AcDbLine
10
0.11652065316173216
20
-51.793220465045437
30
0
11
0.11652065316229973
21
-51.393220465045431
31
0
0
ELLIPSE
5
215
100
AcDbEntity
8
0
100
AcDbEllipse
10
0.029918112783300366
20
-51.393220465045431
30
0
11
2.1649348980190559e-16
21
0.10000000000000002
31
0.0
40
0.8660254037843288
41
4.712388980384576
42
6.2831853071755894
0
LINE
5
216
100
AcDbEntity
8
0
100
AcDbLine
10
-3.4898895083517969
20
-51.893220465045431
30
0
11
-3.7496971294867514
21
-51.893220465045431
31
0
0
ELLIPSE
5
217
100
AcDbEntity
8
0
100
AcDbEllipse
10
-3.8996971294867007
20
-51.393220465045424
30
0
11
2.1649348980190569e-16
21
0.10000000000000002
31
0.0
40
0.8660254037843288
41
4.0074610296874206e-12
42
1.5707963267950102
0
LINE
5
218
100
AcDbEntity
8
0
100
AcDbLine
10
-3.9862996698657014
20
-51.793220465045437
30
0
11
-3.986299669865133
21
-51.393220465045424
31
0
0
ELLIPSE
5
219
100
AcDbEntity
8
0
100
AcDbEllipse
10
-3.8996971294867011
20
-51.793220465045422
30
0
11
2.1649348980190569e-16
21
0.10000000000000002
31
0.0
40
0.8660254037843288
41
1.5707963267951239
42
3.1415926535898002
0
LINE
5
220
100
AcDbEntity
8
0
100
AcDbLine
10
-3.7496971294867514
20
-51.893220465045431
30
0
11
-3.8996971294867007
21
-51.893220465045424
31
0
0
LINE
5
221
100
AcDbEntity
8
0
100
AcDbLine
10
19.075000000516262
20
4.8831027468090937
30
4.4408920985006262e-15
11
19.075000000516265
21
-54.434856687515577
31
4.4408920985006262e-15
0
LINE
5
222
100
AcDbEntity
8
0
100
AcDbLine
10
39.900000001032517
20
4.8831027468090937
30
4.4408920985006262e-15
11
-1.7499999999999938
21
4.8831027468090937
31
4.4408920985006262e-15
0
LINE
5
223
100
AcDbEntity
8
0
100
AcDbLine
10
29
20
-7.6401679000062952
30
0
11
34
21
-7.6401679000062961
31
0
0
LINE
5
224
100
AcDbEntity
8
0
100
AcDbLine
10
29
20
-7.6401679000062952
30
0
11
29
21
-2.6401679000062956
31
0
0
LINE
5
225
100
AcDbEntity
8
0
100
AcDbLine
10
24.700000000000003
20
-44.434856687515577
30
0
11
29.700000000000003
21
-44.434856687515577
31
0
0
LINE
5
226
100
AcDbEntity
8
0
100
AcDbLine
10
24.700000000000003
20
-44.434856687515577
30
0
11
24.699999999999996
21
-54.434856687515577
31
0
0
LINE
5
227
100
AcDbEntity
8
0
100
AcDbLine
10
-24.499999999999996
20
-44.434856687515577
30
0
11
-29.500000439584255
21
-44.434856687515577
31
0
0
LINE
5
228
100
AcDbEntity
8
0
100
AcDbLine
10
-24.499999999999996
20
-44.434856687515577
30
0
11
-24.499999999999996
21
-54.434856687515577
31
0
0
LINE
5
229
100
AcDbEntity
8
0
100
AcDbLine
10
-29
20
4.6663987903353163
30
0
11
-34
21
4.6663987903353163
31
0
0
LINE
5
230
100
AcDbEntity
8
0
100
AcDbLine
10
-29
20
4.6663987903353163
30
0
11
-29
21
9.6663987903353217
31
0
0
LINE
5
231
100
AcDbEntity
8
0
100
AcDbLine
10
0.050000000000001141
20
-27.217428343757781
30
0
11
0.050000000000011313
21
-0.19857850497748303
31
0
0
LINE
5
232
100
AcDbEntity
8
0
100
AcDbLine
10
0.050000000000001141
20
-27.217428343757781
30
0
11
-34
21
-27.217428343757781
31
0
0
LWPOLYLINE
5
233
100
AcDbEntity
8
0
100
AcDbPolyline
90
106
70
1
43
0.0
10
30.770809989685137
20
-13.23303520576367
10
30.770809989685137
20
-14.228305476033942
10
33.526213421954722
20
-14.302775839068255
42
-0.4063214186776346
10
33.720809989685137
20
-14.502702833042827
10
33.720809989685137
20
-17.413367578484518
42
-0.4063214186776346
10
33.526213421954722
20
-17.61329457245909
10
30.770809989685137
20
-17.687764935493401
10
30.770809989685137
20
-18.683035205763673
42
-0.41421356237309509
10
30.670809989685136
20
-18.783035205763671
10
30.420809989685136
20
-18.783035205763671
10
30.420809989685136
20
-19.058035205763673
10
30.420809989685136
20
-19.208035205763672
42
-0.41421356237309509
10
29.920809989685139
20
-19.708035205763672
10
29.370809989685135
20
-19.708035205763675
10
29.270809989685134
20
-19.708035205763675
10
27.320809989685134
20
-19.708035205763682
10
27.120809989685135
20
-19.708035205763682
10
26.920809989685136
20
-19.708035205763682
10
26.120809989685139
20
-19.708035205763686
10
25.920809989685125
20
-19.708035205763686
10
25.920809989685125
20
-20.134532328214423
10
25.920809989685125
20
-20.208035205763686
10
24.920809989685132
20
-20.208035205763686
10
24.920809989685132
20
-20.134532328214419
10
24.920809989685139
20
-19.708035205763693
10
24.720809989685137
20
-19.708035205763693
10
24.020809989685134
20
-19.708035205763693
10
23.820809989685134
20
-19.708035205763693
10
23.820809989685134
20
-19.308035205763694
10
24.020809989685134
20
-19.308035205763694
10
24.720809989685133
20
-19.308035205763691
10
24.920809989685132
20
-19.308035205763691
10
24.920809989685132
20
-19.258035205763687
10
25.920809989685125
20
-19.258035205763687
10
25.920809989685125
20
-19.308035205763687
10
26.120809989685139
20
-19.308035205763684
10
26.920809989685136
20
-19.308035205763684
10
27.120809989685135
20
-19.308035205763684
10
27.320809989685134
20
-19.30803520576368
10
29.270809989685134
20
-19.308035205763673
10
29.370809989685135
20
-19.308035205763677
10
29.920809989685139
20
-19.308035205763673
42
0.41421356237309509
10
30.020809989685134
20
-19.208035205763672
10
30.020809989685134
20
-19.058035205763673
10
30.020809989685134
20
-18.958035205763672
42
-0.41421356237312101
10
29.920809989685139
20
-19.058035205763673
10
27.320809989685134
20
-19.058035205763673
10
26.920809989685139
20
-19.058035205763669
42
-0.4142135623731048
10
26.720809989685137
20
-18.85803520576367
10
26.720809989685137
20
-18.558035205763673
10
26.420809989685132
20
-18.558035205763673
10
26.420809989685132
20
-17.858035205763674
10
26.720809989685137
20
-17.858035205763674
10
26.720809989685137
20
-17.458035205763672
10
26.720809989685137
20
-16.758035205763669
10
26.920809989685136
20
-16.758035205763669
10
27.120809989685135
20
-16.758035205763669
10
27.120809989685135
20
-15.158035205763671
10
26.920809989685136
20
-15.158035205763671
10
26.720809989685137
20
-15.158035205763671
10
26.720809989685137
20
-14.458035205763672
10
26.720809989685137
20
-14.058035205763673
10
26.420809989685132
20
-14.058035205763675
10
26.420809989685132
20
-13.358035205763674
10
26.720809989685137
20
-13.358035205763672
10
26.720809989685137
20
-13.058035205763671
42
-0.41421356237309509
10
26.920809989685136
20
-12.858035205763672
10
27.320809989685134
20
-12.858035205763672
10
29.920809989685132
20
-12.85803520576367
42
-0.41421356237309509
10
30.020809989685134
20
-12.958035205763672
10
30.020809989685134
20
-12.858035205763672
10
30.020809989685134
20
-12.708035205763672
42
0.41421356237312101
10
29.920809989685139
20
-12.608035205763674
10
29.370809989685135
20
-12.608035205763668
10
29.270809989685134
20
-12.608035205763668
10
27.320809989685134
20
-12.608035205763661
10
27.120809989685135
20
-12.608035205763661
10
26.920809989685136
20
-12.608035205763661
10
26.120809989685135
20
-12.608035205763656
10
25.920809989685125
20
-12.60803520576366
10
25.920809989685125
20
-12.658035205763657
10
24.920809989685132
20
-12.658035205763657
10
24.920809989685132
20
-12.608035205763652
10
24.720809989685133
20
-12.608035205763652
10
24.020809989685134
20
-12.608035205763651
10
23.820809989685134
20
-12.608035205763651
10
23.820809989685134
20
-12.20803520576365
10
24.020809989685141
20
-12.20803520576365
10
24.720809989685137
20
-12.208035205763652
10
24.920809989685139
20
-12.208035205763652
10
24.920809989685132
20
-11.781538083312924
10
24.920809989685132
20
-11.708035205763656
10
25.920809989685122
20
-11.708035205763656
10
25.920809989685122
20
-11.781538083312924
10
25.920809989685122
20
-12.208035205763657
10
26.120809989685139
20
-12.208035205763657
10
26.920809989685136
20
-12.208035205763661
10
27.120809989685135
20
-12.208035205763661
10
27.320809989685134
20
-12.208035205763661
10
29.270809989685134
20
-12.208035205763668
10
29.370809989685135
20
-12.208035205763668
10
29.920809989685139
20
-12.208035205763675
42
-0.4142135623731002
10
30.420809989685136
20
-12.708035205763672
10
30.420809989685136
20
-12.858035205763672
10
30.420809989685136
20
-13.133035205763672
10
30.670809989685136
20
-13.133035205763669
42
-0.41421356237309509
0
LWPOLYLINE
5
234
100
AcDbEntity
8
0
100
AcDbPolyline
90
10
70
1
43
0.0
10
-12.436861142933056
20
-45.113527097110513
10
-12.936861142933056
20
-45.113527097110513
10
-15.436861142933056
20
-45.113527097110513
10
-18.436861142933058
20
-45.113527097110513
10
-20.936861142933058
20
-45.113527097110513
10
-21.436861142933054
20
-45.113527097110513
10
-21.436861142933058
20
-56.41352709711051
42
0.41421356237309509
10
-20.936861142933054
20
-56.91352709711051
10
-12.936861142933056
20
-56.91352709711051
42
0.4142135623730937
10
-12.436861142933056
20
-56.41352709711051
0
LWPOLYLINE
5
235
100
AcDbEntity
8
0
100
AcDbPolyline
90
24
70
1
43
0.0
10
21.160110491648464
20
-56.793220465045223
10
21.160110491648425
20
-51.903447713063564
42
0.067558643062978596
10
21.435110491648423
20
-51.838972727341869
10
21.435110491648423
20
-52.050644466816394
42
0.73379938570534187
10
21.435110491648402
20
-49.665796463274035
10
21.435110491648402
20
-49.877468202748567
42
0.067558643062978291
10
21.160110491648403
20
-49.812993217026886
10
21.160110491648354
20
-43.793220465045223
10
20.060110491648349
20
-43.793220465045231
10
10.060110491648349
20
-43.793220465045323
10
8.9601104916483507
20
-43.79322046504533
10
8.9601104916484022
20
-49.812993217026992
42
0.067558643062978693
10
8.6851104916484019
20
-49.877468202748673
10
8.6851104916484019
20
-49.665796463274148
42
0.73379938570534264
10
8.6851104916484232
20
-52.050644466816507
10
8.6851104916484196
20
-51.838972727341968
42
0.067558643062979845
10
8.9601104916484218
20
-51.90344771306367
10
8.9601104916484626
20
-56.793220465045323
10
10.060110491648462
20
-56.793220465045316
10
11.610110491648463
20
-56.793220465045309
10
12.910110491648464
20
-56.793220465045295
10
17.210110491648464
20
-56.793220465045252
10
18.510110491648472
20
-56.793220465045238
10
20.060110491648473
20
-56.793220465045231
0
ENDSEC
0
SECTION
2
OBJECTS
0
DICTIONARY
5
C
100
AcDbDictionary
3
ACAD_GROUP
350
D
3
ACAD_MLINESTYLE
350
17
0
DICTIONARY
5
D
100
AcDbDictionary
0
DICTIONARY
5
1A
330
C
100
AcDbDictionary
0
DICTIONARY
5
17
100
AcDbDictionary
0
ENDSEC
0
EOF
