%TF.GenerationSoftware,KiCad,Pcbnew,(5.99.0-11604-g878538abff)*%
%TF.CreationDate,2021-08-06T13:48:49+02:00*%
%TF.ProjectId,pixel-pump-mainboard,7375636b-6572-42d6-9f6e-652d6d61696e,rev?*%
%TF.SameCoordinates,Original*%
%TF.FileFunction,Soldermask,Bot*%
%TF.FilePolarity,Negative*%
%FSLAX46Y46*%
G04 Gerber Fmt 4.6, Leading zero omitted, Abs format (unit mm)*
G04 Created by KiCad (PCBNEW (5.99.0-11604-g878538abff)) date 2021-08-06 13:48:49*
%MOMM*%
%LPD*%
G01*
G04 APERTURE LIST*
G04 Aperture macros list*
%AMRoundRect*
0 Rectangle with rounded corners*
0 $1 Rounding radius*
0 $2 $3 $4 $5 $6 $7 $8 $9 X,Y pos of 4 corners*
0 Add a 4 corners polygon primitive as box body*
4,1,4,$2,$3,$4,$5,$6,$7,$8,$9,$2,$3,0*
0 Add four circle primitives for the rounded corners*
1,1,$1+$1,$2,$3*
1,1,$1+$1,$4,$5*
1,1,$1+$1,$6,$7*
1,1,$1+$1,$8,$9*
0 Add four rect primitives between the rounded corners*
20,1,$1+$1,$2,$3,$4,$5,0*
20,1,$1+$1,$4,$5,$6,$7,0*
20,1,$1+$1,$6,$7,$8,$9,0*
20,1,$1+$1,$8,$9,$2,$3,0*%
G04 Aperture macros list end*
%ADD10R,1.350000X1.350000*%
%ADD11O,1.350000X1.350000*%
%ADD12C,6.400000*%
%ADD13C,0.800000*%
%ADD14RoundRect,0.250000X0.750000X-0.600000X0.750000X0.600000X-0.750000X0.600000X-0.750000X-0.600000X0*%
%ADD15O,2.000000X1.700000*%
%ADD16C,2.300000*%
%ADD17R,1.500000X1.500000*%
%ADD18C,1.500000*%
%ADD19C,0.700000*%
%ADD20O,1.050000X2.100000*%
%ADD21C,2.200000*%
%ADD22C,1.700000*%
%ADD23C,2.800000*%
%ADD24R,4.400000X1.800000*%
%ADD25O,4.000000X1.800000*%
%ADD26O,1.800000X4.000000*%
%ADD27RoundRect,0.250000X-0.750000X0.600000X-0.750000X-0.600000X0.750000X-0.600000X0.750000X0.600000X0*%
%ADD28R,2.600000X2.600000*%
%ADD29C,2.600000*%
%ADD30C,2.000000*%
G04 APERTURE END LIST*
D10*
%TO.C,J11*%
X130971800Y-128806200D03*
D11*
X128971800Y-128806200D03*
X130971800Y-126806200D03*
X128971800Y-126806200D03*
X130971800Y-124806200D03*
X128971800Y-124806200D03*
X130971800Y-122806200D03*
X128971800Y-122806200D03*
%TD*%
D12*
%TO.C,H1*%
X124663200Y-144424400D03*
D13*
X124663200Y-142024400D03*
X122263200Y-144424400D03*
X126360256Y-142727344D03*
X122966144Y-142727344D03*
X124663200Y-146824400D03*
X126360256Y-146121456D03*
X122966144Y-146121456D03*
X127063200Y-144424400D03*
%TD*%
D12*
%TO.C,H4*%
X75488800Y-144424400D03*
D13*
X77185856Y-146121456D03*
X73791744Y-146121456D03*
X75488800Y-146824400D03*
X73791744Y-142727344D03*
X73088800Y-144424400D03*
X77185856Y-142727344D03*
X77888800Y-144424400D03*
X75488800Y-142024400D03*
%TD*%
%TO.C,H3*%
X100076000Y-124854000D03*
D12*
X100076000Y-127254000D03*
D13*
X101773056Y-128951056D03*
X100076000Y-129654000D03*
X97676000Y-127254000D03*
X98378944Y-128951056D03*
X98378944Y-125556944D03*
X102476000Y-127254000D03*
X101773056Y-125556944D03*
%TD*%
D14*
%TO.C,J1*%
X98535000Y-111740000D03*
D15*
X98535000Y-109240000D03*
%TD*%
D16*
%TO.C,J3*%
X109062000Y-150741000D03*
X121062000Y-150741000D03*
D17*
X116592000Y-148441000D03*
D18*
X115572000Y-145901000D03*
X114552000Y-148441000D03*
X113532000Y-145901000D03*
%TD*%
D13*
%TO.C,H5*%
X69321344Y-93603744D03*
X71018400Y-92900800D03*
X69321344Y-96997856D03*
X68618400Y-95300800D03*
D12*
X71018400Y-95300800D03*
D13*
X72715456Y-93603744D03*
X71018400Y-97700800D03*
X73418400Y-95300800D03*
X72715456Y-96997856D03*
%TD*%
D19*
%TO.C,J12*%
X100934000Y-152390500D03*
X95154000Y-152390500D03*
D20*
X93724000Y-151860500D03*
X102364000Y-151860500D03*
X93724000Y-156040500D03*
X102364000Y-156040500D03*
%TD*%
D21*
%TO.C,SW1*%
X125403800Y-112425600D03*
X125403800Y-119425600D03*
D22*
X127903800Y-113675600D03*
X127903800Y-118175600D03*
%TD*%
D23*
%TO.C,TP19*%
X91694000Y-99060000D03*
%TD*%
D12*
%TO.C,H2*%
X128981200Y-107645200D03*
D13*
X130678256Y-109342256D03*
X126581200Y-107645200D03*
X127284144Y-105948144D03*
X128981200Y-110045200D03*
X128981200Y-105245200D03*
X130678256Y-105948144D03*
X131381200Y-107645200D03*
X127284144Y-109342256D03*
%TD*%
D24*
%TO.C,J5*%
X83067600Y-143256000D03*
D25*
X83067600Y-149056000D03*
D26*
X87867600Y-146256000D03*
%TD*%
D14*
%TO.C,J2*%
X98535000Y-119995000D03*
D15*
X98535000Y-117495000D03*
%TD*%
D27*
%TO.C,J4*%
X106900200Y-110560800D03*
D15*
X106900200Y-113060800D03*
%TD*%
D28*
%TO.C,J6*%
X114625200Y-113639800D03*
D29*
X119705200Y-113639800D03*
%TD*%
D30*
%TO.C,TP13*%
X69800000Y-121450000D03*
%TD*%
%TO.C,TP1*%
X99517200Y-153822400D03*
%TD*%
%TO.C,TP15*%
X123444000Y-127762000D03*
%TD*%
%TO.C,TP2*%
X96418400Y-153822400D03*
%TD*%
%TO.C,TP7*%
X72300000Y-108750000D03*
%TD*%
%TO.C,TP10*%
X68650000Y-112600000D03*
%TD*%
%TO.C,TP14*%
X123063000Y-124714000D03*
%TD*%
%TO.C,TP16*%
X75920600Y-129184400D03*
%TD*%
%TO.C,TP22*%
X122986800Y-135509000D03*
%TD*%
%TO.C,TP31*%
X115493800Y-151079200D03*
%TD*%
%TO.C,TP23*%
X126085600Y-139496800D03*
%TD*%
%TO.C,TP11*%
X84937600Y-125044200D03*
%TD*%
%TO.C,TP26*%
X106807000Y-122174000D03*
%TD*%
%TO.C,TP25*%
X110109000Y-128397000D03*
%TD*%
%TO.C,TP28*%
X109220000Y-125984000D03*
%TD*%
%TO.C,TP5*%
X88950800Y-135940800D03*
%TD*%
%TO.C,TP12*%
X126746000Y-121920000D03*
%TD*%
%TO.C,TP20*%
X112344200Y-151028400D03*
%TD*%
%TO.C,TP4*%
X68650000Y-110000000D03*
%TD*%
%TO.C,TP9*%
X75717400Y-110337600D03*
%TD*%
%TO.C,TP27*%
X107696000Y-128016000D03*
%TD*%
%TO.C,TP24*%
X130937000Y-119634000D03*
%TD*%
M02*
