M48
; DRILL file {KiCad (5.99.0-9379-gbf5cd2e233)} date Thursday, March 11, 2021 at 01:10:37 AM
; FORMAT={-:-/ absolute / inch / decimal}
; #@! TF.CreationDate,2021-03-11T01:10:37+01:00
; #@! TF.GenerationSoftware,Kicad,Pcbnew,(5.99.0-9379-gbf5cd2e233)
; #@! TF.FileFunction,Plated,1,4,PTH
FMAT,2
INCH
T1C0.0157
T2C0.0256
T3C0.0315
T4C0.0354
T5C0.0394
T6C0.0512
T7C0.0630
%
G90
G05
T1
X2.69Y-3.91
X2.69Y-4.7
X2.7Y-4.15
X2.71Y-4.45
X2.74Y-4.33
X2.77Y-5.24
X2.79Y-3.95
X2.83Y-4.38
X2.84Y-4.12
X2.89Y-4.2
X2.895Y-5.52
X2.93Y-4.45
X2.93Y-4.81
X2.93Y-5.56
X2.94Y-4.99
X3.0Y-5.89
X3.01Y-4.7
X3.025Y-4.605
X3.06Y-4.17
X3.0648Y-5.6108
X3.07Y-5.53
X3.1Y-3.98
X3.1Y-4.44
X3.125Y-4.61
X3.14Y-4.09
X3.14Y-4.7
X3.19Y-4.2
X3.21Y-4.81
X3.25Y-4.46
X3.26Y-3.86
X3.27Y-4.725
X3.315Y-4.74
X3.32Y-4.57
X3.36Y-4.06
X3.37Y-4.94
X3.375Y-4.15
X3.375Y-4.555
X3.415Y-5.54
X3.425Y-4.455
X3.43Y-5.6
X3.44Y-4.415
X3.47Y-4.575
X3.47Y-5.945
X3.4751Y-4.6451
X3.48Y-4.15
X3.4846Y-5.1746
X3.49Y-4.26
X3.49Y-4.5
X3.5Y-3.82
X3.505Y-4.735
X3.5126Y-4.3674
X3.52Y-4.67
X3.53Y-4.58
X3.53Y-4.83
X3.54Y-4.48
X3.55Y-4.07
X3.55Y-4.315
X3.555Y-4.215
X3.56Y-5.05
X3.56Y-5.855
X3.562Y-5.91
X3.5659Y-4.9054
X3.57Y-6.055
X3.5713Y-4.3703
X3.5761Y-4.7241
X3.58Y-4.12
X3.625Y-5.675
X3.635Y-6.01
X3.64Y-4.01
X3.65Y-4.3
X3.65Y-4.36
X3.655Y-5.045
X3.66Y-5.645
X3.66Y-5.905
X3.6718Y-4.2299
X3.675Y-5.78
X3.685Y-4.44
X3.695Y-3.875
X3.7004Y-4.8815
X3.7006Y-4.53
X3.705Y-3.935
X3.71Y-5.06
X3.71Y-5.825
X3.7407Y-4.2749
X3.745Y-4.865
X3.76Y-4.1085
X3.78Y-4.15
X3.79Y-4.35
X3.79Y-4.51
X3.795Y-3.945
X3.805Y-4.29
X3.8086Y-5.9906
X3.813Y-5.758
X3.84Y-5.69
X3.845Y-4.225
X3.86Y-4.85
X3.87Y-5.46
X3.8778Y-4.0735
X3.8835Y-4.2204
X3.9Y-5.82
X3.905Y-6.0
X3.91Y-6.085
X3.92Y-5.71
X3.925Y-4.025
X3.96Y-4.735
X3.96Y-4.79
X3.96Y-5.15
X3.96Y-5.835
X3.965Y-4.245
X3.9779Y-4.125
X3.99Y-4.035
X3.9974Y-4.2176
X4.005Y-5.875
X4.0259Y-4.8238
X4.0365Y-4.187
X4.065Y-5.875
X4.08Y-5.33
X4.1Y-4.865
X4.125Y-4.29
X4.13Y-5.395
X4.1334Y-4.11
X4.1456Y-4.2169
X4.15Y-4.41
X4.157Y-5.041
X4.165Y-4.15
X4.195Y-5.88
X4.204Y-5.19
X4.205Y-5.392
X4.22Y-5.15
X4.225Y-5.29
X4.228Y-4.98
X4.24Y-6.02
X4.245Y-5.855
X4.258Y-5.367
X4.2615Y-5.0865
X4.2667Y-5.4671
X4.27Y-5.657
X4.3092Y-4.2496
X4.32Y-5.2
X4.335Y-4.825
X4.345Y-5.145
X4.349Y-5.318
X4.365Y-4.2698
X4.3846Y-5.0711
X4.394Y-5.196
X4.3994Y-4.9016
X4.4197Y-5.0339
X4.42Y-4.41
X4.42Y-5.415
X4.4231Y-5.326
X4.4279Y-4.375
X4.4328Y-4.8391
X4.4703Y-4.8728
X4.4723Y-5.325
X4.48Y-4.719
X4.48Y-5.44
X4.48Y-5.585
X4.486Y-4.469
X4.4897Y-4.9438
X4.495Y-5.37
X4.5Y-4.795
X4.501Y-4.287
X4.5071Y-5.0386
X4.5154Y-5.205
X4.518Y-4.913
X4.5244Y-4.8556
X4.525Y-4.545
X4.531Y-5.071
X4.5357Y-5.3884
X4.55Y-5.005
X4.555Y-5.251
X4.5591Y-4.2809
X4.5613Y-4.9475
X4.565Y-5.2
X4.59Y-5.12
X4.591Y-4.557
X4.5934Y-5.2911
X4.6Y-4.27
X4.62Y-5.19
X4.635Y-4.865
X4.6388Y-4.8335
X4.6393Y-5.4049
X4.646Y-5.338
X4.647Y-4.264
X4.648Y-5.303
X4.655Y-5.2
X4.657Y-4.205
X4.6586Y-4.6271
X4.66Y-4.595
X4.665Y-4.705
X4.67Y-4.9
X4.681Y-4.503
X4.6887Y-4.2616
X4.708Y-5.427
X4.71Y-5.2232
X4.7195Y-5.1318
X4.737Y-5.321
X4.745Y-5.285
X4.748Y-5.424
X4.75Y-4.425
X4.7539Y-4.7659
X4.755Y-5.715
X4.79Y-5.22
X4.79Y-5.63
X4.799Y-5.42
X4.7995Y-4.2266
X4.815Y-4.125
X4.815Y-4.385
X4.8187Y-5.0596
X4.82Y-5.344
X4.825Y-5.215
X4.84Y-4.36
X4.845Y-5.445
X4.8485Y-5.2985
X4.85Y-4.27
X4.85Y-4.64
X4.855Y-4.52
X4.8574Y-5.2112
X4.865Y-5.915
X4.866Y-4.99
X4.87Y-5.155
X4.874Y-5.323
X4.88Y-4.75
X4.895Y-5.41
X4.9Y-4.35
X4.902Y-4.194
X4.904Y-5.0
X4.909Y-4.763
X4.911Y-5.263
X4.9138Y-4.2454
X4.9201Y-5.1981
X4.924Y-5.339
X4.9268Y-4.085
X4.935Y-4.35
X4.9416Y-5.0083
X4.949Y-5.8096
X4.96Y-4.16
X4.965Y-4.52
X4.965Y-4.635
X4.9674Y-5.3028
X4.97Y-4.35
X4.985Y-4.765
X4.986Y-4.258
X4.9865Y-5.1666
X4.99Y-5.995
X4.995Y-4.32
X4.996Y-5.227
X5.016Y-4.16
X5.028Y-4.8913
X5.03Y-5.955
X5.0305Y-4.7257
X5.032Y-5.2322
X5.038Y-5.183
X5.074Y-4.362
X5.0757Y-4.5547
X5.0835Y-4.5037
X5.0844Y-4.585
X5.11Y-4.525
X5.1107Y-4.4598
X5.113Y-4.6853
X5.122Y-4.324
X5.1224Y-4.4295
X5.125Y-4.615
X5.1384Y-4.8102
X5.1488Y-4.5268
X5.1509Y-4.3552
X5.1793Y-4.1809
X5.1938Y-4.8266
X5.195Y-4.295
X5.1999Y-4.4031
X5.207Y-4.264
X5.212Y-4.23
X5.2204Y-4.5238
X5.222Y-4.812
X5.228Y-4.746
X5.239Y-5.095
X5.2509Y-4.3504
X5.2516Y-4.4248
X5.254Y-5.012
X5.2561Y-5.057
T3
X5.0956Y-4.8919
X5.0956Y-4.9706
X5.0956Y-5.0494
X5.0956Y-5.1281
X5.1744Y-4.8919
X5.1744Y-4.9706
X5.1744Y-5.0494
X5.1744Y-5.1281
T4
X4.4698Y-5.7441
X4.5099Y-5.8441
X4.5501Y-5.7441
X4.5902Y-5.8441
T5
X3.8793Y-4.3008
X3.8793Y-4.3992
X3.8793Y-4.6458
X3.8793Y-4.7442
X4.0308Y-5.705
X4.1292Y-5.705
X4.2057Y-4.8058
X4.2057Y-4.9042
T6
X4.272Y-4.3552
X4.272Y-4.5552
T7
X3.02Y-3.69
T2
G00X3.6899Y-5.9571
M15
G01X3.6899Y-6.0004
M16
G05
G00X3.6899Y-6.1315
M15
G01X3.6899Y-6.1551
M16
G05
G00X4.0301Y-5.9571
M15
G01X4.0301Y-6.0004
M16
G05
G00X4.0301Y-6.1315
M15
G01X4.0301Y-6.1551
M16
G05
T3
G00X3.2152Y-5.635
M15
G01X3.3176Y-5.635
M16
G05
G00X3.2231Y-5.8633
M15
G01X3.3097Y-5.8633
M16
G05
G00X3.4554Y-5.7964
M15
G01X3.4554Y-5.7098
M16
G05
T0
M30
