M48
; DRILL file {KiCad (5.99.0-10573-gc33b2cfa8d)} date Wednesday, May 19, 2021 at 02:35:51 PM
; FORMAT={-:-/ absolute / inch / decimal}
; #@! TF.CreationDate,2021-05-19T14:35:51+02:00
; #@! TF.GenerationSoftware,Kicad,Pcbnew,(5.99.0-10573-gc33b2cfa8d)
; #@! TF.FileFunction,Plated,1,4,PTH
FMAT,2
INCH
; #@! TA.AperFunction,Plated,PTH,ViaDrill
T1C0.0118
; #@! TA.AperFunction,Plated,PTH,ViaDrill
T2C0.0138
; #@! TA.AperFunction,Plated,PTH,ComponentDrill
T3C0.0138
; #@! TA.AperFunction,Plated,PTH,ComponentDrill
T4C0.0197
; #@! TA.AperFunction,Plated,PTH,ComponentDrill
T5C0.0256
; #@! TA.AperFunction,Plated,PTH,ComponentDrill
T6C0.0315
; #@! TA.AperFunction,Plated,PTH,ComponentDrill
T7C0.0354
; #@! TA.AperFunction,Plated,PTH,ComponentDrill
T8C0.0394
; #@! TA.AperFunction,Plated,PTH,ComponentDrill
T9C0.0512
; #@! TA.AperFunction,Plated,PTH,ComponentDrill
T10C0.0630
; #@! TA.AperFunction,Plated,PTH,ComponentDrill
T11C0.1260
%
G90
G05
T1
X2.693Y-4.235
X2.719Y-4.696
X2.735Y-4.194
X2.749Y-3.96
X2.754Y-4.113
X2.768Y-5.007
X2.768Y-5.067
X2.799Y-4.943
X2.836Y-5.068
X2.837Y-5.008
X2.852Y-4.696
X2.852Y-4.946
X2.877Y-4.946
X2.902Y-4.992
X2.902Y-5.042
X2.902Y-5.101
X2.903Y-5.161
X2.93Y-3.976
X2.961Y-4.979
X2.972Y-4.794
X2.976Y-4.996
X2.988Y-4.234
X3.001Y-4.172
X3.029Y-5.261
X3.029Y-5.295
X3.029Y-5.329
X3.029Y-5.361
X3.029Y-5.395
X3.038Y-3.961
X3.047Y-4.116
X3.052Y-4.787
X3.063Y-4.511
X3.065Y-5.261
X3.065Y-5.296
X3.065Y-5.329
X3.065Y-5.361
X3.065Y-5.395
X3.075Y-4.246
X3.123Y-4.714
X3.128Y-4.198
X3.13Y-3.781
X3.131Y-4.778
X3.14Y-4.576
X3.223Y-4.813
X3.235Y-4.17
X3.253Y-3.78
X3.266Y-4.412
X3.278Y-4.753
X3.283Y-4.233
X3.331Y-4.998
X3.334Y-3.961
X3.34Y-4.116
X3.358Y-4.832
X3.371Y-4.342
X3.371Y-4.553
X3.376Y-3.78
X3.376Y-5.127
X3.41Y-4.659
X3.41Y-4.746
X3.411Y-5.102
X3.433Y-4.658
X3.433Y-4.746
X3.442Y-4.377
X3.443Y-4.228
X3.446Y-4.309
X3.457Y-4.659
X3.457Y-4.747
X3.457Y-5.185
X3.458Y-4.429
X3.467Y-4.231
X3.48Y-4.747
X3.481Y-4.66
X3.483Y-4.43
X3.496Y-4.834
X3.524Y-5.152
X3.534Y-4.048
X3.542Y-5.14
X3.55Y-3.912
X3.555Y-4.259
X3.588Y-5.443
X3.594Y-4.049
X3.6043Y-4.645
X3.614Y-4.512
X3.616Y-4.877
X3.618Y-4.547
X3.621Y-5.168
X3.622Y-4.631
X3.623Y-4.835
X3.6291Y-4.2959
X3.644Y-5.147
X3.649Y-4.375
X3.652Y-4.414
X3.655Y-5.197
X3.671Y-4.46
X3.682Y-3.966
X3.692Y-4.659
X3.693Y-4.745
X3.695Y-5.136
X3.7Y-4.137
X3.727Y-4.54
X3.73Y-4.111
X3.741Y-3.95
X3.749Y-5.208
X3.761Y-4.342
X3.795Y-3.931
X3.796Y-6.056
X3.803Y-4.091
X3.804Y-4.458
X3.819Y-5.208
X3.868Y-4.078
X3.918Y-6.056
X3.95Y-4.574
X3.9615Y-4.7728
X3.985Y-4.152
X4.0Y-5.329
X4.002Y-5.395
X4.027Y-5.537
X4.032Y-4.68
X4.034Y-5.391
X4.064Y-5.275
X4.069Y-5.372
X4.071Y-5.4
X4.074Y-5.349
X4.082Y-5.328
X4.089Y-5.272
X4.116Y-4.778
X4.121Y-6.032
X4.187Y-5.902
X4.231Y-5.731
X4.2409Y-5.163
X4.244Y-6.026
X4.253Y-5.029
X4.256Y-5.14
X4.274Y-4.749
X4.276Y-5.356
X4.318Y-5.224
X4.335Y-5.201
X4.347Y-5.263
X4.358Y-5.003
X4.386Y-5.245
X4.387Y-5.181
X4.387Y-5.7
X4.39Y-5.411
X4.399Y-4.842
X4.41Y-5.18
X4.41Y-5.245
X4.437Y-4.878
X4.449Y-4.942
X4.451Y-5.049
X4.473Y-5.511
X4.476Y-5.538
X4.518Y-5.355
X4.519Y-5.564
X4.525Y-5.001
X4.526Y-5.41
X4.53Y-5.106
X4.547Y-5.325
X4.57Y-5.564
X4.595Y-4.716
X4.613Y-5.589
X4.614Y-5.338
X4.63Y-5.389
X4.641Y-5.202
X4.665Y-5.735
X4.67Y-5.568
X4.69Y-4.971
X4.69Y-5.443
X4.729Y-5.167
X4.747Y-5.562
X4.785Y-5.114
X4.789Y-5.564
X4.825Y-4.923
X4.828Y-5.447
X4.857Y-6.001
X4.902Y-4.944
X4.993Y-5.99
X5.004Y-5.925
X5.007Y-5.439
X5.047Y-5.253
X5.089Y-5.297
X5.147Y-5.191
X5.199Y-5.187
T2
X3.184Y-5.05
X3.28Y-5.44
X3.31Y-5.168
X3.31Y-5.2
X3.31Y-5.302
X3.31Y-5.439
X3.342Y-5.44
X3.4006Y-5.2034
X3.402Y-5.258
X3.495Y-5.065
X3.51Y-5.495
X3.51Y-5.54
X3.6Y-5.68
X3.601Y-5.851
X3.64Y-5.68
X3.644Y-4.946
X3.681Y-5.306
X3.681Y-5.424
X3.694Y-5.028
X3.695Y-5.9
X3.715Y-5.49
X3.748Y-5.318
X3.76Y-5.68
X3.76Y-5.87
X3.78Y-5.587
X3.8Y-5.68
X3.825Y-5.497
X3.873Y-5.302
X3.873Y-5.409
X3.89Y-5.796
X3.96Y-5.87
X3.982Y-5.81
X4.015Y-5.9
X4.059Y-5.906
X4.112Y-5.859
X4.17Y-5.635
T3
X3.7246Y-5.3498
X3.7246Y-5.4
X3.7246Y-5.4502
X3.7748Y-5.3498
X3.7748Y-5.4
X3.7748Y-5.4502
X3.825Y-5.3498
X3.825Y-5.4
X3.825Y-5.4502
T4
X2.7015Y-3.752
X2.7292Y-3.6852
X2.7292Y-3.8188
X2.796Y-3.6575
X2.796Y-3.8465
X2.8628Y-3.6852
X2.8628Y-3.8188
X2.8775Y-5.686
X2.8905Y-3.752
X2.9052Y-5.6192
X2.9052Y-5.7528
X2.972Y-5.5915
X2.972Y-5.7805
X3.0388Y-5.6192
X3.0388Y-5.7528
X3.0665Y-5.686
X3.8455Y-5.01
X3.8732Y-4.9432
X3.8732Y-5.0768
X3.94Y-4.9155
X3.94Y-5.1045
X4.0068Y-4.9432
X4.0068Y-5.0768
X4.0345Y-5.01
X4.8135Y-5.686
X4.8412Y-5.6192
X4.8412Y-5.7528
X4.908Y-5.5915
X4.908Y-5.7805
X4.9748Y-5.6192
X4.9748Y-5.7528
X4.9835Y-4.238
X5.0025Y-5.686
X5.0112Y-4.1712
X5.0112Y-4.3048
X5.078Y-4.1435
X5.078Y-4.3325
X5.1448Y-4.1712
X5.1448Y-4.3048
X5.1725Y-4.238
T6
X5.0776Y-4.8349
X5.0776Y-4.9136
X5.0776Y-4.9924
X5.0776Y-5.0711
X5.1564Y-4.8349
X5.1564Y-4.9136
X5.1564Y-4.9924
X5.1564Y-5.0711
T7
X4.4698Y-5.7441
X4.5099Y-5.8441
X4.5501Y-5.7441
X4.5902Y-5.8441
T8
X3.8793Y-4.3008
X3.8793Y-4.3992
X3.8793Y-4.6258
X3.8793Y-4.7242
X4.1643Y-5.1358
X4.1643Y-5.2342
X4.2057Y-4.8058
X4.2057Y-4.9042
X5.0356Y-4.4754
X5.0356Y-4.6526
T9
X4.272Y-4.3552
X4.272Y-4.5552
X4.9372Y-4.4262
X4.9372Y-4.7018
T10
X3.02Y-3.669
T11
X2.796Y-3.752
X2.972Y-5.686
X3.94Y-5.01
X4.908Y-5.686
X5.078Y-4.238
T5
G00X3.6899Y-5.9571
M15
G01X3.6899Y-6.0004
M16
G05
G00X3.6899Y-6.1315
M15
G01X3.6899Y-6.1551
M16
G05
G00X4.0301Y-5.9571
M15
G01X4.0301Y-6.0004
M16
G05
G00X4.0301Y-6.1315
M15
G01X4.0301Y-6.1551
M16
G05
T6
G00X3.2192Y-5.64
M15
G01X3.3216Y-5.64
M16
G05
G00X3.2271Y-5.8683
M15
G01X3.3137Y-5.8683
M16
G05
G00X3.4594Y-5.8014
M15
G01X3.4594Y-5.7148
M16
G05
T0
M30
