%TF.GenerationSoftware,KiCad,Pcbnew,(5.99.0-9379-gbf5cd2e233)*%
%TF.CreationDate,2021-03-11T01:10:35+01:00*%
%TF.ProjectId,sucker-one-mainboard,7375636b-6572-42d6-9f6e-652d6d61696e,rev?*%
%TF.SameCoordinates,Original*%
%TF.FileFunction,Soldermask,Top*%
%TF.FilePolarity,Negative*%
%FSLAX46Y46*%
G04 Gerber Fmt 4.6, Leading zero omitted, Abs format (unit mm)*
G04 Created by KiCad (PCBNEW (5.99.0-9379-gbf5cd2e233)) date 2021-03-11 01:10:35*
%MOMM*%
%LPD*%
G01*
G04 APERTURE LIST*
G04 Aperture macros list*
%AMRoundRect*
0 Rectangle with rounded corners*
0 $1 Rounding radius*
0 $2 $3 $4 $5 $6 $7 $8 $9 X,Y pos of 4 corners*
0 Add a 4 corners polygon primitive as box body*
4,1,4,$2,$3,$4,$5,$6,$7,$8,$9,$2,$3,0*
0 Add four circle primitives for the rounded corners*
1,1,$1+$1,$2,$3*
1,1,$1+$1,$4,$5*
1,1,$1+$1,$6,$7*
1,1,$1+$1,$8,$9*
0 Add four rect primitives between the rounded corners*
20,1,$1+$1,$2,$3,$4,$5,0*
20,1,$1+$1,$4,$5,$6,$7,0*
20,1,$1+$1,$6,$7,$8,$9,0*
20,1,$1+$1,$8,$9,$2,$3,0*%
G04 Aperture macros list end*
%ADD10R,0.599999X1.899999*%
%ADD11R,2.100001X2.799999*%
%ADD12RoundRect,0.237500X-0.237500X0.250000X-0.237500X-0.250000X0.237500X-0.250000X0.237500X0.250000X0*%
%ADD13RoundRect,0.237500X0.300000X0.237500X-0.300000X0.237500X-0.300000X-0.237500X0.300000X-0.237500X0*%
%ADD14RoundRect,0.150000X-0.587500X-0.150000X0.587500X-0.150000X0.587500X0.150000X-0.587500X0.150000X0*%
%ADD15R,1.350000X1.350000*%
%ADD16O,1.350000X1.350000*%
%ADD17RoundRect,0.237500X-0.300000X-0.237500X0.300000X-0.237500X0.300000X0.237500X-0.300000X0.237500X0*%
%ADD18R,2.400000X2.000000*%
%ADD19R,1.700000X0.900000*%
%ADD20RoundRect,0.250000X0.750000X-0.600000X0.750000X0.600000X-0.750000X0.600000X-0.750000X-0.600000X0*%
%ADD21O,2.000000X1.700000*%
%ADD22RoundRect,0.237500X0.237500X-0.287500X0.237500X0.287500X-0.237500X0.287500X-0.237500X-0.287500X0*%
%ADD23RoundRect,0.237500X0.237500X-0.250000X0.237500X0.250000X-0.237500X0.250000X-0.237500X-0.250000X0*%
%ADD24RoundRect,0.237500X-0.250000X-0.237500X0.250000X-0.237500X0.250000X0.237500X-0.250000X0.237500X0*%
%ADD25C,2.300000*%
%ADD26R,1.500000X1.500000*%
%ADD27C,1.500000*%
%ADD28R,1.000000X1.400000*%
%ADD29RoundRect,0.237500X0.237500X-0.300000X0.237500X0.300000X-0.237500X0.300000X-0.237500X-0.300000X0*%
%ADD30RoundRect,0.150000X0.150000X0.625000X-0.150000X0.625000X-0.150000X-0.625000X0.150000X-0.625000X0*%
%ADD31RoundRect,0.250000X0.350000X0.650000X-0.350000X0.650000X-0.350000X-0.650000X0.350000X-0.650000X0*%
%ADD32R,0.500000X0.600000*%
%ADD33R,0.600000X0.500000*%
%ADD34R,2.000000X1.500000*%
%ADD35R,2.000000X3.800000*%
%ADD36R,1.100000X1.100000*%
%ADD37R,0.600000X1.450000*%
%ADD38R,0.300000X1.450000*%
%ADD39C,0.700000*%
%ADD40O,1.050000X2.100000*%
%ADD41RoundRect,0.237500X-0.237500X0.300000X-0.237500X-0.300000X0.237500X-0.300000X0.237500X0.300000X0*%
%ADD42RoundRect,0.062500X-0.375000X-0.062500X0.375000X-0.062500X0.375000X0.062500X-0.375000X0.062500X0*%
%ADD43RoundRect,0.062500X-0.062500X-0.375000X0.062500X-0.375000X0.062500X0.375000X-0.062500X0.375000X0*%
%ADD44R,5.600000X5.600000*%
%ADD45C,2.800000*%
%ADD46RoundRect,0.250000X-0.600000X-0.750000X0.600000X-0.750000X0.600000X0.750000X-0.600000X0.750000X0*%
%ADD47O,1.700000X2.000000*%
%ADD48RoundRect,0.237500X-0.287500X-0.237500X0.287500X-0.237500X0.287500X0.237500X-0.287500X0.237500X0*%
%ADD49RoundRect,0.150000X0.625000X-0.150000X0.625000X0.150000X-0.625000X0.150000X-0.625000X-0.150000X0*%
%ADD50RoundRect,0.250000X0.650000X-0.350000X0.650000X0.350000X-0.650000X0.350000X-0.650000X-0.350000X0*%
%ADD51RoundRect,0.237500X0.250000X0.237500X-0.250000X0.237500X-0.250000X-0.237500X0.250000X-0.237500X0*%
%ADD52RoundRect,0.237500X-0.237500X0.287500X-0.237500X-0.287500X0.237500X-0.287500X0.237500X0.287500X0*%
%ADD53R,4.400000X1.800000*%
%ADD54O,4.000000X1.800000*%
%ADD55O,1.800000X4.000000*%
%ADD56RoundRect,0.250000X-1.000000X1.950000X-1.000000X-1.950000X1.000000X-1.950000X1.000000X1.950000X0*%
%ADD57RoundRect,0.250000X-0.875000X-0.925000X0.875000X-0.925000X0.875000X0.925000X-0.875000X0.925000X0*%
%ADD58R,5.100000X2.350000*%
%ADD59RoundRect,0.250000X1.000000X-1.750000X1.000000X1.750000X-1.000000X1.750000X-1.000000X-1.750000X0*%
%ADD60RoundRect,0.250000X-1.450000X0.400000X-1.450000X-0.400000X1.450000X-0.400000X1.450000X0.400000X0*%
%ADD61RoundRect,0.250000X-0.750000X0.600000X-0.750000X-0.600000X0.750000X-0.600000X0.750000X0.600000X0*%
%ADD62R,1.100000X4.600000*%
%ADD63R,10.800000X9.400000*%
%ADD64R,2.600000X2.600000*%
%ADD65C,2.600000*%
%ADD66R,1.970000X0.600000*%
%ADD67R,1.500000X2.000000*%
%ADD68R,3.800000X2.000000*%
%ADD69R,2.300000X2.500000*%
G04 APERTURE END LIST*
D10*
%TO.C,J9*%
X122863999Y-140233000D03*
X121863999Y-140233000D03*
X120863998Y-140233000D03*
X119864000Y-140233000D03*
X118863999Y-140233000D03*
X117863999Y-140233000D03*
X116863998Y-140233000D03*
X115863998Y-140233000D03*
X114864000Y-140233000D03*
X113863999Y-140233000D03*
D11*
X126014000Y-137883000D03*
X110714001Y-137883000D03*
%TD*%
D12*
%TO.C,R26*%
X124460000Y-125960500D03*
X124460000Y-127785500D03*
%TD*%
D13*
%TO.C,C14*%
X118591500Y-125603000D03*
X116866500Y-125603000D03*
%TD*%
D14*
%TO.C,Q2*%
X75135500Y-110048000D03*
X75135500Y-111948000D03*
X77010500Y-110998000D03*
%TD*%
D15*
%TO.C,J11*%
X129429000Y-124254000D03*
D16*
X131429000Y-124254000D03*
X129429000Y-126254000D03*
X131429000Y-126254000D03*
X129429000Y-128254000D03*
X131429000Y-128254000D03*
X129429000Y-130254000D03*
X131429000Y-130254000D03*
%TD*%
D17*
%TO.C,C19*%
X122581500Y-129667000D03*
X124306500Y-129667000D03*
%TD*%
D18*
%TO.C,Y1*%
X116435500Y-113997500D03*
X116435500Y-117697500D03*
%TD*%
D19*
%TO.C,SW2*%
X131572000Y-115824000D03*
X131572000Y-119224000D03*
%TD*%
D12*
%TO.C,R23*%
X80899000Y-102973500D03*
X80899000Y-104798500D03*
%TD*%
D17*
%TO.C,C6*%
X115573000Y-111783500D03*
X117298000Y-111783500D03*
%TD*%
D20*
%TO.C,J1*%
X98535000Y-111740000D03*
D21*
X98535000Y-109240000D03*
%TD*%
D14*
%TO.C,Q3*%
X82628500Y-110048000D03*
X82628500Y-111948000D03*
X84503500Y-110998000D03*
%TD*%
D22*
%TO.C,D2*%
X102235000Y-105269000D03*
X102235000Y-103519000D03*
%TD*%
D23*
%TO.C,R14*%
X128397000Y-138580500D03*
X128397000Y-136755500D03*
%TD*%
D24*
%TO.C,R11*%
X82399500Y-106807000D03*
X84224500Y-106807000D03*
%TD*%
D25*
%TO.C,J3*%
X109062000Y-150741000D03*
X121062000Y-150741000D03*
D26*
X116592000Y-148441000D03*
D27*
X115572000Y-145901000D03*
X114552000Y-148441000D03*
X113532000Y-145901000D03*
%TD*%
D28*
%TO.C,Q5*%
X91374000Y-150157000D03*
X89474000Y-150157000D03*
X90424000Y-152357000D03*
%TD*%
D29*
%TO.C,C2*%
X125730000Y-108939500D03*
X125730000Y-107214500D03*
%TD*%
D30*
%TO.C,J8*%
X98639000Y-102180000D03*
X97639000Y-102180000D03*
X96639000Y-102180000D03*
X95639000Y-102180000D03*
X94639000Y-102180000D03*
X93639000Y-102180000D03*
D31*
X99939000Y-104705000D03*
X92339000Y-104705000D03*
%TD*%
D32*
%TO.C,D4*%
X122936000Y-147709000D03*
X122936000Y-148709000D03*
%TD*%
D12*
%TO.C,R28*%
X126492000Y-129008500D03*
X126492000Y-130833500D03*
%TD*%
D24*
%TO.C,R9*%
X74906500Y-106807000D03*
X76731500Y-106807000D03*
%TD*%
D33*
%TO.C,D5*%
X92321000Y-148640800D03*
X91321000Y-148640800D03*
%TD*%
D34*
%TO.C,U1*%
X74270000Y-104535000D03*
D35*
X67970000Y-102235000D03*
D34*
X74270000Y-102235000D03*
X74270000Y-99935000D03*
%TD*%
D12*
%TO.C,R21*%
X90678000Y-97385500D03*
X90678000Y-99210500D03*
%TD*%
D23*
%TO.C,R19*%
X72390000Y-141247500D03*
X72390000Y-139422500D03*
%TD*%
D36*
%TO.C,D9*%
X79502000Y-106804000D03*
X79502000Y-109604000D03*
%TD*%
D24*
%TO.C,R5*%
X94337500Y-148971000D03*
X96162500Y-148971000D03*
%TD*%
D36*
%TO.C,D10*%
X87122000Y-107947000D03*
X87122000Y-110747000D03*
%TD*%
D23*
%TO.C,R20*%
X98298000Y-143533500D03*
X98298000Y-141708500D03*
%TD*%
D36*
%TO.C,D3*%
X72009000Y-106804000D03*
X72009000Y-109604000D03*
%TD*%
D37*
%TO.C,J12*%
X94794000Y-150945500D03*
X95594000Y-150945500D03*
D38*
X96794000Y-150945500D03*
X97794000Y-150945500D03*
X98294000Y-150945500D03*
X99294000Y-150945500D03*
D37*
X101294000Y-150945500D03*
X100494000Y-150945500D03*
D38*
X99794000Y-150945500D03*
X98794000Y-150945500D03*
X97294000Y-150945500D03*
X96294000Y-150945500D03*
D39*
X100934000Y-152390500D03*
X95154000Y-152390500D03*
D40*
X93724000Y-151860500D03*
X102364000Y-151860500D03*
X93724000Y-156040500D03*
X102364000Y-156040500D03*
%TD*%
D41*
%TO.C,C9*%
X124358400Y-122073500D03*
X124358400Y-123798500D03*
%TD*%
D17*
%TO.C,C5*%
X120168500Y-109982000D03*
X121893500Y-109982000D03*
%TD*%
D42*
%TO.C,U4*%
X121149500Y-113455000D03*
X121149500Y-113955000D03*
X121149500Y-114455000D03*
X121149500Y-114955000D03*
X121149500Y-115455000D03*
X121149500Y-115955000D03*
X121149500Y-116455000D03*
X121149500Y-116955000D03*
X121149500Y-117455000D03*
X121149500Y-117955000D03*
X121149500Y-118455000D03*
X121149500Y-118955000D03*
D43*
X121837000Y-119642500D03*
X122337000Y-119642500D03*
X122837000Y-119642500D03*
X123337000Y-119642500D03*
X123837000Y-119642500D03*
X124337000Y-119642500D03*
X124837000Y-119642500D03*
X125337000Y-119642500D03*
X125837000Y-119642500D03*
X126337000Y-119642500D03*
X126837000Y-119642500D03*
X127337000Y-119642500D03*
D42*
X128024500Y-118955000D03*
X128024500Y-118455000D03*
X128024500Y-117955000D03*
X128024500Y-117455000D03*
X128024500Y-116955000D03*
X128024500Y-116455000D03*
X128024500Y-115955000D03*
X128024500Y-115455000D03*
X128024500Y-114955000D03*
X128024500Y-114455000D03*
X128024500Y-113955000D03*
X128024500Y-113455000D03*
D43*
X127337000Y-112767500D03*
X126837000Y-112767500D03*
X126337000Y-112767500D03*
X125837000Y-112767500D03*
X125337000Y-112767500D03*
X124837000Y-112767500D03*
X124337000Y-112767500D03*
X123837000Y-112767500D03*
X123337000Y-112767500D03*
X122837000Y-112767500D03*
X122337000Y-112767500D03*
X121837000Y-112767500D03*
D44*
X124587000Y-116205000D03*
%TD*%
D12*
%TO.C,R16*%
X83820000Y-102973500D03*
X83820000Y-104798500D03*
%TD*%
D24*
%TO.C,R17*%
X82399500Y-108458000D03*
X84224500Y-108458000D03*
%TD*%
D23*
%TO.C,R12*%
X110998000Y-125372500D03*
X110998000Y-123547500D03*
%TD*%
D45*
%TO.C,TP19*%
X76708000Y-93726000D03*
%TD*%
D46*
%TO.C,J10*%
X102382000Y-144907000D03*
D47*
X104882000Y-144907000D03*
%TD*%
D14*
%TO.C,Q1*%
X67642500Y-110048000D03*
X67642500Y-111948000D03*
X69517500Y-110998000D03*
%TD*%
D48*
%TO.C,FB1*%
X116854000Y-127254000D03*
X118604000Y-127254000D03*
%TD*%
D41*
%TO.C,C11*%
X77216000Y-102642500D03*
X77216000Y-104367500D03*
%TD*%
D12*
%TO.C,R29*%
X120904000Y-121769500D03*
X120904000Y-123594500D03*
%TD*%
D23*
%TO.C,R24*%
X126746000Y-150264500D03*
X126746000Y-148439500D03*
%TD*%
D49*
%TO.C,J7*%
X94289000Y-112117000D03*
X94289000Y-111117000D03*
X94289000Y-110117000D03*
X94289000Y-109117000D03*
D50*
X91764000Y-113417000D03*
X91764000Y-107817000D03*
%TD*%
D51*
%TO.C,R13*%
X125499500Y-152654000D03*
X123674500Y-152654000D03*
%TD*%
D24*
%TO.C,R10*%
X87606500Y-128905000D03*
X89431500Y-128905000D03*
%TD*%
D23*
%TO.C,R8*%
X104013000Y-106449500D03*
X104013000Y-104624500D03*
%TD*%
D52*
%TO.C,D8*%
X110998000Y-119902000D03*
X110998000Y-121652000D03*
%TD*%
D12*
%TO.C,R22*%
X92456000Y-97385500D03*
X92456000Y-99210500D03*
%TD*%
D53*
%TO.C,J5*%
X82966000Y-143129000D03*
D54*
X82966000Y-148929000D03*
D55*
X87766000Y-146129000D03*
%TD*%
D56*
%TO.C,C4*%
X91948000Y-131436000D03*
X91948000Y-139836000D03*
%TD*%
D33*
%TO.C,D6*%
X97798000Y-145288000D03*
X98798000Y-145288000D03*
%TD*%
D20*
%TO.C,J2*%
X98535000Y-120503000D03*
D21*
X98535000Y-118003000D03*
%TD*%
D57*
%TO.C,C8*%
X87874000Y-125984000D03*
X92974000Y-125984000D03*
%TD*%
D23*
%TO.C,R3*%
X104140000Y-151788500D03*
X104140000Y-149963500D03*
%TD*%
D29*
%TO.C,C3*%
X77216000Y-100557500D03*
X77216000Y-98832500D03*
%TD*%
D13*
%TO.C,C13*%
X117298000Y-110005500D03*
X115573000Y-110005500D03*
%TD*%
D58*
%TO.C,L1*%
X70104000Y-126703000D03*
X70104000Y-130853000D03*
%TD*%
D59*
%TO.C,C21*%
X103505000Y-139495500D03*
X103505000Y-131495500D03*
%TD*%
D24*
%TO.C,R7*%
X67413500Y-108458000D03*
X69238500Y-108458000D03*
%TD*%
D60*
%TO.C,F1*%
X74422000Y-148270000D03*
X74422000Y-152720000D03*
%TD*%
D61*
%TO.C,J4*%
X106824000Y-122067000D03*
D21*
X106824000Y-124567000D03*
%TD*%
D17*
%TO.C,C7*%
X115573000Y-119911500D03*
X117298000Y-119911500D03*
%TD*%
D23*
%TO.C,R1*%
X91821000Y-155979500D03*
X91821000Y-154154500D03*
%TD*%
D51*
%TO.C,R18*%
X117348000Y-121816500D03*
X115523000Y-121816500D03*
%TD*%
D23*
%TO.C,R2*%
X104140000Y-155471500D03*
X104140000Y-153646500D03*
%TD*%
D62*
%TO.C,U2*%
X83283000Y-125924000D03*
X81583000Y-125924000D03*
D63*
X79883000Y-135074000D03*
D62*
X79883000Y-125924000D03*
X78183000Y-125924000D03*
X76483000Y-125924000D03*
%TD*%
D12*
%TO.C,R27*%
X126492000Y-125198500D03*
X126492000Y-127023500D03*
%TD*%
D32*
%TO.C,D12*%
X106045000Y-150249000D03*
X106045000Y-151249000D03*
%TD*%
D64*
%TO.C,J6*%
X108509000Y-115702000D03*
D65*
X108509000Y-110622000D03*
%TD*%
D24*
%TO.C,R6*%
X67413500Y-106807000D03*
X69238500Y-106807000D03*
%TD*%
D66*
%TO.C,U3*%
X95561000Y-147193000D03*
X95561000Y-145923000D03*
X95561000Y-144653000D03*
X95561000Y-143383000D03*
X90621000Y-143383000D03*
X90621000Y-144653000D03*
X90621000Y-145923000D03*
X90621000Y-147193000D03*
%TD*%
D67*
%TO.C,Q4*%
X80885000Y-100559000D03*
X83185000Y-100559000D03*
X85485000Y-100559000D03*
D68*
X83185000Y-94259000D03*
%TD*%
D19*
%TO.C,SW1*%
X131572000Y-113968000D03*
X131572000Y-110568000D03*
%TD*%
D17*
%TO.C,C1*%
X120168500Y-108331000D03*
X121893500Y-108331000D03*
%TD*%
D52*
%TO.C,D7*%
X95504000Y-124601000D03*
X95504000Y-126351000D03*
%TD*%
D41*
%TO.C,C10*%
X126746000Y-121438500D03*
X126746000Y-123163500D03*
%TD*%
D36*
%TO.C,D11*%
X87122000Y-105921000D03*
X87122000Y-103121000D03*
%TD*%
D12*
%TO.C,R4*%
X98298000Y-146915500D03*
X98298000Y-148740500D03*
%TD*%
D23*
%TO.C,R25*%
X124714000Y-150264500D03*
X124714000Y-148439500D03*
%TD*%
D69*
%TO.C,D1*%
X92964000Y-121911000D03*
X92964000Y-117611000D03*
%TD*%
D24*
%TO.C,R15*%
X74906500Y-108458000D03*
X76731500Y-108458000D03*
%TD*%
M02*
