M48
; DRILL file {KiCad (5.1.8-0-10_14)} date Tuesday, December 22, 2020 at 03:13:43 PM
; FORMAT={-:-/ absolute / inch / decimal}
; #@! TF.CreationDate,2020-12-22T15:13:43+01:00
; #@! TF.GenerationSoftware,Kicad,Pcbnew,(5.1.8-0-10_14)
; #@! TF.FileFunction,Plated,1,4,PTH
FMAT,2
INCH
T1C0.0157
T2C0.0236
T3C0.0354
T4C0.0374
T5C0.0394
%
G90
G05
T1
X2.5Y-3.01
X2.55Y-2.8
X2.63Y-2.62
X2.64Y-2.89
X2.64Y-3.02
X2.68Y-2.38
X2.75Y-2.5
X2.76Y-3.3
X2.77Y-2.57
X2.8Y-2.5
X2.8Y-2.94
X2.86Y-2.77
X2.92Y-2.1
X2.92Y-2.92
X2.95Y-2.38
X3.04Y-2.57
X3.05Y-2.73
X3.0829Y-2.79
X3.1Y-2.8915
X3.2Y-2.63
X3.22Y-2.4
X3.23Y-2.7
X3.24Y-2.77
X3.24Y-2.88
X3.2616Y-2.3319
X3.27Y-3.25
X3.28Y-3.35
X3.33Y-2.83
X3.33Y-2.93
X3.35Y-3.97
X3.372Y-4.1471
X3.38Y-2.3
X3.38Y-2.65
X3.39Y-2.52
X3.4Y-2.99
X3.4108Y-2.7424
X3.42Y-3.82
X3.4222Y-2.7997
X3.43Y-3.15
X3.43Y-3.32
X3.44Y-3.91
X3.4476Y-2.294
X3.45Y-2.53
X3.4616Y-2.7975
X3.4678Y-2.7268
X3.4729Y-2.6417
X3.4782Y-2.9765
X3.4798Y-4.29
X3.49Y-3.15
X3.4996Y-2.48
X3.5135Y-2.5169
X3.52Y-2.36
X3.52Y-3.54
X3.5269Y-2.9913
X3.53Y-2.63
X3.53Y-4.29
X3.54Y-2.31
X3.5497Y-4.0111
X3.55Y-3.32
X3.55Y-3.71
X3.5543Y-3.7612
X3.5565Y-2.9187
X3.56Y-4.2
X3.56Y-3.9732
X3.5687Y-3.3748
X3.5763Y-2.7285
X3.5813Y-3.0031
X3.5887Y-2.5309
X3.5925Y-2.78
X3.5979Y-2.9385
X3.617Y-3.8555
X3.6175Y-3.9196
X3.6329Y-2.6391
X3.6333Y-2.7243
X3.6395Y-2.5305
X3.64Y-2.31
X3.64Y-3.34
X3.6476Y-2.5752
X3.6488Y-2.8003
X3.65Y-3.0
X3.6523Y-3.1823
X3.67Y-3.77
X3.6749Y-2.5468
X3.68Y-3.94
X3.6833Y-2.6071
X3.69Y-2.35
X3.6921Y-2.472
X3.7Y-2.99
X3.7074Y-2.87
X3.708Y-2.7006
X3.7096Y-2.6612
X3.71Y-3.77
X3.7107Y-3.6607
X3.72Y-2.09
X3.73Y-2.36
X3.73Y-3.1722
X3.7302Y-3.9115
X3.74Y-4.0
X3.7424Y-2.9957
X3.75Y-2.83
X3.75Y-3.44
X3.76Y-2.9348
X3.76Y-4.17
X3.77Y-2.32
X3.77Y-3.77
X3.775Y-3.1729
X3.78Y-2.4
X3.78Y-3.9704
X3.7986Y-3.21
X3.8Y-2.22
X3.8Y-3.08
X3.8Y-3.26
X3.81Y-2.13
X3.8116Y-3.7826
X3.82Y-3.96
X3.8206Y-3.9191
X3.8288Y-2.7791
X3.8402Y-2.6998
X3.85Y-3.35
X3.853Y-3.6385
X3.86Y-2.62
X3.86Y-3.02
X3.86Y-4.29
X3.8602Y-2.5798
X3.8605Y-2.8311
X3.8673Y-2.3667
X3.87Y-3.29
X3.87Y-3.72
X3.8784Y-2.1613
X3.88Y-3.48
X3.8949Y-2.8119
X3.9Y-3.08
X3.9Y-3.81
X3.9015Y-2.4515
X3.9104Y-2.3021
X3.9166Y-2.6615
X3.92Y-2.54
X3.92Y-3.23
X3.9234Y-2.1662
X3.93Y-2.12
X3.94Y-2.88
X3.94Y-3.63
X3.96Y-4.06
X3.9618Y-2.216
X3.97Y-2.44
X3.99Y-3.89
X3.99Y-4.18
X4.0015Y-2.62
X4.01Y-2.5
X4.02Y-2.41
X4.03Y-2.31
X4.03Y-2.58
X4.03Y-3.79
X4.03Y-3.91
X4.04Y-3.5
X4.0409Y-3.0818
X4.05Y-2.07
X4.05Y-3.54
X4.05Y-3.71
X4.07Y-2.55
X4.07Y-2.83
X4.07Y-3.82
X4.0701Y-3.2321
X4.08Y-2.16
X4.089Y-2.4487
X4.0929Y-3.2642
X4.1028Y-2.5282
X4.12Y-2.09
X4.12Y-3.22
X4.15Y-2.15
X4.15Y-4.0
X4.1557Y-2.7
X4.16Y-3.09
X4.18Y-3.22
X4.23Y-3.34
X4.24Y-3.2417
X4.25Y-2.55
X4.26Y-2.7
X4.27Y-3.82
X4.2857Y-3.9757
X4.3Y-2.87
X4.3Y-2.87
X4.35Y-3.58
X4.38Y-3.82
X4.39Y-2.97
X4.46Y-3.16
X4.56Y-3.81
X4.5695Y-3.9511
X4.6196Y-3.8818
X4.71Y-3.69
X4.7234Y-3.8206
X4.74Y-3.66
X4.78Y-3.89
X4.8977Y-3.9394
X5.04Y-3.59
X5.04Y-3.98
X5.05Y-3.92
X5.07Y-4.13
X5.07Y-4.36
X5.09Y-3.84
X5.1Y-3.68
X5.25Y-4.13
T3
X2.495Y-2.5197
X2.495Y-2.6
X2.595Y-2.4795
X2.595Y-2.5598
T4
X5.2Y-3.63
X5.2Y-3.7284
X5.2Y-3.8269
X5.2Y-3.9253
X5.2Y-4.0237
T5
X4.1Y-4.2
X4.1984Y-4.2
X2.56Y-3.1016
X2.56Y-3.2
X4.7916Y-3.41
X4.89Y-3.41
X4.5Y-2.28
X4.5Y-2.38
X4.5Y-2.48
X4.5Y-2.58
X4.5Y-2.68
X4.5Y-2.78
X4.8Y-4.2
X4.8984Y-4.2
X4.45Y-4.2
X4.5484Y-4.2
T2
G00X3.3142Y-3.6999
M15
G01X3.2906Y-3.6999
M16
G05
G00X3.3142Y-4.0401
M15
G01X3.2906Y-4.0401
M16
G05
G00X3.4886Y-3.6999
M15
G01X3.4453Y-3.6999
M16
G05
G00X3.4886Y-4.0401
M15
G01X3.4453Y-4.0401
M16
G05
T0
M30
