%TF.GenerationSoftware,KiCad,Pcbnew,(5.99.0-9379-gbf5cd2e233)*%
%TF.CreationDate,2021-03-10T08:56:36+01:00*%
%TF.ProjectId,sucker-one-mainboard,7375636b-6572-42d6-9f6e-652d6d61696e,rev?*%
%TF.SameCoordinates,Original*%
%TF.FileFunction,Copper,L1,Top*%
%TF.FilePolarity,Positive*%
%FSLAX46Y46*%
G04 Gerber Fmt 4.6, Leading zero omitted, Abs format (unit mm)*
G04 Created by KiCad (PCBNEW (5.99.0-9379-gbf5cd2e233)) date 2021-03-10 08:56:36*
%MOMM*%
%LPD*%
G01*
G04 APERTURE LIST*
G04 Aperture macros list*
%AMRoundRect*
0 Rectangle with rounded corners*
0 $1 Rounding radius*
0 $2 $3 $4 $5 $6 $7 $8 $9 X,Y pos of 4 corners*
0 Add a 4 corners polygon primitive as box body*
4,1,4,$2,$3,$4,$5,$6,$7,$8,$9,$2,$3,0*
0 Add four circle primitives for the rounded corners*
1,1,$1+$1,$2,$3*
1,1,$1+$1,$4,$5*
1,1,$1+$1,$6,$7*
1,1,$1+$1,$8,$9*
0 Add four rect primitives between the rounded corners*
20,1,$1+$1,$2,$3,$4,$5,0*
20,1,$1+$1,$4,$5,$6,$7,0*
20,1,$1+$1,$6,$7,$8,$9,0*
20,1,$1+$1,$8,$9,$2,$3,0*%
G04 Aperture macros list end*
%TA.AperFunction,SMDPad,CuDef*%
%ADD10R,0.599999X1.899999*%
%TD*%
%TA.AperFunction,SMDPad,CuDef*%
%ADD11R,2.100001X2.799999*%
%TD*%
%TA.AperFunction,SMDPad,CuDef*%
%ADD12RoundRect,0.237500X-0.237500X0.250000X-0.237500X-0.250000X0.237500X-0.250000X0.237500X0.250000X0*%
%TD*%
%TA.AperFunction,SMDPad,CuDef*%
%ADD13RoundRect,0.237500X0.300000X0.237500X-0.300000X0.237500X-0.300000X-0.237500X0.300000X-0.237500X0*%
%TD*%
%TA.AperFunction,SMDPad,CuDef*%
%ADD14RoundRect,0.150000X-0.587500X-0.150000X0.587500X-0.150000X0.587500X0.150000X-0.587500X0.150000X0*%
%TD*%
%TA.AperFunction,ComponentPad*%
%ADD15R,1.350000X1.350000*%
%TD*%
%TA.AperFunction,ComponentPad*%
%ADD16O,1.350000X1.350000*%
%TD*%
%TA.AperFunction,SMDPad,CuDef*%
%ADD17RoundRect,0.237500X-0.300000X-0.237500X0.300000X-0.237500X0.300000X0.237500X-0.300000X0.237500X0*%
%TD*%
%TA.AperFunction,SMDPad,CuDef*%
%ADD18R,2.400000X2.000000*%
%TD*%
%TA.AperFunction,SMDPad,CuDef*%
%ADD19R,1.700000X0.900000*%
%TD*%
%TA.AperFunction,ComponentPad*%
%ADD20RoundRect,0.250000X0.750000X-0.600000X0.750000X0.600000X-0.750000X0.600000X-0.750000X-0.600000X0*%
%TD*%
%TA.AperFunction,ComponentPad*%
%ADD21O,2.000000X1.700000*%
%TD*%
%TA.AperFunction,SMDPad,CuDef*%
%ADD22RoundRect,0.237500X0.237500X-0.287500X0.237500X0.287500X-0.237500X0.287500X-0.237500X-0.287500X0*%
%TD*%
%TA.AperFunction,SMDPad,CuDef*%
%ADD23RoundRect,0.237500X0.237500X-0.250000X0.237500X0.250000X-0.237500X0.250000X-0.237500X-0.250000X0*%
%TD*%
%TA.AperFunction,SMDPad,CuDef*%
%ADD24RoundRect,0.237500X-0.250000X-0.237500X0.250000X-0.237500X0.250000X0.237500X-0.250000X0.237500X0*%
%TD*%
%TA.AperFunction,ComponentPad*%
%ADD25R,1.500000X1.500000*%
%TD*%
%TA.AperFunction,ComponentPad*%
%ADD26C,1.500000*%
%TD*%
%TA.AperFunction,SMDPad,CuDef*%
%ADD27R,1.000000X1.400000*%
%TD*%
%TA.AperFunction,SMDPad,CuDef*%
%ADD28RoundRect,0.237500X0.237500X-0.300000X0.237500X0.300000X-0.237500X0.300000X-0.237500X-0.300000X0*%
%TD*%
%TA.AperFunction,SMDPad,CuDef*%
%ADD29RoundRect,0.150000X0.150000X0.625000X-0.150000X0.625000X-0.150000X-0.625000X0.150000X-0.625000X0*%
%TD*%
%TA.AperFunction,SMDPad,CuDef*%
%ADD30RoundRect,0.250000X0.350000X0.650000X-0.350000X0.650000X-0.350000X-0.650000X0.350000X-0.650000X0*%
%TD*%
%TA.AperFunction,SMDPad,CuDef*%
%ADD31R,0.500000X0.600000*%
%TD*%
%TA.AperFunction,SMDPad,CuDef*%
%ADD32R,0.600000X0.500000*%
%TD*%
%TA.AperFunction,SMDPad,CuDef*%
%ADD33R,2.000000X1.500000*%
%TD*%
%TA.AperFunction,SMDPad,CuDef*%
%ADD34R,2.000000X3.800000*%
%TD*%
%TA.AperFunction,SMDPad,CuDef*%
%ADD35R,1.100000X1.100000*%
%TD*%
%TA.AperFunction,SMDPad,CuDef*%
%ADD36R,0.600000X1.450000*%
%TD*%
%TA.AperFunction,SMDPad,CuDef*%
%ADD37R,0.300000X1.450000*%
%TD*%
%TA.AperFunction,ComponentPad*%
%ADD38O,1.050000X2.100000*%
%TD*%
%TA.AperFunction,SMDPad,CuDef*%
%ADD39RoundRect,0.237500X-0.237500X0.300000X-0.237500X-0.300000X0.237500X-0.300000X0.237500X0.300000X0*%
%TD*%
%TA.AperFunction,SMDPad,CuDef*%
%ADD40RoundRect,0.062500X-0.375000X-0.062500X0.375000X-0.062500X0.375000X0.062500X-0.375000X0.062500X0*%
%TD*%
%TA.AperFunction,SMDPad,CuDef*%
%ADD41RoundRect,0.062500X-0.062500X-0.375000X0.062500X-0.375000X0.062500X0.375000X-0.062500X0.375000X0*%
%TD*%
%TA.AperFunction,SMDPad,CuDef*%
%ADD42R,5.600000X5.600000*%
%TD*%
%TA.AperFunction,ComponentPad*%
%ADD43C,2.800000*%
%TD*%
%TA.AperFunction,ComponentPad*%
%ADD44RoundRect,0.250000X-0.600000X-0.750000X0.600000X-0.750000X0.600000X0.750000X-0.600000X0.750000X0*%
%TD*%
%TA.AperFunction,ComponentPad*%
%ADD45O,1.700000X2.000000*%
%TD*%
%TA.AperFunction,SMDPad,CuDef*%
%ADD46RoundRect,0.237500X-0.287500X-0.237500X0.287500X-0.237500X0.287500X0.237500X-0.287500X0.237500X0*%
%TD*%
%TA.AperFunction,SMDPad,CuDef*%
%ADD47RoundRect,0.150000X0.625000X-0.150000X0.625000X0.150000X-0.625000X0.150000X-0.625000X-0.150000X0*%
%TD*%
%TA.AperFunction,SMDPad,CuDef*%
%ADD48RoundRect,0.250000X0.650000X-0.350000X0.650000X0.350000X-0.650000X0.350000X-0.650000X-0.350000X0*%
%TD*%
%TA.AperFunction,SMDPad,CuDef*%
%ADD49RoundRect,0.237500X0.250000X0.237500X-0.250000X0.237500X-0.250000X-0.237500X0.250000X-0.237500X0*%
%TD*%
%TA.AperFunction,SMDPad,CuDef*%
%ADD50RoundRect,0.237500X-0.237500X0.287500X-0.237500X-0.287500X0.237500X-0.287500X0.237500X0.287500X0*%
%TD*%
%TA.AperFunction,ComponentPad*%
%ADD51R,4.400000X1.800000*%
%TD*%
%TA.AperFunction,ComponentPad*%
%ADD52O,4.000000X1.800000*%
%TD*%
%TA.AperFunction,ComponentPad*%
%ADD53O,1.800000X4.000000*%
%TD*%
%TA.AperFunction,SMDPad,CuDef*%
%ADD54RoundRect,0.250000X-1.000000X1.950000X-1.000000X-1.950000X1.000000X-1.950000X1.000000X1.950000X0*%
%TD*%
%TA.AperFunction,SMDPad,CuDef*%
%ADD55RoundRect,0.250000X-0.875000X-0.925000X0.875000X-0.925000X0.875000X0.925000X-0.875000X0.925000X0*%
%TD*%
%TA.AperFunction,SMDPad,CuDef*%
%ADD56R,5.100000X2.350000*%
%TD*%
%TA.AperFunction,SMDPad,CuDef*%
%ADD57RoundRect,0.250000X1.000000X-1.750000X1.000000X1.750000X-1.000000X1.750000X-1.000000X-1.750000X0*%
%TD*%
%TA.AperFunction,SMDPad,CuDef*%
%ADD58RoundRect,0.250000X-1.450000X0.400000X-1.450000X-0.400000X1.450000X-0.400000X1.450000X0.400000X0*%
%TD*%
%TA.AperFunction,ComponentPad*%
%ADD59RoundRect,0.250000X-0.750000X0.600000X-0.750000X-0.600000X0.750000X-0.600000X0.750000X0.600000X0*%
%TD*%
%TA.AperFunction,SMDPad,CuDef*%
%ADD60R,1.100000X4.600000*%
%TD*%
%TA.AperFunction,SMDPad,CuDef*%
%ADD61R,10.800000X9.400000*%
%TD*%
%TA.AperFunction,ComponentPad*%
%ADD62R,2.600000X2.600000*%
%TD*%
%TA.AperFunction,ComponentPad*%
%ADD63C,2.600000*%
%TD*%
%TA.AperFunction,SMDPad,CuDef*%
%ADD64R,1.970000X0.600000*%
%TD*%
%TA.AperFunction,SMDPad,CuDef*%
%ADD65R,1.500000X2.000000*%
%TD*%
%TA.AperFunction,SMDPad,CuDef*%
%ADD66R,3.800000X2.000000*%
%TD*%
%TA.AperFunction,SMDPad,CuDef*%
%ADD67R,2.300000X2.500000*%
%TD*%
%TA.AperFunction,ViaPad*%
%ADD68C,0.800000*%
%TD*%
%TA.AperFunction,ViaPad*%
%ADD69C,0.600000*%
%TD*%
%TA.AperFunction,Conductor*%
%ADD70C,0.250000*%
%TD*%
%TA.AperFunction,Conductor*%
%ADD71C,0.800000*%
%TD*%
%TA.AperFunction,Conductor*%
%ADD72C,0.300000*%
%TD*%
%TA.AperFunction,Conductor*%
%ADD73C,0.400000*%
%TD*%
G04 APERTURE END LIST*
D10*
%TO.P,J9,1,1*%
%TO.N,+5V*%
X122863999Y-140233000D03*
%TO.P,J9,2,2*%
%TO.N,+3V3*%
X121863999Y-140233000D03*
%TO.P,J9,3,3*%
%TO.N,Lift Btn*%
X120863998Y-140233000D03*
%TO.P,J9,4,4*%
%TO.N,BOOT0*%
X119864000Y-140233000D03*
%TO.P,J9,5,5*%
%TO.N,Low Btn*%
X118863999Y-140233000D03*
%TO.P,J9,6,6*%
%TO.N,High Btn*%
X117863999Y-140233000D03*
%TO.P,J9,7,7*%
%TO.N,Reverse Btn*%
X116863998Y-140233000D03*
%TO.P,J9,8,8*%
%TO.N,Trigger Btn*%
X115863998Y-140233000D03*
%TO.P,J9,9,9*%
%TO.N,UI LED Data*%
X114864000Y-140233000D03*
%TO.P,J9,10,10*%
%TO.N,GND*%
X113863999Y-140233000D03*
D11*
%TO.P,J9,MP1,MP1*%
X126014000Y-137883000D03*
%TO.P,J9,MP2,MP2*%
X110714001Y-137883000D03*
%TD*%
D12*
%TO.P,R26,1*%
%TO.N,Net-(R26-Pad1)*%
X124460000Y-125960500D03*
%TO.P,R26,2*%
%TO.N,+3V3*%
X124460000Y-127785500D03*
%TD*%
D13*
%TO.P,C14,1*%
%TO.N,VDDA*%
X118591500Y-125603000D03*
%TO.P,C14,2*%
%TO.N,GND*%
X116866500Y-125603000D03*
%TD*%
D14*
%TO.P,Q2,1,G*%
%TO.N,Net-(Q2-Pad1)*%
X75135500Y-110048000D03*
%TO.P,Q2,2,S*%
%TO.N,GND*%
X75135500Y-111948000D03*
%TO.P,Q2,3,D*%
%TO.N,Net-(D7-Pad1)*%
X77010500Y-110998000D03*
%TD*%
D15*
%TO.P,J11,1,Pin_1*%
%TO.N,+3V3*%
X129429000Y-124254000D03*
D16*
%TO.P,J11,2,Pin_2*%
%TO.N,GND*%
X131429000Y-124254000D03*
%TO.P,J11,3,Pin_3*%
%TO.N,JTCK*%
X129429000Y-126254000D03*
%TO.P,J11,4,Pin_4*%
%TO.N,JTMS*%
X131429000Y-126254000D03*
%TO.P,J11,5,Pin_5*%
%TO.N,JTDO*%
X129429000Y-128254000D03*
%TO.P,J11,6,Pin_6*%
%TO.N,NRST*%
X131429000Y-128254000D03*
%TO.P,J11,7,Pin_7*%
%TO.N,UART2_RX*%
X129429000Y-130254000D03*
%TO.P,J11,8,Pin_8*%
%TO.N,UART2_TX*%
X131429000Y-130254000D03*
%TD*%
D17*
%TO.P,C19,1*%
%TO.N,GND*%
X122581500Y-129667000D03*
%TO.P,C19,2*%
%TO.N,NRST*%
X124306500Y-129667000D03*
%TD*%
D18*
%TO.P,Y1,1,1*%
%TO.N,OSC_IN*%
X116435500Y-113997500D03*
%TO.P,Y1,2,2*%
%TO.N,OSC_OUT*%
X116435500Y-117697500D03*
%TD*%
D19*
%TO.P,SW2,1,1*%
%TO.N,GND*%
X131572000Y-115824000D03*
%TO.P,SW2,2,2*%
%TO.N,NRST*%
X131572000Y-119224000D03*
%TD*%
D12*
%TO.P,R23,1*%
%TO.N,Net-(Q4-Pad1)*%
X80899000Y-102973500D03*
%TO.P,R23,2*%
%TO.N,MOTOR_PWM*%
X80899000Y-104798500D03*
%TD*%
D17*
%TO.P,C6,1*%
%TO.N,OSC_IN*%
X115573000Y-111783500D03*
%TO.P,C6,2*%
%TO.N,GND*%
X117298000Y-111783500D03*
%TD*%
D20*
%TO.P,J1,1,Pin_1*%
%TO.N,+12V*%
X98535000Y-111740000D03*
D21*
%TO.P,J1,2,Pin_2*%
%TO.N,Net-(D2-Pad1)*%
X98535000Y-109240000D03*
%TD*%
D14*
%TO.P,Q3,1,G*%
%TO.N,Net-(Q3-Pad1)*%
X82628500Y-110048000D03*
%TO.P,Q3,2,S*%
%TO.N,GND*%
X82628500Y-111948000D03*
%TO.P,Q3,3,D*%
%TO.N,Net-(D10-Pad2)*%
X84503500Y-110998000D03*
%TD*%
D22*
%TO.P,D2,1,K*%
%TO.N,Net-(D2-Pad1)*%
X102235000Y-105269000D03*
%TO.P,D2,2,A*%
%TO.N,Net-(D2-Pad2)*%
X102235000Y-103519000D03*
%TD*%
D23*
%TO.P,R14,1*%
%TO.N,FOOTPEDAL*%
X128397000Y-138580500D03*
%TO.P,R14,2*%
%TO.N,GND*%
X128397000Y-136755500D03*
%TD*%
D24*
%TO.P,R11,1*%
%TO.N,Net-(Q3-Pad1)*%
X82399500Y-106807000D03*
%TO.P,R11,2*%
%TO.N,GND*%
X84224500Y-106807000D03*
%TD*%
D25*
%TO.P,J3,1*%
%TO.N,GND*%
X116592000Y-148441000D03*
D26*
%TO.P,J3,2*%
%TO.N,FOOTPEDAL*%
X115572000Y-145901000D03*
%TO.P,J3,3*%
%TO.N,FOOTPEDAL_AUX*%
X114552000Y-148441000D03*
%TO.P,J3,4*%
%TO.N,+3V3*%
X113532000Y-145901000D03*
%TD*%
D27*
%TO.P,Q5,1,G*%
%TO.N,Net-(Q5-Pad1)*%
X91374000Y-150157000D03*
%TO.P,Q5,2,S*%
%TO.N,+5V*%
X89474000Y-150157000D03*
%TO.P,Q5,3,D*%
%TO.N,VUSB*%
X90424000Y-152357000D03*
%TD*%
D28*
%TO.P,C2,1*%
%TO.N,+3V3*%
X125730000Y-108939500D03*
%TO.P,C2,2*%
%TO.N,GND*%
X125730000Y-107214500D03*
%TD*%
D29*
%TO.P,J8,1,Pin_1*%
%TO.N,+3V3*%
X98639000Y-102180000D03*
%TO.P,J8,2,Pin_2*%
%TO.N,SPI1_CS*%
X97639000Y-102180000D03*
%TO.P,J8,3,Pin_3*%
%TO.N,SPI1_CLK*%
X96639000Y-102180000D03*
%TO.P,J8,4,Pin_4*%
%TO.N,SPI1_MISO*%
X95639000Y-102180000D03*
%TO.P,J8,5,Pin_5*%
%TO.N,SPI1_MOSI*%
X94639000Y-102180000D03*
%TO.P,J8,6,Pin_6*%
%TO.N,GND*%
X93639000Y-102180000D03*
D30*
%TO.P,J8,MP*%
%TO.N,N/C*%
X99939000Y-104705000D03*
X92339000Y-104705000D03*
%TD*%
D31*
%TO.P,D4,1,I/O*%
%TO.N,FOOTPEDAL*%
X122936000Y-147709000D03*
%TO.P,D4,2,GND*%
%TO.N,GND*%
X122936000Y-148709000D03*
%TD*%
D12*
%TO.P,R28,1*%
%TO.N,Net-(R26-Pad1)*%
X126492000Y-129008500D03*
%TO.P,R28,2*%
%TO.N,GND*%
X126492000Y-130833500D03*
%TD*%
D24*
%TO.P,R9,1*%
%TO.N,Net-(Q2-Pad1)*%
X74906500Y-106807000D03*
%TO.P,R9,2*%
%TO.N,GND*%
X76731500Y-106807000D03*
%TD*%
D32*
%TO.P,D5,1,I/O*%
%TO.N,D-*%
X92321000Y-148640800D03*
%TO.P,D5,2,GND*%
%TO.N,GND*%
X91321000Y-148640800D03*
%TD*%
D33*
%TO.P,U1,1,GND*%
%TO.N,GND*%
X74270000Y-104535000D03*
D34*
%TO.P,U1,2,VO*%
%TO.N,+3V3*%
X67970000Y-102235000D03*
D33*
X74270000Y-102235000D03*
%TO.P,U1,3,VI*%
%TO.N,+5V*%
X74270000Y-99935000D03*
%TD*%
D12*
%TO.P,R21,1*%
%TO.N,+3V3*%
X90678000Y-97385500D03*
%TO.P,R21,2*%
%TO.N,I2C1_SCL*%
X90678000Y-99210500D03*
%TD*%
D23*
%TO.P,R19,1*%
%TO.N,+12V*%
X72390000Y-141247500D03*
%TO.P,R19,2*%
%TO.N,Net-(R20-Pad1)*%
X72390000Y-139422500D03*
%TD*%
D35*
%TO.P,D9,1,K*%
%TO.N,+12V*%
X79502000Y-106804000D03*
%TO.P,D9,2,A*%
%TO.N,Net-(D7-Pad1)*%
X79502000Y-109604000D03*
%TD*%
D24*
%TO.P,R5,1*%
%TO.N,D-*%
X94337500Y-148971000D03*
%TO.P,R5,2*%
%TO.N,DN*%
X96162500Y-148971000D03*
%TD*%
D35*
%TO.P,D10,1,K*%
%TO.N,+12V*%
X87122000Y-107947000D03*
%TO.P,D10,2,A*%
%TO.N,Net-(D10-Pad2)*%
X87122000Y-110747000D03*
%TD*%
D23*
%TO.P,R20,1*%
%TO.N,Net-(R20-Pad1)*%
X98298000Y-143533500D03*
%TO.P,R20,2*%
%TO.N,GND*%
X98298000Y-141708500D03*
%TD*%
D35*
%TO.P,D3,1,K*%
%TO.N,+12V*%
X72009000Y-106804000D03*
%TO.P,D3,2,A*%
%TO.N,Net-(D2-Pad1)*%
X72009000Y-109604000D03*
%TD*%
D36*
%TO.P,J12,A1B12,GND*%
%TO.N,GND*%
X94794000Y-150945500D03*
%TO.P,J12,A4B9,VBUS*%
%TO.N,VUSB*%
X95594000Y-150945500D03*
D37*
%TO.P,J12,A5,CC1*%
%TO.N,Net-(J12-PadA5)*%
X96794000Y-150945500D03*
%TO.P,J12,A6,DP1*%
%TO.N,DP*%
X97794000Y-150945500D03*
%TO.P,J12,A7,DN1*%
%TO.N,DN*%
X98294000Y-150945500D03*
%TO.P,J12,A8,SBU1*%
%TO.N,unconnected-(J12-PadA8)*%
X99294000Y-150945500D03*
D36*
%TO.P,J12,B1A12,GND*%
%TO.N,GND*%
X101294000Y-150945500D03*
%TO.P,J12,B4A9,VBUS*%
%TO.N,VUSB*%
X100494000Y-150945500D03*
D37*
%TO.P,J12,B5,CC2*%
%TO.N,Net-(J12-PadB5)*%
X99794000Y-150945500D03*
%TO.P,J12,B6,DP2*%
%TO.N,DP*%
X98794000Y-150945500D03*
%TO.P,J12,B7,DN2*%
%TO.N,DN*%
X97294000Y-150945500D03*
%TO.P,J12,B8,SBU2*%
%TO.N,unconnected-(J12-PadB8)*%
X96294000Y-150945500D03*
D38*
%TO.P,J12,S1,SHIELD*%
%TO.N,Net-(J12-PadS1)*%
X93724000Y-151860500D03*
%TO.P,J12,S2,SHIELD*%
X102364000Y-151860500D03*
%TO.P,J12,S3,SHIELD*%
X93724000Y-156040500D03*
%TO.P,J12,S4,SHIELD*%
X102364000Y-156040500D03*
%TD*%
D39*
%TO.P,C9,1*%
%TO.N,Net-(C9-Pad1)*%
X124358400Y-122073500D03*
%TO.P,C9,2*%
%TO.N,GND*%
X124358400Y-123798500D03*
%TD*%
D17*
%TO.P,C5,1*%
%TO.N,+3V3*%
X120168500Y-109982000D03*
%TO.P,C5,2*%
%TO.N,GND*%
X121893500Y-109982000D03*
%TD*%
D40*
%TO.P,U4,1,VBAT*%
%TO.N,+3V3*%
X121149500Y-113455000D03*
%TO.P,U4,2,PC13*%
%TO.N,unconnected-(U4-Pad2)*%
X121149500Y-113955000D03*
%TO.P,U4,3,PC14*%
%TO.N,unconnected-(U4-Pad3)*%
X121149500Y-114455000D03*
%TO.P,U4,4,PC15*%
%TO.N,unconnected-(U4-Pad4)*%
X121149500Y-114955000D03*
%TO.P,U4,5,PH0*%
%TO.N,OSC_IN*%
X121149500Y-115455000D03*
%TO.P,U4,6,PH1*%
%TO.N,OSC_OUT*%
X121149500Y-115955000D03*
%TO.P,U4,7,NRST*%
%TO.N,NRST*%
X121149500Y-116455000D03*
%TO.P,U4,8,VSSA*%
%TO.N,GNDA*%
X121149500Y-116955000D03*
%TO.P,U4,9,VREF+*%
%TO.N,VDDA*%
X121149500Y-117455000D03*
%TO.P,U4,10,PA0*%
%TO.N,BOOT0*%
X121149500Y-117955000D03*
%TO.P,U4,11,PA1*%
%TO.N,Low Btn*%
X121149500Y-118455000D03*
%TO.P,U4,12,PA2*%
%TO.N,UART2_TX*%
X121149500Y-118955000D03*
D41*
%TO.P,U4,13,PA3*%
%TO.N,UART2_RX*%
X121837000Y-119642500D03*
%TO.P,U4,14,PA4*%
%TO.N,SPI1_CS*%
X122337000Y-119642500D03*
%TO.P,U4,15,PA5*%
%TO.N,SPI1_CLK*%
X122837000Y-119642500D03*
%TO.P,U4,16,PA6*%
%TO.N,High Btn*%
X123337000Y-119642500D03*
%TO.P,U4,17,PA7*%
%TO.N,Reverse Btn*%
X123837000Y-119642500D03*
%TO.P,U4,18,PB0*%
%TO.N,unconnected-(U4-Pad18)*%
X124337000Y-119642500D03*
%TO.P,U4,19,PB1*%
%TO.N,UI LED Data*%
X124837000Y-119642500D03*
%TO.P,U4,20,PB2*%
%TO.N,BOOT1*%
X125337000Y-119642500D03*
%TO.P,U4,21,PB10*%
%TO.N,NC_VALVE*%
X125837000Y-119642500D03*
%TO.P,U4,22,VCAP1*%
%TO.N,Net-(C9-Pad1)*%
X126337000Y-119642500D03*
%TO.P,U4,23,VSS*%
%TO.N,GND*%
X126837000Y-119642500D03*
%TO.P,U4,24,VDD*%
%TO.N,+3V3*%
X127337000Y-119642500D03*
D40*
%TO.P,U4,25,PB12*%
%TO.N,NO_VALVE*%
X128024500Y-118955000D03*
%TO.P,U4,26,PB13*%
%TO.N,FOOTPEDAL*%
X128024500Y-118455000D03*
%TO.P,U4,27,PB14*%
%TO.N,FOOTPEDAL_AUX*%
X128024500Y-117955000D03*
%TO.P,U4,28,PB15*%
%TO.N,Lift Btn*%
X128024500Y-117455000D03*
%TO.P,U4,29,PA8*%
%TO.N,Trigger Btn*%
X128024500Y-116955000D03*
%TO.P,U4,30,PA9*%
%TO.N,VUSB*%
X128024500Y-116455000D03*
%TO.P,U4,31,PA10*%
%TO.N,unconnected-(U4-Pad31)*%
X128024500Y-115955000D03*
%TO.P,U4,32,PA11*%
%TO.N,D-*%
X128024500Y-115455000D03*
%TO.P,U4,33,PA12*%
%TO.N,D+*%
X128024500Y-114955000D03*
%TO.P,U4,34,PA13*%
%TO.N,JTMS*%
X128024500Y-114455000D03*
%TO.P,U4,35,VSS*%
%TO.N,GND*%
X128024500Y-113955000D03*
%TO.P,U4,36,VDD*%
%TO.N,+3V3*%
X128024500Y-113455000D03*
D41*
%TO.P,U4,37,PA14*%
%TO.N,JTCK*%
X127337000Y-112767500D03*
%TO.P,U4,38,PA15*%
%TO.N,unconnected-(U4-Pad38)*%
X126837000Y-112767500D03*
%TO.P,U4,39,PB3*%
%TO.N,JTDO*%
X126337000Y-112767500D03*
%TO.P,U4,40,PB4*%
%TO.N,SPI1_MISO*%
X125837000Y-112767500D03*
%TO.P,U4,41,PB5*%
%TO.N,SPI1_MOSI*%
X125337000Y-112767500D03*
%TO.P,U4,42,PB6*%
%TO.N,I2C1_SCL*%
X124837000Y-112767500D03*
%TO.P,U4,43,PB7*%
%TO.N,I2C1_SDA*%
X124337000Y-112767500D03*
%TO.P,U4,44,BOOT0*%
%TO.N,BOOT0*%
X123837000Y-112767500D03*
%TO.P,U4,45,PB8*%
%TO.N,MOTOR_PWM*%
X123337000Y-112767500D03*
%TO.P,U4,46,PB9*%
%TO.N,3_WAY_VALVE*%
X122837000Y-112767500D03*
%TO.P,U4,47,VSS*%
%TO.N,GND*%
X122337000Y-112767500D03*
%TO.P,U4,48,VDD*%
%TO.N,+3V3*%
X121837000Y-112767500D03*
D42*
%TO.P,U4,49,VSS*%
%TO.N,GND*%
X124587000Y-116205000D03*
%TD*%
D12*
%TO.P,R16,1*%
%TO.N,Net-(Q4-Pad1)*%
X83820000Y-102973500D03*
%TO.P,R16,2*%
%TO.N,GND*%
X83820000Y-104798500D03*
%TD*%
D24*
%TO.P,R17,1*%
%TO.N,Net-(Q3-Pad1)*%
X82399500Y-108458000D03*
%TO.P,R17,2*%
%TO.N,3_WAY_VALVE*%
X84224500Y-108458000D03*
%TD*%
D23*
%TO.P,R12,1*%
%TO.N,+12V*%
X110998000Y-125372500D03*
%TO.P,R12,2*%
%TO.N,Net-(D8-Pad2)*%
X110998000Y-123547500D03*
%TD*%
D43*
%TO.P,TP19,1,1*%
%TO.N,GND*%
X76708000Y-93726000D03*
%TD*%
D44*
%TO.P,J10,1,Pin_1*%
%TO.N,+12V*%
X102382000Y-144907000D03*
D45*
%TO.P,J10,2,Pin_2*%
%TO.N,Net-(D11-Pad2)*%
X104882000Y-144907000D03*
%TD*%
D14*
%TO.P,Q1,1,G*%
%TO.N,Net-(Q1-Pad1)*%
X67642500Y-110048000D03*
%TO.P,Q1,2,S*%
%TO.N,GND*%
X67642500Y-111948000D03*
%TO.P,Q1,3,D*%
%TO.N,Net-(D2-Pad1)*%
X69517500Y-110998000D03*
%TD*%
D46*
%TO.P,FB1,1*%
%TO.N,+3V3*%
X116854000Y-127254000D03*
%TO.P,FB1,2*%
%TO.N,VDDA*%
X118604000Y-127254000D03*
%TD*%
D39*
%TO.P,C11,1*%
%TO.N,+3V3*%
X77216000Y-102642500D03*
%TO.P,C11,2*%
%TO.N,GND*%
X77216000Y-104367500D03*
%TD*%
D12*
%TO.P,R29,1*%
%TO.N,GNDA*%
X120904000Y-121769500D03*
%TO.P,R29,2*%
%TO.N,GND*%
X120904000Y-123594500D03*
%TD*%
D23*
%TO.P,R24,1*%
%TO.N,+3V3*%
X126746000Y-150264500D03*
%TO.P,R24,2*%
%TO.N,FOOTPEDAL_AUX*%
X126746000Y-148439500D03*
%TD*%
D47*
%TO.P,J7,1,Pin_1*%
%TO.N,GND*%
X94289000Y-112117000D03*
%TO.P,J7,2,Pin_2*%
%TO.N,+3V3*%
X94289000Y-111117000D03*
%TO.P,J7,3,Pin_3*%
%TO.N,I2C1_SDA*%
X94289000Y-110117000D03*
%TO.P,J7,4,Pin_4*%
%TO.N,I2C1_SCL*%
X94289000Y-109117000D03*
D48*
%TO.P,J7,MP*%
%TO.N,N/C*%
X91764000Y-113417000D03*
X91764000Y-107817000D03*
%TD*%
D49*
%TO.P,R13,1*%
%TO.N,+3V3*%
X125499500Y-152654000D03*
%TO.P,R13,2*%
%TO.N,FOOTPEDAL*%
X123674500Y-152654000D03*
%TD*%
D24*
%TO.P,R10,1*%
%TO.N,+12V*%
X87606500Y-128905000D03*
%TO.P,R10,2*%
%TO.N,Net-(D7-Pad2)*%
X89431500Y-128905000D03*
%TD*%
D23*
%TO.P,R8,1*%
%TO.N,+12V*%
X104013000Y-106449500D03*
%TO.P,R8,2*%
%TO.N,Net-(D2-Pad2)*%
X104013000Y-104624500D03*
%TD*%
D50*
%TO.P,D8,1,K*%
%TO.N,Net-(D10-Pad2)*%
X110998000Y-119902000D03*
%TO.P,D8,2,A*%
%TO.N,Net-(D8-Pad2)*%
X110998000Y-121652000D03*
%TD*%
D12*
%TO.P,R22,1*%
%TO.N,+3V3*%
X92456000Y-97385500D03*
%TO.P,R22,2*%
%TO.N,I2C1_SDA*%
X92456000Y-99210500D03*
%TD*%
D51*
%TO.P,J5,1*%
%TO.N,Net-(J5-Pad1)*%
X82966000Y-143129000D03*
D52*
%TO.P,J5,2*%
%TO.N,GND*%
X82966000Y-148929000D03*
D53*
%TO.P,J5,3*%
%TO.N,N/C*%
X87766000Y-146129000D03*
%TD*%
D54*
%TO.P,C4,1*%
%TO.N,+12V*%
X91948000Y-131436000D03*
%TO.P,C4,2*%
%TO.N,GND*%
X91948000Y-139836000D03*
%TD*%
D32*
%TO.P,D6,1,I/O*%
%TO.N,D+*%
X97798000Y-145288000D03*
%TO.P,D6,2,GND*%
%TO.N,GND*%
X98798000Y-145288000D03*
%TD*%
D20*
%TO.P,J2,1,Pin_1*%
%TO.N,+12V*%
X98535000Y-120503000D03*
D21*
%TO.P,J2,2,Pin_2*%
%TO.N,Net-(D7-Pad1)*%
X98535000Y-118003000D03*
%TD*%
D55*
%TO.P,C8,1*%
%TO.N,+5V*%
X87874000Y-125984000D03*
%TO.P,C8,2*%
%TO.N,GND*%
X92974000Y-125984000D03*
%TD*%
D23*
%TO.P,R3,1*%
%TO.N,Net-(J12-PadS1)*%
X104140000Y-151788500D03*
%TO.P,R3,2*%
%TO.N,GND*%
X104140000Y-149963500D03*
%TD*%
D28*
%TO.P,C3,1*%
%TO.N,+5V*%
X77216000Y-100557500D03*
%TO.P,C3,2*%
%TO.N,GND*%
X77216000Y-98832500D03*
%TD*%
D13*
%TO.P,C13,1*%
%TO.N,+3V3*%
X117298000Y-110005500D03*
%TO.P,C13,2*%
%TO.N,GND*%
X115573000Y-110005500D03*
%TD*%
D56*
%TO.P,L1,1,1*%
%TO.N,Net-(D1-Pad1)*%
X70104000Y-126703000D03*
%TO.P,L1,2,2*%
%TO.N,+5V*%
X70104000Y-130853000D03*
%TD*%
D57*
%TO.P,C21,1*%
%TO.N,+12V*%
X103505000Y-139495500D03*
%TO.P,C21,2*%
%TO.N,GND*%
X103505000Y-131495500D03*
%TD*%
D24*
%TO.P,R7,1*%
%TO.N,Net-(Q1-Pad1)*%
X67413500Y-108458000D03*
%TO.P,R7,2*%
%TO.N,NC_VALVE*%
X69238500Y-108458000D03*
%TD*%
D58*
%TO.P,F1,1*%
%TO.N,+12V*%
X74422000Y-148270000D03*
%TO.P,F1,2*%
%TO.N,Net-(F1-Pad2)*%
X74422000Y-152720000D03*
%TD*%
D59*
%TO.P,J4,1,Pin_1*%
%TO.N,+12V*%
X106824000Y-122067000D03*
D21*
%TO.P,J4,2,Pin_2*%
%TO.N,Net-(D10-Pad2)*%
X106824000Y-124567000D03*
%TD*%
D17*
%TO.P,C7,1*%
%TO.N,OSC_OUT*%
X115573000Y-119911500D03*
%TO.P,C7,2*%
%TO.N,GND*%
X117298000Y-119911500D03*
%TD*%
D23*
%TO.P,R1,1*%
%TO.N,GND*%
X91821000Y-155979500D03*
%TO.P,R1,2*%
%TO.N,Net-(J12-PadA5)*%
X91821000Y-154154500D03*
%TD*%
D49*
%TO.P,R18,1*%
%TO.N,BOOT0*%
X117348000Y-121816500D03*
%TO.P,R18,2*%
%TO.N,GND*%
X115523000Y-121816500D03*
%TD*%
D23*
%TO.P,R2,1*%
%TO.N,GND*%
X104140000Y-155471500D03*
%TO.P,R2,2*%
%TO.N,Net-(J12-PadB5)*%
X104140000Y-153646500D03*
%TD*%
D60*
%TO.P,U2,1,VIN*%
%TO.N,+12V*%
X83283000Y-125924000D03*
%TO.P,U2,2,OUT*%
%TO.N,Net-(D1-Pad1)*%
X81583000Y-125924000D03*
D61*
%TO.P,U2,3,GND*%
%TO.N,GND*%
X79883000Y-135074000D03*
D60*
X79883000Y-125924000D03*
%TO.P,U2,4,FB*%
%TO.N,+5V*%
X78183000Y-125924000D03*
%TO.P,U2,5,~ON~/OFF*%
%TO.N,GND*%
X76483000Y-125924000D03*
%TD*%
D12*
%TO.P,R27,1*%
%TO.N,BOOT1*%
X126492000Y-125198500D03*
%TO.P,R27,2*%
%TO.N,Net-(R26-Pad1)*%
X126492000Y-127023500D03*
%TD*%
D31*
%TO.P,D12,1,I/O*%
%TO.N,FOOTPEDAL_AUX*%
X106045000Y-150249000D03*
%TO.P,D12,2,GND*%
%TO.N,GND*%
X106045000Y-151249000D03*
%TD*%
D62*
%TO.P,J6,1,Pin_1*%
%TO.N,Net-(J5-Pad1)*%
X108509000Y-115702000D03*
D63*
%TO.P,J6,2,Pin_2*%
%TO.N,Net-(F1-Pad2)*%
X108509000Y-110622000D03*
%TD*%
D24*
%TO.P,R6,1*%
%TO.N,Net-(Q1-Pad1)*%
X67413500Y-106807000D03*
%TO.P,R6,2*%
%TO.N,GND*%
X69238500Y-106807000D03*
%TD*%
D64*
%TO.P,U3,1*%
%TO.N,Net-(Q5-Pad1)*%
X95561000Y-147193000D03*
%TO.P,U3,2,-*%
%TO.N,+3V3*%
X95561000Y-145923000D03*
%TO.P,U3,3,+*%
%TO.N,Net-(R20-Pad1)*%
X95561000Y-144653000D03*
%TO.P,U3,4,V-*%
%TO.N,GND*%
X95561000Y-143383000D03*
%TO.P,U3,5,+*%
X90621000Y-143383000D03*
%TO.P,U3,6,-*%
X90621000Y-144653000D03*
%TO.P,U3,7*%
%TO.N,unconnected-(U3-Pad7)*%
X90621000Y-145923000D03*
%TO.P,U3,8,V+*%
%TO.N,+5V*%
X90621000Y-147193000D03*
%TD*%
D65*
%TO.P,Q4,1,G*%
%TO.N,Net-(Q4-Pad1)*%
X80885000Y-100559000D03*
%TO.P,Q4,2,S*%
%TO.N,GND*%
X83185000Y-100559000D03*
%TO.P,Q4,3,D*%
%TO.N,Net-(D11-Pad2)*%
X85485000Y-100559000D03*
D66*
%TO.P,Q4,4*%
%TO.N,N/C*%
X83185000Y-94259000D03*
%TD*%
D19*
%TO.P,SW1,1,1*%
%TO.N,+3V3*%
X131572000Y-113968000D03*
%TO.P,SW1,2,2*%
%TO.N,BOOT0*%
X131572000Y-110568000D03*
%TD*%
D17*
%TO.P,C1,1*%
%TO.N,+3V3*%
X120168500Y-108331000D03*
%TO.P,C1,2*%
%TO.N,GND*%
X121893500Y-108331000D03*
%TD*%
D50*
%TO.P,D7,1,K*%
%TO.N,Net-(D7-Pad1)*%
X95504000Y-124601000D03*
%TO.P,D7,2,A*%
%TO.N,Net-(D7-Pad2)*%
X95504000Y-126351000D03*
%TD*%
D39*
%TO.P,C10,1*%
%TO.N,+3V3*%
X126746000Y-121438500D03*
%TO.P,C10,2*%
%TO.N,GND*%
X126746000Y-123163500D03*
%TD*%
D35*
%TO.P,D11,1,K*%
%TO.N,+12V*%
X87122000Y-105921000D03*
%TO.P,D11,2,A*%
%TO.N,Net-(D11-Pad2)*%
X87122000Y-103121000D03*
%TD*%
D12*
%TO.P,R4,1*%
%TO.N,D+*%
X98298000Y-146915500D03*
%TO.P,R4,2*%
%TO.N,DP*%
X98298000Y-148740500D03*
%TD*%
D23*
%TO.P,R25,1*%
%TO.N,FOOTPEDAL_AUX*%
X124714000Y-150264500D03*
%TO.P,R25,2*%
%TO.N,GND*%
X124714000Y-148439500D03*
%TD*%
D67*
%TO.P,D1,1,K*%
%TO.N,Net-(D1-Pad1)*%
X92964000Y-121911000D03*
%TO.P,D1,2,A*%
%TO.N,GND*%
X92964000Y-117611000D03*
%TD*%
D24*
%TO.P,R15,1*%
%TO.N,Net-(Q2-Pad1)*%
X74906500Y-108458000D03*
%TO.P,R15,2*%
%TO.N,NO_VALVE*%
X76731500Y-108458000D03*
%TD*%
D68*
%TO.N,GND*%
X82550000Y-113284000D03*
X98298000Y-138684000D03*
D69*
X123377790Y-132363972D03*
X125984000Y-105664000D03*
X126655846Y-131231655D03*
X101727000Y-149225000D03*
X121906224Y-107355810D03*
X123317000Y-114808000D03*
X130780543Y-114979796D03*
X90678000Y-153797000D03*
X130515190Y-122178289D03*
X114300000Y-121793000D03*
X119875086Y-130347796D03*
D68*
X72136000Y-104648000D03*
D69*
X90424000Y-148717000D03*
X92964000Y-143383000D03*
X89027000Y-120269000D03*
X126111000Y-114808000D03*
X93599000Y-112776000D03*
D68*
X85344000Y-103124000D03*
D69*
X99568000Y-145034000D03*
X107696000Y-152908000D03*
X103251000Y-149225000D03*
X123190000Y-117856000D03*
X112268000Y-137541000D03*
X125704677Y-147564010D03*
X126111000Y-117729000D03*
D68*
X68326000Y-119380000D03*
X89662000Y-116332000D03*
X87122000Y-142240000D03*
X92456000Y-101854000D03*
D69*
X124333000Y-137414000D03*
D68*
X115857060Y-125665787D03*
X68834000Y-113030000D03*
D69*
X123596400Y-126746000D03*
D68*
X115800500Y-108735500D03*
X82804000Y-98044000D03*
D69*
X89662000Y-122682000D03*
D68*
X74422000Y-113030000D03*
D69*
X113792000Y-141859000D03*
D68*
X79756000Y-119380000D03*
D69*
X92964000Y-149987000D03*
D68*
X76454000Y-119380000D03*
X100584000Y-130810000D03*
X68580000Y-105410000D03*
D69*
%TO.N,+3V3*%
X124809607Y-107832990D03*
X127774967Y-120033068D03*
X120650000Y-112395000D03*
X124561600Y-127000000D03*
D68*
X79756000Y-103886000D03*
D69*
X96266000Y-110490000D03*
X93853000Y-98425000D03*
X127762000Y-151257000D03*
X119094087Y-108245031D03*
X96850200Y-146253200D03*
D68*
X68326000Y-99314000D03*
D69*
X123063000Y-138303000D03*
X126746000Y-152273000D03*
X99695000Y-102235000D03*
X126619000Y-121031000D03*
D68*
X70866000Y-100330000D03*
D69*
X129810748Y-113278617D03*
D68*
X116840000Y-108458000D03*
X115570000Y-127127000D03*
X88900000Y-97028000D03*
%TO.N,+5V*%
X78740000Y-112776000D03*
X78740000Y-101092000D03*
D69*
X88138000Y-151003000D03*
D68*
X70358000Y-133096000D03*
X121666000Y-143002000D03*
X74676000Y-126746000D03*
X85598000Y-125476000D03*
%TO.N,+12V*%
X76200000Y-149606000D03*
X90833242Y-119992812D03*
X77724000Y-105918000D03*
X81026000Y-106680000D03*
D69*
X105298160Y-107109989D03*
D68*
X90574496Y-124597820D03*
D69*
X110109000Y-122555000D03*
D68*
X73406000Y-106680000D03*
X88510000Y-131436000D03*
X88646000Y-108204000D03*
X74422000Y-141224000D03*
D69*
%TO.N,Net-(C9-Pad1)*%
X125516990Y-127211421D03*
X127711200Y-124240000D03*
%TO.N,VDDA*%
X118618000Y-124460000D03*
X118491000Y-119507000D03*
%TO.N,NRST*%
X129869125Y-119006273D03*
X132791200Y-120548400D03*
D68*
X123698000Y-130937000D03*
D69*
X118364000Y-116713000D03*
X133451600Y-127304800D03*
X133504032Y-128447800D03*
X126173107Y-134691804D03*
X127965200Y-131648200D03*
X126898400Y-132765800D03*
D68*
%TO.N,Net-(D1-Pad1)*%
X81534000Y-122174000D03*
X74422000Y-122174000D03*
%TO.N,Net-(D2-Pad1)*%
X92710000Y-109220000D03*
X71882000Y-111252000D03*
D69*
X102528006Y-106351008D03*
D68*
X90709989Y-111005967D03*
D69*
%TO.N,FOOTPEDAL*%
X133070600Y-129413000D03*
X120777000Y-145161000D03*
X132638800Y-122224800D03*
%TO.N,D-*%
X110363000Y-130683000D03*
X94234000Y-147955000D03*
X128923852Y-115688929D03*
X109728000Y-132080000D03*
X99187000Y-152400000D03*
X99314000Y-154559000D03*
%TO.N,D+*%
X129794000Y-114935000D03*
X97536000Y-144526000D03*
%TO.N,Net-(D7-Pad2)*%
X92837000Y-128143000D03*
X90424000Y-128270000D03*
%TO.N,Net-(D7-Pad1)*%
X98044000Y-123190000D03*
D68*
X93995990Y-115062000D03*
D69*
X100584000Y-121666000D03*
X100584000Y-120269000D03*
D68*
X96266000Y-114554000D03*
%TO.N,Net-(D10-Pad2)*%
X94234000Y-128524000D03*
X84328000Y-116078000D03*
D69*
X111744590Y-124501210D03*
%TO.N,FOOTPEDAL_AUX*%
X123571000Y-150241000D03*
X132257800Y-108305600D03*
X113944400Y-113512600D03*
X105587800Y-128041400D03*
X107823000Y-148717000D03*
X114325400Y-108889800D03*
X108153200Y-136321800D03*
X106781600Y-131826000D03*
X108458000Y-143687800D03*
X133372021Y-110500000D03*
X118287800Y-106807000D03*
X107391200Y-126492000D03*
X106553000Y-149352000D03*
D68*
%TO.N,Net-(F1-Pad2)*%
X77845020Y-142514475D03*
%TO.N,I2C1_SCL*%
X95013113Y-108581723D03*
X88392000Y-105410000D03*
D69*
X125349000Y-110490000D03*
X96647000Y-108966000D03*
X86995000Y-113157000D03*
X97663000Y-107315000D03*
X85725000Y-115697000D03*
D68*
X90170000Y-103378000D03*
D69*
X110871987Y-108453886D03*
X100711000Y-107823000D03*
D68*
X92710000Y-110744000D03*
D69*
X89220425Y-110932999D03*
D68*
%TO.N,I2C1_SDA*%
X93263391Y-107439952D03*
D69*
X88138000Y-116205000D03*
X87376000Y-112141000D03*
X101533949Y-107127051D03*
X124460000Y-110490000D03*
X90170000Y-109601000D03*
X98640201Y-107197990D03*
X109452857Y-107940010D03*
X88646000Y-114300000D03*
X83058000Y-120015000D03*
D68*
X90932000Y-104648000D03*
D69*
X90297000Y-107061000D03*
%TO.N,SPI1_MOSI*%
X105791000Y-105410000D03*
D68*
X96012000Y-105410000D03*
D69*
X101039000Y-104775000D03*
X126238000Y-110490000D03*
%TO.N,SPI1_MISO*%
X104988000Y-104394000D03*
X126873000Y-109728000D03*
D68*
X95504000Y-104355990D03*
D69*
X101346000Y-102489000D03*
X123190000Y-108458000D03*
%TO.N,SPI1_CLK*%
X115951000Y-132080000D03*
X112268000Y-112014000D03*
X114935000Y-115443000D03*
X122555000Y-132461000D03*
X96393000Y-100203000D03*
X117824923Y-122770000D03*
%TO.N,SPI1_CS*%
X117348000Y-131826000D03*
X114919196Y-123331698D03*
X121666000Y-132588000D03*
X94107000Y-99949000D03*
X104775000Y-108966000D03*
X117729000Y-123571000D03*
X98495931Y-103467156D03*
%TO.N,Lift Btn*%
X116611400Y-115747800D03*
X124510800Y-106527600D03*
X127406400Y-105664000D03*
X132597418Y-114905431D03*
X113595508Y-135253938D03*
X118033800Y-108305600D03*
X115697000Y-133375400D03*
X118897400Y-114376200D03*
X115088432Y-128803400D03*
X112345497Y-135280400D03*
X110464600Y-135077200D03*
X113792000Y-119862600D03*
%TO.N,BOOT0*%
X119634000Y-132669979D03*
X130832954Y-110622862D03*
X119584086Y-137846616D03*
X131553486Y-106196126D03*
X122301000Y-104775000D03*
X131953000Y-109093000D03*
X117837285Y-137285222D03*
X125139492Y-103757971D03*
%TO.N,High Btn*%
X122394443Y-128513413D03*
X118237000Y-132080000D03*
%TO.N,Reverse Btn*%
X123952000Y-120650000D03*
X112260579Y-127861855D03*
%TO.N,Trigger Btn*%
X116586000Y-130048000D03*
X115206933Y-136865364D03*
X130175000Y-117221000D03*
X116672664Y-134393003D03*
%TO.N,UI LED Data*%
X114691479Y-132207697D03*
X114173000Y-136398000D03*
X124688600Y-120980200D03*
X114481316Y-127981650D03*
%TO.N,JTDO*%
X114757200Y-124790200D03*
X120319800Y-135153400D03*
X126644400Y-108153200D03*
X118008400Y-135585200D03*
X127812800Y-132898221D03*
X123799600Y-135204200D03*
X130098800Y-109829600D03*
%TO.N,JTMS*%
X132077980Y-111837980D03*
X130110000Y-112510000D03*
X132384800Y-107442000D03*
X129120133Y-114394222D03*
X133390000Y-112390000D03*
%TO.N,JTCK*%
X123153039Y-134580760D03*
X113546086Y-123770371D03*
X118059200Y-134696200D03*
X112593189Y-122914368D03*
X128879600Y-110794800D03*
X120523000Y-134239000D03*
X114037129Y-125572319D03*
%TO.N,VUSB*%
X107188000Y-130810000D03*
X100584000Y-148209000D03*
X99060000Y-147828000D03*
X107315000Y-134366000D03*
X129144766Y-116457834D03*
%TO.N,Net-(Q5-Pad1)*%
X90474002Y-150114000D03*
X93345000Y-146812000D03*
%TO.N,Net-(R20-Pad1)*%
X86741000Y-140716000D03*
X73533000Y-140208000D03*
X77978000Y-140462000D03*
X92075000Y-144145000D03*
%TO.N,NC_VALVE*%
X122428000Y-135737600D03*
X108242100Y-129197100D03*
X102257256Y-122523558D03*
X69596000Y-109982000D03*
X89408000Y-118618000D03*
X93989990Y-123990799D03*
X124970816Y-132030978D03*
X120599200Y-137769600D03*
X84201000Y-120396000D03*
X113792000Y-138176000D03*
%TO.N,NO_VALVE*%
X88267551Y-117985551D03*
X79375000Y-117094000D03*
X76835000Y-116967000D03*
X95123000Y-123571000D03*
X131923294Y-122596857D03*
X111607368Y-131978400D03*
X104140000Y-123571000D03*
X111368805Y-128806836D03*
%TO.N,3_WAY_VALVE*%
X122301000Y-111379000D03*
X85725000Y-105410000D03*
D68*
%TO.N,MOTOR_PWM*%
X105410000Y-112014000D03*
X89916000Y-113792000D03*
D69*
X112467981Y-111126032D03*
X122936013Y-110744979D03*
%TO.N,BOOT1*%
X125069600Y-135610600D03*
X103632000Y-135382000D03*
X124739400Y-133680200D03*
X106807000Y-136956800D03*
X108375167Y-138863331D03*
X121894600Y-137668000D03*
X104902000Y-137033000D03*
%TO.N,GNDA*%
X120749022Y-121054399D03*
X118327960Y-117528287D03*
%TO.N,Net-(J12-PadA5)*%
X92329000Y-152654000D03*
X96737765Y-152160328D03*
%TD*%
D70*
%TO.N,GND*%
X90678000Y-154432000D02*
X90678000Y-153797000D01*
D71*
X77545999Y-141362001D02*
X77746615Y-141362001D01*
X96425500Y-139836000D02*
X98298000Y-141708500D01*
D70*
X119875086Y-128659678D02*
X119875086Y-130347796D01*
X105410000Y-153797000D02*
X105664000Y-153543000D01*
D71*
X79883000Y-135074000D02*
X77077999Y-137879001D01*
D70*
X120419409Y-128115355D02*
X119875086Y-128659678D01*
D71*
X84431500Y-104798500D02*
X85344000Y-103886000D01*
X92974000Y-124809000D02*
X91926011Y-123761011D01*
D70*
X128024500Y-113955000D02*
X126964000Y-113955000D01*
X126837000Y-118455000D02*
X126111000Y-117729000D01*
D71*
X89777989Y-119518011D02*
X89840006Y-119518011D01*
D72*
X115919847Y-125603000D02*
X115857060Y-125665787D01*
D71*
X91948000Y-139836000D02*
X89018000Y-139836000D01*
D70*
X122337000Y-112767500D02*
X122337000Y-113828000D01*
X125730000Y-107214500D02*
X125730000Y-105918000D01*
X131572000Y-115771253D02*
X130780543Y-114979796D01*
X124587000Y-116205000D02*
X124587000Y-116078000D01*
D71*
X92974000Y-125984000D02*
X92974000Y-124809000D01*
X67752000Y-111948000D02*
X68834000Y-113030000D01*
D70*
X111926000Y-137883000D02*
X112268000Y-137541000D01*
X123596400Y-125476000D02*
X123596400Y-126746000D01*
X121893500Y-109982000D02*
X121893500Y-108331000D01*
D71*
X84328000Y-106703500D02*
X84224500Y-106807000D01*
D70*
X127141500Y-136755500D02*
X126014000Y-137883000D01*
X94258000Y-112117000D02*
X93599000Y-112776000D01*
D72*
X115523000Y-121816500D02*
X114323500Y-121816500D01*
D71*
X83820000Y-104798500D02*
X84431500Y-104798500D01*
D70*
X126492000Y-131067809D02*
X126655846Y-131231655D01*
X106807000Y-153543000D02*
X107061000Y-153543000D01*
D72*
X115573000Y-110005500D02*
X115573000Y-108963000D01*
D70*
X124587000Y-116205000D02*
X126111000Y-117729000D01*
X122337000Y-112767500D02*
X122337000Y-112213002D01*
X122581500Y-131567682D02*
X123377790Y-132363972D01*
D73*
X90621000Y-143383000D02*
X95561000Y-143383000D01*
D70*
X91821000Y-155575000D02*
X91059000Y-154813000D01*
D71*
X88646000Y-140208000D02*
X87122000Y-141732000D01*
D70*
X125589490Y-147564010D02*
X125704677Y-147564010D01*
D71*
X92964000Y-117611000D02*
X90941000Y-117611000D01*
X77900625Y-141516011D02*
X78789625Y-141516011D01*
D70*
X126492000Y-123163500D02*
X126492000Y-123267612D01*
D71*
X77746615Y-141362001D02*
X77900625Y-141516011D01*
D70*
X104140000Y-155471500D02*
X104140000Y-155067000D01*
D71*
X75135500Y-112316500D02*
X74422000Y-113030000D01*
X89840006Y-119518011D02*
X90941000Y-118417017D01*
D72*
X116866500Y-125603000D02*
X115919847Y-125603000D01*
D71*
X67642500Y-111948000D02*
X67752000Y-111948000D01*
D70*
X128820132Y-113769221D02*
X129414376Y-113769221D01*
D71*
X77077999Y-140894001D02*
X77545999Y-141362001D01*
D70*
X113863999Y-141787001D02*
X113792000Y-141859000D01*
D71*
X90941000Y-117611000D02*
X89662000Y-116332000D01*
D72*
X117298000Y-120041500D02*
X115523000Y-121816500D01*
D71*
X91926011Y-123761011D02*
X91122011Y-123761011D01*
D70*
X122127999Y-112004001D02*
X122000999Y-112004001D01*
D71*
X77077999Y-137879001D02*
X77077999Y-140894001D01*
D70*
X126014000Y-137883000D02*
X124802000Y-137883000D01*
X91059000Y-154813000D02*
X90678000Y-154432000D01*
X128035289Y-113944211D02*
X128645142Y-113944211D01*
X104140000Y-155067000D02*
X105410000Y-153797000D01*
D71*
X74459500Y-104535000D02*
X74270000Y-104535000D01*
D73*
X90621000Y-144653000D02*
X90621000Y-143383000D01*
X93639000Y-102180000D02*
X92782000Y-102180000D01*
D70*
X121158000Y-123594500D02*
X120419409Y-124333091D01*
X124714000Y-148439500D02*
X125589490Y-147564010D01*
D71*
X77048500Y-104535000D02*
X77216000Y-104367500D01*
D70*
X121893500Y-108331000D02*
X121893500Y-107368534D01*
D71*
X82628500Y-113205500D02*
X82550000Y-113284000D01*
X76731500Y-106807000D02*
X74459500Y-104535000D01*
D70*
X121675999Y-110199501D02*
X121893500Y-109982000D01*
X120419409Y-124333091D02*
X120419409Y-128115355D01*
X124714000Y-148439500D02*
X123205500Y-148439500D01*
X91821000Y-155979500D02*
X91821000Y-155575000D01*
D71*
X76483000Y-125924000D02*
X76483000Y-119409000D01*
D70*
X124714000Y-116205000D02*
X126111000Y-114808000D01*
X126837000Y-119642500D02*
X126837000Y-118455000D01*
D71*
X79883000Y-125924000D02*
X79883000Y-119507000D01*
X87122000Y-141732000D02*
X87122000Y-142240000D01*
D70*
X124358400Y-123798500D02*
X124213189Y-123943711D01*
D71*
X79336989Y-142063375D02*
X79336989Y-145299989D01*
D70*
X121893500Y-107368534D02*
X121906224Y-107355810D01*
D71*
X90043000Y-122682000D02*
X89662000Y-122682000D01*
D70*
X122337000Y-113828000D02*
X123317000Y-114808000D01*
D71*
X79336989Y-145299989D02*
X82966000Y-148929000D01*
X76483000Y-119409000D02*
X76454000Y-119380000D01*
D72*
X115573000Y-108963000D02*
X115800500Y-108735500D01*
D73*
X95561000Y-143383000D02*
X96520000Y-143383000D01*
D70*
X124587000Y-116078000D02*
X123317000Y-114808000D01*
D71*
X83820000Y-104798500D02*
X83820000Y-105410000D01*
X89027000Y-120269000D02*
X89777989Y-119518011D01*
D70*
X124213189Y-124859211D02*
X123596400Y-125476000D01*
D73*
X104140000Y-149963500D02*
X103989500Y-149963500D01*
D70*
X124587000Y-116205000D02*
X124714000Y-116205000D01*
X106045000Y-151249000D02*
X105425500Y-151249000D01*
D71*
X97577500Y-138684000D02*
X98298000Y-138684000D01*
X83185000Y-98425000D02*
X82804000Y-98044000D01*
D70*
X124587000Y-116459000D02*
X123190000Y-117856000D01*
D71*
X72249000Y-104535000D02*
X72136000Y-104648000D01*
X83820000Y-105410000D02*
X84328000Y-105918000D01*
X74270000Y-104535000D02*
X72249000Y-104535000D01*
D70*
X129708623Y-113907876D02*
X130780543Y-114979796D01*
X113863999Y-140233000D02*
X113863999Y-141787001D01*
X124213189Y-123943711D02*
X124213189Y-124859211D01*
X110714001Y-137883000D02*
X111926000Y-137883000D01*
D73*
X92782000Y-102180000D02*
X92456000Y-101854000D01*
X99314000Y-145288000D02*
X99568000Y-145034000D01*
D70*
X124802000Y-137883000D02*
X124333000Y-137414000D01*
X122000999Y-112004001D02*
X121675999Y-111679001D01*
D71*
X79883000Y-135074000D02*
X87186000Y-135074000D01*
X74270000Y-104535000D02*
X77048500Y-104535000D01*
D73*
X101294000Y-149658000D02*
X101727000Y-149225000D01*
D71*
X75135500Y-111948000D02*
X75135500Y-112316500D01*
X83185000Y-100559000D02*
X83185000Y-98425000D01*
X79883000Y-135074000D02*
X79883000Y-125924000D01*
D70*
X124587000Y-116205000D02*
X124587000Y-116459000D01*
D71*
X69238500Y-106068500D02*
X68580000Y-105410000D01*
X103505000Y-131495500D02*
X101269500Y-131495500D01*
X84328000Y-105918000D02*
X84328000Y-106703500D01*
X96425500Y-139836000D02*
X97577500Y-138684000D01*
X89018000Y-139836000D02*
X88646000Y-140208000D01*
D73*
X90500200Y-148640800D02*
X90424000Y-148717000D01*
D71*
X69238500Y-106807000D02*
X69238500Y-106068500D01*
X87186000Y-135074000D02*
X91948000Y-139836000D01*
D70*
X131572000Y-115824000D02*
X131572000Y-115771253D01*
X128024500Y-113955000D02*
X128035289Y-113944211D01*
D73*
X101294000Y-150945500D02*
X101294000Y-149658000D01*
D71*
X77216000Y-94234000D02*
X76708000Y-93726000D01*
D70*
X126746000Y-123163500D02*
X127731211Y-122178289D01*
D71*
X85344000Y-103886000D02*
X85344000Y-103124000D01*
D70*
X126492000Y-130833500D02*
X126492000Y-131067809D01*
D71*
X78789625Y-141516011D02*
X79336989Y-142063375D01*
D73*
X103989500Y-149963500D02*
X103251000Y-149225000D01*
D70*
X107061000Y-153543000D02*
X107696000Y-152908000D01*
X126964000Y-113955000D02*
X126111000Y-114808000D01*
X105664000Y-153543000D02*
X106807000Y-153543000D01*
D72*
X117298000Y-111783500D02*
X117298000Y-111730500D01*
X117298000Y-111730500D02*
X115573000Y-110005500D01*
D70*
X94289000Y-112117000D02*
X94258000Y-112117000D01*
D71*
X82628500Y-111948000D02*
X82628500Y-113205500D01*
D72*
X114323500Y-121816500D02*
X114300000Y-121793000D01*
D73*
X96520000Y-143383000D02*
X98194500Y-141708500D01*
D70*
X125730000Y-105918000D02*
X125984000Y-105664000D01*
X128645142Y-113944211D02*
X128820132Y-113769221D01*
X128397000Y-136755500D02*
X127141500Y-136755500D01*
D71*
X90551000Y-123190000D02*
X90043000Y-122682000D01*
X79883000Y-119507000D02*
X79756000Y-119380000D01*
X77216000Y-98832500D02*
X77216000Y-94234000D01*
D70*
X129414376Y-113769221D02*
X129553031Y-113907876D01*
X122581500Y-129667000D02*
X122581500Y-131567682D01*
X122337000Y-112213002D02*
X122127999Y-112004001D01*
X94095011Y-150246511D02*
X93223511Y-150246511D01*
D71*
X91122011Y-123761011D02*
X90551000Y-123190000D01*
D73*
X98194500Y-141708500D02*
X98298000Y-141708500D01*
D70*
X127731211Y-122178289D02*
X130515190Y-122178289D01*
D71*
X90941000Y-118417017D02*
X90941000Y-117611000D01*
D73*
X98798000Y-145288000D02*
X99314000Y-145288000D01*
D72*
X117298000Y-119911500D02*
X117298000Y-120041500D01*
D71*
X91948000Y-139836000D02*
X96425500Y-139836000D01*
D73*
X91321000Y-148640800D02*
X90500200Y-148640800D01*
D70*
X129553031Y-113907876D02*
X129708623Y-113907876D01*
X121675999Y-111679001D02*
X121675999Y-110199501D01*
X94794000Y-150945500D02*
X94095011Y-150246511D01*
X123205500Y-148439500D02*
X122936000Y-148709000D01*
X105425500Y-151249000D02*
X104140000Y-149963500D01*
X93223511Y-150246511D02*
X92964000Y-149987000D01*
D71*
X101269500Y-131495500D02*
X100584000Y-130810000D01*
D70*
%TO.N,+3V3*%
X126746000Y-150368000D02*
X127635000Y-151257000D01*
X125499500Y-152654000D02*
X126365000Y-152654000D01*
X124460000Y-127101600D02*
X124561600Y-127000000D01*
D71*
X67970000Y-102235000D02*
X67970000Y-99670000D01*
D70*
X99640000Y-102180000D02*
X99695000Y-102235000D01*
D71*
X77216000Y-102642500D02*
X78512500Y-102642500D01*
D70*
X124460000Y-127785500D02*
X124460000Y-127101600D01*
X126492000Y-121158000D02*
X126619000Y-121031000D01*
X96520000Y-145923000D02*
X96850200Y-146253200D01*
X94289000Y-111117000D02*
X95639000Y-111117000D01*
D72*
X121166500Y-112767500D02*
X121022500Y-112767500D01*
D70*
X121863999Y-140233000D02*
X121863999Y-139502001D01*
X129877000Y-113344869D02*
X129810748Y-113278617D01*
X120168500Y-108331000D02*
X119180056Y-108331000D01*
X129877000Y-113455000D02*
X129877000Y-113344869D01*
X130605000Y-113968000D02*
X130092000Y-113455000D01*
X95639000Y-111117000D02*
X96266000Y-110490000D01*
D72*
X116854000Y-127254000D02*
X115697000Y-127254000D01*
D73*
X92456000Y-97385500D02*
X92813500Y-97385500D01*
D70*
X128160290Y-113319210D02*
X128024500Y-113455000D01*
D72*
X121022500Y-112767500D02*
X120650000Y-112395000D01*
D70*
X129741210Y-113319210D02*
X128160290Y-113319210D01*
X119180056Y-108331000D02*
X119094087Y-108245031D01*
X130092000Y-113455000D02*
X129877000Y-113455000D01*
X127635000Y-151257000D02*
X127762000Y-151257000D01*
D73*
X92456000Y-97385500D02*
X90678000Y-97385500D01*
D71*
X67970000Y-99670000D02*
X68326000Y-99314000D01*
D70*
X126365000Y-152654000D02*
X126746000Y-152273000D01*
D72*
X121149500Y-113455000D02*
X121149500Y-112784500D01*
X117298000Y-108883733D02*
X117298000Y-110005500D01*
X116840000Y-108458000D02*
X117298000Y-108883733D01*
D70*
X120168500Y-109982000D02*
X120168500Y-108331000D01*
X95561000Y-145923000D02*
X96520000Y-145923000D01*
D72*
X115697000Y-127254000D02*
X115570000Y-127127000D01*
D70*
X127727568Y-120033068D02*
X127774967Y-120033068D01*
X98639000Y-102180000D02*
X99640000Y-102180000D01*
X129877000Y-113455000D02*
X129741210Y-113319210D01*
X125730000Y-108939500D02*
X124809607Y-108019107D01*
X127337000Y-119642500D02*
X127727568Y-120033068D01*
D71*
X74270000Y-102235000D02*
X76808500Y-102235000D01*
D73*
X90678000Y-97385500D02*
X89257500Y-97385500D01*
D72*
X121149500Y-112784500D02*
X121166500Y-112767500D01*
D70*
X126492000Y-121438500D02*
X126492000Y-121158000D01*
D71*
X78512500Y-102642500D02*
X79756000Y-103886000D01*
D72*
X121166500Y-112767500D02*
X121837000Y-112767500D01*
D71*
X76808500Y-102235000D02*
X77216000Y-102642500D01*
D70*
X131572000Y-113968000D02*
X130605000Y-113968000D01*
X124809607Y-108019107D02*
X124809607Y-107832990D01*
D73*
X92813500Y-97385500D02*
X93853000Y-98425000D01*
X89257500Y-97385500D02*
X88900000Y-97028000D01*
D70*
X126746000Y-150264500D02*
X126746000Y-150368000D01*
X121863999Y-139502001D02*
X123063000Y-138303000D01*
D71*
X67970000Y-102235000D02*
X74270000Y-102235000D01*
D73*
%TO.N,+5V*%
X89474000Y-150157000D02*
X88984000Y-150157000D01*
D71*
X78183000Y-125924000D02*
X78183000Y-113333000D01*
D73*
X90043000Y-147828000D02*
X90424000Y-147828000D01*
D71*
X78183000Y-125924000D02*
X78183000Y-128573000D01*
X77470000Y-129286000D02*
X74676000Y-129286000D01*
D73*
X89474000Y-148397000D02*
X90043000Y-147828000D01*
D71*
X87874000Y-125984000D02*
X86106000Y-125984000D01*
X71671000Y-129286000D02*
X70104000Y-130853000D01*
X70104000Y-130853000D02*
X70104000Y-132842000D01*
X122936000Y-140305001D02*
X122863999Y-140233000D01*
X78740000Y-101092000D02*
X77750500Y-101092000D01*
D73*
X88984000Y-150157000D02*
X88138000Y-151003000D01*
X90621000Y-147631000D02*
X90621000Y-147193000D01*
D71*
X86106000Y-125984000D02*
X85598000Y-125476000D01*
D73*
X89474000Y-150157000D02*
X89474000Y-148397000D01*
D71*
X78183000Y-113333000D02*
X78740000Y-112776000D01*
D73*
X90424000Y-147828000D02*
X90621000Y-147631000D01*
D71*
X74676000Y-129286000D02*
X71671000Y-129286000D01*
X77216000Y-100557500D02*
X74892500Y-100557500D01*
X77750500Y-101092000D02*
X77216000Y-100557500D01*
X78183000Y-128573000D02*
X77470000Y-129286000D01*
X121666000Y-143002000D02*
X122936000Y-141732000D01*
X74676000Y-126746000D02*
X74676000Y-129286000D01*
X122936000Y-141732000D02*
X122936000Y-140305001D01*
X74892500Y-100557500D02*
X74270000Y-99935000D01*
X70104000Y-132842000D02*
X70358000Y-133096000D01*
%TO.N,+12V*%
X75438000Y-148336000D02*
X76200000Y-149098000D01*
X78610000Y-106804000D02*
X77724000Y-105918000D01*
X95758000Y-113284000D02*
X94996000Y-114046000D01*
X88646000Y-108204000D02*
X87379000Y-108204000D01*
X95386000Y-134874000D02*
X99568000Y-134874000D01*
X103505000Y-138811000D02*
X103505000Y-139495500D01*
X102362000Y-142748000D02*
X102362000Y-144887000D01*
X103505000Y-139495500D02*
X103505000Y-141605000D01*
X74422000Y-148270000D02*
X72390000Y-146238000D01*
X74398500Y-141247500D02*
X74422000Y-141224000D01*
X96627000Y-120503000D02*
X98535000Y-120503000D01*
X91948000Y-131436000D02*
X91948000Y-128778000D01*
X99568000Y-134874000D02*
X103505000Y-138811000D01*
X90932000Y-127254000D02*
X90574496Y-126896496D01*
X91948000Y-131436000D02*
X88510000Y-131436000D01*
X87122000Y-107947000D02*
X87122000Y-105921000D01*
X94996000Y-114046000D02*
X94996000Y-119634000D01*
X90574496Y-126896496D02*
X90574496Y-124597820D01*
X72390000Y-146238000D02*
X72390000Y-141247500D01*
X94742000Y-119888000D02*
X96012000Y-119888000D01*
X90938054Y-119888000D02*
X90833242Y-119992812D01*
X73406000Y-106680000D02*
X72133000Y-106680000D01*
D70*
X104637671Y-106449500D02*
X105298160Y-107109989D01*
D71*
X87606500Y-130532500D02*
X87606500Y-128905000D01*
X74488000Y-148336000D02*
X75438000Y-148336000D01*
X72390000Y-144272000D02*
X72390000Y-141247500D01*
X74422000Y-148270000D02*
X74488000Y-148336000D01*
X96991000Y-113284000D02*
X95758000Y-113284000D01*
D70*
X110998000Y-125372500D02*
X110109000Y-124483500D01*
D71*
X102362000Y-144887000D02*
X102382000Y-144907000D01*
D70*
X110109000Y-124483500D02*
X110109000Y-123825000D01*
D71*
X104125999Y-119368999D02*
X106824000Y-122067000D01*
X96012000Y-119888000D02*
X96627000Y-120503000D01*
X83283000Y-125924000D02*
X83283000Y-126717000D01*
X72133000Y-106680000D02*
X72009000Y-106804000D01*
X98535000Y-111740000D02*
X96991000Y-113284000D01*
X88510000Y-131436000D02*
X87606500Y-130532500D01*
X85471000Y-128905000D02*
X87606500Y-128905000D01*
X94742000Y-119888000D02*
X90938054Y-119888000D01*
X94996000Y-119634000D02*
X94742000Y-119888000D01*
X79626000Y-106680000D02*
X79502000Y-106804000D01*
X91948000Y-128778000D02*
X90932000Y-127254000D01*
X91948000Y-131436000D02*
X95386000Y-134874000D01*
X79502000Y-106804000D02*
X78610000Y-106804000D01*
X76200000Y-149098000D02*
X76200000Y-149606000D01*
X87379000Y-108204000D02*
X87122000Y-107947000D01*
X83283000Y-126717000D02*
X85471000Y-128905000D01*
D70*
X104013000Y-106449500D02*
X104637671Y-106449500D01*
X110109000Y-123825000D02*
X110109000Y-122555000D01*
D71*
X72390000Y-141247500D02*
X74398500Y-141247500D01*
X98535000Y-120503000D02*
X99669001Y-119368999D01*
X81026000Y-106680000D02*
X79626000Y-106680000D01*
X99669001Y-119368999D02*
X104125999Y-119368999D01*
X103505000Y-141605000D02*
X102362000Y-142748000D01*
D72*
%TO.N,OSC_IN*%
X118401000Y-115455000D02*
X117893000Y-115455000D01*
X121149500Y-115455000D02*
X117893000Y-115455000D01*
X117893000Y-115455000D02*
X116435500Y-113997500D01*
X115573000Y-113135000D02*
X116435500Y-113997500D01*
X115573000Y-111783500D02*
X115573000Y-113135000D01*
X116435500Y-113997500D02*
X116435500Y-114450500D01*
%TO.N,OSC_OUT*%
X115573000Y-118996000D02*
X115573000Y-119911500D01*
X116435500Y-118133500D02*
X115573000Y-118996000D01*
X117852000Y-115955000D02*
X117828500Y-115978500D01*
X117852000Y-115955000D02*
X116435500Y-117371500D01*
X116435500Y-117697500D02*
X116435500Y-118133500D01*
X121149500Y-115955000D02*
X118360000Y-115955000D01*
X118360000Y-115955000D02*
X117852000Y-115955000D01*
X116435500Y-117371500D02*
X116435500Y-117697500D01*
D70*
%TO.N,Net-(C9-Pad1)*%
X123558380Y-124877608D02*
X122920599Y-125515389D01*
X122993989Y-128327989D02*
X123444000Y-128778000D01*
X123444000Y-128778000D02*
X125171200Y-128778000D01*
X123558380Y-122873520D02*
X123558380Y-124877608D01*
X122993989Y-127017791D02*
X122993989Y-128327989D01*
X125516990Y-128432210D02*
X125516990Y-127211421D01*
X130815191Y-122803290D02*
X131241610Y-122376871D01*
X124358400Y-122073500D02*
X123558380Y-122873520D01*
X125171200Y-128778000D02*
X125516990Y-128432210D01*
X128371600Y-121513600D02*
X127263999Y-120405999D01*
X122920599Y-126944401D02*
X122993989Y-127017791D01*
X131241610Y-121897234D02*
X130857976Y-121513600D01*
X128961510Y-122803290D02*
X130815191Y-122803290D01*
X126337000Y-120128036D02*
X126337000Y-119642500D01*
X126614963Y-120405999D02*
X126337000Y-120128036D01*
X127263999Y-120405999D02*
X126614963Y-120405999D01*
X130857976Y-121513600D02*
X128371600Y-121513600D01*
X131241610Y-122376871D02*
X131241610Y-121897234D01*
X122920599Y-125515389D02*
X122920599Y-126944401D01*
X127711200Y-124240000D02*
X128961510Y-122803290D01*
D72*
%TO.N,VDDA*%
X118618000Y-125576500D02*
X118591500Y-125603000D01*
X118491000Y-119507000D02*
X118491000Y-118237000D01*
X118618000Y-124460000D02*
X118618000Y-125576500D01*
X118491000Y-119380000D02*
X118491000Y-119507000D01*
X118491000Y-118237000D02*
X118618000Y-118110000D01*
X118604000Y-127254000D02*
X118604000Y-125615500D01*
X118604000Y-125615500D02*
X118591500Y-125603000D01*
X118618000Y-118110000D02*
X119253000Y-118110000D01*
X119908000Y-117455000D02*
X121149500Y-117455000D01*
X119253000Y-118110000D02*
X119908000Y-117455000D01*
D70*
%TO.N,NRST*%
X126898400Y-132715000D02*
X127965200Y-131648200D01*
D72*
X123571000Y-130429000D02*
X123571000Y-130810000D01*
X132330400Y-119224000D02*
X131572000Y-119224000D01*
X124306500Y-129693500D02*
X123571000Y-130429000D01*
X123571000Y-130810000D02*
X123698000Y-130937000D01*
D70*
X133451600Y-127304800D02*
X131900704Y-128254000D01*
X126898400Y-132765800D02*
X126898400Y-132715000D01*
D72*
X119384000Y-116455000D02*
X119380000Y-116459000D01*
D70*
X133504032Y-128447800D02*
X132867400Y-128447800D01*
D72*
X119126000Y-116713000D02*
X118364000Y-116713000D01*
D70*
X131900704Y-128254000D02*
X131429000Y-128254000D01*
X132867400Y-128447800D02*
X132435600Y-128879600D01*
X132435600Y-128879600D02*
X132435600Y-130759200D01*
X131038600Y-131876800D02*
X128223596Y-134691804D01*
X132791200Y-120548400D02*
X132799959Y-119693559D01*
D72*
X119380000Y-116459000D02*
X119126000Y-116713000D01*
D70*
X132435600Y-130759200D02*
X131318000Y-131876800D01*
D72*
X130086852Y-119224000D02*
X129869125Y-119006273D01*
D70*
X131318000Y-131876800D02*
X131038600Y-131876800D01*
D72*
X131572000Y-119224000D02*
X130086852Y-119224000D01*
D70*
X132799959Y-119693559D02*
X132330400Y-119224000D01*
X128223596Y-134691804D02*
X126173107Y-134691804D01*
D72*
X124306500Y-129667000D02*
X124306500Y-129693500D01*
X121149500Y-116455000D02*
X119384000Y-116455000D01*
X132791200Y-120548400D02*
X132791200Y-120692041D01*
D71*
%TO.N,Net-(D1-Pad1)*%
X70104000Y-126492000D02*
X74422000Y-122174000D01*
X81534000Y-122174000D02*
X82026011Y-121681989D01*
X81534000Y-125875000D02*
X81583000Y-125924000D01*
X70104000Y-126703000D02*
X70104000Y-126492000D01*
X92734989Y-121681989D02*
X92964000Y-121911000D01*
X82026011Y-121681989D02*
X92734989Y-121681989D01*
X81534000Y-122174000D02*
X81534000Y-125875000D01*
D70*
%TO.N,Net-(D2-Pad2)*%
X102907500Y-103519000D02*
X102235000Y-103519000D01*
X104013000Y-104624500D02*
X102907500Y-103519000D01*
%TO.N,Net-(D2-Pad1)*%
X102235000Y-106058002D02*
X102528006Y-106351008D01*
D71*
X92710000Y-109220000D02*
X92495956Y-109220000D01*
D70*
X102235000Y-105269000D02*
X102235000Y-106058002D01*
D71*
X70615000Y-110998000D02*
X71121500Y-110491500D01*
X92495956Y-109220000D02*
X90709989Y-111005967D01*
X71121500Y-110491500D02*
X71882000Y-111252000D01*
X71121500Y-110491500D02*
X72009000Y-109604000D01*
X69517500Y-110998000D02*
X70615000Y-110998000D01*
D70*
%TO.N,FOOTPEDAL*%
X120896000Y-147709000D02*
X122936000Y-147709000D01*
X130251200Y-134823200D02*
X130251200Y-133400800D01*
X129892974Y-120613560D02*
X131230772Y-120613560D01*
X118745000Y-149860000D02*
X120896000Y-147709000D01*
X128024500Y-118455000D02*
X128074480Y-118504980D01*
X115572000Y-145901000D02*
X121128000Y-145901000D01*
X129235200Y-137363200D02*
X129235200Y-135839200D01*
X128074480Y-118504980D02*
X128560016Y-118504980D01*
X121128000Y-145512000D02*
X121128000Y-145901000D01*
X124841000Y-146939000D02*
X124460000Y-147320000D01*
X129235200Y-135839200D02*
X130251200Y-134823200D01*
X132638800Y-122021588D02*
X132638800Y-122224800D01*
X128787020Y-119507606D02*
X129892974Y-120613560D01*
X124460000Y-147320000D02*
X123325000Y-147320000D01*
X123674500Y-152654000D02*
X122936000Y-152654000D01*
X128397000Y-138201400D02*
X129235200Y-137363200D01*
X118745000Y-151892000D02*
X118745000Y-149860000D01*
X131230772Y-120613560D02*
X132638800Y-122021588D01*
X123325000Y-147320000D02*
X122936000Y-147709000D01*
X122682000Y-152908000D02*
X119761000Y-152908000D01*
X128787020Y-118731984D02*
X128787020Y-119507606D01*
X128397000Y-138580500D02*
X128397000Y-138201400D01*
X121128000Y-145901000D02*
X122936000Y-147709000D01*
X128397000Y-145161000D02*
X126619000Y-146939000D01*
X120777000Y-145161000D02*
X121128000Y-145512000D01*
X126619000Y-146939000D02*
X124841000Y-146939000D01*
X131216400Y-132638800D02*
X133070600Y-130784600D01*
X122936000Y-152654000D02*
X122682000Y-152908000D01*
X130251200Y-133400800D02*
X131013200Y-132638800D01*
X131013200Y-132638800D02*
X131216400Y-132638800D01*
X133070600Y-130784600D02*
X133070600Y-129413000D01*
X128397000Y-138580500D02*
X128397000Y-145161000D01*
X128560016Y-118504980D02*
X128787020Y-118731984D01*
X119761000Y-152908000D02*
X118745000Y-151892000D01*
%TO.N,D-*%
X109728000Y-131318000D02*
X110363000Y-130683000D01*
X128024500Y-115455000D02*
X128689923Y-115455000D01*
X94234000Y-148867500D02*
X94337500Y-148971000D01*
X99314000Y-152527000D02*
X99187000Y-152400000D01*
X109728000Y-132080000D02*
X109728000Y-131318000D01*
X92321000Y-148640800D02*
X94007300Y-148640800D01*
X94007300Y-148640800D02*
X94337500Y-148971000D01*
X94234000Y-147955000D02*
X94234000Y-148867500D01*
X128689923Y-115455000D02*
X128923852Y-115688929D01*
X99314000Y-154559000D02*
X99314000Y-152527000D01*
%TO.N,D+*%
X128890558Y-115019223D02*
X128826335Y-114955000D01*
D73*
X97798000Y-145288000D02*
X97798000Y-146415500D01*
X97798000Y-145288000D02*
X97798000Y-144788000D01*
D70*
X129709777Y-115019223D02*
X128890558Y-115019223D01*
D73*
X97798000Y-144788000D02*
X97536000Y-144526000D01*
X97798000Y-146415500D02*
X98298000Y-146915500D01*
D70*
X128826335Y-114955000D02*
X128024500Y-114955000D01*
X129794000Y-114935000D02*
X129709777Y-115019223D01*
%TO.N,Net-(D7-Pad2)*%
X89789000Y-128905000D02*
X90424000Y-128270000D01*
X89431500Y-128905000D02*
X89789000Y-128905000D01*
X92837000Y-128143000D02*
X93428202Y-128143000D01*
X93428202Y-128143000D02*
X95220202Y-126351000D01*
X95220202Y-126351000D02*
X95504000Y-126351000D01*
D71*
%TO.N,Net-(D7-Pad1)*%
X78108000Y-110998000D02*
X79059000Y-110047000D01*
X87554001Y-115200001D02*
X93857989Y-115200001D01*
X85676001Y-117078001D02*
X87554001Y-115200001D01*
X98535000Y-116823000D02*
X98535000Y-118003000D01*
X79059000Y-110047000D02*
X79059000Y-111648792D01*
X77010500Y-110998000D02*
X78108000Y-110998000D01*
X79059000Y-111648792D02*
X83327999Y-115917791D01*
X93857989Y-115200001D02*
X93995990Y-115062000D01*
X83327999Y-116558001D02*
X83847999Y-117078001D01*
D70*
X96633000Y-124601000D02*
X98044000Y-123190000D01*
D71*
X83327999Y-115917791D02*
X83327999Y-116558001D01*
X79059000Y-110047000D02*
X79502000Y-109604000D01*
X83847999Y-117078001D02*
X85676001Y-117078001D01*
D70*
X95504000Y-124601000D02*
X96633000Y-124601000D01*
D71*
X96266000Y-114554000D02*
X98535000Y-116823000D01*
D70*
X100584000Y-121666000D02*
X100584000Y-120269000D01*
%TO.N,Net-(D8-Pad2)*%
X110998000Y-123547500D02*
X110998000Y-121652000D01*
D71*
%TO.N,Net-(D10-Pad2)*%
X84328000Y-112522000D02*
X84328000Y-116078000D01*
D70*
X111887000Y-120791000D02*
X111887000Y-124358800D01*
D71*
X86871000Y-110998000D02*
X87122000Y-110747000D01*
X84503500Y-110998000D02*
X85852000Y-110998000D01*
X94234000Y-128524000D02*
X96266000Y-128524000D01*
D70*
X111887000Y-124358800D02*
X111744590Y-124501210D01*
D71*
X96266000Y-128524000D02*
X97565320Y-127224680D01*
X85852000Y-110998000D02*
X84328000Y-112522000D01*
X97946320Y-124567000D02*
X106824000Y-124567000D01*
X97565320Y-124948000D02*
X97946320Y-124567000D01*
D70*
X110998000Y-119902000D02*
X111887000Y-120791000D01*
D71*
X85852000Y-110998000D02*
X86871000Y-110998000D01*
X97565320Y-127224680D02*
X97565320Y-124948000D01*
%TO.N,Net-(D11-Pad2)*%
X99540202Y-107984204D02*
X99540202Y-106765989D01*
X91174999Y-106414999D02*
X87881000Y-103121000D01*
X87122000Y-102196000D02*
X85485000Y-100559000D01*
X105827989Y-143961011D02*
X105827989Y-129630011D01*
X109208999Y-126249001D02*
X109208999Y-121283319D01*
X105827989Y-129630011D02*
X109208999Y-126249001D01*
X87881000Y-103121000D02*
X87122000Y-103121000D01*
X98739201Y-105964988D02*
X97062690Y-105964988D01*
X100239989Y-108683991D02*
X99540202Y-107984204D01*
X104882000Y-144907000D02*
X105827989Y-143961011D01*
X87122000Y-103121000D02*
X87122000Y-102196000D01*
X96612679Y-106414999D02*
X91174999Y-106414999D01*
X100239989Y-112314309D02*
X100239989Y-108683991D01*
X109208999Y-121283319D02*
X100239989Y-112314309D01*
X97062690Y-105964988D02*
X96612679Y-106414999D01*
X99540202Y-106765989D02*
X98739201Y-105964988D01*
D70*
%TO.N,FOOTPEDAL_AUX*%
X132578412Y-112288000D02*
X133017021Y-111849391D01*
X132578412Y-112503414D02*
X132578412Y-112288000D01*
X106045000Y-150249000D02*
X106045000Y-149860000D01*
X114193000Y-148082000D02*
X114552000Y-148441000D01*
X132257800Y-108305600D02*
X131419600Y-107467400D01*
X127406400Y-104495600D02*
X127279400Y-104368600D01*
X107391200Y-126492000D02*
X107137200Y-126492000D01*
X132578412Y-112288000D02*
X133372021Y-111494391D01*
X107950000Y-136321800D02*
X108153200Y-136321800D01*
X124690500Y-150241000D02*
X124714000Y-150264500D01*
X121767600Y-104241600D02*
X119202200Y-106807000D01*
X107823000Y-148717000D02*
X108458000Y-148082000D01*
X128462000Y-117955000D02*
X128533611Y-118026611D01*
X106781600Y-131826000D02*
X106781600Y-133502400D01*
X128533611Y-118026611D02*
X128745411Y-118026611D01*
X107137200Y-126492000D02*
X105587800Y-128041400D01*
X125272800Y-104368600D02*
X124917200Y-104724200D01*
X106553000Y-134924800D02*
X107950000Y-136321800D01*
X128397000Y-105486200D02*
X127406400Y-104495600D01*
X123596400Y-104343200D02*
X123240800Y-103987600D01*
X114325400Y-113131600D02*
X113944400Y-113512600D01*
X123240800Y-103987600D02*
X122809000Y-103987600D01*
X108864400Y-144094200D02*
X108864400Y-147675600D01*
X128745411Y-118026611D02*
X129057400Y-118338600D01*
X128701800Y-105486200D02*
X128600200Y-105486200D01*
X131419600Y-107467400D02*
X131343400Y-107467400D01*
X123571000Y-150241000D02*
X124690500Y-150241000D01*
X130937000Y-107061000D02*
X130937000Y-106654600D01*
X130505200Y-105867200D02*
X130124200Y-105486200D01*
X124917200Y-104724200D02*
X123977400Y-104724200D01*
X125907800Y-104368600D02*
X125272800Y-104368600D01*
X108864400Y-147675600D02*
X108458000Y-148082000D01*
X133222429Y-116577584D02*
X133222429Y-113147431D01*
X126515500Y-148439500D02*
X126746000Y-148439500D01*
X130124200Y-105486200D02*
X128701800Y-105486200D01*
X129057400Y-118338600D02*
X131461413Y-118338600D01*
X133372021Y-111494391D02*
X133372021Y-110500000D01*
X108458000Y-143687800D02*
X108864400Y-144094200D01*
X130937000Y-106654600D02*
X130937000Y-106299000D01*
X122021600Y-103987600D02*
X121767600Y-104241600D01*
X131461413Y-118338600D02*
X133222429Y-116577584D01*
X130937000Y-106299000D02*
X130505200Y-105867200D01*
X119202200Y-106807000D02*
X118287800Y-106807000D01*
X127279400Y-104368600D02*
X125907800Y-104368600D01*
X122809000Y-103987600D02*
X122021600Y-103987600D01*
X106781600Y-133502400D02*
X106553000Y-133731000D01*
X124714000Y-150264500D02*
X124714000Y-150241000D01*
X128600200Y-105486200D02*
X128397000Y-105486200D01*
X106553000Y-133731000D02*
X106553000Y-134924800D01*
X133222429Y-113147431D02*
X132578412Y-112503414D01*
X114325400Y-108889800D02*
X114325400Y-113131600D01*
X108458000Y-148082000D02*
X114193000Y-148082000D01*
X128024500Y-117955000D02*
X128462000Y-117955000D01*
X131343400Y-107467400D02*
X130937000Y-107061000D01*
X106045000Y-149860000D02*
X106553000Y-149352000D01*
X124714000Y-150241000D02*
X126515500Y-148439500D01*
X123977400Y-104724200D02*
X123596400Y-104343200D01*
D71*
%TO.N,Net-(F1-Pad2)*%
X77845020Y-151008980D02*
X77845020Y-142514475D01*
X76134000Y-152720000D02*
X77845020Y-151008980D01*
X74422000Y-152720000D02*
X76134000Y-152720000D01*
D73*
%TO.N,I2C1_SCL*%
X94824277Y-108581723D02*
X95013113Y-108581723D01*
X89469999Y-106487999D02*
X89469999Y-110932999D01*
X89469999Y-110932999D02*
X89469999Y-111821999D01*
X89469999Y-111821999D02*
X89916000Y-112268000D01*
D70*
X97663000Y-107950000D02*
X96647000Y-108966000D01*
X124837000Y-111002000D02*
X125349000Y-110490000D01*
X101228999Y-108340999D02*
X108928844Y-108340999D01*
D73*
X90170000Y-99718500D02*
X90170000Y-103378000D01*
X94289000Y-109117000D02*
X94824277Y-108581723D01*
D70*
X124837000Y-112767500D02*
X124837000Y-111002000D01*
X97663000Y-107315000D02*
X97663000Y-107950000D01*
X85725000Y-114427000D02*
X86995000Y-113157000D01*
D73*
X89916000Y-112268000D02*
X91186000Y-112268000D01*
X91186000Y-112268000D02*
X92710000Y-110744000D01*
D70*
X108928844Y-108340999D02*
X109152856Y-108565011D01*
X85725000Y-115697000D02*
X85725000Y-114427000D01*
X100711000Y-107823000D02*
X101228999Y-108340999D01*
D73*
X90678000Y-99210500D02*
X90170000Y-99718500D01*
D70*
X109152856Y-108565011D02*
X110760862Y-108565011D01*
X110760862Y-108565011D02*
X110871987Y-108453886D01*
D73*
X88392000Y-105410000D02*
X89469999Y-106487999D01*
D70*
%TO.N,I2C1_SDA*%
X109335847Y-107823000D02*
X109452857Y-107940010D01*
X88011000Y-119126000D02*
X89281000Y-117856000D01*
X90170000Y-107188000D02*
X90297000Y-107061000D01*
X96070194Y-107982804D02*
X97362999Y-106689999D01*
D73*
X93265439Y-107442000D02*
X93263391Y-107439952D01*
X90932000Y-104192732D02*
X91186000Y-103938732D01*
D70*
X98132210Y-106689999D02*
X98640201Y-107197990D01*
D73*
X95057392Y-107442000D02*
X94996000Y-107442000D01*
X90932000Y-104648000D02*
X90932000Y-104192732D01*
D70*
X88392000Y-116967000D02*
X88138000Y-116713000D01*
D73*
X91186000Y-103938732D02*
X91186000Y-100480500D01*
D70*
X124337000Y-110613000D02*
X124460000Y-110490000D01*
X95598196Y-107982804D02*
X96070194Y-107982804D01*
D73*
X95946999Y-109234001D02*
X95946999Y-108331607D01*
D70*
X88646000Y-113411000D02*
X87376000Y-112141000D01*
X89281000Y-117856000D02*
X89281000Y-117729000D01*
D73*
X95946999Y-108331607D02*
X95598196Y-107982804D01*
X94289000Y-110117000D02*
X95064000Y-110117000D01*
X95598196Y-107982804D02*
X95057392Y-107442000D01*
D70*
X83947000Y-119126000D02*
X88011000Y-119126000D01*
X88519000Y-116967000D02*
X88392000Y-116967000D01*
X124337000Y-112767500D02*
X124337000Y-110613000D01*
D73*
X94996000Y-107442000D02*
X93265439Y-107442000D01*
D70*
X83058000Y-120015000D02*
X83947000Y-119126000D01*
D73*
X91186000Y-100480500D02*
X92456000Y-99210500D01*
D70*
X88138000Y-116713000D02*
X88138000Y-116205000D01*
X89281000Y-117729000D02*
X88519000Y-116967000D01*
X90170000Y-109601000D02*
X90170000Y-107188000D01*
X102229898Y-107823000D02*
X109335847Y-107823000D01*
X101533949Y-107127051D02*
X102229898Y-107823000D01*
D73*
X95064000Y-110117000D02*
X95946999Y-109234001D01*
D70*
X97362999Y-106689999D02*
X98132210Y-106689999D01*
X88646000Y-114300000D02*
X88646000Y-113411000D01*
%TO.N,SPI1_MOSI*%
X103124000Y-105029000D02*
X103124000Y-104648000D01*
X125337000Y-112767500D02*
X125337000Y-111391000D01*
X105791000Y-105410000D02*
X105763980Y-105437020D01*
X101420000Y-104394000D02*
X101039000Y-104775000D01*
X125337000Y-111391000D02*
X126238000Y-110490000D01*
X102870000Y-104394000D02*
X102489000Y-104394000D01*
X103532020Y-105437020D02*
X103505000Y-105410000D01*
X103505000Y-105410000D02*
X103124000Y-105029000D01*
X103124000Y-104648000D02*
X102870000Y-104394000D01*
D73*
X95005039Y-105165039D02*
X95758000Y-105165039D01*
X95767039Y-105165039D02*
X96012000Y-105410000D01*
D70*
X105763980Y-105437020D02*
X103532020Y-105437020D01*
D73*
X94639000Y-104799000D02*
X94742000Y-104902000D01*
D70*
X102489000Y-104394000D02*
X101420000Y-104394000D01*
D73*
X94639000Y-102180000D02*
X94639000Y-104799000D01*
X94742000Y-104902000D02*
X95005039Y-105165039D01*
X95758000Y-105165039D02*
X95767039Y-105165039D01*
D70*
%TO.N,SPI1_MISO*%
X125837000Y-112767500D02*
X125837000Y-111778588D01*
X101346000Y-102489000D02*
X100457000Y-103378000D01*
X106091006Y-104784989D02*
X106807000Y-105500983D01*
X112369600Y-108940600D02*
X113233200Y-108940600D01*
X118033800Y-107492800D02*
X119634000Y-107492800D01*
X119634000Y-107492800D02*
X119862600Y-107264200D01*
X100457000Y-103378000D02*
X99452798Y-103378000D01*
X99013980Y-103932020D02*
X98552000Y-104394000D01*
X121005600Y-107264200D02*
X121462800Y-106807000D01*
D73*
X95639000Y-104220990D02*
X95504000Y-104355990D01*
D70*
X105562400Y-104394000D02*
X105953389Y-104784989D01*
X121462800Y-106654600D02*
X122555000Y-106654600D01*
X109804200Y-107086400D02*
X110413800Y-107696000D01*
X116281200Y-107696000D02*
X117830600Y-107696000D01*
X111125000Y-107696000D02*
X112369600Y-108940600D01*
X107823000Y-107086400D02*
X109804200Y-107086400D01*
X106807000Y-106070400D02*
X107823000Y-107086400D01*
X125837000Y-111778588D02*
X126863011Y-110752577D01*
X126863011Y-109737989D02*
X126873000Y-109728000D01*
X104988000Y-104394000D02*
X105562400Y-104394000D01*
X121462800Y-106807000D02*
X121462800Y-106654600D01*
X117830600Y-107696000D02*
X118033800Y-107492800D01*
X126863011Y-110752577D02*
X126863011Y-110490000D01*
X95542010Y-104394000D02*
X95504000Y-104355990D01*
X113233200Y-108940600D02*
X113919000Y-108254800D01*
X99013980Y-103816818D02*
X99013980Y-103932020D01*
X114985800Y-108254800D02*
X115290600Y-107950000D01*
X98552000Y-104394000D02*
X95542010Y-104394000D01*
X126863011Y-110490000D02*
X126863011Y-109737989D01*
X110413800Y-107696000D02*
X111125000Y-107696000D01*
X99452798Y-103378000D02*
X99013980Y-103816818D01*
X122555000Y-106654600D02*
X123190000Y-107289600D01*
X105953389Y-104784989D02*
X106091006Y-104784989D01*
X123190000Y-107289600D02*
X123190000Y-108458000D01*
D73*
X95639000Y-102180000D02*
X95639000Y-104220990D01*
D70*
X119862600Y-107264200D02*
X121005600Y-107264200D01*
X113919000Y-108254800D02*
X114985800Y-108254800D01*
X115290600Y-107950000D02*
X116027200Y-107950000D01*
X116027200Y-107950000D02*
X116281200Y-107696000D01*
X106807000Y-105500983D02*
X106807000Y-106070400D01*
%TO.N,SPI1_CLK*%
X121539000Y-131445000D02*
X122555000Y-132461000D01*
X121539000Y-129376476D02*
X121539000Y-131445000D01*
X121769442Y-125393723D02*
X121769442Y-129146034D01*
X115382201Y-125000731D02*
X115382201Y-125090201D01*
X96647000Y-102172000D02*
X96639000Y-102180000D01*
X115382201Y-125090201D02*
X114820510Y-125651892D01*
X115951000Y-128563499D02*
X115951000Y-132080000D01*
X117824923Y-122770000D02*
X117628372Y-122754560D01*
X117628372Y-122754560D02*
X115382201Y-125000731D01*
X112268000Y-112014000D02*
X112268000Y-112776000D01*
X122837000Y-119642500D02*
X122837000Y-122270176D01*
X122645578Y-124517587D02*
X121769442Y-125393723D01*
X96393000Y-100203000D02*
X96647000Y-100457000D01*
X112268000Y-112776000D02*
X114935000Y-115443000D01*
X96647000Y-100457000D02*
X96647000Y-102172000D01*
X122837000Y-122270176D02*
X122645578Y-122461599D01*
X114820510Y-127433009D02*
X115951000Y-128563499D01*
X121769442Y-129146034D02*
X121539000Y-129376476D01*
X122645578Y-122461599D02*
X122645578Y-124517587D01*
X114820510Y-125651892D02*
X114820510Y-127433009D01*
%TO.N,SPI1_CS*%
X121319431Y-128615157D02*
X121088989Y-128845599D01*
X104775000Y-108966000D02*
X104394000Y-109347000D01*
X95250000Y-99949000D02*
X95758000Y-99441000D01*
X122337000Y-122133764D02*
X122195567Y-122275199D01*
X117348000Y-131191000D02*
X117856000Y-130683000D01*
X97639000Y-100306000D02*
X97639000Y-102180000D01*
X121319431Y-125207324D02*
X121319431Y-128615157D01*
X97639000Y-102955000D02*
X98151156Y-103467156D01*
X94107000Y-99949000D02*
X95250000Y-99949000D01*
X97639000Y-102180000D02*
X97639000Y-102955000D01*
X98151156Y-103467156D02*
X98495931Y-103467156D01*
X122195567Y-124331187D02*
X121319431Y-125207324D01*
X121088989Y-128845599D02*
X121088989Y-131927144D01*
X117729000Y-127635000D02*
X117729000Y-123571000D01*
X117729000Y-130556000D02*
X117729000Y-123571000D01*
X112776000Y-117983000D02*
X112776000Y-121188502D01*
X104394000Y-109347000D02*
X104394000Y-115443000D01*
X122337000Y-119642500D02*
X122337000Y-122133764D01*
X104394000Y-115443000D02*
X106934000Y-117983000D01*
X95758000Y-99441000D02*
X96774000Y-99441000D01*
X121088989Y-131927144D02*
X121666000Y-132504155D01*
X122195567Y-122275199D02*
X122195567Y-124331187D01*
X121666000Y-132504155D02*
X121666000Y-132588000D01*
X96774000Y-99441000D02*
X97639000Y-100306000D01*
X112776000Y-121188502D02*
X114919196Y-123331698D01*
X117348000Y-131826000D02*
X117348000Y-131191000D01*
X106934000Y-117983000D02*
X112776000Y-117983000D01*
X117856000Y-130683000D02*
X117729000Y-130556000D01*
%TO.N,Lift Btn*%
X112371959Y-135253938D02*
X112345497Y-135280400D01*
X124510800Y-105894012D02*
X124510800Y-106527600D01*
X118033800Y-109347000D02*
X118643400Y-109956600D01*
X120863998Y-141492602D02*
X120863998Y-140233000D01*
X118897400Y-110210600D02*
X118897400Y-114376200D01*
X109000168Y-140826368D02*
X111353600Y-143179800D01*
X127406400Y-105664000D02*
X126764211Y-105021811D01*
X128024500Y-117455000D02*
X128598412Y-117455000D01*
X115600180Y-115747800D02*
X113792000Y-117555980D01*
X132747589Y-115055602D02*
X132597418Y-114905431D01*
X113792000Y-117555980D02*
X113792000Y-119862600D01*
X118033800Y-108305600D02*
X118033800Y-109347000D01*
X109000168Y-136541632D02*
X109000168Y-140826368D01*
X129243801Y-117888589D02*
X131275000Y-117888589D01*
X126764211Y-105021811D02*
X125383001Y-105021811D01*
X115316480Y-129031448D02*
X115088432Y-128803400D01*
X128598412Y-117455000D02*
X128669212Y-117525800D01*
X128669212Y-117525800D02*
X128881012Y-117525800D01*
X119176800Y-143179800D02*
X120863998Y-141492602D01*
X115697000Y-133375400D02*
X115316480Y-132994880D01*
X110464600Y-135077200D02*
X109000168Y-136541632D01*
X132747589Y-116416000D02*
X132747589Y-115055602D01*
X113595508Y-135253938D02*
X112371959Y-135253938D01*
X125383001Y-105021811D02*
X124510800Y-105894012D01*
X111353600Y-143179800D02*
X119176800Y-143179800D01*
X131275000Y-117888589D02*
X132747589Y-116416000D01*
X118643400Y-109956600D02*
X118897400Y-110210600D01*
X128881012Y-117525800D02*
X129243801Y-117888589D01*
X116611400Y-115747800D02*
X115600180Y-115747800D01*
X115316480Y-132994880D02*
X115316480Y-129031448D01*
%TO.N,BOOT0*%
X123834999Y-112765499D02*
X123834999Y-110226001D01*
D72*
X121149500Y-117955000D02*
X120115122Y-117955000D01*
X119253000Y-119911500D02*
X117348000Y-121816500D01*
D70*
X131953000Y-109093000D02*
X131953000Y-110187000D01*
D72*
X119669799Y-132705778D02*
X119669799Y-137760903D01*
X120115122Y-117955000D02*
X119253000Y-118817122D01*
D70*
X129115331Y-103757971D02*
X125139492Y-103757971D01*
D72*
X117348000Y-121816500D02*
X117348000Y-122291500D01*
X119669799Y-137760903D02*
X119584086Y-137846616D01*
D70*
X123834999Y-106308999D02*
X122301000Y-104775000D01*
D72*
X119253000Y-118817122D02*
X119253000Y-119911500D01*
X113858087Y-124420372D02*
X113413862Y-124420372D01*
X119634000Y-132669979D02*
X119669799Y-132705778D01*
X131517138Y-110622862D02*
X130832954Y-110622862D01*
D70*
X123837000Y-112767500D02*
X123834999Y-112765499D01*
D72*
X114138260Y-124140199D02*
X113858087Y-124420372D01*
D70*
X131503999Y-110499999D02*
X131572000Y-110568000D01*
D72*
X119864000Y-140233000D02*
X119584086Y-139953086D01*
X113413862Y-124420372D02*
X112910589Y-124923645D01*
X119584086Y-139953086D02*
X119584086Y-137846616D01*
X115499301Y-124140199D02*
X114138260Y-124140199D01*
D70*
X131953000Y-110187000D02*
X131572000Y-110568000D01*
D72*
X131572000Y-110568000D02*
X131517138Y-110622862D01*
X119253000Y-119911500D02*
X118213500Y-120951000D01*
D70*
X131553486Y-106196126D02*
X129115331Y-103757971D01*
D72*
X117182456Y-137285222D02*
X117837285Y-137285222D01*
X112910589Y-133013355D02*
X117182456Y-137285222D01*
D70*
X123834999Y-110226001D02*
X123834999Y-106308999D01*
D72*
X117348000Y-122291500D02*
X115499301Y-124140199D01*
X112910589Y-124923645D02*
X112910589Y-133013355D01*
%TO.N,Low Btn*%
X118966011Y-133980843D02*
X119169788Y-134184620D01*
X120322258Y-118455000D02*
X120322258Y-119549391D01*
X118937297Y-137456639D02*
X118937297Y-137781978D01*
X118937297Y-137781978D02*
X118863999Y-137855276D01*
X119169788Y-134184620D02*
X119169788Y-137224148D01*
X118966011Y-131035489D02*
X118966011Y-133980843D01*
X119169788Y-137224148D02*
X118937297Y-137456639D01*
X118775075Y-130844553D02*
X118966011Y-131035489D01*
X118863999Y-137855276D02*
X118863999Y-140233000D01*
X118775074Y-128451512D02*
X118775075Y-130844553D01*
X119494387Y-127732198D02*
X118775074Y-128451512D01*
X120322258Y-119549391D02*
X119494387Y-120377262D01*
X119494387Y-120377262D02*
X119494387Y-127732198D01*
X121149500Y-118455000D02*
X120322258Y-118455000D01*
D70*
%TO.N,High Btn*%
X118694777Y-137019941D02*
X118694777Y-134381375D01*
X122394443Y-125405133D02*
X122394443Y-128513413D01*
X118462286Y-137585223D02*
X118462286Y-137252432D01*
X123326999Y-122416589D02*
X123095589Y-122647999D01*
X118694777Y-134381375D02*
X118237000Y-133923598D01*
X118462286Y-137252432D02*
X118694777Y-137019941D01*
X117863999Y-140233000D02*
X117863999Y-138183510D01*
X123326999Y-119652501D02*
X123326999Y-122416589D01*
X123337000Y-119642500D02*
X123326999Y-119652501D01*
X123095589Y-122647999D02*
X123095589Y-124703987D01*
X118237000Y-133923598D02*
X118237000Y-132080000D01*
X123095589Y-124703987D02*
X122394443Y-125405133D01*
X117863999Y-138183510D02*
X118462286Y-137585223D01*
%TO.N,Reverse Btn*%
X112260579Y-133035111D02*
X112260579Y-127861855D01*
X116863998Y-137638530D02*
X112260579Y-133035111D01*
X116863998Y-140233000D02*
X116863998Y-137638530D01*
X123837000Y-120535000D02*
X123952000Y-120650000D01*
X123837000Y-119642500D02*
X123837000Y-120535000D01*
%TO.N,Trigger Btn*%
X116586000Y-130048000D02*
X116586000Y-134306339D01*
X128024500Y-116955000D02*
X128766000Y-116955000D01*
X115863998Y-140233000D02*
X115863998Y-137522429D01*
X115863998Y-137522429D02*
X115206933Y-136865364D01*
X130080589Y-117126589D02*
X130175000Y-117221000D01*
X128766000Y-116955000D02*
X128886789Y-117075789D01*
X129091401Y-117126589D02*
X130080589Y-117126589D01*
X128886789Y-117075789D02*
X129040601Y-117075789D01*
X116586000Y-134306339D02*
X116672664Y-134393003D01*
X129040601Y-117075789D02*
X129091401Y-117126589D01*
%TO.N,UI LED Data*%
X124688600Y-120980200D02*
X124662974Y-120320026D01*
X114374608Y-128088358D02*
X114481316Y-127981650D01*
X114374608Y-131890826D02*
X114374608Y-128088358D01*
X124662974Y-120320026D02*
X124837000Y-120146000D01*
X114173000Y-136398000D02*
X114173000Y-136756433D01*
X114864000Y-137447433D02*
X114864000Y-140233000D01*
X124837000Y-120146000D02*
X124837000Y-119642500D01*
X114173000Y-136756433D02*
X114864000Y-137447433D01*
X114691479Y-132207697D02*
X114374608Y-131890826D01*
%TO.N,UART2_TX*%
X119934001Y-132044978D02*
X120259001Y-132369978D01*
X119969398Y-127928954D02*
X119250085Y-128648267D01*
X120259001Y-132742414D02*
X121315589Y-133799002D01*
X124252998Y-134755212D02*
X125225802Y-134755212D01*
X119250085Y-130647797D02*
X119934001Y-131331713D01*
X121149500Y-118955000D02*
X121149500Y-119393915D01*
X131429000Y-130843435D02*
X131429000Y-130254000D01*
X131937000Y-130319412D02*
X131937000Y-130254000D01*
X125225802Y-134755212D02*
X126007781Y-133973233D01*
X120259001Y-132369978D02*
X120259001Y-132742414D01*
X121315589Y-133799002D02*
X123296788Y-133799002D01*
X119969398Y-120574017D02*
X119969398Y-127928954D01*
X128299202Y-133973233D02*
X131429000Y-130843435D01*
X126007781Y-133973233D02*
X128299202Y-133973233D01*
X121149500Y-119393915D02*
X119969398Y-120574017D01*
X123296788Y-133799002D02*
X124252998Y-134755212D01*
X119250085Y-128648267D02*
X119250085Y-130647797D01*
X119934001Y-131331713D02*
X119934001Y-132044978D01*
%TO.N,UART2_RX*%
X121837000Y-119642500D02*
X121712000Y-119767500D01*
X120869420Y-125020923D02*
X120869420Y-128301756D01*
X124439399Y-134305201D02*
X125039401Y-134305201D01*
X121712000Y-119767500D02*
X121712000Y-124178343D01*
X120709012Y-132183578D02*
X120709012Y-132556013D01*
X120869420Y-128301756D02*
X120638978Y-128532198D01*
X121712000Y-124178343D02*
X120869420Y-125020923D01*
X121470410Y-133317411D02*
X123451609Y-133317411D01*
X129429000Y-132207023D02*
X129429000Y-130254000D01*
X123451609Y-133317411D02*
X124439399Y-134305201D01*
X120638978Y-128532198D02*
X120638978Y-132113543D01*
X125039401Y-134305201D02*
X125821380Y-133523222D01*
X120709012Y-132556013D02*
X121470410Y-133317411D01*
X120638978Y-132113543D02*
X120709012Y-132183578D01*
X128112801Y-133523222D02*
X129429000Y-132207023D01*
X125821380Y-133523222D02*
X128112801Y-133523222D01*
%TO.N,JTDO*%
X129429000Y-128254000D02*
X128428989Y-129254011D01*
X126644400Y-108153200D02*
X126644400Y-108559600D01*
X114652017Y-124895383D02*
X114757200Y-124790200D01*
X118008400Y-135585200D02*
X116154200Y-135585200D01*
X128428989Y-131186987D02*
X128590201Y-131348199D01*
X127558800Y-109880400D02*
X127558800Y-110185200D01*
X128590201Y-131348199D02*
X128590201Y-132120820D01*
X127558800Y-110185200D02*
X127381000Y-110363000D01*
X123798039Y-135205761D02*
X122853038Y-135205761D01*
X113385600Y-125145800D02*
X113636016Y-124895383D01*
X126644400Y-108559600D02*
X127558800Y-109474000D01*
X122678048Y-135030771D02*
X120442429Y-135030771D01*
X128428989Y-129254011D02*
X128428989Y-131186987D01*
X130098800Y-109829600D02*
X127609600Y-109829600D01*
X113636016Y-124895383D02*
X114652017Y-124895383D01*
X120442429Y-135030771D02*
X120319800Y-135153400D01*
X126337000Y-111915000D02*
X126337000Y-112767500D01*
X128590201Y-132120820D02*
X127812800Y-132898221D01*
X127381000Y-110871000D02*
X126337000Y-111915000D01*
X127381000Y-110363000D02*
X127381000Y-110871000D01*
X113385600Y-132816600D02*
X113385600Y-125145800D01*
X123799600Y-135204200D02*
X123798039Y-135205761D01*
X127558800Y-109474000D02*
X127558800Y-109880400D01*
X116154200Y-135585200D02*
X113385600Y-132816600D01*
X122853038Y-135205761D02*
X122678048Y-135030771D01*
X127609600Y-109829600D02*
X127558800Y-109880400D01*
%TO.N,JTMS*%
X131429000Y-126254000D02*
X131429000Y-126231000D01*
X128522778Y-114394222D02*
X128462000Y-114455000D01*
X132030000Y-111820000D02*
X131830862Y-112019138D01*
X128462000Y-114455000D02*
X128024500Y-114455000D01*
X133460000Y-124200000D02*
X133460000Y-119410000D01*
X132740000Y-109840000D02*
X132747011Y-109847011D01*
X132740000Y-109270000D02*
X132740000Y-109840000D01*
X131830862Y-112019138D02*
X131830862Y-112549138D01*
X132392020Y-111837980D02*
X132077980Y-111837980D01*
X132384800Y-107442000D02*
X132959001Y-108016201D01*
X133360000Y-112360000D02*
X133390000Y-112390000D01*
X132077980Y-111837980D02*
X132060000Y-111820000D01*
X133460000Y-119410000D02*
X133460000Y-116976437D01*
X132959001Y-108016201D02*
X132959001Y-109050999D01*
X133672449Y-116763988D02*
X133672449Y-112672449D01*
X131429000Y-126231000D02*
X132730000Y-124930000D01*
X132730000Y-124930000D02*
X133460000Y-124200000D01*
X132747011Y-109847011D02*
X132747011Y-111482989D01*
X133672449Y-112672449D02*
X133390000Y-112390000D01*
X132747011Y-111482989D02*
X132392020Y-111837980D01*
X129120133Y-114394222D02*
X128522778Y-114394222D01*
X131830862Y-112549138D02*
X130110000Y-112510000D01*
X133460000Y-116976437D02*
X133672449Y-116763988D01*
X132060000Y-111820000D02*
X132030000Y-111820000D01*
X132959001Y-109050999D02*
X132740000Y-109270000D01*
%TO.N,JTCK*%
X127337000Y-111677000D02*
X128016000Y-110998000D01*
X120523000Y-134239000D02*
X120864760Y-134580760D01*
X113853973Y-125755475D02*
X114037129Y-125572319D01*
X117972398Y-134696200D02*
X117635009Y-135033589D01*
X117635009Y-135033589D02*
X116416801Y-135033589D01*
X128016000Y-110998000D02*
X128016000Y-110490000D01*
X127337000Y-112767500D02*
X127337000Y-111677000D01*
X128574800Y-110490000D02*
X128879600Y-110794800D01*
X112593189Y-122914368D02*
X113449192Y-123770371D01*
X116416801Y-135033589D02*
X113853973Y-132470761D01*
X118059200Y-134696200D02*
X117972398Y-134696200D01*
X113449192Y-123770371D02*
X113546086Y-123770371D01*
X120864760Y-134580760D02*
X123153039Y-134580760D01*
X128016000Y-110490000D02*
X128574800Y-110490000D01*
X113853973Y-132470761D02*
X113853973Y-125755475D01*
D71*
%TO.N,Net-(Q1-Pad1)*%
X67413500Y-108458000D02*
X67413500Y-106807000D01*
X67642500Y-108687000D02*
X67413500Y-108458000D01*
X67642500Y-110048000D02*
X67642500Y-108687000D01*
%TO.N,Net-(Q2-Pad1)*%
X75135500Y-108687000D02*
X74906500Y-108458000D01*
X74906500Y-108458000D02*
X74906500Y-106807000D01*
X75135500Y-110048000D02*
X75135500Y-108687000D01*
%TO.N,Net-(Q3-Pad1)*%
X82628500Y-110048000D02*
X82399500Y-109819000D01*
X82399500Y-109819000D02*
X82399500Y-108458000D01*
X82399500Y-108458000D02*
X82399500Y-106807000D01*
%TO.N,Net-(Q4-Pad1)*%
X80899000Y-102973500D02*
X83820000Y-102973500D01*
X80885000Y-102959500D02*
X80899000Y-102973500D01*
X80885000Y-100559000D02*
X80885000Y-102959500D01*
D70*
%TO.N,VUSB*%
X107315000Y-134366000D02*
X107432001Y-134248999D01*
X95250000Y-148209000D02*
X95377000Y-148082000D01*
X128024500Y-116455000D02*
X129141932Y-116455000D01*
X95377000Y-148082000D02*
X95504000Y-147955000D01*
X90424000Y-152357000D02*
X90424000Y-152019000D01*
X90932000Y-151511000D02*
X91821000Y-151511000D01*
X95504000Y-147955000D02*
X97155000Y-147955000D01*
X95250000Y-149733000D02*
X95250000Y-148209000D01*
X97155000Y-147955000D02*
X97663000Y-147955000D01*
X95594000Y-150945500D02*
X95594000Y-150077000D01*
X93218000Y-149225000D02*
X93599000Y-149606000D01*
X107432001Y-131054001D02*
X107188000Y-130810000D01*
X95594000Y-150077000D02*
X95313500Y-149796500D01*
X129141932Y-116455000D02*
X129144766Y-116457834D01*
X100584000Y-150855500D02*
X100494000Y-150945500D01*
X92837000Y-149225000D02*
X93218000Y-149225000D01*
X91821000Y-151511000D02*
X92329000Y-151003000D01*
X100584000Y-148209000D02*
X100584000Y-150855500D01*
X93662500Y-149796500D02*
X95313500Y-149796500D01*
X92329000Y-149733000D02*
X92837000Y-149225000D01*
X95313500Y-149796500D02*
X95250000Y-149733000D01*
X97790000Y-147828000D02*
X99060000Y-147828000D01*
X93599000Y-149606000D02*
X93599000Y-149733000D01*
X107432001Y-134248999D02*
X107432001Y-131054001D01*
X93599000Y-149733000D02*
X93662500Y-149796500D01*
X92329000Y-151003000D02*
X92329000Y-149733000D01*
X90424000Y-152019000D02*
X90932000Y-151511000D01*
X97663000Y-147955000D02*
X97790000Y-147828000D01*
%TO.N,Net-(Q5-Pad1)*%
X91374000Y-150157000D02*
X90517002Y-150157000D01*
X90517002Y-150157000D02*
X90474002Y-150114000D01*
X93345000Y-146812000D02*
X95180000Y-146812000D01*
X95180000Y-146812000D02*
X95561000Y-147193000D01*
D73*
%TO.N,Net-(R20-Pad1)*%
X97512500Y-143533500D02*
X98298000Y-143533500D01*
X92583000Y-144653000D02*
X92075000Y-144145000D01*
X78232000Y-140716000D02*
X77978000Y-140462000D01*
X86741000Y-140716000D02*
X78232000Y-140716000D01*
X73533000Y-140208000D02*
X73175500Y-140208000D01*
X96393000Y-144653000D02*
X97512500Y-143533500D01*
X73175500Y-140208000D02*
X72390000Y-139422500D01*
X95561000Y-144653000D02*
X96393000Y-144653000D01*
X95561000Y-144653000D02*
X92583000Y-144653000D01*
D70*
%TO.N,NC_VALVE*%
X84201000Y-120396000D02*
X87631412Y-120396000D01*
X87631412Y-120396000D02*
X89408000Y-118619412D01*
X111723334Y-135580401D02*
X111723334Y-135396134D01*
X69238500Y-108458000D02*
X69238500Y-109624500D01*
X120599200Y-137566400D02*
X120599200Y-137769600D01*
X126819011Y-132030978D02*
X124970816Y-132030978D01*
X127746599Y-130890999D02*
X127289399Y-131348199D01*
X111723334Y-135396134D02*
X108242100Y-131914900D01*
X108242100Y-131914900D02*
X108242100Y-129197100D01*
X102257256Y-122523558D02*
X100516556Y-122523558D01*
X125837000Y-123703400D02*
X126339600Y-124206000D01*
X113792000Y-137649067D02*
X111723334Y-135580401D01*
X127289399Y-131348199D02*
X127289399Y-131560590D01*
X69238500Y-109624500D02*
X69596000Y-109982000D01*
X126923800Y-124333000D02*
X127746599Y-125170075D01*
X113792000Y-138176000D02*
X113792000Y-137649067D01*
X127746599Y-125170075D02*
X127746599Y-130890999D01*
X125837000Y-119642500D02*
X125837000Y-123703400D01*
X89408000Y-118619412D02*
X89408000Y-118618000D01*
X126339600Y-124206000D02*
X126923800Y-124333000D01*
X127289399Y-131560590D02*
X126819011Y-132030978D01*
X95654010Y-122114988D02*
X93989990Y-123779008D01*
X93989990Y-123779008D02*
X93989990Y-123990799D01*
X100516556Y-122523558D02*
X100107986Y-122114988D01*
X100107986Y-122114988D02*
X95654010Y-122114988D01*
X122428000Y-135737600D02*
X120599200Y-137566400D01*
%TO.N,NO_VALVE*%
X131044368Y-121063580D02*
X131716188Y-121735400D01*
X98344001Y-122564999D02*
X99350002Y-123571000D01*
X74295000Y-115316000D02*
X75946000Y-116967000D01*
X111368805Y-128806836D02*
X111607368Y-129045399D01*
X129706582Y-121063580D02*
X131044368Y-121063580D01*
X76731500Y-108458000D02*
X76731500Y-109861280D01*
X73025000Y-112014000D02*
X73025000Y-112649000D01*
X80330051Y-118049051D02*
X88204051Y-118049051D01*
X73025000Y-112649000D02*
X73025000Y-114046000D01*
X96129001Y-122564999D02*
X98344001Y-122564999D01*
X128024500Y-118955000D02*
X128024500Y-119381498D01*
X79375000Y-117094000D02*
X80330051Y-118049051D01*
X99350002Y-123571000D02*
X104140000Y-123571000D01*
X76731500Y-109861280D02*
X75467780Y-111125000D01*
X75946000Y-116967000D02*
X76835000Y-116967000D01*
X75467780Y-111125000D02*
X73914000Y-111125000D01*
X131716188Y-122389751D02*
X131923294Y-122596857D01*
X73914000Y-111125000D02*
X73025000Y-112014000D01*
X131716188Y-121735400D02*
X131716188Y-122389751D01*
X128024500Y-119381498D02*
X129706582Y-121063580D01*
X88204051Y-118049051D02*
X88267551Y-117985551D01*
X95123000Y-123571000D02*
X96129001Y-122564999D01*
X111607368Y-129045399D02*
X111607368Y-131978400D01*
X73025000Y-114046000D02*
X74295000Y-115316000D01*
%TO.N,3_WAY_VALVE*%
X122837000Y-112767500D02*
X122837000Y-111915000D01*
X85725000Y-106957500D02*
X84224500Y-108458000D01*
X122837000Y-111915000D02*
X122301000Y-111379000D01*
X85725000Y-105410000D02*
X85725000Y-106957500D01*
D73*
%TO.N,MOTOR_PWM*%
X84836000Y-109728000D02*
X87884000Y-109728000D01*
X83566000Y-109220000D02*
X84074000Y-109728000D01*
X84074000Y-109728000D02*
X84836000Y-109728000D01*
X83336980Y-108990980D02*
X83566000Y-109220000D01*
X106680000Y-112014000D02*
X107696000Y-113030000D01*
D70*
X123337000Y-112767500D02*
X123337000Y-111145966D01*
D73*
X83336980Y-106355390D02*
X83336980Y-108990980D01*
X105410000Y-112014000D02*
X106680000Y-112014000D01*
D70*
X107696000Y-113030000D02*
X110363000Y-113030000D01*
D73*
X80899000Y-104798500D02*
X81780090Y-104798500D01*
D70*
X123337000Y-111145966D02*
X122936013Y-110744979D01*
D73*
X81780090Y-104798500D02*
X83336980Y-106355390D01*
X88392000Y-110236000D02*
X88392000Y-110744000D01*
X88392000Y-112268000D02*
X89916000Y-113792000D01*
X88392000Y-110744000D02*
X88392000Y-112268000D01*
D70*
X112266968Y-111126032D02*
X112467981Y-111126032D01*
D73*
X87884000Y-109728000D02*
X88392000Y-110236000D01*
D70*
X110363000Y-113030000D02*
X112266968Y-111126032D01*
%TO.N,Net-(R26-Pad1)*%
X124460000Y-125960500D02*
X125085911Y-126586411D01*
X126054911Y-126586411D02*
X126492000Y-127023500D01*
X125085911Y-126586411D02*
X126054911Y-126586411D01*
X126492000Y-129008500D02*
X126492000Y-127023500D01*
%TO.N,BOOT1*%
X126492000Y-125706012D02*
X127292020Y-126506032D01*
X124866400Y-131216400D02*
X124333000Y-131749800D01*
X104902000Y-137033000D02*
X104911597Y-136661597D01*
X127292020Y-126506032D02*
X127292020Y-129491504D01*
X125025989Y-124629200D02*
X125025989Y-125052800D01*
X126492000Y-125198500D02*
X126492000Y-125706012D01*
X124866400Y-131191000D02*
X124866400Y-131216400D01*
X125289600Y-125316411D02*
X126374089Y-125316411D01*
X123698000Y-136347200D02*
X123088400Y-136347200D01*
X125337000Y-120003000D02*
X125349000Y-120015000D01*
X124333000Y-133273800D02*
X124739400Y-133680200D01*
X127292020Y-129491504D02*
X126837124Y-129946400D01*
X124333000Y-136347200D02*
X123698000Y-136347200D01*
X125577600Y-129946400D02*
X124866400Y-130657600D01*
X125069600Y-135610600D02*
X124333000Y-136347200D01*
X125349000Y-120015000D02*
X125349000Y-120182522D01*
X126837124Y-129946400D02*
X125577600Y-129946400D01*
X125337000Y-119642500D02*
X125337000Y-120003000D01*
X106807000Y-136956800D02*
X108375167Y-138524967D01*
X123088400Y-136347200D02*
X122250200Y-137185400D01*
X122250200Y-137185400D02*
X121894600Y-137541000D01*
X126374089Y-125316411D02*
X126492000Y-125198500D01*
X125025989Y-125052800D02*
X125289600Y-125316411D01*
X108375167Y-138524967D02*
X108375167Y-138863331D01*
X124866400Y-130657600D02*
X124866400Y-131191000D01*
X124333000Y-131749800D02*
X124333000Y-133273800D01*
X104911597Y-136661597D02*
X103632000Y-135382000D01*
X121894600Y-137541000D02*
X121894600Y-137668000D01*
X125337000Y-119642500D02*
X125337000Y-124318189D01*
X125337000Y-124318189D02*
X125025989Y-124629200D01*
D72*
%TO.N,GNDA*%
X119700878Y-116955000D02*
X119127591Y-117528287D01*
X120749022Y-121054399D02*
X120749022Y-121614522D01*
X121149500Y-116955000D02*
X119700878Y-116955000D01*
X121158000Y-121769500D02*
X121158000Y-121463377D01*
X119127591Y-117528287D02*
X118327960Y-117528287D01*
X120749022Y-121614522D02*
X120904000Y-121769500D01*
D73*
%TO.N,Net-(J12-PadS1)*%
X104068000Y-151860500D02*
X104140000Y-151788500D01*
X93724000Y-151860500D02*
X93724000Y-156040500D01*
X93724000Y-156040500D02*
X102364000Y-156040500D01*
X102364000Y-156040500D02*
X102364000Y-151860500D01*
X102364000Y-151860500D02*
X104068000Y-151860500D01*
D70*
%TO.N,Net-(J12-PadB5)*%
X106426000Y-147066000D02*
X107188000Y-147828000D01*
X104751500Y-153035000D02*
X104140000Y-153646500D01*
X106426000Y-153035000D02*
X104751500Y-153035000D01*
X100711000Y-147066000D02*
X106426000Y-147066000D01*
X106934000Y-149987000D02*
X106934000Y-152527000D01*
X106934000Y-152527000D02*
X106426000Y-153035000D01*
X107188000Y-147828000D02*
X107188000Y-149733000D01*
X99794000Y-147983000D02*
X100711000Y-147066000D01*
X99794000Y-150945500D02*
X99794000Y-147983000D01*
X107188000Y-149733000D02*
X106934000Y-149987000D01*
D73*
%TO.N,DP*%
X98298000Y-148740500D02*
X98298000Y-148971000D01*
D70*
X98794000Y-149236500D02*
X98298000Y-148740500D01*
X97794000Y-149244500D02*
X98298000Y-148740500D01*
X98794000Y-150945500D02*
X98794000Y-149236500D01*
X97794000Y-150945500D02*
X97794000Y-149244500D01*
%TO.N,DN*%
X97788480Y-152400000D02*
X97318989Y-151930509D01*
X97318989Y-151930509D02*
X97318989Y-150970489D01*
X96162500Y-148971000D02*
X96520000Y-148971000D01*
X98294000Y-150945500D02*
X98294000Y-152023000D01*
X96520000Y-148971000D02*
X97294000Y-149745000D01*
X97917000Y-152400000D02*
X97788480Y-152400000D01*
X97294000Y-149745000D02*
X97294000Y-150945500D01*
X98294000Y-152023000D02*
X97917000Y-152400000D01*
X97318989Y-150970489D02*
X97294000Y-150945500D01*
%TO.N,Net-(J12-PadA5)*%
X96794000Y-150945500D02*
X96794000Y-152104093D01*
X91821000Y-153162000D02*
X92329000Y-152654000D01*
X91821000Y-154154500D02*
X91821000Y-153162000D01*
X96794000Y-152104093D02*
X96737765Y-152160328D01*
%TD*%
M02*
