%TF.GenerationSoftware,KiCad,Pcbnew,(5.1.8-0-10_14)*%
%TF.CreationDate,2020-12-22T15:13:40+01:00*%
%TF.ProjectId,sucker-one-mainboard,7375636b-6572-42d6-9f6e-652d6d61696e,rev?*%
%TF.SameCoordinates,Original*%
%TF.FileFunction,Legend,Bot*%
%TF.FilePolarity,Positive*%
%FSLAX46Y46*%
G04 Gerber Fmt 4.6, Leading zero omitted, Abs format (unit mm)*
G04 Created by KiCad (PCBNEW (5.1.8-0-10_14)) date 2020-12-22 15:13:40*
%MOMM*%
%LPD*%
G01*
G04 APERTURE LIST*
%ADD10C,0.120000*%
%ADD11C,0.127000*%
%ADD12C,0.150000*%
%ADD13C,0.015000*%
G04 APERTURE END LIST*
D10*
%TO.C,TP1*%
X94164000Y-110744000D02*
G75*
G03*
X94164000Y-110744000I-1200000J0D01*
G01*
%TO.C,TP2*%
X91116000Y-110744000D02*
G75*
G03*
X91116000Y-110744000I-1200000J0D01*
G01*
%TO.C,TP3*%
X113468000Y-110744000D02*
G75*
G03*
X113468000Y-110744000I-1200000J0D01*
G01*
%TO.C,TP4*%
X117024000Y-110744000D02*
G75*
G03*
X117024000Y-110744000I-1200000J0D01*
G01*
%TO.C,TP5*%
X128200000Y-104140000D02*
G75*
G03*
X128200000Y-104140000I-1200000J0D01*
G01*
%TO.C,TP6*%
X122612000Y-110744000D02*
G75*
G03*
X122612000Y-110744000I-1200000J0D01*
G01*
%TO.C,TP7*%
X126168000Y-110744000D02*
G75*
G03*
X126168000Y-110744000I-1200000J0D01*
G01*
%TO.C,TP8*%
X104832000Y-110744000D02*
G75*
G03*
X104832000Y-110744000I-1200000J0D01*
G01*
%TO.C,TP9*%
X108388000Y-110744000D02*
G75*
G03*
X108388000Y-110744000I-1200000J0D01*
G01*
%TO.C,TP10*%
X94672000Y-106680000D02*
G75*
G03*
X94672000Y-106680000I-1200000J0D01*
G01*
%TO.C,TP11*%
X100768000Y-106680000D02*
G75*
G03*
X100768000Y-106680000I-1200000J0D01*
G01*
%TO.C,TP12*%
X97720000Y-106680000D02*
G75*
G03*
X97720000Y-106680000I-1200000J0D01*
G01*
%TO.C,TP13*%
X100768000Y-109728000D02*
G75*
G03*
X100768000Y-109728000I-1200000J0D01*
G01*
%TO.C,TP14*%
X101276000Y-66040000D02*
G75*
G03*
X101276000Y-66040000I-1200000J0D01*
G01*
%TO.C,TP15*%
X101276000Y-69088000D02*
G75*
G03*
X101276000Y-69088000I-1200000J0D01*
G01*
%TO.C,TP16*%
X81464000Y-56896000D02*
G75*
G03*
X81464000Y-56896000I-1200000J0D01*
G01*
%TO.C,TP17*%
X70796000Y-86868000D02*
G75*
G03*
X70796000Y-86868000I-1200000J0D01*
G01*
%TO.C,TP18*%
X74352000Y-86868000D02*
G75*
G03*
X74352000Y-86868000I-1200000J0D01*
G01*
%TO.C,TP19*%
X84512000Y-56896000D02*
G75*
G03*
X84512000Y-56896000I-1200000J0D01*
G01*
%TO.C,TP22*%
X95688000Y-56896000D02*
G75*
G03*
X95688000Y-56896000I-1200000J0D01*
G01*
%TO.C,TP23*%
X92640000Y-56896000D02*
G75*
G03*
X92640000Y-56896000I-1200000J0D01*
G01*
%TO.C,TP24*%
X89592000Y-56896000D02*
G75*
G03*
X89592000Y-56896000I-1200000J0D01*
G01*
%TO.C,TP25*%
X100260000Y-56896000D02*
G75*
G03*
X100260000Y-56896000I-1200000J0D01*
G01*
%TO.C,TP26*%
X103308000Y-56896000D02*
G75*
G03*
X103308000Y-56896000I-1200000J0D01*
G01*
%TO.C,TP27*%
X106356000Y-56896000D02*
G75*
G03*
X106356000Y-56896000I-1200000J0D01*
G01*
%TO.C,TP28*%
X109404000Y-56896000D02*
G75*
G03*
X109404000Y-56896000I-1200000J0D01*
G01*
%TO.C,TP29*%
X76384000Y-55880000D02*
G75*
G03*
X76384000Y-55880000I-1200000J0D01*
G01*
%TO.C,TP30*%
X77908000Y-52832000D02*
G75*
G03*
X77908000Y-52832000I-1200000J0D01*
G01*
%TO.C,TP31*%
X81972000Y-86868000D02*
G75*
G03*
X81972000Y-86868000I-1200000J0D01*
G01*
%TO.C,TP32*%
X99244000Y-76708000D02*
G75*
G03*
X99244000Y-76708000I-1200000J0D01*
G01*
D11*
%TO.C,U4*%
X110401000Y-83285000D02*
X110876000Y-83285000D01*
X110401000Y-89435000D02*
X110401000Y-83285000D01*
X110876000Y-89435000D02*
X110401000Y-89435000D01*
X115151000Y-83285000D02*
X114676000Y-83285000D01*
X115151000Y-89435000D02*
X115151000Y-83285000D01*
X114676000Y-89435000D02*
X115151000Y-89435000D01*
%TO.C,TP1*%
D12*
X94225904Y-112194380D02*
X93654476Y-112194380D01*
X93940190Y-113194380D02*
X93940190Y-112194380D01*
X93321142Y-113194380D02*
X93321142Y-112194380D01*
X92940190Y-112194380D01*
X92844952Y-112242000D01*
X92797333Y-112289619D01*
X92749714Y-112384857D01*
X92749714Y-112527714D01*
X92797333Y-112622952D01*
X92844952Y-112670571D01*
X92940190Y-112718190D01*
X93321142Y-112718190D01*
X91797333Y-113194380D02*
X92368761Y-113194380D01*
X92083047Y-113194380D02*
X92083047Y-112194380D01*
X92178285Y-112337238D01*
X92273523Y-112432476D01*
X92368761Y-112480095D01*
%TO.C,TP2*%
X91177904Y-112194380D02*
X90606476Y-112194380D01*
X90892190Y-113194380D02*
X90892190Y-112194380D01*
X90273142Y-113194380D02*
X90273142Y-112194380D01*
X89892190Y-112194380D01*
X89796952Y-112242000D01*
X89749333Y-112289619D01*
X89701714Y-112384857D01*
X89701714Y-112527714D01*
X89749333Y-112622952D01*
X89796952Y-112670571D01*
X89892190Y-112718190D01*
X90273142Y-112718190D01*
X89320761Y-112289619D02*
X89273142Y-112242000D01*
X89177904Y-112194380D01*
X88939809Y-112194380D01*
X88844571Y-112242000D01*
X88796952Y-112289619D01*
X88749333Y-112384857D01*
X88749333Y-112480095D01*
X88796952Y-112622952D01*
X89368380Y-113194380D01*
X88749333Y-113194380D01*
%TO.C,TP3*%
X113529904Y-112194380D02*
X112958476Y-112194380D01*
X113244190Y-113194380D02*
X113244190Y-112194380D01*
X112625142Y-113194380D02*
X112625142Y-112194380D01*
X112244190Y-112194380D01*
X112148952Y-112242000D01*
X112101333Y-112289619D01*
X112053714Y-112384857D01*
X112053714Y-112527714D01*
X112101333Y-112622952D01*
X112148952Y-112670571D01*
X112244190Y-112718190D01*
X112625142Y-112718190D01*
X111720380Y-112194380D02*
X111101333Y-112194380D01*
X111434666Y-112575333D01*
X111291809Y-112575333D01*
X111196571Y-112622952D01*
X111148952Y-112670571D01*
X111101333Y-112765809D01*
X111101333Y-113003904D01*
X111148952Y-113099142D01*
X111196571Y-113146761D01*
X111291809Y-113194380D01*
X111577523Y-113194380D01*
X111672761Y-113146761D01*
X111720380Y-113099142D01*
%TO.C,TP4*%
X117085904Y-112194380D02*
X116514476Y-112194380D01*
X116800190Y-113194380D02*
X116800190Y-112194380D01*
X116181142Y-113194380D02*
X116181142Y-112194380D01*
X115800190Y-112194380D01*
X115704952Y-112242000D01*
X115657333Y-112289619D01*
X115609714Y-112384857D01*
X115609714Y-112527714D01*
X115657333Y-112622952D01*
X115704952Y-112670571D01*
X115800190Y-112718190D01*
X116181142Y-112718190D01*
X114752571Y-112527714D02*
X114752571Y-113194380D01*
X114990666Y-112146761D02*
X115228761Y-112861047D01*
X114609714Y-112861047D01*
%TO.C,TP5*%
X128261904Y-105590380D02*
X127690476Y-105590380D01*
X127976190Y-106590380D02*
X127976190Y-105590380D01*
X127357142Y-106590380D02*
X127357142Y-105590380D01*
X126976190Y-105590380D01*
X126880952Y-105638000D01*
X126833333Y-105685619D01*
X126785714Y-105780857D01*
X126785714Y-105923714D01*
X126833333Y-106018952D01*
X126880952Y-106066571D01*
X126976190Y-106114190D01*
X127357142Y-106114190D01*
X125880952Y-105590380D02*
X126357142Y-105590380D01*
X126404761Y-106066571D01*
X126357142Y-106018952D01*
X126261904Y-105971333D01*
X126023809Y-105971333D01*
X125928571Y-106018952D01*
X125880952Y-106066571D01*
X125833333Y-106161809D01*
X125833333Y-106399904D01*
X125880952Y-106495142D01*
X125928571Y-106542761D01*
X126023809Y-106590380D01*
X126261904Y-106590380D01*
X126357142Y-106542761D01*
X126404761Y-106495142D01*
%TO.C,TP6*%
X122673904Y-112194380D02*
X122102476Y-112194380D01*
X122388190Y-113194380D02*
X122388190Y-112194380D01*
X121769142Y-113194380D02*
X121769142Y-112194380D01*
X121388190Y-112194380D01*
X121292952Y-112242000D01*
X121245333Y-112289619D01*
X121197714Y-112384857D01*
X121197714Y-112527714D01*
X121245333Y-112622952D01*
X121292952Y-112670571D01*
X121388190Y-112718190D01*
X121769142Y-112718190D01*
X120340571Y-112194380D02*
X120531047Y-112194380D01*
X120626285Y-112242000D01*
X120673904Y-112289619D01*
X120769142Y-112432476D01*
X120816761Y-112622952D01*
X120816761Y-113003904D01*
X120769142Y-113099142D01*
X120721523Y-113146761D01*
X120626285Y-113194380D01*
X120435809Y-113194380D01*
X120340571Y-113146761D01*
X120292952Y-113099142D01*
X120245333Y-113003904D01*
X120245333Y-112765809D01*
X120292952Y-112670571D01*
X120340571Y-112622952D01*
X120435809Y-112575333D01*
X120626285Y-112575333D01*
X120721523Y-112622952D01*
X120769142Y-112670571D01*
X120816761Y-112765809D01*
%TO.C,TP7*%
X126229904Y-112194380D02*
X125658476Y-112194380D01*
X125944190Y-113194380D02*
X125944190Y-112194380D01*
X125325142Y-113194380D02*
X125325142Y-112194380D01*
X124944190Y-112194380D01*
X124848952Y-112242000D01*
X124801333Y-112289619D01*
X124753714Y-112384857D01*
X124753714Y-112527714D01*
X124801333Y-112622952D01*
X124848952Y-112670571D01*
X124944190Y-112718190D01*
X125325142Y-112718190D01*
X124420380Y-112194380D02*
X123753714Y-112194380D01*
X124182285Y-113194380D01*
%TO.C,TP8*%
X104893904Y-112194380D02*
X104322476Y-112194380D01*
X104608190Y-113194380D02*
X104608190Y-112194380D01*
X103989142Y-113194380D02*
X103989142Y-112194380D01*
X103608190Y-112194380D01*
X103512952Y-112242000D01*
X103465333Y-112289619D01*
X103417714Y-112384857D01*
X103417714Y-112527714D01*
X103465333Y-112622952D01*
X103512952Y-112670571D01*
X103608190Y-112718190D01*
X103989142Y-112718190D01*
X102846285Y-112622952D02*
X102941523Y-112575333D01*
X102989142Y-112527714D01*
X103036761Y-112432476D01*
X103036761Y-112384857D01*
X102989142Y-112289619D01*
X102941523Y-112242000D01*
X102846285Y-112194380D01*
X102655809Y-112194380D01*
X102560571Y-112242000D01*
X102512952Y-112289619D01*
X102465333Y-112384857D01*
X102465333Y-112432476D01*
X102512952Y-112527714D01*
X102560571Y-112575333D01*
X102655809Y-112622952D01*
X102846285Y-112622952D01*
X102941523Y-112670571D01*
X102989142Y-112718190D01*
X103036761Y-112813428D01*
X103036761Y-113003904D01*
X102989142Y-113099142D01*
X102941523Y-113146761D01*
X102846285Y-113194380D01*
X102655809Y-113194380D01*
X102560571Y-113146761D01*
X102512952Y-113099142D01*
X102465333Y-113003904D01*
X102465333Y-112813428D01*
X102512952Y-112718190D01*
X102560571Y-112670571D01*
X102655809Y-112622952D01*
%TO.C,TP9*%
X108449904Y-112194380D02*
X107878476Y-112194380D01*
X108164190Y-113194380D02*
X108164190Y-112194380D01*
X107545142Y-113194380D02*
X107545142Y-112194380D01*
X107164190Y-112194380D01*
X107068952Y-112242000D01*
X107021333Y-112289619D01*
X106973714Y-112384857D01*
X106973714Y-112527714D01*
X107021333Y-112622952D01*
X107068952Y-112670571D01*
X107164190Y-112718190D01*
X107545142Y-112718190D01*
X106497523Y-113194380D02*
X106307047Y-113194380D01*
X106211809Y-113146761D01*
X106164190Y-113099142D01*
X106068952Y-112956285D01*
X106021333Y-112765809D01*
X106021333Y-112384857D01*
X106068952Y-112289619D01*
X106116571Y-112242000D01*
X106211809Y-112194380D01*
X106402285Y-112194380D01*
X106497523Y-112242000D01*
X106545142Y-112289619D01*
X106592761Y-112384857D01*
X106592761Y-112622952D01*
X106545142Y-112718190D01*
X106497523Y-112765809D01*
X106402285Y-112813428D01*
X106211809Y-112813428D01*
X106116571Y-112765809D01*
X106068952Y-112718190D01*
X106021333Y-112622952D01*
%TO.C,TP10*%
X95210095Y-108130380D02*
X94638666Y-108130380D01*
X94924380Y-109130380D02*
X94924380Y-108130380D01*
X94305333Y-109130380D02*
X94305333Y-108130380D01*
X93924380Y-108130380D01*
X93829142Y-108178000D01*
X93781523Y-108225619D01*
X93733904Y-108320857D01*
X93733904Y-108463714D01*
X93781523Y-108558952D01*
X93829142Y-108606571D01*
X93924380Y-108654190D01*
X94305333Y-108654190D01*
X92781523Y-109130380D02*
X93352952Y-109130380D01*
X93067238Y-109130380D02*
X93067238Y-108130380D01*
X93162476Y-108273238D01*
X93257714Y-108368476D01*
X93352952Y-108416095D01*
X92162476Y-108130380D02*
X92067238Y-108130380D01*
X91972000Y-108178000D01*
X91924380Y-108225619D01*
X91876761Y-108320857D01*
X91829142Y-108511333D01*
X91829142Y-108749428D01*
X91876761Y-108939904D01*
X91924380Y-109035142D01*
X91972000Y-109082761D01*
X92067238Y-109130380D01*
X92162476Y-109130380D01*
X92257714Y-109082761D01*
X92305333Y-109035142D01*
X92352952Y-108939904D01*
X92400571Y-108749428D01*
X92400571Y-108511333D01*
X92352952Y-108320857D01*
X92305333Y-108225619D01*
X92257714Y-108178000D01*
X92162476Y-108130380D01*
%TO.C,TP11*%
X101306095Y-108130380D02*
X100734666Y-108130380D01*
X101020380Y-109130380D02*
X101020380Y-108130380D01*
X100401333Y-109130380D02*
X100401333Y-108130380D01*
X100020380Y-108130380D01*
X99925142Y-108178000D01*
X99877523Y-108225619D01*
X99829904Y-108320857D01*
X99829904Y-108463714D01*
X99877523Y-108558952D01*
X99925142Y-108606571D01*
X100020380Y-108654190D01*
X100401333Y-108654190D01*
X98877523Y-109130380D02*
X99448952Y-109130380D01*
X99163238Y-109130380D02*
X99163238Y-108130380D01*
X99258476Y-108273238D01*
X99353714Y-108368476D01*
X99448952Y-108416095D01*
X97925142Y-109130380D02*
X98496571Y-109130380D01*
X98210857Y-109130380D02*
X98210857Y-108130380D01*
X98306095Y-108273238D01*
X98401333Y-108368476D01*
X98496571Y-108416095D01*
%TO.C,TP12*%
X98258095Y-108130380D02*
X97686666Y-108130380D01*
X97972380Y-109130380D02*
X97972380Y-108130380D01*
X97353333Y-109130380D02*
X97353333Y-108130380D01*
X96972380Y-108130380D01*
X96877142Y-108178000D01*
X96829523Y-108225619D01*
X96781904Y-108320857D01*
X96781904Y-108463714D01*
X96829523Y-108558952D01*
X96877142Y-108606571D01*
X96972380Y-108654190D01*
X97353333Y-108654190D01*
X95829523Y-109130380D02*
X96400952Y-109130380D01*
X96115238Y-109130380D02*
X96115238Y-108130380D01*
X96210476Y-108273238D01*
X96305714Y-108368476D01*
X96400952Y-108416095D01*
X95448571Y-108225619D02*
X95400952Y-108178000D01*
X95305714Y-108130380D01*
X95067619Y-108130380D01*
X94972380Y-108178000D01*
X94924761Y-108225619D01*
X94877142Y-108320857D01*
X94877142Y-108416095D01*
X94924761Y-108558952D01*
X95496190Y-109130380D01*
X94877142Y-109130380D01*
%TO.C,TP13*%
X101306095Y-111178380D02*
X100734666Y-111178380D01*
X101020380Y-112178380D02*
X101020380Y-111178380D01*
X100401333Y-112178380D02*
X100401333Y-111178380D01*
X100020380Y-111178380D01*
X99925142Y-111226000D01*
X99877523Y-111273619D01*
X99829904Y-111368857D01*
X99829904Y-111511714D01*
X99877523Y-111606952D01*
X99925142Y-111654571D01*
X100020380Y-111702190D01*
X100401333Y-111702190D01*
X98877523Y-112178380D02*
X99448952Y-112178380D01*
X99163238Y-112178380D02*
X99163238Y-111178380D01*
X99258476Y-111321238D01*
X99353714Y-111416476D01*
X99448952Y-111464095D01*
X98544190Y-111178380D02*
X97925142Y-111178380D01*
X98258476Y-111559333D01*
X98115619Y-111559333D01*
X98020380Y-111606952D01*
X97972761Y-111654571D01*
X97925142Y-111749809D01*
X97925142Y-111987904D01*
X97972761Y-112083142D01*
X98020380Y-112130761D01*
X98115619Y-112178380D01*
X98401333Y-112178380D01*
X98496571Y-112130761D01*
X98544190Y-112083142D01*
%TO.C,TP14*%
X101814095Y-67490380D02*
X101242666Y-67490380D01*
X101528380Y-68490380D02*
X101528380Y-67490380D01*
X100909333Y-68490380D02*
X100909333Y-67490380D01*
X100528380Y-67490380D01*
X100433142Y-67538000D01*
X100385523Y-67585619D01*
X100337904Y-67680857D01*
X100337904Y-67823714D01*
X100385523Y-67918952D01*
X100433142Y-67966571D01*
X100528380Y-68014190D01*
X100909333Y-68014190D01*
X99385523Y-68490380D02*
X99956952Y-68490380D01*
X99671238Y-68490380D02*
X99671238Y-67490380D01*
X99766476Y-67633238D01*
X99861714Y-67728476D01*
X99956952Y-67776095D01*
X98528380Y-67823714D02*
X98528380Y-68490380D01*
X98766476Y-67442761D02*
X99004571Y-68157047D01*
X98385523Y-68157047D01*
%TO.C,TP15*%
X101814095Y-70538380D02*
X101242666Y-70538380D01*
X101528380Y-71538380D02*
X101528380Y-70538380D01*
X100909333Y-71538380D02*
X100909333Y-70538380D01*
X100528380Y-70538380D01*
X100433142Y-70586000D01*
X100385523Y-70633619D01*
X100337904Y-70728857D01*
X100337904Y-70871714D01*
X100385523Y-70966952D01*
X100433142Y-71014571D01*
X100528380Y-71062190D01*
X100909333Y-71062190D01*
X99385523Y-71538380D02*
X99956952Y-71538380D01*
X99671238Y-71538380D02*
X99671238Y-70538380D01*
X99766476Y-70681238D01*
X99861714Y-70776476D01*
X99956952Y-70824095D01*
X98480761Y-70538380D02*
X98956952Y-70538380D01*
X99004571Y-71014571D01*
X98956952Y-70966952D01*
X98861714Y-70919333D01*
X98623619Y-70919333D01*
X98528380Y-70966952D01*
X98480761Y-71014571D01*
X98433142Y-71109809D01*
X98433142Y-71347904D01*
X98480761Y-71443142D01*
X98528380Y-71490761D01*
X98623619Y-71538380D01*
X98861714Y-71538380D01*
X98956952Y-71490761D01*
X99004571Y-71443142D01*
%TO.C,TP16*%
X82002095Y-58346380D02*
X81430666Y-58346380D01*
X81716380Y-59346380D02*
X81716380Y-58346380D01*
X81097333Y-59346380D02*
X81097333Y-58346380D01*
X80716380Y-58346380D01*
X80621142Y-58394000D01*
X80573523Y-58441619D01*
X80525904Y-58536857D01*
X80525904Y-58679714D01*
X80573523Y-58774952D01*
X80621142Y-58822571D01*
X80716380Y-58870190D01*
X81097333Y-58870190D01*
X79573523Y-59346380D02*
X80144952Y-59346380D01*
X79859238Y-59346380D02*
X79859238Y-58346380D01*
X79954476Y-58489238D01*
X80049714Y-58584476D01*
X80144952Y-58632095D01*
X78716380Y-58346380D02*
X78906857Y-58346380D01*
X79002095Y-58394000D01*
X79049714Y-58441619D01*
X79144952Y-58584476D01*
X79192571Y-58774952D01*
X79192571Y-59155904D01*
X79144952Y-59251142D01*
X79097333Y-59298761D01*
X79002095Y-59346380D01*
X78811619Y-59346380D01*
X78716380Y-59298761D01*
X78668761Y-59251142D01*
X78621142Y-59155904D01*
X78621142Y-58917809D01*
X78668761Y-58822571D01*
X78716380Y-58774952D01*
X78811619Y-58727333D01*
X79002095Y-58727333D01*
X79097333Y-58774952D01*
X79144952Y-58822571D01*
X79192571Y-58917809D01*
%TO.C,TP17*%
X71334095Y-88318380D02*
X70762666Y-88318380D01*
X71048380Y-89318380D02*
X71048380Y-88318380D01*
X70429333Y-89318380D02*
X70429333Y-88318380D01*
X70048380Y-88318380D01*
X69953142Y-88366000D01*
X69905523Y-88413619D01*
X69857904Y-88508857D01*
X69857904Y-88651714D01*
X69905523Y-88746952D01*
X69953142Y-88794571D01*
X70048380Y-88842190D01*
X70429333Y-88842190D01*
X68905523Y-89318380D02*
X69476952Y-89318380D01*
X69191238Y-89318380D02*
X69191238Y-88318380D01*
X69286476Y-88461238D01*
X69381714Y-88556476D01*
X69476952Y-88604095D01*
X68572190Y-88318380D02*
X67905523Y-88318380D01*
X68334095Y-89318380D01*
%TO.C,TP18*%
X74890095Y-88318380D02*
X74318666Y-88318380D01*
X74604380Y-89318380D02*
X74604380Y-88318380D01*
X73985333Y-89318380D02*
X73985333Y-88318380D01*
X73604380Y-88318380D01*
X73509142Y-88366000D01*
X73461523Y-88413619D01*
X73413904Y-88508857D01*
X73413904Y-88651714D01*
X73461523Y-88746952D01*
X73509142Y-88794571D01*
X73604380Y-88842190D01*
X73985333Y-88842190D01*
X72461523Y-89318380D02*
X73032952Y-89318380D01*
X72747238Y-89318380D02*
X72747238Y-88318380D01*
X72842476Y-88461238D01*
X72937714Y-88556476D01*
X73032952Y-88604095D01*
X71890095Y-88746952D02*
X71985333Y-88699333D01*
X72032952Y-88651714D01*
X72080571Y-88556476D01*
X72080571Y-88508857D01*
X72032952Y-88413619D01*
X71985333Y-88366000D01*
X71890095Y-88318380D01*
X71699619Y-88318380D01*
X71604380Y-88366000D01*
X71556761Y-88413619D01*
X71509142Y-88508857D01*
X71509142Y-88556476D01*
X71556761Y-88651714D01*
X71604380Y-88699333D01*
X71699619Y-88746952D01*
X71890095Y-88746952D01*
X71985333Y-88794571D01*
X72032952Y-88842190D01*
X72080571Y-88937428D01*
X72080571Y-89127904D01*
X72032952Y-89223142D01*
X71985333Y-89270761D01*
X71890095Y-89318380D01*
X71699619Y-89318380D01*
X71604380Y-89270761D01*
X71556761Y-89223142D01*
X71509142Y-89127904D01*
X71509142Y-88937428D01*
X71556761Y-88842190D01*
X71604380Y-88794571D01*
X71699619Y-88746952D01*
%TO.C,TP19*%
X85050095Y-58346380D02*
X84478666Y-58346380D01*
X84764380Y-59346380D02*
X84764380Y-58346380D01*
X84145333Y-59346380D02*
X84145333Y-58346380D01*
X83764380Y-58346380D01*
X83669142Y-58394000D01*
X83621523Y-58441619D01*
X83573904Y-58536857D01*
X83573904Y-58679714D01*
X83621523Y-58774952D01*
X83669142Y-58822571D01*
X83764380Y-58870190D01*
X84145333Y-58870190D01*
X82621523Y-59346380D02*
X83192952Y-59346380D01*
X82907238Y-59346380D02*
X82907238Y-58346380D01*
X83002476Y-58489238D01*
X83097714Y-58584476D01*
X83192952Y-58632095D01*
X82145333Y-59346380D02*
X81954857Y-59346380D01*
X81859619Y-59298761D01*
X81812000Y-59251142D01*
X81716761Y-59108285D01*
X81669142Y-58917809D01*
X81669142Y-58536857D01*
X81716761Y-58441619D01*
X81764380Y-58394000D01*
X81859619Y-58346380D01*
X82050095Y-58346380D01*
X82145333Y-58394000D01*
X82192952Y-58441619D01*
X82240571Y-58536857D01*
X82240571Y-58774952D01*
X82192952Y-58870190D01*
X82145333Y-58917809D01*
X82050095Y-58965428D01*
X81859619Y-58965428D01*
X81764380Y-58917809D01*
X81716761Y-58870190D01*
X81669142Y-58774952D01*
%TO.C,TP22*%
X96226095Y-58346380D02*
X95654666Y-58346380D01*
X95940380Y-59346380D02*
X95940380Y-58346380D01*
X95321333Y-59346380D02*
X95321333Y-58346380D01*
X94940380Y-58346380D01*
X94845142Y-58394000D01*
X94797523Y-58441619D01*
X94749904Y-58536857D01*
X94749904Y-58679714D01*
X94797523Y-58774952D01*
X94845142Y-58822571D01*
X94940380Y-58870190D01*
X95321333Y-58870190D01*
X94368952Y-58441619D02*
X94321333Y-58394000D01*
X94226095Y-58346380D01*
X93988000Y-58346380D01*
X93892761Y-58394000D01*
X93845142Y-58441619D01*
X93797523Y-58536857D01*
X93797523Y-58632095D01*
X93845142Y-58774952D01*
X94416571Y-59346380D01*
X93797523Y-59346380D01*
X93416571Y-58441619D02*
X93368952Y-58394000D01*
X93273714Y-58346380D01*
X93035619Y-58346380D01*
X92940380Y-58394000D01*
X92892761Y-58441619D01*
X92845142Y-58536857D01*
X92845142Y-58632095D01*
X92892761Y-58774952D01*
X93464190Y-59346380D01*
X92845142Y-59346380D01*
%TO.C,TP23*%
X93178095Y-58346380D02*
X92606666Y-58346380D01*
X92892380Y-59346380D02*
X92892380Y-58346380D01*
X92273333Y-59346380D02*
X92273333Y-58346380D01*
X91892380Y-58346380D01*
X91797142Y-58394000D01*
X91749523Y-58441619D01*
X91701904Y-58536857D01*
X91701904Y-58679714D01*
X91749523Y-58774952D01*
X91797142Y-58822571D01*
X91892380Y-58870190D01*
X92273333Y-58870190D01*
X91320952Y-58441619D02*
X91273333Y-58394000D01*
X91178095Y-58346380D01*
X90940000Y-58346380D01*
X90844761Y-58394000D01*
X90797142Y-58441619D01*
X90749523Y-58536857D01*
X90749523Y-58632095D01*
X90797142Y-58774952D01*
X91368571Y-59346380D01*
X90749523Y-59346380D01*
X90416190Y-58346380D02*
X89797142Y-58346380D01*
X90130476Y-58727333D01*
X89987619Y-58727333D01*
X89892380Y-58774952D01*
X89844761Y-58822571D01*
X89797142Y-58917809D01*
X89797142Y-59155904D01*
X89844761Y-59251142D01*
X89892380Y-59298761D01*
X89987619Y-59346380D01*
X90273333Y-59346380D01*
X90368571Y-59298761D01*
X90416190Y-59251142D01*
%TO.C,TP24*%
X90130095Y-58346380D02*
X89558666Y-58346380D01*
X89844380Y-59346380D02*
X89844380Y-58346380D01*
X89225333Y-59346380D02*
X89225333Y-58346380D01*
X88844380Y-58346380D01*
X88749142Y-58394000D01*
X88701523Y-58441619D01*
X88653904Y-58536857D01*
X88653904Y-58679714D01*
X88701523Y-58774952D01*
X88749142Y-58822571D01*
X88844380Y-58870190D01*
X89225333Y-58870190D01*
X88272952Y-58441619D02*
X88225333Y-58394000D01*
X88130095Y-58346380D01*
X87892000Y-58346380D01*
X87796761Y-58394000D01*
X87749142Y-58441619D01*
X87701523Y-58536857D01*
X87701523Y-58632095D01*
X87749142Y-58774952D01*
X88320571Y-59346380D01*
X87701523Y-59346380D01*
X86844380Y-58679714D02*
X86844380Y-59346380D01*
X87082476Y-58298761D02*
X87320571Y-59013047D01*
X86701523Y-59013047D01*
%TO.C,TP25*%
X100798095Y-58346380D02*
X100226666Y-58346380D01*
X100512380Y-59346380D02*
X100512380Y-58346380D01*
X99893333Y-59346380D02*
X99893333Y-58346380D01*
X99512380Y-58346380D01*
X99417142Y-58394000D01*
X99369523Y-58441619D01*
X99321904Y-58536857D01*
X99321904Y-58679714D01*
X99369523Y-58774952D01*
X99417142Y-58822571D01*
X99512380Y-58870190D01*
X99893333Y-58870190D01*
X98940952Y-58441619D02*
X98893333Y-58394000D01*
X98798095Y-58346380D01*
X98560000Y-58346380D01*
X98464761Y-58394000D01*
X98417142Y-58441619D01*
X98369523Y-58536857D01*
X98369523Y-58632095D01*
X98417142Y-58774952D01*
X98988571Y-59346380D01*
X98369523Y-59346380D01*
X97464761Y-58346380D02*
X97940952Y-58346380D01*
X97988571Y-58822571D01*
X97940952Y-58774952D01*
X97845714Y-58727333D01*
X97607619Y-58727333D01*
X97512380Y-58774952D01*
X97464761Y-58822571D01*
X97417142Y-58917809D01*
X97417142Y-59155904D01*
X97464761Y-59251142D01*
X97512380Y-59298761D01*
X97607619Y-59346380D01*
X97845714Y-59346380D01*
X97940952Y-59298761D01*
X97988571Y-59251142D01*
%TO.C,TP26*%
X103846095Y-58346380D02*
X103274666Y-58346380D01*
X103560380Y-59346380D02*
X103560380Y-58346380D01*
X102941333Y-59346380D02*
X102941333Y-58346380D01*
X102560380Y-58346380D01*
X102465142Y-58394000D01*
X102417523Y-58441619D01*
X102369904Y-58536857D01*
X102369904Y-58679714D01*
X102417523Y-58774952D01*
X102465142Y-58822571D01*
X102560380Y-58870190D01*
X102941333Y-58870190D01*
X101988952Y-58441619D02*
X101941333Y-58394000D01*
X101846095Y-58346380D01*
X101608000Y-58346380D01*
X101512761Y-58394000D01*
X101465142Y-58441619D01*
X101417523Y-58536857D01*
X101417523Y-58632095D01*
X101465142Y-58774952D01*
X102036571Y-59346380D01*
X101417523Y-59346380D01*
X100560380Y-58346380D02*
X100750857Y-58346380D01*
X100846095Y-58394000D01*
X100893714Y-58441619D01*
X100988952Y-58584476D01*
X101036571Y-58774952D01*
X101036571Y-59155904D01*
X100988952Y-59251142D01*
X100941333Y-59298761D01*
X100846095Y-59346380D01*
X100655619Y-59346380D01*
X100560380Y-59298761D01*
X100512761Y-59251142D01*
X100465142Y-59155904D01*
X100465142Y-58917809D01*
X100512761Y-58822571D01*
X100560380Y-58774952D01*
X100655619Y-58727333D01*
X100846095Y-58727333D01*
X100941333Y-58774952D01*
X100988952Y-58822571D01*
X101036571Y-58917809D01*
%TO.C,TP27*%
X106894095Y-58346380D02*
X106322666Y-58346380D01*
X106608380Y-59346380D02*
X106608380Y-58346380D01*
X105989333Y-59346380D02*
X105989333Y-58346380D01*
X105608380Y-58346380D01*
X105513142Y-58394000D01*
X105465523Y-58441619D01*
X105417904Y-58536857D01*
X105417904Y-58679714D01*
X105465523Y-58774952D01*
X105513142Y-58822571D01*
X105608380Y-58870190D01*
X105989333Y-58870190D01*
X105036952Y-58441619D02*
X104989333Y-58394000D01*
X104894095Y-58346380D01*
X104656000Y-58346380D01*
X104560761Y-58394000D01*
X104513142Y-58441619D01*
X104465523Y-58536857D01*
X104465523Y-58632095D01*
X104513142Y-58774952D01*
X105084571Y-59346380D01*
X104465523Y-59346380D01*
X104132190Y-58346380D02*
X103465523Y-58346380D01*
X103894095Y-59346380D01*
%TO.C,TP28*%
X109942095Y-58346380D02*
X109370666Y-58346380D01*
X109656380Y-59346380D02*
X109656380Y-58346380D01*
X109037333Y-59346380D02*
X109037333Y-58346380D01*
X108656380Y-58346380D01*
X108561142Y-58394000D01*
X108513523Y-58441619D01*
X108465904Y-58536857D01*
X108465904Y-58679714D01*
X108513523Y-58774952D01*
X108561142Y-58822571D01*
X108656380Y-58870190D01*
X109037333Y-58870190D01*
X108084952Y-58441619D02*
X108037333Y-58394000D01*
X107942095Y-58346380D01*
X107704000Y-58346380D01*
X107608761Y-58394000D01*
X107561142Y-58441619D01*
X107513523Y-58536857D01*
X107513523Y-58632095D01*
X107561142Y-58774952D01*
X108132571Y-59346380D01*
X107513523Y-59346380D01*
X106942095Y-58774952D02*
X107037333Y-58727333D01*
X107084952Y-58679714D01*
X107132571Y-58584476D01*
X107132571Y-58536857D01*
X107084952Y-58441619D01*
X107037333Y-58394000D01*
X106942095Y-58346380D01*
X106751619Y-58346380D01*
X106656380Y-58394000D01*
X106608761Y-58441619D01*
X106561142Y-58536857D01*
X106561142Y-58584476D01*
X106608761Y-58679714D01*
X106656380Y-58727333D01*
X106751619Y-58774952D01*
X106942095Y-58774952D01*
X107037333Y-58822571D01*
X107084952Y-58870190D01*
X107132571Y-58965428D01*
X107132571Y-59155904D01*
X107084952Y-59251142D01*
X107037333Y-59298761D01*
X106942095Y-59346380D01*
X106751619Y-59346380D01*
X106656380Y-59298761D01*
X106608761Y-59251142D01*
X106561142Y-59155904D01*
X106561142Y-58965428D01*
X106608761Y-58870190D01*
X106656380Y-58822571D01*
X106751619Y-58774952D01*
%TO.C,TP29*%
X76922095Y-57330380D02*
X76350666Y-57330380D01*
X76636380Y-58330380D02*
X76636380Y-57330380D01*
X76017333Y-58330380D02*
X76017333Y-57330380D01*
X75636380Y-57330380D01*
X75541142Y-57378000D01*
X75493523Y-57425619D01*
X75445904Y-57520857D01*
X75445904Y-57663714D01*
X75493523Y-57758952D01*
X75541142Y-57806571D01*
X75636380Y-57854190D01*
X76017333Y-57854190D01*
X75064952Y-57425619D02*
X75017333Y-57378000D01*
X74922095Y-57330380D01*
X74684000Y-57330380D01*
X74588761Y-57378000D01*
X74541142Y-57425619D01*
X74493523Y-57520857D01*
X74493523Y-57616095D01*
X74541142Y-57758952D01*
X75112571Y-58330380D01*
X74493523Y-58330380D01*
X74017333Y-58330380D02*
X73826857Y-58330380D01*
X73731619Y-58282761D01*
X73684000Y-58235142D01*
X73588761Y-58092285D01*
X73541142Y-57901809D01*
X73541142Y-57520857D01*
X73588761Y-57425619D01*
X73636380Y-57378000D01*
X73731619Y-57330380D01*
X73922095Y-57330380D01*
X74017333Y-57378000D01*
X74064952Y-57425619D01*
X74112571Y-57520857D01*
X74112571Y-57758952D01*
X74064952Y-57854190D01*
X74017333Y-57901809D01*
X73922095Y-57949428D01*
X73731619Y-57949428D01*
X73636380Y-57901809D01*
X73588761Y-57854190D01*
X73541142Y-57758952D01*
%TO.C,TP30*%
X78446095Y-54282380D02*
X77874666Y-54282380D01*
X78160380Y-55282380D02*
X78160380Y-54282380D01*
X77541333Y-55282380D02*
X77541333Y-54282380D01*
X77160380Y-54282380D01*
X77065142Y-54330000D01*
X77017523Y-54377619D01*
X76969904Y-54472857D01*
X76969904Y-54615714D01*
X77017523Y-54710952D01*
X77065142Y-54758571D01*
X77160380Y-54806190D01*
X77541333Y-54806190D01*
X76636571Y-54282380D02*
X76017523Y-54282380D01*
X76350857Y-54663333D01*
X76208000Y-54663333D01*
X76112761Y-54710952D01*
X76065142Y-54758571D01*
X76017523Y-54853809D01*
X76017523Y-55091904D01*
X76065142Y-55187142D01*
X76112761Y-55234761D01*
X76208000Y-55282380D01*
X76493714Y-55282380D01*
X76588952Y-55234761D01*
X76636571Y-55187142D01*
X75398476Y-54282380D02*
X75303238Y-54282380D01*
X75208000Y-54330000D01*
X75160380Y-54377619D01*
X75112761Y-54472857D01*
X75065142Y-54663333D01*
X75065142Y-54901428D01*
X75112761Y-55091904D01*
X75160380Y-55187142D01*
X75208000Y-55234761D01*
X75303238Y-55282380D01*
X75398476Y-55282380D01*
X75493714Y-55234761D01*
X75541333Y-55187142D01*
X75588952Y-55091904D01*
X75636571Y-54901428D01*
X75636571Y-54663333D01*
X75588952Y-54472857D01*
X75541333Y-54377619D01*
X75493714Y-54330000D01*
X75398476Y-54282380D01*
%TO.C,TP31*%
X82510095Y-88318380D02*
X81938666Y-88318380D01*
X82224380Y-89318380D02*
X82224380Y-88318380D01*
X81605333Y-89318380D02*
X81605333Y-88318380D01*
X81224380Y-88318380D01*
X81129142Y-88366000D01*
X81081523Y-88413619D01*
X81033904Y-88508857D01*
X81033904Y-88651714D01*
X81081523Y-88746952D01*
X81129142Y-88794571D01*
X81224380Y-88842190D01*
X81605333Y-88842190D01*
X80700571Y-88318380D02*
X80081523Y-88318380D01*
X80414857Y-88699333D01*
X80272000Y-88699333D01*
X80176761Y-88746952D01*
X80129142Y-88794571D01*
X80081523Y-88889809D01*
X80081523Y-89127904D01*
X80129142Y-89223142D01*
X80176761Y-89270761D01*
X80272000Y-89318380D01*
X80557714Y-89318380D01*
X80652952Y-89270761D01*
X80700571Y-89223142D01*
X79129142Y-89318380D02*
X79700571Y-89318380D01*
X79414857Y-89318380D02*
X79414857Y-88318380D01*
X79510095Y-88461238D01*
X79605333Y-88556476D01*
X79700571Y-88604095D01*
%TO.C,TP32*%
X99782095Y-78158380D02*
X99210666Y-78158380D01*
X99496380Y-79158380D02*
X99496380Y-78158380D01*
X98877333Y-79158380D02*
X98877333Y-78158380D01*
X98496380Y-78158380D01*
X98401142Y-78206000D01*
X98353523Y-78253619D01*
X98305904Y-78348857D01*
X98305904Y-78491714D01*
X98353523Y-78586952D01*
X98401142Y-78634571D01*
X98496380Y-78682190D01*
X98877333Y-78682190D01*
X97972571Y-78158380D02*
X97353523Y-78158380D01*
X97686857Y-78539333D01*
X97544000Y-78539333D01*
X97448761Y-78586952D01*
X97401142Y-78634571D01*
X97353523Y-78729809D01*
X97353523Y-78967904D01*
X97401142Y-79063142D01*
X97448761Y-79110761D01*
X97544000Y-79158380D01*
X97829714Y-79158380D01*
X97924952Y-79110761D01*
X97972571Y-79063142D01*
X96972571Y-78253619D02*
X96924952Y-78206000D01*
X96829714Y-78158380D01*
X96591619Y-78158380D01*
X96496380Y-78206000D01*
X96448761Y-78253619D01*
X96401142Y-78348857D01*
X96401142Y-78444095D01*
X96448761Y-78586952D01*
X97020190Y-79158380D01*
X96401142Y-79158380D01*
%TO.C,U4*%
D13*
X115563803Y-85472965D02*
X116373449Y-85472965D01*
X116468701Y-85520592D01*
X116516327Y-85568218D01*
X116563953Y-85663470D01*
X116563953Y-85853975D01*
X116516327Y-85949227D01*
X116468701Y-85996854D01*
X116373449Y-86044480D01*
X115563803Y-86044480D01*
X115897187Y-86949377D02*
X116563953Y-86949377D01*
X115516177Y-86711246D02*
X116230570Y-86473115D01*
X116230570Y-87092256D01*
%TD*%
M02*
