%TF.GenerationSoftware,KiCad,Pcbnew,(5.1.8-0-10_14)*%
%TF.CreationDate,2020-12-22T15:13:40+01:00*%
%TF.ProjectId,sucker-one-mainboard,7375636b-6572-42d6-9f6e-652d6d61696e,rev?*%
%TF.SameCoordinates,Original*%
%TF.FileFunction,Profile,NP*%
%FSLAX46Y46*%
G04 Gerber Fmt 4.6, Leading zero omitted, Abs format (unit mm)*
G04 Created by KiCad (PCBNEW (5.1.8-0-10_14)) date 2020-12-22 15:13:40*
%MOMM*%
%LPD*%
G01*
G04 APERTURE LIST*
%TA.AperFunction,Profile*%
%ADD10C,0.200000*%
%TD*%
G04 APERTURE END LIST*
D10*
X73000000Y-53500000D02*
G75*
G03*
X73000000Y-53500000I-1500000J0D01*
G01*
X114908632Y-53500000D02*
G75*
G03*
X114908632Y-53500000I-1500000J0D01*
G01*
X134908632Y-110500000D02*
G75*
G03*
X134908632Y-110500000I-1500000J0D01*
G01*
X86562240Y-110500000D02*
G75*
G03*
X86562240Y-110500000I-1500000J0D01*
G01*
X65999999Y-87222684D02*
G75*
G03*
X65999999Y-87222684I-1500000J0D01*
G01*
X134908632Y-85146297D02*
G75*
G03*
X134908632Y-85146297I-1500000J0D01*
G01*
X65270731Y-51571429D02*
G75*
G02*
X59999999Y-55500000I-5270732J1571429D01*
G01*
X58500000Y-55500000D02*
X59999999Y-55500000D01*
X57000000Y-57000000D02*
G75*
G02*
X58500000Y-55500000I1500000J0D01*
G01*
X57000000Y-71999999D02*
X57000000Y-57000000D01*
X58499999Y-73500000D02*
G75*
G02*
X57000000Y-71999999I1J1500000D01*
G01*
X59999999Y-73500000D02*
X58500000Y-73500000D01*
X59999999Y-73500000D02*
G75*
G02*
X61499999Y-75000000I0J-1500000D01*
G01*
X61499999Y-88722684D02*
X61499999Y-75000000D01*
X62999999Y-90222684D02*
G75*
G02*
X61499999Y-88722684I0J1500000D01*
G01*
X80062240Y-90222684D02*
X62999999Y-90222684D01*
X80062240Y-90222684D02*
G75*
G02*
X81562240Y-91722684I0J-1500000D01*
G01*
X81562240Y-110500000D02*
X81562240Y-91722684D01*
X82747208Y-113125000D02*
G75*
G02*
X81562240Y-110500000I2315032J2625000D01*
G01*
X83739364Y-113500000D02*
G75*
G02*
X82747207Y-113125000I0J1500000D01*
G01*
X134908632Y-113500000D02*
X83739364Y-113500000D01*
X136408632Y-112000000D02*
G75*
G02*
X134908632Y-113500000I-1500000J0D01*
G01*
X136408632Y-83646297D02*
X136408632Y-112000000D01*
X134908632Y-82146297D02*
G75*
G02*
X136408632Y-83646297I0J-1500000D01*
G01*
X117908632Y-82146297D02*
X134908632Y-82146297D01*
X117908632Y-82146297D02*
G75*
G02*
X116408632Y-80646297I0J1500000D01*
G01*
X116408632Y-52000000D02*
X116408632Y-80646297D01*
X114908632Y-50500000D02*
G75*
G02*
X116408632Y-52000000I0J-1500000D01*
G01*
X66708203Y-50499999D02*
X114908632Y-50500000D01*
X65270731Y-51571428D02*
G75*
G02*
X66708203Y-50499999I1437472J-428571D01*
G01*
M02*
