%TF.GenerationSoftware,KiCad,Pcbnew,(5.1.8-0-10_14)*%
%TF.CreationDate,2020-12-22T15:13:40+01:00*%
%TF.ProjectId,sucker-one-mainboard,7375636b-6572-42d6-9f6e-652d6d61696e,rev?*%
%TF.SameCoordinates,Original*%
%TF.FileFunction,Copper,L1,Top*%
%TF.FilePolarity,Positive*%
%FSLAX46Y46*%
G04 Gerber Fmt 4.6, Leading zero omitted, Abs format (unit mm)*
G04 Created by KiCad (PCBNEW (5.1.8-0-10_14)) date 2020-12-22 15:13:40*
%MOMM*%
%LPD*%
G01*
G04 APERTURE LIST*
%TA.AperFunction,EtchedComponent*%
%ADD10C,0.100000*%
%TD*%
%TA.AperFunction,SMDPad,CuDef*%
%ADD11R,2.400000X2.000000*%
%TD*%
%TA.AperFunction,SMDPad,CuDef*%
%ADD12R,1.800000X2.500000*%
%TD*%
%TA.AperFunction,SMDPad,CuDef*%
%ADD13R,1.100000X1.100000*%
%TD*%
%TA.AperFunction,SMDPad,CuDef*%
%ADD14R,0.600000X0.500000*%
%TD*%
%TA.AperFunction,SMDPad,CuDef*%
%ADD15R,0.500000X0.600000*%
%TD*%
%TA.AperFunction,ComponentPad*%
%ADD16O,1.700000X2.000000*%
%TD*%
%TA.AperFunction,ComponentPad*%
%ADD17R,1.500000X1.500000*%
%TD*%
%TA.AperFunction,ComponentPad*%
%ADD18C,1.500000*%
%TD*%
%TA.AperFunction,ComponentPad*%
%ADD19O,2.000000X1.700000*%
%TD*%
%TA.AperFunction,ComponentPad*%
%ADD20O,1.950000X1.700000*%
%TD*%
%TA.AperFunction,ComponentPad*%
%ADD21R,1.700000X1.700000*%
%TD*%
%TA.AperFunction,ComponentPad*%
%ADD22O,1.700000X1.700000*%
%TD*%
%TA.AperFunction,SMDPad,CuDef*%
%ADD23R,1.000000X1.500000*%
%TD*%
%TA.AperFunction,SMDPad,CuDef*%
%ADD24R,1.800000X4.200000*%
%TD*%
%TA.AperFunction,SMDPad,CuDef*%
%ADD25R,0.800000X0.900000*%
%TD*%
%TA.AperFunction,SMDPad,CuDef*%
%ADD26R,1.300000X2.000000*%
%TD*%
%TA.AperFunction,SMDPad,CuDef*%
%ADD27R,2.000000X2.000000*%
%TD*%
%TA.AperFunction,SMDPad,CuDef*%
%ADD28R,1.700000X0.900000*%
%TD*%
%TA.AperFunction,SMDPad,CuDef*%
%ADD29R,3.800000X2.000000*%
%TD*%
%TA.AperFunction,SMDPad,CuDef*%
%ADD30R,1.500000X2.000000*%
%TD*%
%TA.AperFunction,SMDPad,CuDef*%
%ADD31O,0.850000X0.280000*%
%TD*%
%TA.AperFunction,SMDPad,CuDef*%
%ADD32R,0.280000X0.280000*%
%TD*%
%TA.AperFunction,SMDPad,CuDef*%
%ADD33R,0.680000X1.050000*%
%TD*%
%TA.AperFunction,SMDPad,CuDef*%
%ADD34R,0.280000X0.700000*%
%TD*%
%TA.AperFunction,SMDPad,CuDef*%
%ADD35R,0.260000X0.500000*%
%TD*%
%TA.AperFunction,SMDPad,CuDef*%
%ADD36R,1.650000X2.400000*%
%TD*%
%TA.AperFunction,SMDPad,CuDef*%
%ADD37R,0.600000X1.970000*%
%TD*%
%TA.AperFunction,ComponentPad*%
%ADD38O,1.600000X1.000000*%
%TD*%
%TA.AperFunction,ComponentPad*%
%ADD39O,2.100000X1.000000*%
%TD*%
%TA.AperFunction,SMDPad,CuDef*%
%ADD40R,1.450000X0.300000*%
%TD*%
%TA.AperFunction,SMDPad,CuDef*%
%ADD41R,1.450000X0.600000*%
%TD*%
%TA.AperFunction,SMDPad,CuDef*%
%ADD42R,0.300000X0.700000*%
%TD*%
%TA.AperFunction,SMDPad,CuDef*%
%ADD43R,0.300000X1.000000*%
%TD*%
%TA.AperFunction,ViaPad*%
%ADD44C,0.800000*%
%TD*%
%TA.AperFunction,Conductor*%
%ADD45C,0.250000*%
%TD*%
%TA.AperFunction,Conductor*%
%ADD46C,0.400000*%
%TD*%
%TA.AperFunction,Conductor*%
%ADD47C,0.800000*%
%TD*%
G04 APERTURE END LIST*
D10*
%TO.C,JP1*%
G36*
X80006000Y-72436000D02*
G01*
X79506000Y-72436000D01*
X79506000Y-71836000D01*
X80006000Y-71836000D01*
X80006000Y-72436000D01*
G37*
%TD*%
D11*
%TO.P,Y1,1*%
%TO.N,OSC_IN*%
X79248000Y-59618000D03*
%TO.P,Y1,2*%
%TO.N,OSC_OUT*%
X79248000Y-63318000D03*
%TD*%
%TO.P,C1,1*%
%TO.N,VDD*%
%TA.AperFunction,SMDPad,CuDef*%
G36*
G01*
X99444000Y-73422500D02*
X99444000Y-73897500D01*
G75*
G02*
X99206500Y-74135000I-237500J0D01*
G01*
X98606500Y-74135000D01*
G75*
G02*
X98369000Y-73897500I0J237500D01*
G01*
X98369000Y-73422500D01*
G75*
G02*
X98606500Y-73185000I237500J0D01*
G01*
X99206500Y-73185000D01*
G75*
G02*
X99444000Y-73422500I0J-237500D01*
G01*
G37*
%TD.AperFunction*%
%TO.P,C1,2*%
%TO.N,GND*%
%TA.AperFunction,SMDPad,CuDef*%
G36*
G01*
X97719000Y-73422500D02*
X97719000Y-73897500D01*
G75*
G02*
X97481500Y-74135000I-237500J0D01*
G01*
X96881500Y-74135000D01*
G75*
G02*
X96644000Y-73897500I0J237500D01*
G01*
X96644000Y-73422500D01*
G75*
G02*
X96881500Y-73185000I237500J0D01*
G01*
X97481500Y-73185000D01*
G75*
G02*
X97719000Y-73422500I0J-237500D01*
G01*
G37*
%TD.AperFunction*%
%TD*%
%TO.P,C2,1*%
%TO.N,VDD*%
%TA.AperFunction,SMDPad,CuDef*%
G36*
G01*
X97806500Y-60068000D02*
X98281500Y-60068000D01*
G75*
G02*
X98519000Y-60305500I0J-237500D01*
G01*
X98519000Y-60905500D01*
G75*
G02*
X98281500Y-61143000I-237500J0D01*
G01*
X97806500Y-61143000D01*
G75*
G02*
X97569000Y-60905500I0J237500D01*
G01*
X97569000Y-60305500D01*
G75*
G02*
X97806500Y-60068000I237500J0D01*
G01*
G37*
%TD.AperFunction*%
%TO.P,C2,2*%
%TO.N,GND*%
%TA.AperFunction,SMDPad,CuDef*%
G36*
G01*
X97806500Y-61793000D02*
X98281500Y-61793000D01*
G75*
G02*
X98519000Y-62030500I0J-237500D01*
G01*
X98519000Y-62630500D01*
G75*
G02*
X98281500Y-62868000I-237500J0D01*
G01*
X97806500Y-62868000D01*
G75*
G02*
X97569000Y-62630500I0J237500D01*
G01*
X97569000Y-62030500D01*
G75*
G02*
X97806500Y-61793000I237500J0D01*
G01*
G37*
%TD.AperFunction*%
%TD*%
%TO.P,C3,2*%
%TO.N,GND*%
%TA.AperFunction,SMDPad,CuDef*%
G36*
G01*
X109998500Y-70937000D02*
X110473500Y-70937000D01*
G75*
G02*
X110711000Y-71174500I0J-237500D01*
G01*
X110711000Y-71774500D01*
G75*
G02*
X110473500Y-72012000I-237500J0D01*
G01*
X109998500Y-72012000D01*
G75*
G02*
X109761000Y-71774500I0J237500D01*
G01*
X109761000Y-71174500D01*
G75*
G02*
X109998500Y-70937000I237500J0D01*
G01*
G37*
%TD.AperFunction*%
%TO.P,C3,1*%
%TO.N,VBUS*%
%TA.AperFunction,SMDPad,CuDef*%
G36*
G01*
X109998500Y-69212000D02*
X110473500Y-69212000D01*
G75*
G02*
X110711000Y-69449500I0J-237500D01*
G01*
X110711000Y-70049500D01*
G75*
G02*
X110473500Y-70287000I-237500J0D01*
G01*
X109998500Y-70287000D01*
G75*
G02*
X109761000Y-70049500I0J237500D01*
G01*
X109761000Y-69449500D01*
G75*
G02*
X109998500Y-69212000I237500J0D01*
G01*
G37*
%TD.AperFunction*%
%TD*%
%TO.P,C4,2*%
%TO.N,GND*%
%TA.AperFunction,SMDPad,CuDef*%
G36*
G01*
X88629500Y-86035000D02*
X88154500Y-86035000D01*
G75*
G02*
X87917000Y-85797500I0J237500D01*
G01*
X87917000Y-85197500D01*
G75*
G02*
X88154500Y-84960000I237500J0D01*
G01*
X88629500Y-84960000D01*
G75*
G02*
X88867000Y-85197500I0J-237500D01*
G01*
X88867000Y-85797500D01*
G75*
G02*
X88629500Y-86035000I-237500J0D01*
G01*
G37*
%TD.AperFunction*%
%TO.P,C4,1*%
%TO.N,+12V*%
%TA.AperFunction,SMDPad,CuDef*%
G36*
G01*
X88629500Y-87760000D02*
X88154500Y-87760000D01*
G75*
G02*
X87917000Y-87522500I0J237500D01*
G01*
X87917000Y-86922500D01*
G75*
G02*
X88154500Y-86685000I237500J0D01*
G01*
X88629500Y-86685000D01*
G75*
G02*
X88867000Y-86922500I0J-237500D01*
G01*
X88867000Y-87522500D01*
G75*
G02*
X88629500Y-87760000I-237500J0D01*
G01*
G37*
%TD.AperFunction*%
%TD*%
%TO.P,C5,2*%
%TO.N,GND*%
%TA.AperFunction,SMDPad,CuDef*%
G36*
G01*
X86543000Y-74438500D02*
X86543000Y-74913500D01*
G75*
G02*
X86305500Y-75151000I-237500J0D01*
G01*
X85705500Y-75151000D01*
G75*
G02*
X85468000Y-74913500I0J237500D01*
G01*
X85468000Y-74438500D01*
G75*
G02*
X85705500Y-74201000I237500J0D01*
G01*
X86305500Y-74201000D01*
G75*
G02*
X86543000Y-74438500I0J-237500D01*
G01*
G37*
%TD.AperFunction*%
%TO.P,C5,1*%
%TO.N,VDD*%
%TA.AperFunction,SMDPad,CuDef*%
G36*
G01*
X88268000Y-74438500D02*
X88268000Y-74913500D01*
G75*
G02*
X88030500Y-75151000I-237500J0D01*
G01*
X87430500Y-75151000D01*
G75*
G02*
X87193000Y-74913500I0J237500D01*
G01*
X87193000Y-74438500D01*
G75*
G02*
X87430500Y-74201000I237500J0D01*
G01*
X88030500Y-74201000D01*
G75*
G02*
X88268000Y-74438500I0J-237500D01*
G01*
G37*
%TD.AperFunction*%
%TD*%
%TO.P,C6,2*%
%TO.N,GND*%
%TA.AperFunction,SMDPad,CuDef*%
G36*
G01*
X75962500Y-59761000D02*
X76437500Y-59761000D01*
G75*
G02*
X76675000Y-59998500I0J-237500D01*
G01*
X76675000Y-60598500D01*
G75*
G02*
X76437500Y-60836000I-237500J0D01*
G01*
X75962500Y-60836000D01*
G75*
G02*
X75725000Y-60598500I0J237500D01*
G01*
X75725000Y-59998500D01*
G75*
G02*
X75962500Y-59761000I237500J0D01*
G01*
G37*
%TD.AperFunction*%
%TO.P,C6,1*%
%TO.N,OSC_IN*%
%TA.AperFunction,SMDPad,CuDef*%
G36*
G01*
X75962500Y-58036000D02*
X76437500Y-58036000D01*
G75*
G02*
X76675000Y-58273500I0J-237500D01*
G01*
X76675000Y-58873500D01*
G75*
G02*
X76437500Y-59111000I-237500J0D01*
G01*
X75962500Y-59111000D01*
G75*
G02*
X75725000Y-58873500I0J237500D01*
G01*
X75725000Y-58273500D01*
G75*
G02*
X75962500Y-58036000I237500J0D01*
G01*
G37*
%TD.AperFunction*%
%TD*%
%TO.P,C7,1*%
%TO.N,OSC_OUT*%
%TA.AperFunction,SMDPad,CuDef*%
G36*
G01*
X80648000Y-65294500D02*
X80648000Y-65769500D01*
G75*
G02*
X80410500Y-66007000I-237500J0D01*
G01*
X79810500Y-66007000D01*
G75*
G02*
X79573000Y-65769500I0J237500D01*
G01*
X79573000Y-65294500D01*
G75*
G02*
X79810500Y-65057000I237500J0D01*
G01*
X80410500Y-65057000D01*
G75*
G02*
X80648000Y-65294500I0J-237500D01*
G01*
G37*
%TD.AperFunction*%
%TO.P,C7,2*%
%TO.N,GND*%
%TA.AperFunction,SMDPad,CuDef*%
G36*
G01*
X78923000Y-65294500D02*
X78923000Y-65769500D01*
G75*
G02*
X78685500Y-66007000I-237500J0D01*
G01*
X78085500Y-66007000D01*
G75*
G02*
X77848000Y-65769500I0J237500D01*
G01*
X77848000Y-65294500D01*
G75*
G02*
X78085500Y-65057000I237500J0D01*
G01*
X78685500Y-65057000D01*
G75*
G02*
X78923000Y-65294500I0J-237500D01*
G01*
G37*
%TD.AperFunction*%
%TD*%
%TO.P,C8,1*%
%TO.N,+12V*%
%TA.AperFunction,SMDPad,CuDef*%
G36*
G01*
X90661500Y-87760000D02*
X90186500Y-87760000D01*
G75*
G02*
X89949000Y-87522500I0J237500D01*
G01*
X89949000Y-86922500D01*
G75*
G02*
X90186500Y-86685000I237500J0D01*
G01*
X90661500Y-86685000D01*
G75*
G02*
X90899000Y-86922500I0J-237500D01*
G01*
X90899000Y-87522500D01*
G75*
G02*
X90661500Y-87760000I-237500J0D01*
G01*
G37*
%TD.AperFunction*%
%TO.P,C8,2*%
%TO.N,GND*%
%TA.AperFunction,SMDPad,CuDef*%
G36*
G01*
X90661500Y-86035000D02*
X90186500Y-86035000D01*
G75*
G02*
X89949000Y-85797500I0J237500D01*
G01*
X89949000Y-85197500D01*
G75*
G02*
X90186500Y-84960000I237500J0D01*
G01*
X90661500Y-84960000D01*
G75*
G02*
X90899000Y-85197500I0J-237500D01*
G01*
X90899000Y-85797500D01*
G75*
G02*
X90661500Y-86035000I-237500J0D01*
G01*
G37*
%TD.AperFunction*%
%TD*%
%TO.P,C9,1*%
%TO.N,+12V*%
%TA.AperFunction,SMDPad,CuDef*%
G36*
G01*
X84565500Y-87760000D02*
X84090500Y-87760000D01*
G75*
G02*
X83853000Y-87522500I0J237500D01*
G01*
X83853000Y-86922500D01*
G75*
G02*
X84090500Y-86685000I237500J0D01*
G01*
X84565500Y-86685000D01*
G75*
G02*
X84803000Y-86922500I0J-237500D01*
G01*
X84803000Y-87522500D01*
G75*
G02*
X84565500Y-87760000I-237500J0D01*
G01*
G37*
%TD.AperFunction*%
%TO.P,C9,2*%
%TO.N,GND*%
%TA.AperFunction,SMDPad,CuDef*%
G36*
G01*
X84565500Y-86035000D02*
X84090500Y-86035000D01*
G75*
G02*
X83853000Y-85797500I0J237500D01*
G01*
X83853000Y-85197500D01*
G75*
G02*
X84090500Y-84960000I237500J0D01*
G01*
X84565500Y-84960000D01*
G75*
G02*
X84803000Y-85197500I0J-237500D01*
G01*
X84803000Y-85797500D01*
G75*
G02*
X84565500Y-86035000I-237500J0D01*
G01*
G37*
%TD.AperFunction*%
%TD*%
%TO.P,C10,1*%
%TO.N,VDD*%
%TA.AperFunction,SMDPad,CuDef*%
G36*
G01*
X84960000Y-59673500D02*
X84960000Y-59198500D01*
G75*
G02*
X85197500Y-58961000I237500J0D01*
G01*
X85797500Y-58961000D01*
G75*
G02*
X86035000Y-59198500I0J-237500D01*
G01*
X86035000Y-59673500D01*
G75*
G02*
X85797500Y-59911000I-237500J0D01*
G01*
X85197500Y-59911000D01*
G75*
G02*
X84960000Y-59673500I0J237500D01*
G01*
G37*
%TD.AperFunction*%
%TO.P,C10,2*%
%TO.N,GND*%
%TA.AperFunction,SMDPad,CuDef*%
G36*
G01*
X86685000Y-59673500D02*
X86685000Y-59198500D01*
G75*
G02*
X86922500Y-58961000I237500J0D01*
G01*
X87522500Y-58961000D01*
G75*
G02*
X87760000Y-59198500I0J-237500D01*
G01*
X87760000Y-59673500D01*
G75*
G02*
X87522500Y-59911000I-237500J0D01*
G01*
X86922500Y-59911000D01*
G75*
G02*
X86685000Y-59673500I0J237500D01*
G01*
G37*
%TD.AperFunction*%
%TD*%
%TO.P,C11,2*%
%TO.N,GND*%
%TA.AperFunction,SMDPad,CuDef*%
G36*
G01*
X107458500Y-70937000D02*
X107933500Y-70937000D01*
G75*
G02*
X108171000Y-71174500I0J-237500D01*
G01*
X108171000Y-71774500D01*
G75*
G02*
X107933500Y-72012000I-237500J0D01*
G01*
X107458500Y-72012000D01*
G75*
G02*
X107221000Y-71774500I0J237500D01*
G01*
X107221000Y-71174500D01*
G75*
G02*
X107458500Y-70937000I237500J0D01*
G01*
G37*
%TD.AperFunction*%
%TO.P,C11,1*%
%TO.N,VDD*%
%TA.AperFunction,SMDPad,CuDef*%
G36*
G01*
X107458500Y-69212000D02*
X107933500Y-69212000D01*
G75*
G02*
X108171000Y-69449500I0J-237500D01*
G01*
X108171000Y-70049500D01*
G75*
G02*
X107933500Y-70287000I-237500J0D01*
G01*
X107458500Y-70287000D01*
G75*
G02*
X107221000Y-70049500I0J237500D01*
G01*
X107221000Y-69449500D01*
G75*
G02*
X107458500Y-69212000I237500J0D01*
G01*
G37*
%TD.AperFunction*%
%TD*%
%TO.P,C12,2*%
%TO.N,GND*%
%TA.AperFunction,SMDPad,CuDef*%
G36*
G01*
X86597500Y-86035000D02*
X86122500Y-86035000D01*
G75*
G02*
X85885000Y-85797500I0J237500D01*
G01*
X85885000Y-85197500D01*
G75*
G02*
X86122500Y-84960000I237500J0D01*
G01*
X86597500Y-84960000D01*
G75*
G02*
X86835000Y-85197500I0J-237500D01*
G01*
X86835000Y-85797500D01*
G75*
G02*
X86597500Y-86035000I-237500J0D01*
G01*
G37*
%TD.AperFunction*%
%TO.P,C12,1*%
%TO.N,+12V*%
%TA.AperFunction,SMDPad,CuDef*%
G36*
G01*
X86597500Y-87760000D02*
X86122500Y-87760000D01*
G75*
G02*
X85885000Y-87522500I0J237500D01*
G01*
X85885000Y-86922500D01*
G75*
G02*
X86122500Y-86685000I237500J0D01*
G01*
X86597500Y-86685000D01*
G75*
G02*
X86835000Y-86922500I0J-237500D01*
G01*
X86835000Y-87522500D01*
G75*
G02*
X86597500Y-87760000I-237500J0D01*
G01*
G37*
%TD.AperFunction*%
%TD*%
%TO.P,C13,1*%
%TO.N,VDD*%
%TA.AperFunction,SMDPad,CuDef*%
G36*
G01*
X94872000Y-74438500D02*
X94872000Y-74913500D01*
G75*
G02*
X94634500Y-75151000I-237500J0D01*
G01*
X94034500Y-75151000D01*
G75*
G02*
X93797000Y-74913500I0J237500D01*
G01*
X93797000Y-74438500D01*
G75*
G02*
X94034500Y-74201000I237500J0D01*
G01*
X94634500Y-74201000D01*
G75*
G02*
X94872000Y-74438500I0J-237500D01*
G01*
G37*
%TD.AperFunction*%
%TO.P,C13,2*%
%TO.N,GND*%
%TA.AperFunction,SMDPad,CuDef*%
G36*
G01*
X93147000Y-74438500D02*
X93147000Y-74913500D01*
G75*
G02*
X92909500Y-75151000I-237500J0D01*
G01*
X92309500Y-75151000D01*
G75*
G02*
X92072000Y-74913500I0J237500D01*
G01*
X92072000Y-74438500D01*
G75*
G02*
X92309500Y-74201000I237500J0D01*
G01*
X92909500Y-74201000D01*
G75*
G02*
X93147000Y-74438500I0J-237500D01*
G01*
G37*
%TD.AperFunction*%
%TD*%
%TO.P,C14,2*%
%TO.N,GND*%
%TA.AperFunction,SMDPad,CuDef*%
G36*
G01*
X83074500Y-75509000D02*
X83549500Y-75509000D01*
G75*
G02*
X83787000Y-75746500I0J-237500D01*
G01*
X83787000Y-76346500D01*
G75*
G02*
X83549500Y-76584000I-237500J0D01*
G01*
X83074500Y-76584000D01*
G75*
G02*
X82837000Y-76346500I0J237500D01*
G01*
X82837000Y-75746500D01*
G75*
G02*
X83074500Y-75509000I237500J0D01*
G01*
G37*
%TD.AperFunction*%
%TO.P,C14,1*%
%TO.N,VDDA*%
%TA.AperFunction,SMDPad,CuDef*%
G36*
G01*
X83074500Y-73784000D02*
X83549500Y-73784000D01*
G75*
G02*
X83787000Y-74021500I0J-237500D01*
G01*
X83787000Y-74621500D01*
G75*
G02*
X83549500Y-74859000I-237500J0D01*
G01*
X83074500Y-74859000D01*
G75*
G02*
X82837000Y-74621500I0J237500D01*
G01*
X82837000Y-74021500D01*
G75*
G02*
X83074500Y-73784000I237500J0D01*
G01*
G37*
%TD.AperFunction*%
%TD*%
%TO.P,C15,2*%
%TO.N,VBUS*%
%TA.AperFunction,SMDPad,CuDef*%
G36*
G01*
X96636000Y-102473999D02*
X96636000Y-103774001D01*
G75*
G02*
X96386001Y-104024000I-249999J0D01*
G01*
X95560999Y-104024000D01*
G75*
G02*
X95311000Y-103774001I0J249999D01*
G01*
X95311000Y-102473999D01*
G75*
G02*
X95560999Y-102224000I249999J0D01*
G01*
X96386001Y-102224000D01*
G75*
G02*
X96636000Y-102473999I0J-249999D01*
G01*
G37*
%TD.AperFunction*%
%TO.P,C15,1*%
%TO.N,GND*%
%TA.AperFunction,SMDPad,CuDef*%
G36*
G01*
X99761000Y-102473999D02*
X99761000Y-103774001D01*
G75*
G02*
X99511001Y-104024000I-249999J0D01*
G01*
X98685999Y-104024000D01*
G75*
G02*
X98436000Y-103774001I0J249999D01*
G01*
X98436000Y-102473999D01*
G75*
G02*
X98685999Y-102224000I249999J0D01*
G01*
X99511001Y-102224000D01*
G75*
G02*
X99761000Y-102473999I0J-249999D01*
G01*
G37*
%TD.AperFunction*%
%TD*%
%TO.P,C16,1*%
%TO.N,GND*%
%TA.AperFunction,SMDPad,CuDef*%
G36*
G01*
X101234001Y-97729000D02*
X99933999Y-97729000D01*
G75*
G02*
X99684000Y-97479001I0J249999D01*
G01*
X99684000Y-96653999D01*
G75*
G02*
X99933999Y-96404000I249999J0D01*
G01*
X101234001Y-96404000D01*
G75*
G02*
X101484000Y-96653999I0J-249999D01*
G01*
X101484000Y-97479001D01*
G75*
G02*
X101234001Y-97729000I-249999J0D01*
G01*
G37*
%TD.AperFunction*%
%TO.P,C16,2*%
%TO.N,VBUS*%
%TA.AperFunction,SMDPad,CuDef*%
G36*
G01*
X101234001Y-94604000D02*
X99933999Y-94604000D01*
G75*
G02*
X99684000Y-94354001I0J249999D01*
G01*
X99684000Y-93528999D01*
G75*
G02*
X99933999Y-93279000I249999J0D01*
G01*
X101234001Y-93279000D01*
G75*
G02*
X101484000Y-93528999I0J-249999D01*
G01*
X101484000Y-94354001D01*
G75*
G02*
X101234001Y-94604000I-249999J0D01*
G01*
G37*
%TD.AperFunction*%
%TD*%
%TO.P,C17,2*%
%TO.N,Net-(C17-Pad2)*%
%TA.AperFunction,SMDPad,CuDef*%
G36*
G01*
X98735000Y-100346500D02*
X98735000Y-100821500D01*
G75*
G02*
X98497500Y-101059000I-237500J0D01*
G01*
X97897500Y-101059000D01*
G75*
G02*
X97660000Y-100821500I0J237500D01*
G01*
X97660000Y-100346500D01*
G75*
G02*
X97897500Y-100109000I237500J0D01*
G01*
X98497500Y-100109000D01*
G75*
G02*
X98735000Y-100346500I0J-237500D01*
G01*
G37*
%TD.AperFunction*%
%TO.P,C17,1*%
%TO.N,GND*%
%TA.AperFunction,SMDPad,CuDef*%
G36*
G01*
X100460000Y-100346500D02*
X100460000Y-100821500D01*
G75*
G02*
X100222500Y-101059000I-237500J0D01*
G01*
X99622500Y-101059000D01*
G75*
G02*
X99385000Y-100821500I0J237500D01*
G01*
X99385000Y-100346500D01*
G75*
G02*
X99622500Y-100109000I237500J0D01*
G01*
X100222500Y-100109000D01*
G75*
G02*
X100460000Y-100346500I0J-237500D01*
G01*
G37*
%TD.AperFunction*%
%TD*%
%TO.P,C18,1*%
%TO.N,VBUS*%
%TA.AperFunction,SMDPad,CuDef*%
G36*
G01*
X103361500Y-93348000D02*
X102886500Y-93348000D01*
G75*
G02*
X102649000Y-93110500I0J237500D01*
G01*
X102649000Y-92510500D01*
G75*
G02*
X102886500Y-92273000I237500J0D01*
G01*
X103361500Y-92273000D01*
G75*
G02*
X103599000Y-92510500I0J-237500D01*
G01*
X103599000Y-93110500D01*
G75*
G02*
X103361500Y-93348000I-237500J0D01*
G01*
G37*
%TD.AperFunction*%
%TO.P,C18,2*%
%TO.N,GND*%
%TA.AperFunction,SMDPad,CuDef*%
G36*
G01*
X103361500Y-91623000D02*
X102886500Y-91623000D01*
G75*
G02*
X102649000Y-91385500I0J237500D01*
G01*
X102649000Y-90785500D01*
G75*
G02*
X102886500Y-90548000I237500J0D01*
G01*
X103361500Y-90548000D01*
G75*
G02*
X103599000Y-90785500I0J-237500D01*
G01*
X103599000Y-91385500D01*
G75*
G02*
X103361500Y-91623000I-237500J0D01*
G01*
G37*
%TD.AperFunction*%
%TD*%
%TO.P,C19,1*%
%TO.N,GND*%
%TA.AperFunction,SMDPad,CuDef*%
G36*
G01*
X134496000Y-105934500D02*
X134496000Y-106409500D01*
G75*
G02*
X134258500Y-106647000I-237500J0D01*
G01*
X133658500Y-106647000D01*
G75*
G02*
X133421000Y-106409500I0J237500D01*
G01*
X133421000Y-105934500D01*
G75*
G02*
X133658500Y-105697000I237500J0D01*
G01*
X134258500Y-105697000D01*
G75*
G02*
X134496000Y-105934500I0J-237500D01*
G01*
G37*
%TD.AperFunction*%
%TO.P,C19,2*%
%TO.N,NRST*%
%TA.AperFunction,SMDPad,CuDef*%
G36*
G01*
X132771000Y-105934500D02*
X132771000Y-106409500D01*
G75*
G02*
X132533500Y-106647000I-237500J0D01*
G01*
X131933500Y-106647000D01*
G75*
G02*
X131696000Y-106409500I0J237500D01*
G01*
X131696000Y-105934500D01*
G75*
G02*
X131933500Y-105697000I237500J0D01*
G01*
X132533500Y-105697000D01*
G75*
G02*
X132771000Y-105934500I0J-237500D01*
G01*
G37*
%TD.AperFunction*%
%TD*%
%TO.P,C20,2*%
%TO.N,Net-(C20-Pad2)*%
%TA.AperFunction,SMDPad,CuDef*%
G36*
G01*
X97806500Y-96845000D02*
X98281500Y-96845000D01*
G75*
G02*
X98519000Y-97082500I0J-237500D01*
G01*
X98519000Y-97682500D01*
G75*
G02*
X98281500Y-97920000I-237500J0D01*
G01*
X97806500Y-97920000D01*
G75*
G02*
X97569000Y-97682500I0J237500D01*
G01*
X97569000Y-97082500D01*
G75*
G02*
X97806500Y-96845000I237500J0D01*
G01*
G37*
%TD.AperFunction*%
%TO.P,C20,1*%
%TO.N,GND*%
%TA.AperFunction,SMDPad,CuDef*%
G36*
G01*
X97806500Y-95120000D02*
X98281500Y-95120000D01*
G75*
G02*
X98519000Y-95357500I0J-237500D01*
G01*
X98519000Y-95957500D01*
G75*
G02*
X98281500Y-96195000I-237500J0D01*
G01*
X97806500Y-96195000D01*
G75*
G02*
X97569000Y-95957500I0J237500D01*
G01*
X97569000Y-95357500D01*
G75*
G02*
X97806500Y-95120000I237500J0D01*
G01*
G37*
%TD.AperFunction*%
%TD*%
%TO.P,C21,1*%
%TO.N,+12V*%
%TA.AperFunction,SMDPad,CuDef*%
G36*
G01*
X70708000Y-81264000D02*
X70708000Y-79264000D01*
G75*
G02*
X70958000Y-79014000I250000J0D01*
G01*
X74458000Y-79014000D01*
G75*
G02*
X74708000Y-79264000I0J-250000D01*
G01*
X74708000Y-81264000D01*
G75*
G02*
X74458000Y-81514000I-250000J0D01*
G01*
X70958000Y-81514000D01*
G75*
G02*
X70708000Y-81264000I0J250000D01*
G01*
G37*
%TD.AperFunction*%
%TO.P,C21,2*%
%TO.N,GND*%
%TA.AperFunction,SMDPad,CuDef*%
G36*
G01*
X78708000Y-81264000D02*
X78708000Y-79264000D01*
G75*
G02*
X78958000Y-79014000I250000J0D01*
G01*
X82458000Y-79014000D01*
G75*
G02*
X82708000Y-79264000I0J-250000D01*
G01*
X82708000Y-81264000D01*
G75*
G02*
X82458000Y-81514000I-250000J0D01*
G01*
X78958000Y-81514000D01*
G75*
G02*
X78708000Y-81264000I0J250000D01*
G01*
G37*
%TD.AperFunction*%
%TD*%
%TO.P,C22,1*%
%TO.N,GND*%
%TA.AperFunction,SMDPad,CuDef*%
G36*
G01*
X84344500Y-77848000D02*
X84819500Y-77848000D01*
G75*
G02*
X85057000Y-78085500I0J-237500D01*
G01*
X85057000Y-78685500D01*
G75*
G02*
X84819500Y-78923000I-237500J0D01*
G01*
X84344500Y-78923000D01*
G75*
G02*
X84107000Y-78685500I0J237500D01*
G01*
X84107000Y-78085500D01*
G75*
G02*
X84344500Y-77848000I237500J0D01*
G01*
G37*
%TD.AperFunction*%
%TO.P,C22,2*%
%TO.N,VBUS*%
%TA.AperFunction,SMDPad,CuDef*%
G36*
G01*
X84344500Y-79573000D02*
X84819500Y-79573000D01*
G75*
G02*
X85057000Y-79810500I0J-237500D01*
G01*
X85057000Y-80410500D01*
G75*
G02*
X84819500Y-80648000I-237500J0D01*
G01*
X84344500Y-80648000D01*
G75*
G02*
X84107000Y-80410500I0J237500D01*
G01*
X84107000Y-79810500D01*
G75*
G02*
X84344500Y-79573000I237500J0D01*
G01*
G37*
%TD.AperFunction*%
%TD*%
D12*
%TO.P,D1,1*%
%TO.N,Net-(D1-Pad1)*%
X100330000Y-90265000D03*
%TO.P,D1,2*%
%TO.N,Net-(D1-Pad2)*%
X100330000Y-86265000D03*
%TD*%
%TO.P,D2,1*%
%TO.N,Net-(D2-Pad1)*%
%TA.AperFunction,SMDPad,CuDef*%
G36*
G01*
X112900000Y-95233500D02*
X112900000Y-94758500D01*
G75*
G02*
X113137500Y-94521000I237500J0D01*
G01*
X113712500Y-94521000D01*
G75*
G02*
X113950000Y-94758500I0J-237500D01*
G01*
X113950000Y-95233500D01*
G75*
G02*
X113712500Y-95471000I-237500J0D01*
G01*
X113137500Y-95471000D01*
G75*
G02*
X112900000Y-95233500I0J237500D01*
G01*
G37*
%TD.AperFunction*%
%TO.P,D2,2*%
%TO.N,Net-(D2-Pad2)*%
%TA.AperFunction,SMDPad,CuDef*%
G36*
G01*
X114650000Y-95233500D02*
X114650000Y-94758500D01*
G75*
G02*
X114887500Y-94521000I237500J0D01*
G01*
X115462500Y-94521000D01*
G75*
G02*
X115700000Y-94758500I0J-237500D01*
G01*
X115700000Y-95233500D01*
G75*
G02*
X115462500Y-95471000I-237500J0D01*
G01*
X114887500Y-95471000D01*
G75*
G02*
X114650000Y-95233500I0J237500D01*
G01*
G37*
%TD.AperFunction*%
%TD*%
D13*
%TO.P,D3,2*%
%TO.N,Net-(D2-Pad1)*%
X115700000Y-102108000D03*
%TO.P,D3,1*%
%TO.N,+12V*%
X112900000Y-102108000D03*
%TD*%
D14*
%TO.P,D4,2*%
%TO.N,GND*%
X71112000Y-62484000D03*
%TO.P,D4,1*%
%TO.N,FOOTPEDAL*%
X70112000Y-62484000D03*
%TD*%
D15*
%TO.P,D6,1*%
%TO.N,D+*%
X90932000Y-98568000D03*
%TO.P,D6,2*%
%TO.N,GND*%
X90932000Y-99568000D03*
%TD*%
%TO.P,D7,2*%
%TO.N,Net-(D7-Pad2)*%
%TA.AperFunction,SMDPad,CuDef*%
G36*
G01*
X123286000Y-95233500D02*
X123286000Y-94758500D01*
G75*
G02*
X123523500Y-94521000I237500J0D01*
G01*
X124098500Y-94521000D01*
G75*
G02*
X124336000Y-94758500I0J-237500D01*
G01*
X124336000Y-95233500D01*
G75*
G02*
X124098500Y-95471000I-237500J0D01*
G01*
X123523500Y-95471000D01*
G75*
G02*
X123286000Y-95233500I0J237500D01*
G01*
G37*
%TD.AperFunction*%
%TO.P,D7,1*%
%TO.N,Net-(D7-Pad1)*%
%TA.AperFunction,SMDPad,CuDef*%
G36*
G01*
X121536000Y-95233500D02*
X121536000Y-94758500D01*
G75*
G02*
X121773500Y-94521000I237500J0D01*
G01*
X122348500Y-94521000D01*
G75*
G02*
X122586000Y-94758500I0J-237500D01*
G01*
X122586000Y-95233500D01*
G75*
G02*
X122348500Y-95471000I-237500J0D01*
G01*
X121773500Y-95471000D01*
G75*
G02*
X121536000Y-95233500I0J237500D01*
G01*
G37*
%TD.AperFunction*%
%TD*%
%TO.P,D8,1*%
%TO.N,Net-(D10-Pad2)*%
%TA.AperFunction,SMDPad,CuDef*%
G36*
G01*
X104264000Y-95233500D02*
X104264000Y-94758500D01*
G75*
G02*
X104501500Y-94521000I237500J0D01*
G01*
X105076500Y-94521000D01*
G75*
G02*
X105314000Y-94758500I0J-237500D01*
G01*
X105314000Y-95233500D01*
G75*
G02*
X105076500Y-95471000I-237500J0D01*
G01*
X104501500Y-95471000D01*
G75*
G02*
X104264000Y-95233500I0J237500D01*
G01*
G37*
%TD.AperFunction*%
%TO.P,D8,2*%
%TO.N,Net-(D8-Pad2)*%
%TA.AperFunction,SMDPad,CuDef*%
G36*
G01*
X106014000Y-95233500D02*
X106014000Y-94758500D01*
G75*
G02*
X106251500Y-94521000I237500J0D01*
G01*
X106826500Y-94521000D01*
G75*
G02*
X107064000Y-94758500I0J-237500D01*
G01*
X107064000Y-95233500D01*
G75*
G02*
X106826500Y-95471000I-237500J0D01*
G01*
X106251500Y-95471000D01*
G75*
G02*
X106014000Y-95233500I0J237500D01*
G01*
G37*
%TD.AperFunction*%
%TD*%
D13*
%TO.P,D9,1*%
%TO.N,+12V*%
X121536000Y-102108000D03*
%TO.P,D9,2*%
%TO.N,Net-(D7-Pad1)*%
X124336000Y-102108000D03*
%TD*%
%TO.P,D10,2*%
%TO.N,Net-(D10-Pad2)*%
X107064000Y-102108000D03*
%TO.P,D10,1*%
%TO.N,+12V*%
X104264000Y-102108000D03*
%TD*%
%TO.P,D11,1*%
%TO.N,+12V*%
X68456000Y-73152000D03*
%TO.P,D11,2*%
%TO.N,Net-(D11-Pad2)*%
X65656000Y-73152000D03*
%TD*%
%TO.P,F1,1*%
%TO.N,+12V*%
%TA.AperFunction,SMDPad,CuDef*%
G36*
G01*
X82636000Y-92007000D02*
X82636000Y-89857000D01*
G75*
G02*
X82886000Y-89607000I250000J0D01*
G01*
X83811000Y-89607000D01*
G75*
G02*
X84061000Y-89857000I0J-250000D01*
G01*
X84061000Y-92007000D01*
G75*
G02*
X83811000Y-92257000I-250000J0D01*
G01*
X82886000Y-92257000D01*
G75*
G02*
X82636000Y-92007000I0J250000D01*
G01*
G37*
%TD.AperFunction*%
%TO.P,F1,2*%
%TO.N,Net-(D1-Pad1)*%
%TA.AperFunction,SMDPad,CuDef*%
G36*
G01*
X85611000Y-92007000D02*
X85611000Y-89857000D01*
G75*
G02*
X85861000Y-89607000I250000J0D01*
G01*
X86786000Y-89607000D01*
G75*
G02*
X87036000Y-89857000I0J-250000D01*
G01*
X87036000Y-92007000D01*
G75*
G02*
X86786000Y-92257000I-250000J0D01*
G01*
X85861000Y-92257000D01*
G75*
G02*
X85611000Y-92007000I0J250000D01*
G01*
G37*
%TD.AperFunction*%
%TD*%
%TO.P,F2,1*%
%TO.N,Net-(F2-Pad1)*%
%TA.AperFunction,SMDPad,CuDef*%
G36*
G01*
X82977000Y-107114000D02*
X82977000Y-104214000D01*
G75*
G02*
X83227000Y-103964000I250000J0D01*
G01*
X84027000Y-103964000D01*
G75*
G02*
X84277000Y-104214000I0J-250000D01*
G01*
X84277000Y-107114000D01*
G75*
G02*
X84027000Y-107364000I-250000J0D01*
G01*
X83227000Y-107364000D01*
G75*
G02*
X82977000Y-107114000I0J250000D01*
G01*
G37*
%TD.AperFunction*%
%TO.P,F2,2*%
%TO.N,VBUS*%
%TA.AperFunction,SMDPad,CuDef*%
G36*
G01*
X87427000Y-107114000D02*
X87427000Y-104214000D01*
G75*
G02*
X87677000Y-103964000I250000J0D01*
G01*
X88477000Y-103964000D01*
G75*
G02*
X88727000Y-104214000I0J-250000D01*
G01*
X88727000Y-107114000D01*
G75*
G02*
X88477000Y-107364000I-250000J0D01*
G01*
X87677000Y-107364000D01*
G75*
G02*
X87427000Y-107114000I0J250000D01*
G01*
G37*
%TD.AperFunction*%
%TD*%
%TO.P,FB1,1*%
%TO.N,VDD*%
%TA.AperFunction,SMDPad,CuDef*%
G36*
G01*
X80648000Y-66818500D02*
X80648000Y-67293500D01*
G75*
G02*
X80410500Y-67531000I-237500J0D01*
G01*
X79835500Y-67531000D01*
G75*
G02*
X79598000Y-67293500I0J237500D01*
G01*
X79598000Y-66818500D01*
G75*
G02*
X79835500Y-66581000I237500J0D01*
G01*
X80410500Y-66581000D01*
G75*
G02*
X80648000Y-66818500I0J-237500D01*
G01*
G37*
%TD.AperFunction*%
%TO.P,FB1,2*%
%TO.N,VDDA*%
%TA.AperFunction,SMDPad,CuDef*%
G36*
G01*
X78898000Y-66818500D02*
X78898000Y-67293500D01*
G75*
G02*
X78660500Y-67531000I-237500J0D01*
G01*
X78085500Y-67531000D01*
G75*
G02*
X77848000Y-67293500I0J237500D01*
G01*
X77848000Y-66818500D01*
G75*
G02*
X78085500Y-66581000I237500J0D01*
G01*
X78660500Y-66581000D01*
G75*
G02*
X78898000Y-66818500I0J-237500D01*
G01*
G37*
%TD.AperFunction*%
%TD*%
%TO.P,J1,1*%
%TO.N,+12V*%
%TA.AperFunction,ComponentPad*%
G36*
G01*
X112180000Y-107430000D02*
X112180000Y-105930000D01*
G75*
G02*
X112430000Y-105680000I250000J0D01*
G01*
X113630000Y-105680000D01*
G75*
G02*
X113880000Y-105930000I0J-250000D01*
G01*
X113880000Y-107430000D01*
G75*
G02*
X113630000Y-107680000I-250000J0D01*
G01*
X112430000Y-107680000D01*
G75*
G02*
X112180000Y-107430000I0J250000D01*
G01*
G37*
%TD.AperFunction*%
D16*
%TO.P,J1,2*%
%TO.N,Net-(D2-Pad1)*%
X115530000Y-106680000D03*
%TD*%
%TO.P,J2,2*%
%TO.N,Net-(D7-Pad1)*%
X124420000Y-106680000D03*
%TO.P,J2,1*%
%TO.N,+12V*%
%TA.AperFunction,ComponentPad*%
G36*
G01*
X121070000Y-107430000D02*
X121070000Y-105930000D01*
G75*
G02*
X121320000Y-105680000I250000J0D01*
G01*
X122520000Y-105680000D01*
G75*
G02*
X122770000Y-105930000I0J-250000D01*
G01*
X122770000Y-107430000D01*
G75*
G02*
X122520000Y-107680000I-250000J0D01*
G01*
X121320000Y-107680000D01*
G75*
G02*
X121070000Y-107430000I0J250000D01*
G01*
G37*
%TD.AperFunction*%
%TD*%
D17*
%TO.P,J3,1*%
%TO.N,GND*%
X63373000Y-66040000D03*
D18*
%TO.P,J3,2*%
%TO.N,FOOTPEDAL*%
X65913000Y-65020000D03*
%TO.P,J3,3*%
%TO.N,FOOTPEDAL_AUX*%
X63373000Y-64000000D03*
%TO.P,J3,4*%
%TO.N,VDD*%
X65913000Y-62980000D03*
%TD*%
%TO.P,J4,1*%
%TO.N,+12V*%
%TA.AperFunction,ComponentPad*%
G36*
G01*
X103290000Y-107430000D02*
X103290000Y-105930000D01*
G75*
G02*
X103540000Y-105680000I250000J0D01*
G01*
X104740000Y-105680000D01*
G75*
G02*
X104990000Y-105930000I0J-250000D01*
G01*
X104990000Y-107430000D01*
G75*
G02*
X104740000Y-107680000I-250000J0D01*
G01*
X103540000Y-107680000D01*
G75*
G02*
X103290000Y-107430000I0J250000D01*
G01*
G37*
%TD.AperFunction*%
D16*
%TO.P,J4,2*%
%TO.N,Net-(D10-Pad2)*%
X106640000Y-106680000D03*
%TD*%
D19*
%TO.P,J10,2*%
%TO.N,Net-(D11-Pad2)*%
X65024000Y-78780000D03*
%TO.P,J10,1*%
%TO.N,+12V*%
%TA.AperFunction,ComponentPad*%
G36*
G01*
X65774000Y-82130000D02*
X64274000Y-82130000D01*
G75*
G02*
X64024000Y-81880000I0J250000D01*
G01*
X64024000Y-80680000D01*
G75*
G02*
X64274000Y-80430000I250000J0D01*
G01*
X65774000Y-80430000D01*
G75*
G02*
X66024000Y-80680000I0J-250000D01*
G01*
X66024000Y-81880000D01*
G75*
G02*
X65774000Y-82130000I-250000J0D01*
G01*
G37*
%TD.AperFunction*%
%TD*%
%TO.P,J11,1*%
%TO.N,VBUS*%
%TA.AperFunction,ComponentPad*%
G36*
G01*
X131355000Y-91352000D02*
X132805000Y-91352000D01*
G75*
G02*
X133055000Y-91602000I0J-250000D01*
G01*
X133055000Y-92802000D01*
G75*
G02*
X132805000Y-93052000I-250000J0D01*
G01*
X131355000Y-93052000D01*
G75*
G02*
X131105000Y-92802000I0J250000D01*
G01*
X131105000Y-91602000D01*
G75*
G02*
X131355000Y-91352000I250000J0D01*
G01*
G37*
%TD.AperFunction*%
D20*
%TO.P,J11,2*%
%TO.N,VDD*%
X132080000Y-94702000D03*
%TO.P,J11,3*%
%TO.N,I2C1_SDA*%
X132080000Y-97202000D03*
%TO.P,J11,4*%
%TO.N,I2C1_SCL*%
X132080000Y-99702000D03*
%TO.P,J11,5*%
%TO.N,GND*%
X132080000Y-102202000D03*
%TD*%
D21*
%TO.P,J12,1*%
%TO.N,VDD*%
X114300000Y-70612000D03*
D22*
%TO.P,J12,2*%
%TO.N,JTCK*%
X114300000Y-68072000D03*
%TO.P,J12,3*%
%TO.N,GND*%
X114300000Y-65532000D03*
%TO.P,J12,4*%
%TO.N,JTMS*%
X114300000Y-62992000D03*
%TO.P,J12,5*%
%TO.N,NRST*%
X114300000Y-60452000D03*
%TO.P,J12,6*%
%TO.N,JTDO*%
X114300000Y-57912000D03*
%TD*%
D23*
%TO.P,JP1,1*%
%TO.N,GNDA*%
X80406000Y-72136000D03*
%TO.P,JP1,2*%
%TO.N,GND*%
X79106000Y-72136000D03*
%TD*%
%TO.P,JP2,2*%
%TO.N,VDDA*%
X80406000Y-69596000D03*
%TO.P,JP2,1*%
%TO.N,Net-(JP2-Pad1)*%
X79106000Y-69596000D03*
%TD*%
D24*
%TO.P,L1,2*%
%TO.N,VBUS*%
X96215000Y-90170000D03*
%TO.P,L1,1*%
%TO.N,Net-(D1-Pad2)*%
X93015000Y-90170000D03*
%TD*%
D25*
%TO.P,Q1,3*%
%TO.N,Net-(D2-Pad1)*%
X114300000Y-98060000D03*
%TO.P,Q1,2*%
%TO.N,GND*%
X115250000Y-100060000D03*
%TO.P,Q1,1*%
%TO.N,NC_VALVE*%
X113350000Y-100060000D03*
%TD*%
%TO.P,Q2,3*%
%TO.N,Net-(D7-Pad1)*%
X122936000Y-98060000D03*
%TO.P,Q2,2*%
%TO.N,GND*%
X123886000Y-100060000D03*
%TO.P,Q2,1*%
%TO.N,NO_VALVE*%
X121986000Y-100060000D03*
%TD*%
%TO.P,Q3,1*%
%TO.N,3_WAY_VALVE*%
X105222000Y-100060000D03*
%TO.P,Q3,2*%
%TO.N,GND*%
X107122000Y-100060000D03*
%TO.P,Q3,3*%
%TO.N,Net-(D10-Pad2)*%
X106172000Y-98060000D03*
%TD*%
%TO.P,R1,2*%
%TO.N,Net-(R1-Pad2)*%
%TA.AperFunction,SMDPad,CuDef*%
G36*
G01*
X88154500Y-91357000D02*
X88629500Y-91357000D01*
G75*
G02*
X88867000Y-91594500I0J-237500D01*
G01*
X88867000Y-92094500D01*
G75*
G02*
X88629500Y-92332000I-237500J0D01*
G01*
X88154500Y-92332000D01*
G75*
G02*
X87917000Y-92094500I0J237500D01*
G01*
X87917000Y-91594500D01*
G75*
G02*
X88154500Y-91357000I237500J0D01*
G01*
G37*
%TD.AperFunction*%
%TO.P,R1,1*%
%TO.N,GND*%
%TA.AperFunction,SMDPad,CuDef*%
G36*
G01*
X88154500Y-89532000D02*
X88629500Y-89532000D01*
G75*
G02*
X88867000Y-89769500I0J-237500D01*
G01*
X88867000Y-90269500D01*
G75*
G02*
X88629500Y-90507000I-237500J0D01*
G01*
X88154500Y-90507000D01*
G75*
G02*
X87917000Y-90269500I0J237500D01*
G01*
X87917000Y-89769500D01*
G75*
G02*
X88154500Y-89532000I237500J0D01*
G01*
G37*
%TD.AperFunction*%
%TD*%
%TO.P,R2,1*%
%TO.N,GND*%
%TA.AperFunction,SMDPad,CuDef*%
G36*
G01*
X90661500Y-106048000D02*
X90186500Y-106048000D01*
G75*
G02*
X89949000Y-105810500I0J237500D01*
G01*
X89949000Y-105310500D01*
G75*
G02*
X90186500Y-105073000I237500J0D01*
G01*
X90661500Y-105073000D01*
G75*
G02*
X90899000Y-105310500I0J-237500D01*
G01*
X90899000Y-105810500D01*
G75*
G02*
X90661500Y-106048000I-237500J0D01*
G01*
G37*
%TD.AperFunction*%
%TO.P,R2,2*%
%TO.N,Net-(R2-Pad2)*%
%TA.AperFunction,SMDPad,CuDef*%
G36*
G01*
X90661500Y-104223000D02*
X90186500Y-104223000D01*
G75*
G02*
X89949000Y-103985500I0J237500D01*
G01*
X89949000Y-103485500D01*
G75*
G02*
X90186500Y-103248000I237500J0D01*
G01*
X90661500Y-103248000D01*
G75*
G02*
X90899000Y-103485500I0J-237500D01*
G01*
X90899000Y-103985500D01*
G75*
G02*
X90661500Y-104223000I-237500J0D01*
G01*
G37*
%TD.AperFunction*%
%TD*%
%TO.P,R3,1*%
%TO.N,GND*%
%TA.AperFunction,SMDPad,CuDef*%
G36*
G01*
X94364000Y-101362500D02*
X94364000Y-101837500D01*
G75*
G02*
X94126500Y-102075000I-237500J0D01*
G01*
X93626500Y-102075000D01*
G75*
G02*
X93389000Y-101837500I0J237500D01*
G01*
X93389000Y-101362500D01*
G75*
G02*
X93626500Y-101125000I237500J0D01*
G01*
X94126500Y-101125000D01*
G75*
G02*
X94364000Y-101362500I0J-237500D01*
G01*
G37*
%TD.AperFunction*%
%TO.P,R3,2*%
%TO.N,Net-(R3-Pad2)*%
%TA.AperFunction,SMDPad,CuDef*%
G36*
G01*
X92539000Y-101362500D02*
X92539000Y-101837500D01*
G75*
G02*
X92301500Y-102075000I-237500J0D01*
G01*
X91801500Y-102075000D01*
G75*
G02*
X91564000Y-101837500I0J237500D01*
G01*
X91564000Y-101362500D01*
G75*
G02*
X91801500Y-101125000I237500J0D01*
G01*
X92301500Y-101125000D01*
G75*
G02*
X92539000Y-101362500I0J-237500D01*
G01*
G37*
%TD.AperFunction*%
%TD*%
%TO.P,R4,1*%
%TO.N,Net-(D1-Pad1)*%
%TA.AperFunction,SMDPad,CuDef*%
G36*
G01*
X97412000Y-93742500D02*
X97412000Y-94217500D01*
G75*
G02*
X97174500Y-94455000I-237500J0D01*
G01*
X96674500Y-94455000D01*
G75*
G02*
X96437000Y-94217500I0J237500D01*
G01*
X96437000Y-93742500D01*
G75*
G02*
X96674500Y-93505000I237500J0D01*
G01*
X97174500Y-93505000D01*
G75*
G02*
X97412000Y-93742500I0J-237500D01*
G01*
G37*
%TD.AperFunction*%
%TO.P,R4,2*%
%TO.N,Net-(R4-Pad2)*%
%TA.AperFunction,SMDPad,CuDef*%
G36*
G01*
X95587000Y-93742500D02*
X95587000Y-94217500D01*
G75*
G02*
X95349500Y-94455000I-237500J0D01*
G01*
X94849500Y-94455000D01*
G75*
G02*
X94612000Y-94217500I0J237500D01*
G01*
X94612000Y-93742500D01*
G75*
G02*
X94849500Y-93505000I237500J0D01*
G01*
X95349500Y-93505000D01*
G75*
G02*
X95587000Y-93742500I0J-237500D01*
G01*
G37*
%TD.AperFunction*%
%TD*%
%TO.P,R5,2*%
%TO.N,GND*%
%TA.AperFunction,SMDPad,CuDef*%
G36*
G01*
X92031000Y-93742500D02*
X92031000Y-94217500D01*
G75*
G02*
X91793500Y-94455000I-237500J0D01*
G01*
X91293500Y-94455000D01*
G75*
G02*
X91056000Y-94217500I0J237500D01*
G01*
X91056000Y-93742500D01*
G75*
G02*
X91293500Y-93505000I237500J0D01*
G01*
X91793500Y-93505000D01*
G75*
G02*
X92031000Y-93742500I0J-237500D01*
G01*
G37*
%TD.AperFunction*%
%TO.P,R5,1*%
%TO.N,Net-(R4-Pad2)*%
%TA.AperFunction,SMDPad,CuDef*%
G36*
G01*
X93856000Y-93742500D02*
X93856000Y-94217500D01*
G75*
G02*
X93618500Y-94455000I-237500J0D01*
G01*
X93118500Y-94455000D01*
G75*
G02*
X92881000Y-94217500I0J237500D01*
G01*
X92881000Y-93742500D01*
G75*
G02*
X93118500Y-93505000I237500J0D01*
G01*
X93618500Y-93505000D01*
G75*
G02*
X93856000Y-93742500I0J-237500D01*
G01*
G37*
%TD.AperFunction*%
%TD*%
%TO.P,R6,1*%
%TO.N,NC_VALVE*%
%TA.AperFunction,SMDPad,CuDef*%
G36*
G01*
X111489500Y-100460000D02*
X111014500Y-100460000D01*
G75*
G02*
X110777000Y-100222500I0J237500D01*
G01*
X110777000Y-99722500D01*
G75*
G02*
X111014500Y-99485000I237500J0D01*
G01*
X111489500Y-99485000D01*
G75*
G02*
X111727000Y-99722500I0J-237500D01*
G01*
X111727000Y-100222500D01*
G75*
G02*
X111489500Y-100460000I-237500J0D01*
G01*
G37*
%TD.AperFunction*%
%TO.P,R6,2*%
%TO.N,GND*%
%TA.AperFunction,SMDPad,CuDef*%
G36*
G01*
X111489500Y-98635000D02*
X111014500Y-98635000D01*
G75*
G02*
X110777000Y-98397500I0J237500D01*
G01*
X110777000Y-97897500D01*
G75*
G02*
X111014500Y-97660000I237500J0D01*
G01*
X111489500Y-97660000D01*
G75*
G02*
X111727000Y-97897500I0J-237500D01*
G01*
X111727000Y-98397500D01*
G75*
G02*
X111489500Y-98635000I-237500J0D01*
G01*
G37*
%TD.AperFunction*%
%TD*%
%TO.P,R7,1*%
%TO.N,Net-(R7-Pad1)*%
%TA.AperFunction,SMDPad,CuDef*%
G36*
G01*
X100460000Y-98822500D02*
X100460000Y-99297500D01*
G75*
G02*
X100222500Y-99535000I-237500J0D01*
G01*
X99722500Y-99535000D01*
G75*
G02*
X99485000Y-99297500I0J237500D01*
G01*
X99485000Y-98822500D01*
G75*
G02*
X99722500Y-98585000I237500J0D01*
G01*
X100222500Y-98585000D01*
G75*
G02*
X100460000Y-98822500I0J-237500D01*
G01*
G37*
%TD.AperFunction*%
%TO.P,R7,2*%
%TO.N,Net-(C17-Pad2)*%
%TA.AperFunction,SMDPad,CuDef*%
G36*
G01*
X98635000Y-98822500D02*
X98635000Y-99297500D01*
G75*
G02*
X98397500Y-99535000I-237500J0D01*
G01*
X97897500Y-99535000D01*
G75*
G02*
X97660000Y-99297500I0J237500D01*
G01*
X97660000Y-98822500D01*
G75*
G02*
X97897500Y-98585000I237500J0D01*
G01*
X98397500Y-98585000D01*
G75*
G02*
X98635000Y-98822500I0J-237500D01*
G01*
G37*
%TD.AperFunction*%
%TD*%
%TO.P,R8,2*%
%TO.N,Net-(D2-Pad2)*%
%TA.AperFunction,SMDPad,CuDef*%
G36*
G01*
X117585500Y-94571000D02*
X117110500Y-94571000D01*
G75*
G02*
X116873000Y-94333500I0J237500D01*
G01*
X116873000Y-93833500D01*
G75*
G02*
X117110500Y-93596000I237500J0D01*
G01*
X117585500Y-93596000D01*
G75*
G02*
X117823000Y-93833500I0J-237500D01*
G01*
X117823000Y-94333500D01*
G75*
G02*
X117585500Y-94571000I-237500J0D01*
G01*
G37*
%TD.AperFunction*%
%TO.P,R8,1*%
%TO.N,+12V*%
%TA.AperFunction,SMDPad,CuDef*%
G36*
G01*
X117585500Y-96396000D02*
X117110500Y-96396000D01*
G75*
G02*
X116873000Y-96158500I0J237500D01*
G01*
X116873000Y-95658500D01*
G75*
G02*
X117110500Y-95421000I237500J0D01*
G01*
X117585500Y-95421000D01*
G75*
G02*
X117823000Y-95658500I0J-237500D01*
G01*
X117823000Y-96158500D01*
G75*
G02*
X117585500Y-96396000I-237500J0D01*
G01*
G37*
%TD.AperFunction*%
%TD*%
%TO.P,R9,1*%
%TO.N,NO_VALVE*%
%TA.AperFunction,SMDPad,CuDef*%
G36*
G01*
X120633500Y-100460000D02*
X120158500Y-100460000D01*
G75*
G02*
X119921000Y-100222500I0J237500D01*
G01*
X119921000Y-99722500D01*
G75*
G02*
X120158500Y-99485000I237500J0D01*
G01*
X120633500Y-99485000D01*
G75*
G02*
X120871000Y-99722500I0J-237500D01*
G01*
X120871000Y-100222500D01*
G75*
G02*
X120633500Y-100460000I-237500J0D01*
G01*
G37*
%TD.AperFunction*%
%TO.P,R9,2*%
%TO.N,GND*%
%TA.AperFunction,SMDPad,CuDef*%
G36*
G01*
X120633500Y-98635000D02*
X120158500Y-98635000D01*
G75*
G02*
X119921000Y-98397500I0J237500D01*
G01*
X119921000Y-97897500D01*
G75*
G02*
X120158500Y-97660000I237500J0D01*
G01*
X120633500Y-97660000D01*
G75*
G02*
X120871000Y-97897500I0J-237500D01*
G01*
X120871000Y-98397500D01*
G75*
G02*
X120633500Y-98635000I-237500J0D01*
G01*
G37*
%TD.AperFunction*%
%TD*%
%TO.P,R10,2*%
%TO.N,Net-(D7-Pad2)*%
%TA.AperFunction,SMDPad,CuDef*%
G36*
G01*
X123361000Y-93201500D02*
X123361000Y-92726500D01*
G75*
G02*
X123598500Y-92489000I237500J0D01*
G01*
X124098500Y-92489000D01*
G75*
G02*
X124336000Y-92726500I0J-237500D01*
G01*
X124336000Y-93201500D01*
G75*
G02*
X124098500Y-93439000I-237500J0D01*
G01*
X123598500Y-93439000D01*
G75*
G02*
X123361000Y-93201500I0J237500D01*
G01*
G37*
%TD.AperFunction*%
%TO.P,R10,1*%
%TO.N,+12V*%
%TA.AperFunction,SMDPad,CuDef*%
G36*
G01*
X121536000Y-93201500D02*
X121536000Y-92726500D01*
G75*
G02*
X121773500Y-92489000I237500J0D01*
G01*
X122273500Y-92489000D01*
G75*
G02*
X122511000Y-92726500I0J-237500D01*
G01*
X122511000Y-93201500D01*
G75*
G02*
X122273500Y-93439000I-237500J0D01*
G01*
X121773500Y-93439000D01*
G75*
G02*
X121536000Y-93201500I0J237500D01*
G01*
G37*
%TD.AperFunction*%
%TD*%
%TO.P,R11,1*%
%TO.N,3_WAY_VALVE*%
%TA.AperFunction,SMDPad,CuDef*%
G36*
G01*
X103361500Y-100460000D02*
X102886500Y-100460000D01*
G75*
G02*
X102649000Y-100222500I0J237500D01*
G01*
X102649000Y-99722500D01*
G75*
G02*
X102886500Y-99485000I237500J0D01*
G01*
X103361500Y-99485000D01*
G75*
G02*
X103599000Y-99722500I0J-237500D01*
G01*
X103599000Y-100222500D01*
G75*
G02*
X103361500Y-100460000I-237500J0D01*
G01*
G37*
%TD.AperFunction*%
%TO.P,R11,2*%
%TO.N,GND*%
%TA.AperFunction,SMDPad,CuDef*%
G36*
G01*
X103361500Y-98635000D02*
X102886500Y-98635000D01*
G75*
G02*
X102649000Y-98397500I0J237500D01*
G01*
X102649000Y-97897500D01*
G75*
G02*
X102886500Y-97660000I237500J0D01*
G01*
X103361500Y-97660000D01*
G75*
G02*
X103599000Y-97897500I0J-237500D01*
G01*
X103599000Y-98397500D01*
G75*
G02*
X103361500Y-98635000I-237500J0D01*
G01*
G37*
%TD.AperFunction*%
%TD*%
%TO.P,R12,2*%
%TO.N,Net-(D8-Pad2)*%
%TA.AperFunction,SMDPad,CuDef*%
G36*
G01*
X108441500Y-94571000D02*
X107966500Y-94571000D01*
G75*
G02*
X107729000Y-94333500I0J237500D01*
G01*
X107729000Y-93833500D01*
G75*
G02*
X107966500Y-93596000I237500J0D01*
G01*
X108441500Y-93596000D01*
G75*
G02*
X108679000Y-93833500I0J-237500D01*
G01*
X108679000Y-94333500D01*
G75*
G02*
X108441500Y-94571000I-237500J0D01*
G01*
G37*
%TD.AperFunction*%
%TO.P,R12,1*%
%TO.N,+12V*%
%TA.AperFunction,SMDPad,CuDef*%
G36*
G01*
X108441500Y-96396000D02*
X107966500Y-96396000D01*
G75*
G02*
X107729000Y-96158500I0J237500D01*
G01*
X107729000Y-95658500D01*
G75*
G02*
X107966500Y-95421000I237500J0D01*
G01*
X108441500Y-95421000D01*
G75*
G02*
X108679000Y-95658500I0J-237500D01*
G01*
X108679000Y-96158500D01*
G75*
G02*
X108441500Y-96396000I-237500J0D01*
G01*
G37*
%TD.AperFunction*%
%TD*%
%TO.P,R13,2*%
%TO.N,FOOTPEDAL*%
%TA.AperFunction,SMDPad,CuDef*%
G36*
G01*
X69866500Y-59757500D02*
X70341500Y-59757500D01*
G75*
G02*
X70579000Y-59995000I0J-237500D01*
G01*
X70579000Y-60495000D01*
G75*
G02*
X70341500Y-60732500I-237500J0D01*
G01*
X69866500Y-60732500D01*
G75*
G02*
X69629000Y-60495000I0J237500D01*
G01*
X69629000Y-59995000D01*
G75*
G02*
X69866500Y-59757500I237500J0D01*
G01*
G37*
%TD.AperFunction*%
%TO.P,R13,1*%
%TO.N,VDD*%
%TA.AperFunction,SMDPad,CuDef*%
G36*
G01*
X69866500Y-57932500D02*
X70341500Y-57932500D01*
G75*
G02*
X70579000Y-58170000I0J-237500D01*
G01*
X70579000Y-58670000D01*
G75*
G02*
X70341500Y-58907500I-237500J0D01*
G01*
X69866500Y-58907500D01*
G75*
G02*
X69629000Y-58670000I0J237500D01*
G01*
X69629000Y-58170000D01*
G75*
G02*
X69866500Y-57932500I237500J0D01*
G01*
G37*
%TD.AperFunction*%
%TD*%
%TO.P,R14,2*%
%TO.N,GND*%
%TA.AperFunction,SMDPad,CuDef*%
G36*
G01*
X74593000Y-63229500D02*
X74593000Y-62754500D01*
G75*
G02*
X74830500Y-62517000I237500J0D01*
G01*
X75330500Y-62517000D01*
G75*
G02*
X75568000Y-62754500I0J-237500D01*
G01*
X75568000Y-63229500D01*
G75*
G02*
X75330500Y-63467000I-237500J0D01*
G01*
X74830500Y-63467000D01*
G75*
G02*
X74593000Y-63229500I0J237500D01*
G01*
G37*
%TD.AperFunction*%
%TO.P,R14,1*%
%TO.N,FOOTPEDAL*%
%TA.AperFunction,SMDPad,CuDef*%
G36*
G01*
X72768000Y-63229500D02*
X72768000Y-62754500D01*
G75*
G02*
X73005500Y-62517000I237500J0D01*
G01*
X73505500Y-62517000D01*
G75*
G02*
X73743000Y-62754500I0J-237500D01*
G01*
X73743000Y-63229500D01*
G75*
G02*
X73505500Y-63467000I-237500J0D01*
G01*
X73005500Y-63467000D01*
G75*
G02*
X72768000Y-63229500I0J237500D01*
G01*
G37*
%TD.AperFunction*%
%TD*%
%TO.P,R15,2*%
%TO.N,I2C1_SDA*%
%TA.AperFunction,SMDPad,CuDef*%
G36*
G01*
X126762500Y-93389000D02*
X127237500Y-93389000D01*
G75*
G02*
X127475000Y-93626500I0J-237500D01*
G01*
X127475000Y-94126500D01*
G75*
G02*
X127237500Y-94364000I-237500J0D01*
G01*
X126762500Y-94364000D01*
G75*
G02*
X126525000Y-94126500I0J237500D01*
G01*
X126525000Y-93626500D01*
G75*
G02*
X126762500Y-93389000I237500J0D01*
G01*
G37*
%TD.AperFunction*%
%TO.P,R15,1*%
%TO.N,VDD*%
%TA.AperFunction,SMDPad,CuDef*%
G36*
G01*
X126762500Y-91564000D02*
X127237500Y-91564000D01*
G75*
G02*
X127475000Y-91801500I0J-237500D01*
G01*
X127475000Y-92301500D01*
G75*
G02*
X127237500Y-92539000I-237500J0D01*
G01*
X126762500Y-92539000D01*
G75*
G02*
X126525000Y-92301500I0J237500D01*
G01*
X126525000Y-91801500D01*
G75*
G02*
X126762500Y-91564000I237500J0D01*
G01*
G37*
%TD.AperFunction*%
%TD*%
%TO.P,R16,2*%
%TO.N,GND*%
%TA.AperFunction,SMDPad,CuDef*%
G36*
G01*
X63737500Y-73235000D02*
X63262500Y-73235000D01*
G75*
G02*
X63025000Y-72997500I0J237500D01*
G01*
X63025000Y-72497500D01*
G75*
G02*
X63262500Y-72260000I237500J0D01*
G01*
X63737500Y-72260000D01*
G75*
G02*
X63975000Y-72497500I0J-237500D01*
G01*
X63975000Y-72997500D01*
G75*
G02*
X63737500Y-73235000I-237500J0D01*
G01*
G37*
%TD.AperFunction*%
%TO.P,R16,1*%
%TO.N,MOTOR_PWM*%
%TA.AperFunction,SMDPad,CuDef*%
G36*
G01*
X63737500Y-75060000D02*
X63262500Y-75060000D01*
G75*
G02*
X63025000Y-74822500I0J237500D01*
G01*
X63025000Y-74322500D01*
G75*
G02*
X63262500Y-74085000I237500J0D01*
G01*
X63737500Y-74085000D01*
G75*
G02*
X63975000Y-74322500I0J-237500D01*
G01*
X63975000Y-74822500D01*
G75*
G02*
X63737500Y-75060000I-237500J0D01*
G01*
G37*
%TD.AperFunction*%
%TD*%
%TO.P,R17,1*%
%TO.N,VDD*%
%TA.AperFunction,SMDPad,CuDef*%
G36*
G01*
X127237500Y-101984000D02*
X126762500Y-101984000D01*
G75*
G02*
X126525000Y-101746500I0J237500D01*
G01*
X126525000Y-101246500D01*
G75*
G02*
X126762500Y-101009000I237500J0D01*
G01*
X127237500Y-101009000D01*
G75*
G02*
X127475000Y-101246500I0J-237500D01*
G01*
X127475000Y-101746500D01*
G75*
G02*
X127237500Y-101984000I-237500J0D01*
G01*
G37*
%TD.AperFunction*%
%TO.P,R17,2*%
%TO.N,I2C1_SCL*%
%TA.AperFunction,SMDPad,CuDef*%
G36*
G01*
X127237500Y-100159000D02*
X126762500Y-100159000D01*
G75*
G02*
X126525000Y-99921500I0J237500D01*
G01*
X126525000Y-99421500D01*
G75*
G02*
X126762500Y-99184000I237500J0D01*
G01*
X127237500Y-99184000D01*
G75*
G02*
X127475000Y-99421500I0J-237500D01*
G01*
X127475000Y-99921500D01*
G75*
G02*
X127237500Y-100159000I-237500J0D01*
G01*
G37*
%TD.AperFunction*%
%TD*%
%TO.P,R18,2*%
%TO.N,GND*%
%TA.AperFunction,SMDPad,CuDef*%
G36*
G01*
X83549500Y-60535000D02*
X83074500Y-60535000D01*
G75*
G02*
X82837000Y-60297500I0J237500D01*
G01*
X82837000Y-59797500D01*
G75*
G02*
X83074500Y-59560000I237500J0D01*
G01*
X83549500Y-59560000D01*
G75*
G02*
X83787000Y-59797500I0J-237500D01*
G01*
X83787000Y-60297500D01*
G75*
G02*
X83549500Y-60535000I-237500J0D01*
G01*
G37*
%TD.AperFunction*%
%TO.P,R18,1*%
%TO.N,BOOT0*%
%TA.AperFunction,SMDPad,CuDef*%
G36*
G01*
X83549500Y-62360000D02*
X83074500Y-62360000D01*
G75*
G02*
X82837000Y-62122500I0J237500D01*
G01*
X82837000Y-61622500D01*
G75*
G02*
X83074500Y-61385000I237500J0D01*
G01*
X83549500Y-61385000D01*
G75*
G02*
X83787000Y-61622500I0J-237500D01*
G01*
X83787000Y-62122500D01*
G75*
G02*
X83549500Y-62360000I-237500J0D01*
G01*
G37*
%TD.AperFunction*%
%TD*%
%TO.P,R19,1*%
%TO.N,Net-(R19-Pad1)*%
%TA.AperFunction,SMDPad,CuDef*%
G36*
G01*
X98822500Y-78864000D02*
X99297500Y-78864000D01*
G75*
G02*
X99535000Y-79101500I0J-237500D01*
G01*
X99535000Y-79601500D01*
G75*
G02*
X99297500Y-79839000I-237500J0D01*
G01*
X98822500Y-79839000D01*
G75*
G02*
X98585000Y-79601500I0J237500D01*
G01*
X98585000Y-79101500D01*
G75*
G02*
X98822500Y-78864000I237500J0D01*
G01*
G37*
%TD.AperFunction*%
%TO.P,R19,2*%
%TO.N,Net-(R19-Pad2)*%
%TA.AperFunction,SMDPad,CuDef*%
G36*
G01*
X98822500Y-80689000D02*
X99297500Y-80689000D01*
G75*
G02*
X99535000Y-80926500I0J-237500D01*
G01*
X99535000Y-81426500D01*
G75*
G02*
X99297500Y-81664000I-237500J0D01*
G01*
X98822500Y-81664000D01*
G75*
G02*
X98585000Y-81426500I0J237500D01*
G01*
X98585000Y-80926500D01*
G75*
G02*
X98822500Y-80689000I237500J0D01*
G01*
G37*
%TD.AperFunction*%
%TD*%
%TO.P,R20,1*%
%TO.N,VBUS*%
%TA.AperFunction,SMDPad,CuDef*%
G36*
G01*
X112030500Y-76324000D02*
X112505500Y-76324000D01*
G75*
G02*
X112743000Y-76561500I0J-237500D01*
G01*
X112743000Y-77061500D01*
G75*
G02*
X112505500Y-77299000I-237500J0D01*
G01*
X112030500Y-77299000D01*
G75*
G02*
X111793000Y-77061500I0J237500D01*
G01*
X111793000Y-76561500D01*
G75*
G02*
X112030500Y-76324000I237500J0D01*
G01*
G37*
%TD.AperFunction*%
%TO.P,R20,2*%
%TO.N,IAREF*%
%TA.AperFunction,SMDPad,CuDef*%
G36*
G01*
X112030500Y-78149000D02*
X112505500Y-78149000D01*
G75*
G02*
X112743000Y-78386500I0J-237500D01*
G01*
X112743000Y-78886500D01*
G75*
G02*
X112505500Y-79124000I-237500J0D01*
G01*
X112030500Y-79124000D01*
G75*
G02*
X111793000Y-78886500I0J237500D01*
G01*
X111793000Y-78386500D01*
G75*
G02*
X112030500Y-78149000I237500J0D01*
G01*
G37*
%TD.AperFunction*%
%TD*%
%TO.P,R21,1*%
%TO.N,IAREF*%
%TA.AperFunction,SMDPad,CuDef*%
G36*
G01*
X109096000Y-83074500D02*
X109096000Y-83549500D01*
G75*
G02*
X108858500Y-83787000I-237500J0D01*
G01*
X108358500Y-83787000D01*
G75*
G02*
X108121000Y-83549500I0J237500D01*
G01*
X108121000Y-83074500D01*
G75*
G02*
X108358500Y-82837000I237500J0D01*
G01*
X108858500Y-82837000D01*
G75*
G02*
X109096000Y-83074500I0J-237500D01*
G01*
G37*
%TD.AperFunction*%
%TO.P,R21,2*%
%TO.N,GND*%
%TA.AperFunction,SMDPad,CuDef*%
G36*
G01*
X107271000Y-83074500D02*
X107271000Y-83549500D01*
G75*
G02*
X107033500Y-83787000I-237500J0D01*
G01*
X106533500Y-83787000D01*
G75*
G02*
X106296000Y-83549500I0J237500D01*
G01*
X106296000Y-83074500D01*
G75*
G02*
X106533500Y-82837000I237500J0D01*
G01*
X107033500Y-82837000D01*
G75*
G02*
X107271000Y-83074500I0J-237500D01*
G01*
G37*
%TD.AperFunction*%
%TD*%
D26*
%TO.P,RV1,3*%
%TO.N,Net-(RV1-Pad3)*%
X101720000Y-76740000D03*
D27*
%TO.P,RV1,2*%
%TO.N,Net-(R19-Pad2)*%
X102870000Y-80740000D03*
D26*
%TO.P,RV1,1*%
%TO.N,Net-(R19-Pad1)*%
X104020000Y-76740000D03*
%TD*%
%TO.P,RV2,1*%
%TO.N,GND*%
X109735000Y-76740000D03*
D27*
%TO.P,RV2,2*%
%TO.N,IAREF*%
X108585000Y-80740000D03*
D26*
%TO.P,RV2,3*%
%TO.N,VBUS*%
X107435000Y-76740000D03*
%TD*%
D28*
%TO.P,SW2,1*%
%TO.N,GND*%
X129286000Y-109650000D03*
%TO.P,SW2,2*%
%TO.N,NRST*%
X129286000Y-106250000D03*
%TD*%
D29*
%TO.P,U1,2*%
%TO.N,VDD*%
X108204000Y-60350000D03*
D30*
X108204000Y-66650000D03*
%TO.P,U1,3*%
%TO.N,VBUS*%
X110504000Y-66650000D03*
%TO.P,U1,1*%
%TO.N,GND*%
X105904000Y-66650000D03*
%TD*%
D31*
%TO.P,U2,1*%
%TO.N,Net-(R7-Pad1)*%
X93140000Y-96790000D03*
%TO.P,U2,2*%
%TO.N,Net-(R4-Pad2)*%
X93140000Y-97290000D03*
D32*
%TO.P,U2,3*%
%TO.N,VBUS*%
X92855000Y-97790000D03*
D31*
%TO.P,U2,4*%
%TO.N,GND*%
X93140000Y-98290000D03*
D32*
%TO.P,U2,5*%
X92855000Y-98790000D03*
D31*
%TO.P,U2,6*%
%TO.N,Net-(D1-Pad2)*%
X96090000Y-98790000D03*
%TO.P,U2,7*%
X96090000Y-98290000D03*
D32*
%TO.P,U2,8*%
%TO.N,VBUS*%
X96375000Y-97790000D03*
%TO.P,U2,9*%
X96375000Y-97290000D03*
%TO.P,U2,10*%
%TO.N,Net-(C20-Pad2)*%
X96375000Y-96790000D03*
D33*
%TO.P,U2,11*%
%TO.N,GND*%
X94165000Y-97155000D03*
D34*
X94365000Y-96240000D03*
D35*
X94365000Y-96160000D03*
D34*
X94865000Y-96240000D03*
X94365000Y-99340000D03*
X94865000Y-99340000D03*
D35*
X94865000Y-96160000D03*
X94365000Y-99420000D03*
X94865000Y-99420000D03*
D33*
X95065000Y-97155000D03*
X94165000Y-98425000D03*
X95065000Y-98425000D03*
D36*
X94615000Y-97790000D03*
D32*
%TO.P,U2,1*%
%TO.N,Net-(R7-Pad1)*%
X92855000Y-96790000D03*
%TO.P,U2,2*%
%TO.N,Net-(R4-Pad2)*%
X92855000Y-97290000D03*
D31*
%TO.P,U2,3*%
%TO.N,VBUS*%
X93140000Y-97790000D03*
D32*
%TO.P,U2,4*%
%TO.N,GND*%
X92855000Y-98290000D03*
D31*
%TO.P,U2,5*%
X93140000Y-98790000D03*
D32*
%TO.P,U2,6*%
%TO.N,Net-(D1-Pad2)*%
X96375000Y-98790000D03*
%TO.P,U2,7*%
X96375000Y-98290000D03*
D31*
%TO.P,U2,8*%
%TO.N,VBUS*%
X96090000Y-97790000D03*
%TO.P,U2,9*%
X96090000Y-97290000D03*
%TO.P,U2,10*%
%TO.N,Net-(C20-Pad2)*%
X96090000Y-96790000D03*
%TD*%
%TO.P,U3,1*%
%TO.N,VDD*%
%TA.AperFunction,SMDPad,CuDef*%
G36*
G01*
X83466000Y-63381000D02*
X83466000Y-63231000D01*
G75*
G02*
X83541000Y-63156000I75000J0D01*
G01*
X84941000Y-63156000D01*
G75*
G02*
X85016000Y-63231000I0J-75000D01*
G01*
X85016000Y-63381000D01*
G75*
G02*
X84941000Y-63456000I-75000J0D01*
G01*
X83541000Y-63456000D01*
G75*
G02*
X83466000Y-63381000I0J75000D01*
G01*
G37*
%TD.AperFunction*%
%TO.P,U3,2*%
%TO.N,Net-(U3-Pad2)*%
%TA.AperFunction,SMDPad,CuDef*%
G36*
G01*
X83466000Y-63881000D02*
X83466000Y-63731000D01*
G75*
G02*
X83541000Y-63656000I75000J0D01*
G01*
X84941000Y-63656000D01*
G75*
G02*
X85016000Y-63731000I0J-75000D01*
G01*
X85016000Y-63881000D01*
G75*
G02*
X84941000Y-63956000I-75000J0D01*
G01*
X83541000Y-63956000D01*
G75*
G02*
X83466000Y-63881000I0J75000D01*
G01*
G37*
%TD.AperFunction*%
%TO.P,U3,3*%
%TO.N,Net-(U3-Pad3)*%
%TA.AperFunction,SMDPad,CuDef*%
G36*
G01*
X83466000Y-64381000D02*
X83466000Y-64231000D01*
G75*
G02*
X83541000Y-64156000I75000J0D01*
G01*
X84941000Y-64156000D01*
G75*
G02*
X85016000Y-64231000I0J-75000D01*
G01*
X85016000Y-64381000D01*
G75*
G02*
X84941000Y-64456000I-75000J0D01*
G01*
X83541000Y-64456000D01*
G75*
G02*
X83466000Y-64381000I0J75000D01*
G01*
G37*
%TD.AperFunction*%
%TO.P,U3,4*%
%TO.N,Net-(U3-Pad4)*%
%TA.AperFunction,SMDPad,CuDef*%
G36*
G01*
X83466000Y-64881000D02*
X83466000Y-64731000D01*
G75*
G02*
X83541000Y-64656000I75000J0D01*
G01*
X84941000Y-64656000D01*
G75*
G02*
X85016000Y-64731000I0J-75000D01*
G01*
X85016000Y-64881000D01*
G75*
G02*
X84941000Y-64956000I-75000J0D01*
G01*
X83541000Y-64956000D01*
G75*
G02*
X83466000Y-64881000I0J75000D01*
G01*
G37*
%TD.AperFunction*%
%TO.P,U3,5*%
%TO.N,OSC_IN*%
%TA.AperFunction,SMDPad,CuDef*%
G36*
G01*
X83466000Y-65381000D02*
X83466000Y-65231000D01*
G75*
G02*
X83541000Y-65156000I75000J0D01*
G01*
X84941000Y-65156000D01*
G75*
G02*
X85016000Y-65231000I0J-75000D01*
G01*
X85016000Y-65381000D01*
G75*
G02*
X84941000Y-65456000I-75000J0D01*
G01*
X83541000Y-65456000D01*
G75*
G02*
X83466000Y-65381000I0J75000D01*
G01*
G37*
%TD.AperFunction*%
%TO.P,U3,6*%
%TO.N,OSC_OUT*%
%TA.AperFunction,SMDPad,CuDef*%
G36*
G01*
X83466000Y-65881000D02*
X83466000Y-65731000D01*
G75*
G02*
X83541000Y-65656000I75000J0D01*
G01*
X84941000Y-65656000D01*
G75*
G02*
X85016000Y-65731000I0J-75000D01*
G01*
X85016000Y-65881000D01*
G75*
G02*
X84941000Y-65956000I-75000J0D01*
G01*
X83541000Y-65956000D01*
G75*
G02*
X83466000Y-65881000I0J75000D01*
G01*
G37*
%TD.AperFunction*%
%TO.P,U3,7*%
%TO.N,NRST*%
%TA.AperFunction,SMDPad,CuDef*%
G36*
G01*
X83466000Y-66381000D02*
X83466000Y-66231000D01*
G75*
G02*
X83541000Y-66156000I75000J0D01*
G01*
X84941000Y-66156000D01*
G75*
G02*
X85016000Y-66231000I0J-75000D01*
G01*
X85016000Y-66381000D01*
G75*
G02*
X84941000Y-66456000I-75000J0D01*
G01*
X83541000Y-66456000D01*
G75*
G02*
X83466000Y-66381000I0J75000D01*
G01*
G37*
%TD.AperFunction*%
%TO.P,U3,8*%
%TO.N,Net-(U3-Pad8)*%
%TA.AperFunction,SMDPad,CuDef*%
G36*
G01*
X83466000Y-66881000D02*
X83466000Y-66731000D01*
G75*
G02*
X83541000Y-66656000I75000J0D01*
G01*
X84941000Y-66656000D01*
G75*
G02*
X85016000Y-66731000I0J-75000D01*
G01*
X85016000Y-66881000D01*
G75*
G02*
X84941000Y-66956000I-75000J0D01*
G01*
X83541000Y-66956000D01*
G75*
G02*
X83466000Y-66881000I0J75000D01*
G01*
G37*
%TD.AperFunction*%
%TO.P,U3,9*%
%TO.N,Net-(U3-Pad9)*%
%TA.AperFunction,SMDPad,CuDef*%
G36*
G01*
X83466000Y-67381000D02*
X83466000Y-67231000D01*
G75*
G02*
X83541000Y-67156000I75000J0D01*
G01*
X84941000Y-67156000D01*
G75*
G02*
X85016000Y-67231000I0J-75000D01*
G01*
X85016000Y-67381000D01*
G75*
G02*
X84941000Y-67456000I-75000J0D01*
G01*
X83541000Y-67456000D01*
G75*
G02*
X83466000Y-67381000I0J75000D01*
G01*
G37*
%TD.AperFunction*%
%TO.P,U3,10*%
%TO.N,Net-(U3-Pad10)*%
%TA.AperFunction,SMDPad,CuDef*%
G36*
G01*
X83466000Y-67881000D02*
X83466000Y-67731000D01*
G75*
G02*
X83541000Y-67656000I75000J0D01*
G01*
X84941000Y-67656000D01*
G75*
G02*
X85016000Y-67731000I0J-75000D01*
G01*
X85016000Y-67881000D01*
G75*
G02*
X84941000Y-67956000I-75000J0D01*
G01*
X83541000Y-67956000D01*
G75*
G02*
X83466000Y-67881000I0J75000D01*
G01*
G37*
%TD.AperFunction*%
%TO.P,U3,11*%
%TO.N,Net-(U3-Pad11)*%
%TA.AperFunction,SMDPad,CuDef*%
G36*
G01*
X83466000Y-68381000D02*
X83466000Y-68231000D01*
G75*
G02*
X83541000Y-68156000I75000J0D01*
G01*
X84941000Y-68156000D01*
G75*
G02*
X85016000Y-68231000I0J-75000D01*
G01*
X85016000Y-68381000D01*
G75*
G02*
X84941000Y-68456000I-75000J0D01*
G01*
X83541000Y-68456000D01*
G75*
G02*
X83466000Y-68381000I0J75000D01*
G01*
G37*
%TD.AperFunction*%
%TO.P,U3,12*%
%TO.N,GNDA*%
%TA.AperFunction,SMDPad,CuDef*%
G36*
G01*
X83466000Y-68881000D02*
X83466000Y-68731000D01*
G75*
G02*
X83541000Y-68656000I75000J0D01*
G01*
X84941000Y-68656000D01*
G75*
G02*
X85016000Y-68731000I0J-75000D01*
G01*
X85016000Y-68881000D01*
G75*
G02*
X84941000Y-68956000I-75000J0D01*
G01*
X83541000Y-68956000D01*
G75*
G02*
X83466000Y-68881000I0J75000D01*
G01*
G37*
%TD.AperFunction*%
%TO.P,U3,13*%
%TO.N,VDDA*%
%TA.AperFunction,SMDPad,CuDef*%
G36*
G01*
X83466000Y-69381000D02*
X83466000Y-69231000D01*
G75*
G02*
X83541000Y-69156000I75000J0D01*
G01*
X84941000Y-69156000D01*
G75*
G02*
X85016000Y-69231000I0J-75000D01*
G01*
X85016000Y-69381000D01*
G75*
G02*
X84941000Y-69456000I-75000J0D01*
G01*
X83541000Y-69456000D01*
G75*
G02*
X83466000Y-69381000I0J75000D01*
G01*
G37*
%TD.AperFunction*%
%TO.P,U3,14*%
%TO.N,FOOTPEDAL_AUX*%
%TA.AperFunction,SMDPad,CuDef*%
G36*
G01*
X83466000Y-69881000D02*
X83466000Y-69731000D01*
G75*
G02*
X83541000Y-69656000I75000J0D01*
G01*
X84941000Y-69656000D01*
G75*
G02*
X85016000Y-69731000I0J-75000D01*
G01*
X85016000Y-69881000D01*
G75*
G02*
X84941000Y-69956000I-75000J0D01*
G01*
X83541000Y-69956000D01*
G75*
G02*
X83466000Y-69881000I0J75000D01*
G01*
G37*
%TD.AperFunction*%
%TO.P,U3,15*%
%TO.N,VACSENSE*%
%TA.AperFunction,SMDPad,CuDef*%
G36*
G01*
X83466000Y-70381000D02*
X83466000Y-70231000D01*
G75*
G02*
X83541000Y-70156000I75000J0D01*
G01*
X84941000Y-70156000D01*
G75*
G02*
X85016000Y-70231000I0J-75000D01*
G01*
X85016000Y-70381000D01*
G75*
G02*
X84941000Y-70456000I-75000J0D01*
G01*
X83541000Y-70456000D01*
G75*
G02*
X83466000Y-70381000I0J75000D01*
G01*
G37*
%TD.AperFunction*%
%TO.P,U3,16*%
%TO.N,UART2_TX*%
%TA.AperFunction,SMDPad,CuDef*%
G36*
G01*
X83466000Y-70881000D02*
X83466000Y-70731000D01*
G75*
G02*
X83541000Y-70656000I75000J0D01*
G01*
X84941000Y-70656000D01*
G75*
G02*
X85016000Y-70731000I0J-75000D01*
G01*
X85016000Y-70881000D01*
G75*
G02*
X84941000Y-70956000I-75000J0D01*
G01*
X83541000Y-70956000D01*
G75*
G02*
X83466000Y-70881000I0J75000D01*
G01*
G37*
%TD.AperFunction*%
%TO.P,U3,17*%
%TO.N,UART2_RX*%
%TA.AperFunction,SMDPad,CuDef*%
G36*
G01*
X86016000Y-73431000D02*
X86016000Y-72031000D01*
G75*
G02*
X86091000Y-71956000I75000J0D01*
G01*
X86241000Y-71956000D01*
G75*
G02*
X86316000Y-72031000I0J-75000D01*
G01*
X86316000Y-73431000D01*
G75*
G02*
X86241000Y-73506000I-75000J0D01*
G01*
X86091000Y-73506000D01*
G75*
G02*
X86016000Y-73431000I0J75000D01*
G01*
G37*
%TD.AperFunction*%
%TO.P,U3,18*%
%TO.N,GND*%
%TA.AperFunction,SMDPad,CuDef*%
G36*
G01*
X86516000Y-73431000D02*
X86516000Y-72031000D01*
G75*
G02*
X86591000Y-71956000I75000J0D01*
G01*
X86741000Y-71956000D01*
G75*
G02*
X86816000Y-72031000I0J-75000D01*
G01*
X86816000Y-73431000D01*
G75*
G02*
X86741000Y-73506000I-75000J0D01*
G01*
X86591000Y-73506000D01*
G75*
G02*
X86516000Y-73431000I0J75000D01*
G01*
G37*
%TD.AperFunction*%
%TO.P,U3,19*%
%TO.N,VDD*%
%TA.AperFunction,SMDPad,CuDef*%
G36*
G01*
X87016000Y-73431000D02*
X87016000Y-72031000D01*
G75*
G02*
X87091000Y-71956000I75000J0D01*
G01*
X87241000Y-71956000D01*
G75*
G02*
X87316000Y-72031000I0J-75000D01*
G01*
X87316000Y-73431000D01*
G75*
G02*
X87241000Y-73506000I-75000J0D01*
G01*
X87091000Y-73506000D01*
G75*
G02*
X87016000Y-73431000I0J75000D01*
G01*
G37*
%TD.AperFunction*%
%TO.P,U3,20*%
%TO.N,SPI1_CS*%
%TA.AperFunction,SMDPad,CuDef*%
G36*
G01*
X87516000Y-73431000D02*
X87516000Y-72031000D01*
G75*
G02*
X87591000Y-71956000I75000J0D01*
G01*
X87741000Y-71956000D01*
G75*
G02*
X87816000Y-72031000I0J-75000D01*
G01*
X87816000Y-73431000D01*
G75*
G02*
X87741000Y-73506000I-75000J0D01*
G01*
X87591000Y-73506000D01*
G75*
G02*
X87516000Y-73431000I0J75000D01*
G01*
G37*
%TD.AperFunction*%
%TO.P,U3,21*%
%TO.N,SPI1_CLK*%
%TA.AperFunction,SMDPad,CuDef*%
G36*
G01*
X88016000Y-73431000D02*
X88016000Y-72031000D01*
G75*
G02*
X88091000Y-71956000I75000J0D01*
G01*
X88241000Y-71956000D01*
G75*
G02*
X88316000Y-72031000I0J-75000D01*
G01*
X88316000Y-73431000D01*
G75*
G02*
X88241000Y-73506000I-75000J0D01*
G01*
X88091000Y-73506000D01*
G75*
G02*
X88016000Y-73431000I0J75000D01*
G01*
G37*
%TD.AperFunction*%
%TO.P,U3,22*%
%TO.N,SPI1_MISO*%
%TA.AperFunction,SMDPad,CuDef*%
G36*
G01*
X88516000Y-73431000D02*
X88516000Y-72031000D01*
G75*
G02*
X88591000Y-71956000I75000J0D01*
G01*
X88741000Y-71956000D01*
G75*
G02*
X88816000Y-72031000I0J-75000D01*
G01*
X88816000Y-73431000D01*
G75*
G02*
X88741000Y-73506000I-75000J0D01*
G01*
X88591000Y-73506000D01*
G75*
G02*
X88516000Y-73431000I0J75000D01*
G01*
G37*
%TD.AperFunction*%
%TO.P,U3,23*%
%TO.N,SPI1_MOSI*%
%TA.AperFunction,SMDPad,CuDef*%
G36*
G01*
X89016000Y-73431000D02*
X89016000Y-72031000D01*
G75*
G02*
X89091000Y-71956000I75000J0D01*
G01*
X89241000Y-71956000D01*
G75*
G02*
X89316000Y-72031000I0J-75000D01*
G01*
X89316000Y-73431000D01*
G75*
G02*
X89241000Y-73506000I-75000J0D01*
G01*
X89091000Y-73506000D01*
G75*
G02*
X89016000Y-73431000I0J75000D01*
G01*
G37*
%TD.AperFunction*%
%TO.P,U3,24*%
%TO.N,Net-(U3-Pad24)*%
%TA.AperFunction,SMDPad,CuDef*%
G36*
G01*
X89516000Y-73431000D02*
X89516000Y-72031000D01*
G75*
G02*
X89591000Y-71956000I75000J0D01*
G01*
X89741000Y-71956000D01*
G75*
G02*
X89816000Y-72031000I0J-75000D01*
G01*
X89816000Y-73431000D01*
G75*
G02*
X89741000Y-73506000I-75000J0D01*
G01*
X89591000Y-73506000D01*
G75*
G02*
X89516000Y-73431000I0J75000D01*
G01*
G37*
%TD.AperFunction*%
%TO.P,U3,25*%
%TO.N,Net-(U3-Pad25)*%
%TA.AperFunction,SMDPad,CuDef*%
G36*
G01*
X90016000Y-73431000D02*
X90016000Y-72031000D01*
G75*
G02*
X90091000Y-71956000I75000J0D01*
G01*
X90241000Y-71956000D01*
G75*
G02*
X90316000Y-72031000I0J-75000D01*
G01*
X90316000Y-73431000D01*
G75*
G02*
X90241000Y-73506000I-75000J0D01*
G01*
X90091000Y-73506000D01*
G75*
G02*
X90016000Y-73431000I0J75000D01*
G01*
G37*
%TD.AperFunction*%
%TO.P,U3,26*%
%TO.N,Net-(U3-Pad26)*%
%TA.AperFunction,SMDPad,CuDef*%
G36*
G01*
X90516000Y-73431000D02*
X90516000Y-72031000D01*
G75*
G02*
X90591000Y-71956000I75000J0D01*
G01*
X90741000Y-71956000D01*
G75*
G02*
X90816000Y-72031000I0J-75000D01*
G01*
X90816000Y-73431000D01*
G75*
G02*
X90741000Y-73506000I-75000J0D01*
G01*
X90591000Y-73506000D01*
G75*
G02*
X90516000Y-73431000I0J75000D01*
G01*
G37*
%TD.AperFunction*%
%TO.P,U3,27*%
%TO.N,Net-(JP2-Pad1)*%
%TA.AperFunction,SMDPad,CuDef*%
G36*
G01*
X91016000Y-73431000D02*
X91016000Y-72031000D01*
G75*
G02*
X91091000Y-71956000I75000J0D01*
G01*
X91241000Y-71956000D01*
G75*
G02*
X91316000Y-72031000I0J-75000D01*
G01*
X91316000Y-73431000D01*
G75*
G02*
X91241000Y-73506000I-75000J0D01*
G01*
X91091000Y-73506000D01*
G75*
G02*
X91016000Y-73431000I0J75000D01*
G01*
G37*
%TD.AperFunction*%
%TO.P,U3,28*%
%TO.N,BOOT1*%
%TA.AperFunction,SMDPad,CuDef*%
G36*
G01*
X91516000Y-73431000D02*
X91516000Y-72031000D01*
G75*
G02*
X91591000Y-71956000I75000J0D01*
G01*
X91741000Y-71956000D01*
G75*
G02*
X91816000Y-72031000I0J-75000D01*
G01*
X91816000Y-73431000D01*
G75*
G02*
X91741000Y-73506000I-75000J0D01*
G01*
X91591000Y-73506000D01*
G75*
G02*
X91516000Y-73431000I0J75000D01*
G01*
G37*
%TD.AperFunction*%
%TO.P,U3,29*%
%TO.N,FOOTPEDAL*%
%TA.AperFunction,SMDPad,CuDef*%
G36*
G01*
X92016000Y-73431000D02*
X92016000Y-72031000D01*
G75*
G02*
X92091000Y-71956000I75000J0D01*
G01*
X92241000Y-71956000D01*
G75*
G02*
X92316000Y-72031000I0J-75000D01*
G01*
X92316000Y-73431000D01*
G75*
G02*
X92241000Y-73506000I-75000J0D01*
G01*
X92091000Y-73506000D01*
G75*
G02*
X92016000Y-73431000I0J75000D01*
G01*
G37*
%TD.AperFunction*%
%TO.P,U3,30*%
%TO.N,NC_VALVE*%
%TA.AperFunction,SMDPad,CuDef*%
G36*
G01*
X92516000Y-73431000D02*
X92516000Y-72031000D01*
G75*
G02*
X92591000Y-71956000I75000J0D01*
G01*
X92741000Y-71956000D01*
G75*
G02*
X92816000Y-72031000I0J-75000D01*
G01*
X92816000Y-73431000D01*
G75*
G02*
X92741000Y-73506000I-75000J0D01*
G01*
X92591000Y-73506000D01*
G75*
G02*
X92516000Y-73431000I0J75000D01*
G01*
G37*
%TD.AperFunction*%
%TO.P,U3,31*%
%TO.N,GND*%
%TA.AperFunction,SMDPad,CuDef*%
G36*
G01*
X93016000Y-73431000D02*
X93016000Y-72031000D01*
G75*
G02*
X93091000Y-71956000I75000J0D01*
G01*
X93241000Y-71956000D01*
G75*
G02*
X93316000Y-72031000I0J-75000D01*
G01*
X93316000Y-73431000D01*
G75*
G02*
X93241000Y-73506000I-75000J0D01*
G01*
X93091000Y-73506000D01*
G75*
G02*
X93016000Y-73431000I0J75000D01*
G01*
G37*
%TD.AperFunction*%
%TO.P,U3,32*%
%TO.N,VDD*%
%TA.AperFunction,SMDPad,CuDef*%
G36*
G01*
X93516000Y-73431000D02*
X93516000Y-72031000D01*
G75*
G02*
X93591000Y-71956000I75000J0D01*
G01*
X93741000Y-71956000D01*
G75*
G02*
X93816000Y-72031000I0J-75000D01*
G01*
X93816000Y-73431000D01*
G75*
G02*
X93741000Y-73506000I-75000J0D01*
G01*
X93591000Y-73506000D01*
G75*
G02*
X93516000Y-73431000I0J75000D01*
G01*
G37*
%TD.AperFunction*%
%TO.P,U3,33*%
%TO.N,NO_VALVE*%
%TA.AperFunction,SMDPad,CuDef*%
G36*
G01*
X94816000Y-70881000D02*
X94816000Y-70731000D01*
G75*
G02*
X94891000Y-70656000I75000J0D01*
G01*
X96291000Y-70656000D01*
G75*
G02*
X96366000Y-70731000I0J-75000D01*
G01*
X96366000Y-70881000D01*
G75*
G02*
X96291000Y-70956000I-75000J0D01*
G01*
X94891000Y-70956000D01*
G75*
G02*
X94816000Y-70881000I0J75000D01*
G01*
G37*
%TD.AperFunction*%
%TO.P,U3,34*%
%TO.N,3_WAY_VALVE*%
%TA.AperFunction,SMDPad,CuDef*%
G36*
G01*
X94816000Y-70381000D02*
X94816000Y-70231000D01*
G75*
G02*
X94891000Y-70156000I75000J0D01*
G01*
X96291000Y-70156000D01*
G75*
G02*
X96366000Y-70231000I0J-75000D01*
G01*
X96366000Y-70381000D01*
G75*
G02*
X96291000Y-70456000I-75000J0D01*
G01*
X94891000Y-70456000D01*
G75*
G02*
X94816000Y-70381000I0J75000D01*
G01*
G37*
%TD.AperFunction*%
%TO.P,U3,35*%
%TO.N,MOTOR_PWM*%
%TA.AperFunction,SMDPad,CuDef*%
G36*
G01*
X94816000Y-69881000D02*
X94816000Y-69731000D01*
G75*
G02*
X94891000Y-69656000I75000J0D01*
G01*
X96291000Y-69656000D01*
G75*
G02*
X96366000Y-69731000I0J-75000D01*
G01*
X96366000Y-69881000D01*
G75*
G02*
X96291000Y-69956000I-75000J0D01*
G01*
X94891000Y-69956000D01*
G75*
G02*
X94816000Y-69881000I0J75000D01*
G01*
G37*
%TD.AperFunction*%
%TO.P,U3,36*%
%TO.N,Net-(U3-Pad36)*%
%TA.AperFunction,SMDPad,CuDef*%
G36*
G01*
X94816000Y-69381000D02*
X94816000Y-69231000D01*
G75*
G02*
X94891000Y-69156000I75000J0D01*
G01*
X96291000Y-69156000D01*
G75*
G02*
X96366000Y-69231000I0J-75000D01*
G01*
X96366000Y-69381000D01*
G75*
G02*
X96291000Y-69456000I-75000J0D01*
G01*
X94891000Y-69456000D01*
G75*
G02*
X94816000Y-69381000I0J75000D01*
G01*
G37*
%TD.AperFunction*%
%TO.P,U3,37*%
%TO.N,Net-(U3-Pad37)*%
%TA.AperFunction,SMDPad,CuDef*%
G36*
G01*
X94816000Y-68881000D02*
X94816000Y-68731000D01*
G75*
G02*
X94891000Y-68656000I75000J0D01*
G01*
X96291000Y-68656000D01*
G75*
G02*
X96366000Y-68731000I0J-75000D01*
G01*
X96366000Y-68881000D01*
G75*
G02*
X96291000Y-68956000I-75000J0D01*
G01*
X94891000Y-68956000D01*
G75*
G02*
X94816000Y-68881000I0J75000D01*
G01*
G37*
%TD.AperFunction*%
%TO.P,U3,38*%
%TO.N,Net-(U3-Pad38)*%
%TA.AperFunction,SMDPad,CuDef*%
G36*
G01*
X94816000Y-68381000D02*
X94816000Y-68231000D01*
G75*
G02*
X94891000Y-68156000I75000J0D01*
G01*
X96291000Y-68156000D01*
G75*
G02*
X96366000Y-68231000I0J-75000D01*
G01*
X96366000Y-68381000D01*
G75*
G02*
X96291000Y-68456000I-75000J0D01*
G01*
X94891000Y-68456000D01*
G75*
G02*
X94816000Y-68381000I0J75000D01*
G01*
G37*
%TD.AperFunction*%
%TO.P,U3,39*%
%TO.N,Net-(U3-Pad39)*%
%TA.AperFunction,SMDPad,CuDef*%
G36*
G01*
X94816000Y-67881000D02*
X94816000Y-67731000D01*
G75*
G02*
X94891000Y-67656000I75000J0D01*
G01*
X96291000Y-67656000D01*
G75*
G02*
X96366000Y-67731000I0J-75000D01*
G01*
X96366000Y-67881000D01*
G75*
G02*
X96291000Y-67956000I-75000J0D01*
G01*
X94891000Y-67956000D01*
G75*
G02*
X94816000Y-67881000I0J75000D01*
G01*
G37*
%TD.AperFunction*%
%TO.P,U3,40*%
%TO.N,Net-(U3-Pad40)*%
%TA.AperFunction,SMDPad,CuDef*%
G36*
G01*
X94816000Y-67381000D02*
X94816000Y-67231000D01*
G75*
G02*
X94891000Y-67156000I75000J0D01*
G01*
X96291000Y-67156000D01*
G75*
G02*
X96366000Y-67231000I0J-75000D01*
G01*
X96366000Y-67381000D01*
G75*
G02*
X96291000Y-67456000I-75000J0D01*
G01*
X94891000Y-67456000D01*
G75*
G02*
X94816000Y-67381000I0J75000D01*
G01*
G37*
%TD.AperFunction*%
%TO.P,U3,41*%
%TO.N,Net-(U3-Pad41)*%
%TA.AperFunction,SMDPad,CuDef*%
G36*
G01*
X94816000Y-66881000D02*
X94816000Y-66731000D01*
G75*
G02*
X94891000Y-66656000I75000J0D01*
G01*
X96291000Y-66656000D01*
G75*
G02*
X96366000Y-66731000I0J-75000D01*
G01*
X96366000Y-66881000D01*
G75*
G02*
X96291000Y-66956000I-75000J0D01*
G01*
X94891000Y-66956000D01*
G75*
G02*
X94816000Y-66881000I0J75000D01*
G01*
G37*
%TD.AperFunction*%
%TO.P,U3,42*%
%TO.N,UART1_TX*%
%TA.AperFunction,SMDPad,CuDef*%
G36*
G01*
X94816000Y-66381000D02*
X94816000Y-66231000D01*
G75*
G02*
X94891000Y-66156000I75000J0D01*
G01*
X96291000Y-66156000D01*
G75*
G02*
X96366000Y-66231000I0J-75000D01*
G01*
X96366000Y-66381000D01*
G75*
G02*
X96291000Y-66456000I-75000J0D01*
G01*
X94891000Y-66456000D01*
G75*
G02*
X94816000Y-66381000I0J75000D01*
G01*
G37*
%TD.AperFunction*%
%TO.P,U3,43*%
%TO.N,UART1_RX*%
%TA.AperFunction,SMDPad,CuDef*%
G36*
G01*
X94816000Y-65881000D02*
X94816000Y-65731000D01*
G75*
G02*
X94891000Y-65656000I75000J0D01*
G01*
X96291000Y-65656000D01*
G75*
G02*
X96366000Y-65731000I0J-75000D01*
G01*
X96366000Y-65881000D01*
G75*
G02*
X96291000Y-65956000I-75000J0D01*
G01*
X94891000Y-65956000D01*
G75*
G02*
X94816000Y-65881000I0J75000D01*
G01*
G37*
%TD.AperFunction*%
%TO.P,U3,44*%
%TO.N,D-*%
%TA.AperFunction,SMDPad,CuDef*%
G36*
G01*
X94816000Y-65381000D02*
X94816000Y-65231000D01*
G75*
G02*
X94891000Y-65156000I75000J0D01*
G01*
X96291000Y-65156000D01*
G75*
G02*
X96366000Y-65231000I0J-75000D01*
G01*
X96366000Y-65381000D01*
G75*
G02*
X96291000Y-65456000I-75000J0D01*
G01*
X94891000Y-65456000D01*
G75*
G02*
X94816000Y-65381000I0J75000D01*
G01*
G37*
%TD.AperFunction*%
%TO.P,U3,45*%
%TO.N,D+*%
%TA.AperFunction,SMDPad,CuDef*%
G36*
G01*
X94816000Y-64881000D02*
X94816000Y-64731000D01*
G75*
G02*
X94891000Y-64656000I75000J0D01*
G01*
X96291000Y-64656000D01*
G75*
G02*
X96366000Y-64731000I0J-75000D01*
G01*
X96366000Y-64881000D01*
G75*
G02*
X96291000Y-64956000I-75000J0D01*
G01*
X94891000Y-64956000D01*
G75*
G02*
X94816000Y-64881000I0J75000D01*
G01*
G37*
%TD.AperFunction*%
%TO.P,U3,46*%
%TO.N,JTMS*%
%TA.AperFunction,SMDPad,CuDef*%
G36*
G01*
X94816000Y-64381000D02*
X94816000Y-64231000D01*
G75*
G02*
X94891000Y-64156000I75000J0D01*
G01*
X96291000Y-64156000D01*
G75*
G02*
X96366000Y-64231000I0J-75000D01*
G01*
X96366000Y-64381000D01*
G75*
G02*
X96291000Y-64456000I-75000J0D01*
G01*
X94891000Y-64456000D01*
G75*
G02*
X94816000Y-64381000I0J75000D01*
G01*
G37*
%TD.AperFunction*%
%TO.P,U3,47*%
%TO.N,GND*%
%TA.AperFunction,SMDPad,CuDef*%
G36*
G01*
X94816000Y-63881000D02*
X94816000Y-63731000D01*
G75*
G02*
X94891000Y-63656000I75000J0D01*
G01*
X96291000Y-63656000D01*
G75*
G02*
X96366000Y-63731000I0J-75000D01*
G01*
X96366000Y-63881000D01*
G75*
G02*
X96291000Y-63956000I-75000J0D01*
G01*
X94891000Y-63956000D01*
G75*
G02*
X94816000Y-63881000I0J75000D01*
G01*
G37*
%TD.AperFunction*%
%TO.P,U3,48*%
%TO.N,VDD*%
%TA.AperFunction,SMDPad,CuDef*%
G36*
G01*
X94816000Y-63381000D02*
X94816000Y-63231000D01*
G75*
G02*
X94891000Y-63156000I75000J0D01*
G01*
X96291000Y-63156000D01*
G75*
G02*
X96366000Y-63231000I0J-75000D01*
G01*
X96366000Y-63381000D01*
G75*
G02*
X96291000Y-63456000I-75000J0D01*
G01*
X94891000Y-63456000D01*
G75*
G02*
X94816000Y-63381000I0J75000D01*
G01*
G37*
%TD.AperFunction*%
%TO.P,U3,49*%
%TO.N,JTCK*%
%TA.AperFunction,SMDPad,CuDef*%
G36*
G01*
X93516000Y-62081000D02*
X93516000Y-60681000D01*
G75*
G02*
X93591000Y-60606000I75000J0D01*
G01*
X93741000Y-60606000D01*
G75*
G02*
X93816000Y-60681000I0J-75000D01*
G01*
X93816000Y-62081000D01*
G75*
G02*
X93741000Y-62156000I-75000J0D01*
G01*
X93591000Y-62156000D01*
G75*
G02*
X93516000Y-62081000I0J75000D01*
G01*
G37*
%TD.AperFunction*%
%TO.P,U3,50*%
%TO.N,Net-(U3-Pad50)*%
%TA.AperFunction,SMDPad,CuDef*%
G36*
G01*
X93016000Y-62081000D02*
X93016000Y-60681000D01*
G75*
G02*
X93091000Y-60606000I75000J0D01*
G01*
X93241000Y-60606000D01*
G75*
G02*
X93316000Y-60681000I0J-75000D01*
G01*
X93316000Y-62081000D01*
G75*
G02*
X93241000Y-62156000I-75000J0D01*
G01*
X93091000Y-62156000D01*
G75*
G02*
X93016000Y-62081000I0J75000D01*
G01*
G37*
%TD.AperFunction*%
%TO.P,U3,51*%
%TO.N,Net-(U3-Pad51)*%
%TA.AperFunction,SMDPad,CuDef*%
G36*
G01*
X92516000Y-62081000D02*
X92516000Y-60681000D01*
G75*
G02*
X92591000Y-60606000I75000J0D01*
G01*
X92741000Y-60606000D01*
G75*
G02*
X92816000Y-60681000I0J-75000D01*
G01*
X92816000Y-62081000D01*
G75*
G02*
X92741000Y-62156000I-75000J0D01*
G01*
X92591000Y-62156000D01*
G75*
G02*
X92516000Y-62081000I0J75000D01*
G01*
G37*
%TD.AperFunction*%
%TO.P,U3,52*%
%TO.N,Net-(U3-Pad52)*%
%TA.AperFunction,SMDPad,CuDef*%
G36*
G01*
X92016000Y-62081000D02*
X92016000Y-60681000D01*
G75*
G02*
X92091000Y-60606000I75000J0D01*
G01*
X92241000Y-60606000D01*
G75*
G02*
X92316000Y-60681000I0J-75000D01*
G01*
X92316000Y-62081000D01*
G75*
G02*
X92241000Y-62156000I-75000J0D01*
G01*
X92091000Y-62156000D01*
G75*
G02*
X92016000Y-62081000I0J75000D01*
G01*
G37*
%TD.AperFunction*%
%TO.P,U3,53*%
%TO.N,Net-(U3-Pad53)*%
%TA.AperFunction,SMDPad,CuDef*%
G36*
G01*
X91516000Y-62081000D02*
X91516000Y-60681000D01*
G75*
G02*
X91591000Y-60606000I75000J0D01*
G01*
X91741000Y-60606000D01*
G75*
G02*
X91816000Y-60681000I0J-75000D01*
G01*
X91816000Y-62081000D01*
G75*
G02*
X91741000Y-62156000I-75000J0D01*
G01*
X91591000Y-62156000D01*
G75*
G02*
X91516000Y-62081000I0J75000D01*
G01*
G37*
%TD.AperFunction*%
%TO.P,U3,54*%
%TO.N,Net-(U3-Pad54)*%
%TA.AperFunction,SMDPad,CuDef*%
G36*
G01*
X91016000Y-62081000D02*
X91016000Y-60681000D01*
G75*
G02*
X91091000Y-60606000I75000J0D01*
G01*
X91241000Y-60606000D01*
G75*
G02*
X91316000Y-60681000I0J-75000D01*
G01*
X91316000Y-62081000D01*
G75*
G02*
X91241000Y-62156000I-75000J0D01*
G01*
X91091000Y-62156000D01*
G75*
G02*
X91016000Y-62081000I0J75000D01*
G01*
G37*
%TD.AperFunction*%
%TO.P,U3,55*%
%TO.N,JTDO*%
%TA.AperFunction,SMDPad,CuDef*%
G36*
G01*
X90516000Y-62081000D02*
X90516000Y-60681000D01*
G75*
G02*
X90591000Y-60606000I75000J0D01*
G01*
X90741000Y-60606000D01*
G75*
G02*
X90816000Y-60681000I0J-75000D01*
G01*
X90816000Y-62081000D01*
G75*
G02*
X90741000Y-62156000I-75000J0D01*
G01*
X90591000Y-62156000D01*
G75*
G02*
X90516000Y-62081000I0J75000D01*
G01*
G37*
%TD.AperFunction*%
%TO.P,U3,56*%
%TO.N,Net-(U3-Pad56)*%
%TA.AperFunction,SMDPad,CuDef*%
G36*
G01*
X90016000Y-62081000D02*
X90016000Y-60681000D01*
G75*
G02*
X90091000Y-60606000I75000J0D01*
G01*
X90241000Y-60606000D01*
G75*
G02*
X90316000Y-60681000I0J-75000D01*
G01*
X90316000Y-62081000D01*
G75*
G02*
X90241000Y-62156000I-75000J0D01*
G01*
X90091000Y-62156000D01*
G75*
G02*
X90016000Y-62081000I0J75000D01*
G01*
G37*
%TD.AperFunction*%
%TO.P,U3,57*%
%TO.N,Net-(U3-Pad57)*%
%TA.AperFunction,SMDPad,CuDef*%
G36*
G01*
X89516000Y-62081000D02*
X89516000Y-60681000D01*
G75*
G02*
X89591000Y-60606000I75000J0D01*
G01*
X89741000Y-60606000D01*
G75*
G02*
X89816000Y-60681000I0J-75000D01*
G01*
X89816000Y-62081000D01*
G75*
G02*
X89741000Y-62156000I-75000J0D01*
G01*
X89591000Y-62156000D01*
G75*
G02*
X89516000Y-62081000I0J75000D01*
G01*
G37*
%TD.AperFunction*%
%TO.P,U3,58*%
%TO.N,I2C1_SCL*%
%TA.AperFunction,SMDPad,CuDef*%
G36*
G01*
X89016000Y-62081000D02*
X89016000Y-60681000D01*
G75*
G02*
X89091000Y-60606000I75000J0D01*
G01*
X89241000Y-60606000D01*
G75*
G02*
X89316000Y-60681000I0J-75000D01*
G01*
X89316000Y-62081000D01*
G75*
G02*
X89241000Y-62156000I-75000J0D01*
G01*
X89091000Y-62156000D01*
G75*
G02*
X89016000Y-62081000I0J75000D01*
G01*
G37*
%TD.AperFunction*%
%TO.P,U3,59*%
%TO.N,I2C1_SDA*%
%TA.AperFunction,SMDPad,CuDef*%
G36*
G01*
X88516000Y-62081000D02*
X88516000Y-60681000D01*
G75*
G02*
X88591000Y-60606000I75000J0D01*
G01*
X88741000Y-60606000D01*
G75*
G02*
X88816000Y-60681000I0J-75000D01*
G01*
X88816000Y-62081000D01*
G75*
G02*
X88741000Y-62156000I-75000J0D01*
G01*
X88591000Y-62156000D01*
G75*
G02*
X88516000Y-62081000I0J75000D01*
G01*
G37*
%TD.AperFunction*%
%TO.P,U3,60*%
%TO.N,BOOT0*%
%TA.AperFunction,SMDPad,CuDef*%
G36*
G01*
X88016000Y-62081000D02*
X88016000Y-60681000D01*
G75*
G02*
X88091000Y-60606000I75000J0D01*
G01*
X88241000Y-60606000D01*
G75*
G02*
X88316000Y-60681000I0J-75000D01*
G01*
X88316000Y-62081000D01*
G75*
G02*
X88241000Y-62156000I-75000J0D01*
G01*
X88091000Y-62156000D01*
G75*
G02*
X88016000Y-62081000I0J75000D01*
G01*
G37*
%TD.AperFunction*%
%TO.P,U3,61*%
%TO.N,Net-(U3-Pad61)*%
%TA.AperFunction,SMDPad,CuDef*%
G36*
G01*
X87516000Y-62081000D02*
X87516000Y-60681000D01*
G75*
G02*
X87591000Y-60606000I75000J0D01*
G01*
X87741000Y-60606000D01*
G75*
G02*
X87816000Y-60681000I0J-75000D01*
G01*
X87816000Y-62081000D01*
G75*
G02*
X87741000Y-62156000I-75000J0D01*
G01*
X87591000Y-62156000D01*
G75*
G02*
X87516000Y-62081000I0J75000D01*
G01*
G37*
%TD.AperFunction*%
%TO.P,U3,62*%
%TO.N,Net-(U3-Pad62)*%
%TA.AperFunction,SMDPad,CuDef*%
G36*
G01*
X87016000Y-62081000D02*
X87016000Y-60681000D01*
G75*
G02*
X87091000Y-60606000I75000J0D01*
G01*
X87241000Y-60606000D01*
G75*
G02*
X87316000Y-60681000I0J-75000D01*
G01*
X87316000Y-62081000D01*
G75*
G02*
X87241000Y-62156000I-75000J0D01*
G01*
X87091000Y-62156000D01*
G75*
G02*
X87016000Y-62081000I0J75000D01*
G01*
G37*
%TD.AperFunction*%
%TO.P,U3,63*%
%TO.N,GND*%
%TA.AperFunction,SMDPad,CuDef*%
G36*
G01*
X86516000Y-62081000D02*
X86516000Y-60681000D01*
G75*
G02*
X86591000Y-60606000I75000J0D01*
G01*
X86741000Y-60606000D01*
G75*
G02*
X86816000Y-60681000I0J-75000D01*
G01*
X86816000Y-62081000D01*
G75*
G02*
X86741000Y-62156000I-75000J0D01*
G01*
X86591000Y-62156000D01*
G75*
G02*
X86516000Y-62081000I0J75000D01*
G01*
G37*
%TD.AperFunction*%
%TO.P,U3,64*%
%TO.N,VDD*%
%TA.AperFunction,SMDPad,CuDef*%
G36*
G01*
X86016000Y-62081000D02*
X86016000Y-60681000D01*
G75*
G02*
X86091000Y-60606000I75000J0D01*
G01*
X86241000Y-60606000D01*
G75*
G02*
X86316000Y-60681000I0J-75000D01*
G01*
X86316000Y-62081000D01*
G75*
G02*
X86241000Y-62156000I-75000J0D01*
G01*
X86091000Y-62156000D01*
G75*
G02*
X86016000Y-62081000I0J75000D01*
G01*
G37*
%TD.AperFunction*%
%TD*%
D37*
%TO.P,U5,1*%
%TO.N,VBUS*%
X86487000Y-82739000D03*
%TO.P,U5,2*%
X87757000Y-82739000D03*
%TO.P,U5,3*%
%TO.N,GND*%
X89027000Y-82739000D03*
%TO.P,U5,4*%
%TO.N,VDDA*%
X90297000Y-82739000D03*
%TO.P,U5,5*%
%TO.N,IAREF*%
X91567000Y-82739000D03*
%TO.P,U5,6*%
%TO.N,Net-(U4-Pad1)*%
X92837000Y-82739000D03*
%TO.P,U5,7*%
%TO.N,Net-(U4-Pad4)*%
X94107000Y-82739000D03*
%TO.P,U5,8*%
%TO.N,Net-(R19-Pad2)*%
X95377000Y-82739000D03*
%TO.P,U5,9*%
%TO.N,Net-(R19-Pad1)*%
X95377000Y-77789000D03*
%TO.P,U5,10*%
%TO.N,VACSENSE*%
X94107000Y-77789000D03*
%TO.P,U5,11*%
X92837000Y-77789000D03*
%TO.P,U5,12*%
%TO.N,GND*%
X91567000Y-77789000D03*
%TO.P,U5,13*%
%TO.N,Net-(U5-Pad13)*%
X90297000Y-77789000D03*
%TO.P,U5,14*%
%TO.N,VDDA*%
X89027000Y-77789000D03*
%TO.P,U5,15*%
%TO.N,Net-(U5-Pad15)*%
X87757000Y-77789000D03*
%TO.P,U5,16*%
%TO.N,Net-(U5-Pad16)*%
X86487000Y-77789000D03*
%TD*%
D38*
%TO.P,USB1,13*%
%TO.N,Net-(R2-Pad2)*%
X83880000Y-102618000D03*
X83880000Y-93978000D03*
D39*
X88060000Y-102618000D03*
X88060000Y-93978000D03*
D40*
%TO.P,USB1,6*%
%TO.N,D+*%
X88975000Y-98048000D03*
%TO.P,USB1,7*%
%TO.N,D-*%
X88975000Y-98548000D03*
%TO.P,USB1,8*%
%TO.N,D+*%
X88975000Y-99048000D03*
%TO.P,USB1,5*%
%TO.N,D-*%
X88975000Y-97548000D03*
%TO.P,USB1,9*%
%TO.N,Net-(USB1-Pad9)*%
X88975000Y-99548000D03*
%TO.P,USB1,4*%
%TO.N,Net-(R1-Pad2)*%
X88975000Y-97048000D03*
%TO.P,USB1,10*%
%TO.N,Net-(R3-Pad2)*%
X88975000Y-100048000D03*
%TO.P,USB1,3*%
%TO.N,Net-(USB1-Pad3)*%
X88975000Y-96548000D03*
D41*
%TO.P,USB1,2*%
%TO.N,USB_VIN*%
X88975000Y-95848000D03*
%TO.P,USB1,11*%
X88975000Y-100748000D03*
%TO.P,USB1,1*%
%TO.N,GND*%
X88975000Y-95073000D03*
%TO.P,USB1,12*%
X88975000Y-101523000D03*
%TD*%
D29*
%TO.P,Q4,4*%
%TO.N,N/C*%
X73660000Y-65938000D03*
D30*
%TO.P,Q4,2*%
%TO.N,GND*%
X73660000Y-72238000D03*
%TO.P,Q4,3*%
%TO.N,Net-(D11-Pad2)*%
X75960000Y-72238000D03*
%TO.P,Q4,1*%
%TO.N,MOTOR_PWM*%
X71360000Y-72238000D03*
%TD*%
D15*
%TO.P,D5,1*%
%TO.N,D-*%
X91440000Y-96512000D03*
%TO.P,D5,2*%
%TO.N,GND*%
X91440000Y-95512000D03*
%TD*%
D42*
%TO.P,J5,5*%
%TO.N,SPI1_MISO*%
X99572000Y-52578000D03*
%TO.P,J5,4*%
%TO.N,SPI1_CLK*%
X99072000Y-52578000D03*
%TO.P,J5,3*%
%TO.N,SPI1_CS*%
X98572000Y-52578000D03*
%TO.P,J5,2*%
%TO.N,VDD*%
X98072000Y-52578000D03*
%TO.P,J5,1*%
X97572000Y-52578000D03*
%TO.P,J5,6*%
%TO.N,SPI1_MOSI*%
X100072000Y-52578000D03*
%TO.P,J5,7*%
%TO.N,I2C1_SCL*%
X100572000Y-52578000D03*
%TO.P,J5,8*%
%TO.N,I2C1_SDA*%
X101072000Y-52578000D03*
%TO.P,J5,9*%
%TO.N,GND*%
X101572000Y-52578000D03*
%TO.P,J5,10*%
X102072000Y-52578000D03*
D43*
%TO.P,J5,S1*%
X96782000Y-55228000D03*
%TO.P,J5,S2*%
X102862000Y-55228000D03*
%TD*%
%TO.P,SW1,1*%
%TO.N,USB_VIN*%
%TA.AperFunction,ComponentPad*%
G36*
G01*
X125056000Y-85864000D02*
X125056000Y-87364000D01*
G75*
G02*
X124806000Y-87614000I-250000J0D01*
G01*
X123606000Y-87614000D01*
G75*
G02*
X123356000Y-87364000I0J250000D01*
G01*
X123356000Y-85864000D01*
G75*
G02*
X123606000Y-85614000I250000J0D01*
G01*
X124806000Y-85614000D01*
G75*
G02*
X125056000Y-85864000I0J-250000D01*
G01*
G37*
%TD.AperFunction*%
D16*
%TO.P,SW1,2*%
%TO.N,Net-(F2-Pad1)*%
X121706000Y-86614000D03*
%TD*%
D15*
%TO.P,D12,1*%
%TO.N,FOOTPEDAL_AUX*%
X69342000Y-67048000D03*
%TO.P,D12,2*%
%TO.N,GND*%
X69342000Y-66048000D03*
%TD*%
D44*
%TO.N,GND*%
X90424000Y-106680000D03*
X100584000Y-103124000D03*
X90170000Y-94234000D03*
X94996000Y-101600000D03*
X83312000Y-85090000D03*
X90162108Y-101883054D03*
X91883469Y-99556948D03*
X64770000Y-71120000D03*
X74168000Y-74168000D03*
X83058000Y-82550000D03*
X109220000Y-72898000D03*
X109220000Y-72898000D03*
X87568806Y-58267991D03*
X77216000Y-65278000D03*
X74930000Y-60452000D03*
X71120000Y-63500000D03*
X98044000Y-108966000D03*
X103378000Y-97028000D03*
X111252000Y-97028000D03*
X116064882Y-100359108D03*
X124401409Y-100059635D03*
X128778000Y-110744000D03*
X133350000Y-104902000D03*
X108856235Y-100982223D03*
X119975510Y-97042653D03*
X98298000Y-94488000D03*
X89408000Y-89916000D03*
X102870000Y-89916000D03*
X111506000Y-75438000D03*
X107442000Y-84836000D03*
X110490000Y-90932000D03*
X94234000Y-95758000D03*
X94747406Y-99350990D03*
X90645804Y-85719948D03*
X91386729Y-74639010D03*
X78740000Y-73442990D03*
X82843509Y-59230828D03*
X98057474Y-71911199D03*
X105554009Y-68580000D03*
X103632000Y-54864000D03*
X96774000Y-54102000D03*
X102870000Y-52578000D03*
X90965162Y-76278932D03*
X99096990Y-62266990D03*
X70358000Y-65278000D03*
%TO.N,VBUS*%
X91871176Y-97930967D03*
X96814910Y-96077904D03*
X96012000Y-100847320D03*
X95504000Y-105918000D03*
X129286000Y-97536000D03*
X129540000Y-93472000D03*
X90170000Y-84328000D03*
X87122000Y-84328000D03*
X95250000Y-87376000D03*
X92456000Y-84836000D03*
%TO.N,+12V*%
X70104000Y-83820000D03*
X85090000Y-100838000D03*
X108458000Y-97028000D03*
X105410000Y-101600000D03*
%TO.N,VDDA*%
X84582000Y-74422000D03*
X86360000Y-75946000D03*
X113284000Y-80264000D03*
X103959379Y-82911678D03*
X98298000Y-83566000D03*
%TO.N,NRST*%
X128778000Y-104902000D03*
X120396000Y-92964000D03*
X99481774Y-67602435D03*
X94223188Y-67595572D03*
%TO.N,Net-(C20-Pad2)*%
X95758000Y-95758000D03*
X99060000Y-96774000D03*
%TO.N,Net-(D1-Pad1)*%
X100076000Y-92202000D03*
X97865470Y-92417567D03*
X98552000Y-88392000D03*
X97790000Y-85090000D03*
%TO.N,Net-(D1-Pad2)*%
X97042328Y-99544352D03*
X94251232Y-92981224D03*
%TO.N,FOOTPEDAL*%
X67056000Y-76708000D03*
X67056000Y-73406000D03*
X69850000Y-63500000D03*
X90336088Y-74134113D03*
%TO.N,D-*%
X88387340Y-108966000D03*
X86868000Y-97028000D03*
X98048660Y-65527340D03*
%TO.N,D+*%
X89662000Y-108966000D03*
X87376000Y-99314000D03*
X93555162Y-66220012D03*
%TO.N,Net-(F2-Pad1)*%
X115824000Y-96774000D03*
X85648748Y-105336012D03*
X117337782Y-98598159D03*
%TO.N,FOOTPEDAL_AUX*%
X77470000Y-69342000D03*
X82296000Y-70358000D03*
%TO.N,UART1_RX*%
X98044000Y-66548000D03*
%TO.N,UART1_TX*%
X97540660Y-68575340D03*
%TO.N,I2C1_SDA*%
X102362000Y-65532000D03*
X88891010Y-62992000D03*
X100628562Y-56286682D03*
%TO.N,I2C1_SCL*%
X128270000Y-99568000D03*
X101636990Y-66548000D03*
X89242660Y-63928145D03*
X89408000Y-59944000D03*
X99323038Y-58474232D03*
X96012000Y-60960000D03*
X94742000Y-59944000D03*
%TO.N,JTCK*%
X93726000Y-59690000D03*
X92649219Y-65410438D03*
X92274587Y-67033823D03*
X94183850Y-68594798D03*
%TO.N,JTMS*%
X100838000Y-61976000D03*
X92456000Y-58674000D03*
%TO.N,JTDO*%
X89916000Y-58674000D03*
%TO.N,SPI1_MOSI*%
X104648000Y-53086000D03*
X99822000Y-53848000D03*
X94488000Y-53086000D03*
X68072000Y-60452000D03*
X74168000Y-53340000D03*
X87122000Y-80010000D03*
X92710000Y-76200000D03*
X66802000Y-66548000D03*
X88646000Y-80010000D03*
%TO.N,SPI1_MISO*%
X103378000Y-71882000D03*
X98930398Y-71423318D03*
X95250000Y-71882000D03*
X103861442Y-62197671D03*
X91249404Y-70612000D03*
X89662000Y-66802000D03*
X92443051Y-64274949D03*
X93341625Y-64687757D03*
X99568000Y-64516000D03*
X101854000Y-63500000D03*
X103378000Y-64770000D03*
X105410000Y-54610000D03*
%TO.N,SPI1_CLK*%
X94742000Y-80574032D03*
X105664000Y-78486000D03*
X102108000Y-61214000D03*
X102362000Y-58674000D03*
X104210060Y-64215294D03*
X92767965Y-80829965D03*
X89582573Y-75978393D03*
X99655223Y-55021458D03*
%TO.N,SPI1_CS*%
X87923696Y-71057413D03*
X88081982Y-69260289D03*
X88211988Y-67099255D03*
X91153118Y-64285562D03*
X93778281Y-62787735D03*
X98511364Y-54897940D03*
%TO.N,GNDA*%
X82042000Y-68580000D03*
X78306665Y-70865999D03*
%TO.N,Net-(JP2-Pad1)*%
X82296000Y-73152000D03*
X86925135Y-71111272D03*
%TO.N,NC_VALVE*%
X95056164Y-76091408D03*
X92679880Y-71127168D03*
%TO.N,NO_VALVE*%
X121412000Y-98806000D03*
X119634000Y-93726000D03*
%TO.N,3_WAY_VALVE*%
X102362000Y-99314000D03*
X102362000Y-96266000D03*
X102870000Y-94234000D03*
X97250576Y-70588869D03*
%TO.N,MOTOR_PWM*%
X71120000Y-74676000D03*
X63500000Y-76454000D03*
X72644000Y-70358000D03*
X84582000Y-71882000D03*
X86633654Y-69657678D03*
X92287033Y-69197314D03*
%TO.N,Net-(R7-Pad1)*%
X93218000Y-95758000D03*
X93472000Y-100076000D03*
X97028000Y-100584000D03*
X101346000Y-98806000D03*
%TO.N,BOOT0*%
X86106000Y-64008000D03*
X87630000Y-64262000D03*
X81788000Y-60960000D03*
%TO.N,Net-(R19-Pad1)*%
X99060000Y-78232000D03*
X102638329Y-78276658D03*
X96520000Y-78232000D03*
%TO.N,Net-(R19-Pad2)*%
X103380777Y-82096053D03*
X99568135Y-82042347D03*
X96520000Y-82804000D03*
%TO.N,IAREF*%
X104648000Y-81788000D03*
X96484948Y-81534000D03*
%TO.N,USB_VIN*%
X90277972Y-95534094D03*
X90424248Y-100918011D03*
%TO.N,BOOT1*%
X85852000Y-67310000D03*
%TO.N,VACSENSE*%
X93980000Y-75946000D03*
X98044000Y-76708000D03*
X95503992Y-74544022D03*
X90837021Y-69303866D03*
%TO.N,Net-(U4-Pad1)*%
X102616000Y-88900000D03*
%TO.N,Net-(U4-Pad4)*%
X95884948Y-80590520D03*
X106172000Y-81788000D03*
X107696000Y-82340002D03*
%TO.N,VDD*%
X81280000Y-66802000D03*
X108204000Y-68580000D03*
X107950000Y-64770000D03*
X85852000Y-58420000D03*
X100076000Y-73152000D03*
X101346000Y-106172000D03*
X128016000Y-91186000D03*
X128016000Y-101092000D03*
X94167024Y-72897347D03*
X96520000Y-56388000D03*
X95758000Y-58928000D03*
X88347162Y-75603989D03*
X98228568Y-60114497D03*
%TD*%
D45*
%TO.N,GND*%
X100584000Y-103124000D02*
X99098500Y-103124000D01*
X90424000Y-106680000D02*
X90424000Y-105560500D01*
X93140000Y-98790000D02*
X93140000Y-98290000D01*
X88975000Y-101523000D02*
X89331000Y-101523000D01*
X90170000Y-94234000D02*
X90170000Y-94488000D01*
X89585000Y-95073000D02*
X88975000Y-95073000D01*
X91289500Y-94234000D02*
X91543500Y-93980000D01*
X90170000Y-94234000D02*
X91289500Y-94234000D01*
D46*
X89331000Y-95073000D02*
X90170000Y-94234000D01*
X88975000Y-95073000D02*
X89331000Y-95073000D01*
X91440000Y-94083500D02*
X91543500Y-93980000D01*
X91440000Y-95512000D02*
X91440000Y-94083500D01*
X84328000Y-85497500D02*
X86360000Y-85497500D01*
X86360000Y-85497500D02*
X88392000Y-85497500D01*
X88392000Y-85497500D02*
X90424000Y-85497500D01*
X89027000Y-84862500D02*
X89027000Y-82739000D01*
X88392000Y-85497500D02*
X89027000Y-84862500D01*
X83719500Y-85497500D02*
X83312000Y-85090000D01*
X84328000Y-85497500D02*
X83719500Y-85497500D01*
X89802054Y-101523000D02*
X90162108Y-101883054D01*
X88975000Y-101523000D02*
X89802054Y-101523000D01*
D45*
X93140000Y-98790000D02*
X92373052Y-99556948D01*
X92373052Y-99556948D02*
X91883469Y-99556948D01*
X91872417Y-99568000D02*
X91883469Y-99556948D01*
X90932000Y-99568000D02*
X91872417Y-99568000D01*
X99922500Y-102462500D02*
X100584000Y-103124000D01*
X99922500Y-100584000D02*
X99922500Y-102462500D01*
D47*
X63500000Y-72390000D02*
X64770000Y-71120000D01*
X63500000Y-72747500D02*
X63500000Y-72390000D01*
X73660000Y-73660000D02*
X74168000Y-74168000D01*
X73660000Y-72238000D02*
X73660000Y-73660000D01*
X80772000Y-80264000D02*
X83058000Y-82550000D01*
X80708000Y-80264000D02*
X80772000Y-80264000D01*
X80708000Y-78650500D02*
X83312000Y-76046500D01*
X80708000Y-80264000D02*
X80708000Y-78650500D01*
X84635000Y-76046500D02*
X86005500Y-74676000D01*
X83312000Y-76046500D02*
X84635000Y-76046500D01*
X110236000Y-71882000D02*
X109220000Y-72898000D01*
X110236000Y-71474500D02*
X110236000Y-71882000D01*
X107796500Y-71474500D02*
X109220000Y-72898000D01*
X107696000Y-71474500D02*
X107796500Y-71474500D01*
X87222500Y-58614297D02*
X87568806Y-58267991D01*
X87222500Y-59436000D02*
X87222500Y-58614297D01*
X77470000Y-65532000D02*
X77216000Y-65278000D01*
X78385500Y-65532000D02*
X77470000Y-65532000D01*
X76046500Y-60452000D02*
X76200000Y-60298500D01*
X74930000Y-60452000D02*
X76046500Y-60452000D01*
X75080500Y-60602500D02*
X74930000Y-60452000D01*
X75080500Y-62992000D02*
X75080500Y-60602500D01*
X71112000Y-63492000D02*
X71120000Y-63500000D01*
X71112000Y-62484000D02*
X71112000Y-63492000D01*
X93876500Y-101600000D02*
X94996000Y-101600000D01*
X103124000Y-97282000D02*
X103378000Y-97028000D01*
X103124000Y-98147500D02*
X103124000Y-97282000D01*
X111252000Y-98147500D02*
X111252000Y-97028000D01*
X115765774Y-100060000D02*
X116064882Y-100359108D01*
X115250000Y-100060000D02*
X115765774Y-100060000D01*
X123886000Y-100060000D02*
X124401044Y-100060000D01*
X124401044Y-100060000D02*
X124401409Y-100059635D01*
X129286000Y-110236000D02*
X128778000Y-110744000D01*
X129286000Y-109650000D02*
X129286000Y-110236000D01*
X133958500Y-105510500D02*
X133350000Y-104902000D01*
X133958500Y-106172000D02*
X133958500Y-105510500D01*
X107122000Y-100060000D02*
X107934012Y-100060000D01*
X107934012Y-100060000D02*
X108856235Y-100982223D01*
X120396000Y-98147500D02*
X120396000Y-97463143D01*
X120396000Y-97463143D02*
X119975510Y-97042653D01*
D46*
X98044000Y-94742000D02*
X98298000Y-94488000D01*
X98044000Y-95657500D02*
X98044000Y-94742000D01*
X103339500Y-97066500D02*
X103378000Y-97028000D01*
X100584000Y-97066500D02*
X103339500Y-97066500D01*
X89304500Y-90019500D02*
X89408000Y-89916000D01*
X88392000Y-90019500D02*
X89304500Y-90019500D01*
X103124000Y-90170000D02*
X102870000Y-89916000D01*
X103124000Y-91085500D02*
X103124000Y-90170000D01*
D47*
X110204000Y-76740000D02*
X111506000Y-75438000D01*
X109735000Y-76740000D02*
X110204000Y-76740000D01*
X106783500Y-84177500D02*
X107442000Y-84836000D01*
X106783500Y-83312000D02*
X106783500Y-84177500D01*
D46*
X94365000Y-99340000D02*
X94865000Y-99340000D01*
X94365000Y-96160000D02*
X94865000Y-96160000D01*
X94365000Y-95889000D02*
X94234000Y-95758000D01*
X94365000Y-96160000D02*
X94365000Y-95889000D01*
X94165000Y-96360000D02*
X94365000Y-96160000D01*
X94165000Y-97155000D02*
X94165000Y-96360000D01*
X94865000Y-99340000D02*
X94854010Y-99350990D01*
X94854010Y-99350990D02*
X94747406Y-99350990D01*
X90424000Y-85497500D02*
X90645804Y-85719304D01*
X90645804Y-85719304D02*
X90645804Y-85719948D01*
D47*
X84582000Y-77316500D02*
X83312000Y-76046500D01*
X84582000Y-78385500D02*
X84582000Y-77316500D01*
D45*
X93166000Y-74119500D02*
X93166000Y-72731000D01*
X92609500Y-74676000D02*
X93166000Y-74119500D01*
X86666000Y-74015500D02*
X86666000Y-72731000D01*
X86005500Y-74676000D02*
X86666000Y-74015500D01*
D47*
X91423719Y-74676000D02*
X91386729Y-74639010D01*
X92609500Y-74676000D02*
X91423719Y-74676000D01*
X79106000Y-72136000D02*
X79106000Y-73076990D01*
X79106000Y-73076990D02*
X78740000Y-73442990D01*
D45*
X86666000Y-59992500D02*
X86666000Y-61381000D01*
X87222500Y-59436000D02*
X86666000Y-59992500D01*
X96568500Y-63806000D02*
X98044000Y-62330500D01*
X95591000Y-63806000D02*
X96568500Y-63806000D01*
D47*
X83312000Y-59699319D02*
X82843509Y-59230828D01*
X83312000Y-60047500D02*
X83312000Y-59699319D01*
X97181500Y-73660000D02*
X97181500Y-72787173D01*
X97181500Y-72787173D02*
X98057474Y-71911199D01*
X105904000Y-68230009D02*
X105554009Y-68580000D01*
X105904000Y-66650000D02*
X105904000Y-68230009D01*
D46*
X103268000Y-55228000D02*
X103632000Y-54864000D01*
X102862000Y-55228000D02*
X103268000Y-55228000D01*
X96782000Y-55228000D02*
X96782000Y-54110000D01*
X96782000Y-54110000D02*
X96774000Y-54102000D01*
D45*
X101572000Y-52578000D02*
X102072000Y-52578000D01*
X102072000Y-52578000D02*
X102870000Y-52578000D01*
D47*
X91567000Y-77789000D02*
X91567000Y-76880770D01*
X91567000Y-76880770D02*
X90965162Y-76278932D01*
X99033480Y-62330500D02*
X99096990Y-62266990D01*
X98044000Y-62330500D02*
X99033480Y-62330500D01*
D45*
X69588000Y-66048000D02*
X70358000Y-65278000D01*
X69342000Y-66048000D02*
X69588000Y-66048000D01*
D47*
%TO.N,VBUS*%
X88077000Y-105664000D02*
X88077000Y-106365000D01*
X88077000Y-106365000D02*
X89662000Y-107950000D01*
X89662000Y-107950000D02*
X93472000Y-107950000D01*
X95973500Y-105448500D02*
X95973500Y-103124000D01*
D45*
X97028000Y-97282000D02*
X96098000Y-97282000D01*
X96098000Y-97282000D02*
X96090000Y-97290000D01*
D46*
X97028000Y-97282000D02*
X97028000Y-97790000D01*
D45*
X97028000Y-97790000D02*
X96090000Y-97790000D01*
D46*
X101993000Y-93941500D02*
X103124000Y-92810500D01*
X100584000Y-93941500D02*
X101993000Y-93941500D01*
D45*
X93140000Y-97790000D02*
X92012143Y-97790000D01*
X92012143Y-97790000D02*
X91871176Y-97930967D01*
D46*
X100584000Y-93941500D02*
X96812500Y-90170000D01*
X96812500Y-90170000D02*
X96215000Y-90170000D01*
X97028000Y-96290994D02*
X96814910Y-96077904D01*
X96215000Y-90170000D02*
X96036990Y-90348010D01*
X96036990Y-90348010D02*
X96036990Y-94734299D01*
X97028000Y-97282000D02*
X97028000Y-96290994D01*
X96814910Y-95512219D02*
X96814910Y-96077904D01*
X96036990Y-94734299D02*
X96814910Y-95512219D01*
D47*
X96012000Y-103085500D02*
X96012000Y-100847320D01*
X95973500Y-103124000D02*
X96012000Y-103085500D01*
X110504000Y-69481500D02*
X110236000Y-69749500D01*
X110504000Y-66650000D02*
X110504000Y-69481500D01*
X95504000Y-105918000D02*
X95973500Y-105448500D01*
X93472000Y-107950000D02*
X95504000Y-105918000D01*
X95973500Y-103124000D02*
X96012000Y-103124000D01*
X96012000Y-103124000D02*
X100584000Y-107696000D01*
X100584000Y-107696000D02*
X102603902Y-107696000D01*
X102603902Y-107696000D02*
X105651902Y-110744000D01*
X105651902Y-110744000D02*
X120650000Y-110744000D01*
X120650000Y-110744000D02*
X122174000Y-109220000D01*
X122174000Y-109220000D02*
X122428000Y-108966000D01*
X122428000Y-108966000D02*
X124334623Y-108966000D01*
X124334623Y-108966000D02*
X125222000Y-108966000D01*
X125222000Y-108966000D02*
X126492000Y-107696000D01*
X126492000Y-107696000D02*
X126492000Y-104394000D01*
X126492000Y-104394000D02*
X128016000Y-102870000D01*
X128016000Y-102870000D02*
X128778000Y-102870000D01*
X129286000Y-102362000D02*
X129286000Y-97536000D01*
X128778000Y-102870000D02*
X129286000Y-102362000D01*
X130810000Y-93472000D02*
X132080000Y-92202000D01*
X129540000Y-93472000D02*
X130810000Y-93472000D01*
X132080000Y-92202000D02*
X129540000Y-89662000D01*
X129540000Y-89662000D02*
X117856000Y-89662000D01*
X117856000Y-89662000D02*
X117856000Y-89408000D01*
X117856000Y-89408000D02*
X116332000Y-87884000D01*
X116332000Y-87884000D02*
X116332000Y-84074000D01*
X116332000Y-84074000D02*
X114554000Y-82296000D01*
X114554000Y-75184000D02*
X114300000Y-75184000D01*
X114300000Y-75184000D02*
X112014000Y-72898000D01*
X112014000Y-70991500D02*
X110504000Y-69481500D01*
X112014000Y-72898000D02*
X112014000Y-70991500D01*
X112625500Y-76454000D02*
X112268000Y-76811500D01*
X114554000Y-76454000D02*
X112625500Y-76454000D01*
X114554000Y-82296000D02*
X114554000Y-76454000D01*
X114554000Y-76454000D02*
X114554000Y-75184000D01*
X107435000Y-76740000D02*
X107435000Y-75953000D01*
X107435000Y-75953000D02*
X108966000Y-74422000D01*
X110490000Y-74422000D02*
X112014000Y-72898000D01*
X108966000Y-74422000D02*
X110490000Y-74422000D01*
X87122000Y-83374000D02*
X87757000Y-82739000D01*
X87122000Y-84328000D02*
X87122000Y-83374000D01*
X87122000Y-83374000D02*
X86487000Y-82739000D01*
X86487000Y-82739000D02*
X86487000Y-81407000D01*
X85190500Y-80110500D02*
X86487000Y-81407000D01*
X84582000Y-80110500D02*
X85190500Y-80110500D01*
X96215000Y-90170000D02*
X96215000Y-88341000D01*
X91948000Y-84328000D02*
X90170000Y-84328000D01*
X92456000Y-84836000D02*
X91948000Y-84328000D01*
X96215000Y-88341000D02*
X95250000Y-87376000D01*
D46*
%TO.N,+12V*%
X84328000Y-87222500D02*
X86360000Y-87222500D01*
X86360000Y-87222500D02*
X88392000Y-87222500D01*
X88392000Y-87222500D02*
X90424000Y-87222500D01*
D47*
X83348500Y-88202000D02*
X84328000Y-87222500D01*
X83348500Y-90932000D02*
X83348500Y-88202000D01*
X72708000Y-80264000D02*
X78232000Y-85788000D01*
X80934500Y-85788000D02*
X83348500Y-88202000D01*
X78232000Y-85788000D02*
X80934500Y-85788000D01*
X71692000Y-81280000D02*
X72708000Y-80264000D01*
X65024000Y-81280000D02*
X71692000Y-81280000D01*
X72708000Y-81216000D02*
X70104000Y-83820000D01*
X72708000Y-80264000D02*
X72708000Y-81216000D01*
X72708000Y-80264000D02*
X69406000Y-76962000D01*
X69406000Y-74102000D02*
X68456000Y-73152000D01*
X69406000Y-76962000D02*
X69406000Y-74102000D01*
X83348500Y-90932000D02*
X85126500Y-92710000D01*
X85280010Y-92863510D02*
X85497510Y-92863510D01*
X85126500Y-92710000D02*
X85280010Y-92863510D01*
X85497510Y-92863510D02*
X85598000Y-92964000D01*
X85598000Y-92964000D02*
X85598000Y-98552000D01*
X85598000Y-98552000D02*
X85598000Y-98806000D01*
X85090000Y-99314000D02*
X85090000Y-100838000D01*
X85598000Y-98806000D02*
X85090000Y-99314000D01*
X113030000Y-106680000D02*
X113030000Y-107950000D01*
X113030000Y-107950000D02*
X114300000Y-109220000D01*
X119380000Y-109220000D02*
X121920000Y-106680000D01*
X114300000Y-109220000D02*
X119380000Y-109220000D01*
X104140000Y-102232000D02*
X104264000Y-102108000D01*
X104140000Y-106680000D02*
X104140000Y-102232000D01*
X113030000Y-102238000D02*
X112900000Y-102108000D01*
X113030000Y-106680000D02*
X113030000Y-102238000D01*
X121920000Y-102492000D02*
X121536000Y-102108000D01*
X121920000Y-106680000D02*
X121920000Y-102492000D01*
X122023500Y-92964000D02*
X121920000Y-92964000D01*
X118975500Y-95908500D02*
X117348000Y-95908500D01*
X121920000Y-92964000D02*
X118975500Y-95908500D01*
X108204000Y-96774000D02*
X108458000Y-97028000D01*
X108204000Y-95908500D02*
X108204000Y-96774000D01*
X104772000Y-101600000D02*
X104264000Y-102108000D01*
X105410000Y-101600000D02*
X104772000Y-101600000D01*
X118975500Y-95908500D02*
X118975500Y-101195500D01*
X119888000Y-102108000D02*
X121536000Y-102108000D01*
X118975500Y-101195500D02*
X119888000Y-102108000D01*
X104140000Y-106680000D02*
X106680000Y-109220000D01*
X106680000Y-109220000D02*
X110490000Y-109220000D01*
X110490000Y-109220000D02*
X113030000Y-106680000D01*
D45*
%TO.N,OSC_IN*%
X77244500Y-59618000D02*
X76200000Y-58573500D01*
X79248000Y-59618000D02*
X77244500Y-59618000D01*
X79248000Y-59618000D02*
X81026000Y-61396000D01*
X81026000Y-61396000D02*
X81026000Y-64516000D01*
X81816000Y-65306000D02*
X84241000Y-65306000D01*
X81026000Y-64516000D02*
X81816000Y-65306000D01*
%TO.N,OSC_OUT*%
X79248000Y-64669500D02*
X80110500Y-65532000D01*
X79248000Y-63318000D02*
X79248000Y-64669500D01*
X80384500Y-65806000D02*
X84241000Y-65806000D01*
X80110500Y-65532000D02*
X80384500Y-65806000D01*
D46*
%TO.N,VDDA*%
X84481500Y-74321500D02*
X84582000Y-74422000D01*
X83312000Y-74321500D02*
X84481500Y-74321500D01*
X107442000Y-86106000D02*
X107153701Y-86106000D01*
X113284000Y-80264000D02*
X107442000Y-86106000D01*
X107153701Y-86106000D02*
X103959379Y-82911678D01*
D45*
X80406000Y-69596000D02*
X80696000Y-69306000D01*
X80696000Y-69306000D02*
X84241000Y-69306000D01*
D46*
X80406000Y-69596000D02*
X80406000Y-69846000D01*
X80406000Y-69846000D02*
X83312000Y-72752000D01*
X83312000Y-72752000D02*
X83312000Y-74321500D01*
D45*
X78373000Y-67056000D02*
X78373000Y-67197000D01*
X80406000Y-69060998D02*
X80406000Y-69596000D01*
X78542002Y-67197000D02*
X80406000Y-69060998D01*
X78373000Y-67197000D02*
X78542002Y-67197000D01*
D46*
X92444001Y-79174001D02*
X96700548Y-79174001D01*
X97284969Y-79758423D02*
X97284968Y-82552968D01*
X97284968Y-82552968D02*
X98298000Y-83566000D01*
X90297000Y-81321002D02*
X92444001Y-79174001D01*
X96700548Y-79174001D02*
X97284969Y-79758423D01*
X90297000Y-82739000D02*
X90297000Y-81321002D01*
X90297000Y-82739000D02*
X90297000Y-80444000D01*
X89027000Y-79174000D02*
X89027000Y-77789000D01*
X90297000Y-80444000D02*
X89027000Y-79174000D01*
X88327000Y-76404000D02*
X89027000Y-77104000D01*
X89027000Y-77104000D02*
X89027000Y-77789000D01*
X86817999Y-76403999D02*
X88327000Y-76404000D01*
X86360000Y-75946000D02*
X86817999Y-76403999D01*
D45*
%TO.N,Net-(C17-Pad2)*%
X98147500Y-100534000D02*
X98197500Y-100584000D01*
X98147500Y-99060000D02*
X98147500Y-100534000D01*
D47*
%TO.N,NRST*%
X129364000Y-106172000D02*
X129286000Y-106250000D01*
X132233500Y-106172000D02*
X129364000Y-106172000D01*
X129286000Y-105410000D02*
X128778000Y-104902000D01*
X129286000Y-106250000D02*
X129286000Y-105410000D01*
D45*
X84241000Y-66306000D02*
X86659417Y-66306000D01*
X86659417Y-66306000D02*
X88238452Y-64726965D01*
X90569202Y-64726965D02*
X92035213Y-66192976D01*
X93857720Y-67595572D02*
X94223188Y-67595572D01*
X92830161Y-66568013D02*
X93857720Y-67595572D01*
X88238452Y-64726965D02*
X90569202Y-64726965D01*
X92830161Y-66192976D02*
X92830161Y-66568013D01*
X92035213Y-66192976D02*
X92830161Y-66192976D01*
X102579002Y-62407107D02*
X102579002Y-63939522D01*
X106820109Y-58166000D02*
X102579002Y-62407107D01*
X102579002Y-63939522D02*
X99481774Y-67036750D01*
X112014000Y-58166000D02*
X106820109Y-58166000D01*
X99481774Y-67036750D02*
X99481774Y-67602435D01*
X114300000Y-60452000D02*
X112014000Y-58166000D01*
X101701199Y-82965023D02*
X101237199Y-82965023D01*
X100293001Y-82020825D02*
X100293001Y-78820825D01*
X99785002Y-78312826D02*
X99785002Y-74584587D01*
X105017978Y-87237978D02*
X105017978Y-86281802D01*
X119380000Y-91948000D02*
X109728000Y-91948000D01*
X120396000Y-92964000D02*
X119380000Y-91948000D01*
X99785002Y-74584587D02*
X101149989Y-73219600D01*
X105017978Y-86281802D02*
X101701199Y-82965023D01*
X101149989Y-73219600D02*
X101149989Y-69270650D01*
X101149989Y-69270650D02*
X99481774Y-67602435D01*
X100293001Y-78820825D02*
X99785002Y-78312826D01*
X101237199Y-82965023D02*
X100293001Y-82020825D01*
X109728000Y-91948000D02*
X105017978Y-87237978D01*
%TO.N,Net-(C20-Pad2)*%
X96090000Y-96090000D02*
X95758000Y-95758000D01*
X96090000Y-96790000D02*
X96090000Y-96090000D01*
X98652500Y-96774000D02*
X98044000Y-97382500D01*
X99060000Y-96774000D02*
X98652500Y-96774000D01*
D46*
%TO.N,Net-(D1-Pad1)*%
X100330000Y-91948000D02*
X100076000Y-92202000D01*
X100330000Y-90265000D02*
X100330000Y-91948000D01*
X96924500Y-93980000D02*
X96924500Y-93358537D01*
X96924500Y-93358537D02*
X97865470Y-92417567D01*
D47*
X98552000Y-88487000D02*
X100330000Y-90265000D01*
X98552000Y-88392000D02*
X98552000Y-88487000D01*
X93472000Y-85344000D02*
X97536000Y-85344000D01*
X90976420Y-88392000D02*
X91499010Y-87869410D01*
X91499010Y-87316990D02*
X93472000Y-85344000D01*
X86323500Y-90932000D02*
X86323500Y-88936500D01*
X86323500Y-88936500D02*
X86868000Y-88392000D01*
X86868000Y-88392000D02*
X90976420Y-88392000D01*
X97536000Y-85344000D02*
X97790000Y-85090000D01*
X91499010Y-87869410D02*
X91499010Y-87316990D01*
D45*
%TO.N,Net-(D1-Pad2)*%
X96090000Y-98790000D02*
X96090000Y-98290000D01*
D46*
X96090000Y-98790000D02*
X96915000Y-98790000D01*
X96915000Y-98790000D02*
X97042328Y-98917328D01*
X97042328Y-98917328D02*
X97042328Y-99544352D01*
X94251232Y-91406232D02*
X94251232Y-92981224D01*
X93015000Y-90170000D02*
X94251232Y-91406232D01*
D47*
X94329000Y-86265000D02*
X100330000Y-86265000D01*
X93015000Y-90170000D02*
X93015000Y-87579000D01*
X93015000Y-87579000D02*
X94329000Y-86265000D01*
%TO.N,Net-(D2-Pad1)*%
X115530000Y-102278000D02*
X115700000Y-102108000D01*
X115530000Y-106680000D02*
X115530000Y-102278000D01*
X115180002Y-98060000D02*
X114300000Y-98060000D01*
X116250001Y-101557999D02*
X117136001Y-101557999D01*
X117136001Y-100015999D02*
X115180002Y-98060000D01*
X117136001Y-101557999D02*
X117136001Y-100015999D01*
X115700000Y-102108000D02*
X116250001Y-101557999D01*
X114300000Y-98060000D02*
X114300000Y-97790000D01*
X113425000Y-96915000D02*
X113425000Y-94996000D01*
X114300000Y-97790000D02*
X113425000Y-96915000D01*
%TO.N,Net-(D2-Pad2)*%
X115175000Y-94996000D02*
X115175000Y-94629000D01*
X115720500Y-94083500D02*
X117348000Y-94083500D01*
X115175000Y-94629000D02*
X115720500Y-94083500D01*
D45*
%TO.N,FOOTPEDAL*%
X66425000Y-65532000D02*
X65913000Y-65020000D01*
X67056000Y-76708000D02*
X67056000Y-73406000D01*
X69850000Y-62746000D02*
X70112000Y-62484000D01*
X69850000Y-63500000D02*
X69850000Y-62746000D01*
X71985500Y-61722000D02*
X73255500Y-62992000D01*
X70612000Y-61722000D02*
X71985500Y-61722000D01*
X70112000Y-62222000D02*
X70612000Y-61722000D01*
X70112000Y-62484000D02*
X70112000Y-62222000D01*
X70612000Y-60753000D02*
X70104000Y-60245000D01*
X70612000Y-61722000D02*
X70612000Y-60753000D01*
X90589180Y-73881021D02*
X90336088Y-74134113D01*
X91856681Y-73881021D02*
X90589180Y-73881021D01*
X92166000Y-73571702D02*
X91856681Y-73881021D01*
X92166000Y-72731000D02*
X92166000Y-73571702D01*
%TO.N,D-*%
X90912000Y-97548000D02*
X90932000Y-97528000D01*
X88975000Y-97548000D02*
X90912000Y-97548000D01*
X88975000Y-98548000D02*
X87118000Y-98548000D01*
X87118000Y-98548000D02*
X86868000Y-98298000D01*
X86868000Y-98298000D02*
X86868000Y-97790000D01*
X87110000Y-97548000D02*
X88975000Y-97548000D01*
X86868000Y-97790000D02*
X87110000Y-97548000D01*
X86069001Y-99476589D02*
X86069001Y-103723412D01*
X87821655Y-108970660D02*
X88387340Y-108970660D01*
X86997590Y-98548000D02*
X86069001Y-99476589D01*
X87118000Y-98548000D02*
X86997590Y-98548000D01*
X86069001Y-103723412D02*
X86417989Y-104072400D01*
X86417989Y-104072400D02*
X86417989Y-107566994D01*
X86417989Y-107566994D02*
X87821655Y-108970660D01*
X87110000Y-97270000D02*
X86868000Y-97028000D01*
X87110000Y-97548000D02*
X87110000Y-97270000D01*
X90912000Y-97548000D02*
X91174000Y-97548000D01*
X91440000Y-97282000D02*
X91440000Y-96512000D01*
X91174000Y-97548000D02*
X91440000Y-97282000D01*
X95591000Y-65306000D02*
X97827320Y-65306000D01*
X97827320Y-65306000D02*
X98048660Y-65527340D01*
%TO.N,D+*%
X90932000Y-98568000D02*
X90916000Y-98568000D01*
X90436000Y-99048000D02*
X88975000Y-99048000D01*
X90916000Y-98568000D02*
X90436000Y-99048000D01*
X90932000Y-98568000D02*
X90932000Y-98552000D01*
X90428000Y-98048000D02*
X88975000Y-98048000D01*
X90932000Y-98552000D02*
X90428000Y-98048000D01*
X86519012Y-103537012D02*
X86868000Y-103886000D01*
X86868000Y-107118190D02*
X87884000Y-108134190D01*
X86868000Y-103886000D02*
X86868000Y-107118190D01*
X87884000Y-108134190D02*
X88576190Y-108134190D01*
X87134000Y-99048000D02*
X86519012Y-99662988D01*
X89408000Y-108966000D02*
X89662000Y-108966000D01*
X86519012Y-99662988D02*
X86519012Y-103537012D01*
X88576190Y-108134190D02*
X89408000Y-108966000D01*
X88975000Y-99048000D02*
X87134000Y-99048000D01*
X87134000Y-99072000D02*
X87376000Y-99314000D01*
X87134000Y-99048000D02*
X87134000Y-99072000D01*
X95591000Y-64806000D02*
X94750298Y-64806000D01*
X94750298Y-64806000D02*
X94490990Y-65065308D01*
X94490990Y-65065308D02*
X94490990Y-65849869D01*
X94490990Y-65849869D02*
X94120847Y-66220012D01*
X94120847Y-66220012D02*
X93555162Y-66220012D01*
D47*
%TO.N,Net-(D7-Pad2)*%
X123811000Y-93001500D02*
X123848500Y-92964000D01*
X123811000Y-94996000D02*
X123811000Y-93001500D01*
%TO.N,Net-(D7-Pad1)*%
X124420000Y-102192000D02*
X124336000Y-102108000D01*
X124420000Y-106680000D02*
X124420000Y-102192000D01*
X122936000Y-98060000D02*
X122936000Y-97282000D01*
X122061000Y-96407000D02*
X122061000Y-94996000D01*
X122936000Y-97282000D02*
X122061000Y-96407000D01*
X124336000Y-102108000D02*
X124336000Y-101978000D01*
X124336000Y-101978000D02*
X125476000Y-100838000D01*
X123816002Y-98060000D02*
X122936000Y-98060000D01*
X125476000Y-99719998D02*
X123816002Y-98060000D01*
X125476000Y-100838000D02*
X125476000Y-99719998D01*
%TO.N,Net-(D10-Pad2)*%
X106640000Y-102532000D02*
X107064000Y-102108000D01*
X106640000Y-106680000D02*
X106640000Y-102532000D01*
X106172000Y-98060000D02*
X105934000Y-98060000D01*
X104789000Y-96915000D02*
X104789000Y-94996000D01*
X105934000Y-98060000D02*
X104789000Y-96915000D01*
X109210462Y-102108000D02*
X109856237Y-101462225D01*
X109856237Y-100544237D02*
X107372000Y-98060000D01*
X109856237Y-101462225D02*
X109856237Y-100544237D01*
X107064000Y-102108000D02*
X109210462Y-102108000D01*
X107372000Y-98060000D02*
X106172000Y-98060000D01*
%TO.N,Net-(D8-Pad2)*%
X106539000Y-94996000D02*
X106539000Y-94629000D01*
X107084500Y-94083500D02*
X108204000Y-94083500D01*
X106539000Y-94629000D02*
X107084500Y-94083500D01*
%TO.N,Net-(D11-Pad2)*%
X65024000Y-78780000D02*
X65024000Y-75946000D01*
X65656000Y-75314000D02*
X65656000Y-73152000D01*
X65024000Y-75946000D02*
X65656000Y-75314000D01*
X75960000Y-70438000D02*
X74879998Y-69357998D01*
X75960000Y-72238000D02*
X75960000Y-70438000D01*
X74879998Y-69357998D02*
X69450002Y-69357998D01*
X69450002Y-69357998D02*
X65656000Y-73152000D01*
%TO.N,Net-(F2-Pad1)*%
X85320760Y-105664000D02*
X85648748Y-105336012D01*
X83627000Y-105664000D02*
X85320760Y-105664000D01*
X116389685Y-96774000D02*
X117337782Y-97722097D01*
X115824000Y-96774000D02*
X116389685Y-96774000D01*
X117337782Y-97722097D02*
X117337782Y-98598159D01*
D45*
%TO.N,FOOTPEDAL_AUX*%
X82848000Y-69806000D02*
X84241000Y-69806000D01*
X82296000Y-70358000D02*
X82848000Y-69806000D01*
X76760987Y-68632987D02*
X77470000Y-69342000D01*
X61476000Y-64000000D02*
X60706000Y-64770000D01*
X60706000Y-64770000D02*
X60706000Y-66548000D01*
X63373000Y-64000000D02*
X61476000Y-64000000D01*
X60706000Y-66548000D02*
X62790987Y-68632987D01*
X69342000Y-68580000D02*
X69289013Y-68632987D01*
X69289013Y-68632987D02*
X76760987Y-68632987D01*
X69342000Y-67048000D02*
X69342000Y-68580000D01*
X62790987Y-68632987D02*
X69289013Y-68632987D01*
%TO.N,UART1_RX*%
X97302000Y-65806000D02*
X98044000Y-66548000D01*
X95591000Y-65806000D02*
X97302000Y-65806000D01*
%TO.N,UART1_TX*%
X95591000Y-66306000D02*
X96431702Y-66306000D01*
X97540660Y-67414958D02*
X97540660Y-68575340D01*
X96431702Y-66306000D02*
X97540660Y-67414958D01*
%TO.N,I2C1_SDA*%
X132080000Y-97202000D02*
X130984000Y-97202000D01*
X130984000Y-97202000D02*
X128270000Y-94488000D01*
X127611500Y-94488000D02*
X127000000Y-93876500D01*
X128270000Y-94488000D02*
X127611500Y-94488000D01*
X88666000Y-61381000D02*
X88666000Y-62766990D01*
X88666000Y-62766990D02*
X88891010Y-62992000D01*
X112268000Y-90424000D02*
X110744000Y-88900000D01*
X101193023Y-81648025D02*
X101193023Y-78448025D01*
X125730000Y-93081500D02*
X125730000Y-92202000D01*
X125730000Y-92202000D02*
X124714000Y-91186000D01*
X105918000Y-86360000D02*
X105918000Y-85909002D01*
X102362000Y-73406000D02*
X102362000Y-65532000D01*
X100685024Y-77940026D02*
X100685024Y-75082976D01*
X101609999Y-82065001D02*
X101193023Y-81648025D01*
X102073999Y-82065001D02*
X101609999Y-82065001D01*
X127000000Y-93876500D02*
X126525000Y-93876500D01*
X110744000Y-88900000D02*
X108458000Y-88900000D01*
X108458000Y-88900000D02*
X105918000Y-86360000D01*
X100685024Y-75082976D02*
X102362000Y-73406000D01*
X126525000Y-93876500D02*
X125730000Y-93081500D01*
X105918000Y-85909002D02*
X102073999Y-82065001D01*
X124714000Y-91186000D02*
X120904000Y-91186000D01*
X120904000Y-91186000D02*
X120142000Y-90424000D01*
X120142000Y-90424000D02*
X112268000Y-90424000D01*
X101193023Y-78448025D02*
X100685024Y-77940026D01*
X101072000Y-52578000D02*
X101072000Y-55843244D01*
X101072000Y-55843244D02*
X100628562Y-56286682D01*
%TO.N,I2C1_SCL*%
X127103500Y-99568000D02*
X127000000Y-99671500D01*
X128270000Y-99568000D02*
X127103500Y-99568000D01*
X89642659Y-63528146D02*
X89242660Y-63928145D01*
X89642659Y-62698361D02*
X89642659Y-63528146D01*
X89166000Y-61381000D02*
X89166000Y-62221702D01*
X89166000Y-62221702D02*
X89642659Y-62698361D01*
X89166000Y-60186000D02*
X89166000Y-61381000D01*
X89408000Y-59944000D02*
X89166000Y-60186000D01*
X101887599Y-82515012D02*
X101423599Y-82515012D01*
X100743012Y-81834425D02*
X100743012Y-78634425D01*
X124968000Y-98114500D02*
X124968000Y-92456000D01*
X101636990Y-73369010D02*
X101636990Y-66548000D01*
X100743012Y-78634425D02*
X100235013Y-78126426D01*
X100235013Y-78126426D02*
X100235013Y-74770987D01*
X124460000Y-91948000D02*
X120396000Y-91948000D01*
X120396000Y-91948000D02*
X119634000Y-91186000D01*
X108458000Y-89662000D02*
X105467989Y-86671989D01*
X126525000Y-99671500D02*
X124968000Y-98114500D01*
X105467989Y-86671989D02*
X105467989Y-86095402D01*
X124968000Y-92456000D02*
X124460000Y-91948000D01*
X101423599Y-82515012D02*
X100743012Y-81834425D01*
X112014000Y-91186000D02*
X110490000Y-89662000D01*
X105467989Y-86095402D02*
X101887599Y-82515012D01*
X119634000Y-91186000D02*
X112014000Y-91186000D01*
X110490000Y-89662000D02*
X108458000Y-89662000D01*
X100235013Y-74770987D02*
X101636990Y-73369010D01*
X127000000Y-99671500D02*
X126525000Y-99671500D01*
X100572000Y-52578000D02*
X100572000Y-55130000D01*
X99323038Y-56378962D02*
X99323038Y-58474232D01*
X100572000Y-55130000D02*
X99323038Y-56378962D01*
X95758000Y-60960000D02*
X94742000Y-59944000D01*
X96012000Y-60960000D02*
X95758000Y-60960000D01*
%TO.N,JTCK*%
X93726000Y-61321000D02*
X93666000Y-61381000D01*
X93726000Y-59690000D02*
X93726000Y-61321000D01*
X92274587Y-67033823D02*
X93835562Y-68594798D01*
X94040979Y-65274025D02*
X93820002Y-65495002D01*
X93666000Y-61381000D02*
X94548365Y-62263365D01*
X94548365Y-62263365D02*
X94548365Y-63007933D01*
X94548365Y-63007933D02*
X94490990Y-63065308D01*
X94490990Y-63065308D02*
X94490990Y-64428897D01*
X94490990Y-64428897D02*
X94040979Y-64878908D01*
X92733783Y-65495002D02*
X92649219Y-65410438D01*
X94040979Y-64878908D02*
X94040979Y-65274025D01*
X93835562Y-68594798D02*
X94183850Y-68594798D01*
X93820002Y-65495002D02*
X92733783Y-65495002D01*
%TO.N,JTMS*%
X98508000Y-64306000D02*
X95591000Y-64306000D01*
X100838000Y-61976000D02*
X98508000Y-64306000D01*
X92456000Y-58674000D02*
X92964000Y-58166000D01*
X97305391Y-58166000D02*
X100838000Y-61698609D01*
X92964000Y-58166000D02*
X97305391Y-58166000D01*
X100838000Y-61698609D02*
X100838000Y-61976000D01*
%TO.N,JTDO*%
X90666000Y-59194000D02*
X90666000Y-61381000D01*
X90436000Y-59194000D02*
X90666000Y-59194000D01*
X89916000Y-58674000D02*
X90436000Y-59194000D01*
X113450001Y-57062001D02*
X101808273Y-57062001D01*
X101808273Y-57062001D02*
X99671040Y-59199234D01*
X114300000Y-57912000D02*
X113450001Y-57062001D01*
X99671040Y-59199234D02*
X98975036Y-59199234D01*
X98975036Y-59199234D02*
X97179802Y-57404000D01*
X97179802Y-57404000D02*
X92456000Y-57404000D01*
X92456000Y-57404000D02*
X90666000Y-59194000D01*
%TO.N,SPI1_MOSI*%
X100072000Y-52578000D02*
X100072000Y-51820000D01*
X100072000Y-51820000D02*
X100076000Y-51816000D01*
X100076000Y-51816000D02*
X103632000Y-51816000D01*
X103632000Y-51816000D02*
X104648000Y-52832000D01*
X104648000Y-52832000D02*
X104648000Y-53086000D01*
X100072000Y-53598000D02*
X99822000Y-53848000D01*
X100072000Y-52578000D02*
X100072000Y-53598000D01*
X66802000Y-66548000D02*
X67818000Y-65532000D01*
X74168000Y-53340000D02*
X94234000Y-53340000D01*
X94234000Y-53340000D02*
X94488000Y-53086000D01*
X67818000Y-60706000D02*
X68072000Y-60452000D01*
X67818000Y-65532000D02*
X67818000Y-60706000D01*
X88646000Y-80010000D02*
X87122000Y-80010000D01*
X92202000Y-75946000D02*
X92456000Y-76200000D01*
X89166000Y-74037027D02*
X90529981Y-75401008D01*
X91657009Y-75401008D02*
X92202000Y-75946000D01*
X89166000Y-72731000D02*
X89166000Y-74037027D01*
X90529981Y-75401008D02*
X91657009Y-75401008D01*
X92456000Y-76200000D02*
X92710000Y-76200000D01*
%TO.N,SPI1_MISO*%
X96519999Y-71628000D02*
X95758000Y-72389999D01*
X96519999Y-71628000D02*
X97267669Y-71628000D01*
X97267669Y-71628000D02*
X97872350Y-71023319D01*
X97872350Y-71023319D02*
X98530399Y-71023319D01*
X98530399Y-71023319D02*
X98930398Y-71423318D01*
X95758000Y-72389999D02*
X95757999Y-72389999D01*
X95757999Y-72389999D02*
X95250000Y-71882000D01*
X103378000Y-62681113D02*
X103861442Y-62197671D01*
X88666000Y-72731000D02*
X88666000Y-70338000D01*
X89662000Y-69342000D02*
X89662000Y-66802000D01*
X88666000Y-70338000D02*
X89662000Y-69342000D01*
X92928817Y-64274949D02*
X93341625Y-64687757D01*
X92443051Y-64274949D02*
X92928817Y-64274949D01*
X100584000Y-63500000D02*
X101854000Y-63500000D01*
X99568000Y-64516000D02*
X100584000Y-63500000D01*
X103378000Y-71882000D02*
X103378000Y-64770000D01*
X103378000Y-64770000D02*
X103378000Y-62681113D01*
X99572000Y-52578000D02*
X99572000Y-51558000D01*
X99572000Y-51558000D02*
X99822000Y-51308000D01*
X99822000Y-51308000D02*
X103943004Y-51308000D01*
X103943004Y-51308000D02*
X105410000Y-52774996D01*
X105410000Y-52774996D02*
X105410000Y-54610000D01*
%TO.N,SPI1_CLK*%
X102108000Y-58928000D02*
X102362000Y-58674000D01*
X102108000Y-61214000D02*
X102108000Y-58928000D01*
X105664000Y-72390000D02*
X104210060Y-70936060D01*
X105664000Y-78486000D02*
X105664000Y-72390000D01*
X104210060Y-70936060D02*
X104210060Y-64215294D01*
X93023898Y-80574032D02*
X92767965Y-80829965D01*
X94742000Y-80574032D02*
X93023898Y-80574032D01*
X88593010Y-74205500D02*
X88593010Y-74824517D01*
X88593010Y-74824517D02*
X89582573Y-75814080D01*
X88166000Y-73778490D02*
X88593010Y-74205500D01*
X88166000Y-72731000D02*
X88166000Y-73778490D01*
X89582573Y-75814080D02*
X89582573Y-75978393D01*
X99072000Y-54438235D02*
X99655223Y-55021458D01*
X99072000Y-52578000D02*
X99072000Y-54438235D01*
%TO.N,SPI1_CS*%
X87666000Y-71315109D02*
X87923696Y-71057413D01*
X87666000Y-72731000D02*
X87666000Y-71315109D01*
X88081982Y-69260289D02*
X88081982Y-67229261D01*
X88081982Y-67229261D02*
X88211988Y-67099255D01*
X92650945Y-62787735D02*
X93778281Y-62787735D01*
X91153118Y-64285562D02*
X92650945Y-62787735D01*
X98572000Y-54837304D02*
X98511364Y-54897940D01*
X98572000Y-52578000D02*
X98572000Y-54837304D01*
%TO.N,GNDA*%
X82268000Y-68806000D02*
X82042000Y-68580000D01*
X84241000Y-68806000D02*
X82268000Y-68806000D01*
X80406000Y-71136000D02*
X80406000Y-72136000D01*
X80135999Y-70865999D02*
X80406000Y-71136000D01*
X78306665Y-70865999D02*
X80135999Y-70865999D01*
%TO.N,Net-(JP2-Pad1)*%
X79106000Y-69596000D02*
X78486000Y-69596000D01*
X78486000Y-69596000D02*
X77216000Y-70866000D01*
X77216000Y-70866000D02*
X77216000Y-73152000D01*
X77216000Y-73152000D02*
X78486000Y-74422000D01*
X81026000Y-74422000D02*
X82296000Y-73152000D01*
X78486000Y-74422000D02*
X81026000Y-74422000D01*
X89313998Y-66076998D02*
X88936998Y-66453998D01*
X90387002Y-67150002D02*
X90387002Y-66453998D01*
X90112011Y-67424993D02*
X90387002Y-67150002D01*
X90387002Y-66453998D02*
X90010002Y-66076998D01*
X86925135Y-70982970D02*
X86925135Y-71111272D01*
X91166000Y-72731000D02*
X91166000Y-71852392D01*
X87746114Y-70161991D02*
X86925135Y-70982970D01*
X88936998Y-69430592D02*
X88205599Y-70161991D01*
X91166000Y-71852392D02*
X90112011Y-70798403D01*
X90010002Y-66076998D02*
X89313998Y-66076998D01*
X88936998Y-66453998D02*
X88936998Y-69430592D01*
X90112011Y-70798403D02*
X90112011Y-67424993D01*
X88205599Y-70161991D02*
X87746114Y-70161991D01*
D47*
%TO.N,NC_VALVE*%
X111339500Y-100060000D02*
X111252000Y-99972500D01*
X113350000Y-100060000D02*
X111339500Y-100060000D01*
D45*
X92666000Y-71141048D02*
X92679880Y-71127168D01*
X92666000Y-72731000D02*
X92666000Y-71141048D01*
X97809979Y-81993392D02*
X97809979Y-78279538D01*
X109474000Y-94070490D02*
X108367510Y-92964000D01*
X111252000Y-99972500D02*
X110777000Y-99972500D01*
X108367510Y-92964000D02*
X106172000Y-92964000D01*
X109474000Y-98669500D02*
X109474000Y-94070490D01*
X110777000Y-99972500D02*
X109474000Y-98669500D01*
X104902000Y-91694000D02*
X104902000Y-90424000D01*
X104902000Y-90424000D02*
X103341001Y-88863001D01*
X106172000Y-92964000D02*
X104902000Y-91694000D01*
X103341001Y-88863001D02*
X103341001Y-85904588D01*
X103341001Y-85904588D02*
X101314402Y-83877989D01*
X97809979Y-78279538D02*
X95621849Y-76091408D01*
X99694576Y-83877989D02*
X97809979Y-81993392D01*
X95621849Y-76091408D02*
X95056164Y-76091408D01*
X101314402Y-83877989D02*
X99694576Y-83877989D01*
D47*
%TO.N,NO_VALVE*%
X120483500Y-100060000D02*
X120396000Y-99972500D01*
X121986000Y-100060000D02*
X120483500Y-100060000D01*
D45*
X120396000Y-99822000D02*
X121412000Y-98806000D01*
X120396000Y-99972500D02*
X120396000Y-99822000D01*
X94524998Y-72230002D02*
X94524998Y-71097002D01*
X118872000Y-92964000D02*
X109474000Y-92964000D01*
X119634000Y-93726000D02*
X118872000Y-92964000D01*
X109474000Y-92964000D02*
X104140000Y-87630000D01*
X97955408Y-75982998D02*
X96229001Y-74256591D01*
X98259990Y-81806992D02*
X98259990Y-77565014D01*
X96229001Y-74256591D02*
X96229001Y-73934005D01*
X104140000Y-87630000D02*
X104140000Y-86067176D01*
X101500802Y-83427978D02*
X99880976Y-83427978D01*
X98769002Y-76359998D02*
X98392002Y-75982998D01*
X98769002Y-77056002D02*
X98769002Y-76359998D01*
X99880976Y-83427978D02*
X98259990Y-81806992D01*
X96229001Y-73934005D02*
X94524998Y-72230002D01*
X98259990Y-77565014D02*
X98769002Y-77056002D01*
X94524998Y-71097002D02*
X94816000Y-70806000D01*
X98392002Y-75982998D02*
X97955408Y-75982998D01*
X94816000Y-70806000D02*
X95591000Y-70806000D01*
X104140000Y-86067176D02*
X101500802Y-83427978D01*
D47*
%TO.N,3_WAY_VALVE*%
X103211500Y-100060000D02*
X103124000Y-99972500D01*
X105222000Y-100060000D02*
X103211500Y-100060000D01*
D45*
X103020500Y-99972500D02*
X102362000Y-99314000D01*
X103124000Y-99972500D02*
X103020500Y-99972500D01*
X102362000Y-94742000D02*
X102870000Y-94234000D01*
X102362000Y-96266000D02*
X102362000Y-94742000D01*
X95591000Y-70306000D02*
X96967707Y-70306000D01*
X96967707Y-70306000D02*
X97250576Y-70588869D01*
D47*
%TO.N,MOTOR_PWM*%
X71360000Y-74436000D02*
X71120000Y-74676000D01*
X71360000Y-72238000D02*
X71360000Y-74436000D01*
X63500000Y-76454000D02*
X63500000Y-74572500D01*
D45*
X71360000Y-71642000D02*
X72644000Y-70358000D01*
X71360000Y-72238000D02*
X71360000Y-71642000D01*
X84582000Y-71882000D02*
X84975017Y-71882000D01*
X84975017Y-71882000D02*
X86633654Y-70223363D01*
X86633654Y-70223363D02*
X86633654Y-69657678D01*
X95591000Y-69806000D02*
X92895719Y-69806000D01*
X92895719Y-69806000D02*
X92287033Y-69197314D01*
%TO.N,Net-(R1-Pad2)*%
X88975000Y-97048000D02*
X88000000Y-97048000D01*
X88000000Y-97048000D02*
X86323011Y-95371011D01*
X86323011Y-95371011D02*
X86323011Y-93913489D01*
X86323011Y-93913489D02*
X88392000Y-91844500D01*
%TO.N,Net-(R2-Pad2)*%
X89177500Y-103735500D02*
X88060000Y-102618000D01*
X90424000Y-103735500D02*
X89177500Y-103735500D01*
%TO.N,Net-(R3-Pad2)*%
X90421999Y-100193001D02*
X91049001Y-100193001D01*
X90276998Y-100048000D02*
X90421999Y-100193001D01*
X88975000Y-100048000D02*
X90276998Y-100048000D01*
X92051500Y-101195500D02*
X92051500Y-101600000D01*
X91049001Y-100193001D02*
X92051500Y-101195500D01*
D46*
%TO.N,Net-(R4-Pad2)*%
X93368500Y-93980000D02*
X95099500Y-93980000D01*
D45*
X93140000Y-97290000D02*
X92210000Y-97290000D01*
X92210000Y-97290000D02*
X92202000Y-97282000D01*
X92202000Y-95146500D02*
X93368500Y-93980000D01*
X92202000Y-97282000D02*
X92202000Y-95146500D01*
%TO.N,Net-(R7-Pad1)*%
X93140000Y-95836000D02*
X93218000Y-95758000D01*
X93140000Y-96790000D02*
X93140000Y-95836000D01*
X93472000Y-100076000D02*
X93980000Y-100076000D01*
X93980000Y-100076000D02*
X95758000Y-100076000D01*
X95758000Y-100076000D02*
X96520000Y-100076000D01*
X96520000Y-100076000D02*
X97028000Y-100584000D01*
X100226500Y-98806000D02*
X99972500Y-99060000D01*
X101346000Y-98806000D02*
X100226500Y-98806000D01*
%TO.N,BOOT0*%
X83312000Y-61872500D02*
X84284613Y-61872500D01*
X86106000Y-63693887D02*
X86106000Y-64008000D01*
X84284613Y-61872500D02*
X86106000Y-63693887D01*
X88166000Y-63726000D02*
X88166000Y-61381000D01*
X87630000Y-64262000D02*
X88166000Y-63726000D01*
X82399500Y-60960000D02*
X83312000Y-61872500D01*
X81788000Y-60960000D02*
X82399500Y-60960000D01*
%TO.N,Net-(R19-Pad1)*%
X99060000Y-79351500D02*
X99060000Y-78232000D01*
X102638329Y-78121671D02*
X104020000Y-76740000D01*
X102638329Y-78276658D02*
X102638329Y-78121671D01*
X96077000Y-77789000D02*
X96520000Y-78232000D01*
X95377000Y-77789000D02*
X96077000Y-77789000D01*
%TO.N,Net-(R19-Pad2)*%
X102870000Y-80740000D02*
X103380777Y-81250777D01*
X103380777Y-81250777D02*
X103380777Y-82096053D01*
X99060000Y-81176500D02*
X99568135Y-81684635D01*
X99568135Y-81684635D02*
X99568135Y-82042347D01*
X96455000Y-82739000D02*
X96520000Y-82804000D01*
X95377000Y-82739000D02*
X96455000Y-82739000D01*
D47*
%TO.N,IAREF*%
X112268000Y-78636500D02*
X112268000Y-79756000D01*
X111284000Y-80740000D02*
X108585000Y-80740000D01*
X112268000Y-79756000D02*
X111284000Y-80740000D01*
D46*
X105696000Y-80740000D02*
X108585000Y-80740000D01*
X104648000Y-81788000D02*
X105696000Y-80740000D01*
D47*
X108696002Y-83224498D02*
X108696002Y-80851002D01*
X108608500Y-83312000D02*
X108696002Y-83224498D01*
X108696002Y-80851002D02*
X108585000Y-80740000D01*
D46*
X91567000Y-80899545D02*
X92692533Y-79774012D01*
X96684958Y-81333990D02*
X96484948Y-81534000D01*
X96452015Y-79774012D02*
X96684958Y-80006955D01*
X92692533Y-79774012D02*
X96452015Y-79774012D01*
X96684958Y-80006955D02*
X96684958Y-81333990D01*
X91567000Y-82739000D02*
X91567000Y-80899545D01*
%TO.N,USB_VIN*%
X89964066Y-95848000D02*
X90277972Y-95534094D01*
X88975000Y-95848000D02*
X89964066Y-95848000D01*
X90254237Y-100748000D02*
X90424248Y-100918011D01*
X88975000Y-100748000D02*
X90254237Y-100748000D01*
D45*
%TO.N,BOOT1*%
X91562023Y-69651868D02*
X91562023Y-67754608D01*
X91287024Y-67479609D02*
X91287024Y-66081198D01*
X88424852Y-65176976D02*
X86291828Y-67310000D01*
X90382802Y-65176976D02*
X88424852Y-65176976D01*
X91666000Y-71268406D02*
X91974405Y-70960001D01*
X91666000Y-72731000D02*
X91666000Y-71268406D01*
X91974405Y-70064250D02*
X91562023Y-69651868D01*
X91974405Y-70960001D02*
X91974405Y-70064250D01*
X91562023Y-67754608D02*
X91287024Y-67479609D01*
X91287024Y-66081198D02*
X90382802Y-65176976D01*
X86291828Y-67310000D02*
X85852000Y-67310000D01*
%TO.N,VACSENSE*%
X94107000Y-76073000D02*
X93980000Y-75946000D01*
X94107000Y-77789000D02*
X94107000Y-76073000D01*
X95880022Y-74544022D02*
X95503992Y-74544022D01*
X98044000Y-76708000D02*
X95880022Y-74544022D01*
X88611252Y-65626987D02*
X90196402Y-65626987D01*
X90837021Y-66267606D02*
X90837021Y-69303866D01*
X85846996Y-68391243D02*
X88611252Y-65626987D01*
X84241000Y-70306000D02*
X85846996Y-70306000D01*
X90196402Y-65626987D02*
X90837021Y-66267606D01*
X85846996Y-70306000D02*
X85846996Y-68391243D01*
%TO.N,Net-(U4-Pad1)*%
X92837000Y-83947000D02*
X92837000Y-82739000D01*
X93218000Y-84328000D02*
X92837000Y-83947000D01*
X102616000Y-85815998D02*
X101128002Y-84328000D01*
X101128002Y-84328000D02*
X93218000Y-84328000D01*
X102616000Y-88900000D02*
X102616000Y-85815998D01*
%TO.N,Net-(U4-Pad4)*%
X106172000Y-81788000D02*
X107143998Y-81788000D01*
X107143998Y-81788000D02*
X107696000Y-82340002D01*
X94107000Y-82739000D02*
X94107000Y-81504000D01*
X94204000Y-81407000D02*
X95068468Y-81407000D01*
X94107000Y-81504000D02*
X94204000Y-81407000D01*
X95068468Y-81407000D02*
X95884948Y-80590520D01*
D47*
%TO.N,VDD*%
X65913000Y-62980000D02*
X65913000Y-61087000D01*
X68580000Y-58420000D02*
X70104000Y-58420000D01*
X65913000Y-61087000D02*
X68580000Y-58420000D01*
X108204000Y-69241500D02*
X107696000Y-69749500D01*
X108204000Y-66650000D02*
X108204000Y-68580000D01*
X81026000Y-67056000D02*
X81280000Y-66802000D01*
X80123000Y-67056000D02*
X81026000Y-67056000D01*
X108204000Y-68580000D02*
X108204000Y-69241500D01*
X108204000Y-65024000D02*
X107950000Y-64770000D01*
X108204000Y-66650000D02*
X108204000Y-65024000D01*
X107950000Y-60604000D02*
X108204000Y-60350000D01*
X107950000Y-64770000D02*
X107950000Y-60604000D01*
X85497500Y-58774500D02*
X85852000Y-58420000D01*
X85497500Y-59436000D02*
X85497500Y-58774500D01*
X99568000Y-73660000D02*
X100076000Y-73152000D01*
X98906500Y-73660000D02*
X99568000Y-73660000D01*
D45*
X127611500Y-101496500D02*
X128016000Y-101092000D01*
X127000000Y-101496500D02*
X127611500Y-101496500D01*
X127150500Y-92051500D02*
X128016000Y-91186000D01*
X127000000Y-92051500D02*
X127150500Y-92051500D01*
X87166000Y-74111500D02*
X87166000Y-72731000D01*
X87730500Y-74676000D02*
X87166000Y-74111500D01*
X86166000Y-60104500D02*
X85497500Y-59436000D01*
X86166000Y-61381000D02*
X86166000Y-60104500D01*
X84241000Y-63306000D02*
X85081702Y-63306000D01*
X85380998Y-63605296D02*
X85380998Y-64356002D01*
X85081702Y-63306000D02*
X85380998Y-63605296D01*
X85757998Y-64733002D02*
X86454002Y-64733002D01*
X86831002Y-64356002D02*
X86831002Y-62897998D01*
X86454002Y-64733002D02*
X86831002Y-64356002D01*
X85380998Y-64356002D02*
X85757998Y-64733002D01*
X86831002Y-62897998D02*
X86166000Y-62232996D01*
X86166000Y-62232996D02*
X86166000Y-61381000D01*
X94000677Y-72731000D02*
X94167024Y-72897347D01*
D47*
X94334500Y-74676000D02*
X94334500Y-73064823D01*
D45*
X93666000Y-72731000D02*
X94000677Y-72731000D01*
D47*
X94334500Y-73064823D02*
X94167024Y-72897347D01*
D46*
X97572000Y-52578000D02*
X98021999Y-52578000D01*
X97572000Y-52578000D02*
X97022000Y-52578000D01*
X97022000Y-52578000D02*
X95973998Y-53626002D01*
X95973998Y-53626002D02*
X95973998Y-55841998D01*
X95973998Y-55841998D02*
X96520000Y-56388000D01*
D47*
X87730500Y-74676000D02*
X87730500Y-74987327D01*
X87730500Y-74987327D02*
X87947163Y-75203990D01*
X87947163Y-75203990D02*
X88347162Y-75603989D01*
D46*
X97042071Y-58928000D02*
X98228568Y-60114497D01*
D47*
X98044000Y-60605500D02*
X98044000Y-60299065D01*
X98044000Y-60299065D02*
X98228568Y-60114497D01*
D46*
X95758000Y-58928000D02*
X97042071Y-58928000D01*
D45*
X95591000Y-63306000D02*
X95591000Y-62465140D01*
X95591000Y-62465140D02*
X97450640Y-60605500D01*
X97450640Y-60605500D02*
X98044000Y-60605500D01*
%TD*%
M02*
