%TF.GenerationSoftware,KiCad,Pcbnew,(5.99.0-10573-gc33b2cfa8d)*%
%TF.CreationDate,2021-05-19T14:35:48+02:00*%
%TF.ProjectId,sucker-one-mainboard,7375636b-6572-42d6-9f6e-652d6d61696e,rev?*%
%TF.SameCoordinates,Original*%
%TF.FileFunction,Paste,Top*%
%TF.FilePolarity,Positive*%
%FSLAX46Y46*%
G04 Gerber Fmt 4.6, Leading zero omitted, Abs format (unit mm)*
G04 Created by KiCad (PCBNEW (5.99.0-10573-gc33b2cfa8d)) date 2021-05-19 14:35:48*
%MOMM*%
%LPD*%
G01*
G04 APERTURE LIST*
G04 Aperture macros list*
%AMRoundRect*
0 Rectangle with rounded corners*
0 $1 Rounding radius*
0 $2 $3 $4 $5 $6 $7 $8 $9 X,Y pos of 4 corners*
0 Add a 4 corners polygon primitive as box body*
4,1,4,$2,$3,$4,$5,$6,$7,$8,$9,$2,$3,0*
0 Add four circle primitives for the rounded corners*
1,1,$1+$1,$2,$3*
1,1,$1+$1,$4,$5*
1,1,$1+$1,$6,$7*
1,1,$1+$1,$8,$9*
0 Add four rect primitives between the rounded corners*
20,1,$1+$1,$2,$3,$4,$5,0*
20,1,$1+$1,$4,$5,$6,$7,0*
20,1,$1+$1,$6,$7,$8,$9,0*
20,1,$1+$1,$8,$9,$2,$3,0*%
G04 Aperture macros list end*
%ADD10C,0.010000*%
%ADD11R,0.599999X1.899999*%
%ADD12R,2.100001X2.799999*%
%ADD13R,0.990600X1.498600*%
%ADD14R,3.276600X1.498600*%
%ADD15RoundRect,0.150000X-0.587500X-0.150000X0.587500X-0.150000X0.587500X0.150000X-0.587500X0.150000X0*%
%ADD16RoundRect,0.200000X0.200000X0.275000X-0.200000X0.275000X-0.200000X-0.275000X0.200000X-0.275000X0*%
%ADD17RoundRect,0.200000X-0.275000X0.200000X-0.275000X-0.200000X0.275000X-0.200000X0.275000X0.200000X0*%
%ADD18RoundRect,0.225000X0.225000X0.250000X-0.225000X0.250000X-0.225000X-0.250000X0.225000X-0.250000X0*%
%ADD19RoundRect,0.218750X0.256250X-0.218750X0.256250X0.218750X-0.256250X0.218750X-0.256250X-0.218750X0*%
%ADD20RoundRect,0.200000X-0.200000X-0.275000X0.200000X-0.275000X0.200000X0.275000X-0.200000X0.275000X0*%
%ADD21RoundRect,0.150000X0.150000X0.625000X-0.150000X0.625000X-0.150000X-0.625000X0.150000X-0.625000X0*%
%ADD22RoundRect,0.250000X0.350000X0.650000X-0.350000X0.650000X-0.350000X-0.650000X0.350000X-0.650000X0*%
%ADD23R,0.500000X0.600000*%
%ADD24R,0.590000X1.450000*%
%ADD25R,0.600000X0.500000*%
%ADD26RoundRect,0.140000X0.170000X-0.140000X0.170000X0.140000X-0.170000X0.140000X-0.170000X-0.140000X0*%
%ADD27R,1.500000X2.000000*%
%ADD28R,3.800000X2.000000*%
%ADD29RoundRect,0.140000X0.140000X0.170000X-0.140000X0.170000X-0.140000X-0.170000X0.140000X-0.170000X0*%
%ADD30R,1.100000X1.100000*%
%ADD31RoundRect,0.135000X-0.185000X0.135000X-0.185000X-0.135000X0.185000X-0.135000X0.185000X0.135000X0*%
%ADD32RoundRect,0.200000X0.275000X-0.200000X0.275000X0.200000X-0.275000X0.200000X-0.275000X-0.200000X0*%
%ADD33R,1.800000X1.400000*%
%ADD34R,0.600000X1.450000*%
%ADD35R,0.300000X1.450000*%
%ADD36RoundRect,0.225000X-0.250000X0.225000X-0.250000X-0.225000X0.250000X-0.225000X0.250000X0.225000X0*%
%ADD37RoundRect,0.140000X-0.170000X0.140000X-0.170000X-0.140000X0.170000X-0.140000X0.170000X0.140000X0*%
%ADD38RoundRect,0.225000X0.250000X-0.225000X0.250000X0.225000X-0.250000X0.225000X-0.250000X-0.225000X0*%
%ADD39R,1.040000X0.440000*%
%ADD40RoundRect,0.150000X0.625000X-0.150000X0.625000X0.150000X-0.625000X0.150000X-0.625000X-0.150000X0*%
%ADD41RoundRect,0.250000X0.650000X-0.350000X0.650000X0.350000X-0.650000X0.350000X-0.650000X-0.350000X0*%
%ADD42RoundRect,0.140000X-0.140000X-0.170000X0.140000X-0.170000X0.140000X0.170000X-0.140000X0.170000X0*%
%ADD43RoundRect,0.250000X-0.450000X-0.425000X0.450000X-0.425000X0.450000X0.425000X-0.450000X0.425000X0*%
%ADD44RoundRect,0.250000X1.450000X-0.312500X1.450000X0.312500X-1.450000X0.312500X-1.450000X-0.312500X0*%
%ADD45R,2.350000X5.100000*%
%ADD46RoundRect,0.218750X-0.256250X0.218750X-0.256250X-0.218750X0.256250X-0.218750X0.256250X0.218750X0*%
%ADD47RoundRect,0.250000X0.292217X0.292217X-0.292217X0.292217X-0.292217X-0.292217X0.292217X-0.292217X0*%
%ADD48RoundRect,0.050000X0.387500X0.050000X-0.387500X0.050000X-0.387500X-0.050000X0.387500X-0.050000X0*%
%ADD49RoundRect,0.050000X0.050000X0.387500X-0.050000X0.387500X-0.050000X-0.387500X0.050000X-0.387500X0*%
G04 APERTURE END LIST*
D10*
%TO.C,U3*%
X103056000Y-146013000D02*
X100896000Y-146013000D01*
X100896000Y-146013000D02*
X100896000Y-143293000D01*
X100896000Y-143293000D02*
X103056000Y-143293000D01*
X103056000Y-143293000D02*
X103056000Y-146013000D01*
G36*
X103056000Y-146013000D02*
G01*
X100896000Y-146013000D01*
X100896000Y-143293000D01*
X103056000Y-143293000D01*
X103056000Y-146013000D01*
G37*
X103056000Y-146013000D02*
X100896000Y-146013000D01*
X100896000Y-143293000D01*
X103056000Y-143293000D01*
X103056000Y-146013000D01*
%TD*%
D11*
%TO.C,J9*%
X123625999Y-139750400D03*
X122625999Y-139750400D03*
X121625998Y-139750400D03*
X120626000Y-139750400D03*
X119625999Y-139750400D03*
X118625999Y-139750400D03*
X117625998Y-139750400D03*
X116625998Y-139750400D03*
X115626000Y-139750400D03*
X114625999Y-139750400D03*
D12*
X126776000Y-137400400D03*
X111476001Y-137400400D03*
%TD*%
D13*
%TO.C,Q6*%
X116484400Y-124866400D03*
X118770400Y-124866400D03*
X121056400Y-124866400D03*
D14*
X118770400Y-118567200D03*
%TD*%
D15*
%TO.C,Q2*%
X75897500Y-104965000D03*
X75897500Y-106865000D03*
X77772500Y-105915000D03*
%TD*%
D16*
%TO.C,R27*%
X93408000Y-129540000D03*
X91758000Y-129540000D03*
%TD*%
D17*
%TO.C,R23*%
X117983000Y-126860800D03*
X117983000Y-128510800D03*
%TD*%
D18*
%TO.C,C4*%
X76175200Y-128066800D03*
X74625200Y-128066800D03*
%TD*%
%TO.C,C6*%
X94805800Y-123494800D03*
X93255800Y-123494800D03*
%TD*%
D15*
%TO.C,Q3*%
X83390500Y-104965000D03*
X83390500Y-106865000D03*
X85265500Y-105915000D03*
%TD*%
D19*
%TO.C,D2*%
X102463600Y-105486300D03*
X102463600Y-103911300D03*
%TD*%
D20*
%TO.C,R14*%
X125133600Y-149453600D03*
X126783600Y-149453600D03*
%TD*%
%TO.C,R11*%
X83249000Y-101724000D03*
X84899000Y-101724000D03*
%TD*%
D21*
%TO.C,J8*%
X98639000Y-102180000D03*
X97639000Y-102180000D03*
X96639000Y-102180000D03*
X95639000Y-102180000D03*
X94639000Y-102180000D03*
X93639000Y-102180000D03*
D22*
X99939000Y-104705000D03*
X92339000Y-104705000D03*
%TD*%
D23*
%TO.C,D4*%
X124256800Y-151341200D03*
X124256800Y-152341200D03*
%TD*%
D24*
%TO.C,U2*%
X74513400Y-125411800D03*
X75463400Y-125411800D03*
X76413400Y-125411800D03*
X76413400Y-123101800D03*
X75463400Y-123101800D03*
X74513400Y-123101800D03*
%TD*%
D20*
%TO.C,R9*%
X75756000Y-101724000D03*
X77406000Y-101724000D03*
%TD*%
D25*
%TO.C,D5*%
X97282000Y-149098000D03*
X96282000Y-149098000D03*
%TD*%
D26*
%TO.C,C13*%
X92451000Y-143510000D03*
X92451000Y-142550000D03*
%TD*%
D27*
%TO.C,U1*%
X86374000Y-131851000D03*
D28*
X84074000Y-138151000D03*
D27*
X84074000Y-131851000D03*
X81774000Y-131851000D03*
%TD*%
D20*
%TO.C,R21*%
X88329000Y-109423200D03*
X89979000Y-109423200D03*
%TD*%
D29*
%TO.C,C10*%
X100302000Y-147828000D03*
X99342000Y-147828000D03*
%TD*%
D30*
%TO.C,D9*%
X80264000Y-101721000D03*
X80264000Y-104521000D03*
%TD*%
D31*
%TO.C,R5*%
X93467000Y-142520000D03*
X93467000Y-143540000D03*
%TD*%
D32*
%TO.C,R28*%
X106502200Y-149135600D03*
X106502200Y-147485600D03*
%TD*%
D30*
%TO.C,D10*%
X87884000Y-102864000D03*
X87884000Y-105664000D03*
%TD*%
%TO.C,D3*%
X72771000Y-101721000D03*
X72771000Y-104521000D03*
%TD*%
D33*
%TO.C,Y1*%
X90916400Y-127742800D03*
X95316400Y-127742800D03*
X95316400Y-125342800D03*
X90916400Y-125342800D03*
%TD*%
D34*
%TO.C,J12*%
X94794000Y-150945500D03*
X95594000Y-150945500D03*
D35*
X96794000Y-150945500D03*
X97794000Y-150945500D03*
X98294000Y-150945500D03*
X99294000Y-150945500D03*
D34*
X101294000Y-150945500D03*
X100494000Y-150945500D03*
D35*
X99794000Y-150945500D03*
X98794000Y-150945500D03*
X97294000Y-150945500D03*
X96294000Y-150945500D03*
%TD*%
D26*
%TO.C,C17*%
X95499000Y-143510000D03*
X95499000Y-142550000D03*
%TD*%
D36*
%TO.C,C5*%
X72771000Y-123050000D03*
X72771000Y-124600000D03*
%TD*%
D17*
%TO.C,R16*%
X116459000Y-126860800D03*
X116459000Y-128510800D03*
%TD*%
D37*
%TO.C,C14*%
X96515000Y-142550000D03*
X96515000Y-143510000D03*
%TD*%
D20*
%TO.C,R17*%
X83249000Y-103375000D03*
X84899000Y-103375000D03*
%TD*%
D17*
%TO.C,R12*%
X110794800Y-119875800D03*
X110794800Y-121525800D03*
%TD*%
D15*
%TO.C,Q1*%
X68404500Y-104965000D03*
X68404500Y-106865000D03*
X70279500Y-105915000D03*
%TD*%
D38*
%TO.C,C11*%
X84607400Y-129375200D03*
X84607400Y-127825200D03*
%TD*%
D37*
%TO.C,C12*%
X94513400Y-130251200D03*
X94513400Y-131211200D03*
%TD*%
D39*
%TO.C,U3*%
X104821000Y-146558000D03*
X104821000Y-145288000D03*
X104821000Y-144018000D03*
X104821000Y-142748000D03*
X99131000Y-142748000D03*
X99131000Y-144018000D03*
X99131000Y-145288000D03*
X99131000Y-146558000D03*
%TD*%
D32*
%TO.C,R24*%
X105689400Y-153123400D03*
X105689400Y-151473400D03*
%TD*%
D40*
%TO.C,J7*%
X94289000Y-112117000D03*
X94289000Y-111117000D03*
X94289000Y-110117000D03*
X94289000Y-109117000D03*
D41*
X91764000Y-113417000D03*
X91764000Y-107817000D03*
%TD*%
D32*
%TO.C,R13*%
X125831600Y-152717000D03*
X125831600Y-151067000D03*
%TD*%
D42*
%TO.C,C23*%
X90066000Y-139573000D03*
X91026000Y-139573000D03*
%TD*%
D16*
%TO.C,R10*%
X94703400Y-121056400D03*
X93053400Y-121056400D03*
%TD*%
D32*
%TO.C,R8*%
X104495600Y-106793800D03*
X104495600Y-105143800D03*
%TD*%
D19*
%TO.C,D8*%
X112674400Y-121386700D03*
X112674400Y-119811700D03*
%TD*%
D42*
%TO.C,C19*%
X90066000Y-140716000D03*
X91026000Y-140716000D03*
%TD*%
D20*
%TO.C,R22*%
X88329000Y-111226600D03*
X89979000Y-111226600D03*
%TD*%
D32*
%TO.C,R26*%
X108127800Y-144487400D03*
X108127800Y-142837400D03*
%TD*%
%TO.C,R19*%
X69494400Y-124637800D03*
X69494400Y-122987800D03*
%TD*%
D25*
%TO.C,D6*%
X98814000Y-149098000D03*
X99814000Y-149098000D03*
%TD*%
D32*
%TO.C,R3*%
X104140000Y-151701000D03*
X104140000Y-150051000D03*
%TD*%
D37*
%TO.C,C20*%
X95478600Y-130406200D03*
X95478600Y-131366200D03*
%TD*%
D18*
%TO.C,C3*%
X83071000Y-129387600D03*
X81521000Y-129387600D03*
%TD*%
D38*
%TO.C,C9*%
X70307200Y-131153200D03*
X70307200Y-129603200D03*
%TD*%
D18*
%TO.C,C2*%
X76175200Y-129565400D03*
X74625200Y-129565400D03*
%TD*%
D43*
%TO.C,C21*%
X105228400Y-137058400D03*
X107928400Y-137058400D03*
%TD*%
D20*
%TO.C,R7*%
X68263000Y-103375000D03*
X69913000Y-103375000D03*
%TD*%
D44*
%TO.C,F1*%
X118491000Y-114888100D03*
X118491000Y-110613100D03*
%TD*%
D18*
%TO.C,C7*%
X90310000Y-129540000D03*
X88760000Y-129540000D03*
%TD*%
D20*
%TO.C,R1*%
X92520000Y-148590000D03*
X94170000Y-148590000D03*
%TD*%
D16*
%TO.C,R2*%
X103441000Y-148590000D03*
X101791000Y-148590000D03*
%TD*%
D45*
%TO.C,L1*%
X77436800Y-135407400D03*
X73286800Y-135407400D03*
%TD*%
D32*
%TO.C,R18*%
X78054200Y-124294400D03*
X78054200Y-122644400D03*
%TD*%
D23*
%TO.C,D12*%
X106908600Y-152128600D03*
X106908600Y-153128600D03*
%TD*%
D26*
%TO.C,C16*%
X91135200Y-137462200D03*
X91135200Y-136502200D03*
%TD*%
D20*
%TO.C,R6*%
X68263000Y-101724000D03*
X69913000Y-101724000D03*
%TD*%
D38*
%TO.C,C8*%
X72034400Y-131178600D03*
X72034400Y-129628600D03*
%TD*%
D42*
%TO.C,C15*%
X100993000Y-135864600D03*
X101953000Y-135864600D03*
%TD*%
D46*
%TO.C,D7*%
X94742000Y-116560500D03*
X94742000Y-118135500D03*
%TD*%
D18*
%TO.C,C1*%
X76175200Y-131089400D03*
X74625200Y-131089400D03*
%TD*%
D30*
%TO.C,D11*%
X114452400Y-125498400D03*
X114452400Y-128298400D03*
%TD*%
D31*
%TO.C,R4*%
X94483000Y-142520000D03*
X94483000Y-143540000D03*
%TD*%
D32*
%TO.C,R25*%
X107975400Y-147828000D03*
X107975400Y-146178000D03*
%TD*%
D29*
%TO.C,C18*%
X101546600Y-140589000D03*
X100586600Y-140589000D03*
%TD*%
D26*
%TO.C,C22*%
X91435000Y-143510000D03*
X91435000Y-142550000D03*
%TD*%
D20*
%TO.C,R15*%
X75756000Y-103375000D03*
X77406000Y-103375000D03*
%TD*%
D17*
%TO.C,R20*%
X71120000Y-123013200D03*
X71120000Y-124663200D03*
%TD*%
D47*
%TO.C,U4*%
X96517500Y-137797500D03*
X96517500Y-136522500D03*
X95242500Y-137797500D03*
X95242500Y-136522500D03*
D48*
X99317500Y-139760000D03*
X99317500Y-139360000D03*
X99317500Y-138960000D03*
X99317500Y-138560000D03*
X99317500Y-138160000D03*
X99317500Y-137760000D03*
X99317500Y-137360000D03*
X99317500Y-136960000D03*
X99317500Y-136560000D03*
X99317500Y-136160000D03*
X99317500Y-135760000D03*
X99317500Y-135360000D03*
X99317500Y-134960000D03*
X99317500Y-134560000D03*
D49*
X98480000Y-133722500D03*
X98080000Y-133722500D03*
X97680000Y-133722500D03*
X97280000Y-133722500D03*
X96880000Y-133722500D03*
X96480000Y-133722500D03*
X96080000Y-133722500D03*
X95680000Y-133722500D03*
X95280000Y-133722500D03*
X94880000Y-133722500D03*
X94480000Y-133722500D03*
X94080000Y-133722500D03*
X93680000Y-133722500D03*
X93280000Y-133722500D03*
D48*
X92442500Y-134560000D03*
X92442500Y-134960000D03*
X92442500Y-135360000D03*
X92442500Y-135760000D03*
X92442500Y-136160000D03*
X92442500Y-136560000D03*
X92442500Y-136960000D03*
X92442500Y-137360000D03*
X92442500Y-137760000D03*
X92442500Y-138160000D03*
X92442500Y-138560000D03*
X92442500Y-138960000D03*
X92442500Y-139360000D03*
X92442500Y-139760000D03*
D49*
X93280000Y-140597500D03*
X93680000Y-140597500D03*
X94080000Y-140597500D03*
X94480000Y-140597500D03*
X94880000Y-140597500D03*
X95280000Y-140597500D03*
X95680000Y-140597500D03*
X96080000Y-140597500D03*
X96480000Y-140597500D03*
X96880000Y-140597500D03*
X97280000Y-140597500D03*
X97680000Y-140597500D03*
X98080000Y-140597500D03*
X98480000Y-140597500D03*
%TD*%
M02*
