%TF.GenerationSoftware,KiCad,Pcbnew,(5.1.8-0-10_14)*%
%TF.CreationDate,2020-12-22T15:13:40+01:00*%
%TF.ProjectId,sucker-one-mainboard,7375636b-6572-42d6-9f6e-652d6d61696e,rev?*%
%TF.SameCoordinates,Original*%
%TF.FileFunction,Copper,L4,Bot*%
%TF.FilePolarity,Positive*%
%FSLAX46Y46*%
G04 Gerber Fmt 4.6, Leading zero omitted, Abs format (unit mm)*
G04 Created by KiCad (PCBNEW (5.1.8-0-10_14)) date 2020-12-22 15:13:40*
%MOMM*%
%LPD*%
G01*
G04 APERTURE LIST*
%TA.AperFunction,ComponentPad*%
%ADD10O,1.700000X2.000000*%
%TD*%
%TA.AperFunction,ComponentPad*%
%ADD11R,1.500000X1.500000*%
%TD*%
%TA.AperFunction,ComponentPad*%
%ADD12C,1.500000*%
%TD*%
%TA.AperFunction,ComponentPad*%
%ADD13O,2.000000X1.700000*%
%TD*%
%TA.AperFunction,ComponentPad*%
%ADD14O,1.950000X1.700000*%
%TD*%
%TA.AperFunction,ComponentPad*%
%ADD15R,1.700000X1.700000*%
%TD*%
%TA.AperFunction,ComponentPad*%
%ADD16O,1.700000X1.700000*%
%TD*%
%TA.AperFunction,SMDPad,CuDef*%
%ADD17C,2.000000*%
%TD*%
%TA.AperFunction,SMDPad,CuDef*%
%ADD18R,0.600000X2.300000*%
%TD*%
%TA.AperFunction,ComponentPad*%
%ADD19O,1.600000X1.000000*%
%TD*%
%TA.AperFunction,ComponentPad*%
%ADD20O,2.100000X1.000000*%
%TD*%
%TA.AperFunction,ViaPad*%
%ADD21C,0.800000*%
%TD*%
%TA.AperFunction,Conductor*%
%ADD22C,0.800000*%
%TD*%
%TA.AperFunction,Conductor*%
%ADD23C,0.400000*%
%TD*%
%TA.AperFunction,Conductor*%
%ADD24C,0.250000*%
%TD*%
G04 APERTURE END LIST*
%TO.P,J1,1*%
%TO.N,+12V*%
%TA.AperFunction,ComponentPad*%
G36*
G01*
X112180000Y-107430000D02*
X112180000Y-105930000D01*
G75*
G02*
X112430000Y-105680000I250000J0D01*
G01*
X113630000Y-105680000D01*
G75*
G02*
X113880000Y-105930000I0J-250000D01*
G01*
X113880000Y-107430000D01*
G75*
G02*
X113630000Y-107680000I-250000J0D01*
G01*
X112430000Y-107680000D01*
G75*
G02*
X112180000Y-107430000I0J250000D01*
G01*
G37*
%TD.AperFunction*%
D10*
%TO.P,J1,2*%
%TO.N,Net-(D2-Pad1)*%
X115530000Y-106680000D03*
%TD*%
%TO.P,J2,2*%
%TO.N,Net-(D7-Pad1)*%
X124420000Y-106680000D03*
%TO.P,J2,1*%
%TO.N,+12V*%
%TA.AperFunction,ComponentPad*%
G36*
G01*
X121070000Y-107430000D02*
X121070000Y-105930000D01*
G75*
G02*
X121320000Y-105680000I250000J0D01*
G01*
X122520000Y-105680000D01*
G75*
G02*
X122770000Y-105930000I0J-250000D01*
G01*
X122770000Y-107430000D01*
G75*
G02*
X122520000Y-107680000I-250000J0D01*
G01*
X121320000Y-107680000D01*
G75*
G02*
X121070000Y-107430000I0J250000D01*
G01*
G37*
%TD.AperFunction*%
%TD*%
D11*
%TO.P,J3,1*%
%TO.N,GND*%
X63373000Y-66040000D03*
D12*
%TO.P,J3,2*%
%TO.N,FOOTPEDAL*%
X65913000Y-65020000D03*
%TO.P,J3,3*%
%TO.N,FOOTPEDAL_AUX*%
X63373000Y-64000000D03*
%TO.P,J3,4*%
%TO.N,VDD*%
X65913000Y-62980000D03*
%TD*%
%TO.P,J4,1*%
%TO.N,+12V*%
%TA.AperFunction,ComponentPad*%
G36*
G01*
X103290000Y-107430000D02*
X103290000Y-105930000D01*
G75*
G02*
X103540000Y-105680000I250000J0D01*
G01*
X104740000Y-105680000D01*
G75*
G02*
X104990000Y-105930000I0J-250000D01*
G01*
X104990000Y-107430000D01*
G75*
G02*
X104740000Y-107680000I-250000J0D01*
G01*
X103540000Y-107680000D01*
G75*
G02*
X103290000Y-107430000I0J250000D01*
G01*
G37*
%TD.AperFunction*%
D10*
%TO.P,J4,2*%
%TO.N,Net-(D10-Pad2)*%
X106640000Y-106680000D03*
%TD*%
D13*
%TO.P,J10,2*%
%TO.N,Net-(D11-Pad2)*%
X65024000Y-78780000D03*
%TO.P,J10,1*%
%TO.N,+12V*%
%TA.AperFunction,ComponentPad*%
G36*
G01*
X65774000Y-82130000D02*
X64274000Y-82130000D01*
G75*
G02*
X64024000Y-81880000I0J250000D01*
G01*
X64024000Y-80680000D01*
G75*
G02*
X64274000Y-80430000I250000J0D01*
G01*
X65774000Y-80430000D01*
G75*
G02*
X66024000Y-80680000I0J-250000D01*
G01*
X66024000Y-81880000D01*
G75*
G02*
X65774000Y-82130000I-250000J0D01*
G01*
G37*
%TD.AperFunction*%
%TD*%
%TO.P,J11,1*%
%TO.N,VBUS*%
%TA.AperFunction,ComponentPad*%
G36*
G01*
X131355000Y-91352000D02*
X132805000Y-91352000D01*
G75*
G02*
X133055000Y-91602000I0J-250000D01*
G01*
X133055000Y-92802000D01*
G75*
G02*
X132805000Y-93052000I-250000J0D01*
G01*
X131355000Y-93052000D01*
G75*
G02*
X131105000Y-92802000I0J250000D01*
G01*
X131105000Y-91602000D01*
G75*
G02*
X131355000Y-91352000I250000J0D01*
G01*
G37*
%TD.AperFunction*%
D14*
%TO.P,J11,2*%
%TO.N,VDD*%
X132080000Y-94702000D03*
%TO.P,J11,3*%
%TO.N,I2C1_SDA*%
X132080000Y-97202000D03*
%TO.P,J11,4*%
%TO.N,I2C1_SCL*%
X132080000Y-99702000D03*
%TO.P,J11,5*%
%TO.N,GND*%
X132080000Y-102202000D03*
%TD*%
D15*
%TO.P,J12,1*%
%TO.N,VDD*%
X114300000Y-70612000D03*
D16*
%TO.P,J12,2*%
%TO.N,JTCK*%
X114300000Y-68072000D03*
%TO.P,J12,3*%
%TO.N,GND*%
X114300000Y-65532000D03*
%TO.P,J12,4*%
%TO.N,JTMS*%
X114300000Y-62992000D03*
%TO.P,J12,5*%
%TO.N,NRST*%
X114300000Y-60452000D03*
%TO.P,J12,6*%
%TO.N,JTDO*%
X114300000Y-57912000D03*
%TD*%
D17*
%TO.P,TP1,1*%
%TO.N,D+*%
X92964000Y-110744000D03*
%TD*%
%TO.P,TP2,1*%
%TO.N,D-*%
X89916000Y-110744000D03*
%TD*%
%TO.P,TP3,1*%
%TO.N,+12V*%
X112268000Y-110744000D03*
%TD*%
%TO.P,TP4,1*%
%TO.N,Net-(D2-Pad1)*%
X115824000Y-110744000D03*
%TD*%
%TO.P,TP5,1*%
%TO.N,NRST*%
X127000000Y-104140000D03*
%TD*%
%TO.P,TP6,1*%
%TO.N,+12V*%
X121412000Y-110744000D03*
%TD*%
%TO.P,TP7,1*%
%TO.N,Net-(D7-Pad1)*%
X124968000Y-110744000D03*
%TD*%
%TO.P,TP8,1*%
%TO.N,+12V*%
X103632000Y-110744000D03*
%TD*%
%TO.P,TP9,1*%
%TO.N,Net-(D10-Pad2)*%
X107188000Y-110744000D03*
%TD*%
%TO.P,TP10,1*%
%TO.N,+12V*%
X93472000Y-106680000D03*
%TD*%
%TO.P,TP11,1*%
%TO.N,VDD*%
X99568000Y-106680000D03*
%TD*%
%TO.P,TP12,1*%
%TO.N,VBUS*%
X96520000Y-106680000D03*
%TD*%
%TO.P,TP13,1*%
%TO.N,GND*%
X99568000Y-109728000D03*
%TD*%
%TO.P,TP14,1*%
%TO.N,UART1_RX*%
X100076000Y-66040000D03*
%TD*%
%TO.P,TP15,1*%
%TO.N,UART1_TX*%
X100076000Y-69088000D03*
%TD*%
%TO.P,TP16,1*%
%TO.N,I2C1_SDA*%
X80264000Y-56896000D03*
%TD*%
%TO.P,TP17,1*%
%TO.N,+12V*%
X69596000Y-86868000D03*
%TD*%
%TO.P,TP18,1*%
%TO.N,Net-(D11-Pad2)*%
X73152000Y-86868000D03*
%TD*%
%TO.P,TP19,1*%
%TO.N,I2C1_SCL*%
X83312000Y-56896000D03*
%TD*%
%TO.P,TP22,1*%
%TO.N,JTCK*%
X94488000Y-56896000D03*
%TD*%
%TO.P,TP23,1*%
%TO.N,JTMS*%
X91440000Y-56896000D03*
%TD*%
%TO.P,TP24,1*%
%TO.N,JTDO*%
X88392000Y-56896000D03*
%TD*%
%TO.P,TP25,1*%
%TO.N,SPI1_CS*%
X99060000Y-56896000D03*
%TD*%
%TO.P,TP26,1*%
%TO.N,SPI1_CLK*%
X102108000Y-56896000D03*
%TD*%
%TO.P,TP27,1*%
%TO.N,SPI1_MISO*%
X105156000Y-56896000D03*
%TD*%
%TO.P,TP28,1*%
%TO.N,SPI1_MOSI*%
X108204000Y-56896000D03*
%TD*%
%TO.P,TP29,1*%
%TO.N,BOOT1*%
X75184000Y-55880000D03*
%TD*%
%TO.P,TP30,1*%
%TO.N,BOOT0*%
X76708000Y-52832000D03*
%TD*%
%TO.P,TP31,1*%
%TO.N,FOOTPEDAL*%
X80772000Y-86868000D03*
%TD*%
%TO.P,TP32,1*%
%TO.N,VACSENSE*%
X98044000Y-76708000D03*
%TD*%
D18*
%TO.P,U4,2*%
%TO.N,N/C*%
X112776000Y-90735000D03*
%TO.P,U4,1*%
%TO.N,Net-(U4-Pad1)*%
X114046000Y-90735000D03*
%TO.P,U4,3*%
%TO.N,GND*%
X111506000Y-90735000D03*
%TO.P,U4,5*%
%TO.N,VDDA*%
X112776000Y-81985000D03*
%TO.P,U4,4*%
%TO.N,Net-(U4-Pad4)*%
X111506000Y-81985000D03*
%TO.P,U4,6*%
%TO.N,VDDA*%
X114046000Y-81985000D03*
%TD*%
D19*
%TO.P,USB1,13*%
%TO.N,Net-(R2-Pad2)*%
X83880000Y-102618000D03*
X83880000Y-93978000D03*
D20*
X88060000Y-102618000D03*
X88060000Y-93978000D03*
%TD*%
%TO.P,SW1,1*%
%TO.N,USB_VIN*%
%TA.AperFunction,ComponentPad*%
G36*
G01*
X125056000Y-85864000D02*
X125056000Y-87364000D01*
G75*
G02*
X124806000Y-87614000I-250000J0D01*
G01*
X123606000Y-87614000D01*
G75*
G02*
X123356000Y-87364000I0J250000D01*
G01*
X123356000Y-85864000D01*
G75*
G02*
X123606000Y-85614000I250000J0D01*
G01*
X124806000Y-85614000D01*
G75*
G02*
X125056000Y-85864000I0J-250000D01*
G01*
G37*
%TD.AperFunction*%
D10*
%TO.P,SW1,2*%
%TO.N,Net-(F2-Pad1)*%
X121706000Y-86614000D03*
%TD*%
D21*
%TO.N,GND*%
X90424000Y-106680000D03*
X100584000Y-103124000D03*
X90170000Y-94234000D03*
X94996000Y-101600000D03*
X83312000Y-85090000D03*
X90162108Y-101883054D03*
X91883469Y-99556948D03*
X64770000Y-71120000D03*
X74168000Y-74168000D03*
X83058000Y-82550000D03*
X109220000Y-72898000D03*
X109220000Y-72898000D03*
X87568806Y-58267991D03*
X77216000Y-65278000D03*
X74930000Y-60452000D03*
X71120000Y-63500000D03*
X98044000Y-108966000D03*
X103378000Y-97028000D03*
X111252000Y-97028000D03*
X116064882Y-100359108D03*
X124401409Y-100059635D03*
X128778000Y-110744000D03*
X133350000Y-104902000D03*
X108856235Y-100982223D03*
X119975510Y-97042653D03*
X98298000Y-94488000D03*
X89408000Y-89916000D03*
X102870000Y-89916000D03*
X111506000Y-75438000D03*
X107442000Y-84836000D03*
X110490000Y-90932000D03*
X94234000Y-95758000D03*
X94747406Y-99350990D03*
X90645804Y-85719948D03*
X91386729Y-74639010D03*
X78740000Y-73442990D03*
X82843509Y-59230828D03*
X98057474Y-71911199D03*
X105554009Y-68580000D03*
X103632000Y-54864000D03*
X96774000Y-54102000D03*
X102870000Y-52578000D03*
X90965162Y-76278932D03*
X99096990Y-62266990D03*
X70358000Y-65278000D03*
%TO.N,VBUS*%
X91871176Y-97930967D03*
X96814910Y-96077904D03*
X96012000Y-100847320D03*
X95504000Y-105918000D03*
X129286000Y-97536000D03*
X129540000Y-93472000D03*
X90170000Y-84328000D03*
X87122000Y-84328000D03*
X95250000Y-87376000D03*
X92456000Y-84836000D03*
%TO.N,+12V*%
X70104000Y-83820000D03*
X85090000Y-100838000D03*
X108458000Y-97028000D03*
X105410000Y-101600000D03*
%TO.N,VDDA*%
X84582000Y-74422000D03*
X86360000Y-75946000D03*
X113284000Y-80264000D03*
X103959379Y-82911678D03*
X98298000Y-83566000D03*
%TO.N,NRST*%
X128778000Y-104902000D03*
X120396000Y-92964000D03*
X99481774Y-67602435D03*
X94223188Y-67595572D03*
%TO.N,Net-(C20-Pad2)*%
X95758000Y-95758000D03*
X99060000Y-96774000D03*
%TO.N,Net-(D1-Pad1)*%
X100076000Y-92202000D03*
X97865470Y-92417567D03*
X98552000Y-88392000D03*
X97790000Y-85090000D03*
%TO.N,Net-(D1-Pad2)*%
X97042328Y-99544352D03*
X94251232Y-92981224D03*
%TO.N,FOOTPEDAL*%
X67056000Y-76708000D03*
X67056000Y-73406000D03*
X69850000Y-63500000D03*
X90336088Y-74134113D03*
%TO.N,D-*%
X88387340Y-108966000D03*
X86868000Y-97028000D03*
X98048660Y-65527340D03*
%TO.N,D+*%
X89662000Y-108966000D03*
X87376000Y-99314000D03*
X93555162Y-66220012D03*
%TO.N,Net-(F2-Pad1)*%
X115824000Y-96774000D03*
X85648748Y-105336012D03*
X117337782Y-98598159D03*
%TO.N,FOOTPEDAL_AUX*%
X77470000Y-69342000D03*
X82296000Y-70358000D03*
%TO.N,UART1_RX*%
X98044000Y-66548000D03*
%TO.N,UART1_TX*%
X97540660Y-68575340D03*
%TO.N,I2C1_SDA*%
X102362000Y-65532000D03*
X88891010Y-62992000D03*
X100628562Y-56286682D03*
%TO.N,I2C1_SCL*%
X128270000Y-99568000D03*
X101636990Y-66548000D03*
X89242660Y-63928145D03*
X89408000Y-59944000D03*
X99323038Y-58474232D03*
X96012000Y-60960000D03*
X94742000Y-59944000D03*
%TO.N,JTCK*%
X93726000Y-59690000D03*
X92649219Y-65410438D03*
X92274587Y-67033823D03*
X94183850Y-68594798D03*
%TO.N,JTMS*%
X100838000Y-61976000D03*
X92456000Y-58674000D03*
%TO.N,JTDO*%
X89916000Y-58674000D03*
%TO.N,SPI1_MOSI*%
X104648000Y-53086000D03*
X99822000Y-53848000D03*
X94488000Y-53086000D03*
X68072000Y-60452000D03*
X74168000Y-53340000D03*
X87122000Y-80010000D03*
X92710000Y-76200000D03*
X66802000Y-66548000D03*
X88646000Y-80010000D03*
%TO.N,SPI1_MISO*%
X103378000Y-71882000D03*
X98930398Y-71423318D03*
X95250000Y-71882000D03*
X103861442Y-62197671D03*
X91249404Y-70612000D03*
X89662000Y-66802000D03*
X92443051Y-64274949D03*
X93341625Y-64687757D03*
X99568000Y-64516000D03*
X101854000Y-63500000D03*
X103378000Y-64770000D03*
X105410000Y-54610000D03*
%TO.N,SPI1_CLK*%
X94742000Y-80574032D03*
X105664000Y-78486000D03*
X102108000Y-61214000D03*
X102362000Y-58674000D03*
X104210060Y-64215294D03*
X92767965Y-80829965D03*
X89582573Y-75978393D03*
X99655223Y-55021458D03*
%TO.N,SPI1_CS*%
X87923696Y-71057413D03*
X88081982Y-69260289D03*
X88211988Y-67099255D03*
X91153118Y-64285562D03*
X93778281Y-62787735D03*
X98511364Y-54897940D03*
%TO.N,GNDA*%
X82042000Y-68580000D03*
X78306665Y-70865999D03*
%TO.N,Net-(JP2-Pad1)*%
X82296000Y-73152000D03*
X86925135Y-71111272D03*
%TO.N,NC_VALVE*%
X95056164Y-76091408D03*
X92679880Y-71127168D03*
%TO.N,NO_VALVE*%
X121412000Y-98806000D03*
X119634000Y-93726000D03*
%TO.N,3_WAY_VALVE*%
X102362000Y-99314000D03*
X102362000Y-96266000D03*
X102870000Y-94234000D03*
X97250576Y-70588869D03*
%TO.N,MOTOR_PWM*%
X71120000Y-74676000D03*
X63500000Y-76454000D03*
X72644000Y-70358000D03*
X84582000Y-71882000D03*
X86633654Y-69657678D03*
X92287033Y-69197314D03*
%TO.N,Net-(R7-Pad1)*%
X93218000Y-95758000D03*
X93472000Y-100076000D03*
X97028000Y-100584000D03*
X101346000Y-98806000D03*
%TO.N,BOOT0*%
X86106000Y-64008000D03*
X87630000Y-64262000D03*
X81788000Y-60960000D03*
%TO.N,Net-(R19-Pad1)*%
X99060000Y-78232000D03*
X102638329Y-78276658D03*
X96520000Y-78232000D03*
%TO.N,Net-(R19-Pad2)*%
X103380777Y-82096053D03*
X99568135Y-82042347D03*
X96520000Y-82804000D03*
%TO.N,IAREF*%
X104648000Y-81788000D03*
X96484948Y-81534000D03*
%TO.N,USB_VIN*%
X90277972Y-95534094D03*
X90424248Y-100918011D03*
%TO.N,BOOT1*%
X85852000Y-67310000D03*
%TO.N,VACSENSE*%
X93980000Y-75946000D03*
X98044000Y-76708000D03*
X95503992Y-74544022D03*
X90837021Y-69303866D03*
%TO.N,Net-(U4-Pad1)*%
X102616000Y-88900000D03*
%TO.N,Net-(U4-Pad4)*%
X95884948Y-80590520D03*
X106172000Y-81788000D03*
X107696000Y-82340002D03*
%TO.N,VDD*%
X81280000Y-66802000D03*
X108204000Y-68580000D03*
X107950000Y-64770000D03*
X85852000Y-58420000D03*
X100076000Y-73152000D03*
X101346000Y-106172000D03*
X128016000Y-91186000D03*
X128016000Y-101092000D03*
X94167024Y-72897347D03*
X96520000Y-56388000D03*
X95758000Y-58928000D03*
X88347162Y-75603989D03*
X98228568Y-60114497D03*
%TD*%
D22*
%TO.N,GND*%
X64770000Y-71120000D02*
X64770000Y-69088000D01*
X63373000Y-67691000D02*
X63373000Y-66040000D01*
X64770000Y-69088000D02*
X63373000Y-67691000D01*
X98806000Y-109728000D02*
X98044000Y-108966000D01*
X99568000Y-109728000D02*
X98806000Y-109728000D01*
X110687000Y-90735000D02*
X110490000Y-90932000D01*
X111506000Y-90735000D02*
X110687000Y-90735000D01*
D23*
X94234000Y-95758000D02*
X94234000Y-98837584D01*
X94234000Y-98837584D02*
X94747406Y-99350990D01*
%TO.N,VBUS*%
X91871176Y-97930967D02*
X92946989Y-99006780D01*
X95612001Y-100447321D02*
X96012000Y-100847320D01*
X92671998Y-100460002D02*
X93087998Y-100876002D01*
X92671998Y-99691998D02*
X92671998Y-100460002D01*
X92946989Y-99417007D02*
X92671998Y-99691998D01*
X96012000Y-96880814D02*
X96012000Y-100847320D01*
X94535996Y-100876002D02*
X94964677Y-100447321D01*
X93087998Y-100876002D02*
X94535996Y-100876002D01*
X94964677Y-100447321D02*
X95612001Y-100447321D01*
X92946989Y-99006780D02*
X92946989Y-99417007D01*
X96814910Y-96077904D02*
X96012000Y-96880814D01*
D22*
X96266000Y-106680000D02*
X95504000Y-105918000D01*
X96520000Y-106680000D02*
X96266000Y-106680000D01*
X129286000Y-93726000D02*
X129540000Y-93472000D01*
X129286000Y-97536000D02*
X129286000Y-93726000D01*
X90170000Y-84328000D02*
X87122000Y-84328000D01*
X94996000Y-87376000D02*
X92456000Y-84836000D01*
X95250000Y-87376000D02*
X94996000Y-87376000D01*
%TO.N,+12V*%
X70104000Y-86360000D02*
X69596000Y-86868000D01*
X70104000Y-83820000D02*
X70104000Y-86360000D01*
X85090000Y-100838000D02*
X85344000Y-101092000D01*
X85090000Y-100838000D02*
X85852000Y-101600000D01*
X85852000Y-101600000D02*
X85852000Y-103632000D01*
X85852000Y-103632000D02*
X85598000Y-103632000D01*
X85598000Y-103632000D02*
X84328000Y-104902000D01*
X84328000Y-104902000D02*
X84328000Y-105918000D01*
X84328000Y-105918000D02*
X86106000Y-107696000D01*
X92456000Y-107696000D02*
X93472000Y-106680000D01*
X86106000Y-107696000D02*
X92456000Y-107696000D01*
X93472000Y-106680000D02*
X96266000Y-109474000D01*
X96266000Y-109474000D02*
X96266000Y-110236000D01*
X96266000Y-110236000D02*
X97790000Y-111760000D01*
X102616000Y-111760000D02*
X103632000Y-110744000D01*
X97790000Y-111760000D02*
X102616000Y-111760000D01*
X103632000Y-107188000D02*
X104140000Y-106680000D01*
X103632000Y-110744000D02*
X103632000Y-107188000D01*
X113030000Y-109982000D02*
X112268000Y-110744000D01*
X113030000Y-106680000D02*
X113030000Y-109982000D01*
X121920000Y-110236000D02*
X121412000Y-110744000D01*
X121920000Y-106680000D02*
X121920000Y-110236000D01*
X108458000Y-98552000D02*
X105410000Y-101600000D01*
X108458000Y-97028000D02*
X108458000Y-98552000D01*
%TO.N,VDDA*%
X112776000Y-81985000D02*
X114046000Y-81985000D01*
D23*
X84836000Y-74422000D02*
X86360000Y-75946000D01*
X84582000Y-74422000D02*
X84836000Y-74422000D01*
X113284000Y-81477000D02*
X112776000Y-81985000D01*
X113284000Y-80264000D02*
X113284000Y-81477000D01*
X113284000Y-81223000D02*
X114046000Y-81985000D01*
X113284000Y-80264000D02*
X113284000Y-81223000D01*
X103305057Y-83566000D02*
X103959379Y-82911678D01*
X98298000Y-83566000D02*
X103305057Y-83566000D01*
D22*
%TO.N,NRST*%
X127762000Y-104902000D02*
X127000000Y-104140000D01*
X128778000Y-104902000D02*
X127762000Y-104902000D01*
D24*
X127000000Y-104140000D02*
X125984000Y-103124000D01*
X125984000Y-103124000D02*
X125984000Y-97028000D01*
X121920000Y-92964000D02*
X120396000Y-92964000D01*
X125984000Y-97028000D02*
X121920000Y-92964000D01*
X94230051Y-67602435D02*
X94223188Y-67595572D01*
X99481774Y-67602435D02*
X94230051Y-67602435D01*
%TO.N,Net-(C20-Pad2)*%
X96972988Y-95089467D02*
X98657521Y-96774000D01*
X98657521Y-96774000D02*
X99060000Y-96774000D01*
X96426533Y-95089467D02*
X96972988Y-95089467D01*
X95758000Y-95758000D02*
X96426533Y-95089467D01*
D23*
%TO.N,Net-(D1-Pad1)*%
X98081037Y-92202000D02*
X97865470Y-92417567D01*
X100076000Y-92202000D02*
X98081037Y-92202000D01*
D22*
X97790000Y-85090000D02*
X97790000Y-87630000D01*
X97790000Y-87630000D02*
X98552000Y-88392000D01*
D23*
%TO.N,Net-(D1-Pad2)*%
X98599996Y-95973998D02*
X96842987Y-94216989D01*
X97042328Y-99544352D02*
X98305691Y-98280989D01*
X98305691Y-98280989D02*
X98872080Y-98280989D01*
X98872080Y-98280989D02*
X99860002Y-97293067D01*
X99860002Y-96389998D02*
X99444002Y-95973998D01*
X99444002Y-95973998D02*
X98599996Y-95973998D01*
X96842987Y-94216989D02*
X95486997Y-94216989D01*
X99860002Y-97293067D02*
X99860002Y-96389998D01*
X95486997Y-94216989D02*
X94251232Y-92981224D01*
D22*
%TO.N,Net-(D2-Pad1)*%
X115824000Y-106974000D02*
X115530000Y-106680000D01*
X115824000Y-110744000D02*
X115824000Y-106974000D01*
D24*
%TO.N,FOOTPEDAL*%
X77216000Y-86868000D02*
X67056000Y-76708000D01*
X80772000Y-86868000D02*
X77216000Y-86868000D01*
X67056000Y-73406000D02*
X67056000Y-69342000D01*
X65913000Y-68199000D02*
X65913000Y-65020000D01*
X67056000Y-69342000D02*
X65913000Y-68199000D01*
X68576000Y-65020000D02*
X65913000Y-65020000D01*
X68576000Y-65020000D02*
X68576000Y-64012000D01*
X69088000Y-63500000D02*
X69850000Y-63500000D01*
X68576000Y-64012000D02*
X69088000Y-63500000D01*
X87356980Y-69608291D02*
X87356980Y-68912287D01*
X89724148Y-69827350D02*
X89724148Y-73522173D01*
X86580721Y-70382682D02*
X87350943Y-70382682D01*
X87356980Y-68912287D02*
X87733980Y-68535287D01*
X79599809Y-72041012D02*
X80483823Y-71156998D01*
X89724148Y-73522173D02*
X90336088Y-74134113D01*
X68576000Y-65020000D02*
X75597012Y-72041012D01*
X87350943Y-70382682D02*
X87412998Y-70320627D01*
X88432085Y-68535287D02*
X89724148Y-69827350D01*
X75597012Y-72041012D02*
X79599809Y-72041012D01*
X87733980Y-68535287D02*
X88432085Y-68535287D01*
X87412998Y-69664309D02*
X87356980Y-69608291D01*
X80483823Y-71156998D02*
X85806405Y-71156998D01*
X85806405Y-71156998D02*
X86580721Y-70382682D01*
X87412998Y-70320627D02*
X87412998Y-69664309D01*
%TO.N,D-*%
X89916000Y-110744000D02*
X88387340Y-109215340D01*
X88387340Y-109215340D02*
X88387340Y-108970660D01*
X96679012Y-71347599D02*
X94789391Y-69457978D01*
X96679012Y-73166214D02*
X96679012Y-71347599D01*
X93453457Y-67128398D02*
X93636841Y-66945014D01*
X93899155Y-87352159D02*
X91730998Y-85184002D01*
X93942978Y-79099609D02*
X96266000Y-76776587D01*
X86360000Y-93218000D02*
X88138000Y-91440000D01*
X96266000Y-76259826D02*
X97129024Y-75396802D01*
X93636841Y-66945014D02*
X93903164Y-66945014D01*
X93462046Y-69457978D02*
X93462046Y-68662912D01*
X95320838Y-65527340D02*
X98048660Y-65527340D01*
X88138000Y-91440000D02*
X89811314Y-91440000D01*
X97129024Y-73616226D02*
X96679012Y-73166214D01*
X97129024Y-75396802D02*
X97129024Y-73616226D01*
X94789391Y-69457978D02*
X93462046Y-69457978D01*
X89811314Y-91440000D02*
X93899155Y-87352159D01*
X93462046Y-68662912D02*
X93453457Y-68654323D01*
X86868000Y-97028000D02*
X86360000Y-96520000D01*
X91730998Y-83576347D02*
X93942978Y-81364367D01*
X93453457Y-68654323D02*
X93453457Y-67128398D01*
X91730998Y-85184002D02*
X91730998Y-83576347D01*
X86360000Y-96520000D02*
X86360000Y-93218000D01*
X93942978Y-81364367D02*
X93942978Y-79099609D01*
X96266000Y-76776587D02*
X96266000Y-76259826D01*
X93903164Y-66945014D02*
X95320838Y-65527340D01*
%TO.N,D+*%
X91186000Y-108966000D02*
X92964000Y-110744000D01*
X89662000Y-108966000D02*
X91186000Y-108966000D01*
X92804987Y-69752364D02*
X93012035Y-69545316D01*
X92804987Y-69907989D02*
X92804987Y-69752364D01*
X91921598Y-86011013D02*
X91280987Y-85370402D01*
X93003446Y-66771728D02*
X93555162Y-66220012D01*
X96229001Y-71533999D02*
X94602991Y-69907989D01*
X91280987Y-83389947D02*
X93492967Y-81177967D01*
X91280987Y-85370402D02*
X91280987Y-83389947D01*
X94602991Y-69907989D02*
X92804987Y-69907989D01*
X96229001Y-73352614D02*
X96229001Y-71533999D01*
X93012035Y-68849312D02*
X93003446Y-68840723D01*
X93012035Y-69545316D02*
X93012035Y-68849312D01*
X95781166Y-76108249D02*
X96679013Y-75210402D01*
X85852000Y-97790000D02*
X85852000Y-92080611D01*
X93492967Y-78913209D02*
X95781166Y-76625010D01*
X96679013Y-73802626D02*
X96229001Y-73352614D01*
X87376000Y-99314000D02*
X85852000Y-97790000D01*
X93492967Y-81177967D02*
X93492967Y-78913209D01*
X85852000Y-92080611D02*
X91921598Y-86011013D01*
X93003446Y-68840723D02*
X93003446Y-66771728D01*
X95781166Y-76625010D02*
X95781166Y-76108249D01*
X96679013Y-75210402D02*
X96679013Y-73802626D01*
D22*
%TO.N,Net-(D7-Pad1)*%
X124968000Y-107228000D02*
X124420000Y-106680000D01*
X124968000Y-110744000D02*
X124968000Y-107228000D01*
%TO.N,Net-(D10-Pad2)*%
X107188000Y-107228000D02*
X106640000Y-106680000D01*
X107188000Y-110744000D02*
X107188000Y-107228000D01*
%TO.N,Net-(D11-Pad2)*%
X65024000Y-78780000D02*
X67096000Y-78780000D01*
X73152000Y-84836000D02*
X73152000Y-86868000D01*
X67096000Y-78780000D02*
X73152000Y-84836000D01*
%TO.N,Net-(F2-Pad1)*%
X116605942Y-99329999D02*
X117337782Y-98598159D01*
X86082760Y-104902000D02*
X110041988Y-104902000D01*
X110041988Y-104902000D02*
X115613989Y-99329999D01*
X115613989Y-99329999D02*
X116605942Y-99329999D01*
X85648748Y-105336012D02*
X86082760Y-104902000D01*
X119634000Y-86614000D02*
X121706000Y-86614000D01*
X115824000Y-90424000D02*
X119634000Y-86614000D01*
X115824000Y-96774000D02*
X115824000Y-90424000D01*
D24*
%TO.N,FOOTPEDAL_AUX*%
X77470000Y-71102338D02*
X77958663Y-71591001D01*
X78654667Y-71591001D02*
X78929658Y-71316010D01*
X78929658Y-71316010D02*
X79688401Y-71316010D01*
X80646410Y-70358000D02*
X82296000Y-70358000D01*
X77470000Y-69342000D02*
X77470000Y-71102338D01*
X77958663Y-71591001D02*
X78654667Y-71591001D01*
X79688401Y-71316010D02*
X80646410Y-70358000D01*
%TO.N,UART1_RX*%
X99568000Y-66548000D02*
X100076000Y-66040000D01*
X98044000Y-66548000D02*
X99568000Y-66548000D01*
%TO.N,UART1_TX*%
X98053320Y-69088000D02*
X97540660Y-68575340D01*
X100076000Y-69088000D02*
X98053320Y-69088000D01*
%TO.N,I2C1_SDA*%
X102362000Y-65532000D02*
X99822000Y-62992000D01*
X80264000Y-56896000D02*
X80264000Y-57912000D01*
X85344000Y-62992000D02*
X88891010Y-62992000D01*
X80264000Y-57912000D02*
X85344000Y-62992000D01*
X100628562Y-58241710D02*
X100628562Y-56286682D01*
X99822000Y-62992000D02*
X99822000Y-59048272D01*
X99822000Y-59048272D02*
X100628562Y-58241710D01*
X99822000Y-62992000D02*
X99604998Y-63209002D01*
X93342577Y-63512745D02*
X92821832Y-62992000D01*
X94582000Y-63209002D02*
X94278257Y-63512745D01*
X99604998Y-63209002D02*
X94582000Y-63209002D01*
X94278257Y-63512745D02*
X93342577Y-63512745D01*
X92821832Y-62992000D02*
X88891010Y-62992000D01*
%TO.N,I2C1_SCL*%
X128404000Y-99702000D02*
X128270000Y-99568000D01*
X132080000Y-99702000D02*
X128404000Y-99702000D01*
X83312000Y-56896000D02*
X83312000Y-58674000D01*
X84582000Y-59944000D02*
X89408000Y-59944000D01*
X83312000Y-58674000D02*
X84582000Y-59944000D01*
X92721567Y-63528146D02*
X89642659Y-63528146D01*
X99219998Y-63790998D02*
X99082851Y-63928145D01*
X94499268Y-63928145D02*
X94464657Y-63962756D01*
X99916002Y-63790998D02*
X99219998Y-63790998D01*
X101636990Y-65511986D02*
X99916002Y-63790998D01*
X94464657Y-63962756D02*
X93156177Y-63962756D01*
X93156177Y-63962756D02*
X92721567Y-63528146D01*
X89642659Y-63528146D02*
X89242660Y-63928145D01*
X99082851Y-63928145D02*
X94499268Y-63928145D01*
X101636990Y-66548000D02*
X101636990Y-65511986D01*
X99323038Y-58474232D02*
X99323038Y-60442962D01*
X99323038Y-60442962D02*
X98806000Y-60960000D01*
X98806000Y-60960000D02*
X96266000Y-60960000D01*
X96266000Y-60960000D02*
X96012000Y-60960000D01*
X94742000Y-59944000D02*
X93726000Y-60960000D01*
X92710000Y-59944000D02*
X89408000Y-59944000D01*
X93726000Y-60960000D02*
X92710000Y-59944000D01*
%TO.N,JTCK*%
X92274587Y-65785070D02*
X92274587Y-67033823D01*
X96534798Y-68594798D02*
X94183850Y-68594798D01*
X114300000Y-68072000D02*
X111958999Y-70413001D01*
X92649219Y-65410438D02*
X92274587Y-65785070D01*
X111958999Y-70413001D02*
X98353001Y-70413001D01*
X98353001Y-70413001D02*
X96534798Y-68594798D01*
X94488000Y-56896000D02*
X94488000Y-58928000D01*
X94488000Y-58928000D02*
X93726000Y-59690000D01*
%TO.N,JTMS*%
X91440000Y-57658000D02*
X92456000Y-58674000D01*
X91440000Y-56896000D02*
X91440000Y-57658000D01*
X102456002Y-60488998D02*
X101759317Y-60488998D01*
X101759317Y-60488998D02*
X100838000Y-61410315D01*
X114300000Y-62992000D02*
X103623176Y-62992000D01*
X103623176Y-62992000D02*
X103029012Y-62397836D01*
X103029012Y-61062008D02*
X102456002Y-60488998D01*
X103029012Y-62397836D02*
X103029012Y-61062008D01*
X100838000Y-61410315D02*
X100838000Y-61976000D01*
%TO.N,JTDO*%
X88392000Y-57150000D02*
X89916000Y-58674000D01*
X88392000Y-56896000D02*
X88392000Y-57150000D01*
%TO.N,SPI1_MOSI*%
X108204000Y-54356000D02*
X108204000Y-56896000D01*
X106934000Y-53086000D02*
X108204000Y-54356000D01*
X104648000Y-53086000D02*
X106934000Y-53086000D01*
X99822000Y-53848000D02*
X98044000Y-53848000D01*
X98044000Y-53848000D02*
X97790000Y-53848000D01*
X74168000Y-54356000D02*
X74168000Y-53340000D01*
X68072000Y-60452000D02*
X74168000Y-54356000D01*
X81026000Y-75184000D02*
X73660000Y-75184000D01*
X85852000Y-80010000D02*
X81026000Y-75184000D01*
X87122000Y-80010000D02*
X85852000Y-80010000D01*
X66802000Y-68326000D02*
X66802000Y-66548000D01*
X73660000Y-75184000D02*
X66802000Y-68326000D01*
X92710000Y-76200000D02*
X92710000Y-77470000D01*
X90170000Y-80010000D02*
X88646000Y-80010000D01*
X92710000Y-77470000D02*
X90170000Y-80010000D01*
X94488000Y-53086000D02*
X94488000Y-54102000D01*
X94488000Y-54102000D02*
X95504000Y-55118000D01*
X95504000Y-55118000D02*
X97282000Y-55118000D01*
X97790000Y-54610000D02*
X97790000Y-53848000D01*
X97282000Y-55118000D02*
X97790000Y-54610000D01*
%TO.N,SPI1_MISO*%
X103378000Y-71882000D02*
X99389080Y-71882000D01*
X99389080Y-71882000D02*
X98930398Y-71423318D01*
X105156000Y-60903113D02*
X103861442Y-62197671D01*
X105156000Y-56896000D02*
X105156000Y-60903113D01*
X91503404Y-70358000D02*
X91249404Y-70612000D01*
X93726000Y-70358000D02*
X91503404Y-70358000D01*
X95250000Y-71882000D02*
X93726000Y-70358000D01*
X92189051Y-64274949D02*
X92443051Y-64274949D01*
X89662000Y-66802000D02*
X92189051Y-64274949D01*
X99396243Y-64687757D02*
X99568000Y-64516000D01*
X93341625Y-64687757D02*
X99396243Y-64687757D01*
X101854000Y-63500000D02*
X102108000Y-63500000D01*
X102108000Y-63500000D02*
X103378000Y-64770000D01*
X105410000Y-56642000D02*
X105156000Y-56896000D01*
X105410000Y-54610000D02*
X105410000Y-56642000D01*
%TO.N,SPI1_CLK*%
X94742000Y-80574032D02*
X95814032Y-79502000D01*
X95814032Y-79502000D02*
X100838000Y-79502000D01*
X100838000Y-79502000D02*
X104648000Y-79502000D01*
X104648000Y-79502000D02*
X105664000Y-78486000D01*
X102362000Y-57150000D02*
X102108000Y-56896000D01*
X102362000Y-58674000D02*
X102362000Y-57150000D01*
X102108000Y-61214000D02*
X102108000Y-62113234D01*
X102108000Y-62113234D02*
X104210060Y-64215294D01*
X92767965Y-80829965D02*
X92100928Y-81497002D01*
X92100928Y-81497002D02*
X88551998Y-81497002D01*
X87920998Y-80866002D02*
X87920998Y-77639968D01*
X88551998Y-81497002D02*
X87920998Y-80866002D01*
X87920998Y-77639968D02*
X89582573Y-75978393D01*
X101647671Y-55021458D02*
X99655223Y-55021458D01*
X102108000Y-56896000D02*
X102108000Y-55481787D01*
X102108000Y-55481787D02*
X101647671Y-55021458D01*
%TO.N,SPI1_CS*%
X87923696Y-69418575D02*
X88081982Y-69260289D01*
X87923696Y-71057413D02*
X87923696Y-69418575D01*
X88211988Y-67099255D02*
X91025681Y-64285562D01*
X91025681Y-64285562D02*
X91153118Y-64285562D01*
X99060000Y-55446576D02*
X98511364Y-54897940D01*
X99060000Y-56896000D02*
X99060000Y-55446576D01*
X95721002Y-60234998D02*
X95663998Y-60234998D01*
X95663998Y-60234998D02*
X93778281Y-62120715D01*
X99060000Y-56896000D02*
X95721002Y-60234998D01*
X93778281Y-62120715D02*
X93778281Y-62787735D01*
%TO.N,GNDA*%
X82042000Y-68580000D02*
X81788000Y-68580000D01*
X81788000Y-68580000D02*
X79502001Y-70865999D01*
X79502001Y-70865999D02*
X78306665Y-70865999D01*
%TO.N,Net-(JP2-Pad1)*%
X82296000Y-73152000D02*
X84884407Y-73152000D01*
X84884407Y-73152000D02*
X86925135Y-71111272D01*
%TO.N,NC_VALVE*%
X96229002Y-74918570D02*
X96229002Y-74073998D01*
X95056164Y-76091408D02*
X96229002Y-74918570D01*
X92679880Y-73501469D02*
X92679880Y-71127168D01*
X95974016Y-73819012D02*
X92997423Y-73819012D01*
X96229002Y-74073998D02*
X95974016Y-73819012D01*
X92997423Y-73819012D02*
X92679880Y-73501469D01*
%TO.N,NO_VALVE*%
X121412000Y-98806000D02*
X121412000Y-97028000D01*
X121412000Y-97028000D02*
X121412000Y-95758000D01*
X119634000Y-93980000D02*
X119634000Y-93726000D01*
X121412000Y-95758000D02*
X119634000Y-93980000D01*
%TO.N,3_WAY_VALVE*%
X102362000Y-99314000D02*
X102362000Y-96266000D01*
X101854000Y-86234410D02*
X105575408Y-82513002D01*
X97250576Y-72691564D02*
X97250576Y-71154554D01*
X98281015Y-72824011D02*
X97383023Y-72824011D01*
X102870000Y-94234000D02*
X101854000Y-93218000D01*
X101854000Y-93218000D02*
X101854000Y-86234410D01*
X105575408Y-82513002D02*
X106520002Y-82513002D01*
X106897002Y-78645998D02*
X106012002Y-77760998D01*
X106520002Y-82513002D02*
X106897002Y-82136002D01*
X106897002Y-82136002D02*
X106897002Y-78645998D01*
X97250576Y-71154554D02*
X97250576Y-70588869D01*
X97383023Y-72824011D02*
X97250576Y-72691564D01*
X106012002Y-77760998D02*
X103218002Y-77760998D01*
X103218002Y-77760998D02*
X98281015Y-72824011D01*
D22*
%TO.N,MOTOR_PWM*%
X68326000Y-74676000D02*
X67818000Y-75184000D01*
X71120000Y-74676000D02*
X68326000Y-74676000D01*
X64770000Y-75184000D02*
X63500000Y-76454000D01*
X67818000Y-75184000D02*
X64770000Y-75184000D01*
D24*
X81883975Y-72491023D02*
X82492998Y-71882000D01*
X82492998Y-71882000D02*
X84582000Y-71882000D01*
X74777023Y-72491023D02*
X81883975Y-72491023D01*
X72644000Y-70358000D02*
X74777023Y-72491023D01*
X86633654Y-69657678D02*
X86633654Y-68999202D01*
X86633654Y-68999202D02*
X87547580Y-68085276D01*
X91174995Y-68085276D02*
X92287033Y-69197314D01*
X87547580Y-68085276D02*
X91174995Y-68085276D01*
%TO.N,Net-(R2-Pad2)*%
X83880000Y-102618000D02*
X83856999Y-102594999D01*
X83856999Y-102594999D02*
X83856999Y-94001001D01*
X83856999Y-94001001D02*
X83880000Y-93978000D01*
X87685004Y-102618000D02*
X88060000Y-102618000D01*
%TO.N,Net-(R7-Pad1)*%
X93218000Y-95758000D02*
X93472000Y-96012000D01*
X93472000Y-96012000D02*
X93472000Y-100076000D01*
X97028000Y-100584000D02*
X98806000Y-98806000D01*
X98806000Y-98806000D02*
X101346000Y-98806000D01*
%TO.N,BOOT0*%
X87376000Y-64008000D02*
X87630000Y-64262000D01*
X86106000Y-64008000D02*
X87376000Y-64008000D01*
X76708000Y-55880000D02*
X81788000Y-60960000D01*
X76708000Y-52832000D02*
X76708000Y-55880000D01*
%TO.N,Net-(R19-Pad1)*%
X102593671Y-78232000D02*
X102638329Y-78276658D01*
X99060000Y-78232000D02*
X102593671Y-78232000D01*
X96520000Y-78232000D02*
X99060000Y-78232000D01*
%TO.N,Net-(R19-Pad2)*%
X103327071Y-82042347D02*
X103380777Y-82096053D01*
X99568135Y-82042347D02*
X103327071Y-82042347D01*
X96520000Y-82804000D02*
X98806482Y-82804000D01*
X98806482Y-82804000D02*
X99568135Y-82042347D01*
D23*
%TO.N,IAREF*%
X104248001Y-81388001D02*
X104648000Y-81788000D01*
X103505525Y-81134001D02*
X103759525Y-81388001D01*
X96884947Y-81134001D02*
X103505525Y-81134001D01*
X103759525Y-81388001D02*
X104248001Y-81388001D01*
X96484948Y-81534000D02*
X96884947Y-81134001D01*
D22*
%TO.N,USB_VIN*%
X90277972Y-95534094D02*
X90678000Y-95934122D01*
X90678000Y-95934122D02*
X90678000Y-98298000D01*
X90678000Y-98298000D02*
X90678000Y-100664259D01*
X90678000Y-100664259D02*
X90424248Y-100918011D01*
X120427996Y-89154000D02*
X123444000Y-89154000D01*
X115838000Y-98298000D02*
X118633998Y-95502002D01*
X112713987Y-95173987D02*
X115838000Y-98298000D01*
X103410015Y-95173987D02*
X112713987Y-95173987D01*
X102389999Y-95234001D02*
X103350001Y-95234001D01*
X103350001Y-95234001D02*
X103410015Y-95173987D01*
X123444000Y-89154000D02*
X124206000Y-88392000D01*
X118633998Y-95502002D02*
X118633998Y-90947998D01*
X100643997Y-93487999D02*
X102389999Y-95234001D01*
X97901862Y-93487999D02*
X100643997Y-93487999D01*
X97830841Y-93416978D02*
X97901862Y-93487999D01*
X96834363Y-93416978D02*
X97830841Y-93416978D01*
X95381384Y-91963998D02*
X96834363Y-93416978D01*
X118633998Y-90947998D02*
X120427996Y-89154000D01*
X90678000Y-98298000D02*
X90678000Y-95140228D01*
X93854230Y-91963998D02*
X95381384Y-91963998D01*
X124206000Y-88392000D02*
X124206000Y-86614000D01*
X90678000Y-95140228D02*
X93854230Y-91963998D01*
D24*
%TO.N,BOOT1*%
X85852000Y-67310000D02*
X83566000Y-67310000D01*
X75184000Y-58928000D02*
X75184000Y-55880000D01*
X83566000Y-67310000D02*
X75184000Y-58928000D01*
%TO.N,VACSENSE*%
X95381978Y-74544022D02*
X95503992Y-74544022D01*
X93980000Y-75946000D02*
X95381978Y-74544022D01*
X90182206Y-72148206D02*
X90182206Y-69958681D01*
X90182206Y-69958681D02*
X90837021Y-69303866D01*
X93980000Y-75946000D02*
X90182206Y-72148206D01*
%TO.N,Net-(U4-Pad1)*%
X114046000Y-90735000D02*
X114046000Y-92710000D01*
X114046000Y-92710000D02*
X113538000Y-93218000D01*
X113538000Y-93218000D02*
X113284000Y-93472000D01*
X113284000Y-93472000D02*
X109982000Y-93472000D01*
X109982000Y-93472000D02*
X105410000Y-88900000D01*
X105410000Y-88900000D02*
X102616000Y-88900000D01*
%TO.N,Net-(U4-Pad4)*%
X107696000Y-82340002D02*
X110191998Y-82340002D01*
X110547000Y-81985000D02*
X111506000Y-81985000D01*
X110191998Y-82340002D02*
X110547000Y-81985000D01*
X95884948Y-80590520D02*
X104974520Y-80590520D01*
X104974520Y-80590520D02*
X106172000Y-81788000D01*
D22*
%TO.N,VDD*%
X100838000Y-106680000D02*
X101346000Y-106172000D01*
X99568000Y-106680000D02*
X100838000Y-106680000D01*
D23*
X96520000Y-58166000D02*
X95758000Y-58928000D01*
X96520000Y-56388000D02*
X96520000Y-58166000D01*
%TD*%
M02*
