M48
; DRILL file {KiCad (5.99.0-11604-g878538abff)} date Friday, August 06, 2021 at 01:48:51 PM
; FORMAT={-:-/ absolute / inch / decimal}
; #@! TF.CreationDate,2021-08-06T13:48:51+02:00
; #@! TF.GenerationSoftware,Kicad,Pcbnew,(5.99.0-11604-g878538abff)
; #@! TF.FileFunction,Plated,1,4,PTH
FMAT,2
INCH
; #@! TA.AperFunction,Plated,PTH,ViaDrill
T1C0.0118
; #@! TA.AperFunction,Plated,PTH,ViaDrill
T2C0.0138
; #@! TA.AperFunction,Plated,PTH,ViaDrill
T3C0.0197
; #@! TA.AperFunction,Plated,PTH,ComponentDrill
T4C0.0197
; #@! TA.AperFunction,Plated,PTH,ComponentDrill
T5C0.0256
; #@! TA.AperFunction,Plated,PTH,ComponentDrill
T6C0.0315
; #@! TA.AperFunction,Plated,PTH,ComponentDrill
T7C0.0354
; #@! TA.AperFunction,Plated,PTH,ComponentDrill
T8C0.0394
; #@! TA.AperFunction,Plated,PTH,ComponentDrill
T9C0.0512
; #@! TA.AperFunction,Plated,PTH,ComponentDrill
T10C0.0630
; #@! TA.AperFunction,Plated,PTH,ComponentDrill
T11C0.1260
%
G90
G05
T1
X2.693Y-4.235
X2.713Y-4.601
X2.722Y-4.252
X2.749Y-3.96
X2.752Y-4.8484
X2.754Y-4.113
X2.8012Y-4.5157
X2.8012Y-4.5492
X2.8031Y-4.6102
X2.8031Y-4.6378
X2.8051Y-4.4626
X2.8071Y-4.3878
X2.8071Y-4.4232
X2.8406Y-4.189
X2.8465Y-4.5157
X2.85Y-5.225
X2.85Y-5.265
X2.85Y-5.305
X2.85Y-5.34
X2.8504Y-4.4705
X2.8563Y-4.376
X2.89Y-5.305
X2.89Y-5.34
X2.8996Y-4.2421
X2.9213Y-4.4724
X2.93Y-5.305
X2.93Y-5.34
X2.9685Y-4.7087
X2.9685Y-4.7441
X2.9685Y-4.7815
X2.9685Y-4.8169
X2.9685Y-4.8543
X2.9685Y-4.8878
X2.9705Y-4.4724
X2.988Y-4.234
X2.9941Y-4.6654
X3.0Y-4.7087
X3.0Y-4.7461
X3.0Y-4.7815
X3.0Y-4.8169
X3.0Y-4.8543
X3.0Y-4.8878
X3.001Y-4.172
X3.0197Y-4.2717
X3.038Y-3.961
X3.047Y-4.116
X3.0492Y-4.5197
X3.0492Y-4.5709
X3.0531Y-4.3091
X3.0531Y-4.8228
X3.075Y-4.246
X3.0906Y-4.8228
X3.104Y-4.334
X3.1063Y-4.5197
X3.1063Y-4.5689
X3.128Y-4.8228
X3.128Y-4.198
X3.1654Y-4.9724
X3.1654Y-5.0118
X3.1929Y-4.9724
X3.1929Y-5.0118
X3.194Y-4.465
X3.2Y-4.332
X3.202Y-5.258
X3.202Y-5.294
X3.2087Y-4.9134
X3.235Y-4.17
X3.24Y-5.258
X3.24Y-5.294
X3.278Y-4.753
X3.28Y-5.44
X3.283Y-4.233
X3.31Y-5.244
X3.31Y-5.302
X3.31Y-5.439
X3.318Y-5.13
X3.331Y-4.998
X3.334Y-3.961
X3.34Y-4.116
X3.342Y-5.44
X3.358Y-4.832
X3.362Y-5.069
X3.376Y-5.127
X3.402Y-5.258
X3.41Y-4.86
X3.4103Y-5.102
X3.42Y-4.97
X3.46Y-4.925
X3.475Y-4.86
X3.477Y-5.231
X3.485Y-4.617
X3.495Y-5.065
X3.496Y-4.834
X3.506Y-5.137
X3.51Y-5.495
X3.51Y-5.54
X3.542Y-5.14
X3.55Y-5.46
X3.555Y-4.259
X3.555Y-5.375
X3.56Y-5.615
X3.585Y-5.575
X3.5852Y-5.4534
X3.595Y-5.904
X3.6Y-5.68
X3.6084Y-5.4337
X3.616Y-4.877
X3.618Y-4.547
X3.62Y-4.63
X3.62Y-6.085
X3.621Y-5.168
X3.6226Y-4.8346
X3.634Y-4.512
X3.638Y-5.585
X3.64Y-5.68
X3.644Y-4.946
X3.644Y-5.147
X3.645Y-5.207
X3.671Y-4.46
X3.687Y-5.314
X3.687Y-5.358
X3.687Y-5.403
X3.687Y-5.446
X3.687Y-5.487
X3.694Y-5.028
X3.695Y-5.1327
X3.695Y-5.172
X3.695Y-5.9
X3.704Y-5.822
X3.72Y-4.304
X3.727Y-4.54
X3.749Y-5.603
X3.764Y-5.713
X3.7736Y-5.7793
X3.774Y-5.488
X3.7812Y-5.1544
X3.796Y-6.056
X3.8Y-5.312
X3.8197Y-5.2087
X3.823Y-5.488
X3.843Y-5.743
X3.846Y-5.71
X3.851Y-5.312
X3.863Y-5.403
X3.863Y-5.441
X3.863Y-5.486
X3.864Y-5.36
X3.913Y-5.852
X3.918Y-6.056
X3.925Y-5.535
X3.9555Y-5.3606
X3.982Y-5.81
X4.0Y-5.393
X4.001Y-5.331
X4.0143Y-5.9017
X4.02Y-4.68
X4.027Y-5.537
X4.03Y-4.575
X4.034Y-5.391
X4.059Y-5.906
X4.064Y-5.275
X4.077Y-5.242
X4.08Y-4.87
X4.0919Y-5.4201
X4.0925Y-5.3945
X4.094Y-5.369
X4.1Y-4.845
X4.104Y-5.336
X4.112Y-5.859
X4.116Y-4.622
X4.135Y-5.11
X4.159Y-5.836
X4.17Y-5.635
X4.18Y-5.795
X4.1813Y-4.8897
X4.185Y-4.665
X4.185Y-4.915
X4.185Y-4.975
X4.2123Y-4.9433
X4.215Y-5.215
X4.217Y-5.435
X4.22Y-4.67
X4.225Y-4.92
X4.225Y-5.41
X4.2303Y-4.8895
X4.235Y-4.98
X4.255Y-4.64
X4.277Y-5.776
X4.295Y-4.75
X4.295Y-5.39
X4.303Y-5.638
X4.305Y-4.725
X4.31Y-4.58
X4.36Y-4.71
X4.361Y-5.794
X4.365Y-4.865
X4.375Y-5.405
X4.379Y-5.337
X4.387Y-5.002
X4.392Y-5.081
X4.395Y-4.74
X4.399Y-4.842
X4.405Y-5.476
X4.408Y-5.568
X4.415Y-5.11
X4.415Y-5.19
X4.47Y-4.73
X4.473Y-5.511
X4.476Y-5.538
X4.485Y-4.705
X4.49Y-5.255
X4.4991Y-5.3739
X4.53Y-4.695
X4.552Y-5.334
X4.5569Y-4.7256
X4.565Y-5.03
X4.565Y-5.18
X4.5716Y-4.8957
X4.575Y-4.745
X4.575Y-4.775
X4.585Y-5.225
X4.592Y-5.339
X4.592Y-5.532
X4.609Y-5.901
X4.61Y-5.02
X4.621Y-5.977
X4.625Y-5.385
X4.6297Y-4.8869
X4.6484Y-4.7753
X4.663Y-5.717
X4.665Y-5.355
X4.677Y-5.227
X4.685Y-5.819
X4.7Y-4.675
X4.71Y-5.05
X4.715Y-5.23
X4.735Y-4.795
X4.736Y-5.838
X4.74Y-4.755
X4.75Y-5.225
X4.77Y-4.675
X4.77Y-4.845
X4.771Y-5.46
X4.81Y-4.565
X4.81Y-4.79
X4.815Y-5.444
X4.824Y-5.848
X4.86Y-5.454
X4.861Y-5.099
X4.8783Y-4.9683
X4.892Y-5.224
X4.9Y-4.885
X4.9Y-5.451
X4.937Y-5.855
X4.961Y-5.183
X4.98Y-5.04
X5.007Y-5.139
X5.019Y-5.944
X5.047Y-5.475
X5.081Y-5.212
X5.147Y-5.191
X5.199Y-5.187
T2
X3.195Y-4.587
X3.266Y-4.412
X3.371Y-4.342
X3.528Y-4.04
X3.615Y-4.044
X4.298Y-4.665
X5.015Y-4.9
T3
X2.945Y-5.905
X3.1417Y-5.0827
X3.155Y-5.365
T4
X2.7015Y-3.752
X2.7292Y-3.6852
X2.7292Y-3.8188
X2.796Y-3.6575
X2.796Y-3.8465
X2.8628Y-3.6852
X2.8628Y-3.8188
X2.8775Y-5.686
X2.8905Y-3.752
X2.9052Y-5.6192
X2.9052Y-5.7528
X2.972Y-5.5915
X2.972Y-5.7805
X3.0388Y-5.6192
X3.0388Y-5.7528
X3.0665Y-5.686
X3.8455Y-5.01
X3.8732Y-4.9432
X3.8732Y-5.0768
X3.94Y-4.9155
X3.94Y-5.1045
X4.0068Y-4.9432
X4.0068Y-5.0768
X4.0345Y-5.01
X4.8135Y-5.686
X4.8412Y-5.6192
X4.8412Y-5.7528
X4.908Y-5.5915
X4.908Y-5.7805
X4.9748Y-5.6192
X4.9748Y-5.7528
X4.9835Y-4.238
X5.0025Y-5.686
X5.0112Y-4.1712
X5.0112Y-4.3048
X5.078Y-4.1435
X5.078Y-4.3325
X5.1448Y-4.1712
X5.1448Y-4.3048
X5.1725Y-4.238
T6
X5.0776Y-4.8349
X5.0776Y-4.9136
X5.0776Y-4.9924
X5.0776Y-5.0711
X5.1564Y-4.8349
X5.1564Y-4.9136
X5.1564Y-4.9924
X5.1564Y-5.0711
T7
X4.4698Y-5.7441
X4.5099Y-5.8441
X4.5501Y-5.7441
X4.5902Y-5.8441
T8
X3.8793Y-4.3008
X3.8793Y-4.3992
X3.8793Y-4.6258
X3.8793Y-4.7242
X4.2087Y-4.3528
X4.2087Y-4.4512
X5.0356Y-4.4754
X5.0356Y-4.6526
T9
X4.5128Y-4.474
X4.7128Y-4.474
X4.9372Y-4.4262
X4.9372Y-4.7018
T10
X3.61Y-3.9
T11
X2.796Y-3.752
X2.972Y-5.686
X3.94Y-5.01
X4.908Y-5.686
X5.078Y-4.238
T5
G00X3.6899Y-5.9571
M15
G01X3.6899Y-6.0004
M16
G05
G00X3.6899Y-6.1315
M15
G01X3.6899Y-6.1551
M16
G05
G00X4.0301Y-5.9571
M15
G01X4.0301Y-6.0004
M16
G05
G00X4.0301Y-6.1315
M15
G01X4.0301Y-6.1551
M16
G05
T6
G00X3.2192Y-5.64
M15
G01X3.3216Y-5.64
M16
G05
G00X3.2271Y-5.8683
M15
G01X3.3137Y-5.8683
M16
G05
G00X3.4594Y-5.8014
M15
G01X3.4594Y-5.7148
M16
G05
T0
M30
