%TF.GenerationSoftware,KiCad,Pcbnew,(5.99.0-10573-gc33b2cfa8d)*%
%TF.CreationDate,2021-05-19T14:35:48+02:00*%
%TF.ProjectId,sucker-one-mainboard,7375636b-6572-42d6-9f6e-652d6d61696e,rev?*%
%TF.SameCoordinates,Original*%
%TF.FileFunction,Legend,Bot*%
%TF.FilePolarity,Positive*%
%FSLAX46Y46*%
G04 Gerber Fmt 4.6, Leading zero omitted, Abs format (unit mm)*
G04 Created by KiCad (PCBNEW (5.99.0-10573-gc33b2cfa8d)) date 2021-05-19 14:35:48*
%MOMM*%
%LPD*%
G01*
G04 APERTURE LIST*
%ADD10C,0.120000*%
G04 APERTURE END LIST*
D10*
%TO.C,TP13*%
X73628100Y-117500400D02*
G75*
G03*
X73628100Y-117500400I-1200000J0D01*
G01*
%TO.C,TP1*%
X100717200Y-153822400D02*
G75*
G03*
X100717200Y-153822400I-1200000J0D01*
G01*
%TO.C,TP15*%
X96577000Y-107365800D02*
G75*
G03*
X96577000Y-107365800I-1200000J0D01*
G01*
%TO.C,TP2*%
X97618400Y-153822400D02*
G75*
G03*
X97618400Y-153822400I-1200000J0D01*
G01*
%TO.C,TP7*%
X73628100Y-110337600D02*
G75*
G03*
X73628100Y-110337600I-1200000J0D01*
G01*
%TO.C,TP10*%
X76917400Y-117500400D02*
G75*
G03*
X76917400Y-117500400I-1200000J0D01*
G01*
%TO.C,TP14*%
X93503600Y-107365800D02*
G75*
G03*
X93503600Y-107365800I-1200000J0D01*
G01*
%TO.C,TP18*%
X117735200Y-121691400D02*
G75*
G03*
X117735200Y-121691400I-1200000J0D01*
G01*
%TO.C,TP16*%
X70338800Y-117500400D02*
G75*
G03*
X70338800Y-117500400I-1200000J0D01*
G01*
%TO.C,TP22*%
X124263000Y-133299200D02*
G75*
G03*
X124263000Y-133299200I-1200000J0D01*
G01*
%TO.C,TP31*%
X118014600Y-151663400D02*
G75*
G03*
X118014600Y-151663400I-1200000J0D01*
G01*
%TO.C,TP23*%
X127412600Y-133299200D02*
G75*
G03*
X127412600Y-133299200I-1200000J0D01*
G01*
%TO.C,TP11*%
X80194000Y-117500400D02*
G75*
G03*
X80194000Y-117500400I-1200000J0D01*
G01*
%TO.C,TP26*%
X86950400Y-96012000D02*
G75*
G03*
X86950400Y-96012000I-1200000J0D01*
G01*
%TO.C,TP25*%
X90049200Y-96037400D02*
G75*
G03*
X90049200Y-96037400I-1200000J0D01*
G01*
%TO.C,TP28*%
X80702000Y-96037400D02*
G75*
G03*
X80702000Y-96037400I-1200000J0D01*
G01*
%TO.C,TP5*%
X90150800Y-135940800D02*
G75*
G03*
X90150800Y-135940800I-1200000J0D01*
G01*
%TO.C,TP12*%
X121367400Y-128219200D02*
G75*
G03*
X121367400Y-128219200I-1200000J0D01*
G01*
%TO.C,TP20*%
X114814200Y-151688800D02*
G75*
G03*
X114814200Y-151688800I-1200000J0D01*
G01*
%TO.C,TP4*%
X70338800Y-110337600D02*
G75*
G03*
X70338800Y-110337600I-1200000J0D01*
G01*
%TO.C,TP9*%
X76917400Y-110337600D02*
G75*
G03*
X76917400Y-110337600I-1200000J0D01*
G01*
%TO.C,TP27*%
X83826200Y-96012000D02*
G75*
G03*
X83826200Y-96012000I-1200000J0D01*
G01*
%TO.C,TP24*%
X124466200Y-128219200D02*
G75*
G03*
X124466200Y-128219200I-1200000J0D01*
G01*
%TD*%
M02*
