%TF.GenerationSoftware,KiCad,Pcbnew,(5.1.8-0-10_14)*%
%TF.CreationDate,2020-12-22T15:13:40+01:00*%
%TF.ProjectId,sucker-one-mainboard,7375636b-6572-42d6-9f6e-652d6d61696e,rev?*%
%TF.SameCoordinates,Original*%
%TF.FileFunction,Paste,Top*%
%TF.FilePolarity,Positive*%
%FSLAX46Y46*%
G04 Gerber Fmt 4.6, Leading zero omitted, Abs format (unit mm)*
G04 Created by KiCad (PCBNEW (5.1.8-0-10_14)) date 2020-12-22 15:13:40*
%MOMM*%
%LPD*%
G01*
G04 APERTURE LIST*
%ADD10R,2.400000X2.000000*%
%ADD11R,1.800000X2.500000*%
%ADD12R,1.100000X1.100000*%
%ADD13R,0.600000X0.500000*%
%ADD14R,0.500000X0.600000*%
%ADD15R,1.800000X4.200000*%
%ADD16R,0.800000X0.900000*%
%ADD17R,1.300000X2.000000*%
%ADD18R,2.000000X2.000000*%
%ADD19R,1.700000X0.900000*%
%ADD20R,3.800000X2.000000*%
%ADD21R,1.500000X2.000000*%
%ADD22O,0.800000X0.230000*%
%ADD23R,0.230000X0.230000*%
%ADD24R,0.680000X1.050000*%
%ADD25R,0.260000X0.500000*%
%ADD26R,0.600000X1.970000*%
%ADD27R,1.450000X0.300000*%
%ADD28R,1.450000X0.600000*%
%ADD29R,0.300000X0.700000*%
%ADD30R,0.300000X1.000000*%
G04 APERTURE END LIST*
D10*
%TO.C,Y1*%
X79248000Y-59618000D03*
X79248000Y-63318000D03*
%TD*%
%TO.C,C1*%
G36*
G01*
X99444000Y-73422500D02*
X99444000Y-73897500D01*
G75*
G02*
X99206500Y-74135000I-237500J0D01*
G01*
X98606500Y-74135000D01*
G75*
G02*
X98369000Y-73897500I0J237500D01*
G01*
X98369000Y-73422500D01*
G75*
G02*
X98606500Y-73185000I237500J0D01*
G01*
X99206500Y-73185000D01*
G75*
G02*
X99444000Y-73422500I0J-237500D01*
G01*
G37*
G36*
G01*
X97719000Y-73422500D02*
X97719000Y-73897500D01*
G75*
G02*
X97481500Y-74135000I-237500J0D01*
G01*
X96881500Y-74135000D01*
G75*
G02*
X96644000Y-73897500I0J237500D01*
G01*
X96644000Y-73422500D01*
G75*
G02*
X96881500Y-73185000I237500J0D01*
G01*
X97481500Y-73185000D01*
G75*
G02*
X97719000Y-73422500I0J-237500D01*
G01*
G37*
%TD*%
%TO.C,C2*%
G36*
G01*
X97806500Y-60068000D02*
X98281500Y-60068000D01*
G75*
G02*
X98519000Y-60305500I0J-237500D01*
G01*
X98519000Y-60905500D01*
G75*
G02*
X98281500Y-61143000I-237500J0D01*
G01*
X97806500Y-61143000D01*
G75*
G02*
X97569000Y-60905500I0J237500D01*
G01*
X97569000Y-60305500D01*
G75*
G02*
X97806500Y-60068000I237500J0D01*
G01*
G37*
G36*
G01*
X97806500Y-61793000D02*
X98281500Y-61793000D01*
G75*
G02*
X98519000Y-62030500I0J-237500D01*
G01*
X98519000Y-62630500D01*
G75*
G02*
X98281500Y-62868000I-237500J0D01*
G01*
X97806500Y-62868000D01*
G75*
G02*
X97569000Y-62630500I0J237500D01*
G01*
X97569000Y-62030500D01*
G75*
G02*
X97806500Y-61793000I237500J0D01*
G01*
G37*
%TD*%
%TO.C,C3*%
G36*
G01*
X109998500Y-70937000D02*
X110473500Y-70937000D01*
G75*
G02*
X110711000Y-71174500I0J-237500D01*
G01*
X110711000Y-71774500D01*
G75*
G02*
X110473500Y-72012000I-237500J0D01*
G01*
X109998500Y-72012000D01*
G75*
G02*
X109761000Y-71774500I0J237500D01*
G01*
X109761000Y-71174500D01*
G75*
G02*
X109998500Y-70937000I237500J0D01*
G01*
G37*
G36*
G01*
X109998500Y-69212000D02*
X110473500Y-69212000D01*
G75*
G02*
X110711000Y-69449500I0J-237500D01*
G01*
X110711000Y-70049500D01*
G75*
G02*
X110473500Y-70287000I-237500J0D01*
G01*
X109998500Y-70287000D01*
G75*
G02*
X109761000Y-70049500I0J237500D01*
G01*
X109761000Y-69449500D01*
G75*
G02*
X109998500Y-69212000I237500J0D01*
G01*
G37*
%TD*%
%TO.C,C4*%
G36*
G01*
X88629500Y-86035000D02*
X88154500Y-86035000D01*
G75*
G02*
X87917000Y-85797500I0J237500D01*
G01*
X87917000Y-85197500D01*
G75*
G02*
X88154500Y-84960000I237500J0D01*
G01*
X88629500Y-84960000D01*
G75*
G02*
X88867000Y-85197500I0J-237500D01*
G01*
X88867000Y-85797500D01*
G75*
G02*
X88629500Y-86035000I-237500J0D01*
G01*
G37*
G36*
G01*
X88629500Y-87760000D02*
X88154500Y-87760000D01*
G75*
G02*
X87917000Y-87522500I0J237500D01*
G01*
X87917000Y-86922500D01*
G75*
G02*
X88154500Y-86685000I237500J0D01*
G01*
X88629500Y-86685000D01*
G75*
G02*
X88867000Y-86922500I0J-237500D01*
G01*
X88867000Y-87522500D01*
G75*
G02*
X88629500Y-87760000I-237500J0D01*
G01*
G37*
%TD*%
%TO.C,C5*%
G36*
G01*
X86543000Y-74438500D02*
X86543000Y-74913500D01*
G75*
G02*
X86305500Y-75151000I-237500J0D01*
G01*
X85705500Y-75151000D01*
G75*
G02*
X85468000Y-74913500I0J237500D01*
G01*
X85468000Y-74438500D01*
G75*
G02*
X85705500Y-74201000I237500J0D01*
G01*
X86305500Y-74201000D01*
G75*
G02*
X86543000Y-74438500I0J-237500D01*
G01*
G37*
G36*
G01*
X88268000Y-74438500D02*
X88268000Y-74913500D01*
G75*
G02*
X88030500Y-75151000I-237500J0D01*
G01*
X87430500Y-75151000D01*
G75*
G02*
X87193000Y-74913500I0J237500D01*
G01*
X87193000Y-74438500D01*
G75*
G02*
X87430500Y-74201000I237500J0D01*
G01*
X88030500Y-74201000D01*
G75*
G02*
X88268000Y-74438500I0J-237500D01*
G01*
G37*
%TD*%
%TO.C,C6*%
G36*
G01*
X75962500Y-59761000D02*
X76437500Y-59761000D01*
G75*
G02*
X76675000Y-59998500I0J-237500D01*
G01*
X76675000Y-60598500D01*
G75*
G02*
X76437500Y-60836000I-237500J0D01*
G01*
X75962500Y-60836000D01*
G75*
G02*
X75725000Y-60598500I0J237500D01*
G01*
X75725000Y-59998500D01*
G75*
G02*
X75962500Y-59761000I237500J0D01*
G01*
G37*
G36*
G01*
X75962500Y-58036000D02*
X76437500Y-58036000D01*
G75*
G02*
X76675000Y-58273500I0J-237500D01*
G01*
X76675000Y-58873500D01*
G75*
G02*
X76437500Y-59111000I-237500J0D01*
G01*
X75962500Y-59111000D01*
G75*
G02*
X75725000Y-58873500I0J237500D01*
G01*
X75725000Y-58273500D01*
G75*
G02*
X75962500Y-58036000I237500J0D01*
G01*
G37*
%TD*%
%TO.C,C7*%
G36*
G01*
X80648000Y-65294500D02*
X80648000Y-65769500D01*
G75*
G02*
X80410500Y-66007000I-237500J0D01*
G01*
X79810500Y-66007000D01*
G75*
G02*
X79573000Y-65769500I0J237500D01*
G01*
X79573000Y-65294500D01*
G75*
G02*
X79810500Y-65057000I237500J0D01*
G01*
X80410500Y-65057000D01*
G75*
G02*
X80648000Y-65294500I0J-237500D01*
G01*
G37*
G36*
G01*
X78923000Y-65294500D02*
X78923000Y-65769500D01*
G75*
G02*
X78685500Y-66007000I-237500J0D01*
G01*
X78085500Y-66007000D01*
G75*
G02*
X77848000Y-65769500I0J237500D01*
G01*
X77848000Y-65294500D01*
G75*
G02*
X78085500Y-65057000I237500J0D01*
G01*
X78685500Y-65057000D01*
G75*
G02*
X78923000Y-65294500I0J-237500D01*
G01*
G37*
%TD*%
%TO.C,C8*%
G36*
G01*
X90661500Y-87760000D02*
X90186500Y-87760000D01*
G75*
G02*
X89949000Y-87522500I0J237500D01*
G01*
X89949000Y-86922500D01*
G75*
G02*
X90186500Y-86685000I237500J0D01*
G01*
X90661500Y-86685000D01*
G75*
G02*
X90899000Y-86922500I0J-237500D01*
G01*
X90899000Y-87522500D01*
G75*
G02*
X90661500Y-87760000I-237500J0D01*
G01*
G37*
G36*
G01*
X90661500Y-86035000D02*
X90186500Y-86035000D01*
G75*
G02*
X89949000Y-85797500I0J237500D01*
G01*
X89949000Y-85197500D01*
G75*
G02*
X90186500Y-84960000I237500J0D01*
G01*
X90661500Y-84960000D01*
G75*
G02*
X90899000Y-85197500I0J-237500D01*
G01*
X90899000Y-85797500D01*
G75*
G02*
X90661500Y-86035000I-237500J0D01*
G01*
G37*
%TD*%
%TO.C,C9*%
G36*
G01*
X84565500Y-87760000D02*
X84090500Y-87760000D01*
G75*
G02*
X83853000Y-87522500I0J237500D01*
G01*
X83853000Y-86922500D01*
G75*
G02*
X84090500Y-86685000I237500J0D01*
G01*
X84565500Y-86685000D01*
G75*
G02*
X84803000Y-86922500I0J-237500D01*
G01*
X84803000Y-87522500D01*
G75*
G02*
X84565500Y-87760000I-237500J0D01*
G01*
G37*
G36*
G01*
X84565500Y-86035000D02*
X84090500Y-86035000D01*
G75*
G02*
X83853000Y-85797500I0J237500D01*
G01*
X83853000Y-85197500D01*
G75*
G02*
X84090500Y-84960000I237500J0D01*
G01*
X84565500Y-84960000D01*
G75*
G02*
X84803000Y-85197500I0J-237500D01*
G01*
X84803000Y-85797500D01*
G75*
G02*
X84565500Y-86035000I-237500J0D01*
G01*
G37*
%TD*%
%TO.C,C10*%
G36*
G01*
X84960000Y-59673500D02*
X84960000Y-59198500D01*
G75*
G02*
X85197500Y-58961000I237500J0D01*
G01*
X85797500Y-58961000D01*
G75*
G02*
X86035000Y-59198500I0J-237500D01*
G01*
X86035000Y-59673500D01*
G75*
G02*
X85797500Y-59911000I-237500J0D01*
G01*
X85197500Y-59911000D01*
G75*
G02*
X84960000Y-59673500I0J237500D01*
G01*
G37*
G36*
G01*
X86685000Y-59673500D02*
X86685000Y-59198500D01*
G75*
G02*
X86922500Y-58961000I237500J0D01*
G01*
X87522500Y-58961000D01*
G75*
G02*
X87760000Y-59198500I0J-237500D01*
G01*
X87760000Y-59673500D01*
G75*
G02*
X87522500Y-59911000I-237500J0D01*
G01*
X86922500Y-59911000D01*
G75*
G02*
X86685000Y-59673500I0J237500D01*
G01*
G37*
%TD*%
%TO.C,C11*%
G36*
G01*
X107458500Y-70937000D02*
X107933500Y-70937000D01*
G75*
G02*
X108171000Y-71174500I0J-237500D01*
G01*
X108171000Y-71774500D01*
G75*
G02*
X107933500Y-72012000I-237500J0D01*
G01*
X107458500Y-72012000D01*
G75*
G02*
X107221000Y-71774500I0J237500D01*
G01*
X107221000Y-71174500D01*
G75*
G02*
X107458500Y-70937000I237500J0D01*
G01*
G37*
G36*
G01*
X107458500Y-69212000D02*
X107933500Y-69212000D01*
G75*
G02*
X108171000Y-69449500I0J-237500D01*
G01*
X108171000Y-70049500D01*
G75*
G02*
X107933500Y-70287000I-237500J0D01*
G01*
X107458500Y-70287000D01*
G75*
G02*
X107221000Y-70049500I0J237500D01*
G01*
X107221000Y-69449500D01*
G75*
G02*
X107458500Y-69212000I237500J0D01*
G01*
G37*
%TD*%
%TO.C,C12*%
G36*
G01*
X86597500Y-86035000D02*
X86122500Y-86035000D01*
G75*
G02*
X85885000Y-85797500I0J237500D01*
G01*
X85885000Y-85197500D01*
G75*
G02*
X86122500Y-84960000I237500J0D01*
G01*
X86597500Y-84960000D01*
G75*
G02*
X86835000Y-85197500I0J-237500D01*
G01*
X86835000Y-85797500D01*
G75*
G02*
X86597500Y-86035000I-237500J0D01*
G01*
G37*
G36*
G01*
X86597500Y-87760000D02*
X86122500Y-87760000D01*
G75*
G02*
X85885000Y-87522500I0J237500D01*
G01*
X85885000Y-86922500D01*
G75*
G02*
X86122500Y-86685000I237500J0D01*
G01*
X86597500Y-86685000D01*
G75*
G02*
X86835000Y-86922500I0J-237500D01*
G01*
X86835000Y-87522500D01*
G75*
G02*
X86597500Y-87760000I-237500J0D01*
G01*
G37*
%TD*%
%TO.C,C13*%
G36*
G01*
X94872000Y-74438500D02*
X94872000Y-74913500D01*
G75*
G02*
X94634500Y-75151000I-237500J0D01*
G01*
X94034500Y-75151000D01*
G75*
G02*
X93797000Y-74913500I0J237500D01*
G01*
X93797000Y-74438500D01*
G75*
G02*
X94034500Y-74201000I237500J0D01*
G01*
X94634500Y-74201000D01*
G75*
G02*
X94872000Y-74438500I0J-237500D01*
G01*
G37*
G36*
G01*
X93147000Y-74438500D02*
X93147000Y-74913500D01*
G75*
G02*
X92909500Y-75151000I-237500J0D01*
G01*
X92309500Y-75151000D01*
G75*
G02*
X92072000Y-74913500I0J237500D01*
G01*
X92072000Y-74438500D01*
G75*
G02*
X92309500Y-74201000I237500J0D01*
G01*
X92909500Y-74201000D01*
G75*
G02*
X93147000Y-74438500I0J-237500D01*
G01*
G37*
%TD*%
%TO.C,C14*%
G36*
G01*
X83074500Y-75509000D02*
X83549500Y-75509000D01*
G75*
G02*
X83787000Y-75746500I0J-237500D01*
G01*
X83787000Y-76346500D01*
G75*
G02*
X83549500Y-76584000I-237500J0D01*
G01*
X83074500Y-76584000D01*
G75*
G02*
X82837000Y-76346500I0J237500D01*
G01*
X82837000Y-75746500D01*
G75*
G02*
X83074500Y-75509000I237500J0D01*
G01*
G37*
G36*
G01*
X83074500Y-73784000D02*
X83549500Y-73784000D01*
G75*
G02*
X83787000Y-74021500I0J-237500D01*
G01*
X83787000Y-74621500D01*
G75*
G02*
X83549500Y-74859000I-237500J0D01*
G01*
X83074500Y-74859000D01*
G75*
G02*
X82837000Y-74621500I0J237500D01*
G01*
X82837000Y-74021500D01*
G75*
G02*
X83074500Y-73784000I237500J0D01*
G01*
G37*
%TD*%
%TO.C,C15*%
G36*
G01*
X96636000Y-102473999D02*
X96636000Y-103774001D01*
G75*
G02*
X96386001Y-104024000I-249999J0D01*
G01*
X95560999Y-104024000D01*
G75*
G02*
X95311000Y-103774001I0J249999D01*
G01*
X95311000Y-102473999D01*
G75*
G02*
X95560999Y-102224000I249999J0D01*
G01*
X96386001Y-102224000D01*
G75*
G02*
X96636000Y-102473999I0J-249999D01*
G01*
G37*
G36*
G01*
X99761000Y-102473999D02*
X99761000Y-103774001D01*
G75*
G02*
X99511001Y-104024000I-249999J0D01*
G01*
X98685999Y-104024000D01*
G75*
G02*
X98436000Y-103774001I0J249999D01*
G01*
X98436000Y-102473999D01*
G75*
G02*
X98685999Y-102224000I249999J0D01*
G01*
X99511001Y-102224000D01*
G75*
G02*
X99761000Y-102473999I0J-249999D01*
G01*
G37*
%TD*%
%TO.C,C16*%
G36*
G01*
X101234001Y-97729000D02*
X99933999Y-97729000D01*
G75*
G02*
X99684000Y-97479001I0J249999D01*
G01*
X99684000Y-96653999D01*
G75*
G02*
X99933999Y-96404000I249999J0D01*
G01*
X101234001Y-96404000D01*
G75*
G02*
X101484000Y-96653999I0J-249999D01*
G01*
X101484000Y-97479001D01*
G75*
G02*
X101234001Y-97729000I-249999J0D01*
G01*
G37*
G36*
G01*
X101234001Y-94604000D02*
X99933999Y-94604000D01*
G75*
G02*
X99684000Y-94354001I0J249999D01*
G01*
X99684000Y-93528999D01*
G75*
G02*
X99933999Y-93279000I249999J0D01*
G01*
X101234001Y-93279000D01*
G75*
G02*
X101484000Y-93528999I0J-249999D01*
G01*
X101484000Y-94354001D01*
G75*
G02*
X101234001Y-94604000I-249999J0D01*
G01*
G37*
%TD*%
%TO.C,C17*%
G36*
G01*
X98735000Y-100346500D02*
X98735000Y-100821500D01*
G75*
G02*
X98497500Y-101059000I-237500J0D01*
G01*
X97897500Y-101059000D01*
G75*
G02*
X97660000Y-100821500I0J237500D01*
G01*
X97660000Y-100346500D01*
G75*
G02*
X97897500Y-100109000I237500J0D01*
G01*
X98497500Y-100109000D01*
G75*
G02*
X98735000Y-100346500I0J-237500D01*
G01*
G37*
G36*
G01*
X100460000Y-100346500D02*
X100460000Y-100821500D01*
G75*
G02*
X100222500Y-101059000I-237500J0D01*
G01*
X99622500Y-101059000D01*
G75*
G02*
X99385000Y-100821500I0J237500D01*
G01*
X99385000Y-100346500D01*
G75*
G02*
X99622500Y-100109000I237500J0D01*
G01*
X100222500Y-100109000D01*
G75*
G02*
X100460000Y-100346500I0J-237500D01*
G01*
G37*
%TD*%
%TO.C,C18*%
G36*
G01*
X103361500Y-93348000D02*
X102886500Y-93348000D01*
G75*
G02*
X102649000Y-93110500I0J237500D01*
G01*
X102649000Y-92510500D01*
G75*
G02*
X102886500Y-92273000I237500J0D01*
G01*
X103361500Y-92273000D01*
G75*
G02*
X103599000Y-92510500I0J-237500D01*
G01*
X103599000Y-93110500D01*
G75*
G02*
X103361500Y-93348000I-237500J0D01*
G01*
G37*
G36*
G01*
X103361500Y-91623000D02*
X102886500Y-91623000D01*
G75*
G02*
X102649000Y-91385500I0J237500D01*
G01*
X102649000Y-90785500D01*
G75*
G02*
X102886500Y-90548000I237500J0D01*
G01*
X103361500Y-90548000D01*
G75*
G02*
X103599000Y-90785500I0J-237500D01*
G01*
X103599000Y-91385500D01*
G75*
G02*
X103361500Y-91623000I-237500J0D01*
G01*
G37*
%TD*%
%TO.C,C19*%
G36*
G01*
X134496000Y-105934500D02*
X134496000Y-106409500D01*
G75*
G02*
X134258500Y-106647000I-237500J0D01*
G01*
X133658500Y-106647000D01*
G75*
G02*
X133421000Y-106409500I0J237500D01*
G01*
X133421000Y-105934500D01*
G75*
G02*
X133658500Y-105697000I237500J0D01*
G01*
X134258500Y-105697000D01*
G75*
G02*
X134496000Y-105934500I0J-237500D01*
G01*
G37*
G36*
G01*
X132771000Y-105934500D02*
X132771000Y-106409500D01*
G75*
G02*
X132533500Y-106647000I-237500J0D01*
G01*
X131933500Y-106647000D01*
G75*
G02*
X131696000Y-106409500I0J237500D01*
G01*
X131696000Y-105934500D01*
G75*
G02*
X131933500Y-105697000I237500J0D01*
G01*
X132533500Y-105697000D01*
G75*
G02*
X132771000Y-105934500I0J-237500D01*
G01*
G37*
%TD*%
%TO.C,C20*%
G36*
G01*
X97806500Y-96845000D02*
X98281500Y-96845000D01*
G75*
G02*
X98519000Y-97082500I0J-237500D01*
G01*
X98519000Y-97682500D01*
G75*
G02*
X98281500Y-97920000I-237500J0D01*
G01*
X97806500Y-97920000D01*
G75*
G02*
X97569000Y-97682500I0J237500D01*
G01*
X97569000Y-97082500D01*
G75*
G02*
X97806500Y-96845000I237500J0D01*
G01*
G37*
G36*
G01*
X97806500Y-95120000D02*
X98281500Y-95120000D01*
G75*
G02*
X98519000Y-95357500I0J-237500D01*
G01*
X98519000Y-95957500D01*
G75*
G02*
X98281500Y-96195000I-237500J0D01*
G01*
X97806500Y-96195000D01*
G75*
G02*
X97569000Y-95957500I0J237500D01*
G01*
X97569000Y-95357500D01*
G75*
G02*
X97806500Y-95120000I237500J0D01*
G01*
G37*
%TD*%
%TO.C,C21*%
G36*
G01*
X70708000Y-81264000D02*
X70708000Y-79264000D01*
G75*
G02*
X70958000Y-79014000I250000J0D01*
G01*
X74458000Y-79014000D01*
G75*
G02*
X74708000Y-79264000I0J-250000D01*
G01*
X74708000Y-81264000D01*
G75*
G02*
X74458000Y-81514000I-250000J0D01*
G01*
X70958000Y-81514000D01*
G75*
G02*
X70708000Y-81264000I0J250000D01*
G01*
G37*
G36*
G01*
X78708000Y-81264000D02*
X78708000Y-79264000D01*
G75*
G02*
X78958000Y-79014000I250000J0D01*
G01*
X82458000Y-79014000D01*
G75*
G02*
X82708000Y-79264000I0J-250000D01*
G01*
X82708000Y-81264000D01*
G75*
G02*
X82458000Y-81514000I-250000J0D01*
G01*
X78958000Y-81514000D01*
G75*
G02*
X78708000Y-81264000I0J250000D01*
G01*
G37*
%TD*%
%TO.C,C22*%
G36*
G01*
X84344500Y-77848000D02*
X84819500Y-77848000D01*
G75*
G02*
X85057000Y-78085500I0J-237500D01*
G01*
X85057000Y-78685500D01*
G75*
G02*
X84819500Y-78923000I-237500J0D01*
G01*
X84344500Y-78923000D01*
G75*
G02*
X84107000Y-78685500I0J237500D01*
G01*
X84107000Y-78085500D01*
G75*
G02*
X84344500Y-77848000I237500J0D01*
G01*
G37*
G36*
G01*
X84344500Y-79573000D02*
X84819500Y-79573000D01*
G75*
G02*
X85057000Y-79810500I0J-237500D01*
G01*
X85057000Y-80410500D01*
G75*
G02*
X84819500Y-80648000I-237500J0D01*
G01*
X84344500Y-80648000D01*
G75*
G02*
X84107000Y-80410500I0J237500D01*
G01*
X84107000Y-79810500D01*
G75*
G02*
X84344500Y-79573000I237500J0D01*
G01*
G37*
%TD*%
D11*
%TO.C,D1*%
X100330000Y-90265000D03*
X100330000Y-86265000D03*
%TD*%
%TO.C,D2*%
G36*
G01*
X112900000Y-95233500D02*
X112900000Y-94758500D01*
G75*
G02*
X113137500Y-94521000I237500J0D01*
G01*
X113712500Y-94521000D01*
G75*
G02*
X113950000Y-94758500I0J-237500D01*
G01*
X113950000Y-95233500D01*
G75*
G02*
X113712500Y-95471000I-237500J0D01*
G01*
X113137500Y-95471000D01*
G75*
G02*
X112900000Y-95233500I0J237500D01*
G01*
G37*
G36*
G01*
X114650000Y-95233500D02*
X114650000Y-94758500D01*
G75*
G02*
X114887500Y-94521000I237500J0D01*
G01*
X115462500Y-94521000D01*
G75*
G02*
X115700000Y-94758500I0J-237500D01*
G01*
X115700000Y-95233500D01*
G75*
G02*
X115462500Y-95471000I-237500J0D01*
G01*
X114887500Y-95471000D01*
G75*
G02*
X114650000Y-95233500I0J237500D01*
G01*
G37*
%TD*%
D12*
%TO.C,D3*%
X115700000Y-102108000D03*
X112900000Y-102108000D03*
%TD*%
D13*
%TO.C,D4*%
X71112000Y-62484000D03*
X70112000Y-62484000D03*
%TD*%
D14*
%TO.C,D6*%
X90932000Y-98568000D03*
X90932000Y-99568000D03*
%TD*%
%TO.C,D7*%
G36*
G01*
X123286000Y-95233500D02*
X123286000Y-94758500D01*
G75*
G02*
X123523500Y-94521000I237500J0D01*
G01*
X124098500Y-94521000D01*
G75*
G02*
X124336000Y-94758500I0J-237500D01*
G01*
X124336000Y-95233500D01*
G75*
G02*
X124098500Y-95471000I-237500J0D01*
G01*
X123523500Y-95471000D01*
G75*
G02*
X123286000Y-95233500I0J237500D01*
G01*
G37*
G36*
G01*
X121536000Y-95233500D02*
X121536000Y-94758500D01*
G75*
G02*
X121773500Y-94521000I237500J0D01*
G01*
X122348500Y-94521000D01*
G75*
G02*
X122586000Y-94758500I0J-237500D01*
G01*
X122586000Y-95233500D01*
G75*
G02*
X122348500Y-95471000I-237500J0D01*
G01*
X121773500Y-95471000D01*
G75*
G02*
X121536000Y-95233500I0J237500D01*
G01*
G37*
%TD*%
%TO.C,D8*%
G36*
G01*
X104264000Y-95233500D02*
X104264000Y-94758500D01*
G75*
G02*
X104501500Y-94521000I237500J0D01*
G01*
X105076500Y-94521000D01*
G75*
G02*
X105314000Y-94758500I0J-237500D01*
G01*
X105314000Y-95233500D01*
G75*
G02*
X105076500Y-95471000I-237500J0D01*
G01*
X104501500Y-95471000D01*
G75*
G02*
X104264000Y-95233500I0J237500D01*
G01*
G37*
G36*
G01*
X106014000Y-95233500D02*
X106014000Y-94758500D01*
G75*
G02*
X106251500Y-94521000I237500J0D01*
G01*
X106826500Y-94521000D01*
G75*
G02*
X107064000Y-94758500I0J-237500D01*
G01*
X107064000Y-95233500D01*
G75*
G02*
X106826500Y-95471000I-237500J0D01*
G01*
X106251500Y-95471000D01*
G75*
G02*
X106014000Y-95233500I0J237500D01*
G01*
G37*
%TD*%
D12*
%TO.C,D9*%
X121536000Y-102108000D03*
X124336000Y-102108000D03*
%TD*%
%TO.C,D10*%
X107064000Y-102108000D03*
X104264000Y-102108000D03*
%TD*%
%TO.C,D11*%
X68456000Y-73152000D03*
X65656000Y-73152000D03*
%TD*%
%TO.C,F1*%
G36*
G01*
X82636000Y-92007000D02*
X82636000Y-89857000D01*
G75*
G02*
X82886000Y-89607000I250000J0D01*
G01*
X83811000Y-89607000D01*
G75*
G02*
X84061000Y-89857000I0J-250000D01*
G01*
X84061000Y-92007000D01*
G75*
G02*
X83811000Y-92257000I-250000J0D01*
G01*
X82886000Y-92257000D01*
G75*
G02*
X82636000Y-92007000I0J250000D01*
G01*
G37*
G36*
G01*
X85611000Y-92007000D02*
X85611000Y-89857000D01*
G75*
G02*
X85861000Y-89607000I250000J0D01*
G01*
X86786000Y-89607000D01*
G75*
G02*
X87036000Y-89857000I0J-250000D01*
G01*
X87036000Y-92007000D01*
G75*
G02*
X86786000Y-92257000I-250000J0D01*
G01*
X85861000Y-92257000D01*
G75*
G02*
X85611000Y-92007000I0J250000D01*
G01*
G37*
%TD*%
%TO.C,F2*%
G36*
G01*
X82977000Y-107114000D02*
X82977000Y-104214000D01*
G75*
G02*
X83227000Y-103964000I250000J0D01*
G01*
X84027000Y-103964000D01*
G75*
G02*
X84277000Y-104214000I0J-250000D01*
G01*
X84277000Y-107114000D01*
G75*
G02*
X84027000Y-107364000I-250000J0D01*
G01*
X83227000Y-107364000D01*
G75*
G02*
X82977000Y-107114000I0J250000D01*
G01*
G37*
G36*
G01*
X87427000Y-107114000D02*
X87427000Y-104214000D01*
G75*
G02*
X87677000Y-103964000I250000J0D01*
G01*
X88477000Y-103964000D01*
G75*
G02*
X88727000Y-104214000I0J-250000D01*
G01*
X88727000Y-107114000D01*
G75*
G02*
X88477000Y-107364000I-250000J0D01*
G01*
X87677000Y-107364000D01*
G75*
G02*
X87427000Y-107114000I0J250000D01*
G01*
G37*
%TD*%
%TO.C,FB1*%
G36*
G01*
X80648000Y-66818500D02*
X80648000Y-67293500D01*
G75*
G02*
X80410500Y-67531000I-237500J0D01*
G01*
X79835500Y-67531000D01*
G75*
G02*
X79598000Y-67293500I0J237500D01*
G01*
X79598000Y-66818500D01*
G75*
G02*
X79835500Y-66581000I237500J0D01*
G01*
X80410500Y-66581000D01*
G75*
G02*
X80648000Y-66818500I0J-237500D01*
G01*
G37*
G36*
G01*
X78898000Y-66818500D02*
X78898000Y-67293500D01*
G75*
G02*
X78660500Y-67531000I-237500J0D01*
G01*
X78085500Y-67531000D01*
G75*
G02*
X77848000Y-67293500I0J237500D01*
G01*
X77848000Y-66818500D01*
G75*
G02*
X78085500Y-66581000I237500J0D01*
G01*
X78660500Y-66581000D01*
G75*
G02*
X78898000Y-66818500I0J-237500D01*
G01*
G37*
%TD*%
D15*
%TO.C,L1*%
X96215000Y-90170000D03*
X93015000Y-90170000D03*
%TD*%
D16*
%TO.C,Q1*%
X114300000Y-98060000D03*
X115250000Y-100060000D03*
X113350000Y-100060000D03*
%TD*%
%TO.C,Q2*%
X122936000Y-98060000D03*
X123886000Y-100060000D03*
X121986000Y-100060000D03*
%TD*%
%TO.C,Q3*%
X105222000Y-100060000D03*
X107122000Y-100060000D03*
X106172000Y-98060000D03*
%TD*%
%TO.C,R1*%
G36*
G01*
X88154500Y-91357000D02*
X88629500Y-91357000D01*
G75*
G02*
X88867000Y-91594500I0J-237500D01*
G01*
X88867000Y-92094500D01*
G75*
G02*
X88629500Y-92332000I-237500J0D01*
G01*
X88154500Y-92332000D01*
G75*
G02*
X87917000Y-92094500I0J237500D01*
G01*
X87917000Y-91594500D01*
G75*
G02*
X88154500Y-91357000I237500J0D01*
G01*
G37*
G36*
G01*
X88154500Y-89532000D02*
X88629500Y-89532000D01*
G75*
G02*
X88867000Y-89769500I0J-237500D01*
G01*
X88867000Y-90269500D01*
G75*
G02*
X88629500Y-90507000I-237500J0D01*
G01*
X88154500Y-90507000D01*
G75*
G02*
X87917000Y-90269500I0J237500D01*
G01*
X87917000Y-89769500D01*
G75*
G02*
X88154500Y-89532000I237500J0D01*
G01*
G37*
%TD*%
%TO.C,R2*%
G36*
G01*
X90661500Y-106048000D02*
X90186500Y-106048000D01*
G75*
G02*
X89949000Y-105810500I0J237500D01*
G01*
X89949000Y-105310500D01*
G75*
G02*
X90186500Y-105073000I237500J0D01*
G01*
X90661500Y-105073000D01*
G75*
G02*
X90899000Y-105310500I0J-237500D01*
G01*
X90899000Y-105810500D01*
G75*
G02*
X90661500Y-106048000I-237500J0D01*
G01*
G37*
G36*
G01*
X90661500Y-104223000D02*
X90186500Y-104223000D01*
G75*
G02*
X89949000Y-103985500I0J237500D01*
G01*
X89949000Y-103485500D01*
G75*
G02*
X90186500Y-103248000I237500J0D01*
G01*
X90661500Y-103248000D01*
G75*
G02*
X90899000Y-103485500I0J-237500D01*
G01*
X90899000Y-103985500D01*
G75*
G02*
X90661500Y-104223000I-237500J0D01*
G01*
G37*
%TD*%
%TO.C,R3*%
G36*
G01*
X94364000Y-101362500D02*
X94364000Y-101837500D01*
G75*
G02*
X94126500Y-102075000I-237500J0D01*
G01*
X93626500Y-102075000D01*
G75*
G02*
X93389000Y-101837500I0J237500D01*
G01*
X93389000Y-101362500D01*
G75*
G02*
X93626500Y-101125000I237500J0D01*
G01*
X94126500Y-101125000D01*
G75*
G02*
X94364000Y-101362500I0J-237500D01*
G01*
G37*
G36*
G01*
X92539000Y-101362500D02*
X92539000Y-101837500D01*
G75*
G02*
X92301500Y-102075000I-237500J0D01*
G01*
X91801500Y-102075000D01*
G75*
G02*
X91564000Y-101837500I0J237500D01*
G01*
X91564000Y-101362500D01*
G75*
G02*
X91801500Y-101125000I237500J0D01*
G01*
X92301500Y-101125000D01*
G75*
G02*
X92539000Y-101362500I0J-237500D01*
G01*
G37*
%TD*%
%TO.C,R4*%
G36*
G01*
X97412000Y-93742500D02*
X97412000Y-94217500D01*
G75*
G02*
X97174500Y-94455000I-237500J0D01*
G01*
X96674500Y-94455000D01*
G75*
G02*
X96437000Y-94217500I0J237500D01*
G01*
X96437000Y-93742500D01*
G75*
G02*
X96674500Y-93505000I237500J0D01*
G01*
X97174500Y-93505000D01*
G75*
G02*
X97412000Y-93742500I0J-237500D01*
G01*
G37*
G36*
G01*
X95587000Y-93742500D02*
X95587000Y-94217500D01*
G75*
G02*
X95349500Y-94455000I-237500J0D01*
G01*
X94849500Y-94455000D01*
G75*
G02*
X94612000Y-94217500I0J237500D01*
G01*
X94612000Y-93742500D01*
G75*
G02*
X94849500Y-93505000I237500J0D01*
G01*
X95349500Y-93505000D01*
G75*
G02*
X95587000Y-93742500I0J-237500D01*
G01*
G37*
%TD*%
%TO.C,R5*%
G36*
G01*
X92031000Y-93742500D02*
X92031000Y-94217500D01*
G75*
G02*
X91793500Y-94455000I-237500J0D01*
G01*
X91293500Y-94455000D01*
G75*
G02*
X91056000Y-94217500I0J237500D01*
G01*
X91056000Y-93742500D01*
G75*
G02*
X91293500Y-93505000I237500J0D01*
G01*
X91793500Y-93505000D01*
G75*
G02*
X92031000Y-93742500I0J-237500D01*
G01*
G37*
G36*
G01*
X93856000Y-93742500D02*
X93856000Y-94217500D01*
G75*
G02*
X93618500Y-94455000I-237500J0D01*
G01*
X93118500Y-94455000D01*
G75*
G02*
X92881000Y-94217500I0J237500D01*
G01*
X92881000Y-93742500D01*
G75*
G02*
X93118500Y-93505000I237500J0D01*
G01*
X93618500Y-93505000D01*
G75*
G02*
X93856000Y-93742500I0J-237500D01*
G01*
G37*
%TD*%
%TO.C,R6*%
G36*
G01*
X111489500Y-100460000D02*
X111014500Y-100460000D01*
G75*
G02*
X110777000Y-100222500I0J237500D01*
G01*
X110777000Y-99722500D01*
G75*
G02*
X111014500Y-99485000I237500J0D01*
G01*
X111489500Y-99485000D01*
G75*
G02*
X111727000Y-99722500I0J-237500D01*
G01*
X111727000Y-100222500D01*
G75*
G02*
X111489500Y-100460000I-237500J0D01*
G01*
G37*
G36*
G01*
X111489500Y-98635000D02*
X111014500Y-98635000D01*
G75*
G02*
X110777000Y-98397500I0J237500D01*
G01*
X110777000Y-97897500D01*
G75*
G02*
X111014500Y-97660000I237500J0D01*
G01*
X111489500Y-97660000D01*
G75*
G02*
X111727000Y-97897500I0J-237500D01*
G01*
X111727000Y-98397500D01*
G75*
G02*
X111489500Y-98635000I-237500J0D01*
G01*
G37*
%TD*%
%TO.C,R7*%
G36*
G01*
X100460000Y-98822500D02*
X100460000Y-99297500D01*
G75*
G02*
X100222500Y-99535000I-237500J0D01*
G01*
X99722500Y-99535000D01*
G75*
G02*
X99485000Y-99297500I0J237500D01*
G01*
X99485000Y-98822500D01*
G75*
G02*
X99722500Y-98585000I237500J0D01*
G01*
X100222500Y-98585000D01*
G75*
G02*
X100460000Y-98822500I0J-237500D01*
G01*
G37*
G36*
G01*
X98635000Y-98822500D02*
X98635000Y-99297500D01*
G75*
G02*
X98397500Y-99535000I-237500J0D01*
G01*
X97897500Y-99535000D01*
G75*
G02*
X97660000Y-99297500I0J237500D01*
G01*
X97660000Y-98822500D01*
G75*
G02*
X97897500Y-98585000I237500J0D01*
G01*
X98397500Y-98585000D01*
G75*
G02*
X98635000Y-98822500I0J-237500D01*
G01*
G37*
%TD*%
%TO.C,R8*%
G36*
G01*
X117585500Y-94571000D02*
X117110500Y-94571000D01*
G75*
G02*
X116873000Y-94333500I0J237500D01*
G01*
X116873000Y-93833500D01*
G75*
G02*
X117110500Y-93596000I237500J0D01*
G01*
X117585500Y-93596000D01*
G75*
G02*
X117823000Y-93833500I0J-237500D01*
G01*
X117823000Y-94333500D01*
G75*
G02*
X117585500Y-94571000I-237500J0D01*
G01*
G37*
G36*
G01*
X117585500Y-96396000D02*
X117110500Y-96396000D01*
G75*
G02*
X116873000Y-96158500I0J237500D01*
G01*
X116873000Y-95658500D01*
G75*
G02*
X117110500Y-95421000I237500J0D01*
G01*
X117585500Y-95421000D01*
G75*
G02*
X117823000Y-95658500I0J-237500D01*
G01*
X117823000Y-96158500D01*
G75*
G02*
X117585500Y-96396000I-237500J0D01*
G01*
G37*
%TD*%
%TO.C,R9*%
G36*
G01*
X120633500Y-100460000D02*
X120158500Y-100460000D01*
G75*
G02*
X119921000Y-100222500I0J237500D01*
G01*
X119921000Y-99722500D01*
G75*
G02*
X120158500Y-99485000I237500J0D01*
G01*
X120633500Y-99485000D01*
G75*
G02*
X120871000Y-99722500I0J-237500D01*
G01*
X120871000Y-100222500D01*
G75*
G02*
X120633500Y-100460000I-237500J0D01*
G01*
G37*
G36*
G01*
X120633500Y-98635000D02*
X120158500Y-98635000D01*
G75*
G02*
X119921000Y-98397500I0J237500D01*
G01*
X119921000Y-97897500D01*
G75*
G02*
X120158500Y-97660000I237500J0D01*
G01*
X120633500Y-97660000D01*
G75*
G02*
X120871000Y-97897500I0J-237500D01*
G01*
X120871000Y-98397500D01*
G75*
G02*
X120633500Y-98635000I-237500J0D01*
G01*
G37*
%TD*%
%TO.C,R10*%
G36*
G01*
X123361000Y-93201500D02*
X123361000Y-92726500D01*
G75*
G02*
X123598500Y-92489000I237500J0D01*
G01*
X124098500Y-92489000D01*
G75*
G02*
X124336000Y-92726500I0J-237500D01*
G01*
X124336000Y-93201500D01*
G75*
G02*
X124098500Y-93439000I-237500J0D01*
G01*
X123598500Y-93439000D01*
G75*
G02*
X123361000Y-93201500I0J237500D01*
G01*
G37*
G36*
G01*
X121536000Y-93201500D02*
X121536000Y-92726500D01*
G75*
G02*
X121773500Y-92489000I237500J0D01*
G01*
X122273500Y-92489000D01*
G75*
G02*
X122511000Y-92726500I0J-237500D01*
G01*
X122511000Y-93201500D01*
G75*
G02*
X122273500Y-93439000I-237500J0D01*
G01*
X121773500Y-93439000D01*
G75*
G02*
X121536000Y-93201500I0J237500D01*
G01*
G37*
%TD*%
%TO.C,R11*%
G36*
G01*
X103361500Y-100460000D02*
X102886500Y-100460000D01*
G75*
G02*
X102649000Y-100222500I0J237500D01*
G01*
X102649000Y-99722500D01*
G75*
G02*
X102886500Y-99485000I237500J0D01*
G01*
X103361500Y-99485000D01*
G75*
G02*
X103599000Y-99722500I0J-237500D01*
G01*
X103599000Y-100222500D01*
G75*
G02*
X103361500Y-100460000I-237500J0D01*
G01*
G37*
G36*
G01*
X103361500Y-98635000D02*
X102886500Y-98635000D01*
G75*
G02*
X102649000Y-98397500I0J237500D01*
G01*
X102649000Y-97897500D01*
G75*
G02*
X102886500Y-97660000I237500J0D01*
G01*
X103361500Y-97660000D01*
G75*
G02*
X103599000Y-97897500I0J-237500D01*
G01*
X103599000Y-98397500D01*
G75*
G02*
X103361500Y-98635000I-237500J0D01*
G01*
G37*
%TD*%
%TO.C,R12*%
G36*
G01*
X108441500Y-94571000D02*
X107966500Y-94571000D01*
G75*
G02*
X107729000Y-94333500I0J237500D01*
G01*
X107729000Y-93833500D01*
G75*
G02*
X107966500Y-93596000I237500J0D01*
G01*
X108441500Y-93596000D01*
G75*
G02*
X108679000Y-93833500I0J-237500D01*
G01*
X108679000Y-94333500D01*
G75*
G02*
X108441500Y-94571000I-237500J0D01*
G01*
G37*
G36*
G01*
X108441500Y-96396000D02*
X107966500Y-96396000D01*
G75*
G02*
X107729000Y-96158500I0J237500D01*
G01*
X107729000Y-95658500D01*
G75*
G02*
X107966500Y-95421000I237500J0D01*
G01*
X108441500Y-95421000D01*
G75*
G02*
X108679000Y-95658500I0J-237500D01*
G01*
X108679000Y-96158500D01*
G75*
G02*
X108441500Y-96396000I-237500J0D01*
G01*
G37*
%TD*%
%TO.C,R13*%
G36*
G01*
X69866500Y-59757500D02*
X70341500Y-59757500D01*
G75*
G02*
X70579000Y-59995000I0J-237500D01*
G01*
X70579000Y-60495000D01*
G75*
G02*
X70341500Y-60732500I-237500J0D01*
G01*
X69866500Y-60732500D01*
G75*
G02*
X69629000Y-60495000I0J237500D01*
G01*
X69629000Y-59995000D01*
G75*
G02*
X69866500Y-59757500I237500J0D01*
G01*
G37*
G36*
G01*
X69866500Y-57932500D02*
X70341500Y-57932500D01*
G75*
G02*
X70579000Y-58170000I0J-237500D01*
G01*
X70579000Y-58670000D01*
G75*
G02*
X70341500Y-58907500I-237500J0D01*
G01*
X69866500Y-58907500D01*
G75*
G02*
X69629000Y-58670000I0J237500D01*
G01*
X69629000Y-58170000D01*
G75*
G02*
X69866500Y-57932500I237500J0D01*
G01*
G37*
%TD*%
%TO.C,R14*%
G36*
G01*
X74593000Y-63229500D02*
X74593000Y-62754500D01*
G75*
G02*
X74830500Y-62517000I237500J0D01*
G01*
X75330500Y-62517000D01*
G75*
G02*
X75568000Y-62754500I0J-237500D01*
G01*
X75568000Y-63229500D01*
G75*
G02*
X75330500Y-63467000I-237500J0D01*
G01*
X74830500Y-63467000D01*
G75*
G02*
X74593000Y-63229500I0J237500D01*
G01*
G37*
G36*
G01*
X72768000Y-63229500D02*
X72768000Y-62754500D01*
G75*
G02*
X73005500Y-62517000I237500J0D01*
G01*
X73505500Y-62517000D01*
G75*
G02*
X73743000Y-62754500I0J-237500D01*
G01*
X73743000Y-63229500D01*
G75*
G02*
X73505500Y-63467000I-237500J0D01*
G01*
X73005500Y-63467000D01*
G75*
G02*
X72768000Y-63229500I0J237500D01*
G01*
G37*
%TD*%
%TO.C,R15*%
G36*
G01*
X126762500Y-93389000D02*
X127237500Y-93389000D01*
G75*
G02*
X127475000Y-93626500I0J-237500D01*
G01*
X127475000Y-94126500D01*
G75*
G02*
X127237500Y-94364000I-237500J0D01*
G01*
X126762500Y-94364000D01*
G75*
G02*
X126525000Y-94126500I0J237500D01*
G01*
X126525000Y-93626500D01*
G75*
G02*
X126762500Y-93389000I237500J0D01*
G01*
G37*
G36*
G01*
X126762500Y-91564000D02*
X127237500Y-91564000D01*
G75*
G02*
X127475000Y-91801500I0J-237500D01*
G01*
X127475000Y-92301500D01*
G75*
G02*
X127237500Y-92539000I-237500J0D01*
G01*
X126762500Y-92539000D01*
G75*
G02*
X126525000Y-92301500I0J237500D01*
G01*
X126525000Y-91801500D01*
G75*
G02*
X126762500Y-91564000I237500J0D01*
G01*
G37*
%TD*%
%TO.C,R16*%
G36*
G01*
X63737500Y-73235000D02*
X63262500Y-73235000D01*
G75*
G02*
X63025000Y-72997500I0J237500D01*
G01*
X63025000Y-72497500D01*
G75*
G02*
X63262500Y-72260000I237500J0D01*
G01*
X63737500Y-72260000D01*
G75*
G02*
X63975000Y-72497500I0J-237500D01*
G01*
X63975000Y-72997500D01*
G75*
G02*
X63737500Y-73235000I-237500J0D01*
G01*
G37*
G36*
G01*
X63737500Y-75060000D02*
X63262500Y-75060000D01*
G75*
G02*
X63025000Y-74822500I0J237500D01*
G01*
X63025000Y-74322500D01*
G75*
G02*
X63262500Y-74085000I237500J0D01*
G01*
X63737500Y-74085000D01*
G75*
G02*
X63975000Y-74322500I0J-237500D01*
G01*
X63975000Y-74822500D01*
G75*
G02*
X63737500Y-75060000I-237500J0D01*
G01*
G37*
%TD*%
%TO.C,R17*%
G36*
G01*
X127237500Y-101984000D02*
X126762500Y-101984000D01*
G75*
G02*
X126525000Y-101746500I0J237500D01*
G01*
X126525000Y-101246500D01*
G75*
G02*
X126762500Y-101009000I237500J0D01*
G01*
X127237500Y-101009000D01*
G75*
G02*
X127475000Y-101246500I0J-237500D01*
G01*
X127475000Y-101746500D01*
G75*
G02*
X127237500Y-101984000I-237500J0D01*
G01*
G37*
G36*
G01*
X127237500Y-100159000D02*
X126762500Y-100159000D01*
G75*
G02*
X126525000Y-99921500I0J237500D01*
G01*
X126525000Y-99421500D01*
G75*
G02*
X126762500Y-99184000I237500J0D01*
G01*
X127237500Y-99184000D01*
G75*
G02*
X127475000Y-99421500I0J-237500D01*
G01*
X127475000Y-99921500D01*
G75*
G02*
X127237500Y-100159000I-237500J0D01*
G01*
G37*
%TD*%
%TO.C,R18*%
G36*
G01*
X83549500Y-60535000D02*
X83074500Y-60535000D01*
G75*
G02*
X82837000Y-60297500I0J237500D01*
G01*
X82837000Y-59797500D01*
G75*
G02*
X83074500Y-59560000I237500J0D01*
G01*
X83549500Y-59560000D01*
G75*
G02*
X83787000Y-59797500I0J-237500D01*
G01*
X83787000Y-60297500D01*
G75*
G02*
X83549500Y-60535000I-237500J0D01*
G01*
G37*
G36*
G01*
X83549500Y-62360000D02*
X83074500Y-62360000D01*
G75*
G02*
X82837000Y-62122500I0J237500D01*
G01*
X82837000Y-61622500D01*
G75*
G02*
X83074500Y-61385000I237500J0D01*
G01*
X83549500Y-61385000D01*
G75*
G02*
X83787000Y-61622500I0J-237500D01*
G01*
X83787000Y-62122500D01*
G75*
G02*
X83549500Y-62360000I-237500J0D01*
G01*
G37*
%TD*%
%TO.C,R19*%
G36*
G01*
X98822500Y-78864000D02*
X99297500Y-78864000D01*
G75*
G02*
X99535000Y-79101500I0J-237500D01*
G01*
X99535000Y-79601500D01*
G75*
G02*
X99297500Y-79839000I-237500J0D01*
G01*
X98822500Y-79839000D01*
G75*
G02*
X98585000Y-79601500I0J237500D01*
G01*
X98585000Y-79101500D01*
G75*
G02*
X98822500Y-78864000I237500J0D01*
G01*
G37*
G36*
G01*
X98822500Y-80689000D02*
X99297500Y-80689000D01*
G75*
G02*
X99535000Y-80926500I0J-237500D01*
G01*
X99535000Y-81426500D01*
G75*
G02*
X99297500Y-81664000I-237500J0D01*
G01*
X98822500Y-81664000D01*
G75*
G02*
X98585000Y-81426500I0J237500D01*
G01*
X98585000Y-80926500D01*
G75*
G02*
X98822500Y-80689000I237500J0D01*
G01*
G37*
%TD*%
%TO.C,R20*%
G36*
G01*
X112030500Y-76324000D02*
X112505500Y-76324000D01*
G75*
G02*
X112743000Y-76561500I0J-237500D01*
G01*
X112743000Y-77061500D01*
G75*
G02*
X112505500Y-77299000I-237500J0D01*
G01*
X112030500Y-77299000D01*
G75*
G02*
X111793000Y-77061500I0J237500D01*
G01*
X111793000Y-76561500D01*
G75*
G02*
X112030500Y-76324000I237500J0D01*
G01*
G37*
G36*
G01*
X112030500Y-78149000D02*
X112505500Y-78149000D01*
G75*
G02*
X112743000Y-78386500I0J-237500D01*
G01*
X112743000Y-78886500D01*
G75*
G02*
X112505500Y-79124000I-237500J0D01*
G01*
X112030500Y-79124000D01*
G75*
G02*
X111793000Y-78886500I0J237500D01*
G01*
X111793000Y-78386500D01*
G75*
G02*
X112030500Y-78149000I237500J0D01*
G01*
G37*
%TD*%
%TO.C,R21*%
G36*
G01*
X109096000Y-83074500D02*
X109096000Y-83549500D01*
G75*
G02*
X108858500Y-83787000I-237500J0D01*
G01*
X108358500Y-83787000D01*
G75*
G02*
X108121000Y-83549500I0J237500D01*
G01*
X108121000Y-83074500D01*
G75*
G02*
X108358500Y-82837000I237500J0D01*
G01*
X108858500Y-82837000D01*
G75*
G02*
X109096000Y-83074500I0J-237500D01*
G01*
G37*
G36*
G01*
X107271000Y-83074500D02*
X107271000Y-83549500D01*
G75*
G02*
X107033500Y-83787000I-237500J0D01*
G01*
X106533500Y-83787000D01*
G75*
G02*
X106296000Y-83549500I0J237500D01*
G01*
X106296000Y-83074500D01*
G75*
G02*
X106533500Y-82837000I237500J0D01*
G01*
X107033500Y-82837000D01*
G75*
G02*
X107271000Y-83074500I0J-237500D01*
G01*
G37*
%TD*%
D17*
%TO.C,RV1*%
X101720000Y-76740000D03*
D18*
X102870000Y-80740000D03*
D17*
X104020000Y-76740000D03*
%TD*%
%TO.C,RV2*%
X109735000Y-76740000D03*
D18*
X108585000Y-80740000D03*
D17*
X107435000Y-76740000D03*
%TD*%
D19*
%TO.C,SW2*%
X129286000Y-109650000D03*
X129286000Y-106250000D03*
%TD*%
D20*
%TO.C,U1*%
X108204000Y-60350000D03*
D21*
X108204000Y-66650000D03*
X110504000Y-66650000D03*
X105904000Y-66650000D03*
%TD*%
D22*
%TO.C,U2*%
X93140000Y-96790000D03*
X93140000Y-97290000D03*
D23*
X92855000Y-97790000D03*
D22*
X93140000Y-98290000D03*
D23*
X92855000Y-98790000D03*
D22*
X96090000Y-98790000D03*
X96090000Y-98290000D03*
D23*
X96375000Y-97790000D03*
X96375000Y-97290000D03*
X96375000Y-96790000D03*
D24*
X94165000Y-97155000D03*
D25*
X94365000Y-96160000D03*
X94865000Y-96160000D03*
X94365000Y-99420000D03*
X94865000Y-99420000D03*
D24*
X95065000Y-97155000D03*
X94165000Y-98425000D03*
X95065000Y-98425000D03*
D23*
X92855000Y-96790000D03*
X92855000Y-97290000D03*
D22*
X93140000Y-97790000D03*
D23*
X92855000Y-98290000D03*
D22*
X93140000Y-98790000D03*
D23*
X96375000Y-98790000D03*
X96375000Y-98290000D03*
D22*
X96090000Y-97790000D03*
X96090000Y-97290000D03*
X96090000Y-96790000D03*
%TD*%
%TO.C,U3*%
G36*
G01*
X83466000Y-63381000D02*
X83466000Y-63231000D01*
G75*
G02*
X83541000Y-63156000I75000J0D01*
G01*
X84941000Y-63156000D01*
G75*
G02*
X85016000Y-63231000I0J-75000D01*
G01*
X85016000Y-63381000D01*
G75*
G02*
X84941000Y-63456000I-75000J0D01*
G01*
X83541000Y-63456000D01*
G75*
G02*
X83466000Y-63381000I0J75000D01*
G01*
G37*
G36*
G01*
X83466000Y-63881000D02*
X83466000Y-63731000D01*
G75*
G02*
X83541000Y-63656000I75000J0D01*
G01*
X84941000Y-63656000D01*
G75*
G02*
X85016000Y-63731000I0J-75000D01*
G01*
X85016000Y-63881000D01*
G75*
G02*
X84941000Y-63956000I-75000J0D01*
G01*
X83541000Y-63956000D01*
G75*
G02*
X83466000Y-63881000I0J75000D01*
G01*
G37*
G36*
G01*
X83466000Y-64381000D02*
X83466000Y-64231000D01*
G75*
G02*
X83541000Y-64156000I75000J0D01*
G01*
X84941000Y-64156000D01*
G75*
G02*
X85016000Y-64231000I0J-75000D01*
G01*
X85016000Y-64381000D01*
G75*
G02*
X84941000Y-64456000I-75000J0D01*
G01*
X83541000Y-64456000D01*
G75*
G02*
X83466000Y-64381000I0J75000D01*
G01*
G37*
G36*
G01*
X83466000Y-64881000D02*
X83466000Y-64731000D01*
G75*
G02*
X83541000Y-64656000I75000J0D01*
G01*
X84941000Y-64656000D01*
G75*
G02*
X85016000Y-64731000I0J-75000D01*
G01*
X85016000Y-64881000D01*
G75*
G02*
X84941000Y-64956000I-75000J0D01*
G01*
X83541000Y-64956000D01*
G75*
G02*
X83466000Y-64881000I0J75000D01*
G01*
G37*
G36*
G01*
X83466000Y-65381000D02*
X83466000Y-65231000D01*
G75*
G02*
X83541000Y-65156000I75000J0D01*
G01*
X84941000Y-65156000D01*
G75*
G02*
X85016000Y-65231000I0J-75000D01*
G01*
X85016000Y-65381000D01*
G75*
G02*
X84941000Y-65456000I-75000J0D01*
G01*
X83541000Y-65456000D01*
G75*
G02*
X83466000Y-65381000I0J75000D01*
G01*
G37*
G36*
G01*
X83466000Y-65881000D02*
X83466000Y-65731000D01*
G75*
G02*
X83541000Y-65656000I75000J0D01*
G01*
X84941000Y-65656000D01*
G75*
G02*
X85016000Y-65731000I0J-75000D01*
G01*
X85016000Y-65881000D01*
G75*
G02*
X84941000Y-65956000I-75000J0D01*
G01*
X83541000Y-65956000D01*
G75*
G02*
X83466000Y-65881000I0J75000D01*
G01*
G37*
G36*
G01*
X83466000Y-66381000D02*
X83466000Y-66231000D01*
G75*
G02*
X83541000Y-66156000I75000J0D01*
G01*
X84941000Y-66156000D01*
G75*
G02*
X85016000Y-66231000I0J-75000D01*
G01*
X85016000Y-66381000D01*
G75*
G02*
X84941000Y-66456000I-75000J0D01*
G01*
X83541000Y-66456000D01*
G75*
G02*
X83466000Y-66381000I0J75000D01*
G01*
G37*
G36*
G01*
X83466000Y-66881000D02*
X83466000Y-66731000D01*
G75*
G02*
X83541000Y-66656000I75000J0D01*
G01*
X84941000Y-66656000D01*
G75*
G02*
X85016000Y-66731000I0J-75000D01*
G01*
X85016000Y-66881000D01*
G75*
G02*
X84941000Y-66956000I-75000J0D01*
G01*
X83541000Y-66956000D01*
G75*
G02*
X83466000Y-66881000I0J75000D01*
G01*
G37*
G36*
G01*
X83466000Y-67381000D02*
X83466000Y-67231000D01*
G75*
G02*
X83541000Y-67156000I75000J0D01*
G01*
X84941000Y-67156000D01*
G75*
G02*
X85016000Y-67231000I0J-75000D01*
G01*
X85016000Y-67381000D01*
G75*
G02*
X84941000Y-67456000I-75000J0D01*
G01*
X83541000Y-67456000D01*
G75*
G02*
X83466000Y-67381000I0J75000D01*
G01*
G37*
G36*
G01*
X83466000Y-67881000D02*
X83466000Y-67731000D01*
G75*
G02*
X83541000Y-67656000I75000J0D01*
G01*
X84941000Y-67656000D01*
G75*
G02*
X85016000Y-67731000I0J-75000D01*
G01*
X85016000Y-67881000D01*
G75*
G02*
X84941000Y-67956000I-75000J0D01*
G01*
X83541000Y-67956000D01*
G75*
G02*
X83466000Y-67881000I0J75000D01*
G01*
G37*
G36*
G01*
X83466000Y-68381000D02*
X83466000Y-68231000D01*
G75*
G02*
X83541000Y-68156000I75000J0D01*
G01*
X84941000Y-68156000D01*
G75*
G02*
X85016000Y-68231000I0J-75000D01*
G01*
X85016000Y-68381000D01*
G75*
G02*
X84941000Y-68456000I-75000J0D01*
G01*
X83541000Y-68456000D01*
G75*
G02*
X83466000Y-68381000I0J75000D01*
G01*
G37*
G36*
G01*
X83466000Y-68881000D02*
X83466000Y-68731000D01*
G75*
G02*
X83541000Y-68656000I75000J0D01*
G01*
X84941000Y-68656000D01*
G75*
G02*
X85016000Y-68731000I0J-75000D01*
G01*
X85016000Y-68881000D01*
G75*
G02*
X84941000Y-68956000I-75000J0D01*
G01*
X83541000Y-68956000D01*
G75*
G02*
X83466000Y-68881000I0J75000D01*
G01*
G37*
G36*
G01*
X83466000Y-69381000D02*
X83466000Y-69231000D01*
G75*
G02*
X83541000Y-69156000I75000J0D01*
G01*
X84941000Y-69156000D01*
G75*
G02*
X85016000Y-69231000I0J-75000D01*
G01*
X85016000Y-69381000D01*
G75*
G02*
X84941000Y-69456000I-75000J0D01*
G01*
X83541000Y-69456000D01*
G75*
G02*
X83466000Y-69381000I0J75000D01*
G01*
G37*
G36*
G01*
X83466000Y-69881000D02*
X83466000Y-69731000D01*
G75*
G02*
X83541000Y-69656000I75000J0D01*
G01*
X84941000Y-69656000D01*
G75*
G02*
X85016000Y-69731000I0J-75000D01*
G01*
X85016000Y-69881000D01*
G75*
G02*
X84941000Y-69956000I-75000J0D01*
G01*
X83541000Y-69956000D01*
G75*
G02*
X83466000Y-69881000I0J75000D01*
G01*
G37*
G36*
G01*
X83466000Y-70381000D02*
X83466000Y-70231000D01*
G75*
G02*
X83541000Y-70156000I75000J0D01*
G01*
X84941000Y-70156000D01*
G75*
G02*
X85016000Y-70231000I0J-75000D01*
G01*
X85016000Y-70381000D01*
G75*
G02*
X84941000Y-70456000I-75000J0D01*
G01*
X83541000Y-70456000D01*
G75*
G02*
X83466000Y-70381000I0J75000D01*
G01*
G37*
G36*
G01*
X83466000Y-70881000D02*
X83466000Y-70731000D01*
G75*
G02*
X83541000Y-70656000I75000J0D01*
G01*
X84941000Y-70656000D01*
G75*
G02*
X85016000Y-70731000I0J-75000D01*
G01*
X85016000Y-70881000D01*
G75*
G02*
X84941000Y-70956000I-75000J0D01*
G01*
X83541000Y-70956000D01*
G75*
G02*
X83466000Y-70881000I0J75000D01*
G01*
G37*
G36*
G01*
X86016000Y-73431000D02*
X86016000Y-72031000D01*
G75*
G02*
X86091000Y-71956000I75000J0D01*
G01*
X86241000Y-71956000D01*
G75*
G02*
X86316000Y-72031000I0J-75000D01*
G01*
X86316000Y-73431000D01*
G75*
G02*
X86241000Y-73506000I-75000J0D01*
G01*
X86091000Y-73506000D01*
G75*
G02*
X86016000Y-73431000I0J75000D01*
G01*
G37*
G36*
G01*
X86516000Y-73431000D02*
X86516000Y-72031000D01*
G75*
G02*
X86591000Y-71956000I75000J0D01*
G01*
X86741000Y-71956000D01*
G75*
G02*
X86816000Y-72031000I0J-75000D01*
G01*
X86816000Y-73431000D01*
G75*
G02*
X86741000Y-73506000I-75000J0D01*
G01*
X86591000Y-73506000D01*
G75*
G02*
X86516000Y-73431000I0J75000D01*
G01*
G37*
G36*
G01*
X87016000Y-73431000D02*
X87016000Y-72031000D01*
G75*
G02*
X87091000Y-71956000I75000J0D01*
G01*
X87241000Y-71956000D01*
G75*
G02*
X87316000Y-72031000I0J-75000D01*
G01*
X87316000Y-73431000D01*
G75*
G02*
X87241000Y-73506000I-75000J0D01*
G01*
X87091000Y-73506000D01*
G75*
G02*
X87016000Y-73431000I0J75000D01*
G01*
G37*
G36*
G01*
X87516000Y-73431000D02*
X87516000Y-72031000D01*
G75*
G02*
X87591000Y-71956000I75000J0D01*
G01*
X87741000Y-71956000D01*
G75*
G02*
X87816000Y-72031000I0J-75000D01*
G01*
X87816000Y-73431000D01*
G75*
G02*
X87741000Y-73506000I-75000J0D01*
G01*
X87591000Y-73506000D01*
G75*
G02*
X87516000Y-73431000I0J75000D01*
G01*
G37*
G36*
G01*
X88016000Y-73431000D02*
X88016000Y-72031000D01*
G75*
G02*
X88091000Y-71956000I75000J0D01*
G01*
X88241000Y-71956000D01*
G75*
G02*
X88316000Y-72031000I0J-75000D01*
G01*
X88316000Y-73431000D01*
G75*
G02*
X88241000Y-73506000I-75000J0D01*
G01*
X88091000Y-73506000D01*
G75*
G02*
X88016000Y-73431000I0J75000D01*
G01*
G37*
G36*
G01*
X88516000Y-73431000D02*
X88516000Y-72031000D01*
G75*
G02*
X88591000Y-71956000I75000J0D01*
G01*
X88741000Y-71956000D01*
G75*
G02*
X88816000Y-72031000I0J-75000D01*
G01*
X88816000Y-73431000D01*
G75*
G02*
X88741000Y-73506000I-75000J0D01*
G01*
X88591000Y-73506000D01*
G75*
G02*
X88516000Y-73431000I0J75000D01*
G01*
G37*
G36*
G01*
X89016000Y-73431000D02*
X89016000Y-72031000D01*
G75*
G02*
X89091000Y-71956000I75000J0D01*
G01*
X89241000Y-71956000D01*
G75*
G02*
X89316000Y-72031000I0J-75000D01*
G01*
X89316000Y-73431000D01*
G75*
G02*
X89241000Y-73506000I-75000J0D01*
G01*
X89091000Y-73506000D01*
G75*
G02*
X89016000Y-73431000I0J75000D01*
G01*
G37*
G36*
G01*
X89516000Y-73431000D02*
X89516000Y-72031000D01*
G75*
G02*
X89591000Y-71956000I75000J0D01*
G01*
X89741000Y-71956000D01*
G75*
G02*
X89816000Y-72031000I0J-75000D01*
G01*
X89816000Y-73431000D01*
G75*
G02*
X89741000Y-73506000I-75000J0D01*
G01*
X89591000Y-73506000D01*
G75*
G02*
X89516000Y-73431000I0J75000D01*
G01*
G37*
G36*
G01*
X90016000Y-73431000D02*
X90016000Y-72031000D01*
G75*
G02*
X90091000Y-71956000I75000J0D01*
G01*
X90241000Y-71956000D01*
G75*
G02*
X90316000Y-72031000I0J-75000D01*
G01*
X90316000Y-73431000D01*
G75*
G02*
X90241000Y-73506000I-75000J0D01*
G01*
X90091000Y-73506000D01*
G75*
G02*
X90016000Y-73431000I0J75000D01*
G01*
G37*
G36*
G01*
X90516000Y-73431000D02*
X90516000Y-72031000D01*
G75*
G02*
X90591000Y-71956000I75000J0D01*
G01*
X90741000Y-71956000D01*
G75*
G02*
X90816000Y-72031000I0J-75000D01*
G01*
X90816000Y-73431000D01*
G75*
G02*
X90741000Y-73506000I-75000J0D01*
G01*
X90591000Y-73506000D01*
G75*
G02*
X90516000Y-73431000I0J75000D01*
G01*
G37*
G36*
G01*
X91016000Y-73431000D02*
X91016000Y-72031000D01*
G75*
G02*
X91091000Y-71956000I75000J0D01*
G01*
X91241000Y-71956000D01*
G75*
G02*
X91316000Y-72031000I0J-75000D01*
G01*
X91316000Y-73431000D01*
G75*
G02*
X91241000Y-73506000I-75000J0D01*
G01*
X91091000Y-73506000D01*
G75*
G02*
X91016000Y-73431000I0J75000D01*
G01*
G37*
G36*
G01*
X91516000Y-73431000D02*
X91516000Y-72031000D01*
G75*
G02*
X91591000Y-71956000I75000J0D01*
G01*
X91741000Y-71956000D01*
G75*
G02*
X91816000Y-72031000I0J-75000D01*
G01*
X91816000Y-73431000D01*
G75*
G02*
X91741000Y-73506000I-75000J0D01*
G01*
X91591000Y-73506000D01*
G75*
G02*
X91516000Y-73431000I0J75000D01*
G01*
G37*
G36*
G01*
X92016000Y-73431000D02*
X92016000Y-72031000D01*
G75*
G02*
X92091000Y-71956000I75000J0D01*
G01*
X92241000Y-71956000D01*
G75*
G02*
X92316000Y-72031000I0J-75000D01*
G01*
X92316000Y-73431000D01*
G75*
G02*
X92241000Y-73506000I-75000J0D01*
G01*
X92091000Y-73506000D01*
G75*
G02*
X92016000Y-73431000I0J75000D01*
G01*
G37*
G36*
G01*
X92516000Y-73431000D02*
X92516000Y-72031000D01*
G75*
G02*
X92591000Y-71956000I75000J0D01*
G01*
X92741000Y-71956000D01*
G75*
G02*
X92816000Y-72031000I0J-75000D01*
G01*
X92816000Y-73431000D01*
G75*
G02*
X92741000Y-73506000I-75000J0D01*
G01*
X92591000Y-73506000D01*
G75*
G02*
X92516000Y-73431000I0J75000D01*
G01*
G37*
G36*
G01*
X93016000Y-73431000D02*
X93016000Y-72031000D01*
G75*
G02*
X93091000Y-71956000I75000J0D01*
G01*
X93241000Y-71956000D01*
G75*
G02*
X93316000Y-72031000I0J-75000D01*
G01*
X93316000Y-73431000D01*
G75*
G02*
X93241000Y-73506000I-75000J0D01*
G01*
X93091000Y-73506000D01*
G75*
G02*
X93016000Y-73431000I0J75000D01*
G01*
G37*
G36*
G01*
X93516000Y-73431000D02*
X93516000Y-72031000D01*
G75*
G02*
X93591000Y-71956000I75000J0D01*
G01*
X93741000Y-71956000D01*
G75*
G02*
X93816000Y-72031000I0J-75000D01*
G01*
X93816000Y-73431000D01*
G75*
G02*
X93741000Y-73506000I-75000J0D01*
G01*
X93591000Y-73506000D01*
G75*
G02*
X93516000Y-73431000I0J75000D01*
G01*
G37*
G36*
G01*
X94816000Y-70881000D02*
X94816000Y-70731000D01*
G75*
G02*
X94891000Y-70656000I75000J0D01*
G01*
X96291000Y-70656000D01*
G75*
G02*
X96366000Y-70731000I0J-75000D01*
G01*
X96366000Y-70881000D01*
G75*
G02*
X96291000Y-70956000I-75000J0D01*
G01*
X94891000Y-70956000D01*
G75*
G02*
X94816000Y-70881000I0J75000D01*
G01*
G37*
G36*
G01*
X94816000Y-70381000D02*
X94816000Y-70231000D01*
G75*
G02*
X94891000Y-70156000I75000J0D01*
G01*
X96291000Y-70156000D01*
G75*
G02*
X96366000Y-70231000I0J-75000D01*
G01*
X96366000Y-70381000D01*
G75*
G02*
X96291000Y-70456000I-75000J0D01*
G01*
X94891000Y-70456000D01*
G75*
G02*
X94816000Y-70381000I0J75000D01*
G01*
G37*
G36*
G01*
X94816000Y-69881000D02*
X94816000Y-69731000D01*
G75*
G02*
X94891000Y-69656000I75000J0D01*
G01*
X96291000Y-69656000D01*
G75*
G02*
X96366000Y-69731000I0J-75000D01*
G01*
X96366000Y-69881000D01*
G75*
G02*
X96291000Y-69956000I-75000J0D01*
G01*
X94891000Y-69956000D01*
G75*
G02*
X94816000Y-69881000I0J75000D01*
G01*
G37*
G36*
G01*
X94816000Y-69381000D02*
X94816000Y-69231000D01*
G75*
G02*
X94891000Y-69156000I75000J0D01*
G01*
X96291000Y-69156000D01*
G75*
G02*
X96366000Y-69231000I0J-75000D01*
G01*
X96366000Y-69381000D01*
G75*
G02*
X96291000Y-69456000I-75000J0D01*
G01*
X94891000Y-69456000D01*
G75*
G02*
X94816000Y-69381000I0J75000D01*
G01*
G37*
G36*
G01*
X94816000Y-68881000D02*
X94816000Y-68731000D01*
G75*
G02*
X94891000Y-68656000I75000J0D01*
G01*
X96291000Y-68656000D01*
G75*
G02*
X96366000Y-68731000I0J-75000D01*
G01*
X96366000Y-68881000D01*
G75*
G02*
X96291000Y-68956000I-75000J0D01*
G01*
X94891000Y-68956000D01*
G75*
G02*
X94816000Y-68881000I0J75000D01*
G01*
G37*
G36*
G01*
X94816000Y-68381000D02*
X94816000Y-68231000D01*
G75*
G02*
X94891000Y-68156000I75000J0D01*
G01*
X96291000Y-68156000D01*
G75*
G02*
X96366000Y-68231000I0J-75000D01*
G01*
X96366000Y-68381000D01*
G75*
G02*
X96291000Y-68456000I-75000J0D01*
G01*
X94891000Y-68456000D01*
G75*
G02*
X94816000Y-68381000I0J75000D01*
G01*
G37*
G36*
G01*
X94816000Y-67881000D02*
X94816000Y-67731000D01*
G75*
G02*
X94891000Y-67656000I75000J0D01*
G01*
X96291000Y-67656000D01*
G75*
G02*
X96366000Y-67731000I0J-75000D01*
G01*
X96366000Y-67881000D01*
G75*
G02*
X96291000Y-67956000I-75000J0D01*
G01*
X94891000Y-67956000D01*
G75*
G02*
X94816000Y-67881000I0J75000D01*
G01*
G37*
G36*
G01*
X94816000Y-67381000D02*
X94816000Y-67231000D01*
G75*
G02*
X94891000Y-67156000I75000J0D01*
G01*
X96291000Y-67156000D01*
G75*
G02*
X96366000Y-67231000I0J-75000D01*
G01*
X96366000Y-67381000D01*
G75*
G02*
X96291000Y-67456000I-75000J0D01*
G01*
X94891000Y-67456000D01*
G75*
G02*
X94816000Y-67381000I0J75000D01*
G01*
G37*
G36*
G01*
X94816000Y-66881000D02*
X94816000Y-66731000D01*
G75*
G02*
X94891000Y-66656000I75000J0D01*
G01*
X96291000Y-66656000D01*
G75*
G02*
X96366000Y-66731000I0J-75000D01*
G01*
X96366000Y-66881000D01*
G75*
G02*
X96291000Y-66956000I-75000J0D01*
G01*
X94891000Y-66956000D01*
G75*
G02*
X94816000Y-66881000I0J75000D01*
G01*
G37*
G36*
G01*
X94816000Y-66381000D02*
X94816000Y-66231000D01*
G75*
G02*
X94891000Y-66156000I75000J0D01*
G01*
X96291000Y-66156000D01*
G75*
G02*
X96366000Y-66231000I0J-75000D01*
G01*
X96366000Y-66381000D01*
G75*
G02*
X96291000Y-66456000I-75000J0D01*
G01*
X94891000Y-66456000D01*
G75*
G02*
X94816000Y-66381000I0J75000D01*
G01*
G37*
G36*
G01*
X94816000Y-65881000D02*
X94816000Y-65731000D01*
G75*
G02*
X94891000Y-65656000I75000J0D01*
G01*
X96291000Y-65656000D01*
G75*
G02*
X96366000Y-65731000I0J-75000D01*
G01*
X96366000Y-65881000D01*
G75*
G02*
X96291000Y-65956000I-75000J0D01*
G01*
X94891000Y-65956000D01*
G75*
G02*
X94816000Y-65881000I0J75000D01*
G01*
G37*
G36*
G01*
X94816000Y-65381000D02*
X94816000Y-65231000D01*
G75*
G02*
X94891000Y-65156000I75000J0D01*
G01*
X96291000Y-65156000D01*
G75*
G02*
X96366000Y-65231000I0J-75000D01*
G01*
X96366000Y-65381000D01*
G75*
G02*
X96291000Y-65456000I-75000J0D01*
G01*
X94891000Y-65456000D01*
G75*
G02*
X94816000Y-65381000I0J75000D01*
G01*
G37*
G36*
G01*
X94816000Y-64881000D02*
X94816000Y-64731000D01*
G75*
G02*
X94891000Y-64656000I75000J0D01*
G01*
X96291000Y-64656000D01*
G75*
G02*
X96366000Y-64731000I0J-75000D01*
G01*
X96366000Y-64881000D01*
G75*
G02*
X96291000Y-64956000I-75000J0D01*
G01*
X94891000Y-64956000D01*
G75*
G02*
X94816000Y-64881000I0J75000D01*
G01*
G37*
G36*
G01*
X94816000Y-64381000D02*
X94816000Y-64231000D01*
G75*
G02*
X94891000Y-64156000I75000J0D01*
G01*
X96291000Y-64156000D01*
G75*
G02*
X96366000Y-64231000I0J-75000D01*
G01*
X96366000Y-64381000D01*
G75*
G02*
X96291000Y-64456000I-75000J0D01*
G01*
X94891000Y-64456000D01*
G75*
G02*
X94816000Y-64381000I0J75000D01*
G01*
G37*
G36*
G01*
X94816000Y-63881000D02*
X94816000Y-63731000D01*
G75*
G02*
X94891000Y-63656000I75000J0D01*
G01*
X96291000Y-63656000D01*
G75*
G02*
X96366000Y-63731000I0J-75000D01*
G01*
X96366000Y-63881000D01*
G75*
G02*
X96291000Y-63956000I-75000J0D01*
G01*
X94891000Y-63956000D01*
G75*
G02*
X94816000Y-63881000I0J75000D01*
G01*
G37*
G36*
G01*
X94816000Y-63381000D02*
X94816000Y-63231000D01*
G75*
G02*
X94891000Y-63156000I75000J0D01*
G01*
X96291000Y-63156000D01*
G75*
G02*
X96366000Y-63231000I0J-75000D01*
G01*
X96366000Y-63381000D01*
G75*
G02*
X96291000Y-63456000I-75000J0D01*
G01*
X94891000Y-63456000D01*
G75*
G02*
X94816000Y-63381000I0J75000D01*
G01*
G37*
G36*
G01*
X93516000Y-62081000D02*
X93516000Y-60681000D01*
G75*
G02*
X93591000Y-60606000I75000J0D01*
G01*
X93741000Y-60606000D01*
G75*
G02*
X93816000Y-60681000I0J-75000D01*
G01*
X93816000Y-62081000D01*
G75*
G02*
X93741000Y-62156000I-75000J0D01*
G01*
X93591000Y-62156000D01*
G75*
G02*
X93516000Y-62081000I0J75000D01*
G01*
G37*
G36*
G01*
X93016000Y-62081000D02*
X93016000Y-60681000D01*
G75*
G02*
X93091000Y-60606000I75000J0D01*
G01*
X93241000Y-60606000D01*
G75*
G02*
X93316000Y-60681000I0J-75000D01*
G01*
X93316000Y-62081000D01*
G75*
G02*
X93241000Y-62156000I-75000J0D01*
G01*
X93091000Y-62156000D01*
G75*
G02*
X93016000Y-62081000I0J75000D01*
G01*
G37*
G36*
G01*
X92516000Y-62081000D02*
X92516000Y-60681000D01*
G75*
G02*
X92591000Y-60606000I75000J0D01*
G01*
X92741000Y-60606000D01*
G75*
G02*
X92816000Y-60681000I0J-75000D01*
G01*
X92816000Y-62081000D01*
G75*
G02*
X92741000Y-62156000I-75000J0D01*
G01*
X92591000Y-62156000D01*
G75*
G02*
X92516000Y-62081000I0J75000D01*
G01*
G37*
G36*
G01*
X92016000Y-62081000D02*
X92016000Y-60681000D01*
G75*
G02*
X92091000Y-60606000I75000J0D01*
G01*
X92241000Y-60606000D01*
G75*
G02*
X92316000Y-60681000I0J-75000D01*
G01*
X92316000Y-62081000D01*
G75*
G02*
X92241000Y-62156000I-75000J0D01*
G01*
X92091000Y-62156000D01*
G75*
G02*
X92016000Y-62081000I0J75000D01*
G01*
G37*
G36*
G01*
X91516000Y-62081000D02*
X91516000Y-60681000D01*
G75*
G02*
X91591000Y-60606000I75000J0D01*
G01*
X91741000Y-60606000D01*
G75*
G02*
X91816000Y-60681000I0J-75000D01*
G01*
X91816000Y-62081000D01*
G75*
G02*
X91741000Y-62156000I-75000J0D01*
G01*
X91591000Y-62156000D01*
G75*
G02*
X91516000Y-62081000I0J75000D01*
G01*
G37*
G36*
G01*
X91016000Y-62081000D02*
X91016000Y-60681000D01*
G75*
G02*
X91091000Y-60606000I75000J0D01*
G01*
X91241000Y-60606000D01*
G75*
G02*
X91316000Y-60681000I0J-75000D01*
G01*
X91316000Y-62081000D01*
G75*
G02*
X91241000Y-62156000I-75000J0D01*
G01*
X91091000Y-62156000D01*
G75*
G02*
X91016000Y-62081000I0J75000D01*
G01*
G37*
G36*
G01*
X90516000Y-62081000D02*
X90516000Y-60681000D01*
G75*
G02*
X90591000Y-60606000I75000J0D01*
G01*
X90741000Y-60606000D01*
G75*
G02*
X90816000Y-60681000I0J-75000D01*
G01*
X90816000Y-62081000D01*
G75*
G02*
X90741000Y-62156000I-75000J0D01*
G01*
X90591000Y-62156000D01*
G75*
G02*
X90516000Y-62081000I0J75000D01*
G01*
G37*
G36*
G01*
X90016000Y-62081000D02*
X90016000Y-60681000D01*
G75*
G02*
X90091000Y-60606000I75000J0D01*
G01*
X90241000Y-60606000D01*
G75*
G02*
X90316000Y-60681000I0J-75000D01*
G01*
X90316000Y-62081000D01*
G75*
G02*
X90241000Y-62156000I-75000J0D01*
G01*
X90091000Y-62156000D01*
G75*
G02*
X90016000Y-62081000I0J75000D01*
G01*
G37*
G36*
G01*
X89516000Y-62081000D02*
X89516000Y-60681000D01*
G75*
G02*
X89591000Y-60606000I75000J0D01*
G01*
X89741000Y-60606000D01*
G75*
G02*
X89816000Y-60681000I0J-75000D01*
G01*
X89816000Y-62081000D01*
G75*
G02*
X89741000Y-62156000I-75000J0D01*
G01*
X89591000Y-62156000D01*
G75*
G02*
X89516000Y-62081000I0J75000D01*
G01*
G37*
G36*
G01*
X89016000Y-62081000D02*
X89016000Y-60681000D01*
G75*
G02*
X89091000Y-60606000I75000J0D01*
G01*
X89241000Y-60606000D01*
G75*
G02*
X89316000Y-60681000I0J-75000D01*
G01*
X89316000Y-62081000D01*
G75*
G02*
X89241000Y-62156000I-75000J0D01*
G01*
X89091000Y-62156000D01*
G75*
G02*
X89016000Y-62081000I0J75000D01*
G01*
G37*
G36*
G01*
X88516000Y-62081000D02*
X88516000Y-60681000D01*
G75*
G02*
X88591000Y-60606000I75000J0D01*
G01*
X88741000Y-60606000D01*
G75*
G02*
X88816000Y-60681000I0J-75000D01*
G01*
X88816000Y-62081000D01*
G75*
G02*
X88741000Y-62156000I-75000J0D01*
G01*
X88591000Y-62156000D01*
G75*
G02*
X88516000Y-62081000I0J75000D01*
G01*
G37*
G36*
G01*
X88016000Y-62081000D02*
X88016000Y-60681000D01*
G75*
G02*
X88091000Y-60606000I75000J0D01*
G01*
X88241000Y-60606000D01*
G75*
G02*
X88316000Y-60681000I0J-75000D01*
G01*
X88316000Y-62081000D01*
G75*
G02*
X88241000Y-62156000I-75000J0D01*
G01*
X88091000Y-62156000D01*
G75*
G02*
X88016000Y-62081000I0J75000D01*
G01*
G37*
G36*
G01*
X87516000Y-62081000D02*
X87516000Y-60681000D01*
G75*
G02*
X87591000Y-60606000I75000J0D01*
G01*
X87741000Y-60606000D01*
G75*
G02*
X87816000Y-60681000I0J-75000D01*
G01*
X87816000Y-62081000D01*
G75*
G02*
X87741000Y-62156000I-75000J0D01*
G01*
X87591000Y-62156000D01*
G75*
G02*
X87516000Y-62081000I0J75000D01*
G01*
G37*
G36*
G01*
X87016000Y-62081000D02*
X87016000Y-60681000D01*
G75*
G02*
X87091000Y-60606000I75000J0D01*
G01*
X87241000Y-60606000D01*
G75*
G02*
X87316000Y-60681000I0J-75000D01*
G01*
X87316000Y-62081000D01*
G75*
G02*
X87241000Y-62156000I-75000J0D01*
G01*
X87091000Y-62156000D01*
G75*
G02*
X87016000Y-62081000I0J75000D01*
G01*
G37*
G36*
G01*
X86516000Y-62081000D02*
X86516000Y-60681000D01*
G75*
G02*
X86591000Y-60606000I75000J0D01*
G01*
X86741000Y-60606000D01*
G75*
G02*
X86816000Y-60681000I0J-75000D01*
G01*
X86816000Y-62081000D01*
G75*
G02*
X86741000Y-62156000I-75000J0D01*
G01*
X86591000Y-62156000D01*
G75*
G02*
X86516000Y-62081000I0J75000D01*
G01*
G37*
G36*
G01*
X86016000Y-62081000D02*
X86016000Y-60681000D01*
G75*
G02*
X86091000Y-60606000I75000J0D01*
G01*
X86241000Y-60606000D01*
G75*
G02*
X86316000Y-60681000I0J-75000D01*
G01*
X86316000Y-62081000D01*
G75*
G02*
X86241000Y-62156000I-75000J0D01*
G01*
X86091000Y-62156000D01*
G75*
G02*
X86016000Y-62081000I0J75000D01*
G01*
G37*
%TD*%
D26*
%TO.C,U5*%
X86487000Y-82739000D03*
X87757000Y-82739000D03*
X89027000Y-82739000D03*
X90297000Y-82739000D03*
X91567000Y-82739000D03*
X92837000Y-82739000D03*
X94107000Y-82739000D03*
X95377000Y-82739000D03*
X95377000Y-77789000D03*
X94107000Y-77789000D03*
X92837000Y-77789000D03*
X91567000Y-77789000D03*
X90297000Y-77789000D03*
X89027000Y-77789000D03*
X87757000Y-77789000D03*
X86487000Y-77789000D03*
%TD*%
D27*
%TO.C,USB1*%
X88975000Y-98048000D03*
X88975000Y-98548000D03*
X88975000Y-99048000D03*
X88975000Y-97548000D03*
X88975000Y-99548000D03*
X88975000Y-97048000D03*
X88975000Y-100048000D03*
X88975000Y-96548000D03*
D28*
X88975000Y-95848000D03*
X88975000Y-100748000D03*
X88975000Y-95073000D03*
X88975000Y-101523000D03*
%TD*%
D20*
%TO.C,Q4*%
X73660000Y-65938000D03*
D21*
X73660000Y-72238000D03*
X75960000Y-72238000D03*
X71360000Y-72238000D03*
%TD*%
D14*
%TO.C,D5*%
X91440000Y-96512000D03*
X91440000Y-95512000D03*
%TD*%
D29*
%TO.C,J5*%
X99572000Y-52578000D03*
X99072000Y-52578000D03*
X98572000Y-52578000D03*
X98072000Y-52578000D03*
X97572000Y-52578000D03*
X100072000Y-52578000D03*
X100572000Y-52578000D03*
X101072000Y-52578000D03*
X101572000Y-52578000D03*
X102072000Y-52578000D03*
D30*
X96782000Y-55228000D03*
X102862000Y-55228000D03*
%TD*%
D14*
%TO.C,D12*%
X69342000Y-67048000D03*
X69342000Y-66048000D03*
%TD*%
M02*
