%TF.GenerationSoftware,KiCad,Pcbnew,(5.99.0-9379-gbf5cd2e233)*%
%TF.CreationDate,2021-03-10T08:56:36+01:00*%
%TF.ProjectId,sucker-one-mainboard,7375636b-6572-42d6-9f6e-652d6d61696e,rev?*%
%TF.SameCoordinates,Original*%
%TF.FileFunction,Soldermask,Bot*%
%TF.FilePolarity,Negative*%
%FSLAX46Y46*%
G04 Gerber Fmt 4.6, Leading zero omitted, Abs format (unit mm)*
G04 Created by KiCad (PCBNEW (5.99.0-9379-gbf5cd2e233)) date 2021-03-10 08:56:36*
%MOMM*%
%LPD*%
G01*
G04 APERTURE LIST*
G04 Aperture macros list*
%AMRoundRect*
0 Rectangle with rounded corners*
0 $1 Rounding radius*
0 $2 $3 $4 $5 $6 $7 $8 $9 X,Y pos of 4 corners*
0 Add a 4 corners polygon primitive as box body*
4,1,4,$2,$3,$4,$5,$6,$7,$8,$9,$2,$3,0*
0 Add four circle primitives for the rounded corners*
1,1,$1+$1,$2,$3*
1,1,$1+$1,$4,$5*
1,1,$1+$1,$6,$7*
1,1,$1+$1,$8,$9*
0 Add four rect primitives between the rounded corners*
20,1,$1+$1,$2,$3,$4,$5,0*
20,1,$1+$1,$4,$5,$6,$7,0*
20,1,$1+$1,$6,$7,$8,$9,0*
20,1,$1+$1,$8,$9,$2,$3,0*%
G04 Aperture macros list end*
%ADD10R,1.350000X1.350000*%
%ADD11O,1.350000X1.350000*%
%ADD12RoundRect,0.250000X0.750000X-0.600000X0.750000X0.600000X-0.750000X0.600000X-0.750000X-0.600000X0*%
%ADD13O,2.000000X1.700000*%
%ADD14C,2.300000*%
%ADD15R,1.500000X1.500000*%
%ADD16C,1.500000*%
%ADD17C,0.700000*%
%ADD18O,1.050000X2.100000*%
%ADD19C,2.800000*%
%ADD20RoundRect,0.250000X-0.600000X-0.750000X0.600000X-0.750000X0.600000X0.750000X-0.600000X0.750000X0*%
%ADD21O,1.700000X2.000000*%
%ADD22R,4.400000X1.800000*%
%ADD23O,4.000000X1.800000*%
%ADD24O,1.800000X4.000000*%
%ADD25RoundRect,0.250000X-0.750000X0.600000X-0.750000X-0.600000X0.750000X-0.600000X0.750000X0.600000X0*%
%ADD26R,2.600000X2.600000*%
%ADD27C,2.600000*%
%ADD28C,2.000000*%
G04 APERTURE END LIST*
D10*
%TO.C,J11*%
X129429000Y-124254000D03*
D11*
X131429000Y-124254000D03*
X129429000Y-126254000D03*
X131429000Y-126254000D03*
X129429000Y-128254000D03*
X131429000Y-128254000D03*
X129429000Y-130254000D03*
X131429000Y-130254000D03*
%TD*%
D12*
%TO.C,J1*%
X98535000Y-111740000D03*
D13*
X98535000Y-109240000D03*
%TD*%
D14*
%TO.C,J3*%
X109062000Y-150741000D03*
X121062000Y-150741000D03*
D15*
X116592000Y-148441000D03*
D16*
X115572000Y-145901000D03*
X114552000Y-148441000D03*
X113532000Y-145901000D03*
%TD*%
D17*
%TO.C,J12*%
X100934000Y-152390500D03*
X95154000Y-152390500D03*
D18*
X93724000Y-151860500D03*
X102364000Y-151860500D03*
X93724000Y-156040500D03*
X102364000Y-156040500D03*
%TD*%
D19*
%TO.C,TP19*%
X76708000Y-93726000D03*
%TD*%
D20*
%TO.C,J10*%
X102382000Y-144907000D03*
D21*
X104882000Y-144907000D03*
%TD*%
D22*
%TO.C,J5*%
X82966000Y-143129000D03*
D23*
X82966000Y-148929000D03*
D24*
X87766000Y-146129000D03*
%TD*%
D12*
%TO.C,J2*%
X98535000Y-120503000D03*
D13*
X98535000Y-118003000D03*
%TD*%
D25*
%TO.C,J4*%
X106824000Y-122067000D03*
D13*
X106824000Y-124567000D03*
%TD*%
D26*
%TO.C,J6*%
X108509000Y-115702000D03*
D27*
X108509000Y-110622000D03*
%TD*%
D28*
%TO.C,TP13*%
X70993000Y-118364000D03*
%TD*%
%TO.C,TP1*%
X93091000Y-145288000D03*
%TD*%
%TO.C,TP15*%
X82423000Y-118364000D03*
%TD*%
%TO.C,TP2*%
X98044000Y-155448000D03*
%TD*%
%TO.C,TP7*%
X102108000Y-117475000D03*
%TD*%
%TO.C,TP8*%
X110363000Y-121158000D03*
%TD*%
%TO.C,TP10*%
X74422000Y-150495000D03*
%TD*%
%TO.C,TP14*%
X86614000Y-118364000D03*
%TD*%
%TO.C,TP17*%
X101727000Y-141224000D03*
%TD*%
%TO.C,TP18*%
X105410000Y-141224000D03*
%TD*%
%TO.C,TP16*%
X72009000Y-134874000D03*
%TD*%
%TO.C,TP22*%
X128879600Y-110794800D03*
%TD*%
%TO.C,TP30*%
X123698000Y-105156000D03*
%TD*%
%TO.C,TP31*%
X119253000Y-145669000D03*
%TD*%
%TO.C,TP23*%
X131978400Y-104648000D03*
%TD*%
%TO.C,TP11*%
X71120000Y-102235000D03*
%TD*%
%TO.C,TP26*%
X97663000Y-101473000D03*
%TD*%
%TO.C,TP6*%
X102108000Y-121031000D03*
%TD*%
%TO.C,TP20*%
X103632000Y-135382000D03*
%TD*%
%TO.C,TP3*%
X102108000Y-112141000D03*
%TD*%
%TO.C,TP25*%
X94234000Y-101473000D03*
%TD*%
%TO.C,TP28*%
X97663000Y-104902000D03*
%TD*%
%TO.C,TP5*%
X125476000Y-130302000D03*
%TD*%
%TO.C,TP4*%
X102108000Y-108585000D03*
%TD*%
%TO.C,TP9*%
X110363000Y-125095000D03*
%TD*%
%TO.C,TP27*%
X94234000Y-104902000D03*
%TD*%
%TO.C,TP24*%
X128930000Y-104280000D03*
%TD*%
M02*
