%TF.GenerationSoftware,KiCad,Pcbnew,(5.99.0-10573-gc33b2cfa8d)*%
%TF.CreationDate,2021-05-19T15:13:12+02:00*%
%TF.ProjectId,sucker-one-mainboard,7375636b-6572-42d6-9f6e-652d6d61696e,rev?*%
%TF.SameCoordinates,Original*%
%TF.FileFunction,Copper,L4,Bot*%
%TF.FilePolarity,Positive*%
%FSLAX46Y46*%
G04 Gerber Fmt 4.6, Leading zero omitted, Abs format (unit mm)*
G04 Created by KiCad (PCBNEW (5.99.0-10573-gc33b2cfa8d)) date 2021-05-19 15:13:12*
%MOMM*%
%LPD*%
G01*
G04 APERTURE LIST*
G04 Aperture macros list*
%AMRoundRect*
0 Rectangle with rounded corners*
0 $1 Rounding radius*
0 $2 $3 $4 $5 $6 $7 $8 $9 X,Y pos of 4 corners*
0 Add a 4 corners polygon primitive as box body*
4,1,4,$2,$3,$4,$5,$6,$7,$8,$9,$2,$3,0*
0 Add four circle primitives for the rounded corners*
1,1,$1+$1,$2,$3*
1,1,$1+$1,$4,$5*
1,1,$1+$1,$6,$7*
1,1,$1+$1,$8,$9*
0 Add four rect primitives between the rounded corners*
20,1,$1+$1,$2,$3,$4,$5,0*
20,1,$1+$1,$4,$5,$6,$7,0*
20,1,$1+$1,$6,$7,$8,$9,0*
20,1,$1+$1,$8,$9,$2,$3,0*%
G04 Aperture macros list end*
%TA.AperFunction,ComponentPad*%
%ADD10R,1.350000X1.350000*%
%TD*%
%TA.AperFunction,ComponentPad*%
%ADD11O,1.350000X1.350000*%
%TD*%
%TA.AperFunction,ComponentPad*%
%ADD12C,6.400000*%
%TD*%
%TA.AperFunction,ComponentPad*%
%ADD13C,0.800000*%
%TD*%
%TA.AperFunction,ComponentPad*%
%ADD14RoundRect,0.250000X0.750000X-0.600000X0.750000X0.600000X-0.750000X0.600000X-0.750000X-0.600000X0*%
%TD*%
%TA.AperFunction,ComponentPad*%
%ADD15O,2.000000X1.700000*%
%TD*%
%TA.AperFunction,ComponentPad*%
%ADD16R,1.500000X1.500000*%
%TD*%
%TA.AperFunction,ComponentPad*%
%ADD17C,1.500000*%
%TD*%
%TA.AperFunction,ComponentPad*%
%ADD18O,1.050000X2.100000*%
%TD*%
%TA.AperFunction,ComponentPad*%
%ADD19C,2.200000*%
%TD*%
%TA.AperFunction,ComponentPad*%
%ADD20C,1.700000*%
%TD*%
%TA.AperFunction,ComponentPad*%
%ADD21C,2.800000*%
%TD*%
%TA.AperFunction,ComponentPad*%
%ADD22R,4.400000X1.800000*%
%TD*%
%TA.AperFunction,ComponentPad*%
%ADD23O,4.000000X1.800000*%
%TD*%
%TA.AperFunction,ComponentPad*%
%ADD24O,1.800000X4.000000*%
%TD*%
%TA.AperFunction,ComponentPad*%
%ADD25RoundRect,0.250000X-0.750000X0.600000X-0.750000X-0.600000X0.750000X-0.600000X0.750000X0.600000X0*%
%TD*%
%TA.AperFunction,ComponentPad*%
%ADD26R,2.600000X2.600000*%
%TD*%
%TA.AperFunction,ComponentPad*%
%ADD27C,2.600000*%
%TD*%
%TA.AperFunction,ComponentPad*%
%ADD28C,0.600000*%
%TD*%
%TA.AperFunction,SMDPad,CuDef*%
%ADD29C,2.000000*%
%TD*%
%TA.AperFunction,ViaPad*%
%ADD30C,0.400000*%
%TD*%
%TA.AperFunction,ViaPad*%
%ADD31C,0.600000*%
%TD*%
%TA.AperFunction,Conductor*%
%ADD32C,0.200000*%
%TD*%
%TA.AperFunction,Conductor*%
%ADD33C,0.500000*%
%TD*%
%TA.AperFunction,Conductor*%
%ADD34C,0.300000*%
%TD*%
%TA.AperFunction,Conductor*%
%ADD35C,0.250000*%
%TD*%
%TA.AperFunction,Conductor*%
%ADD36C,1.000000*%
%TD*%
G04 APERTURE END LIST*
D10*
%TO.P,J11,1,Pin_1*%
%TO.N,UART0_RX*%
X130971800Y-128806200D03*
D11*
%TO.P,J11,2,Pin_2*%
%TO.N,unconnected-(J11-Pad2)*%
X128971800Y-128806200D03*
%TO.P,J11,3,Pin_3*%
%TO.N,UART0_TX*%
X130971800Y-126806200D03*
%TO.P,J11,4,Pin_4*%
%TO.N,unconnected-(J11-Pad4)*%
X128971800Y-126806200D03*
%TO.P,J11,5,Pin_5*%
%TO.N,SWDIO*%
X130971800Y-124806200D03*
%TO.P,J11,6,Pin_6*%
%TO.N,SWCLK*%
X128971800Y-124806200D03*
%TO.P,J11,7,Pin_7*%
%TO.N,GND*%
X130971800Y-122806200D03*
%TO.P,J11,8,Pin_8*%
X128971800Y-122806200D03*
%TD*%
D12*
%TO.P,H1,1*%
%TO.N,N/C*%
X124663200Y-144424400D03*
D13*
X124663200Y-142024400D03*
X122263200Y-144424400D03*
X126360256Y-142727344D03*
X122966144Y-142727344D03*
X124663200Y-146824400D03*
X126360256Y-146121456D03*
X122966144Y-146121456D03*
X127063200Y-144424400D03*
%TD*%
D12*
%TO.P,H4,1*%
%TO.N,N/C*%
X75488800Y-144424400D03*
D13*
X77185856Y-146121456D03*
X73791744Y-146121456D03*
X75488800Y-146824400D03*
X73791744Y-142727344D03*
X73088800Y-144424400D03*
X77185856Y-142727344D03*
X77888800Y-144424400D03*
X75488800Y-142024400D03*
%TD*%
%TO.P,H3,1*%
%TO.N,N/C*%
X100076000Y-124854000D03*
D12*
X100076000Y-127254000D03*
D13*
X101773056Y-128951056D03*
X100076000Y-129654000D03*
X97676000Y-127254000D03*
X98378944Y-128951056D03*
X98378944Y-125556944D03*
X102476000Y-127254000D03*
X101773056Y-125556944D03*
%TD*%
D14*
%TO.P,J1,1,Pin_1*%
%TO.N,+12V*%
X98535000Y-111740000D03*
D15*
%TO.P,J1,2,Pin_2*%
%TO.N,Net-(D2-Pad1)*%
X98535000Y-109240000D03*
%TD*%
D16*
%TO.P,J3,1*%
%TO.N,GND*%
X116592000Y-148441000D03*
D17*
%TO.P,J3,2*%
%TO.N,FOOTPEDAL*%
X115572000Y-145901000D03*
%TO.P,J3,3*%
%TO.N,FOOTPEDAL_AUX*%
X114552000Y-148441000D03*
%TO.P,J3,4*%
%TO.N,+3V3*%
X113532000Y-145901000D03*
%TD*%
D13*
%TO.P,H5,1*%
%TO.N,N/C*%
X69321344Y-93603744D03*
X71018400Y-92900800D03*
X69321344Y-96997856D03*
X68618400Y-95300800D03*
D12*
X71018400Y-95300800D03*
D13*
X72715456Y-93603744D03*
X71018400Y-97700800D03*
X73418400Y-95300800D03*
X72715456Y-96997856D03*
%TD*%
D18*
%TO.P,J12,S1,SHIELD*%
%TO.N,Net-(J12-PadS1)*%
X93724000Y-151860500D03*
%TO.P,J12,S2,SHIELD*%
X102364000Y-151860500D03*
%TO.P,J12,S3,SHIELD*%
X93724000Y-156040500D03*
%TO.P,J12,S4,SHIELD*%
X102364000Y-156040500D03*
%TD*%
D19*
%TO.P,SW1,*%
%TO.N,*%
X125403800Y-112425600D03*
X125403800Y-119425600D03*
D20*
%TO.P,SW1,1,1*%
%TO.N,Net-(R26-Pad2)*%
X127903800Y-113675600D03*
%TO.P,SW1,2,2*%
%TO.N,GND*%
X127903800Y-118175600D03*
%TD*%
D21*
%TO.P,TP19,1,1*%
%TO.N,GND*%
X76708000Y-93192600D03*
%TD*%
D14*
%TO.P,J10,1,Pin_1*%
%TO.N,+12V*%
X105774000Y-132949000D03*
D15*
%TO.P,J10,2,Pin_2*%
%TO.N,Net-(D11-Pad2)*%
X105774000Y-130449000D03*
%TD*%
D12*
%TO.P,H2,1*%
%TO.N,N/C*%
X128981200Y-107645200D03*
D13*
X130678256Y-109342256D03*
X126581200Y-107645200D03*
X127284144Y-105948144D03*
X128981200Y-110045200D03*
X128981200Y-105245200D03*
X130678256Y-105948144D03*
X131381200Y-107645200D03*
X127284144Y-109342256D03*
%TD*%
D22*
%TO.P,J5,1*%
%TO.N,Net-(J5-Pad1)*%
X83067600Y-143256000D03*
D23*
%TO.P,J5,2*%
%TO.N,GND*%
X83067600Y-149056000D03*
D24*
%TO.P,J5,3*%
%TO.N,N/C*%
X87867600Y-146256000D03*
%TD*%
D14*
%TO.P,J2,1,Pin_1*%
%TO.N,+12V*%
X98535000Y-119995000D03*
D15*
%TO.P,J2,2,Pin_2*%
%TO.N,Net-(D7-Pad1)*%
X98535000Y-117495000D03*
%TD*%
D25*
%TO.P,J4,1,Pin_1*%
%TO.N,+12V*%
X106824000Y-122067000D03*
D15*
%TO.P,J4,2,Pin_2*%
%TO.N,Net-(D10-Pad2)*%
X106824000Y-124567000D03*
%TD*%
D26*
%TO.P,J6,1,Pin_1*%
%TO.N,Net-(J5-Pad1)*%
X108509000Y-115702000D03*
D27*
%TO.P,J6,2,Pin_2*%
%TO.N,Net-(F1-Pad2)*%
X108509000Y-110622000D03*
%TD*%
D28*
%TO.P,U4,57,GND*%
%TO.N,GND*%
X94605000Y-138435000D03*
X94605000Y-135885000D03*
X95880000Y-138435000D03*
X97155000Y-135885000D03*
X95880000Y-137160000D03*
X94605000Y-137160000D03*
X95880000Y-135885000D03*
X97155000Y-138435000D03*
X97155000Y-137160000D03*
%TD*%
D29*
%TO.P,TP13,1,1*%
%TO.N,GND*%
X72428100Y-117500400D03*
%TD*%
%TO.P,TP1,1,1*%
%TO.N,DP*%
X99517200Y-153822400D03*
%TD*%
%TO.P,TP15,1,1*%
%TO.N,I2C0_SDA*%
X95377000Y-107365800D03*
%TD*%
%TO.P,TP2,1,1*%
%TO.N,DN*%
X96418400Y-153822400D03*
%TD*%
%TO.P,TP7,1,1*%
%TO.N,Net-(D7-Pad1)*%
X72428100Y-110337600D03*
%TD*%
%TO.P,TP10,1,1*%
%TO.N,+12V*%
X75717400Y-117500400D03*
%TD*%
%TO.P,TP14,1,1*%
%TO.N,I2C0_SCL*%
X92303600Y-107365800D03*
%TD*%
%TO.P,TP18,1,1*%
%TO.N,Net-(D11-Pad2)*%
X116535200Y-121691400D03*
%TD*%
%TO.P,TP16,1,1*%
%TO.N,+5V*%
X69138800Y-117500400D03*
%TD*%
%TO.P,TP22,1,1*%
%TO.N,UART0_RX*%
X123063000Y-133299200D03*
%TD*%
%TO.P,TP31,1,1*%
%TO.N,FOOTPEDAL*%
X116814600Y-151663400D03*
%TD*%
%TO.P,TP23,1,1*%
%TO.N,UART0_TX*%
X126212600Y-133299200D03*
%TD*%
%TO.P,TP11,1,1*%
%TO.N,+3V3*%
X78994000Y-117500400D03*
%TD*%
%TO.P,TP26,1,1*%
%TO.N,SPI0_CLK*%
X85750400Y-96012000D03*
%TD*%
%TO.P,TP25,1,1*%
%TO.N,SPI0_CS*%
X88849200Y-96037400D03*
%TD*%
%TO.P,TP28,1,1*%
%TO.N,SPI0_MOSI*%
X79502000Y-96037400D03*
%TD*%
%TO.P,TP5,1,1*%
%TO.N,Net-(TP5-Pad1)*%
X88950800Y-135940800D03*
%TD*%
%TO.P,TP12,1,1*%
%TO.N,SWCLK*%
X120167400Y-128219200D03*
%TD*%
%TO.P,TP20,1,1*%
%TO.N,FOOTPEDAL_AUX*%
X113614200Y-151688800D03*
%TD*%
%TO.P,TP4,1,1*%
%TO.N,Net-(D2-Pad1)*%
X69138800Y-110337600D03*
%TD*%
%TO.P,TP9,1,1*%
%TO.N,Net-(D10-Pad2)*%
X75717400Y-110337600D03*
%TD*%
%TO.P,TP27,1,1*%
%TO.N,SPI0_MISO*%
X82626200Y-96012000D03*
%TD*%
%TO.P,TP24,1,1*%
%TO.N,SWDIO*%
X123266200Y-128219200D03*
%TD*%
D30*
%TO.N,GND*%
X123367800Y-152425400D03*
X73736200Y-131089400D03*
D31*
X89154000Y-139573000D03*
D30*
X108610400Y-136042400D03*
D31*
X104444800Y-148818600D03*
D30*
X122555000Y-125044200D03*
D31*
X95504000Y-149098000D03*
D30*
X93522800Y-100736400D03*
D31*
X93853000Y-149860000D03*
X92557600Y-125628400D03*
D30*
X127101600Y-150495000D03*
X91135200Y-138252200D03*
X101600000Y-135356600D03*
D31*
X91465400Y-148615400D03*
D30*
X85750400Y-130225800D03*
X102285800Y-140639800D03*
D31*
X88773000Y-128651000D03*
D30*
X83388200Y-107518200D03*
X73710800Y-126796800D03*
D31*
X93827600Y-127711200D03*
D30*
X114960400Y-137414000D03*
X72440800Y-119278400D03*
X114782600Y-141325600D03*
D31*
X101142800Y-147574000D03*
X92456000Y-144272000D03*
X100584000Y-149098000D03*
D30*
X107797600Y-153060400D03*
X72034400Y-128727200D03*
X75895200Y-107543600D03*
X72059800Y-127203200D03*
X107467400Y-145567400D03*
X70307200Y-128701800D03*
X115062000Y-129692400D03*
D31*
X96520000Y-144272000D03*
D30*
X73710800Y-128066800D03*
X77165200Y-100609400D03*
X97002600Y-132283200D03*
X93853000Y-130454400D03*
X84683600Y-100609400D03*
X84607400Y-126949200D03*
X91846400Y-123875800D03*
D31*
X101981000Y-149860000D03*
X86410800Y-133553200D03*
X80873600Y-128270000D03*
X86374000Y-132167600D03*
D30*
X111506000Y-137439400D03*
X127177800Y-138150600D03*
D31*
X89154000Y-140716000D03*
D30*
X92760800Y-112115600D03*
D31*
X95504000Y-144272000D03*
D30*
X70307200Y-127177800D03*
X71094600Y-125552200D03*
X68402200Y-107569000D03*
X69824600Y-100584000D03*
D31*
X103098600Y-150012400D03*
X91440000Y-144272000D03*
D30*
X73710800Y-129565400D03*
D31*
X105918000Y-143129000D03*
D30*
%TO.N,+3V3*%
X87426800Y-111175800D03*
X126822200Y-152146000D03*
X87528400Y-109448600D03*
D31*
X98806000Y-147218400D03*
X84886800Y-138176000D03*
X84074000Y-138151000D03*
X84074000Y-134670800D03*
D30*
X92684600Y-111125000D03*
D31*
X98374200Y-134670800D03*
X97155000Y-139623800D03*
X84074000Y-132080000D03*
D30*
X98247200Y-103581200D03*
D31*
X93497400Y-134772400D03*
D30*
X122631200Y-138353800D03*
D31*
X98374200Y-137388600D03*
D30*
X104673400Y-153212800D03*
X106349800Y-149910800D03*
X79756000Y-116230400D03*
D31*
X83312000Y-138176000D03*
X84074000Y-131267200D03*
X93497400Y-137769600D03*
D30*
%TO.N,+5V*%
X124510800Y-125577600D03*
X82956400Y-112064800D03*
X77800200Y-114579400D03*
X79324200Y-119735600D03*
X81864200Y-122250200D03*
X85623400Y-110286800D03*
X89763600Y-102819200D03*
X91287600Y-102844600D03*
X69062600Y-119278400D03*
%TO.N,+12V*%
X113004600Y-125526800D03*
X79527400Y-121361200D03*
X110693200Y-127076200D03*
%TO.N,Net-(C5-Pad2)*%
X75590400Y-126898400D03*
X76936600Y-137033000D03*
X77851000Y-133629400D03*
X76936600Y-134493000D03*
X76936600Y-133629400D03*
X75209400Y-126466600D03*
X77851000Y-135356600D03*
X77851000Y-137033000D03*
X77851000Y-136169400D03*
X73075800Y-125628400D03*
X77851000Y-134518400D03*
X72440800Y-125628400D03*
X76936600Y-135356600D03*
X76936600Y-136169400D03*
D31*
%TO.N,+1V1*%
X95199200Y-135077200D03*
D30*
X95224600Y-132283200D03*
D31*
X94361000Y-139446000D03*
X96012000Y-141909800D03*
D30*
%TO.N,Net-(D2-Pad1)*%
X74422000Y-100990400D03*
X101219000Y-105460800D03*
X90170000Y-99364800D03*
X69469000Y-106527600D03*
X95021400Y-100330000D03*
%TO.N,FOOTPEDAL*%
X118491000Y-145669000D03*
X101650800Y-137033000D03*
X111429800Y-144780000D03*
%TO.N,Net-(D7-Pad2)*%
X93802200Y-120523000D03*
X93776800Y-118338600D03*
%TO.N,Net-(D7-Pad1)*%
X91897200Y-115493800D03*
X76225400Y-105968800D03*
X85623400Y-115646200D03*
%TO.N,Net-(D10-Pad2)*%
X112699800Y-123901200D03*
X96621600Y-113233200D03*
X78105000Y-107848400D03*
X90297000Y-108178600D03*
X104546400Y-121361200D03*
X102412800Y-118872000D03*
X79451200Y-106629200D03*
X82169000Y-105918000D03*
%TO.N,Net-(D11-Pad2)*%
X108026200Y-127736600D03*
X119126000Y-126263400D03*
X114935000Y-127025400D03*
X113055400Y-128244600D03*
X116713000Y-119786400D03*
%TO.N,FOOTPEDAL_AUX*%
X102463600Y-136931400D03*
%TO.N,I2C0_SDA*%
X91998800Y-117627400D03*
X89966800Y-130556000D03*
X95529400Y-110286800D03*
%TO.N,I2C0_SCL*%
X89509587Y-130860809D03*
X92178000Y-109117000D03*
X91549300Y-117983000D03*
%TO.N,SPI0_CS*%
X86614000Y-118338600D03*
X87452200Y-107391200D03*
X86614000Y-120548400D03*
X86639400Y-129590800D03*
X87807800Y-131699000D03*
X96393000Y-99847400D03*
%TO.N,SPI0_CLK*%
X88417400Y-118364000D03*
X88392000Y-120573800D03*
X96596200Y-103911400D03*
X88468200Y-112522000D03*
X85750400Y-96012000D03*
%TO.N,SPI0_MISO*%
X94742000Y-104419400D03*
X87198200Y-120548400D03*
X87198200Y-118313200D03*
X82626200Y-96012000D03*
X88061800Y-107467400D03*
%TO.N,SPI0_MOSI*%
X87833200Y-112496600D03*
X79502000Y-96037400D03*
X87807800Y-120573800D03*
X93980000Y-105079800D03*
X87807800Y-118338600D03*
%TO.N,Lift Btn*%
X103403400Y-137160000D03*
X121640600Y-141325600D03*
%TO.N,Drop Btn*%
X120573800Y-141274800D03*
X103352600Y-136448800D03*
%TO.N,Low Btn*%
X117170200Y-141960600D03*
X103682800Y-135331200D03*
%TO.N,High Btn*%
X103479600Y-135864600D03*
X118618000Y-141427200D03*
%TO.N,Reverse Btn*%
X103225600Y-133985000D03*
X117602000Y-136880600D03*
%TO.N,Trigger Btn*%
X103860600Y-133908800D03*
X117195600Y-135585200D03*
%TO.N,UI LED Data*%
X109677200Y-132689600D03*
X107719936Y-131139019D03*
%TO.N,UART0_RX*%
X130733800Y-131851400D03*
X113614200Y-139979400D03*
%TO.N,UART0_TX*%
X129260600Y-134543800D03*
X113690400Y-140665200D03*
X132054600Y-131749800D03*
X128193800Y-133426200D03*
%TO.N,SWDIO*%
X121539000Y-129895600D03*
X91973400Y-131267200D03*
X120116600Y-131241800D03*
%TO.N,SWCLK*%
X92557600Y-130733800D03*
%TO.N,Net-(R18-Pad2)*%
X77520800Y-121589800D03*
X75488800Y-121767600D03*
%TO.N,NC_VALVE*%
X111734600Y-122986800D03*
X88798400Y-122783600D03*
X85293200Y-122732800D03*
X69951600Y-104470200D03*
X112014000Y-133223000D03*
X112014000Y-131572000D03*
X92024200Y-122809000D03*
X83261200Y-120726200D03*
%TO.N,NO_VALVE*%
X77393800Y-104546400D03*
X108102400Y-130556000D03*
X115493800Y-135255000D03*
X100330000Y-116179600D03*
X114757200Y-136017000D03*
X91795600Y-114604800D03*
X100621652Y-121229180D03*
X110109000Y-132105400D03*
%TO.N,3_WAY_VALVE*%
X111429800Y-131597400D03*
X84836000Y-104546400D03*
X111404400Y-133223000D03*
X93243400Y-113284000D03*
X94665800Y-115316000D03*
X108559600Y-120624600D03*
%TO.N,MOTOR_PWM*%
X117881400Y-132130800D03*
X110413800Y-133680200D03*
%TO.N,Net-(R26-Pad2)*%
X119126000Y-138252200D03*
X116078000Y-141325600D03*
%TO.N,Net-(TP5-Pad1)*%
X92837000Y-132003800D03*
%TO.N,DP*%
X99517200Y-153822400D03*
%TO.N,DN*%
X96418400Y-153822400D03*
%TD*%
D32*
%TO.N,GND*%
X72428100Y-119265700D02*
X72440800Y-119278400D01*
X72428100Y-117500400D02*
X72428100Y-119265700D01*
%TO.N,+3V3*%
X78994000Y-116992400D02*
X79756000Y-116230400D01*
X78994000Y-117500400D02*
X78994000Y-116992400D01*
D33*
%TO.N,+5V*%
X114604800Y-112852200D02*
X105968800Y-112852200D01*
X105968800Y-112852200D02*
X103479600Y-110363000D01*
X97510600Y-103733600D02*
X96901000Y-103124000D01*
D34*
X69062600Y-119278400D02*
X69062600Y-117576600D01*
D33*
X85623400Y-106959400D02*
X85623400Y-110286800D01*
X91363800Y-102920800D02*
X91287600Y-102844600D01*
X96697800Y-102920800D02*
X95148400Y-102920800D01*
X97155000Y-104851200D02*
X97510600Y-104495600D01*
X78206600Y-114173000D02*
X77800200Y-114579400D01*
X100330000Y-107899200D02*
X99618800Y-107188000D01*
X103479600Y-110363000D02*
X100990400Y-110363000D01*
X82956400Y-112064800D02*
X80314800Y-112064800D01*
X97510600Y-104495600D02*
X97510600Y-103733600D01*
X99618800Y-107188000D02*
X97155000Y-107188000D01*
X79324200Y-119735600D02*
X79349600Y-119735600D01*
X124510800Y-125577600D02*
X124510800Y-123317000D01*
D34*
X69062600Y-117576600D02*
X69138800Y-117500400D01*
D33*
X95148400Y-102920800D02*
X91363800Y-102920800D01*
X97155000Y-107188000D02*
X97155000Y-104851200D01*
X100990400Y-110363000D02*
X100330000Y-109702600D01*
X79349600Y-119735600D02*
X81864200Y-122250200D01*
X80314800Y-112064800D02*
X78206600Y-114173000D01*
X124510800Y-122758200D02*
X122351800Y-120599200D01*
X124510800Y-123317000D02*
X124510800Y-122758200D01*
X96901000Y-103124000D02*
X96697800Y-102920800D01*
X89763600Y-102819200D02*
X85623400Y-106959400D01*
X100330000Y-109702600D02*
X100330000Y-107899200D01*
X122351800Y-120599200D02*
X114604800Y-112852200D01*
X69494400Y-117576600D02*
X69545200Y-117525800D01*
D34*
%TO.N,+12V*%
X77800200Y-120040400D02*
X77139800Y-120040400D01*
X75717400Y-118795800D02*
X75717400Y-117500400D01*
X79121000Y-121361200D02*
X77800200Y-120040400D01*
D33*
X112242600Y-125526800D02*
X110693200Y-127076200D01*
D34*
X76200000Y-119100600D02*
X76022200Y-119100600D01*
X79527400Y-121361200D02*
X79121000Y-121361200D01*
X77139800Y-120040400D02*
X76200000Y-119100600D01*
D33*
X113004600Y-125526800D02*
X112242600Y-125526800D01*
D34*
X76022200Y-119100600D02*
X75717400Y-118795800D01*
D35*
%TO.N,+1V1*%
X96012000Y-141909800D02*
X95529400Y-141427200D01*
X95529400Y-140309600D02*
X94665800Y-139446000D01*
X95300800Y-132308600D02*
X95211900Y-132219700D01*
X94665800Y-139446000D02*
X94361000Y-139446000D01*
X95199200Y-134416800D02*
X95300800Y-134315200D01*
X95529400Y-141427200D02*
X95529400Y-140309600D01*
X95300800Y-134315200D02*
X95300800Y-132308600D01*
X95199200Y-135077200D02*
X95199200Y-134416800D01*
D33*
%TO.N,Net-(D2-Pad1)*%
X96672400Y-101981000D02*
X97764600Y-101981000D01*
X101219000Y-103809800D02*
X101219000Y-105460800D01*
D32*
X69469000Y-107670600D02*
X69469000Y-106527600D01*
D33*
X75234800Y-98298000D02*
X82524600Y-98298000D01*
X74422000Y-100990400D02*
X74422000Y-99110800D01*
D32*
X69138800Y-110337600D02*
X69138800Y-108000800D01*
D33*
X99390200Y-101981000D02*
X100812600Y-103403400D01*
X82524600Y-98298000D02*
X89103200Y-98298000D01*
D32*
X69138800Y-108000800D02*
X69392800Y-107746800D01*
D33*
X74422000Y-99110800D02*
X75234800Y-98298000D01*
X89103200Y-98298000D02*
X90170000Y-99364800D01*
X97764600Y-101981000D02*
X99390200Y-101981000D01*
D32*
X69392800Y-107746800D02*
X69469000Y-107670600D01*
D33*
X95021400Y-100330000D02*
X96672400Y-101981000D01*
X100812600Y-103403400D02*
X101219000Y-103809800D01*
D32*
%TO.N,FOOTPEDAL*%
X101828600Y-137033000D02*
X102184200Y-137388600D01*
X107238800Y-140462000D02*
X107950000Y-141173200D01*
X101650800Y-137033000D02*
X101828600Y-137033000D01*
X118567200Y-145745200D02*
X118567200Y-149910800D01*
X105257600Y-140462000D02*
X105994200Y-140462000D01*
X107950000Y-141173200D02*
X111429800Y-144653000D01*
X111429800Y-144653000D02*
X111429800Y-144780000D01*
X118567200Y-149910800D02*
X116814600Y-151663400D01*
X105994200Y-140462000D02*
X107238800Y-140462000D01*
X102184200Y-137388600D02*
X105257600Y-140462000D01*
X118491000Y-145669000D02*
X118567200Y-145745200D01*
%TO.N,Net-(D7-Pad2)*%
X93776800Y-118338600D02*
X93776800Y-120497600D01*
X93802200Y-120523000D02*
X93827600Y-120497600D01*
X93776800Y-120497600D02*
X93802200Y-120523000D01*
D33*
%TO.N,Net-(D7-Pad1)*%
X91744800Y-115646200D02*
X91897200Y-115493800D01*
X85623400Y-115646200D02*
X90093800Y-115646200D01*
D32*
X72428100Y-110337600D02*
X72428100Y-107861100D01*
D33*
X90093800Y-115646200D02*
X91744800Y-115646200D01*
D32*
X72428100Y-107861100D02*
X72491600Y-107797600D01*
X72428100Y-107861100D02*
X74320400Y-105968800D01*
X74320400Y-105968800D02*
X76225400Y-105968800D01*
D34*
%TO.N,Net-(D10-Pad2)*%
X112699800Y-123901200D02*
X112034000Y-124567000D01*
D33*
X91800138Y-109626400D02*
X91890239Y-109716501D01*
X102412800Y-118872000D02*
X104546400Y-121005600D01*
X91890239Y-109716501D02*
X92723901Y-109716501D01*
X90297000Y-108178600D02*
X91744800Y-109626400D01*
D34*
X112034000Y-124567000D02*
X106824000Y-124567000D01*
D33*
X104546400Y-121005600D02*
X104546400Y-121361200D01*
X91744800Y-109626400D02*
X91800138Y-109626400D01*
X92723901Y-109716501D02*
X96240600Y-113233200D01*
D32*
X79451200Y-106629200D02*
X80162400Y-105918000D01*
X78105000Y-107950000D02*
X78105000Y-107848400D01*
X80162400Y-105918000D02*
X82169000Y-105918000D01*
X75717400Y-110337600D02*
X78105000Y-107950000D01*
D33*
X96240600Y-113233200D02*
X96621600Y-113233200D01*
%TO.N,Net-(D11-Pad2)*%
X114935000Y-127025400D02*
X118364000Y-127025400D01*
D32*
X116535200Y-119964200D02*
X116713000Y-119786400D01*
X116535200Y-121691400D02*
X116535200Y-119964200D01*
D33*
X108026200Y-127736600D02*
X108534200Y-128244600D01*
X118364000Y-127025400D02*
X119126000Y-126263400D01*
X108534200Y-128244600D02*
X113055400Y-128244600D01*
D32*
%TO.N,FOOTPEDAL_AUX*%
X113614200Y-149378800D02*
X113614200Y-151688800D01*
X102463600Y-136931400D02*
X105613200Y-140081000D01*
D34*
X114528600Y-148464400D02*
X114552000Y-148441000D01*
D32*
X114552000Y-148441000D02*
X113614200Y-149378800D01*
X107391200Y-140081000D02*
X112090200Y-144780000D01*
X112090200Y-146735800D02*
X113795400Y-148441000D01*
X105613200Y-140081000D02*
X107391200Y-140081000D01*
X112090200Y-144780000D02*
X112090200Y-146735800D01*
X113795400Y-148441000D02*
X114552000Y-148441000D01*
D36*
%TO.N,Net-(J5-Pad1)*%
X83067600Y-142351200D02*
X80797400Y-140081000D01*
X89890600Y-118416900D02*
X91761789Y-116545711D01*
X107183200Y-114376200D02*
X108509000Y-115702000D01*
X84429600Y-121615200D02*
X89560400Y-121615200D01*
X89890600Y-121285000D02*
X89890600Y-118416900D01*
X79197200Y-126847600D02*
X84429600Y-121615200D01*
X91761789Y-116545711D02*
X92117390Y-116545710D01*
X79197200Y-129768600D02*
X79197200Y-126847600D01*
X89890600Y-121285000D02*
X89890600Y-119126000D01*
X80797400Y-140081000D02*
X80797400Y-131368800D01*
X89560400Y-121615200D02*
X89890600Y-121285000D01*
X83067600Y-143256000D02*
X83067600Y-142351200D01*
X92117390Y-116545710D02*
X94286900Y-114376200D01*
X94286900Y-114376200D02*
X107183200Y-114376200D01*
X80797400Y-131368800D02*
X79197200Y-129768600D01*
D32*
%TO.N,I2C0_SDA*%
X87858600Y-128574800D02*
X87858600Y-128066800D01*
X88747600Y-129336800D02*
X88595200Y-129184400D01*
X87858600Y-128066800D02*
X87858600Y-125933200D01*
X89966800Y-130556000D02*
X88747600Y-129336800D01*
X87858600Y-125933200D02*
X91922600Y-121869200D01*
X91922600Y-121869200D02*
X91998800Y-121793000D01*
X88595200Y-129184400D02*
X88468200Y-129184400D01*
X88468200Y-129184400D02*
X87858600Y-128574800D01*
X95377000Y-107365800D02*
X95377000Y-110134400D01*
X91998800Y-121793000D02*
X91998800Y-117627400D01*
X95377000Y-110134400D02*
X95529400Y-110286800D01*
%TO.N,I2C0_SCL*%
X87407489Y-125890027D02*
X91549300Y-121748216D01*
X92178000Y-109117000D02*
X92178000Y-107491400D01*
X87407489Y-128758711D02*
X87407489Y-125890027D01*
X91549300Y-121748216D02*
X91549300Y-117983000D01*
X92178000Y-107491400D02*
X92303600Y-107365800D01*
X89509587Y-130860809D02*
X87407489Y-128758711D01*
%TO.N,SPI0_CS*%
X90474800Y-101447600D02*
X90474800Y-100990400D01*
X92075000Y-99390200D02*
X91719400Y-99390200D01*
X86614000Y-120548400D02*
X86614000Y-118338600D01*
X90474800Y-100990400D02*
X92075000Y-99390200D01*
X86664800Y-130556000D02*
X86639400Y-130556000D01*
X91719400Y-99390200D02*
X88634734Y-96305534D01*
X92075000Y-99390200D02*
X95935800Y-99390200D01*
X95935800Y-99390200D02*
X96393000Y-99847400D01*
X86639400Y-130556000D02*
X86639400Y-129590800D01*
X87452200Y-107391200D02*
X90474800Y-104368600D01*
X88634734Y-96305534D02*
X88634734Y-96037400D01*
X87807800Y-131699000D02*
X86664800Y-130556000D01*
X90474800Y-104368600D02*
X90474800Y-101447600D01*
%TO.N,SPI0_CLK*%
X93827600Y-105689400D02*
X94818200Y-105689400D01*
X91541600Y-105689400D02*
X93827600Y-105689400D01*
X90855800Y-106375200D02*
X91541600Y-105689400D01*
X94818200Y-105689400D02*
X96596200Y-103911400D01*
X88722200Y-112141000D02*
X88722200Y-108508800D01*
X88722200Y-108508800D02*
X90855800Y-106375200D01*
X88392000Y-118389400D02*
X88417400Y-118364000D01*
X88468200Y-112522000D02*
X88722200Y-112268000D01*
X88392000Y-120573800D02*
X88392000Y-118389400D01*
X88722200Y-112268000D02*
X88722200Y-112141000D01*
X86690200Y-96432534D02*
X86269666Y-96012000D01*
%TO.N,SPI0_MISO*%
X88061800Y-107467400D02*
X91109800Y-104419400D01*
X91109800Y-104419400D02*
X94742000Y-104419400D01*
X87198200Y-120548400D02*
X87198200Y-118313200D01*
%TO.N,SPI0_MOSI*%
X88214200Y-108280200D02*
X88773000Y-107721400D01*
X88773000Y-107721400D02*
X91414600Y-105079800D01*
X88214200Y-109778800D02*
X88214200Y-108280200D01*
X87833200Y-112496600D02*
X88214200Y-112115600D01*
X88214200Y-112115600D02*
X88214200Y-109778800D01*
X87807800Y-120573800D02*
X87807800Y-118338600D01*
X91414600Y-105079800D02*
X93980000Y-105079800D01*
%TO.N,Lift Btn*%
X103403400Y-137160000D02*
X105943400Y-139700000D01*
X105943400Y-139700000D02*
X107543600Y-139700000D01*
X111125000Y-143281400D02*
X119659400Y-143281400D01*
X107543600Y-139700000D02*
X111125000Y-143281400D01*
X121615200Y-141325600D02*
X121640600Y-141325600D01*
X119659400Y-143281400D02*
X121615200Y-141325600D01*
%TO.N,Drop Btn*%
X119100600Y-142849600D02*
X120269000Y-141681200D01*
X120269000Y-141681200D02*
X120573800Y-141376400D01*
X120573800Y-141376400D02*
X120573800Y-141274800D01*
X106222800Y-139319000D02*
X107848400Y-139319000D01*
X103352600Y-136448800D02*
X106222800Y-139319000D01*
X107848400Y-139319000D02*
X111379000Y-142849600D01*
X111379000Y-142849600D02*
X119100600Y-142849600D01*
%TO.N,Low Btn*%
X110718600Y-140919200D02*
X111760000Y-141960600D01*
X106934000Y-138582400D02*
X108051600Y-138582400D01*
X103682800Y-135331200D02*
X106095800Y-137744200D01*
X108381800Y-138582400D02*
X110718600Y-140919200D01*
X111760000Y-141960600D02*
X117170200Y-141960600D01*
X106095800Y-137744200D02*
X106934000Y-138582400D01*
X108051600Y-138582400D02*
X108381800Y-138582400D01*
%TO.N,High Btn*%
X103479600Y-135864600D02*
X106553000Y-138938000D01*
X106553000Y-138938000D02*
X108178600Y-138938000D01*
X108178600Y-138938000D02*
X111658400Y-142417800D01*
X111658400Y-142417800D02*
X112344200Y-142417800D01*
X112344200Y-142417800D02*
X118160800Y-142417800D01*
X118160800Y-142417800D02*
X118618000Y-141960600D01*
X118618000Y-141960600D02*
X118618000Y-141427200D01*
%TO.N,Reverse Btn*%
X115734961Y-134805499D02*
X117602000Y-136672538D01*
X103225600Y-133985000D02*
X104046099Y-134805499D01*
X104046099Y-134805499D02*
X115734961Y-134805499D01*
X117602000Y-136672538D02*
X117602000Y-136880600D01*
%TO.N,Trigger Btn*%
X105968800Y-134442200D02*
X116052600Y-134442200D01*
X116052600Y-134442200D02*
X117195600Y-135585200D01*
X103860600Y-133908800D02*
X104394000Y-134442200D01*
X104394000Y-134442200D02*
X105968800Y-134442200D01*
%TO.N,UI LED Data*%
X109270517Y-132689600D02*
X107719936Y-131139019D01*
X109677200Y-132689600D02*
X109270517Y-132689600D01*
%TO.N,UART0_RX*%
X125190511Y-137394689D02*
X130733800Y-131851400D01*
X116466628Y-137394689D02*
X122980711Y-137394689D01*
X123729489Y-137394689D02*
X125190511Y-137394689D01*
X113881916Y-139979400D02*
X116466628Y-137394689D01*
X122980711Y-137394689D02*
X123729489Y-137394689D01*
X123063000Y-133299200D02*
X123063000Y-137312400D01*
X123063000Y-137312400D02*
X122980711Y-137394689D01*
X113614200Y-139979400D02*
X113881916Y-139979400D01*
%TO.N,UART0_TX*%
X113690400Y-140665200D02*
X116611400Y-137744200D01*
X128066800Y-133299200D02*
X128193800Y-133426200D01*
X116611400Y-137744200D02*
X122021600Y-137744200D01*
X129260600Y-134543800D02*
X132054600Y-131749800D01*
X126060200Y-137744200D02*
X129260600Y-134543800D01*
X122021600Y-137744200D02*
X126060200Y-137744200D01*
X126212600Y-133299200D02*
X128066800Y-133299200D01*
%TO.N,SWDIO*%
X123266200Y-128219200D02*
X121589800Y-129895600D01*
X120116600Y-131241800D02*
X120116600Y-130911600D01*
X120161311Y-130866889D02*
X120923311Y-130866889D01*
X93421200Y-131800600D02*
X102031800Y-131800600D01*
X108704373Y-130206489D02*
X109364773Y-130866889D01*
X132816600Y-126651000D02*
X130971800Y-124806200D01*
X91973400Y-131267200D02*
X92887800Y-131267200D01*
X132175511Y-130866889D02*
X132816600Y-130225800D01*
X121589800Y-129895600D02*
X121539000Y-129895600D01*
X92887800Y-131267200D02*
X93421200Y-131800600D01*
X120116600Y-130911600D02*
X120161311Y-130866889D01*
X109364773Y-130866889D02*
X120161311Y-130866889D01*
X106984800Y-128676400D02*
X108514889Y-130206489D01*
X120923311Y-130866889D02*
X132175511Y-130866889D01*
X108514889Y-130206489D02*
X108704373Y-130206489D01*
X105156000Y-128676400D02*
X106984800Y-128676400D01*
X132816600Y-130225800D02*
X132816600Y-126651000D01*
X102031800Y-131800600D02*
X105156000Y-128676400D01*
%TO.N,SWCLK*%
X107312968Y-128320800D02*
X109497368Y-130505200D01*
X104952800Y-128320800D02*
X107312968Y-128320800D01*
X120091200Y-130505200D02*
X120853200Y-130505200D01*
X120167400Y-128219200D02*
X120167400Y-130429000D01*
X93167200Y-130733800D02*
X93878400Y-131445000D01*
X101828600Y-131445000D02*
X104952800Y-128320800D01*
X123272800Y-130505200D02*
X128971800Y-124806200D01*
X92557600Y-130733800D02*
X93167200Y-130733800D01*
X120167400Y-130429000D02*
X120091200Y-130505200D01*
X109497368Y-130505200D02*
X120091200Y-130505200D01*
X120853200Y-130505200D02*
X123272800Y-130505200D01*
X93878400Y-131445000D02*
X101828600Y-131445000D01*
%TO.N,Net-(R18-Pad2)*%
X77520800Y-121589800D02*
X75641200Y-121589800D01*
X75641200Y-121589800D02*
X75488800Y-121742200D01*
X75488800Y-121742200D02*
X75488800Y-121767600D01*
%TO.N,NC_VALVE*%
X70815200Y-109016800D02*
X70815200Y-111252000D01*
X104753304Y-121860711D02*
X104275489Y-121860711D01*
X80873600Y-117500400D02*
X80492600Y-117881400D01*
X85344000Y-122783600D02*
X85293200Y-122732800D01*
X105807910Y-120806105D02*
X104753304Y-121860711D01*
X112014000Y-133223000D02*
X112014000Y-131572000D01*
X69951600Y-104470200D02*
X69951600Y-108153200D01*
X104275489Y-121860711D02*
X103327200Y-122809000D01*
X111734600Y-122986800D02*
X111556800Y-122809000D01*
X107928305Y-120806105D02*
X105807910Y-120806105D01*
X109931200Y-122809000D02*
X107928305Y-120806105D01*
X82524600Y-120726200D02*
X83261200Y-120726200D01*
X103327200Y-122809000D02*
X92024200Y-122809000D01*
X75133200Y-115570000D02*
X79984600Y-115570000D01*
X70815200Y-111252000D02*
X75133200Y-115570000D01*
X69951600Y-108153200D02*
X70815200Y-109016800D01*
X80492600Y-117881400D02*
X80492600Y-118694200D01*
X88798400Y-122783600D02*
X85344000Y-122783600D01*
X80873600Y-116459000D02*
X80873600Y-117500400D01*
X111556800Y-122809000D02*
X109931200Y-122809000D01*
X80492600Y-118694200D02*
X82524600Y-120726200D01*
X79984600Y-115570000D02*
X80873600Y-116459000D01*
%TO.N,NO_VALVE*%
X100621652Y-121229180D02*
X100621652Y-116471252D01*
X108559600Y-130556000D02*
X108102400Y-130556000D01*
X86311233Y-114604800D02*
X84619578Y-112913145D01*
X114757200Y-135991600D02*
X115493800Y-135255000D01*
X114757200Y-136017000D02*
X114757200Y-135991600D01*
X84619578Y-112809431D02*
X77393800Y-105583653D01*
X100621652Y-116471252D02*
X100330000Y-116179600D01*
X110109000Y-132105400D02*
X108559600Y-130556000D01*
X91795600Y-114604800D02*
X86311233Y-114604800D01*
X84619578Y-112913145D02*
X84619578Y-112809431D01*
X77393800Y-105583653D02*
X77393800Y-104546400D01*
%TO.N,3_WAY_VALVE*%
X84969089Y-104679489D02*
X84836000Y-104546400D01*
X105435400Y-117475000D02*
X104825800Y-116865400D01*
X102616000Y-115595400D02*
X102336600Y-115316000D01*
X102336600Y-115316000D02*
X94665800Y-115316000D01*
X108559600Y-120624600D02*
X105435400Y-117500400D01*
X111404400Y-131622800D02*
X111429800Y-131597400D01*
X104825800Y-116865400D02*
X103987600Y-116865400D01*
X111404400Y-133223000D02*
X111404400Y-131622800D01*
X103886000Y-116865400D02*
X102616000Y-115595400D01*
X85484716Y-113284000D02*
X84969089Y-112768373D01*
X105435400Y-117500400D02*
X105435400Y-117475000D01*
X93243400Y-113284000D02*
X85484716Y-113284000D01*
X84969089Y-112768373D02*
X84969089Y-104679489D01*
X103987600Y-116865400D02*
X103886000Y-116865400D01*
%TO.N,MOTOR_PWM*%
X116332000Y-133680200D02*
X117881400Y-132130800D01*
X110413800Y-133680200D02*
X116332000Y-133680200D01*
%TO.N,Net-(R26-Pad2)*%
X116078000Y-141325600D02*
X119126000Y-138277600D01*
X119126000Y-138277600D02*
X119126000Y-138252200D01*
%TO.N,Net-(TP5-Pad1)*%
X92837000Y-132054600D02*
X88950800Y-135940800D01*
X92837000Y-132003800D02*
X92837000Y-132054600D01*
%TD*%
%TA.AperFunction,Conductor*%
%TO.N,Net-(C5-Pad2)*%
G36*
X73525921Y-123895802D02*
G01*
X73572414Y-123949458D01*
X73583800Y-124001800D01*
X73583800Y-124434600D01*
X75718400Y-124434600D01*
X75786521Y-124454602D01*
X75833014Y-124508258D01*
X75844400Y-124560600D01*
X75844400Y-132359400D01*
X78969600Y-132359400D01*
X79037721Y-132379402D01*
X79084214Y-132433058D01*
X79095600Y-132485400D01*
X79095600Y-138253200D01*
X79075598Y-138321321D01*
X79021942Y-138367814D01*
X78969600Y-138379200D01*
X75056522Y-138379200D01*
X74988401Y-138359198D01*
X74941908Y-138305542D01*
X74930523Y-138252679D01*
X74980725Y-126103716D01*
X74980800Y-126085600D01*
X74966861Y-126085715D01*
X74966860Y-126085715D01*
X72034441Y-126109950D01*
X71966158Y-126090511D01*
X71919223Y-126037242D01*
X71907400Y-125983954D01*
X71907400Y-124001800D01*
X71927402Y-123933679D01*
X71981058Y-123887186D01*
X72033400Y-123875800D01*
X73457800Y-123875800D01*
X73525921Y-123895802D01*
G37*
%TD.AperFunction*%
%TD*%
M02*
