%TF.GenerationSoftware,KiCad,Pcbnew,(5.99.0-9379-gbf5cd2e233)*%
%TF.CreationDate,2021-03-10T08:56:36+01:00*%
%TF.ProjectId,sucker-one-mainboard,7375636b-6572-42d6-9f6e-652d6d61696e,rev?*%
%TF.SameCoordinates,Original*%
%TF.FileFunction,Legend,Top*%
%TF.FilePolarity,Positive*%
%FSLAX46Y46*%
G04 Gerber Fmt 4.6, Leading zero omitted, Abs format (unit mm)*
G04 Created by KiCad (PCBNEW (5.99.0-9379-gbf5cd2e233)) date 2021-03-10 08:56:36*
%MOMM*%
%LPD*%
G01*
G04 APERTURE LIST*
%ADD10C,0.150000*%
%ADD11C,0.015000*%
%ADD12C,0.249999*%
%ADD13C,0.120000*%
%ADD14C,0.127000*%
%ADD15C,0.200000*%
G04 APERTURE END LIST*
D10*
%TO.C,J9*%
X123807023Y-141565380D02*
X123807023Y-142279666D01*
X123759404Y-142422523D01*
X123664166Y-142517761D01*
X123521309Y-142565380D01*
X123426071Y-142565380D01*
X124330833Y-142565380D02*
X124521309Y-142565380D01*
X124616547Y-142517761D01*
X124664166Y-142470142D01*
X124759404Y-142327285D01*
X124807023Y-142136809D01*
X124807023Y-141755857D01*
X124759404Y-141660619D01*
X124711785Y-141613000D01*
X124616547Y-141565380D01*
X124426071Y-141565380D01*
X124330833Y-141613000D01*
X124283214Y-141660619D01*
X124235595Y-141755857D01*
X124235595Y-141993952D01*
X124283214Y-142089190D01*
X124330833Y-142136809D01*
X124426071Y-142184428D01*
X124616547Y-142184428D01*
X124711785Y-142136809D01*
X124759404Y-142089190D01*
X124807023Y-141993952D01*
%TO.C,R26*%
X123515380Y-127515857D02*
X123039190Y-127849190D01*
X123515380Y-128087285D02*
X122515380Y-128087285D01*
X122515380Y-127706333D01*
X122563000Y-127611095D01*
X122610619Y-127563476D01*
X122705857Y-127515857D01*
X122848714Y-127515857D01*
X122943952Y-127563476D01*
X122991571Y-127611095D01*
X123039190Y-127706333D01*
X123039190Y-128087285D01*
X122610619Y-127134904D02*
X122563000Y-127087285D01*
X122515380Y-126992047D01*
X122515380Y-126753952D01*
X122563000Y-126658714D01*
X122610619Y-126611095D01*
X122705857Y-126563476D01*
X122801095Y-126563476D01*
X122943952Y-126611095D01*
X123515380Y-127182523D01*
X123515380Y-126563476D01*
X122515380Y-125706333D02*
X122515380Y-125896809D01*
X122563000Y-125992047D01*
X122610619Y-126039666D01*
X122753476Y-126134904D01*
X122943952Y-126182523D01*
X123324904Y-126182523D01*
X123420142Y-126134904D01*
X123467761Y-126087285D01*
X123515380Y-125992047D01*
X123515380Y-125801571D01*
X123467761Y-125706333D01*
X123420142Y-125658714D01*
X123324904Y-125611095D01*
X123086809Y-125611095D01*
X122991571Y-125658714D01*
X122943952Y-125706333D01*
X122896333Y-125801571D01*
X122896333Y-125992047D01*
X122943952Y-126087285D01*
X122991571Y-126134904D01*
X123086809Y-126182523D01*
%TO.C,C14*%
X113784142Y-125960142D02*
X113736523Y-126007761D01*
X113593666Y-126055380D01*
X113498428Y-126055380D01*
X113355571Y-126007761D01*
X113260333Y-125912523D01*
X113212714Y-125817285D01*
X113165095Y-125626809D01*
X113165095Y-125483952D01*
X113212714Y-125293476D01*
X113260333Y-125198238D01*
X113355571Y-125103000D01*
X113498428Y-125055380D01*
X113593666Y-125055380D01*
X113736523Y-125103000D01*
X113784142Y-125150619D01*
X114736523Y-126055380D02*
X114165095Y-126055380D01*
X114450809Y-126055380D02*
X114450809Y-125055380D01*
X114355571Y-125198238D01*
X114260333Y-125293476D01*
X114165095Y-125341095D01*
X115593666Y-125388714D02*
X115593666Y-126055380D01*
X115355571Y-125007761D02*
X115117476Y-125722047D01*
X115736523Y-125722047D01*
%TO.C,Q2*%
X75977761Y-118149619D02*
X75882523Y-118102000D01*
X75787285Y-118006761D01*
X75644428Y-117863904D01*
X75549190Y-117816285D01*
X75453952Y-117816285D01*
X75501571Y-118054380D02*
X75406333Y-118006761D01*
X75311095Y-117911523D01*
X75263476Y-117721047D01*
X75263476Y-117387714D01*
X75311095Y-117197238D01*
X75406333Y-117102000D01*
X75501571Y-117054380D01*
X75692047Y-117054380D01*
X75787285Y-117102000D01*
X75882523Y-117197238D01*
X75930142Y-117387714D01*
X75930142Y-117721047D01*
X75882523Y-117911523D01*
X75787285Y-118006761D01*
X75692047Y-118054380D01*
X75501571Y-118054380D01*
X76311095Y-117149619D02*
X76358714Y-117102000D01*
X76453952Y-117054380D01*
X76692047Y-117054380D01*
X76787285Y-117102000D01*
X76834904Y-117149619D01*
X76882523Y-117244857D01*
X76882523Y-117340095D01*
X76834904Y-117482952D01*
X76263476Y-118054380D01*
X76882523Y-118054380D01*
%TO.C,J11*%
X130000476Y-131786380D02*
X130000476Y-132500666D01*
X129952857Y-132643523D01*
X129857619Y-132738761D01*
X129714761Y-132786380D01*
X129619523Y-132786380D01*
X131000476Y-132786380D02*
X130429047Y-132786380D01*
X130714761Y-132786380D02*
X130714761Y-131786380D01*
X130619523Y-131929238D01*
X130524285Y-132024476D01*
X130429047Y-132072095D01*
X131952857Y-132786380D02*
X131381428Y-132786380D01*
X131667142Y-132786380D02*
X131667142Y-131786380D01*
X131571904Y-131929238D01*
X131476666Y-132024476D01*
X131381428Y-132072095D01*
%TO.C,C19*%
X119499142Y-130024142D02*
X119451523Y-130071761D01*
X119308666Y-130119380D01*
X119213428Y-130119380D01*
X119070571Y-130071761D01*
X118975333Y-129976523D01*
X118927714Y-129881285D01*
X118880095Y-129690809D01*
X118880095Y-129547952D01*
X118927714Y-129357476D01*
X118975333Y-129262238D01*
X119070571Y-129167000D01*
X119213428Y-129119380D01*
X119308666Y-129119380D01*
X119451523Y-129167000D01*
X119499142Y-129214619D01*
X120451523Y-130119380D02*
X119880095Y-130119380D01*
X120165809Y-130119380D02*
X120165809Y-129119380D01*
X120070571Y-129262238D01*
X119975333Y-129357476D01*
X119880095Y-129405095D01*
X120927714Y-130119380D02*
X121118190Y-130119380D01*
X121213428Y-130071761D01*
X121261047Y-130024142D01*
X121356285Y-129881285D01*
X121403904Y-129690809D01*
X121403904Y-129309857D01*
X121356285Y-129214619D01*
X121308666Y-129167000D01*
X121213428Y-129119380D01*
X121022952Y-129119380D01*
X120927714Y-129167000D01*
X120880095Y-129214619D01*
X120832476Y-129309857D01*
X120832476Y-129547952D01*
X120880095Y-129643190D01*
X120927714Y-129690809D01*
X121022952Y-129738428D01*
X121213428Y-129738428D01*
X121308666Y-129690809D01*
X121356285Y-129643190D01*
X121403904Y-129547952D01*
%TO.C,Y1*%
X119106190Y-116266190D02*
X119582380Y-116266190D01*
X118582380Y-116599523D02*
X119106190Y-116266190D01*
X118582380Y-115932857D01*
X119582380Y-115075714D02*
X119582380Y-115647142D01*
X119582380Y-115361428D02*
X118582380Y-115361428D01*
X118725238Y-115456666D01*
X118820476Y-115551904D01*
X118868095Y-115647142D01*
%TO.C,SW2*%
X130238666Y-117928761D02*
X130381523Y-117976380D01*
X130619619Y-117976380D01*
X130714857Y-117928761D01*
X130762476Y-117881142D01*
X130810095Y-117785904D01*
X130810095Y-117690666D01*
X130762476Y-117595428D01*
X130714857Y-117547809D01*
X130619619Y-117500190D01*
X130429142Y-117452571D01*
X130333904Y-117404952D01*
X130286285Y-117357333D01*
X130238666Y-117262095D01*
X130238666Y-117166857D01*
X130286285Y-117071619D01*
X130333904Y-117024000D01*
X130429142Y-116976380D01*
X130667238Y-116976380D01*
X130810095Y-117024000D01*
X131143428Y-116976380D02*
X131381523Y-117976380D01*
X131572000Y-117262095D01*
X131762476Y-117976380D01*
X132000571Y-116976380D01*
X132333904Y-117071619D02*
X132381523Y-117024000D01*
X132476761Y-116976380D01*
X132714857Y-116976380D01*
X132810095Y-117024000D01*
X132857714Y-117071619D01*
X132905333Y-117166857D01*
X132905333Y-117262095D01*
X132857714Y-117404952D01*
X132286285Y-117976380D01*
X132905333Y-117976380D01*
%TO.C,R23*%
X82781380Y-104528857D02*
X82305190Y-104862190D01*
X82781380Y-105100285D02*
X81781380Y-105100285D01*
X81781380Y-104719333D01*
X81829000Y-104624095D01*
X81876619Y-104576476D01*
X81971857Y-104528857D01*
X82114714Y-104528857D01*
X82209952Y-104576476D01*
X82257571Y-104624095D01*
X82305190Y-104719333D01*
X82305190Y-105100285D01*
X81876619Y-104147904D02*
X81829000Y-104100285D01*
X81781380Y-104005047D01*
X81781380Y-103766952D01*
X81829000Y-103671714D01*
X81876619Y-103624095D01*
X81971857Y-103576476D01*
X82067095Y-103576476D01*
X82209952Y-103624095D01*
X82781380Y-104195523D01*
X82781380Y-103576476D01*
X81781380Y-103243142D02*
X81781380Y-102624095D01*
X82162333Y-102957428D01*
X82162333Y-102814571D01*
X82209952Y-102719333D01*
X82257571Y-102671714D01*
X82352809Y-102624095D01*
X82590904Y-102624095D01*
X82686142Y-102671714D01*
X82733761Y-102719333D01*
X82781380Y-102814571D01*
X82781380Y-103100285D01*
X82733761Y-103195523D01*
X82686142Y-103243142D01*
%TO.C,C6*%
X116415100Y-108711642D02*
X116367481Y-108759261D01*
X116224624Y-108806880D01*
X116129386Y-108806880D01*
X115986528Y-108759261D01*
X115891290Y-108664023D01*
X115843671Y-108568785D01*
X115796052Y-108378309D01*
X115796052Y-108235452D01*
X115843671Y-108044976D01*
X115891290Y-107949738D01*
X115986528Y-107854500D01*
X116129386Y-107806880D01*
X116224624Y-107806880D01*
X116367481Y-107854500D01*
X116415100Y-107902119D01*
X117272243Y-107806880D02*
X117081767Y-107806880D01*
X116986528Y-107854500D01*
X116938909Y-107902119D01*
X116843671Y-108044976D01*
X116796052Y-108235452D01*
X116796052Y-108616404D01*
X116843671Y-108711642D01*
X116891290Y-108759261D01*
X116986528Y-108806880D01*
X117177005Y-108806880D01*
X117272243Y-108759261D01*
X117319862Y-108711642D01*
X117367481Y-108616404D01*
X117367481Y-108378309D01*
X117319862Y-108283071D01*
X117272243Y-108235452D01*
X117177005Y-108187833D01*
X116986528Y-108187833D01*
X116891290Y-108235452D01*
X116843671Y-108283071D01*
X116796052Y-108378309D01*
%TO.C,J1*%
X92249666Y-114768380D02*
X92249666Y-115482666D01*
X92202047Y-115625523D01*
X92106809Y-115720761D01*
X91963952Y-115768380D01*
X91868714Y-115768380D01*
X93249666Y-115768380D02*
X92678238Y-115768380D01*
X92963952Y-115768380D02*
X92963952Y-114768380D01*
X92868714Y-114911238D01*
X92773476Y-115006476D01*
X92678238Y-115054095D01*
%TO.C,Q3*%
X83470761Y-118022619D02*
X83375523Y-117975000D01*
X83280285Y-117879761D01*
X83137428Y-117736904D01*
X83042190Y-117689285D01*
X82946952Y-117689285D01*
X82994571Y-117927380D02*
X82899333Y-117879761D01*
X82804095Y-117784523D01*
X82756476Y-117594047D01*
X82756476Y-117260714D01*
X82804095Y-117070238D01*
X82899333Y-116975000D01*
X82994571Y-116927380D01*
X83185047Y-116927380D01*
X83280285Y-116975000D01*
X83375523Y-117070238D01*
X83423142Y-117260714D01*
X83423142Y-117594047D01*
X83375523Y-117784523D01*
X83280285Y-117879761D01*
X83185047Y-117927380D01*
X82994571Y-117927380D01*
X83756476Y-116927380D02*
X84375523Y-116927380D01*
X84042190Y-117308333D01*
X84185047Y-117308333D01*
X84280285Y-117355952D01*
X84327904Y-117403571D01*
X84375523Y-117498809D01*
X84375523Y-117736904D01*
X84327904Y-117832142D01*
X84280285Y-117879761D01*
X84185047Y-117927380D01*
X83899333Y-117927380D01*
X83804095Y-117879761D01*
X83756476Y-117832142D01*
%TO.C,D2*%
X105989380Y-107037095D02*
X104989380Y-107037095D01*
X104989380Y-106799000D01*
X105037000Y-106656142D01*
X105132238Y-106560904D01*
X105227476Y-106513285D01*
X105417952Y-106465666D01*
X105560809Y-106465666D01*
X105751285Y-106513285D01*
X105846523Y-106560904D01*
X105941761Y-106656142D01*
X105989380Y-106799000D01*
X105989380Y-107037095D01*
X105084619Y-106084714D02*
X105037000Y-106037095D01*
X104989380Y-105941857D01*
X104989380Y-105703761D01*
X105037000Y-105608523D01*
X105084619Y-105560904D01*
X105179857Y-105513285D01*
X105275095Y-105513285D01*
X105417952Y-105560904D01*
X105989380Y-106132333D01*
X105989380Y-105513285D01*
%TO.C,R14*%
X128468380Y-141612857D02*
X127992190Y-141946190D01*
X128468380Y-142184285D02*
X127468380Y-142184285D01*
X127468380Y-141803333D01*
X127516000Y-141708095D01*
X127563619Y-141660476D01*
X127658857Y-141612857D01*
X127801714Y-141612857D01*
X127896952Y-141660476D01*
X127944571Y-141708095D01*
X127992190Y-141803333D01*
X127992190Y-142184285D01*
X128468380Y-140660476D02*
X128468380Y-141231904D01*
X128468380Y-140946190D02*
X127468380Y-140946190D01*
X127611238Y-141041428D01*
X127706476Y-141136666D01*
X127754095Y-141231904D01*
X127801714Y-139803333D02*
X128468380Y-139803333D01*
X127420761Y-140041428D02*
X128135047Y-140279523D01*
X128135047Y-139660476D01*
%TO.C,R11*%
X83050142Y-114498380D02*
X82716809Y-114022190D01*
X82478714Y-114498380D02*
X82478714Y-113498380D01*
X82859666Y-113498380D01*
X82954904Y-113546000D01*
X83002523Y-113593619D01*
X83050142Y-113688857D01*
X83050142Y-113831714D01*
X83002523Y-113926952D01*
X82954904Y-113974571D01*
X82859666Y-114022190D01*
X82478714Y-114022190D01*
X84002523Y-114498380D02*
X83431095Y-114498380D01*
X83716809Y-114498380D02*
X83716809Y-113498380D01*
X83621571Y-113641238D01*
X83526333Y-113736476D01*
X83431095Y-113784095D01*
X84954904Y-114498380D02*
X84383476Y-114498380D01*
X84669190Y-114498380D02*
X84669190Y-113498380D01*
X84573952Y-113641238D01*
X84478714Y-113736476D01*
X84383476Y-113784095D01*
%TO.C,J3*%
X114855666Y-141946380D02*
X114855666Y-142660666D01*
X114808047Y-142803523D01*
X114712809Y-142898761D01*
X114569952Y-142946380D01*
X114474714Y-142946380D01*
X115236619Y-141946380D02*
X115855666Y-141946380D01*
X115522333Y-142327333D01*
X115665190Y-142327333D01*
X115760428Y-142374952D01*
X115808047Y-142422571D01*
X115855666Y-142517809D01*
X115855666Y-142755904D01*
X115808047Y-142851142D01*
X115760428Y-142898761D01*
X115665190Y-142946380D01*
X115379476Y-142946380D01*
X115284238Y-142898761D01*
X115236619Y-142851142D01*
%TO.C,Q5*%
X89485261Y-149264619D02*
X89390023Y-149217000D01*
X89294785Y-149121761D01*
X89151928Y-148978904D01*
X89056690Y-148931285D01*
X88961452Y-148931285D01*
X89009071Y-149169380D02*
X88913833Y-149121761D01*
X88818595Y-149026523D01*
X88770976Y-148836047D01*
X88770976Y-148502714D01*
X88818595Y-148312238D01*
X88913833Y-148217000D01*
X89009071Y-148169380D01*
X89199547Y-148169380D01*
X89294785Y-148217000D01*
X89390023Y-148312238D01*
X89437642Y-148502714D01*
X89437642Y-148836047D01*
X89390023Y-149026523D01*
X89294785Y-149121761D01*
X89199547Y-149169380D01*
X89009071Y-149169380D01*
X90342404Y-148169380D02*
X89866214Y-148169380D01*
X89818595Y-148645571D01*
X89866214Y-148597952D01*
X89961452Y-148550333D01*
X90199547Y-148550333D01*
X90294785Y-148597952D01*
X90342404Y-148645571D01*
X90390023Y-148740809D01*
X90390023Y-148978904D01*
X90342404Y-149074142D01*
X90294785Y-149121761D01*
X90199547Y-149169380D01*
X89961452Y-149169380D01*
X89866214Y-149121761D01*
X89818595Y-149074142D01*
%TO.C,C2*%
X124801333Y-106021142D02*
X124753714Y-106068761D01*
X124610857Y-106116380D01*
X124515619Y-106116380D01*
X124372761Y-106068761D01*
X124277523Y-105973523D01*
X124229904Y-105878285D01*
X124182285Y-105687809D01*
X124182285Y-105544952D01*
X124229904Y-105354476D01*
X124277523Y-105259238D01*
X124372761Y-105164000D01*
X124515619Y-105116380D01*
X124610857Y-105116380D01*
X124753714Y-105164000D01*
X124801333Y-105211619D01*
X125182285Y-105211619D02*
X125229904Y-105164000D01*
X125325142Y-105116380D01*
X125563238Y-105116380D01*
X125658476Y-105164000D01*
X125706095Y-105211619D01*
X125753714Y-105306857D01*
X125753714Y-105402095D01*
X125706095Y-105544952D01*
X125134666Y-106116380D01*
X125753714Y-106116380D01*
%TO.C,J8*%
X89963666Y-101052380D02*
X89963666Y-101766666D01*
X89916047Y-101909523D01*
X89820809Y-102004761D01*
X89677952Y-102052380D01*
X89582714Y-102052380D01*
X90582714Y-101480952D02*
X90487476Y-101433333D01*
X90439857Y-101385714D01*
X90392238Y-101290476D01*
X90392238Y-101242857D01*
X90439857Y-101147619D01*
X90487476Y-101100000D01*
X90582714Y-101052380D01*
X90773190Y-101052380D01*
X90868428Y-101100000D01*
X90916047Y-101147619D01*
X90963666Y-101242857D01*
X90963666Y-101290476D01*
X90916047Y-101385714D01*
X90868428Y-101433333D01*
X90773190Y-101480952D01*
X90582714Y-101480952D01*
X90487476Y-101528571D01*
X90439857Y-101576190D01*
X90392238Y-101671428D01*
X90392238Y-101861904D01*
X90439857Y-101957142D01*
X90487476Y-102004761D01*
X90582714Y-102052380D01*
X90773190Y-102052380D01*
X90868428Y-102004761D01*
X90916047Y-101957142D01*
X90963666Y-101861904D01*
X90963666Y-101671428D01*
X90916047Y-101576190D01*
X90868428Y-101528571D01*
X90773190Y-101480952D01*
D11*
%TO.C,D4*%
X122209619Y-146466523D02*
X122209619Y-145826523D01*
X122362000Y-145826523D01*
X122453428Y-145857000D01*
X122514380Y-145917952D01*
X122544857Y-145978904D01*
X122575333Y-146100809D01*
X122575333Y-146192238D01*
X122544857Y-146314142D01*
X122514380Y-146375095D01*
X122453428Y-146436047D01*
X122362000Y-146466523D01*
X122209619Y-146466523D01*
X123123904Y-146039857D02*
X123123904Y-146466523D01*
X122971523Y-145796047D02*
X122819142Y-146253190D01*
X123215333Y-146253190D01*
D10*
%TO.C,R28*%
X128468380Y-131452857D02*
X127992190Y-131786190D01*
X128468380Y-132024285D02*
X127468380Y-132024285D01*
X127468380Y-131643333D01*
X127516000Y-131548095D01*
X127563619Y-131500476D01*
X127658857Y-131452857D01*
X127801714Y-131452857D01*
X127896952Y-131500476D01*
X127944571Y-131548095D01*
X127992190Y-131643333D01*
X127992190Y-132024285D01*
X127563619Y-131071904D02*
X127516000Y-131024285D01*
X127468380Y-130929047D01*
X127468380Y-130690952D01*
X127516000Y-130595714D01*
X127563619Y-130548095D01*
X127658857Y-130500476D01*
X127754095Y-130500476D01*
X127896952Y-130548095D01*
X128468380Y-131119523D01*
X128468380Y-130500476D01*
X127896952Y-129929047D02*
X127849333Y-130024285D01*
X127801714Y-130071904D01*
X127706476Y-130119523D01*
X127658857Y-130119523D01*
X127563619Y-130071904D01*
X127516000Y-130024285D01*
X127468380Y-129929047D01*
X127468380Y-129738571D01*
X127516000Y-129643333D01*
X127563619Y-129595714D01*
X127658857Y-129548095D01*
X127706476Y-129548095D01*
X127801714Y-129595714D01*
X127849333Y-129643333D01*
X127896952Y-129738571D01*
X127896952Y-129929047D01*
X127944571Y-130024285D01*
X127992190Y-130071904D01*
X128087428Y-130119523D01*
X128277904Y-130119523D01*
X128373142Y-130071904D01*
X128420761Y-130024285D01*
X128468380Y-129929047D01*
X128468380Y-129738571D01*
X128420761Y-129643333D01*
X128373142Y-129595714D01*
X128277904Y-129548095D01*
X128087428Y-129548095D01*
X127992190Y-129595714D01*
X127944571Y-129643333D01*
X127896952Y-129738571D01*
%TO.C,R9*%
X75906333Y-114498380D02*
X75573000Y-114022190D01*
X75334904Y-114498380D02*
X75334904Y-113498380D01*
X75715857Y-113498380D01*
X75811095Y-113546000D01*
X75858714Y-113593619D01*
X75906333Y-113688857D01*
X75906333Y-113831714D01*
X75858714Y-113926952D01*
X75811095Y-113974571D01*
X75715857Y-114022190D01*
X75334904Y-114022190D01*
X76382523Y-114498380D02*
X76573000Y-114498380D01*
X76668238Y-114450761D01*
X76715857Y-114403142D01*
X76811095Y-114260285D01*
X76858714Y-114069809D01*
X76858714Y-113688857D01*
X76811095Y-113593619D01*
X76763476Y-113546000D01*
X76668238Y-113498380D01*
X76477761Y-113498380D01*
X76382523Y-113546000D01*
X76334904Y-113593619D01*
X76287285Y-113688857D01*
X76287285Y-113926952D01*
X76334904Y-114022190D01*
X76382523Y-114069809D01*
X76477761Y-114117428D01*
X76668238Y-114117428D01*
X76763476Y-114069809D01*
X76811095Y-114022190D01*
X76858714Y-113926952D01*
D11*
%TO.C,D5*%
X92237619Y-150022523D02*
X92237619Y-149382523D01*
X92390000Y-149382523D01*
X92481428Y-149413000D01*
X92542380Y-149473952D01*
X92572857Y-149534904D01*
X92603333Y-149656809D01*
X92603333Y-149748238D01*
X92572857Y-149870142D01*
X92542380Y-149931095D01*
X92481428Y-149992047D01*
X92390000Y-150022523D01*
X92237619Y-150022523D01*
X93182380Y-149382523D02*
X92877619Y-149382523D01*
X92847142Y-149687285D01*
X92877619Y-149656809D01*
X92938571Y-149626333D01*
X93090952Y-149626333D01*
X93151904Y-149656809D01*
X93182380Y-149687285D01*
X93212857Y-149748238D01*
X93212857Y-149900619D01*
X93182380Y-149961571D01*
X93151904Y-149992047D01*
X93090952Y-150022523D01*
X92938571Y-150022523D01*
X92877619Y-149992047D01*
X92847142Y-149961571D01*
D10*
%TO.C,U1*%
X67183095Y-97242380D02*
X67183095Y-98051904D01*
X67230714Y-98147142D01*
X67278333Y-98194761D01*
X67373571Y-98242380D01*
X67564047Y-98242380D01*
X67659285Y-98194761D01*
X67706904Y-98147142D01*
X67754523Y-98051904D01*
X67754523Y-97242380D01*
X68754523Y-98242380D02*
X68183095Y-98242380D01*
X68468809Y-98242380D02*
X68468809Y-97242380D01*
X68373571Y-97385238D01*
X68278333Y-97480476D01*
X68183095Y-97528095D01*
%TO.C,R21*%
X89479380Y-98940857D02*
X89003190Y-99274190D01*
X89479380Y-99512285D02*
X88479380Y-99512285D01*
X88479380Y-99131333D01*
X88527000Y-99036095D01*
X88574619Y-98988476D01*
X88669857Y-98940857D01*
X88812714Y-98940857D01*
X88907952Y-98988476D01*
X88955571Y-99036095D01*
X89003190Y-99131333D01*
X89003190Y-99512285D01*
X88574619Y-98559904D02*
X88527000Y-98512285D01*
X88479380Y-98417047D01*
X88479380Y-98178952D01*
X88527000Y-98083714D01*
X88574619Y-98036095D01*
X88669857Y-97988476D01*
X88765095Y-97988476D01*
X88907952Y-98036095D01*
X89479380Y-98607523D01*
X89479380Y-97988476D01*
X89479380Y-97036095D02*
X89479380Y-97607523D01*
X89479380Y-97321809D02*
X88479380Y-97321809D01*
X88622238Y-97417047D01*
X88717476Y-97512285D01*
X88765095Y-97607523D01*
%TO.C,R19*%
X74033142Y-141930380D02*
X73699809Y-141454190D01*
X73461714Y-141930380D02*
X73461714Y-140930380D01*
X73842666Y-140930380D01*
X73937904Y-140978000D01*
X73985523Y-141025619D01*
X74033142Y-141120857D01*
X74033142Y-141263714D01*
X73985523Y-141358952D01*
X73937904Y-141406571D01*
X73842666Y-141454190D01*
X73461714Y-141454190D01*
X74985523Y-141930380D02*
X74414095Y-141930380D01*
X74699809Y-141930380D02*
X74699809Y-140930380D01*
X74604571Y-141073238D01*
X74509333Y-141168476D01*
X74414095Y-141216095D01*
X75461714Y-141930380D02*
X75652190Y-141930380D01*
X75747428Y-141882761D01*
X75795047Y-141835142D01*
X75890285Y-141692285D01*
X75937904Y-141501809D01*
X75937904Y-141120857D01*
X75890285Y-141025619D01*
X75842666Y-140978000D01*
X75747428Y-140930380D01*
X75556952Y-140930380D01*
X75461714Y-140978000D01*
X75414095Y-141025619D01*
X75366476Y-141120857D01*
X75366476Y-141358952D01*
X75414095Y-141454190D01*
X75461714Y-141501809D01*
X75556952Y-141549428D01*
X75747428Y-141549428D01*
X75842666Y-141501809D01*
X75890285Y-141454190D01*
X75937904Y-141358952D01*
%TO.C,D9*%
X78763904Y-111958380D02*
X78763904Y-110958380D01*
X79002000Y-110958380D01*
X79144857Y-111006000D01*
X79240095Y-111101238D01*
X79287714Y-111196476D01*
X79335333Y-111386952D01*
X79335333Y-111529809D01*
X79287714Y-111720285D01*
X79240095Y-111815523D01*
X79144857Y-111910761D01*
X79002000Y-111958380D01*
X78763904Y-111958380D01*
X79811523Y-111958380D02*
X80002000Y-111958380D01*
X80097238Y-111910761D01*
X80144857Y-111863142D01*
X80240095Y-111720285D01*
X80287714Y-111529809D01*
X80287714Y-111148857D01*
X80240095Y-111053619D01*
X80192476Y-111006000D01*
X80097238Y-110958380D01*
X79906761Y-110958380D01*
X79811523Y-111006000D01*
X79763904Y-111053619D01*
X79716285Y-111148857D01*
X79716285Y-111386952D01*
X79763904Y-111482190D01*
X79811523Y-111529809D01*
X79906761Y-111577428D01*
X80097238Y-111577428D01*
X80192476Y-111529809D01*
X80240095Y-111482190D01*
X80287714Y-111386952D01*
%TO.C,R5*%
X93178333Y-147518380D02*
X92845000Y-147042190D01*
X92606904Y-147518380D02*
X92606904Y-146518380D01*
X92987857Y-146518380D01*
X93083095Y-146566000D01*
X93130714Y-146613619D01*
X93178333Y-146708857D01*
X93178333Y-146851714D01*
X93130714Y-146946952D01*
X93083095Y-146994571D01*
X92987857Y-147042190D01*
X92606904Y-147042190D01*
X94083095Y-146518380D02*
X93606904Y-146518380D01*
X93559285Y-146994571D01*
X93606904Y-146946952D01*
X93702142Y-146899333D01*
X93940238Y-146899333D01*
X94035476Y-146946952D01*
X94083095Y-146994571D01*
X94130714Y-147089809D01*
X94130714Y-147327904D01*
X94083095Y-147423142D01*
X94035476Y-147470761D01*
X93940238Y-147518380D01*
X93702142Y-147518380D01*
X93606904Y-147470761D01*
X93559285Y-147423142D01*
%TO.C,D10*%
X89479380Y-110434285D02*
X88479380Y-110434285D01*
X88479380Y-110196190D01*
X88527000Y-110053333D01*
X88622238Y-109958095D01*
X88717476Y-109910476D01*
X88907952Y-109862857D01*
X89050809Y-109862857D01*
X89241285Y-109910476D01*
X89336523Y-109958095D01*
X89431761Y-110053333D01*
X89479380Y-110196190D01*
X89479380Y-110434285D01*
X89479380Y-108910476D02*
X89479380Y-109481904D01*
X89479380Y-109196190D02*
X88479380Y-109196190D01*
X88622238Y-109291428D01*
X88717476Y-109386666D01*
X88765095Y-109481904D01*
X88479380Y-108291428D02*
X88479380Y-108196190D01*
X88527000Y-108100952D01*
X88574619Y-108053333D01*
X88669857Y-108005714D01*
X88860333Y-107958095D01*
X89098428Y-107958095D01*
X89288904Y-108005714D01*
X89384142Y-108053333D01*
X89431761Y-108100952D01*
X89479380Y-108196190D01*
X89479380Y-108291428D01*
X89431761Y-108386666D01*
X89384142Y-108434285D01*
X89288904Y-108481904D01*
X89098428Y-108529523D01*
X88860333Y-108529523D01*
X88669857Y-108481904D01*
X88574619Y-108434285D01*
X88527000Y-108386666D01*
X88479380Y-108291428D01*
%TO.C,R20*%
X95369142Y-142311380D02*
X95035809Y-141835190D01*
X94797714Y-142311380D02*
X94797714Y-141311380D01*
X95178666Y-141311380D01*
X95273904Y-141359000D01*
X95321523Y-141406619D01*
X95369142Y-141501857D01*
X95369142Y-141644714D01*
X95321523Y-141739952D01*
X95273904Y-141787571D01*
X95178666Y-141835190D01*
X94797714Y-141835190D01*
X95750095Y-141406619D02*
X95797714Y-141359000D01*
X95892952Y-141311380D01*
X96131047Y-141311380D01*
X96226285Y-141359000D01*
X96273904Y-141406619D01*
X96321523Y-141501857D01*
X96321523Y-141597095D01*
X96273904Y-141739952D01*
X95702476Y-142311380D01*
X96321523Y-142311380D01*
X96940571Y-141311380D02*
X97035809Y-141311380D01*
X97131047Y-141359000D01*
X97178666Y-141406619D01*
X97226285Y-141501857D01*
X97273904Y-141692333D01*
X97273904Y-141930428D01*
X97226285Y-142120904D01*
X97178666Y-142216142D01*
X97131047Y-142263761D01*
X97035809Y-142311380D01*
X96940571Y-142311380D01*
X96845333Y-142263761D01*
X96797714Y-142216142D01*
X96750095Y-142120904D01*
X96702476Y-141930428D01*
X96702476Y-141692333D01*
X96750095Y-141501857D01*
X96797714Y-141406619D01*
X96845333Y-141359000D01*
X96940571Y-141311380D01*
%TO.C,D3*%
X71270904Y-111831380D02*
X71270904Y-110831380D01*
X71509000Y-110831380D01*
X71651857Y-110879000D01*
X71747095Y-110974238D01*
X71794714Y-111069476D01*
X71842333Y-111259952D01*
X71842333Y-111402809D01*
X71794714Y-111593285D01*
X71747095Y-111688523D01*
X71651857Y-111783761D01*
X71509000Y-111831380D01*
X71270904Y-111831380D01*
X72175666Y-110831380D02*
X72794714Y-110831380D01*
X72461380Y-111212333D01*
X72604238Y-111212333D01*
X72699476Y-111259952D01*
X72747095Y-111307571D01*
X72794714Y-111402809D01*
X72794714Y-111640904D01*
X72747095Y-111736142D01*
X72699476Y-111783761D01*
X72604238Y-111831380D01*
X72318523Y-111831380D01*
X72223285Y-111783761D01*
X72175666Y-111736142D01*
D11*
%TO.C,J12*%
X97234476Y-153757380D02*
X97234476Y-154471666D01*
X97186857Y-154614523D01*
X97091619Y-154709761D01*
X96948761Y-154757380D01*
X96853523Y-154757380D01*
X98234476Y-154757380D02*
X97663047Y-154757380D01*
X97948761Y-154757380D02*
X97948761Y-153757380D01*
X97853523Y-153900238D01*
X97758285Y-153995476D01*
X97663047Y-154043095D01*
X98615428Y-153852619D02*
X98663047Y-153805000D01*
X98758285Y-153757380D01*
X98996380Y-153757380D01*
X99091619Y-153805000D01*
X99139238Y-153852619D01*
X99186857Y-153947857D01*
X99186857Y-154043095D01*
X99139238Y-154185952D01*
X98567809Y-154757380D01*
X99186857Y-154757380D01*
D10*
%TO.C,C9*%
X123318542Y-123229666D02*
X123366161Y-123277285D01*
X123413780Y-123420142D01*
X123413780Y-123515380D01*
X123366161Y-123658238D01*
X123270923Y-123753476D01*
X123175685Y-123801095D01*
X122985209Y-123848714D01*
X122842352Y-123848714D01*
X122651876Y-123801095D01*
X122556638Y-123753476D01*
X122461400Y-123658238D01*
X122413780Y-123515380D01*
X122413780Y-123420142D01*
X122461400Y-123277285D01*
X122509019Y-123229666D01*
X123413780Y-122753476D02*
X123413780Y-122563000D01*
X123366161Y-122467761D01*
X123318542Y-122420142D01*
X123175685Y-122324904D01*
X122985209Y-122277285D01*
X122604257Y-122277285D01*
X122509019Y-122324904D01*
X122461400Y-122372523D01*
X122413780Y-122467761D01*
X122413780Y-122658238D01*
X122461400Y-122753476D01*
X122509019Y-122801095D01*
X122604257Y-122848714D01*
X122842352Y-122848714D01*
X122937590Y-122801095D01*
X122985209Y-122753476D01*
X123032828Y-122658238D01*
X123032828Y-122467761D01*
X122985209Y-122372523D01*
X122937590Y-122324904D01*
X122842352Y-122277285D01*
%TO.C,C5*%
X122515333Y-111736142D02*
X122467714Y-111783761D01*
X122324857Y-111831380D01*
X122229619Y-111831380D01*
X122086761Y-111783761D01*
X121991523Y-111688523D01*
X121943904Y-111593285D01*
X121896285Y-111402809D01*
X121896285Y-111259952D01*
X121943904Y-111069476D01*
X121991523Y-110974238D01*
X122086761Y-110879000D01*
X122229619Y-110831380D01*
X122324857Y-110831380D01*
X122467714Y-110879000D01*
X122515333Y-110926619D01*
X123420095Y-110831380D02*
X122943904Y-110831380D01*
X122896285Y-111307571D01*
X122943904Y-111259952D01*
X123039142Y-111212333D01*
X123277238Y-111212333D01*
X123372476Y-111259952D01*
X123420095Y-111307571D01*
X123467714Y-111402809D01*
X123467714Y-111640904D01*
X123420095Y-111736142D01*
X123372476Y-111783761D01*
X123277238Y-111831380D01*
X123039142Y-111831380D01*
X122943904Y-111783761D01*
X122896285Y-111736142D01*
%TO.C,U4*%
X127508095Y-110831380D02*
X127508095Y-111640904D01*
X127555714Y-111736142D01*
X127603333Y-111783761D01*
X127698571Y-111831380D01*
X127889047Y-111831380D01*
X127984285Y-111783761D01*
X128031904Y-111736142D01*
X128079523Y-111640904D01*
X128079523Y-110831380D01*
X128984285Y-111164714D02*
X128984285Y-111831380D01*
X128746190Y-110783761D02*
X128508095Y-111498047D01*
X129127142Y-111498047D01*
%TO.C,R16*%
X85702380Y-104528857D02*
X85226190Y-104862190D01*
X85702380Y-105100285D02*
X84702380Y-105100285D01*
X84702380Y-104719333D01*
X84750000Y-104624095D01*
X84797619Y-104576476D01*
X84892857Y-104528857D01*
X85035714Y-104528857D01*
X85130952Y-104576476D01*
X85178571Y-104624095D01*
X85226190Y-104719333D01*
X85226190Y-105100285D01*
X85702380Y-103576476D02*
X85702380Y-104147904D01*
X85702380Y-103862190D02*
X84702380Y-103862190D01*
X84845238Y-103957428D01*
X84940476Y-104052666D01*
X84988095Y-104147904D01*
X84702380Y-102719333D02*
X84702380Y-102909809D01*
X84750000Y-103005047D01*
X84797619Y-103052666D01*
X84940476Y-103147904D01*
X85130952Y-103195523D01*
X85511904Y-103195523D01*
X85607142Y-103147904D01*
X85654761Y-103100285D01*
X85702380Y-103005047D01*
X85702380Y-102814571D01*
X85654761Y-102719333D01*
X85607142Y-102671714D01*
X85511904Y-102624095D01*
X85273809Y-102624095D01*
X85178571Y-102671714D01*
X85130952Y-102719333D01*
X85083333Y-102814571D01*
X85083333Y-103005047D01*
X85130952Y-103100285D01*
X85178571Y-103147904D01*
X85273809Y-103195523D01*
%TO.C,R17*%
X83050142Y-116276380D02*
X82716809Y-115800190D01*
X82478714Y-116276380D02*
X82478714Y-115276380D01*
X82859666Y-115276380D01*
X82954904Y-115324000D01*
X83002523Y-115371619D01*
X83050142Y-115466857D01*
X83050142Y-115609714D01*
X83002523Y-115704952D01*
X82954904Y-115752571D01*
X82859666Y-115800190D01*
X82478714Y-115800190D01*
X84002523Y-116276380D02*
X83431095Y-116276380D01*
X83716809Y-116276380D02*
X83716809Y-115276380D01*
X83621571Y-115419238D01*
X83526333Y-115514476D01*
X83431095Y-115562095D01*
X84335857Y-115276380D02*
X85002523Y-115276380D01*
X84573952Y-116276380D01*
%TO.C,R12*%
X111450380Y-128404857D02*
X110974190Y-128738190D01*
X111450380Y-128976285D02*
X110450380Y-128976285D01*
X110450380Y-128595333D01*
X110498000Y-128500095D01*
X110545619Y-128452476D01*
X110640857Y-128404857D01*
X110783714Y-128404857D01*
X110878952Y-128452476D01*
X110926571Y-128500095D01*
X110974190Y-128595333D01*
X110974190Y-128976285D01*
X111450380Y-127452476D02*
X111450380Y-128023904D01*
X111450380Y-127738190D02*
X110450380Y-127738190D01*
X110593238Y-127833428D01*
X110688476Y-127928666D01*
X110736095Y-128023904D01*
X110545619Y-127071523D02*
X110498000Y-127023904D01*
X110450380Y-126928666D01*
X110450380Y-126690571D01*
X110498000Y-126595333D01*
X110545619Y-126547714D01*
X110640857Y-126500095D01*
X110736095Y-126500095D01*
X110878952Y-126547714D01*
X111450380Y-127119142D01*
X111450380Y-126500095D01*
%TO.C,TP19*%
X71540904Y-91146380D02*
X72112333Y-91146380D01*
X71826619Y-92146380D02*
X71826619Y-91146380D01*
X72445666Y-92146380D02*
X72445666Y-91146380D01*
X72826619Y-91146380D01*
X72921857Y-91194000D01*
X72969476Y-91241619D01*
X73017095Y-91336857D01*
X73017095Y-91479714D01*
X72969476Y-91574952D01*
X72921857Y-91622571D01*
X72826619Y-91670190D01*
X72445666Y-91670190D01*
X73969476Y-92146380D02*
X73398047Y-92146380D01*
X73683761Y-92146380D02*
X73683761Y-91146380D01*
X73588523Y-91289238D01*
X73493285Y-91384476D01*
X73398047Y-91432095D01*
X74445666Y-92146380D02*
X74636142Y-92146380D01*
X74731380Y-92098761D01*
X74779000Y-92051142D01*
X74874238Y-91908285D01*
X74921857Y-91717809D01*
X74921857Y-91336857D01*
X74874238Y-91241619D01*
X74826619Y-91194000D01*
X74731380Y-91146380D01*
X74540904Y-91146380D01*
X74445666Y-91194000D01*
X74398047Y-91241619D01*
X74350428Y-91336857D01*
X74350428Y-91574952D01*
X74398047Y-91670190D01*
X74445666Y-91717809D01*
X74540904Y-91765428D01*
X74731380Y-91765428D01*
X74826619Y-91717809D01*
X74874238Y-91670190D01*
X74921857Y-91574952D01*
%TO.C,J10*%
X107267476Y-141184380D02*
X107267476Y-141898666D01*
X107219857Y-142041523D01*
X107124619Y-142136761D01*
X106981761Y-142184380D01*
X106886523Y-142184380D01*
X108267476Y-142184380D02*
X107696047Y-142184380D01*
X107981761Y-142184380D02*
X107981761Y-141184380D01*
X107886523Y-141327238D01*
X107791285Y-141422476D01*
X107696047Y-141470095D01*
X108886523Y-141184380D02*
X108981761Y-141184380D01*
X109077000Y-141232000D01*
X109124619Y-141279619D01*
X109172238Y-141374857D01*
X109219857Y-141565333D01*
X109219857Y-141803428D01*
X109172238Y-141993904D01*
X109124619Y-142089142D01*
X109077000Y-142136761D01*
X108981761Y-142184380D01*
X108886523Y-142184380D01*
X108791285Y-142136761D01*
X108743666Y-142089142D01*
X108696047Y-141993904D01*
X108648428Y-141803428D01*
X108648428Y-141565333D01*
X108696047Y-141374857D01*
X108743666Y-141279619D01*
X108791285Y-141232000D01*
X108886523Y-141184380D01*
%TO.C,Q1*%
X68484761Y-118149619D02*
X68389523Y-118102000D01*
X68294285Y-118006761D01*
X68151428Y-117863904D01*
X68056190Y-117816285D01*
X67960952Y-117816285D01*
X68008571Y-118054380D02*
X67913333Y-118006761D01*
X67818095Y-117911523D01*
X67770476Y-117721047D01*
X67770476Y-117387714D01*
X67818095Y-117197238D01*
X67913333Y-117102000D01*
X68008571Y-117054380D01*
X68199047Y-117054380D01*
X68294285Y-117102000D01*
X68389523Y-117197238D01*
X68437142Y-117387714D01*
X68437142Y-117721047D01*
X68389523Y-117911523D01*
X68294285Y-118006761D01*
X68199047Y-118054380D01*
X68008571Y-118054380D01*
X69389523Y-118054380D02*
X68818095Y-118054380D01*
X69103809Y-118054380D02*
X69103809Y-117054380D01*
X69008571Y-117197238D01*
X68913333Y-117292476D01*
X68818095Y-117340095D01*
%TO.C,FB1*%
X113720666Y-127182571D02*
X113387333Y-127182571D01*
X113387333Y-127706380D02*
X113387333Y-126706380D01*
X113863523Y-126706380D01*
X114577809Y-127182571D02*
X114720666Y-127230190D01*
X114768285Y-127277809D01*
X114815904Y-127373047D01*
X114815904Y-127515904D01*
X114768285Y-127611142D01*
X114720666Y-127658761D01*
X114625428Y-127706380D01*
X114244476Y-127706380D01*
X114244476Y-126706380D01*
X114577809Y-126706380D01*
X114673047Y-126754000D01*
X114720666Y-126801619D01*
X114768285Y-126896857D01*
X114768285Y-126992095D01*
X114720666Y-127087333D01*
X114673047Y-127134952D01*
X114577809Y-127182571D01*
X114244476Y-127182571D01*
X115768285Y-127706380D02*
X115196857Y-127706380D01*
X115482571Y-127706380D02*
X115482571Y-126706380D01*
X115387333Y-126849238D01*
X115292095Y-126944476D01*
X115196857Y-126992095D01*
%TO.C,C11*%
X79097142Y-104401857D02*
X79144761Y-104449476D01*
X79192380Y-104592333D01*
X79192380Y-104687571D01*
X79144761Y-104830428D01*
X79049523Y-104925666D01*
X78954285Y-104973285D01*
X78763809Y-105020904D01*
X78620952Y-105020904D01*
X78430476Y-104973285D01*
X78335238Y-104925666D01*
X78240000Y-104830428D01*
X78192380Y-104687571D01*
X78192380Y-104592333D01*
X78240000Y-104449476D01*
X78287619Y-104401857D01*
X79192380Y-103449476D02*
X79192380Y-104020904D01*
X79192380Y-103735190D02*
X78192380Y-103735190D01*
X78335238Y-103830428D01*
X78430476Y-103925666D01*
X78478095Y-104020904D01*
X79192380Y-102497095D02*
X79192380Y-103068523D01*
X79192380Y-102782809D02*
X78192380Y-102782809D01*
X78335238Y-102878047D01*
X78430476Y-102973285D01*
X78478095Y-103068523D01*
%TO.C,R29*%
X121483380Y-126499857D02*
X121007190Y-126833190D01*
X121483380Y-127071285D02*
X120483380Y-127071285D01*
X120483380Y-126690333D01*
X120531000Y-126595095D01*
X120578619Y-126547476D01*
X120673857Y-126499857D01*
X120816714Y-126499857D01*
X120911952Y-126547476D01*
X120959571Y-126595095D01*
X121007190Y-126690333D01*
X121007190Y-127071285D01*
X120578619Y-126118904D02*
X120531000Y-126071285D01*
X120483380Y-125976047D01*
X120483380Y-125737952D01*
X120531000Y-125642714D01*
X120578619Y-125595095D01*
X120673857Y-125547476D01*
X120769095Y-125547476D01*
X120911952Y-125595095D01*
X121483380Y-126166523D01*
X121483380Y-125547476D01*
X121483380Y-125071285D02*
X121483380Y-124880809D01*
X121435761Y-124785571D01*
X121388142Y-124737952D01*
X121245285Y-124642714D01*
X121054809Y-124595095D01*
X120673857Y-124595095D01*
X120578619Y-124642714D01*
X120531000Y-124690333D01*
X120483380Y-124785571D01*
X120483380Y-124976047D01*
X120531000Y-125071285D01*
X120578619Y-125118904D01*
X120673857Y-125166523D01*
X120911952Y-125166523D01*
X121007190Y-125118904D01*
X121054809Y-125071285D01*
X121102428Y-124976047D01*
X121102428Y-124785571D01*
X121054809Y-124690333D01*
X121007190Y-124642714D01*
X120911952Y-124595095D01*
%TO.C,R24*%
X128722380Y-149994857D02*
X128246190Y-150328190D01*
X128722380Y-150566285D02*
X127722380Y-150566285D01*
X127722380Y-150185333D01*
X127770000Y-150090095D01*
X127817619Y-150042476D01*
X127912857Y-149994857D01*
X128055714Y-149994857D01*
X128150952Y-150042476D01*
X128198571Y-150090095D01*
X128246190Y-150185333D01*
X128246190Y-150566285D01*
X127817619Y-149613904D02*
X127770000Y-149566285D01*
X127722380Y-149471047D01*
X127722380Y-149232952D01*
X127770000Y-149137714D01*
X127817619Y-149090095D01*
X127912857Y-149042476D01*
X128008095Y-149042476D01*
X128150952Y-149090095D01*
X128722380Y-149661523D01*
X128722380Y-149042476D01*
X128055714Y-148185333D02*
X128722380Y-148185333D01*
X127674761Y-148423428D02*
X128389047Y-148661523D01*
X128389047Y-148042476D01*
%TO.C,J7*%
X89114380Y-113363333D02*
X89828666Y-113363333D01*
X89971523Y-113410952D01*
X90066761Y-113506190D01*
X90114380Y-113649047D01*
X90114380Y-113744285D01*
X89114380Y-112982380D02*
X89114380Y-112315714D01*
X90114380Y-112744285D01*
%TO.C,R13*%
X127579380Y-153042857D02*
X127103190Y-153376190D01*
X127579380Y-153614285D02*
X126579380Y-153614285D01*
X126579380Y-153233333D01*
X126627000Y-153138095D01*
X126674619Y-153090476D01*
X126769857Y-153042857D01*
X126912714Y-153042857D01*
X127007952Y-153090476D01*
X127055571Y-153138095D01*
X127103190Y-153233333D01*
X127103190Y-153614285D01*
X127579380Y-152090476D02*
X127579380Y-152661904D01*
X127579380Y-152376190D02*
X126579380Y-152376190D01*
X126722238Y-152471428D01*
X126817476Y-152566666D01*
X126865095Y-152661904D01*
X126579380Y-151757142D02*
X126579380Y-151138095D01*
X126960333Y-151471428D01*
X126960333Y-151328571D01*
X127007952Y-151233333D01*
X127055571Y-151185714D01*
X127150809Y-151138095D01*
X127388904Y-151138095D01*
X127484142Y-151185714D01*
X127531761Y-151233333D01*
X127579380Y-151328571D01*
X127579380Y-151614285D01*
X127531761Y-151709523D01*
X127484142Y-151757142D01*
%TO.C,R10*%
X86558380Y-130055857D02*
X86082190Y-130389190D01*
X86558380Y-130627285D02*
X85558380Y-130627285D01*
X85558380Y-130246333D01*
X85606000Y-130151095D01*
X85653619Y-130103476D01*
X85748857Y-130055857D01*
X85891714Y-130055857D01*
X85986952Y-130103476D01*
X86034571Y-130151095D01*
X86082190Y-130246333D01*
X86082190Y-130627285D01*
X86558380Y-129103476D02*
X86558380Y-129674904D01*
X86558380Y-129389190D02*
X85558380Y-129389190D01*
X85701238Y-129484428D01*
X85796476Y-129579666D01*
X85844095Y-129674904D01*
X85558380Y-128484428D02*
X85558380Y-128389190D01*
X85606000Y-128293952D01*
X85653619Y-128246333D01*
X85748857Y-128198714D01*
X85939333Y-128151095D01*
X86177428Y-128151095D01*
X86367904Y-128198714D01*
X86463142Y-128246333D01*
X86510761Y-128293952D01*
X86558380Y-128389190D01*
X86558380Y-128484428D01*
X86510761Y-128579666D01*
X86463142Y-128627285D01*
X86367904Y-128674904D01*
X86177428Y-128722523D01*
X85939333Y-128722523D01*
X85748857Y-128674904D01*
X85653619Y-128627285D01*
X85606000Y-128579666D01*
X85558380Y-128484428D01*
%TO.C,R8*%
X107513380Y-106465666D02*
X107037190Y-106799000D01*
X107513380Y-107037095D02*
X106513380Y-107037095D01*
X106513380Y-106656142D01*
X106561000Y-106560904D01*
X106608619Y-106513285D01*
X106703857Y-106465666D01*
X106846714Y-106465666D01*
X106941952Y-106513285D01*
X106989571Y-106560904D01*
X107037190Y-106656142D01*
X107037190Y-107037095D01*
X106941952Y-105894238D02*
X106894333Y-105989476D01*
X106846714Y-106037095D01*
X106751476Y-106084714D01*
X106703857Y-106084714D01*
X106608619Y-106037095D01*
X106561000Y-105989476D01*
X106513380Y-105894238D01*
X106513380Y-105703761D01*
X106561000Y-105608523D01*
X106608619Y-105560904D01*
X106703857Y-105513285D01*
X106751476Y-105513285D01*
X106846714Y-105560904D01*
X106894333Y-105608523D01*
X106941952Y-105703761D01*
X106941952Y-105894238D01*
X106989571Y-105989476D01*
X107037190Y-106037095D01*
X107132428Y-106084714D01*
X107322904Y-106084714D01*
X107418142Y-106037095D01*
X107465761Y-105989476D01*
X107513380Y-105894238D01*
X107513380Y-105703761D01*
X107465761Y-105608523D01*
X107418142Y-105560904D01*
X107322904Y-105513285D01*
X107132428Y-105513285D01*
X107037190Y-105560904D01*
X106989571Y-105608523D01*
X106941952Y-105703761D01*
%TO.C,D8*%
X112982380Y-122288095D02*
X111982380Y-122288095D01*
X111982380Y-122050000D01*
X112030000Y-121907142D01*
X112125238Y-121811904D01*
X112220476Y-121764285D01*
X112410952Y-121716666D01*
X112553809Y-121716666D01*
X112744285Y-121764285D01*
X112839523Y-121811904D01*
X112934761Y-121907142D01*
X112982380Y-122050000D01*
X112982380Y-122288095D01*
X112410952Y-121145238D02*
X112363333Y-121240476D01*
X112315714Y-121288095D01*
X112220476Y-121335714D01*
X112172857Y-121335714D01*
X112077619Y-121288095D01*
X112030000Y-121240476D01*
X111982380Y-121145238D01*
X111982380Y-120954761D01*
X112030000Y-120859523D01*
X112077619Y-120811904D01*
X112172857Y-120764285D01*
X112220476Y-120764285D01*
X112315714Y-120811904D01*
X112363333Y-120859523D01*
X112410952Y-120954761D01*
X112410952Y-121145238D01*
X112458571Y-121240476D01*
X112506190Y-121288095D01*
X112601428Y-121335714D01*
X112791904Y-121335714D01*
X112887142Y-121288095D01*
X112934761Y-121240476D01*
X112982380Y-121145238D01*
X112982380Y-120954761D01*
X112934761Y-120859523D01*
X112887142Y-120811904D01*
X112791904Y-120764285D01*
X112601428Y-120764285D01*
X112506190Y-120811904D01*
X112458571Y-120859523D01*
X112410952Y-120954761D01*
%TO.C,R22*%
X94559380Y-99702857D02*
X94083190Y-100036190D01*
X94559380Y-100274285D02*
X93559380Y-100274285D01*
X93559380Y-99893333D01*
X93607000Y-99798095D01*
X93654619Y-99750476D01*
X93749857Y-99702857D01*
X93892714Y-99702857D01*
X93987952Y-99750476D01*
X94035571Y-99798095D01*
X94083190Y-99893333D01*
X94083190Y-100274285D01*
X93654619Y-99321904D02*
X93607000Y-99274285D01*
X93559380Y-99179047D01*
X93559380Y-98940952D01*
X93607000Y-98845714D01*
X93654619Y-98798095D01*
X93749857Y-98750476D01*
X93845095Y-98750476D01*
X93987952Y-98798095D01*
X94559380Y-99369523D01*
X94559380Y-98750476D01*
X93654619Y-98369523D02*
X93607000Y-98321904D01*
X93559380Y-98226666D01*
X93559380Y-97988571D01*
X93607000Y-97893333D01*
X93654619Y-97845714D01*
X93749857Y-97798095D01*
X93845095Y-97798095D01*
X93987952Y-97845714D01*
X94559380Y-98417142D01*
X94559380Y-97798095D01*
%TO.C,J5*%
X82632666Y-140422380D02*
X82632666Y-141136666D01*
X82585047Y-141279523D01*
X82489809Y-141374761D01*
X82346952Y-141422380D01*
X82251714Y-141422380D01*
X83585047Y-140422380D02*
X83108857Y-140422380D01*
X83061238Y-140898571D01*
X83108857Y-140850952D01*
X83204095Y-140803333D01*
X83442190Y-140803333D01*
X83537428Y-140850952D01*
X83585047Y-140898571D01*
X83632666Y-140993809D01*
X83632666Y-141231904D01*
X83585047Y-141327142D01*
X83537428Y-141374761D01*
X83442190Y-141422380D01*
X83204095Y-141422380D01*
X83108857Y-141374761D01*
X83061238Y-141327142D01*
%TO.C,C4*%
X96226333Y-129770142D02*
X96178714Y-129817761D01*
X96035857Y-129865380D01*
X95940619Y-129865380D01*
X95797761Y-129817761D01*
X95702523Y-129722523D01*
X95654904Y-129627285D01*
X95607285Y-129436809D01*
X95607285Y-129293952D01*
X95654904Y-129103476D01*
X95702523Y-129008238D01*
X95797761Y-128913000D01*
X95940619Y-128865380D01*
X96035857Y-128865380D01*
X96178714Y-128913000D01*
X96226333Y-128960619D01*
X97083476Y-129198714D02*
X97083476Y-129865380D01*
X96845380Y-128817761D02*
X96607285Y-129532047D01*
X97226333Y-129532047D01*
D11*
%TO.C,D6*%
X97444523Y-144617380D02*
X96804523Y-144617380D01*
X96804523Y-144465000D01*
X96835000Y-144373571D01*
X96895952Y-144312619D01*
X96956904Y-144282142D01*
X97078809Y-144251666D01*
X97170238Y-144251666D01*
X97292142Y-144282142D01*
X97353095Y-144312619D01*
X97414047Y-144373571D01*
X97444523Y-144465000D01*
X97444523Y-144617380D01*
X96804523Y-143703095D02*
X96804523Y-143825000D01*
X96835000Y-143885952D01*
X96865476Y-143916428D01*
X96956904Y-143977380D01*
X97078809Y-144007857D01*
X97322619Y-144007857D01*
X97383571Y-143977380D01*
X97414047Y-143946904D01*
X97444523Y-143885952D01*
X97444523Y-143764047D01*
X97414047Y-143703095D01*
X97383571Y-143672619D01*
X97322619Y-143642142D01*
X97170238Y-143642142D01*
X97109285Y-143672619D01*
X97078809Y-143703095D01*
X97048333Y-143764047D01*
X97048333Y-143885952D01*
X97078809Y-143946904D01*
X97109285Y-143977380D01*
X97170238Y-144007857D01*
D10*
%TO.C,J2*%
X99361666Y-123785380D02*
X99361666Y-124499666D01*
X99314047Y-124642523D01*
X99218809Y-124737761D01*
X99075952Y-124785380D01*
X98980714Y-124785380D01*
X99790238Y-123880619D02*
X99837857Y-123833000D01*
X99933095Y-123785380D01*
X100171190Y-123785380D01*
X100266428Y-123833000D01*
X100314047Y-123880619D01*
X100361666Y-123975857D01*
X100361666Y-124071095D01*
X100314047Y-124213952D01*
X99742619Y-124785380D01*
X100361666Y-124785380D01*
%TO.C,C8*%
X87717333Y-123791142D02*
X87669714Y-123838761D01*
X87526857Y-123886380D01*
X87431619Y-123886380D01*
X87288761Y-123838761D01*
X87193523Y-123743523D01*
X87145904Y-123648285D01*
X87098285Y-123457809D01*
X87098285Y-123314952D01*
X87145904Y-123124476D01*
X87193523Y-123029238D01*
X87288761Y-122934000D01*
X87431619Y-122886380D01*
X87526857Y-122886380D01*
X87669714Y-122934000D01*
X87717333Y-122981619D01*
X88288761Y-123314952D02*
X88193523Y-123267333D01*
X88145904Y-123219714D01*
X88098285Y-123124476D01*
X88098285Y-123076857D01*
X88145904Y-122981619D01*
X88193523Y-122934000D01*
X88288761Y-122886380D01*
X88479238Y-122886380D01*
X88574476Y-122934000D01*
X88622095Y-122981619D01*
X88669714Y-123076857D01*
X88669714Y-123124476D01*
X88622095Y-123219714D01*
X88574476Y-123267333D01*
X88479238Y-123314952D01*
X88288761Y-123314952D01*
X88193523Y-123362571D01*
X88145904Y-123410190D01*
X88098285Y-123505428D01*
X88098285Y-123695904D01*
X88145904Y-123791142D01*
X88193523Y-123838761D01*
X88288761Y-123886380D01*
X88479238Y-123886380D01*
X88574476Y-123838761D01*
X88622095Y-123791142D01*
X88669714Y-123695904D01*
X88669714Y-123505428D01*
X88622095Y-123410190D01*
X88574476Y-123362571D01*
X88479238Y-123314952D01*
%TO.C,R3*%
X102195333Y-149804380D02*
X101862000Y-149328190D01*
X101623904Y-149804380D02*
X101623904Y-148804380D01*
X102004857Y-148804380D01*
X102100095Y-148852000D01*
X102147714Y-148899619D01*
X102195333Y-148994857D01*
X102195333Y-149137714D01*
X102147714Y-149232952D01*
X102100095Y-149280571D01*
X102004857Y-149328190D01*
X101623904Y-149328190D01*
X102528666Y-148804380D02*
X103147714Y-148804380D01*
X102814380Y-149185333D01*
X102957238Y-149185333D01*
X103052476Y-149232952D01*
X103100095Y-149280571D01*
X103147714Y-149375809D01*
X103147714Y-149613904D01*
X103100095Y-149709142D01*
X103052476Y-149756761D01*
X102957238Y-149804380D01*
X102671523Y-149804380D01*
X102576285Y-149756761D01*
X102528666Y-149709142D01*
%TO.C,C3*%
X79097142Y-99861666D02*
X79144761Y-99909285D01*
X79192380Y-100052142D01*
X79192380Y-100147380D01*
X79144761Y-100290238D01*
X79049523Y-100385476D01*
X78954285Y-100433095D01*
X78763809Y-100480714D01*
X78620952Y-100480714D01*
X78430476Y-100433095D01*
X78335238Y-100385476D01*
X78240000Y-100290238D01*
X78192380Y-100147380D01*
X78192380Y-100052142D01*
X78240000Y-99909285D01*
X78287619Y-99861666D01*
X78192380Y-99528333D02*
X78192380Y-98909285D01*
X78573333Y-99242619D01*
X78573333Y-99099761D01*
X78620952Y-99004523D01*
X78668571Y-98956904D01*
X78763809Y-98909285D01*
X79001904Y-98909285D01*
X79097142Y-98956904D01*
X79144761Y-99004523D01*
X79192380Y-99099761D01*
X79192380Y-99385476D01*
X79144761Y-99480714D01*
X79097142Y-99528333D01*
%TO.C,C13*%
X114252642Y-112299357D02*
X114300261Y-112346976D01*
X114347880Y-112489833D01*
X114347880Y-112585071D01*
X114300261Y-112727928D01*
X114205023Y-112823166D01*
X114109785Y-112870785D01*
X113919309Y-112918404D01*
X113776452Y-112918404D01*
X113585976Y-112870785D01*
X113490738Y-112823166D01*
X113395500Y-112727928D01*
X113347880Y-112585071D01*
X113347880Y-112489833D01*
X113395500Y-112346976D01*
X113443119Y-112299357D01*
X114347880Y-111346976D02*
X114347880Y-111918404D01*
X114347880Y-111632690D02*
X113347880Y-111632690D01*
X113490738Y-111727928D01*
X113585976Y-111823166D01*
X113633595Y-111918404D01*
X113347880Y-111013642D02*
X113347880Y-110394595D01*
X113728833Y-110727928D01*
X113728833Y-110585071D01*
X113776452Y-110489833D01*
X113824071Y-110442214D01*
X113919309Y-110394595D01*
X114157404Y-110394595D01*
X114252642Y-110442214D01*
X114300261Y-110489833D01*
X114347880Y-110585071D01*
X114347880Y-110870785D01*
X114300261Y-110966023D01*
X114252642Y-111013642D01*
%TO.C,L1*%
X69937333Y-124785380D02*
X69461142Y-124785380D01*
X69461142Y-123785380D01*
X70794476Y-124785380D02*
X70223047Y-124785380D01*
X70508761Y-124785380D02*
X70508761Y-123785380D01*
X70413523Y-123928238D01*
X70318285Y-124023476D01*
X70223047Y-124071095D01*
%TO.C,C21*%
X106037142Y-129643142D02*
X105989523Y-129690761D01*
X105846666Y-129738380D01*
X105751428Y-129738380D01*
X105608571Y-129690761D01*
X105513333Y-129595523D01*
X105465714Y-129500285D01*
X105418095Y-129309809D01*
X105418095Y-129166952D01*
X105465714Y-128976476D01*
X105513333Y-128881238D01*
X105608571Y-128786000D01*
X105751428Y-128738380D01*
X105846666Y-128738380D01*
X105989523Y-128786000D01*
X106037142Y-128833619D01*
X106418095Y-128833619D02*
X106465714Y-128786000D01*
X106560952Y-128738380D01*
X106799047Y-128738380D01*
X106894285Y-128786000D01*
X106941904Y-128833619D01*
X106989523Y-128928857D01*
X106989523Y-129024095D01*
X106941904Y-129166952D01*
X106370476Y-129738380D01*
X106989523Y-129738380D01*
X107941904Y-129738380D02*
X107370476Y-129738380D01*
X107656190Y-129738380D02*
X107656190Y-128738380D01*
X107560952Y-128881238D01*
X107465714Y-128976476D01*
X107370476Y-129024095D01*
%TO.C,R7*%
X68413333Y-116276380D02*
X68080000Y-115800190D01*
X67841904Y-116276380D02*
X67841904Y-115276380D01*
X68222857Y-115276380D01*
X68318095Y-115324000D01*
X68365714Y-115371619D01*
X68413333Y-115466857D01*
X68413333Y-115609714D01*
X68365714Y-115704952D01*
X68318095Y-115752571D01*
X68222857Y-115800190D01*
X67841904Y-115800190D01*
X68746666Y-115276380D02*
X69413333Y-115276380D01*
X68984761Y-116276380D01*
%TO.C,F1*%
X72564666Y-146359571D02*
X72231333Y-146359571D01*
X72231333Y-146883380D02*
X72231333Y-145883380D01*
X72707523Y-145883380D01*
X73612285Y-146883380D02*
X73040857Y-146883380D01*
X73326571Y-146883380D02*
X73326571Y-145883380D01*
X73231333Y-146026238D01*
X73136095Y-146121476D01*
X73040857Y-146169095D01*
%TO.C,J4*%
X101687380Y-125555333D02*
X102401666Y-125555333D01*
X102544523Y-125602952D01*
X102639761Y-125698190D01*
X102687380Y-125841047D01*
X102687380Y-125936285D01*
X102020714Y-124650571D02*
X102687380Y-124650571D01*
X101639761Y-124888666D02*
X102354047Y-125126761D01*
X102354047Y-124507714D01*
%TO.C,C7*%
X113474833Y-120268642D02*
X113427214Y-120316261D01*
X113284357Y-120363880D01*
X113189119Y-120363880D01*
X113046261Y-120316261D01*
X112951023Y-120221023D01*
X112903404Y-120125785D01*
X112855785Y-119935309D01*
X112855785Y-119792452D01*
X112903404Y-119601976D01*
X112951023Y-119506738D01*
X113046261Y-119411500D01*
X113189119Y-119363880D01*
X113284357Y-119363880D01*
X113427214Y-119411500D01*
X113474833Y-119459119D01*
X113808166Y-119363880D02*
X114474833Y-119363880D01*
X114046261Y-120363880D01*
%TO.C,R1*%
X90003333Y-154376380D02*
X89670000Y-153900190D01*
X89431904Y-154376380D02*
X89431904Y-153376380D01*
X89812857Y-153376380D01*
X89908095Y-153424000D01*
X89955714Y-153471619D01*
X90003333Y-153566857D01*
X90003333Y-153709714D01*
X89955714Y-153804952D01*
X89908095Y-153852571D01*
X89812857Y-153900190D01*
X89431904Y-153900190D01*
X90955714Y-154376380D02*
X90384285Y-154376380D01*
X90670000Y-154376380D02*
X90670000Y-153376380D01*
X90574761Y-153519238D01*
X90479523Y-153614476D01*
X90384285Y-153662095D01*
%TO.C,R18*%
X115792642Y-123792880D02*
X115459309Y-123316690D01*
X115221214Y-123792880D02*
X115221214Y-122792880D01*
X115602166Y-122792880D01*
X115697404Y-122840500D01*
X115745023Y-122888119D01*
X115792642Y-122983357D01*
X115792642Y-123126214D01*
X115745023Y-123221452D01*
X115697404Y-123269071D01*
X115602166Y-123316690D01*
X115221214Y-123316690D01*
X116745023Y-123792880D02*
X116173595Y-123792880D01*
X116459309Y-123792880D02*
X116459309Y-122792880D01*
X116364071Y-122935738D01*
X116268833Y-123030976D01*
X116173595Y-123078595D01*
X117316452Y-123221452D02*
X117221214Y-123173833D01*
X117173595Y-123126214D01*
X117125976Y-123030976D01*
X117125976Y-122983357D01*
X117173595Y-122888119D01*
X117221214Y-122840500D01*
X117316452Y-122792880D01*
X117506928Y-122792880D01*
X117602166Y-122840500D01*
X117649785Y-122888119D01*
X117697404Y-122983357D01*
X117697404Y-123030976D01*
X117649785Y-123126214D01*
X117602166Y-123173833D01*
X117506928Y-123221452D01*
X117316452Y-123221452D01*
X117221214Y-123269071D01*
X117173595Y-123316690D01*
X117125976Y-123411928D01*
X117125976Y-123602404D01*
X117173595Y-123697642D01*
X117221214Y-123745261D01*
X117316452Y-123792880D01*
X117506928Y-123792880D01*
X117602166Y-123745261D01*
X117649785Y-123697642D01*
X117697404Y-123602404D01*
X117697404Y-123411928D01*
X117649785Y-123316690D01*
X117602166Y-123269071D01*
X117506928Y-123221452D01*
%TO.C,R2*%
X105751333Y-154122380D02*
X105418000Y-153646190D01*
X105179904Y-154122380D02*
X105179904Y-153122380D01*
X105560857Y-153122380D01*
X105656095Y-153170000D01*
X105703714Y-153217619D01*
X105751333Y-153312857D01*
X105751333Y-153455714D01*
X105703714Y-153550952D01*
X105656095Y-153598571D01*
X105560857Y-153646190D01*
X105179904Y-153646190D01*
X106132285Y-153217619D02*
X106179904Y-153170000D01*
X106275142Y-153122380D01*
X106513238Y-153122380D01*
X106608476Y-153170000D01*
X106656095Y-153217619D01*
X106703714Y-153312857D01*
X106703714Y-153408095D01*
X106656095Y-153550952D01*
X106084666Y-154122380D01*
X106703714Y-154122380D01*
%TO.C,U2*%
X72390095Y-134580380D02*
X72390095Y-135389904D01*
X72437714Y-135485142D01*
X72485333Y-135532761D01*
X72580571Y-135580380D01*
X72771047Y-135580380D01*
X72866285Y-135532761D01*
X72913904Y-135485142D01*
X72961523Y-135389904D01*
X72961523Y-134580380D01*
X73390095Y-134675619D02*
X73437714Y-134628000D01*
X73532952Y-134580380D01*
X73771047Y-134580380D01*
X73866285Y-134628000D01*
X73913904Y-134675619D01*
X73961523Y-134770857D01*
X73961523Y-134866095D01*
X73913904Y-135008952D01*
X73342476Y-135580380D01*
X73961523Y-135580380D01*
%TO.C,R27*%
X128468380Y-127793357D02*
X127992190Y-128126690D01*
X128468380Y-128364785D02*
X127468380Y-128364785D01*
X127468380Y-127983833D01*
X127516000Y-127888595D01*
X127563619Y-127840976D01*
X127658857Y-127793357D01*
X127801714Y-127793357D01*
X127896952Y-127840976D01*
X127944571Y-127888595D01*
X127992190Y-127983833D01*
X127992190Y-128364785D01*
X127563619Y-127412404D02*
X127516000Y-127364785D01*
X127468380Y-127269547D01*
X127468380Y-127031452D01*
X127516000Y-126936214D01*
X127563619Y-126888595D01*
X127658857Y-126840976D01*
X127754095Y-126840976D01*
X127896952Y-126888595D01*
X128468380Y-127460023D01*
X128468380Y-126840976D01*
X127468380Y-126507642D02*
X127468380Y-125840976D01*
X128468380Y-126269547D01*
D11*
%TO.C,D12*%
X105521857Y-152689523D02*
X105521857Y-152049523D01*
X105674238Y-152049523D01*
X105765666Y-152080000D01*
X105826619Y-152140952D01*
X105857095Y-152201904D01*
X105887571Y-152323809D01*
X105887571Y-152415238D01*
X105857095Y-152537142D01*
X105826619Y-152598095D01*
X105765666Y-152659047D01*
X105674238Y-152689523D01*
X105521857Y-152689523D01*
X106497095Y-152689523D02*
X106131380Y-152689523D01*
X106314238Y-152689523D02*
X106314238Y-152049523D01*
X106253285Y-152140952D01*
X106192333Y-152201904D01*
X106131380Y-152232380D01*
X106740904Y-152110476D02*
X106771380Y-152080000D01*
X106832333Y-152049523D01*
X106984714Y-152049523D01*
X107045666Y-152080000D01*
X107076142Y-152110476D01*
X107106619Y-152171428D01*
X107106619Y-152232380D01*
X107076142Y-152323809D01*
X106710428Y-152689523D01*
X107106619Y-152689523D01*
D10*
%TO.C,J6*%
X108996666Y-106572380D02*
X108996666Y-107286666D01*
X108949047Y-107429523D01*
X108853809Y-107524761D01*
X108710952Y-107572380D01*
X108615714Y-107572380D01*
X109901428Y-106572380D02*
X109710952Y-106572380D01*
X109615714Y-106620000D01*
X109568095Y-106667619D01*
X109472857Y-106810476D01*
X109425238Y-107000952D01*
X109425238Y-107381904D01*
X109472857Y-107477142D01*
X109520476Y-107524761D01*
X109615714Y-107572380D01*
X109806190Y-107572380D01*
X109901428Y-107524761D01*
X109949047Y-107477142D01*
X109996666Y-107381904D01*
X109996666Y-107143809D01*
X109949047Y-107048571D01*
X109901428Y-107000952D01*
X109806190Y-106953333D01*
X109615714Y-106953333D01*
X109520476Y-107000952D01*
X109472857Y-107048571D01*
X109425238Y-107143809D01*
%TO.C,R6*%
X68413333Y-114498380D02*
X68080000Y-114022190D01*
X67841904Y-114498380D02*
X67841904Y-113498380D01*
X68222857Y-113498380D01*
X68318095Y-113546000D01*
X68365714Y-113593619D01*
X68413333Y-113688857D01*
X68413333Y-113831714D01*
X68365714Y-113926952D01*
X68318095Y-113974571D01*
X68222857Y-114022190D01*
X67841904Y-114022190D01*
X69270476Y-113498380D02*
X69080000Y-113498380D01*
X68984761Y-113546000D01*
X68937142Y-113593619D01*
X68841904Y-113736476D01*
X68794285Y-113926952D01*
X68794285Y-114307904D01*
X68841904Y-114403142D01*
X68889523Y-114450761D01*
X68984761Y-114498380D01*
X69175238Y-114498380D01*
X69270476Y-114450761D01*
X69318095Y-114403142D01*
X69365714Y-114307904D01*
X69365714Y-114069809D01*
X69318095Y-113974571D01*
X69270476Y-113926952D01*
X69175238Y-113879333D01*
X68984761Y-113879333D01*
X68889523Y-113926952D01*
X68841904Y-113974571D01*
X68794285Y-114069809D01*
D11*
%TO.C,U3*%
X88519095Y-141438380D02*
X88519095Y-142247904D01*
X88566714Y-142343142D01*
X88614333Y-142390761D01*
X88709571Y-142438380D01*
X88900047Y-142438380D01*
X88995285Y-142390761D01*
X89042904Y-142343142D01*
X89090523Y-142247904D01*
X89090523Y-141438380D01*
X89471476Y-141438380D02*
X90090523Y-141438380D01*
X89757190Y-141819333D01*
X89900047Y-141819333D01*
X89995285Y-141866952D01*
X90042904Y-141914571D01*
X90090523Y-142009809D01*
X90090523Y-142247904D01*
X90042904Y-142343142D01*
X89995285Y-142390761D01*
X89900047Y-142438380D01*
X89614333Y-142438380D01*
X89519095Y-142390761D01*
X89471476Y-142343142D01*
D10*
%TO.C,Q4*%
X81057761Y-92749619D02*
X80962523Y-92702000D01*
X80867285Y-92606761D01*
X80724428Y-92463904D01*
X80629190Y-92416285D01*
X80533952Y-92416285D01*
X80581571Y-92654380D02*
X80486333Y-92606761D01*
X80391095Y-92511523D01*
X80343476Y-92321047D01*
X80343476Y-91987714D01*
X80391095Y-91797238D01*
X80486333Y-91702000D01*
X80581571Y-91654380D01*
X80772047Y-91654380D01*
X80867285Y-91702000D01*
X80962523Y-91797238D01*
X81010142Y-91987714D01*
X81010142Y-92321047D01*
X80962523Y-92511523D01*
X80867285Y-92606761D01*
X80772047Y-92654380D01*
X80581571Y-92654380D01*
X81867285Y-91987714D02*
X81867285Y-92654380D01*
X81629190Y-91606761D02*
X81391095Y-92321047D01*
X82010142Y-92321047D01*
%TO.C,SW1*%
X130238666Y-112672761D02*
X130381523Y-112720380D01*
X130619619Y-112720380D01*
X130714857Y-112672761D01*
X130762476Y-112625142D01*
X130810095Y-112529904D01*
X130810095Y-112434666D01*
X130762476Y-112339428D01*
X130714857Y-112291809D01*
X130619619Y-112244190D01*
X130429142Y-112196571D01*
X130333904Y-112148952D01*
X130286285Y-112101333D01*
X130238666Y-112006095D01*
X130238666Y-111910857D01*
X130286285Y-111815619D01*
X130333904Y-111768000D01*
X130429142Y-111720380D01*
X130667238Y-111720380D01*
X130810095Y-111768000D01*
X131143428Y-111720380D02*
X131381523Y-112720380D01*
X131572000Y-112006095D01*
X131762476Y-112720380D01*
X132000571Y-111720380D01*
X132905333Y-112720380D02*
X132333904Y-112720380D01*
X132619619Y-112720380D02*
X132619619Y-111720380D01*
X132524380Y-111863238D01*
X132429142Y-111958476D01*
X132333904Y-112006095D01*
%TO.C,C1*%
X120864333Y-107258142D02*
X120816714Y-107305761D01*
X120673857Y-107353380D01*
X120578619Y-107353380D01*
X120435761Y-107305761D01*
X120340523Y-107210523D01*
X120292904Y-107115285D01*
X120245285Y-106924809D01*
X120245285Y-106781952D01*
X120292904Y-106591476D01*
X120340523Y-106496238D01*
X120435761Y-106401000D01*
X120578619Y-106353380D01*
X120673857Y-106353380D01*
X120816714Y-106401000D01*
X120864333Y-106448619D01*
X121816714Y-107353380D02*
X121245285Y-107353380D01*
X121531000Y-107353380D02*
X121531000Y-106353380D01*
X121435761Y-106496238D01*
X121340523Y-106591476D01*
X121245285Y-106639095D01*
%TO.C,D7*%
X97607380Y-126087095D02*
X96607380Y-126087095D01*
X96607380Y-125849000D01*
X96655000Y-125706142D01*
X96750238Y-125610904D01*
X96845476Y-125563285D01*
X97035952Y-125515666D01*
X97178809Y-125515666D01*
X97369285Y-125563285D01*
X97464523Y-125610904D01*
X97559761Y-125706142D01*
X97607380Y-125849000D01*
X97607380Y-126087095D01*
X96607380Y-125182333D02*
X96607380Y-124515666D01*
X97607380Y-124944238D01*
%TO.C,C10*%
X128389142Y-121642142D02*
X128341523Y-121689761D01*
X128198666Y-121737380D01*
X128103428Y-121737380D01*
X127960571Y-121689761D01*
X127865333Y-121594523D01*
X127817714Y-121499285D01*
X127770095Y-121308809D01*
X127770095Y-121165952D01*
X127817714Y-120975476D01*
X127865333Y-120880238D01*
X127960571Y-120785000D01*
X128103428Y-120737380D01*
X128198666Y-120737380D01*
X128341523Y-120785000D01*
X128389142Y-120832619D01*
X129341523Y-121737380D02*
X128770095Y-121737380D01*
X129055809Y-121737380D02*
X129055809Y-120737380D01*
X128960571Y-120880238D01*
X128865333Y-120975476D01*
X128770095Y-121023095D01*
X129960571Y-120737380D02*
X130055809Y-120737380D01*
X130151047Y-120785000D01*
X130198666Y-120832619D01*
X130246285Y-120927857D01*
X130293904Y-121118333D01*
X130293904Y-121356428D01*
X130246285Y-121546904D01*
X130198666Y-121642142D01*
X130151047Y-121689761D01*
X130055809Y-121737380D01*
X129960571Y-121737380D01*
X129865333Y-121689761D01*
X129817714Y-121642142D01*
X129770095Y-121546904D01*
X129722476Y-121356428D01*
X129722476Y-121118333D01*
X129770095Y-120927857D01*
X129817714Y-120832619D01*
X129865333Y-120785000D01*
X129960571Y-120737380D01*
%TO.C,D11*%
X89479380Y-105862285D02*
X88479380Y-105862285D01*
X88479380Y-105624190D01*
X88527000Y-105481333D01*
X88622238Y-105386095D01*
X88717476Y-105338476D01*
X88907952Y-105290857D01*
X89050809Y-105290857D01*
X89241285Y-105338476D01*
X89336523Y-105386095D01*
X89431761Y-105481333D01*
X89479380Y-105624190D01*
X89479380Y-105862285D01*
X89479380Y-104338476D02*
X89479380Y-104909904D01*
X89479380Y-104624190D02*
X88479380Y-104624190D01*
X88622238Y-104719428D01*
X88717476Y-104814666D01*
X88765095Y-104909904D01*
X89479380Y-103386095D02*
X89479380Y-103957523D01*
X89479380Y-103671809D02*
X88479380Y-103671809D01*
X88622238Y-103767047D01*
X88717476Y-103862285D01*
X88765095Y-103957523D01*
%TO.C,R4*%
X99909333Y-149677380D02*
X99576000Y-149201190D01*
X99337904Y-149677380D02*
X99337904Y-148677380D01*
X99718857Y-148677380D01*
X99814095Y-148725000D01*
X99861714Y-148772619D01*
X99909333Y-148867857D01*
X99909333Y-149010714D01*
X99861714Y-149105952D01*
X99814095Y-149153571D01*
X99718857Y-149201190D01*
X99337904Y-149201190D01*
X100766476Y-149010714D02*
X100766476Y-149677380D01*
X100528380Y-148629761D02*
X100290285Y-149344047D01*
X100909333Y-149344047D01*
%TO.C,R25*%
X124452142Y-147391380D02*
X124118809Y-146915190D01*
X123880714Y-147391380D02*
X123880714Y-146391380D01*
X124261666Y-146391380D01*
X124356904Y-146439000D01*
X124404523Y-146486619D01*
X124452142Y-146581857D01*
X124452142Y-146724714D01*
X124404523Y-146819952D01*
X124356904Y-146867571D01*
X124261666Y-146915190D01*
X123880714Y-146915190D01*
X124833095Y-146486619D02*
X124880714Y-146439000D01*
X124975952Y-146391380D01*
X125214047Y-146391380D01*
X125309285Y-146439000D01*
X125356904Y-146486619D01*
X125404523Y-146581857D01*
X125404523Y-146677095D01*
X125356904Y-146819952D01*
X124785476Y-147391380D01*
X125404523Y-147391380D01*
X126309285Y-146391380D02*
X125833095Y-146391380D01*
X125785476Y-146867571D01*
X125833095Y-146819952D01*
X125928333Y-146772333D01*
X126166428Y-146772333D01*
X126261666Y-146819952D01*
X126309285Y-146867571D01*
X126356904Y-146962809D01*
X126356904Y-147200904D01*
X126309285Y-147296142D01*
X126261666Y-147343761D01*
X126166428Y-147391380D01*
X125928333Y-147391380D01*
X125833095Y-147343761D01*
X125785476Y-147296142D01*
%TO.C,D1*%
X90416380Y-120499095D02*
X89416380Y-120499095D01*
X89416380Y-120261000D01*
X89464000Y-120118142D01*
X89559238Y-120022904D01*
X89654476Y-119975285D01*
X89844952Y-119927666D01*
X89987809Y-119927666D01*
X90178285Y-119975285D01*
X90273523Y-120022904D01*
X90368761Y-120118142D01*
X90416380Y-120261000D01*
X90416380Y-120499095D01*
X90416380Y-118975285D02*
X90416380Y-119546714D01*
X90416380Y-119261000D02*
X89416380Y-119261000D01*
X89559238Y-119356238D01*
X89654476Y-119451476D01*
X89702095Y-119546714D01*
%TO.C,R15*%
X75430142Y-116276380D02*
X75096809Y-115800190D01*
X74858714Y-116276380D02*
X74858714Y-115276380D01*
X75239666Y-115276380D01*
X75334904Y-115324000D01*
X75382523Y-115371619D01*
X75430142Y-115466857D01*
X75430142Y-115609714D01*
X75382523Y-115704952D01*
X75334904Y-115752571D01*
X75239666Y-115800190D01*
X74858714Y-115800190D01*
X76382523Y-116276380D02*
X75811095Y-116276380D01*
X76096809Y-116276380D02*
X76096809Y-115276380D01*
X76001571Y-115419238D01*
X75906333Y-115514476D01*
X75811095Y-115562095D01*
X77287285Y-115276380D02*
X76811095Y-115276380D01*
X76763476Y-115752571D01*
X76811095Y-115704952D01*
X76906333Y-115657333D01*
X77144428Y-115657333D01*
X77239666Y-115704952D01*
X77287285Y-115752571D01*
X77334904Y-115847809D01*
X77334904Y-116085904D01*
X77287285Y-116181142D01*
X77239666Y-116228761D01*
X77144428Y-116276380D01*
X76906333Y-116276380D01*
X76811095Y-116228761D01*
X76763476Y-116181142D01*
%TO.C,J9*%
X125413999Y-133283035D02*
X125413999Y-134683034D01*
X110864000Y-134683034D02*
X110864000Y-136083032D01*
X125864001Y-134683034D02*
X125413999Y-134683034D01*
X109864000Y-132183034D02*
X109864000Y-133283035D01*
X126864001Y-133283035D02*
X125413999Y-133283035D01*
X111314002Y-134683034D02*
X110864000Y-134683034D01*
X126864001Y-132183034D02*
X109864000Y-132183034D01*
X125864001Y-134683034D02*
X125864001Y-136083032D01*
X111314002Y-133283035D02*
X111314002Y-134683034D01*
X126864001Y-132183034D02*
X126864001Y-133283035D01*
X111314002Y-133283035D02*
X109864000Y-133283035D01*
X124564001Y-138883001D02*
X112164000Y-138883001D01*
D12*
X122988998Y-141733000D02*
G75*
G03*
X122988998Y-141733000I-125001J0D01*
G01*
D13*
%TO.C,R26*%
X123937500Y-126618276D02*
X123937500Y-127127724D01*
X124982500Y-126618276D02*
X124982500Y-127127724D01*
%TO.C,C14*%
X117875267Y-125093000D02*
X117582733Y-125093000D01*
X117875267Y-126113000D02*
X117582733Y-126113000D01*
%TO.C,Q2*%
X76073000Y-109438000D02*
X76723000Y-109438000D01*
X76073000Y-112558000D02*
X75423000Y-112558000D01*
X76073000Y-112558000D02*
X76723000Y-112558000D01*
X76073000Y-109438000D02*
X74398000Y-109438000D01*
%TO.C,J11*%
X128369000Y-125254000D02*
X128369000Y-131314000D01*
X128369000Y-123194000D02*
X129429000Y-123194000D01*
X128369000Y-131314000D02*
X132489000Y-131314000D01*
X130429000Y-125254000D02*
X130429000Y-123194000D01*
X130429000Y-123194000D02*
X132489000Y-123194000D01*
X128369000Y-124254000D02*
X128369000Y-123194000D01*
X128369000Y-125254000D02*
X130429000Y-125254000D01*
X132489000Y-123194000D02*
X132489000Y-131314000D01*
%TO.C,C19*%
X123297733Y-130177000D02*
X123590267Y-130177000D01*
X123297733Y-129157000D02*
X123590267Y-129157000D01*
%TO.C,Y1*%
X118235500Y-118547500D02*
X118235500Y-112797500D01*
X118235500Y-112797500D02*
X114635500Y-112797500D01*
X114635500Y-112797500D02*
X114635500Y-118547500D01*
%TO.C,SW2*%
X132972000Y-115874000D02*
X132972000Y-119174000D01*
X130172000Y-115874000D02*
X130172000Y-119174000D01*
X130472000Y-115874000D02*
X130172000Y-115874000D01*
X132972000Y-119174000D02*
X132672000Y-119174000D01*
X130172000Y-119174000D02*
X130472000Y-119174000D01*
X132672000Y-115874000D02*
X132972000Y-115874000D01*
%TO.C,R23*%
X80376500Y-103631276D02*
X80376500Y-104140724D01*
X81421500Y-103631276D02*
X81421500Y-104140724D01*
%TO.C,C6*%
X116289233Y-112293500D02*
X116581767Y-112293500D01*
X116289233Y-111273500D02*
X116581767Y-111273500D01*
%TO.C,J1*%
X96085000Y-106690000D02*
X96085000Y-108490000D01*
X98335000Y-107440000D02*
X101285000Y-107440000D01*
X102045000Y-114300000D02*
X102045000Y-106680000D01*
X96075000Y-114300000D02*
X102045000Y-114300000D01*
X96835000Y-110990000D02*
X96835000Y-109990000D01*
X96835000Y-108490000D02*
X96835000Y-106690000D01*
X95785000Y-113340000D02*
X95785000Y-114590000D01*
X96085000Y-114290000D02*
X96835000Y-114290000D01*
X96835000Y-109990000D02*
X96085000Y-109990000D01*
X98335000Y-106690000D02*
X98335000Y-107440000D01*
X101285000Y-113540000D02*
X101285000Y-110490000D01*
X96835000Y-114290000D02*
X96835000Y-112490000D01*
X95785000Y-114590000D02*
X97035000Y-114590000D01*
X96085000Y-112490000D02*
X96085000Y-114290000D01*
X96835000Y-112490000D02*
X96085000Y-112490000D01*
X102045000Y-106680000D02*
X96075000Y-106680000D01*
X98335000Y-114290000D02*
X98335000Y-113540000D01*
X96075000Y-106680000D02*
X96075000Y-114300000D01*
X98335000Y-113540000D02*
X101285000Y-113540000D01*
X101285000Y-107440000D02*
X101285000Y-110490000D01*
X96835000Y-106690000D02*
X96085000Y-106690000D01*
X96085000Y-108490000D02*
X96835000Y-108490000D01*
X96085000Y-110990000D02*
X96835000Y-110990000D01*
X96085000Y-109990000D02*
X96085000Y-110990000D01*
%TO.C,Q3*%
X83566000Y-109438000D02*
X81891000Y-109438000D01*
X83566000Y-112558000D02*
X82916000Y-112558000D01*
X83566000Y-109438000D02*
X84216000Y-109438000D01*
X83566000Y-112558000D02*
X84216000Y-112558000D01*
%TO.C,D2*%
X101500000Y-106054000D02*
X102970000Y-106054000D01*
X101500000Y-103594000D02*
X101500000Y-106054000D01*
X102970000Y-106054000D02*
X102970000Y-103594000D01*
%TO.C,R14*%
X127874500Y-137922724D02*
X127874500Y-137413276D01*
X128919500Y-137922724D02*
X128919500Y-137413276D01*
%TO.C,R11*%
X83057276Y-106284500D02*
X83566724Y-106284500D01*
X83057276Y-107329500D02*
X83566724Y-107329500D01*
%TO.C,J3*%
X121262000Y-156941000D02*
X121262000Y-152471000D01*
X108862000Y-143541000D02*
X121262000Y-143541000D01*
X121262000Y-156941000D02*
X108862000Y-156941000D01*
X108862000Y-156941000D02*
X108862000Y-152471000D01*
X121872000Y-148941000D02*
X121372000Y-148441000D01*
X108862000Y-149011000D02*
X108862000Y-143541000D01*
X121262000Y-143541000D02*
X121262000Y-149011000D01*
X121872000Y-147941000D02*
X121872000Y-148941000D01*
X121372000Y-148441000D02*
X121872000Y-147941000D01*
D10*
%TO.C,Q5*%
X91884000Y-151957000D02*
X91324000Y-151957000D01*
X88964000Y-151957000D02*
X89524000Y-151957000D01*
X91884000Y-151957000D02*
X91884000Y-151257000D01*
X88964000Y-151957000D02*
X88964000Y-151257000D01*
D13*
%TO.C,C2*%
X125220000Y-108223267D02*
X125220000Y-107930733D01*
X126240000Y-108223267D02*
X126240000Y-107930733D01*
%TO.C,J8*%
X99079000Y-105515000D02*
X93199000Y-105515000D01*
X99199000Y-102395000D02*
X99199000Y-101405000D01*
X92029000Y-103545000D02*
X92029000Y-102395000D01*
X100249000Y-102395000D02*
X99199000Y-102395000D01*
X100249000Y-103545000D02*
X100249000Y-102395000D01*
X92029000Y-102395000D02*
X93079000Y-102395000D01*
D10*
%TO.C,D4*%
X123011000Y-146809000D02*
G75*
G03*
X123011000Y-146809000I-75000J0D01*
G01*
D13*
%TO.C,R28*%
X125969500Y-129666276D02*
X125969500Y-130175724D01*
X127014500Y-129666276D02*
X127014500Y-130175724D01*
%TO.C,R9*%
X75564276Y-107329500D02*
X76073724Y-107329500D01*
X75564276Y-106284500D02*
X76073724Y-106284500D01*
D10*
%TO.C,D5*%
X93296000Y-148640800D02*
G75*
G03*
X93296000Y-148640800I-75000J0D01*
G01*
D13*
%TO.C,U1*%
X69210000Y-105645000D02*
X69210000Y-104385000D01*
X75220000Y-105645000D02*
X69210000Y-105645000D01*
X69210000Y-98825000D02*
X69210000Y-100085000D01*
X72970000Y-98825000D02*
X69210000Y-98825000D01*
%TO.C,R21*%
X91200500Y-98043276D02*
X91200500Y-98552724D01*
X90155500Y-98043276D02*
X90155500Y-98552724D01*
%TO.C,R19*%
X72912500Y-140589724D02*
X72912500Y-140080276D01*
X71867500Y-140589724D02*
X71867500Y-140080276D01*
%TO.C,D9*%
X80502000Y-106004000D02*
X80502000Y-109854000D01*
X78502000Y-106004000D02*
X78502000Y-109854000D01*
X80502000Y-106004000D02*
X78502000Y-106004000D01*
%TO.C,R5*%
X94995276Y-149493500D02*
X95504724Y-149493500D01*
X94995276Y-148448500D02*
X95504724Y-148448500D01*
%TO.C,D10*%
X88122000Y-107147000D02*
X88122000Y-110997000D01*
X86122000Y-107147000D02*
X86122000Y-110997000D01*
X88122000Y-107147000D02*
X86122000Y-107147000D01*
%TO.C,R20*%
X98820500Y-142875724D02*
X98820500Y-142366276D01*
X97775500Y-142875724D02*
X97775500Y-142366276D01*
%TO.C,D3*%
X73009000Y-106004000D02*
X71009000Y-106004000D01*
X73009000Y-106004000D02*
X73009000Y-109854000D01*
X71009000Y-106004000D02*
X71009000Y-109854000D01*
D14*
%TO.C,J12*%
X102514000Y-153230500D02*
X102514000Y-154670500D01*
X102514000Y-157410500D02*
X102514000Y-158640500D01*
X93574000Y-153230500D02*
X93574000Y-154670500D01*
X102514000Y-158640500D02*
X93574000Y-158640500D01*
X93574000Y-158640500D02*
X93574000Y-157410500D01*
D15*
X94744000Y-149640500D02*
G75*
G03*
X94744000Y-149640500I-100000J0D01*
G01*
D13*
%TO.C,C9*%
X123848400Y-122789733D02*
X123848400Y-123082267D01*
X124868400Y-122789733D02*
X124868400Y-123082267D01*
%TO.C,C5*%
X120884733Y-109472000D02*
X121177267Y-109472000D01*
X120884733Y-110492000D02*
X121177267Y-110492000D01*
%TO.C,U4*%
X128197000Y-119815000D02*
X128197000Y-119340000D01*
X121452000Y-112595000D02*
X120977000Y-112595000D01*
X127722000Y-112595000D02*
X128197000Y-112595000D01*
X128197000Y-112595000D02*
X128197000Y-113070000D01*
X127722000Y-119815000D02*
X128197000Y-119815000D01*
X120977000Y-119815000D02*
X120977000Y-119340000D01*
X121452000Y-119815000D02*
X120977000Y-119815000D01*
%TO.C,R16*%
X84342500Y-103631276D02*
X84342500Y-104140724D01*
X83297500Y-103631276D02*
X83297500Y-104140724D01*
%TO.C,R17*%
X83057276Y-108980500D02*
X83566724Y-108980500D01*
X83057276Y-107935500D02*
X83566724Y-107935500D01*
%TO.C,R12*%
X111520500Y-124714724D02*
X111520500Y-124205276D01*
X110475500Y-124714724D02*
X110475500Y-124205276D01*
D10*
%TO.C,TP19*%
X78458000Y-93726000D02*
G75*
G03*
X78458000Y-93726000I-1750000J0D01*
G01*
D13*
%TO.C,J10*%
X99832000Y-142457000D02*
X99832000Y-143207000D01*
X99822000Y-142447000D02*
X99822000Y-148417000D01*
X107442000Y-142447000D02*
X99822000Y-142447000D01*
X101632000Y-142457000D02*
X99832000Y-142457000D01*
X106682000Y-144707000D02*
X106682000Y-147657000D01*
X99822000Y-148417000D02*
X107442000Y-148417000D01*
X103132000Y-142457000D02*
X103132000Y-143207000D01*
X100582000Y-144707000D02*
X100582000Y-147657000D01*
X101632000Y-143207000D02*
X101632000Y-142457000D01*
X99832000Y-144707000D02*
X100582000Y-144707000D01*
X107432000Y-144707000D02*
X106682000Y-144707000D01*
X99532000Y-142157000D02*
X99532000Y-143407000D01*
X106682000Y-147657000D02*
X103632000Y-147657000D01*
X100782000Y-142157000D02*
X99532000Y-142157000D01*
X105632000Y-143207000D02*
X107432000Y-143207000D01*
X107432000Y-142457000D02*
X105632000Y-142457000D01*
X107442000Y-148417000D02*
X107442000Y-142447000D01*
X103132000Y-143207000D02*
X104132000Y-143207000D01*
X100582000Y-147657000D02*
X103632000Y-147657000D01*
X104132000Y-143207000D02*
X104132000Y-142457000D01*
X99832000Y-143207000D02*
X101632000Y-143207000D01*
X105632000Y-142457000D02*
X105632000Y-143207000D01*
X104132000Y-142457000D02*
X103132000Y-142457000D01*
X107432000Y-143207000D02*
X107432000Y-142457000D01*
%TO.C,Q1*%
X68580000Y-109438000D02*
X69230000Y-109438000D01*
X68580000Y-112558000D02*
X67930000Y-112558000D01*
X68580000Y-112558000D02*
X69230000Y-112558000D01*
X68580000Y-109438000D02*
X66905000Y-109438000D01*
%TO.C,FB1*%
X117557733Y-126744000D02*
X117900267Y-126744000D01*
X117557733Y-127764000D02*
X117900267Y-127764000D01*
%TO.C,C11*%
X76706000Y-103358733D02*
X76706000Y-103651267D01*
X77726000Y-103358733D02*
X77726000Y-103651267D01*
%TO.C,R29*%
X120381500Y-122427276D02*
X120381500Y-122936724D01*
X121426500Y-122427276D02*
X121426500Y-122936724D01*
%TO.C,R24*%
X127268500Y-149606724D02*
X127268500Y-149097276D01*
X126223500Y-149606724D02*
X126223500Y-149097276D01*
%TO.C,J7*%
X94074000Y-112677000D02*
X95064000Y-112677000D01*
X94074000Y-107507000D02*
X94074000Y-108557000D01*
X92924000Y-107507000D02*
X94074000Y-107507000D01*
X90954000Y-112557000D02*
X90954000Y-108677000D01*
X94074000Y-113727000D02*
X94074000Y-112677000D01*
X92924000Y-113727000D02*
X94074000Y-113727000D01*
%TO.C,R13*%
X124841724Y-153176500D02*
X124332276Y-153176500D01*
X124841724Y-152131500D02*
X124332276Y-152131500D01*
%TO.C,R10*%
X88264276Y-129427500D02*
X88773724Y-129427500D01*
X88264276Y-128382500D02*
X88773724Y-128382500D01*
%TO.C,R8*%
X104535500Y-105791724D02*
X104535500Y-105282276D01*
X103490500Y-105791724D02*
X103490500Y-105282276D01*
%TO.C,D8*%
X111733000Y-121577000D02*
X111733000Y-119117000D01*
X110263000Y-119117000D02*
X110263000Y-121577000D01*
X111733000Y-119117000D02*
X110263000Y-119117000D01*
%TO.C,R22*%
X92978500Y-98043276D02*
X92978500Y-98552724D01*
X91933500Y-98043276D02*
X91933500Y-98552724D01*
%TO.C,J5*%
X87566000Y-142129000D02*
X87566000Y-143929000D01*
X78366000Y-156829000D02*
X78366000Y-142129000D01*
X87566000Y-148329000D02*
X87566000Y-156829000D01*
X79766000Y-141829000D02*
X78066000Y-141829000D01*
X85466000Y-142129000D02*
X87566000Y-142129000D01*
X87566000Y-156829000D02*
X78366000Y-156829000D01*
X78066000Y-141829000D02*
X78066000Y-143429000D01*
X78366000Y-142129000D02*
X80466000Y-142129000D01*
%TO.C,C4*%
X96243563Y-130276000D02*
X97308000Y-131340437D01*
X87652437Y-130276000D02*
X90438000Y-130276000D01*
X94708000Y-128786000D02*
X94708000Y-130036000D01*
X96243563Y-130276000D02*
X93458000Y-130276000D01*
X97308000Y-131340437D02*
X97308000Y-140996000D01*
X86588000Y-140996000D02*
X90438000Y-140996000D01*
X95333000Y-129411000D02*
X94083000Y-129411000D01*
X87652437Y-130276000D02*
X86588000Y-131340437D01*
X86588000Y-131340437D02*
X86588000Y-140996000D01*
X97308000Y-140996000D02*
X93458000Y-140996000D01*
D10*
%TO.C,D6*%
X96973000Y-145288000D02*
G75*
G03*
X96973000Y-145288000I-75000J0D01*
G01*
D13*
%TO.C,J2*%
X95785000Y-123353000D02*
X97035000Y-123353000D01*
X102045000Y-115443000D02*
X96075000Y-115443000D01*
X95785000Y-122103000D02*
X95785000Y-123353000D01*
X96085000Y-118753000D02*
X96085000Y-119753000D01*
X96085000Y-123053000D02*
X96835000Y-123053000D01*
X101285000Y-116203000D02*
X101285000Y-119253000D01*
X102045000Y-123063000D02*
X102045000Y-115443000D01*
X96075000Y-123063000D02*
X102045000Y-123063000D01*
X98335000Y-123053000D02*
X98335000Y-122303000D01*
X96075000Y-115443000D02*
X96075000Y-123063000D01*
X101285000Y-122303000D02*
X101285000Y-119253000D01*
X96835000Y-115453000D02*
X96085000Y-115453000D01*
X96835000Y-123053000D02*
X96835000Y-121253000D01*
X96085000Y-117253000D02*
X96835000Y-117253000D01*
X96835000Y-117253000D02*
X96835000Y-115453000D01*
X96835000Y-119753000D02*
X96835000Y-118753000D01*
X96835000Y-118753000D02*
X96085000Y-118753000D01*
X98335000Y-116203000D02*
X101285000Y-116203000D01*
X96835000Y-121253000D02*
X96085000Y-121253000D01*
X96085000Y-119753000D02*
X96835000Y-119753000D01*
X96085000Y-115453000D02*
X96085000Y-117253000D01*
X96085000Y-121253000D02*
X96085000Y-123053000D01*
X98335000Y-122303000D02*
X101285000Y-122303000D01*
X98335000Y-115453000D02*
X98335000Y-116203000D01*
%TO.C,C8*%
X93424000Y-124274000D02*
X86489000Y-124274000D01*
X86489000Y-127694000D02*
X93424000Y-127694000D01*
X86489000Y-124274000D02*
X86489000Y-127694000D01*
%TO.C,R3*%
X104662500Y-151130724D02*
X104662500Y-150621276D01*
X103617500Y-151130724D02*
X103617500Y-150621276D01*
%TO.C,C3*%
X76706000Y-99841267D02*
X76706000Y-99548733D01*
X77726000Y-99841267D02*
X77726000Y-99548733D01*
%TO.C,C13*%
X116581767Y-109495500D02*
X116289233Y-109495500D01*
X116581767Y-110515500D02*
X116289233Y-110515500D01*
%TO.C,L1*%
X73204000Y-125678000D02*
X72754000Y-125678000D01*
X67004000Y-131878000D02*
X67004000Y-125678000D01*
X67004000Y-125678000D02*
X67454000Y-125678000D01*
X73204000Y-125678000D02*
X73204000Y-131878000D01*
X67004000Y-131878000D02*
X67454000Y-131878000D01*
X73204000Y-131878000D02*
X72754000Y-131878000D01*
%TO.C,C21*%
X107700563Y-140755500D02*
X105015000Y-140755500D01*
X108765000Y-130235500D02*
X105015000Y-130235500D01*
X100745000Y-142245500D02*
X100745000Y-140995500D01*
X98245000Y-130235500D02*
X101995000Y-130235500D01*
X99309437Y-140755500D02*
X98245000Y-139691063D01*
X107700563Y-140755500D02*
X108765000Y-139691063D01*
X108765000Y-139691063D02*
X108765000Y-130235500D01*
X99309437Y-140755500D02*
X101995000Y-140755500D01*
X100120000Y-141620500D02*
X101370000Y-141620500D01*
X98245000Y-139691063D02*
X98245000Y-130235500D01*
%TO.C,R7*%
X68071276Y-108980500D02*
X68580724Y-108980500D01*
X68071276Y-107935500D02*
X68580724Y-107935500D01*
%TO.C,F1*%
X72712000Y-149108748D02*
X72712000Y-151881252D01*
X76132000Y-149108748D02*
X76132000Y-151881252D01*
%TO.C,J4*%
X109284000Y-127127000D02*
X109284000Y-119507000D01*
X109274000Y-123817000D02*
X109274000Y-122817000D01*
X107024000Y-127117000D02*
X107024000Y-126367000D01*
X108524000Y-121317000D02*
X109274000Y-121317000D01*
X109574000Y-120467000D02*
X109574000Y-119217000D01*
X107024000Y-126367000D02*
X104074000Y-126367000D01*
X103314000Y-127127000D02*
X109284000Y-127127000D01*
X109274000Y-127117000D02*
X109274000Y-125317000D01*
X108524000Y-123817000D02*
X109274000Y-123817000D01*
X107024000Y-119517000D02*
X107024000Y-120267000D01*
X109274000Y-125317000D02*
X108524000Y-125317000D01*
X103314000Y-119507000D02*
X103314000Y-127127000D01*
X108524000Y-122817000D02*
X108524000Y-123817000D01*
X104074000Y-126367000D02*
X104074000Y-123317000D01*
X108524000Y-127117000D02*
X109274000Y-127117000D01*
X104074000Y-120267000D02*
X104074000Y-123317000D01*
X109274000Y-119517000D02*
X108524000Y-119517000D01*
X107024000Y-120267000D02*
X104074000Y-120267000D01*
X108524000Y-125317000D02*
X108524000Y-127117000D01*
X109274000Y-121317000D02*
X109274000Y-119517000D01*
X108524000Y-119517000D02*
X108524000Y-121317000D01*
X109274000Y-122817000D02*
X108524000Y-122817000D01*
X109284000Y-119507000D02*
X103314000Y-119507000D01*
X109574000Y-119217000D02*
X108324000Y-119217000D01*
%TO.C,C7*%
X116289233Y-120421500D02*
X116581767Y-120421500D01*
X116289233Y-119401500D02*
X116581767Y-119401500D01*
%TO.C,R1*%
X91298500Y-155321724D02*
X91298500Y-154812276D01*
X92343500Y-155321724D02*
X92343500Y-154812276D01*
%TO.C,R18*%
X116690224Y-122339000D02*
X116180776Y-122339000D01*
X116690224Y-121294000D02*
X116180776Y-121294000D01*
%TO.C,R2*%
X104662500Y-154813724D02*
X104662500Y-154304276D01*
X103617500Y-154813724D02*
X103617500Y-154304276D01*
%TO.C,U2*%
X85083000Y-130249000D02*
X85083000Y-128749000D01*
X84133000Y-128749000D02*
X84133000Y-123624000D01*
X75633000Y-128749000D02*
X75633000Y-127649000D01*
X74683000Y-128749000D02*
X75633000Y-128749000D01*
X74683000Y-130249000D02*
X74683000Y-128749000D01*
X85083000Y-128749000D02*
X84133000Y-128749000D01*
%TO.C,R27*%
X127014500Y-125856276D02*
X127014500Y-126365724D01*
X125969500Y-125856276D02*
X125969500Y-126365724D01*
D10*
%TO.C,D12*%
X106120000Y-149349000D02*
G75*
G03*
X106120000Y-149349000I-75000J0D01*
G01*
D13*
%TO.C,J6*%
X113409000Y-118542000D02*
X113409000Y-118042000D01*
X113169000Y-118302000D02*
X113169000Y-108022000D01*
X109748000Y-111656000D02*
X109783000Y-111691000D01*
X103248000Y-118302000D02*
X113169000Y-118302000D01*
X112609000Y-118302000D02*
X112609000Y-108022000D01*
X109532000Y-111849000D02*
X109578000Y-111896000D01*
X106208000Y-118302000D02*
X106208000Y-108022000D01*
X103248000Y-108022000D02*
X113169000Y-108022000D01*
X111109000Y-118302000D02*
X111109000Y-108022000D01*
X112669000Y-118542000D02*
X113409000Y-118542000D01*
X107234000Y-109552000D02*
X107270000Y-109587000D01*
X103248000Y-118302000D02*
X103248000Y-108022000D01*
X107440000Y-109347000D02*
X107486000Y-109394000D01*
X110189253Y-115673195D02*
G75*
G02*
X110044000Y-116386000I-1680253J-28805D01*
G01*
X109192042Y-117237426D02*
G75*
G02*
X107825000Y-117237000I-683042J1535426D01*
G01*
X107825958Y-114166574D02*
G75*
G02*
X109193000Y-114167000I683042J-1535426D01*
G01*
X110043756Y-115018682D02*
G75*
G02*
X110189000Y-115702000I-1534756J-683318D01*
G01*
X106973574Y-116385042D02*
G75*
G02*
X106974000Y-115018000I1535426J683042D01*
G01*
X110189000Y-110622000D02*
G75*
G03*
X110189000Y-110622000I-1680000J0D01*
G01*
%TO.C,R6*%
X68071276Y-106284500D02*
X68580724Y-106284500D01*
X68071276Y-107329500D02*
X68580724Y-107329500D01*
D14*
%TO.C,U3*%
X95041000Y-147813000D02*
X91141000Y-147813000D01*
X95041000Y-142763000D02*
X91141000Y-142763000D01*
D15*
X97231000Y-147593000D02*
G75*
G03*
X97231000Y-147593000I-100000J0D01*
G01*
D13*
%TO.C,Q4*%
X79775000Y-101509000D02*
X79775000Y-95499000D01*
X86595000Y-95499000D02*
X85335000Y-95499000D01*
X86595000Y-99259000D02*
X86595000Y-95499000D01*
X79775000Y-95499000D02*
X81035000Y-95499000D01*
%TO.C,SW1*%
X132972000Y-110618000D02*
X132672000Y-110618000D01*
X132672000Y-113918000D02*
X132972000Y-113918000D01*
X132972000Y-113918000D02*
X132972000Y-110618000D01*
X130172000Y-110618000D02*
X130472000Y-110618000D01*
X130172000Y-113918000D02*
X130172000Y-110618000D01*
X130472000Y-113918000D02*
X130172000Y-113918000D01*
%TO.C,C1*%
X120884733Y-107821000D02*
X121177267Y-107821000D01*
X120884733Y-108841000D02*
X121177267Y-108841000D01*
%TO.C,D7*%
X96239000Y-123816000D02*
X94769000Y-123816000D01*
X94769000Y-123816000D02*
X94769000Y-126276000D01*
X96239000Y-126276000D02*
X96239000Y-123816000D01*
%TO.C,C10*%
X127256000Y-122154733D02*
X127256000Y-122447267D01*
X126236000Y-122154733D02*
X126236000Y-122447267D01*
%TO.C,D11*%
X86122000Y-106721000D02*
X86122000Y-102871000D01*
X88122000Y-106721000D02*
X88122000Y-102871000D01*
X86122000Y-106721000D02*
X88122000Y-106721000D01*
%TO.C,R4*%
X98820500Y-147573276D02*
X98820500Y-148082724D01*
X97775500Y-147573276D02*
X97775500Y-148082724D01*
%TO.C,R25*%
X125236500Y-149606724D02*
X125236500Y-149097276D01*
X124191500Y-149606724D02*
X124191500Y-149097276D01*
%TO.C,D1*%
X90814000Y-123311000D02*
X90814000Y-117611000D01*
X90814000Y-123311000D02*
X95114000Y-123311000D01*
X95114000Y-123311000D02*
X95114000Y-117611000D01*
%TO.C,R15*%
X75564276Y-108980500D02*
X76073724Y-108980500D01*
X75564276Y-107935500D02*
X76073724Y-107935500D01*
%TD*%
M02*
