%TF.GenerationSoftware,KiCad,Pcbnew,(5.1.8-0-10_14)*%
%TF.CreationDate,2020-12-22T15:13:40+01:00*%
%TF.ProjectId,sucker-one-mainboard,7375636b-6572-42d6-9f6e-652d6d61696e,rev?*%
%TF.SameCoordinates,Original*%
%TF.FileFunction,Soldermask,Bot*%
%TF.FilePolarity,Negative*%
%FSLAX46Y46*%
G04 Gerber Fmt 4.6, Leading zero omitted, Abs format (unit mm)*
G04 Created by KiCad (PCBNEW (5.1.8-0-10_14)) date 2020-12-22 15:13:40*
%MOMM*%
%LPD*%
G01*
G04 APERTURE LIST*
%ADD10O,1.700000X2.000000*%
%ADD11C,2.300000*%
%ADD12R,1.500000X1.500000*%
%ADD13C,1.500000*%
%ADD14O,2.000000X1.700000*%
%ADD15O,1.950000X1.700000*%
%ADD16R,1.700000X1.700000*%
%ADD17O,1.700000X1.700000*%
%ADD18C,2.000000*%
%ADD19R,0.600000X2.300000*%
%ADD20C,4.000000*%
%ADD21O,1.600000X1.000000*%
%ADD22O,2.100000X1.000000*%
%ADD23C,0.650000*%
G04 APERTURE END LIST*
%TO.C,J1*%
G36*
G01*
X112180000Y-107430000D02*
X112180000Y-105930000D01*
G75*
G02*
X112430000Y-105680000I250000J0D01*
G01*
X113630000Y-105680000D01*
G75*
G02*
X113880000Y-105930000I0J-250000D01*
G01*
X113880000Y-107430000D01*
G75*
G02*
X113630000Y-107680000I-250000J0D01*
G01*
X112430000Y-107680000D01*
G75*
G02*
X112180000Y-107430000I0J250000D01*
G01*
G37*
D10*
X115530000Y-106680000D03*
%TD*%
%TO.C,J2*%
X124420000Y-106680000D03*
G36*
G01*
X121070000Y-107430000D02*
X121070000Y-105930000D01*
G75*
G02*
X121320000Y-105680000I250000J0D01*
G01*
X122520000Y-105680000D01*
G75*
G02*
X122770000Y-105930000I0J-250000D01*
G01*
X122770000Y-107430000D01*
G75*
G02*
X122520000Y-107680000I-250000J0D01*
G01*
X121320000Y-107680000D01*
G75*
G02*
X121070000Y-107430000I0J250000D01*
G01*
G37*
%TD*%
D11*
%TO.C,J3*%
X61073000Y-70510000D03*
D12*
X63373000Y-66040000D03*
D13*
X65913000Y-65020000D03*
X63373000Y-64000000D03*
D11*
X61073000Y-58510000D03*
D13*
X65913000Y-62980000D03*
%TD*%
%TO.C,J4*%
G36*
G01*
X103290000Y-107430000D02*
X103290000Y-105930000D01*
G75*
G02*
X103540000Y-105680000I250000J0D01*
G01*
X104740000Y-105680000D01*
G75*
G02*
X104990000Y-105930000I0J-250000D01*
G01*
X104990000Y-107430000D01*
G75*
G02*
X104740000Y-107680000I-250000J0D01*
G01*
X103540000Y-107680000D01*
G75*
G02*
X103290000Y-107430000I0J250000D01*
G01*
G37*
D10*
X106640000Y-106680000D03*
%TD*%
D14*
%TO.C,J10*%
X65024000Y-78780000D03*
G36*
G01*
X65774000Y-82130000D02*
X64274000Y-82130000D01*
G75*
G02*
X64024000Y-81880000I0J250000D01*
G01*
X64024000Y-80680000D01*
G75*
G02*
X64274000Y-80430000I250000J0D01*
G01*
X65774000Y-80430000D01*
G75*
G02*
X66024000Y-80680000I0J-250000D01*
G01*
X66024000Y-81880000D01*
G75*
G02*
X65774000Y-82130000I-250000J0D01*
G01*
G37*
%TD*%
%TO.C,J11*%
G36*
G01*
X131355000Y-91352000D02*
X132805000Y-91352000D01*
G75*
G02*
X133055000Y-91602000I0J-250000D01*
G01*
X133055000Y-92802000D01*
G75*
G02*
X132805000Y-93052000I-250000J0D01*
G01*
X131355000Y-93052000D01*
G75*
G02*
X131105000Y-92802000I0J250000D01*
G01*
X131105000Y-91602000D01*
G75*
G02*
X131355000Y-91352000I250000J0D01*
G01*
G37*
D15*
X132080000Y-94702000D03*
X132080000Y-97202000D03*
X132080000Y-99702000D03*
X132080000Y-102202000D03*
%TD*%
D16*
%TO.C,J12*%
X114300000Y-70612000D03*
D17*
X114300000Y-68072000D03*
X114300000Y-65532000D03*
X114300000Y-62992000D03*
X114300000Y-60452000D03*
X114300000Y-57912000D03*
%TD*%
D18*
%TO.C,TP1*%
X92964000Y-110744000D03*
%TD*%
%TO.C,TP2*%
X89916000Y-110744000D03*
%TD*%
%TO.C,TP3*%
X112268000Y-110744000D03*
%TD*%
%TO.C,TP4*%
X115824000Y-110744000D03*
%TD*%
%TO.C,TP5*%
X127000000Y-104140000D03*
%TD*%
%TO.C,TP6*%
X121412000Y-110744000D03*
%TD*%
%TO.C,TP7*%
X124968000Y-110744000D03*
%TD*%
%TO.C,TP8*%
X103632000Y-110744000D03*
%TD*%
%TO.C,TP9*%
X107188000Y-110744000D03*
%TD*%
%TO.C,TP10*%
X93472000Y-106680000D03*
%TD*%
%TO.C,TP11*%
X99568000Y-106680000D03*
%TD*%
%TO.C,TP12*%
X96520000Y-106680000D03*
%TD*%
%TO.C,TP13*%
X99568000Y-109728000D03*
%TD*%
%TO.C,TP14*%
X100076000Y-66040000D03*
%TD*%
%TO.C,TP15*%
X100076000Y-69088000D03*
%TD*%
%TO.C,TP16*%
X80264000Y-56896000D03*
%TD*%
%TO.C,TP17*%
X69596000Y-86868000D03*
%TD*%
%TO.C,TP18*%
X73152000Y-86868000D03*
%TD*%
%TO.C,TP19*%
X83312000Y-56896000D03*
%TD*%
%TO.C,TP22*%
X94488000Y-56896000D03*
%TD*%
%TO.C,TP23*%
X91440000Y-56896000D03*
%TD*%
%TO.C,TP24*%
X88392000Y-56896000D03*
%TD*%
%TO.C,TP25*%
X99060000Y-56896000D03*
%TD*%
%TO.C,TP26*%
X102108000Y-56896000D03*
%TD*%
%TO.C,TP27*%
X105156000Y-56896000D03*
%TD*%
%TO.C,TP28*%
X108204000Y-56896000D03*
%TD*%
%TO.C,TP29*%
X75184000Y-55880000D03*
%TD*%
%TO.C,TP30*%
X76708000Y-52832000D03*
%TD*%
%TO.C,TP31*%
X80772000Y-86868000D03*
%TD*%
%TO.C,TP32*%
X98044000Y-76708000D03*
%TD*%
D19*
%TO.C,U4*%
X112776000Y-90735000D03*
X114046000Y-90735000D03*
X111506000Y-90735000D03*
X112776000Y-81985000D03*
X111506000Y-81985000D03*
X114046000Y-81985000D03*
D20*
X112776000Y-86360000D03*
%TD*%
D21*
%TO.C,USB1*%
X83880000Y-102618000D03*
X83880000Y-93978000D03*
D22*
X88060000Y-102618000D03*
X88060000Y-93978000D03*
D23*
X87530000Y-95408000D03*
X87530000Y-101188000D03*
%TD*%
%TO.C,SW1*%
G36*
G01*
X125056000Y-85864000D02*
X125056000Y-87364000D01*
G75*
G02*
X124806000Y-87614000I-250000J0D01*
G01*
X123606000Y-87614000D01*
G75*
G02*
X123356000Y-87364000I0J250000D01*
G01*
X123356000Y-85864000D01*
G75*
G02*
X123606000Y-85614000I250000J0D01*
G01*
X124806000Y-85614000D01*
G75*
G02*
X125056000Y-85864000I0J-250000D01*
G01*
G37*
D10*
X121706000Y-86614000D03*
%TD*%
M02*
