%TF.GenerationSoftware,KiCad,Pcbnew,(5.99.0-10573-gc33b2cfa8d)*%
%TF.CreationDate,2021-05-19T15:13:12+02:00*%
%TF.ProjectId,sucker-one-mainboard,7375636b-6572-42d6-9f6e-652d6d61696e,rev?*%
%TF.SameCoordinates,Original*%
%TF.FileFunction,Legend,Top*%
%TF.FilePolarity,Positive*%
%FSLAX46Y46*%
G04 Gerber Fmt 4.6, Leading zero omitted, Abs format (unit mm)*
G04 Created by KiCad (PCBNEW (5.99.0-10573-gc33b2cfa8d)) date 2021-05-19 15:13:12*
%MOMM*%
%LPD*%
G01*
G04 APERTURE LIST*
%ADD10C,0.120000*%
%ADD11C,0.130000*%
%ADD12C,0.015000*%
%ADD13C,0.150000*%
%ADD14C,0.249999*%
%ADD15C,0.127000*%
%ADD16C,0.200000*%
G04 APERTURE END LIST*
D10*
X98196400Y-147320000D02*
X98755200Y-147523200D01*
D11*
%TO.C,Q6*%
X121299295Y-119329552D02*
X121237390Y-119298600D01*
X121175485Y-119236695D01*
X121082628Y-119143838D01*
X121020723Y-119112885D01*
X120958819Y-119112885D01*
X120989771Y-119267647D02*
X120927866Y-119236695D01*
X120865961Y-119174790D01*
X120835009Y-119050980D01*
X120835009Y-118834314D01*
X120865961Y-118710504D01*
X120927866Y-118648600D01*
X120989771Y-118617647D01*
X121113580Y-118617647D01*
X121175485Y-118648600D01*
X121237390Y-118710504D01*
X121268342Y-118834314D01*
X121268342Y-119050980D01*
X121237390Y-119174790D01*
X121175485Y-119236695D01*
X121113580Y-119267647D01*
X120989771Y-119267647D01*
X121825485Y-118617647D02*
X121701676Y-118617647D01*
X121639771Y-118648600D01*
X121608819Y-118679552D01*
X121546914Y-118772409D01*
X121515961Y-118896219D01*
X121515961Y-119143838D01*
X121546914Y-119205742D01*
X121577866Y-119236695D01*
X121639771Y-119267647D01*
X121763580Y-119267647D01*
X121825485Y-119236695D01*
X121856438Y-119205742D01*
X121887390Y-119143838D01*
X121887390Y-118989076D01*
X121856438Y-118927171D01*
X121825485Y-118896219D01*
X121763580Y-118865266D01*
X121639771Y-118865266D01*
X121577866Y-118896219D01*
X121546914Y-118927171D01*
X121515961Y-118989076D01*
%TO.C,Q2*%
X76773095Y-108534552D02*
X76711190Y-108503600D01*
X76649285Y-108441695D01*
X76556428Y-108348838D01*
X76494523Y-108317885D01*
X76432619Y-108317885D01*
X76463571Y-108472647D02*
X76401666Y-108441695D01*
X76339761Y-108379790D01*
X76308809Y-108255980D01*
X76308809Y-108039314D01*
X76339761Y-107915504D01*
X76401666Y-107853600D01*
X76463571Y-107822647D01*
X76587380Y-107822647D01*
X76649285Y-107853600D01*
X76711190Y-107915504D01*
X76742142Y-108039314D01*
X76742142Y-108255980D01*
X76711190Y-108379790D01*
X76649285Y-108441695D01*
X76587380Y-108472647D01*
X76463571Y-108472647D01*
X76989761Y-107884552D02*
X77020714Y-107853600D01*
X77082619Y-107822647D01*
X77237380Y-107822647D01*
X77299285Y-107853600D01*
X77330238Y-107884552D01*
X77361190Y-107946457D01*
X77361190Y-108008361D01*
X77330238Y-108101219D01*
X76958809Y-108472647D01*
X77361190Y-108472647D01*
%TO.C,R27*%
X91607047Y-131761257D02*
X91297523Y-131977923D01*
X91607047Y-132132685D02*
X90957047Y-132132685D01*
X90957047Y-131885066D01*
X90988000Y-131823161D01*
X91018952Y-131792209D01*
X91080857Y-131761257D01*
X91173714Y-131761257D01*
X91235619Y-131792209D01*
X91266571Y-131823161D01*
X91297523Y-131885066D01*
X91297523Y-132132685D01*
X91018952Y-131513638D02*
X90988000Y-131482685D01*
X90957047Y-131420780D01*
X90957047Y-131266019D01*
X90988000Y-131204114D01*
X91018952Y-131173161D01*
X91080857Y-131142209D01*
X91142761Y-131142209D01*
X91235619Y-131173161D01*
X91607047Y-131544590D01*
X91607047Y-131142209D01*
X90957047Y-130925542D02*
X90957047Y-130492209D01*
X91607047Y-130770780D01*
%TO.C,R23*%
X118302447Y-130719857D02*
X117992923Y-130936523D01*
X118302447Y-131091285D02*
X117652447Y-131091285D01*
X117652447Y-130843666D01*
X117683400Y-130781761D01*
X117714352Y-130750809D01*
X117776257Y-130719857D01*
X117869114Y-130719857D01*
X117931019Y-130750809D01*
X117961971Y-130781761D01*
X117992923Y-130843666D01*
X117992923Y-131091285D01*
X117714352Y-130472238D02*
X117683400Y-130441285D01*
X117652447Y-130379380D01*
X117652447Y-130224619D01*
X117683400Y-130162714D01*
X117714352Y-130131761D01*
X117776257Y-130100809D01*
X117838161Y-130100809D01*
X117931019Y-130131761D01*
X118302447Y-130503190D01*
X118302447Y-130100809D01*
X117652447Y-129884142D02*
X117652447Y-129481761D01*
X117900066Y-129698428D01*
X117900066Y-129605571D01*
X117931019Y-129543666D01*
X117961971Y-129512714D01*
X118023876Y-129481761D01*
X118178638Y-129481761D01*
X118240542Y-129512714D01*
X118271495Y-129543666D01*
X118302447Y-129605571D01*
X118302447Y-129791285D01*
X118271495Y-129853190D01*
X118240542Y-129884142D01*
%TO.C,C4*%
X77691866Y-128298942D02*
X77660914Y-128329895D01*
X77568057Y-128360847D01*
X77506152Y-128360847D01*
X77413295Y-128329895D01*
X77351390Y-128267990D01*
X77320438Y-128206085D01*
X77289485Y-128082276D01*
X77289485Y-127989419D01*
X77320438Y-127865609D01*
X77351390Y-127803704D01*
X77413295Y-127741800D01*
X77506152Y-127710847D01*
X77568057Y-127710847D01*
X77660914Y-127741800D01*
X77691866Y-127772752D01*
X78249009Y-127927514D02*
X78249009Y-128360847D01*
X78094247Y-127679895D02*
X77939485Y-128144180D01*
X78341866Y-128144180D01*
%TO.C,C6*%
X93008066Y-122533142D02*
X92977114Y-122564095D01*
X92884257Y-122595047D01*
X92822352Y-122595047D01*
X92729495Y-122564095D01*
X92667590Y-122502190D01*
X92636638Y-122440285D01*
X92605685Y-122316476D01*
X92605685Y-122223619D01*
X92636638Y-122099809D01*
X92667590Y-122037904D01*
X92729495Y-121976000D01*
X92822352Y-121945047D01*
X92884257Y-121945047D01*
X92977114Y-121976000D01*
X93008066Y-122006952D01*
X93565209Y-121945047D02*
X93441400Y-121945047D01*
X93379495Y-121976000D01*
X93348542Y-122006952D01*
X93286638Y-122099809D01*
X93255685Y-122223619D01*
X93255685Y-122471238D01*
X93286638Y-122533142D01*
X93317590Y-122564095D01*
X93379495Y-122595047D01*
X93503304Y-122595047D01*
X93565209Y-122564095D01*
X93596161Y-122533142D01*
X93627114Y-122471238D01*
X93627114Y-122316476D01*
X93596161Y-122254571D01*
X93565209Y-122223619D01*
X93503304Y-122192666D01*
X93379495Y-122192666D01*
X93317590Y-122223619D01*
X93286638Y-122254571D01*
X93255685Y-122316476D01*
%TO.C,Q3*%
X84266095Y-108610752D02*
X84204190Y-108579800D01*
X84142285Y-108517895D01*
X84049428Y-108425038D01*
X83987523Y-108394085D01*
X83925619Y-108394085D01*
X83956571Y-108548847D02*
X83894666Y-108517895D01*
X83832761Y-108455990D01*
X83801809Y-108332180D01*
X83801809Y-108115514D01*
X83832761Y-107991704D01*
X83894666Y-107929800D01*
X83956571Y-107898847D01*
X84080380Y-107898847D01*
X84142285Y-107929800D01*
X84204190Y-107991704D01*
X84235142Y-108115514D01*
X84235142Y-108332180D01*
X84204190Y-108455990D01*
X84142285Y-108517895D01*
X84080380Y-108548847D01*
X83956571Y-108548847D01*
X84451809Y-107898847D02*
X84854190Y-107898847D01*
X84637523Y-108146466D01*
X84730380Y-108146466D01*
X84792285Y-108177419D01*
X84823238Y-108208371D01*
X84854190Y-108270276D01*
X84854190Y-108425038D01*
X84823238Y-108486942D01*
X84792285Y-108517895D01*
X84730380Y-108548847D01*
X84544666Y-108548847D01*
X84482761Y-108517895D01*
X84451809Y-108486942D01*
%TO.C,D2*%
X101272638Y-102960847D02*
X101272638Y-102310847D01*
X101427400Y-102310847D01*
X101520257Y-102341800D01*
X101582161Y-102403704D01*
X101613114Y-102465609D01*
X101644066Y-102589419D01*
X101644066Y-102682276D01*
X101613114Y-102806085D01*
X101582161Y-102867990D01*
X101520257Y-102929895D01*
X101427400Y-102960847D01*
X101272638Y-102960847D01*
X101891685Y-102372752D02*
X101922638Y-102341800D01*
X101984542Y-102310847D01*
X102139304Y-102310847D01*
X102201209Y-102341800D01*
X102232161Y-102372752D01*
X102263114Y-102434657D01*
X102263114Y-102496561D01*
X102232161Y-102589419D01*
X101860733Y-102960847D01*
X102263114Y-102960847D01*
%TO.C,R14*%
X127064742Y-148452247D02*
X126848076Y-148142723D01*
X126693314Y-148452247D02*
X126693314Y-147802247D01*
X126940933Y-147802247D01*
X127002838Y-147833200D01*
X127033790Y-147864152D01*
X127064742Y-147926057D01*
X127064742Y-148018914D01*
X127033790Y-148080819D01*
X127002838Y-148111771D01*
X126940933Y-148142723D01*
X126693314Y-148142723D01*
X127683790Y-148452247D02*
X127312361Y-148452247D01*
X127498076Y-148452247D02*
X127498076Y-147802247D01*
X127436171Y-147895104D01*
X127374266Y-147957009D01*
X127312361Y-147987961D01*
X128240933Y-148018914D02*
X128240933Y-148452247D01*
X128086171Y-147771295D02*
X127931409Y-148235580D01*
X128333790Y-148235580D01*
%TO.C,R11*%
X83656142Y-99354047D02*
X83439476Y-99044523D01*
X83284714Y-99354047D02*
X83284714Y-98704047D01*
X83532333Y-98704047D01*
X83594238Y-98735000D01*
X83625190Y-98765952D01*
X83656142Y-98827857D01*
X83656142Y-98920714D01*
X83625190Y-98982619D01*
X83594238Y-99013571D01*
X83532333Y-99044523D01*
X83284714Y-99044523D01*
X84275190Y-99354047D02*
X83903761Y-99354047D01*
X84089476Y-99354047D02*
X84089476Y-98704047D01*
X84027571Y-98796904D01*
X83965666Y-98858809D01*
X83903761Y-98889761D01*
X84894238Y-99354047D02*
X84522809Y-99354047D01*
X84708523Y-99354047D02*
X84708523Y-98704047D01*
X84646619Y-98796904D01*
X84584714Y-98858809D01*
X84522809Y-98889761D01*
%TO.C,J8*%
X91985333Y-101117047D02*
X91985333Y-101581333D01*
X91954380Y-101674190D01*
X91892476Y-101736095D01*
X91799619Y-101767047D01*
X91737714Y-101767047D01*
X92387714Y-101395619D02*
X92325809Y-101364666D01*
X92294857Y-101333714D01*
X92263904Y-101271809D01*
X92263904Y-101240857D01*
X92294857Y-101178952D01*
X92325809Y-101148000D01*
X92387714Y-101117047D01*
X92511523Y-101117047D01*
X92573428Y-101148000D01*
X92604380Y-101178952D01*
X92635333Y-101240857D01*
X92635333Y-101271809D01*
X92604380Y-101333714D01*
X92573428Y-101364666D01*
X92511523Y-101395619D01*
X92387714Y-101395619D01*
X92325809Y-101426571D01*
X92294857Y-101457523D01*
X92263904Y-101519428D01*
X92263904Y-101643238D01*
X92294857Y-101705142D01*
X92325809Y-101736095D01*
X92387714Y-101767047D01*
X92511523Y-101767047D01*
X92573428Y-101736095D01*
X92604380Y-101705142D01*
X92635333Y-101643238D01*
X92635333Y-101519428D01*
X92604380Y-101457523D01*
X92573428Y-101426571D01*
X92511523Y-101395619D01*
%TO.C,D4*%
X122888038Y-150509647D02*
X122888038Y-149859647D01*
X123042800Y-149859647D01*
X123135657Y-149890600D01*
X123197561Y-149952504D01*
X123228514Y-150014409D01*
X123259466Y-150138219D01*
X123259466Y-150231076D01*
X123228514Y-150354885D01*
X123197561Y-150416790D01*
X123135657Y-150478695D01*
X123042800Y-150509647D01*
X122888038Y-150509647D01*
X123816609Y-150076314D02*
X123816609Y-150509647D01*
X123661847Y-149828695D02*
X123507085Y-150292980D01*
X123909466Y-150292980D01*
%TO.C,U2*%
X74002961Y-121157647D02*
X74002961Y-121683838D01*
X74033914Y-121745742D01*
X74064866Y-121776695D01*
X74126771Y-121807647D01*
X74250580Y-121807647D01*
X74312485Y-121776695D01*
X74343438Y-121745742D01*
X74374390Y-121683838D01*
X74374390Y-121157647D01*
X74652961Y-121219552D02*
X74683914Y-121188600D01*
X74745819Y-121157647D01*
X74900580Y-121157647D01*
X74962485Y-121188600D01*
X74993438Y-121219552D01*
X75024390Y-121281457D01*
X75024390Y-121343361D01*
X74993438Y-121436219D01*
X74622009Y-121807647D01*
X75024390Y-121807647D01*
%TO.C,R9*%
X76498066Y-99303247D02*
X76281400Y-98993723D01*
X76126638Y-99303247D02*
X76126638Y-98653247D01*
X76374257Y-98653247D01*
X76436161Y-98684200D01*
X76467114Y-98715152D01*
X76498066Y-98777057D01*
X76498066Y-98869914D01*
X76467114Y-98931819D01*
X76436161Y-98962771D01*
X76374257Y-98993723D01*
X76126638Y-98993723D01*
X76807590Y-99303247D02*
X76931400Y-99303247D01*
X76993304Y-99272295D01*
X77024257Y-99241342D01*
X77086161Y-99148485D01*
X77117114Y-99024676D01*
X77117114Y-98777057D01*
X77086161Y-98715152D01*
X77055209Y-98684200D01*
X76993304Y-98653247D01*
X76869495Y-98653247D01*
X76807590Y-98684200D01*
X76776638Y-98715152D01*
X76745685Y-98777057D01*
X76745685Y-98931819D01*
X76776638Y-98993723D01*
X76807590Y-99024676D01*
X76869495Y-99055628D01*
X76993304Y-99055628D01*
X77055209Y-99024676D01*
X77086161Y-98993723D01*
X77117114Y-98931819D01*
%TO.C,D5*%
X96040238Y-148630047D02*
X96040238Y-147980047D01*
X96195000Y-147980047D01*
X96287857Y-148011000D01*
X96349761Y-148072904D01*
X96380714Y-148134809D01*
X96411666Y-148258619D01*
X96411666Y-148351476D01*
X96380714Y-148475285D01*
X96349761Y-148537190D01*
X96287857Y-148599095D01*
X96195000Y-148630047D01*
X96040238Y-148630047D01*
X96999761Y-147980047D02*
X96690238Y-147980047D01*
X96659285Y-148289571D01*
X96690238Y-148258619D01*
X96752142Y-148227666D01*
X96906904Y-148227666D01*
X96968809Y-148258619D01*
X96999761Y-148289571D01*
X97030714Y-148351476D01*
X97030714Y-148506238D01*
X96999761Y-148568142D01*
X96968809Y-148599095D01*
X96906904Y-148630047D01*
X96752142Y-148630047D01*
X96690238Y-148599095D01*
X96659285Y-148568142D01*
%TO.C,C13*%
X92688142Y-146061457D02*
X92719095Y-146092409D01*
X92750047Y-146185266D01*
X92750047Y-146247171D01*
X92719095Y-146340028D01*
X92657190Y-146401933D01*
X92595285Y-146432885D01*
X92471476Y-146463838D01*
X92378619Y-146463838D01*
X92254809Y-146432885D01*
X92192904Y-146401933D01*
X92131000Y-146340028D01*
X92100047Y-146247171D01*
X92100047Y-146185266D01*
X92131000Y-146092409D01*
X92161952Y-146061457D01*
X92750047Y-145442409D02*
X92750047Y-145813838D01*
X92750047Y-145628123D02*
X92100047Y-145628123D01*
X92192904Y-145690028D01*
X92254809Y-145751933D01*
X92285761Y-145813838D01*
X92100047Y-145225742D02*
X92100047Y-144823361D01*
X92347666Y-145040028D01*
X92347666Y-144947171D01*
X92378619Y-144885266D01*
X92409571Y-144854314D01*
X92471476Y-144823361D01*
X92626238Y-144823361D01*
X92688142Y-144854314D01*
X92719095Y-144885266D01*
X92750047Y-144947171D01*
X92750047Y-145132885D01*
X92719095Y-145194790D01*
X92688142Y-145225742D01*
%TO.C,U1*%
X86499761Y-137286647D02*
X86499761Y-137812838D01*
X86530714Y-137874742D01*
X86561666Y-137905695D01*
X86623571Y-137936647D01*
X86747380Y-137936647D01*
X86809285Y-137905695D01*
X86840238Y-137874742D01*
X86871190Y-137812838D01*
X86871190Y-137286647D01*
X87521190Y-137936647D02*
X87149761Y-137936647D01*
X87335476Y-137936647D02*
X87335476Y-137286647D01*
X87273571Y-137379504D01*
X87211666Y-137441409D01*
X87149761Y-137472361D01*
%TO.C,R21*%
X85484942Y-109717247D02*
X85268276Y-109407723D01*
X85113514Y-109717247D02*
X85113514Y-109067247D01*
X85361133Y-109067247D01*
X85423038Y-109098200D01*
X85453990Y-109129152D01*
X85484942Y-109191057D01*
X85484942Y-109283914D01*
X85453990Y-109345819D01*
X85423038Y-109376771D01*
X85361133Y-109407723D01*
X85113514Y-109407723D01*
X85732561Y-109129152D02*
X85763514Y-109098200D01*
X85825419Y-109067247D01*
X85980180Y-109067247D01*
X86042085Y-109098200D01*
X86073038Y-109129152D01*
X86103990Y-109191057D01*
X86103990Y-109252961D01*
X86073038Y-109345819D01*
X85701609Y-109717247D01*
X86103990Y-109717247D01*
X86723038Y-109717247D02*
X86351609Y-109717247D01*
X86537323Y-109717247D02*
X86537323Y-109067247D01*
X86475419Y-109160104D01*
X86413514Y-109222009D01*
X86351609Y-109252961D01*
%TO.C,C10*%
X96660942Y-147399742D02*
X96629990Y-147430695D01*
X96537133Y-147461647D01*
X96475228Y-147461647D01*
X96382371Y-147430695D01*
X96320466Y-147368790D01*
X96289514Y-147306885D01*
X96258561Y-147183076D01*
X96258561Y-147090219D01*
X96289514Y-146966409D01*
X96320466Y-146904504D01*
X96382371Y-146842600D01*
X96475228Y-146811647D01*
X96537133Y-146811647D01*
X96629990Y-146842600D01*
X96660942Y-146873552D01*
X97279990Y-147461647D02*
X96908561Y-147461647D01*
X97094276Y-147461647D02*
X97094276Y-146811647D01*
X97032371Y-146904504D01*
X96970466Y-146966409D01*
X96908561Y-146997361D01*
X97682371Y-146811647D02*
X97744276Y-146811647D01*
X97806180Y-146842600D01*
X97837133Y-146873552D01*
X97868085Y-146935457D01*
X97899038Y-147059266D01*
X97899038Y-147214028D01*
X97868085Y-147337838D01*
X97837133Y-147399742D01*
X97806180Y-147430695D01*
X97744276Y-147461647D01*
X97682371Y-147461647D01*
X97620466Y-147430695D01*
X97589514Y-147399742D01*
X97558561Y-147337838D01*
X97527609Y-147214028D01*
X97527609Y-147059266D01*
X97558561Y-146935457D01*
X97589514Y-146873552D01*
X97620466Y-146842600D01*
X97682371Y-146811647D01*
%TO.C,D9*%
X79809638Y-106212047D02*
X79809638Y-105562047D01*
X79964400Y-105562047D01*
X80057257Y-105593000D01*
X80119161Y-105654904D01*
X80150114Y-105716809D01*
X80181066Y-105840619D01*
X80181066Y-105933476D01*
X80150114Y-106057285D01*
X80119161Y-106119190D01*
X80057257Y-106181095D01*
X79964400Y-106212047D01*
X79809638Y-106212047D01*
X80490590Y-106212047D02*
X80614400Y-106212047D01*
X80676304Y-106181095D01*
X80707257Y-106150142D01*
X80769161Y-106057285D01*
X80800114Y-105933476D01*
X80800114Y-105685857D01*
X80769161Y-105623952D01*
X80738209Y-105593000D01*
X80676304Y-105562047D01*
X80552495Y-105562047D01*
X80490590Y-105593000D01*
X80459638Y-105623952D01*
X80428685Y-105685857D01*
X80428685Y-105840619D01*
X80459638Y-105902523D01*
X80490590Y-105933476D01*
X80552495Y-105964428D01*
X80676304Y-105964428D01*
X80738209Y-105933476D01*
X80769161Y-105902523D01*
X80800114Y-105840619D01*
%TO.C,R5*%
X93766047Y-145396333D02*
X93456523Y-145613000D01*
X93766047Y-145767761D02*
X93116047Y-145767761D01*
X93116047Y-145520142D01*
X93147000Y-145458238D01*
X93177952Y-145427285D01*
X93239857Y-145396333D01*
X93332714Y-145396333D01*
X93394619Y-145427285D01*
X93425571Y-145458238D01*
X93456523Y-145520142D01*
X93456523Y-145767761D01*
X93116047Y-144808238D02*
X93116047Y-145117761D01*
X93425571Y-145148714D01*
X93394619Y-145117761D01*
X93363666Y-145055857D01*
X93363666Y-144901095D01*
X93394619Y-144839190D01*
X93425571Y-144808238D01*
X93487476Y-144777285D01*
X93642238Y-144777285D01*
X93704142Y-144808238D01*
X93735095Y-144839190D01*
X93766047Y-144901095D01*
X93766047Y-145055857D01*
X93735095Y-145117761D01*
X93704142Y-145148714D01*
%TO.C,R28*%
X106516847Y-145832857D02*
X106207323Y-146049523D01*
X106516847Y-146204285D02*
X105866847Y-146204285D01*
X105866847Y-145956666D01*
X105897800Y-145894761D01*
X105928752Y-145863809D01*
X105990657Y-145832857D01*
X106083514Y-145832857D01*
X106145419Y-145863809D01*
X106176371Y-145894761D01*
X106207323Y-145956666D01*
X106207323Y-146204285D01*
X105928752Y-145585238D02*
X105897800Y-145554285D01*
X105866847Y-145492380D01*
X105866847Y-145337619D01*
X105897800Y-145275714D01*
X105928752Y-145244761D01*
X105990657Y-145213809D01*
X106052561Y-145213809D01*
X106145419Y-145244761D01*
X106516847Y-145616190D01*
X106516847Y-145213809D01*
X106145419Y-144842380D02*
X106114466Y-144904285D01*
X106083514Y-144935238D01*
X106021609Y-144966190D01*
X105990657Y-144966190D01*
X105928752Y-144935238D01*
X105897800Y-144904285D01*
X105866847Y-144842380D01*
X105866847Y-144718571D01*
X105897800Y-144656666D01*
X105928752Y-144625714D01*
X105990657Y-144594761D01*
X106021609Y-144594761D01*
X106083514Y-144625714D01*
X106114466Y-144656666D01*
X106145419Y-144718571D01*
X106145419Y-144842380D01*
X106176371Y-144904285D01*
X106207323Y-144935238D01*
X106269228Y-144966190D01*
X106393038Y-144966190D01*
X106454942Y-144935238D01*
X106485895Y-144904285D01*
X106516847Y-144842380D01*
X106516847Y-144718571D01*
X106485895Y-144656666D01*
X106454942Y-144625714D01*
X106393038Y-144594761D01*
X106269228Y-144594761D01*
X106207323Y-144625714D01*
X106176371Y-144656666D01*
X106145419Y-144718571D01*
%TO.C,D10*%
X90057647Y-105462685D02*
X89407647Y-105462685D01*
X89407647Y-105307923D01*
X89438600Y-105215066D01*
X89500504Y-105153161D01*
X89562409Y-105122209D01*
X89686219Y-105091257D01*
X89779076Y-105091257D01*
X89902885Y-105122209D01*
X89964790Y-105153161D01*
X90026695Y-105215066D01*
X90057647Y-105307923D01*
X90057647Y-105462685D01*
X90057647Y-104472209D02*
X90057647Y-104843638D01*
X90057647Y-104657923D02*
X89407647Y-104657923D01*
X89500504Y-104719828D01*
X89562409Y-104781733D01*
X89593361Y-104843638D01*
X89407647Y-104069828D02*
X89407647Y-104007923D01*
X89438600Y-103946019D01*
X89469552Y-103915066D01*
X89531457Y-103884114D01*
X89655266Y-103853161D01*
X89810028Y-103853161D01*
X89933838Y-103884114D01*
X89995742Y-103915066D01*
X90026695Y-103946019D01*
X90057647Y-104007923D01*
X90057647Y-104069828D01*
X90026695Y-104131733D01*
X89995742Y-104162685D01*
X89933838Y-104193638D01*
X89810028Y-104224590D01*
X89655266Y-104224590D01*
X89531457Y-104193638D01*
X89469552Y-104162685D01*
X89438600Y-104131733D01*
X89407647Y-104069828D01*
%TO.C,D3*%
X72291238Y-106590047D02*
X72291238Y-105940047D01*
X72446000Y-105940047D01*
X72538857Y-105971000D01*
X72600761Y-106032904D01*
X72631714Y-106094809D01*
X72662666Y-106218619D01*
X72662666Y-106311476D01*
X72631714Y-106435285D01*
X72600761Y-106497190D01*
X72538857Y-106559095D01*
X72446000Y-106590047D01*
X72291238Y-106590047D01*
X72879333Y-105940047D02*
X73281714Y-105940047D01*
X73065047Y-106187666D01*
X73157904Y-106187666D01*
X73219809Y-106218619D01*
X73250761Y-106249571D01*
X73281714Y-106311476D01*
X73281714Y-106466238D01*
X73250761Y-106528142D01*
X73219809Y-106559095D01*
X73157904Y-106590047D01*
X72972190Y-106590047D01*
X72910285Y-106559095D01*
X72879333Y-106528142D01*
%TO.C,Y1*%
X88717476Y-125079523D02*
X88717476Y-125389047D01*
X88500809Y-124739047D02*
X88717476Y-125079523D01*
X88934142Y-124739047D01*
X89491285Y-125389047D02*
X89119857Y-125389047D01*
X89305571Y-125389047D02*
X89305571Y-124739047D01*
X89243666Y-124831904D01*
X89181761Y-124893809D01*
X89119857Y-124924761D01*
%TO.C,C17*%
X95786942Y-146061457D02*
X95817895Y-146092409D01*
X95848847Y-146185266D01*
X95848847Y-146247171D01*
X95817895Y-146340028D01*
X95755990Y-146401933D01*
X95694085Y-146432885D01*
X95570276Y-146463838D01*
X95477419Y-146463838D01*
X95353609Y-146432885D01*
X95291704Y-146401933D01*
X95229800Y-146340028D01*
X95198847Y-146247171D01*
X95198847Y-146185266D01*
X95229800Y-146092409D01*
X95260752Y-146061457D01*
X95848847Y-145442409D02*
X95848847Y-145813838D01*
X95848847Y-145628123D02*
X95198847Y-145628123D01*
X95291704Y-145690028D01*
X95353609Y-145751933D01*
X95384561Y-145813838D01*
X95198847Y-145225742D02*
X95198847Y-144792409D01*
X95848847Y-145070980D01*
%TO.C,C5*%
X72977742Y-121825133D02*
X73008695Y-121856085D01*
X73039647Y-121948942D01*
X73039647Y-122010847D01*
X73008695Y-122103704D01*
X72946790Y-122165609D01*
X72884885Y-122196561D01*
X72761076Y-122227514D01*
X72668219Y-122227514D01*
X72544409Y-122196561D01*
X72482504Y-122165609D01*
X72420600Y-122103704D01*
X72389647Y-122010847D01*
X72389647Y-121948942D01*
X72420600Y-121856085D01*
X72451552Y-121825133D01*
X72389647Y-121237038D02*
X72389647Y-121546561D01*
X72699171Y-121577514D01*
X72668219Y-121546561D01*
X72637266Y-121484657D01*
X72637266Y-121329895D01*
X72668219Y-121267990D01*
X72699171Y-121237038D01*
X72761076Y-121206085D01*
X72915838Y-121206085D01*
X72977742Y-121237038D01*
X73008695Y-121267990D01*
X73039647Y-121329895D01*
X73039647Y-121484657D01*
X73008695Y-121546561D01*
X72977742Y-121577514D01*
%TO.C,R16*%
X116778447Y-130694457D02*
X116468923Y-130911123D01*
X116778447Y-131065885D02*
X116128447Y-131065885D01*
X116128447Y-130818266D01*
X116159400Y-130756361D01*
X116190352Y-130725409D01*
X116252257Y-130694457D01*
X116345114Y-130694457D01*
X116407019Y-130725409D01*
X116437971Y-130756361D01*
X116468923Y-130818266D01*
X116468923Y-131065885D01*
X116778447Y-130075409D02*
X116778447Y-130446838D01*
X116778447Y-130261123D02*
X116128447Y-130261123D01*
X116221304Y-130323028D01*
X116283209Y-130384933D01*
X116314161Y-130446838D01*
X116128447Y-129518266D02*
X116128447Y-129642076D01*
X116159400Y-129703980D01*
X116190352Y-129734933D01*
X116283209Y-129796838D01*
X116407019Y-129827790D01*
X116654638Y-129827790D01*
X116716542Y-129796838D01*
X116747495Y-129765885D01*
X116778447Y-129703980D01*
X116778447Y-129580171D01*
X116747495Y-129518266D01*
X116716542Y-129487314D01*
X116654638Y-129456361D01*
X116499876Y-129456361D01*
X116437971Y-129487314D01*
X116407019Y-129518266D01*
X116376066Y-129580171D01*
X116376066Y-129703980D01*
X116407019Y-129765885D01*
X116437971Y-129796838D01*
X116499876Y-129827790D01*
%TO.C,C14*%
X96802942Y-146061457D02*
X96833895Y-146092409D01*
X96864847Y-146185266D01*
X96864847Y-146247171D01*
X96833895Y-146340028D01*
X96771990Y-146401933D01*
X96710085Y-146432885D01*
X96586276Y-146463838D01*
X96493419Y-146463838D01*
X96369609Y-146432885D01*
X96307704Y-146401933D01*
X96245800Y-146340028D01*
X96214847Y-146247171D01*
X96214847Y-146185266D01*
X96245800Y-146092409D01*
X96276752Y-146061457D01*
X96864847Y-145442409D02*
X96864847Y-145813838D01*
X96864847Y-145628123D02*
X96214847Y-145628123D01*
X96307704Y-145690028D01*
X96369609Y-145751933D01*
X96400561Y-145813838D01*
X96431514Y-144885266D02*
X96864847Y-144885266D01*
X96183895Y-145040028D02*
X96648180Y-145194790D01*
X96648180Y-144792409D01*
%TO.C,R17*%
X83656142Y-100319247D02*
X83439476Y-100009723D01*
X83284714Y-100319247D02*
X83284714Y-99669247D01*
X83532333Y-99669247D01*
X83594238Y-99700200D01*
X83625190Y-99731152D01*
X83656142Y-99793057D01*
X83656142Y-99885914D01*
X83625190Y-99947819D01*
X83594238Y-99978771D01*
X83532333Y-100009723D01*
X83284714Y-100009723D01*
X84275190Y-100319247D02*
X83903761Y-100319247D01*
X84089476Y-100319247D02*
X84089476Y-99669247D01*
X84027571Y-99762104D01*
X83965666Y-99824009D01*
X83903761Y-99854961D01*
X84491857Y-99669247D02*
X84925190Y-99669247D01*
X84646619Y-100319247D01*
%TO.C,R12*%
X111114247Y-123658657D02*
X110804723Y-123875323D01*
X111114247Y-124030085D02*
X110464247Y-124030085D01*
X110464247Y-123782466D01*
X110495200Y-123720561D01*
X110526152Y-123689609D01*
X110588057Y-123658657D01*
X110680914Y-123658657D01*
X110742819Y-123689609D01*
X110773771Y-123720561D01*
X110804723Y-123782466D01*
X110804723Y-124030085D01*
X111114247Y-123039609D02*
X111114247Y-123411038D01*
X111114247Y-123225323D02*
X110464247Y-123225323D01*
X110557104Y-123287228D01*
X110619009Y-123349133D01*
X110649961Y-123411038D01*
X110526152Y-122791990D02*
X110495200Y-122761038D01*
X110464247Y-122699133D01*
X110464247Y-122544371D01*
X110495200Y-122482466D01*
X110526152Y-122451514D01*
X110588057Y-122420561D01*
X110649961Y-122420561D01*
X110742819Y-122451514D01*
X111114247Y-122822942D01*
X111114247Y-122420561D01*
%TO.C,Q1*%
X69280095Y-108509152D02*
X69218190Y-108478200D01*
X69156285Y-108416295D01*
X69063428Y-108323438D01*
X69001523Y-108292485D01*
X68939619Y-108292485D01*
X68970571Y-108447247D02*
X68908666Y-108416295D01*
X68846761Y-108354390D01*
X68815809Y-108230580D01*
X68815809Y-108013914D01*
X68846761Y-107890104D01*
X68908666Y-107828200D01*
X68970571Y-107797247D01*
X69094380Y-107797247D01*
X69156285Y-107828200D01*
X69218190Y-107890104D01*
X69249142Y-108013914D01*
X69249142Y-108230580D01*
X69218190Y-108354390D01*
X69156285Y-108416295D01*
X69094380Y-108447247D01*
X68970571Y-108447247D01*
X69868190Y-108447247D02*
X69496761Y-108447247D01*
X69682476Y-108447247D02*
X69682476Y-107797247D01*
X69620571Y-107890104D01*
X69558666Y-107952009D01*
X69496761Y-107982961D01*
%TO.C,C11*%
X84839542Y-126046257D02*
X84870495Y-126077209D01*
X84901447Y-126170066D01*
X84901447Y-126231971D01*
X84870495Y-126324828D01*
X84808590Y-126386733D01*
X84746685Y-126417685D01*
X84622876Y-126448638D01*
X84530019Y-126448638D01*
X84406209Y-126417685D01*
X84344304Y-126386733D01*
X84282400Y-126324828D01*
X84251447Y-126231971D01*
X84251447Y-126170066D01*
X84282400Y-126077209D01*
X84313352Y-126046257D01*
X84901447Y-125427209D02*
X84901447Y-125798638D01*
X84901447Y-125612923D02*
X84251447Y-125612923D01*
X84344304Y-125674828D01*
X84406209Y-125736733D01*
X84437161Y-125798638D01*
X84901447Y-124808161D02*
X84901447Y-125179590D01*
X84901447Y-124993876D02*
X84251447Y-124993876D01*
X84344304Y-125055780D01*
X84406209Y-125117685D01*
X84437161Y-125179590D01*
%TO.C,C12*%
X93536742Y-132591542D02*
X93505790Y-132622495D01*
X93412933Y-132653447D01*
X93351028Y-132653447D01*
X93258171Y-132622495D01*
X93196266Y-132560590D01*
X93165314Y-132498685D01*
X93134361Y-132374876D01*
X93134361Y-132282019D01*
X93165314Y-132158209D01*
X93196266Y-132096304D01*
X93258171Y-132034400D01*
X93351028Y-132003447D01*
X93412933Y-132003447D01*
X93505790Y-132034400D01*
X93536742Y-132065352D01*
X94155790Y-132653447D02*
X93784361Y-132653447D01*
X93970076Y-132653447D02*
X93970076Y-132003447D01*
X93908171Y-132096304D01*
X93846266Y-132158209D01*
X93784361Y-132189161D01*
X94403409Y-132065352D02*
X94434361Y-132034400D01*
X94496266Y-132003447D01*
X94651028Y-132003447D01*
X94712933Y-132034400D01*
X94743885Y-132065352D01*
X94774838Y-132127257D01*
X94774838Y-132189161D01*
X94743885Y-132282019D01*
X94372457Y-132653447D01*
X94774838Y-132653447D01*
D12*
%TO.C,U3*%
X102129095Y-147467380D02*
X102129095Y-148276904D01*
X102176714Y-148372142D01*
X102224333Y-148419761D01*
X102319571Y-148467380D01*
X102510047Y-148467380D01*
X102605285Y-148419761D01*
X102652904Y-148372142D01*
X102700523Y-148276904D01*
X102700523Y-147467380D01*
X103081476Y-147467380D02*
X103700523Y-147467380D01*
X103367190Y-147848333D01*
X103510047Y-147848333D01*
X103605285Y-147895952D01*
X103652904Y-147943571D01*
X103700523Y-148038809D01*
X103700523Y-148276904D01*
X103652904Y-148372142D01*
X103605285Y-148419761D01*
X103510047Y-148467380D01*
X103224333Y-148467380D01*
X103129095Y-148419761D01*
X103081476Y-148372142D01*
D11*
%TO.C,R24*%
X103925342Y-154675247D02*
X103708676Y-154365723D01*
X103553914Y-154675247D02*
X103553914Y-154025247D01*
X103801533Y-154025247D01*
X103863438Y-154056200D01*
X103894390Y-154087152D01*
X103925342Y-154149057D01*
X103925342Y-154241914D01*
X103894390Y-154303819D01*
X103863438Y-154334771D01*
X103801533Y-154365723D01*
X103553914Y-154365723D01*
X104172961Y-154087152D02*
X104203914Y-154056200D01*
X104265819Y-154025247D01*
X104420580Y-154025247D01*
X104482485Y-154056200D01*
X104513438Y-154087152D01*
X104544390Y-154149057D01*
X104544390Y-154210961D01*
X104513438Y-154303819D01*
X104142009Y-154675247D01*
X104544390Y-154675247D01*
X105101533Y-154241914D02*
X105101533Y-154675247D01*
X104946771Y-153994295D02*
X104792009Y-154458580D01*
X105194390Y-154458580D01*
%TO.C,J7*%
X89814047Y-112992666D02*
X90278333Y-112992666D01*
X90371190Y-113023619D01*
X90433095Y-113085523D01*
X90464047Y-113178380D01*
X90464047Y-113240285D01*
X89814047Y-112745047D02*
X89814047Y-112311714D01*
X90464047Y-112590285D01*
%TO.C,R13*%
X127827447Y-152538457D02*
X127517923Y-152755123D01*
X127827447Y-152909885D02*
X127177447Y-152909885D01*
X127177447Y-152662266D01*
X127208400Y-152600361D01*
X127239352Y-152569409D01*
X127301257Y-152538457D01*
X127394114Y-152538457D01*
X127456019Y-152569409D01*
X127486971Y-152600361D01*
X127517923Y-152662266D01*
X127517923Y-152909885D01*
X127827447Y-151919409D02*
X127827447Y-152290838D01*
X127827447Y-152105123D02*
X127177447Y-152105123D01*
X127270304Y-152167028D01*
X127332209Y-152228933D01*
X127363161Y-152290838D01*
X127177447Y-151702742D02*
X127177447Y-151300361D01*
X127425066Y-151517028D01*
X127425066Y-151424171D01*
X127456019Y-151362266D01*
X127486971Y-151331314D01*
X127548876Y-151300361D01*
X127703638Y-151300361D01*
X127765542Y-151331314D01*
X127796495Y-151362266D01*
X127827447Y-151424171D01*
X127827447Y-151609885D01*
X127796495Y-151671790D01*
X127765542Y-151702742D01*
%TO.C,C23*%
X87237542Y-139779742D02*
X87206590Y-139810695D01*
X87113733Y-139841647D01*
X87051828Y-139841647D01*
X86958971Y-139810695D01*
X86897066Y-139748790D01*
X86866114Y-139686885D01*
X86835161Y-139563076D01*
X86835161Y-139470219D01*
X86866114Y-139346409D01*
X86897066Y-139284504D01*
X86958971Y-139222600D01*
X87051828Y-139191647D01*
X87113733Y-139191647D01*
X87206590Y-139222600D01*
X87237542Y-139253552D01*
X87485161Y-139253552D02*
X87516114Y-139222600D01*
X87578019Y-139191647D01*
X87732780Y-139191647D01*
X87794685Y-139222600D01*
X87825638Y-139253552D01*
X87856590Y-139315457D01*
X87856590Y-139377361D01*
X87825638Y-139470219D01*
X87454209Y-139841647D01*
X87856590Y-139841647D01*
X88073257Y-139191647D02*
X88475638Y-139191647D01*
X88258971Y-139439266D01*
X88351828Y-139439266D01*
X88413733Y-139470219D01*
X88444685Y-139501171D01*
X88475638Y-139563076D01*
X88475638Y-139717838D01*
X88444685Y-139779742D01*
X88413733Y-139810695D01*
X88351828Y-139841647D01*
X88166114Y-139841647D01*
X88104209Y-139810695D01*
X88073257Y-139779742D01*
%TO.C,R10*%
X90844342Y-121350447D02*
X90627676Y-121040923D01*
X90472914Y-121350447D02*
X90472914Y-120700447D01*
X90720533Y-120700447D01*
X90782438Y-120731400D01*
X90813390Y-120762352D01*
X90844342Y-120824257D01*
X90844342Y-120917114D01*
X90813390Y-120979019D01*
X90782438Y-121009971D01*
X90720533Y-121040923D01*
X90472914Y-121040923D01*
X91463390Y-121350447D02*
X91091961Y-121350447D01*
X91277676Y-121350447D02*
X91277676Y-120700447D01*
X91215771Y-120793304D01*
X91153866Y-120855209D01*
X91091961Y-120886161D01*
X91865771Y-120700447D02*
X91927676Y-120700447D01*
X91989580Y-120731400D01*
X92020533Y-120762352D01*
X92051485Y-120824257D01*
X92082438Y-120948066D01*
X92082438Y-121102828D01*
X92051485Y-121226638D01*
X92020533Y-121288542D01*
X91989580Y-121319495D01*
X91927676Y-121350447D01*
X91865771Y-121350447D01*
X91803866Y-121319495D01*
X91772914Y-121288542D01*
X91741961Y-121226638D01*
X91711009Y-121102828D01*
X91711009Y-120948066D01*
X91741961Y-120824257D01*
X91772914Y-120762352D01*
X91803866Y-120731400D01*
X91865771Y-120700447D01*
%TO.C,R8*%
X106186647Y-106077133D02*
X105877123Y-106293800D01*
X106186647Y-106448561D02*
X105536647Y-106448561D01*
X105536647Y-106200942D01*
X105567600Y-106139038D01*
X105598552Y-106108085D01*
X105660457Y-106077133D01*
X105753314Y-106077133D01*
X105815219Y-106108085D01*
X105846171Y-106139038D01*
X105877123Y-106200942D01*
X105877123Y-106448561D01*
X105815219Y-105705704D02*
X105784266Y-105767609D01*
X105753314Y-105798561D01*
X105691409Y-105829514D01*
X105660457Y-105829514D01*
X105598552Y-105798561D01*
X105567600Y-105767609D01*
X105536647Y-105705704D01*
X105536647Y-105581895D01*
X105567600Y-105519990D01*
X105598552Y-105489038D01*
X105660457Y-105458085D01*
X105691409Y-105458085D01*
X105753314Y-105489038D01*
X105784266Y-105519990D01*
X105815219Y-105581895D01*
X105815219Y-105705704D01*
X105846171Y-105767609D01*
X105877123Y-105798561D01*
X105939028Y-105829514D01*
X106062838Y-105829514D01*
X106124742Y-105798561D01*
X106155695Y-105767609D01*
X106186647Y-105705704D01*
X106186647Y-105581895D01*
X106155695Y-105519990D01*
X106124742Y-105489038D01*
X106062838Y-105458085D01*
X105939028Y-105458085D01*
X105877123Y-105489038D01*
X105846171Y-105519990D01*
X105815219Y-105581895D01*
%TO.C,D8*%
X114340047Y-121078961D02*
X113690047Y-121078961D01*
X113690047Y-120924200D01*
X113721000Y-120831342D01*
X113782904Y-120769438D01*
X113844809Y-120738485D01*
X113968619Y-120707533D01*
X114061476Y-120707533D01*
X114185285Y-120738485D01*
X114247190Y-120769438D01*
X114309095Y-120831342D01*
X114340047Y-120924200D01*
X114340047Y-121078961D01*
X113968619Y-120336104D02*
X113937666Y-120398009D01*
X113906714Y-120428961D01*
X113844809Y-120459914D01*
X113813857Y-120459914D01*
X113751952Y-120428961D01*
X113721000Y-120398009D01*
X113690047Y-120336104D01*
X113690047Y-120212295D01*
X113721000Y-120150390D01*
X113751952Y-120119438D01*
X113813857Y-120088485D01*
X113844809Y-120088485D01*
X113906714Y-120119438D01*
X113937666Y-120150390D01*
X113968619Y-120212295D01*
X113968619Y-120336104D01*
X113999571Y-120398009D01*
X114030523Y-120428961D01*
X114092428Y-120459914D01*
X114216238Y-120459914D01*
X114278142Y-120428961D01*
X114309095Y-120398009D01*
X114340047Y-120336104D01*
X114340047Y-120212295D01*
X114309095Y-120150390D01*
X114278142Y-120119438D01*
X114216238Y-120088485D01*
X114092428Y-120088485D01*
X114030523Y-120119438D01*
X113999571Y-120150390D01*
X113968619Y-120212295D01*
%TO.C,C19*%
X87288342Y-140948142D02*
X87257390Y-140979095D01*
X87164533Y-141010047D01*
X87102628Y-141010047D01*
X87009771Y-140979095D01*
X86947866Y-140917190D01*
X86916914Y-140855285D01*
X86885961Y-140731476D01*
X86885961Y-140638619D01*
X86916914Y-140514809D01*
X86947866Y-140452904D01*
X87009771Y-140391000D01*
X87102628Y-140360047D01*
X87164533Y-140360047D01*
X87257390Y-140391000D01*
X87288342Y-140421952D01*
X87907390Y-141010047D02*
X87535961Y-141010047D01*
X87721676Y-141010047D02*
X87721676Y-140360047D01*
X87659771Y-140452904D01*
X87597866Y-140514809D01*
X87535961Y-140545761D01*
X88216914Y-141010047D02*
X88340723Y-141010047D01*
X88402628Y-140979095D01*
X88433580Y-140948142D01*
X88495485Y-140855285D01*
X88526438Y-140731476D01*
X88526438Y-140483857D01*
X88495485Y-140421952D01*
X88464533Y-140391000D01*
X88402628Y-140360047D01*
X88278819Y-140360047D01*
X88216914Y-140391000D01*
X88185961Y-140421952D01*
X88155009Y-140483857D01*
X88155009Y-140638619D01*
X88185961Y-140700523D01*
X88216914Y-140731476D01*
X88278819Y-140762428D01*
X88402628Y-140762428D01*
X88464533Y-140731476D01*
X88495485Y-140700523D01*
X88526438Y-140638619D01*
%TO.C,R22*%
X85484942Y-111520647D02*
X85268276Y-111211123D01*
X85113514Y-111520647D02*
X85113514Y-110870647D01*
X85361133Y-110870647D01*
X85423038Y-110901600D01*
X85453990Y-110932552D01*
X85484942Y-110994457D01*
X85484942Y-111087314D01*
X85453990Y-111149219D01*
X85423038Y-111180171D01*
X85361133Y-111211123D01*
X85113514Y-111211123D01*
X85732561Y-110932552D02*
X85763514Y-110901600D01*
X85825419Y-110870647D01*
X85980180Y-110870647D01*
X86042085Y-110901600D01*
X86073038Y-110932552D01*
X86103990Y-110994457D01*
X86103990Y-111056361D01*
X86073038Y-111149219D01*
X85701609Y-111520647D01*
X86103990Y-111520647D01*
X86351609Y-110932552D02*
X86382561Y-110901600D01*
X86444466Y-110870647D01*
X86599228Y-110870647D01*
X86661133Y-110901600D01*
X86692085Y-110932552D01*
X86723038Y-110994457D01*
X86723038Y-111056361D01*
X86692085Y-111149219D01*
X86320657Y-111520647D01*
X86723038Y-111520647D01*
%TO.C,J5*%
X82850933Y-140741047D02*
X82850933Y-141205333D01*
X82819980Y-141298190D01*
X82758076Y-141360095D01*
X82665219Y-141391047D01*
X82603314Y-141391047D01*
X83469980Y-140741047D02*
X83160457Y-140741047D01*
X83129504Y-141050571D01*
X83160457Y-141019619D01*
X83222361Y-140988666D01*
X83377123Y-140988666D01*
X83439028Y-141019619D01*
X83469980Y-141050571D01*
X83500933Y-141112476D01*
X83500933Y-141267238D01*
X83469980Y-141329142D01*
X83439028Y-141360095D01*
X83377123Y-141391047D01*
X83222361Y-141391047D01*
X83160457Y-141360095D01*
X83129504Y-141329142D01*
%TO.C,R26*%
X107709942Y-141949847D02*
X107493276Y-141640323D01*
X107338514Y-141949847D02*
X107338514Y-141299847D01*
X107586133Y-141299847D01*
X107648038Y-141330800D01*
X107678990Y-141361752D01*
X107709942Y-141423657D01*
X107709942Y-141516514D01*
X107678990Y-141578419D01*
X107648038Y-141609371D01*
X107586133Y-141640323D01*
X107338514Y-141640323D01*
X107957561Y-141361752D02*
X107988514Y-141330800D01*
X108050419Y-141299847D01*
X108205180Y-141299847D01*
X108267085Y-141330800D01*
X108298038Y-141361752D01*
X108328990Y-141423657D01*
X108328990Y-141485561D01*
X108298038Y-141578419D01*
X107926609Y-141949847D01*
X108328990Y-141949847D01*
X108886133Y-141299847D02*
X108762323Y-141299847D01*
X108700419Y-141330800D01*
X108669466Y-141361752D01*
X108607561Y-141454609D01*
X108576609Y-141578419D01*
X108576609Y-141826038D01*
X108607561Y-141887942D01*
X108638514Y-141918895D01*
X108700419Y-141949847D01*
X108824228Y-141949847D01*
X108886133Y-141918895D01*
X108917085Y-141887942D01*
X108948038Y-141826038D01*
X108948038Y-141671276D01*
X108917085Y-141609371D01*
X108886133Y-141578419D01*
X108824228Y-141547466D01*
X108700419Y-141547466D01*
X108638514Y-141578419D01*
X108607561Y-141609371D01*
X108576609Y-141671276D01*
%TO.C,R19*%
X69813847Y-121804457D02*
X69504323Y-122021123D01*
X69813847Y-122175885D02*
X69163847Y-122175885D01*
X69163847Y-121928266D01*
X69194800Y-121866361D01*
X69225752Y-121835409D01*
X69287657Y-121804457D01*
X69380514Y-121804457D01*
X69442419Y-121835409D01*
X69473371Y-121866361D01*
X69504323Y-121928266D01*
X69504323Y-122175885D01*
X69813847Y-121185409D02*
X69813847Y-121556838D01*
X69813847Y-121371123D02*
X69163847Y-121371123D01*
X69256704Y-121433028D01*
X69318609Y-121494933D01*
X69349561Y-121556838D01*
X69813847Y-120875885D02*
X69813847Y-120752076D01*
X69782895Y-120690171D01*
X69751942Y-120659219D01*
X69659085Y-120597314D01*
X69535276Y-120566361D01*
X69287657Y-120566361D01*
X69225752Y-120597314D01*
X69194800Y-120628266D01*
X69163847Y-120690171D01*
X69163847Y-120813980D01*
X69194800Y-120875885D01*
X69225752Y-120906838D01*
X69287657Y-120937790D01*
X69442419Y-120937790D01*
X69504323Y-120906838D01*
X69535276Y-120875885D01*
X69566228Y-120813980D01*
X69566228Y-120690171D01*
X69535276Y-120628266D01*
X69504323Y-120597314D01*
X69442419Y-120566361D01*
%TO.C,D6*%
X97818238Y-148630047D02*
X97818238Y-147980047D01*
X97973000Y-147980047D01*
X98065857Y-148011000D01*
X98127761Y-148072904D01*
X98158714Y-148134809D01*
X98189666Y-148258619D01*
X98189666Y-148351476D01*
X98158714Y-148475285D01*
X98127761Y-148537190D01*
X98065857Y-148599095D01*
X97973000Y-148630047D01*
X97818238Y-148630047D01*
X98746809Y-147980047D02*
X98623000Y-147980047D01*
X98561095Y-148011000D01*
X98530142Y-148041952D01*
X98468238Y-148134809D01*
X98437285Y-148258619D01*
X98437285Y-148506238D01*
X98468238Y-148568142D01*
X98499190Y-148599095D01*
X98561095Y-148630047D01*
X98684904Y-148630047D01*
X98746809Y-148599095D01*
X98777761Y-148568142D01*
X98808714Y-148506238D01*
X98808714Y-148351476D01*
X98777761Y-148289571D01*
X98746809Y-148258619D01*
X98684904Y-148227666D01*
X98561095Y-148227666D01*
X98499190Y-148258619D01*
X98468238Y-148289571D01*
X98437285Y-148351476D01*
%TO.C,R3*%
X103752266Y-153202047D02*
X103535600Y-152892523D01*
X103380838Y-153202047D02*
X103380838Y-152552047D01*
X103628457Y-152552047D01*
X103690361Y-152583000D01*
X103721314Y-152613952D01*
X103752266Y-152675857D01*
X103752266Y-152768714D01*
X103721314Y-152830619D01*
X103690361Y-152861571D01*
X103628457Y-152892523D01*
X103380838Y-152892523D01*
X103968933Y-152552047D02*
X104371314Y-152552047D01*
X104154647Y-152799666D01*
X104247504Y-152799666D01*
X104309409Y-152830619D01*
X104340361Y-152861571D01*
X104371314Y-152923476D01*
X104371314Y-153078238D01*
X104340361Y-153140142D01*
X104309409Y-153171095D01*
X104247504Y-153202047D01*
X104061790Y-153202047D01*
X103999885Y-153171095D01*
X103968933Y-153140142D01*
%TO.C,C20*%
X96802942Y-130770657D02*
X96833895Y-130801609D01*
X96864847Y-130894466D01*
X96864847Y-130956371D01*
X96833895Y-131049228D01*
X96771990Y-131111133D01*
X96710085Y-131142085D01*
X96586276Y-131173038D01*
X96493419Y-131173038D01*
X96369609Y-131142085D01*
X96307704Y-131111133D01*
X96245800Y-131049228D01*
X96214847Y-130956371D01*
X96214847Y-130894466D01*
X96245800Y-130801609D01*
X96276752Y-130770657D01*
X96276752Y-130523038D02*
X96245800Y-130492085D01*
X96214847Y-130430180D01*
X96214847Y-130275419D01*
X96245800Y-130213514D01*
X96276752Y-130182561D01*
X96338657Y-130151609D01*
X96400561Y-130151609D01*
X96493419Y-130182561D01*
X96864847Y-130553990D01*
X96864847Y-130151609D01*
X96214847Y-129749228D02*
X96214847Y-129687323D01*
X96245800Y-129625419D01*
X96276752Y-129594466D01*
X96338657Y-129563514D01*
X96462466Y-129532561D01*
X96617228Y-129532561D01*
X96741038Y-129563514D01*
X96802942Y-129594466D01*
X96833895Y-129625419D01*
X96864847Y-129687323D01*
X96864847Y-129749228D01*
X96833895Y-129811133D01*
X96802942Y-129842085D01*
X96741038Y-129873038D01*
X96617228Y-129903990D01*
X96462466Y-129903990D01*
X96338657Y-129873038D01*
X96276752Y-129842085D01*
X96245800Y-129811133D01*
X96214847Y-129749228D01*
%TO.C,C3*%
X82187666Y-128146542D02*
X82156714Y-128177495D01*
X82063857Y-128208447D01*
X82001952Y-128208447D01*
X81909095Y-128177495D01*
X81847190Y-128115590D01*
X81816238Y-128053685D01*
X81785285Y-127929876D01*
X81785285Y-127837019D01*
X81816238Y-127713209D01*
X81847190Y-127651304D01*
X81909095Y-127589400D01*
X82001952Y-127558447D01*
X82063857Y-127558447D01*
X82156714Y-127589400D01*
X82187666Y-127620352D01*
X82404333Y-127558447D02*
X82806714Y-127558447D01*
X82590047Y-127806066D01*
X82682904Y-127806066D01*
X82744809Y-127837019D01*
X82775761Y-127867971D01*
X82806714Y-127929876D01*
X82806714Y-128084638D01*
X82775761Y-128146542D01*
X82744809Y-128177495D01*
X82682904Y-128208447D01*
X82497190Y-128208447D01*
X82435285Y-128177495D01*
X82404333Y-128146542D01*
%TO.C,C9*%
X69218542Y-130461133D02*
X69249495Y-130492085D01*
X69280447Y-130584942D01*
X69280447Y-130646847D01*
X69249495Y-130739704D01*
X69187590Y-130801609D01*
X69125685Y-130832561D01*
X69001876Y-130863514D01*
X68909019Y-130863514D01*
X68785209Y-130832561D01*
X68723304Y-130801609D01*
X68661400Y-130739704D01*
X68630447Y-130646847D01*
X68630447Y-130584942D01*
X68661400Y-130492085D01*
X68692352Y-130461133D01*
X69280447Y-130151609D02*
X69280447Y-130027800D01*
X69249495Y-129965895D01*
X69218542Y-129934942D01*
X69125685Y-129873038D01*
X69001876Y-129842085D01*
X68754257Y-129842085D01*
X68692352Y-129873038D01*
X68661400Y-129903990D01*
X68630447Y-129965895D01*
X68630447Y-130089704D01*
X68661400Y-130151609D01*
X68692352Y-130182561D01*
X68754257Y-130213514D01*
X68909019Y-130213514D01*
X68970923Y-130182561D01*
X69001876Y-130151609D01*
X69032828Y-130089704D01*
X69032828Y-129965895D01*
X69001876Y-129903990D01*
X68970923Y-129873038D01*
X68909019Y-129842085D01*
%TO.C,C2*%
X77666466Y-129797542D02*
X77635514Y-129828495D01*
X77542657Y-129859447D01*
X77480752Y-129859447D01*
X77387895Y-129828495D01*
X77325990Y-129766590D01*
X77295038Y-129704685D01*
X77264085Y-129580876D01*
X77264085Y-129488019D01*
X77295038Y-129364209D01*
X77325990Y-129302304D01*
X77387895Y-129240400D01*
X77480752Y-129209447D01*
X77542657Y-129209447D01*
X77635514Y-129240400D01*
X77666466Y-129271352D01*
X77914085Y-129271352D02*
X77945038Y-129240400D01*
X78006942Y-129209447D01*
X78161704Y-129209447D01*
X78223609Y-129240400D01*
X78254561Y-129271352D01*
X78285514Y-129333257D01*
X78285514Y-129395161D01*
X78254561Y-129488019D01*
X77883133Y-129859447D01*
X78285514Y-129859447D01*
%TO.C,C21*%
X106160542Y-139068542D02*
X106129590Y-139099495D01*
X106036733Y-139130447D01*
X105974828Y-139130447D01*
X105881971Y-139099495D01*
X105820066Y-139037590D01*
X105789114Y-138975685D01*
X105758161Y-138851876D01*
X105758161Y-138759019D01*
X105789114Y-138635209D01*
X105820066Y-138573304D01*
X105881971Y-138511400D01*
X105974828Y-138480447D01*
X106036733Y-138480447D01*
X106129590Y-138511400D01*
X106160542Y-138542352D01*
X106408161Y-138542352D02*
X106439114Y-138511400D01*
X106501019Y-138480447D01*
X106655780Y-138480447D01*
X106717685Y-138511400D01*
X106748638Y-138542352D01*
X106779590Y-138604257D01*
X106779590Y-138666161D01*
X106748638Y-138759019D01*
X106377209Y-139130447D01*
X106779590Y-139130447D01*
X107398638Y-139130447D02*
X107027209Y-139130447D01*
X107212923Y-139130447D02*
X107212923Y-138480447D01*
X107151019Y-138573304D01*
X107089114Y-138635209D01*
X107027209Y-138666161D01*
%TO.C,R7*%
X68979666Y-100674847D02*
X68763000Y-100365323D01*
X68608238Y-100674847D02*
X68608238Y-100024847D01*
X68855857Y-100024847D01*
X68917761Y-100055800D01*
X68948714Y-100086752D01*
X68979666Y-100148657D01*
X68979666Y-100241514D01*
X68948714Y-100303419D01*
X68917761Y-100334371D01*
X68855857Y-100365323D01*
X68608238Y-100365323D01*
X69196333Y-100024847D02*
X69629666Y-100024847D01*
X69351095Y-100674847D01*
%TO.C,F1*%
X115794571Y-112967266D02*
X115794571Y-113183933D01*
X116135047Y-113183933D02*
X115485047Y-113183933D01*
X115485047Y-112874409D01*
X116135047Y-112286314D02*
X116135047Y-112657742D01*
X116135047Y-112472028D02*
X115485047Y-112472028D01*
X115577904Y-112533933D01*
X115639809Y-112595838D01*
X115670761Y-112657742D01*
%TO.C,C7*%
X87785942Y-129648333D02*
X87816895Y-129679285D01*
X87847847Y-129772142D01*
X87847847Y-129834047D01*
X87816895Y-129926904D01*
X87754990Y-129988809D01*
X87693085Y-130019761D01*
X87569276Y-130050714D01*
X87476419Y-130050714D01*
X87352609Y-130019761D01*
X87290704Y-129988809D01*
X87228800Y-129926904D01*
X87197847Y-129834047D01*
X87197847Y-129772142D01*
X87228800Y-129679285D01*
X87259752Y-129648333D01*
X87197847Y-129431666D02*
X87197847Y-128998333D01*
X87847847Y-129276904D01*
%TO.C,R1*%
X90366466Y-148884047D02*
X90149800Y-148574523D01*
X89995038Y-148884047D02*
X89995038Y-148234047D01*
X90242657Y-148234047D01*
X90304561Y-148265000D01*
X90335514Y-148295952D01*
X90366466Y-148357857D01*
X90366466Y-148450714D01*
X90335514Y-148512619D01*
X90304561Y-148543571D01*
X90242657Y-148574523D01*
X89995038Y-148574523D01*
X90985514Y-148884047D02*
X90614085Y-148884047D01*
X90799800Y-148884047D02*
X90799800Y-148234047D01*
X90737895Y-148326904D01*
X90675990Y-148388809D01*
X90614085Y-148419761D01*
%TO.C,R2*%
X104641266Y-148376047D02*
X104424600Y-148066523D01*
X104269838Y-148376047D02*
X104269838Y-147726047D01*
X104517457Y-147726047D01*
X104579361Y-147757000D01*
X104610314Y-147787952D01*
X104641266Y-147849857D01*
X104641266Y-147942714D01*
X104610314Y-148004619D01*
X104579361Y-148035571D01*
X104517457Y-148066523D01*
X104269838Y-148066523D01*
X104888885Y-147787952D02*
X104919838Y-147757000D01*
X104981742Y-147726047D01*
X105136504Y-147726047D01*
X105198409Y-147757000D01*
X105229361Y-147787952D01*
X105260314Y-147849857D01*
X105260314Y-147911761D01*
X105229361Y-148004619D01*
X104857933Y-148376047D01*
X105260314Y-148376047D01*
%TO.C,L1*%
X75278866Y-139740047D02*
X74969342Y-139740047D01*
X74969342Y-139090047D01*
X75836009Y-139740047D02*
X75464580Y-139740047D01*
X75650295Y-139740047D02*
X75650295Y-139090047D01*
X75588390Y-139182904D01*
X75526485Y-139244809D01*
X75464580Y-139275761D01*
%TO.C,R18*%
X79592847Y-123836457D02*
X79283323Y-124053123D01*
X79592847Y-124207885D02*
X78942847Y-124207885D01*
X78942847Y-123960266D01*
X78973800Y-123898361D01*
X79004752Y-123867409D01*
X79066657Y-123836457D01*
X79159514Y-123836457D01*
X79221419Y-123867409D01*
X79252371Y-123898361D01*
X79283323Y-123960266D01*
X79283323Y-124207885D01*
X79592847Y-123217409D02*
X79592847Y-123588838D01*
X79592847Y-123403123D02*
X78942847Y-123403123D01*
X79035704Y-123465028D01*
X79097609Y-123526933D01*
X79128561Y-123588838D01*
X79221419Y-122845980D02*
X79190466Y-122907885D01*
X79159514Y-122938838D01*
X79097609Y-122969790D01*
X79066657Y-122969790D01*
X79004752Y-122938838D01*
X78973800Y-122907885D01*
X78942847Y-122845980D01*
X78942847Y-122722171D01*
X78973800Y-122660266D01*
X79004752Y-122629314D01*
X79066657Y-122598361D01*
X79097609Y-122598361D01*
X79159514Y-122629314D01*
X79190466Y-122660266D01*
X79221419Y-122722171D01*
X79221419Y-122845980D01*
X79252371Y-122907885D01*
X79283323Y-122938838D01*
X79345228Y-122969790D01*
X79469038Y-122969790D01*
X79530942Y-122938838D01*
X79561895Y-122907885D01*
X79592847Y-122845980D01*
X79592847Y-122722171D01*
X79561895Y-122660266D01*
X79530942Y-122629314D01*
X79469038Y-122598361D01*
X79345228Y-122598361D01*
X79283323Y-122629314D01*
X79252371Y-122660266D01*
X79221419Y-122722171D01*
%TO.C,D12*%
X108117047Y-153392485D02*
X107467047Y-153392485D01*
X107467047Y-153237723D01*
X107498000Y-153144866D01*
X107559904Y-153082961D01*
X107621809Y-153052009D01*
X107745619Y-153021057D01*
X107838476Y-153021057D01*
X107962285Y-153052009D01*
X108024190Y-153082961D01*
X108086095Y-153144866D01*
X108117047Y-153237723D01*
X108117047Y-153392485D01*
X108117047Y-152402009D02*
X108117047Y-152773438D01*
X108117047Y-152587723D02*
X107467047Y-152587723D01*
X107559904Y-152649628D01*
X107621809Y-152711533D01*
X107652761Y-152773438D01*
X107528952Y-152154390D02*
X107498000Y-152123438D01*
X107467047Y-152061533D01*
X107467047Y-151906771D01*
X107498000Y-151844866D01*
X107528952Y-151813914D01*
X107590857Y-151782961D01*
X107652761Y-151782961D01*
X107745619Y-151813914D01*
X108117047Y-152185342D01*
X108117047Y-151782961D01*
%TO.C,C16*%
X90402142Y-137397457D02*
X90433095Y-137428409D01*
X90464047Y-137521266D01*
X90464047Y-137583171D01*
X90433095Y-137676028D01*
X90371190Y-137737933D01*
X90309285Y-137768885D01*
X90185476Y-137799838D01*
X90092619Y-137799838D01*
X89968809Y-137768885D01*
X89906904Y-137737933D01*
X89845000Y-137676028D01*
X89814047Y-137583171D01*
X89814047Y-137521266D01*
X89845000Y-137428409D01*
X89875952Y-137397457D01*
X90464047Y-136778409D02*
X90464047Y-137149838D01*
X90464047Y-136964123D02*
X89814047Y-136964123D01*
X89906904Y-137026028D01*
X89968809Y-137087933D01*
X89999761Y-137149838D01*
X89814047Y-136221266D02*
X89814047Y-136345076D01*
X89845000Y-136406980D01*
X89875952Y-136437933D01*
X89968809Y-136499838D01*
X90092619Y-136530790D01*
X90340238Y-136530790D01*
X90402142Y-136499838D01*
X90433095Y-136468885D01*
X90464047Y-136406980D01*
X90464047Y-136283171D01*
X90433095Y-136221266D01*
X90402142Y-136190314D01*
X90340238Y-136159361D01*
X90185476Y-136159361D01*
X90123571Y-136190314D01*
X90092619Y-136221266D01*
X90061666Y-136283171D01*
X90061666Y-136406980D01*
X90092619Y-136468885D01*
X90123571Y-136499838D01*
X90185476Y-136530790D01*
%TO.C,R6*%
X69005066Y-99582647D02*
X68788400Y-99273123D01*
X68633638Y-99582647D02*
X68633638Y-98932647D01*
X68881257Y-98932647D01*
X68943161Y-98963600D01*
X68974114Y-98994552D01*
X69005066Y-99056457D01*
X69005066Y-99149314D01*
X68974114Y-99211219D01*
X68943161Y-99242171D01*
X68881257Y-99273123D01*
X68633638Y-99273123D01*
X69562209Y-98932647D02*
X69438400Y-98932647D01*
X69376495Y-98963600D01*
X69345542Y-98994552D01*
X69283638Y-99087409D01*
X69252685Y-99211219D01*
X69252685Y-99458838D01*
X69283638Y-99520742D01*
X69314590Y-99551695D01*
X69376495Y-99582647D01*
X69500304Y-99582647D01*
X69562209Y-99551695D01*
X69593161Y-99520742D01*
X69624114Y-99458838D01*
X69624114Y-99304076D01*
X69593161Y-99242171D01*
X69562209Y-99211219D01*
X69500304Y-99180266D01*
X69376495Y-99180266D01*
X69314590Y-99211219D01*
X69283638Y-99242171D01*
X69252685Y-99304076D01*
%TO.C,C8*%
X73384142Y-130486533D02*
X73415095Y-130517485D01*
X73446047Y-130610342D01*
X73446047Y-130672247D01*
X73415095Y-130765104D01*
X73353190Y-130827009D01*
X73291285Y-130857961D01*
X73167476Y-130888914D01*
X73074619Y-130888914D01*
X72950809Y-130857961D01*
X72888904Y-130827009D01*
X72827000Y-130765104D01*
X72796047Y-130672247D01*
X72796047Y-130610342D01*
X72827000Y-130517485D01*
X72857952Y-130486533D01*
X73074619Y-130115104D02*
X73043666Y-130177009D01*
X73012714Y-130207961D01*
X72950809Y-130238914D01*
X72919857Y-130238914D01*
X72857952Y-130207961D01*
X72827000Y-130177009D01*
X72796047Y-130115104D01*
X72796047Y-129991295D01*
X72827000Y-129929390D01*
X72857952Y-129898438D01*
X72919857Y-129867485D01*
X72950809Y-129867485D01*
X73012714Y-129898438D01*
X73043666Y-129929390D01*
X73074619Y-129991295D01*
X73074619Y-130115104D01*
X73105571Y-130177009D01*
X73136523Y-130207961D01*
X73198428Y-130238914D01*
X73322238Y-130238914D01*
X73384142Y-130207961D01*
X73415095Y-130177009D01*
X73446047Y-130115104D01*
X73446047Y-129991295D01*
X73415095Y-129929390D01*
X73384142Y-129898438D01*
X73322238Y-129867485D01*
X73198428Y-129867485D01*
X73136523Y-129898438D01*
X73105571Y-129929390D01*
X73074619Y-129991295D01*
%TO.C,C15*%
X101080542Y-134928342D02*
X101049590Y-134959295D01*
X100956733Y-134990247D01*
X100894828Y-134990247D01*
X100801971Y-134959295D01*
X100740066Y-134897390D01*
X100709114Y-134835485D01*
X100678161Y-134711676D01*
X100678161Y-134618819D01*
X100709114Y-134495009D01*
X100740066Y-134433104D01*
X100801971Y-134371200D01*
X100894828Y-134340247D01*
X100956733Y-134340247D01*
X101049590Y-134371200D01*
X101080542Y-134402152D01*
X101699590Y-134990247D02*
X101328161Y-134990247D01*
X101513876Y-134990247D02*
X101513876Y-134340247D01*
X101451971Y-134433104D01*
X101390066Y-134495009D01*
X101328161Y-134525961D01*
X102287685Y-134340247D02*
X101978161Y-134340247D01*
X101947209Y-134649771D01*
X101978161Y-134618819D01*
X102040066Y-134587866D01*
X102194828Y-134587866D01*
X102256733Y-134618819D01*
X102287685Y-134649771D01*
X102318638Y-134711676D01*
X102318638Y-134866438D01*
X102287685Y-134928342D01*
X102256733Y-134959295D01*
X102194828Y-134990247D01*
X102040066Y-134990247D01*
X101978161Y-134959295D01*
X101947209Y-134928342D01*
%TO.C,D7*%
X93537447Y-117827761D02*
X92887447Y-117827761D01*
X92887447Y-117673000D01*
X92918400Y-117580142D01*
X92980304Y-117518238D01*
X93042209Y-117487285D01*
X93166019Y-117456333D01*
X93258876Y-117456333D01*
X93382685Y-117487285D01*
X93444590Y-117518238D01*
X93506495Y-117580142D01*
X93537447Y-117673000D01*
X93537447Y-117827761D01*
X92887447Y-117239666D02*
X92887447Y-116806333D01*
X93537447Y-117084904D01*
%TO.C,C1*%
X77666466Y-131321542D02*
X77635514Y-131352495D01*
X77542657Y-131383447D01*
X77480752Y-131383447D01*
X77387895Y-131352495D01*
X77325990Y-131290590D01*
X77295038Y-131228685D01*
X77264085Y-131104876D01*
X77264085Y-131012019D01*
X77295038Y-130888209D01*
X77325990Y-130826304D01*
X77387895Y-130764400D01*
X77480752Y-130733447D01*
X77542657Y-130733447D01*
X77635514Y-130764400D01*
X77666466Y-130795352D01*
X78285514Y-131383447D02*
X77914085Y-131383447D01*
X78099800Y-131383447D02*
X78099800Y-130733447D01*
X78037895Y-130826304D01*
X77975990Y-130888209D01*
X77914085Y-130919161D01*
%TO.C,D11*%
X112841447Y-127560685D02*
X112191447Y-127560685D01*
X112191447Y-127405923D01*
X112222400Y-127313066D01*
X112284304Y-127251161D01*
X112346209Y-127220209D01*
X112470019Y-127189257D01*
X112562876Y-127189257D01*
X112686685Y-127220209D01*
X112748590Y-127251161D01*
X112810495Y-127313066D01*
X112841447Y-127405923D01*
X112841447Y-127560685D01*
X112841447Y-126570209D02*
X112841447Y-126941638D01*
X112841447Y-126755923D02*
X112191447Y-126755923D01*
X112284304Y-126817828D01*
X112346209Y-126879733D01*
X112377161Y-126941638D01*
X112841447Y-125951161D02*
X112841447Y-126322590D01*
X112841447Y-126136876D02*
X112191447Y-126136876D01*
X112284304Y-126198780D01*
X112346209Y-126260685D01*
X112377161Y-126322590D01*
%TO.C,R4*%
X94832847Y-145396333D02*
X94523323Y-145613000D01*
X94832847Y-145767761D02*
X94182847Y-145767761D01*
X94182847Y-145520142D01*
X94213800Y-145458238D01*
X94244752Y-145427285D01*
X94306657Y-145396333D01*
X94399514Y-145396333D01*
X94461419Y-145427285D01*
X94492371Y-145458238D01*
X94523323Y-145520142D01*
X94523323Y-145767761D01*
X94399514Y-144839190D02*
X94832847Y-144839190D01*
X94151895Y-144993952D02*
X94616180Y-145148714D01*
X94616180Y-144746333D01*
%TO.C,R25*%
X109666447Y-147407657D02*
X109356923Y-147624323D01*
X109666447Y-147779085D02*
X109016447Y-147779085D01*
X109016447Y-147531466D01*
X109047400Y-147469561D01*
X109078352Y-147438609D01*
X109140257Y-147407657D01*
X109233114Y-147407657D01*
X109295019Y-147438609D01*
X109325971Y-147469561D01*
X109356923Y-147531466D01*
X109356923Y-147779085D01*
X109078352Y-147160038D02*
X109047400Y-147129085D01*
X109016447Y-147067180D01*
X109016447Y-146912419D01*
X109047400Y-146850514D01*
X109078352Y-146819561D01*
X109140257Y-146788609D01*
X109202161Y-146788609D01*
X109295019Y-146819561D01*
X109666447Y-147190990D01*
X109666447Y-146788609D01*
X109016447Y-146200514D02*
X109016447Y-146510038D01*
X109325971Y-146540990D01*
X109295019Y-146510038D01*
X109264066Y-146448133D01*
X109264066Y-146293371D01*
X109295019Y-146231466D01*
X109325971Y-146200514D01*
X109387876Y-146169561D01*
X109542638Y-146169561D01*
X109604542Y-146200514D01*
X109635495Y-146231466D01*
X109666447Y-146293371D01*
X109666447Y-146448133D01*
X109635495Y-146510038D01*
X109604542Y-146540990D01*
%TO.C,C18*%
X100953542Y-139754342D02*
X100922590Y-139785295D01*
X100829733Y-139816247D01*
X100767828Y-139816247D01*
X100674971Y-139785295D01*
X100613066Y-139723390D01*
X100582114Y-139661485D01*
X100551161Y-139537676D01*
X100551161Y-139444819D01*
X100582114Y-139321009D01*
X100613066Y-139259104D01*
X100674971Y-139197200D01*
X100767828Y-139166247D01*
X100829733Y-139166247D01*
X100922590Y-139197200D01*
X100953542Y-139228152D01*
X101572590Y-139816247D02*
X101201161Y-139816247D01*
X101386876Y-139816247D02*
X101386876Y-139166247D01*
X101324971Y-139259104D01*
X101263066Y-139321009D01*
X101201161Y-139351961D01*
X101944019Y-139444819D02*
X101882114Y-139413866D01*
X101851161Y-139382914D01*
X101820209Y-139321009D01*
X101820209Y-139290057D01*
X101851161Y-139228152D01*
X101882114Y-139197200D01*
X101944019Y-139166247D01*
X102067828Y-139166247D01*
X102129733Y-139197200D01*
X102160685Y-139228152D01*
X102191638Y-139290057D01*
X102191638Y-139321009D01*
X102160685Y-139382914D01*
X102129733Y-139413866D01*
X102067828Y-139444819D01*
X101944019Y-139444819D01*
X101882114Y-139475771D01*
X101851161Y-139506723D01*
X101820209Y-139568628D01*
X101820209Y-139692438D01*
X101851161Y-139754342D01*
X101882114Y-139785295D01*
X101944019Y-139816247D01*
X102067828Y-139816247D01*
X102129733Y-139785295D01*
X102160685Y-139754342D01*
X102191638Y-139692438D01*
X102191638Y-139568628D01*
X102160685Y-139506723D01*
X102129733Y-139475771D01*
X102067828Y-139444819D01*
%TO.C,C22*%
X91672142Y-146061457D02*
X91703095Y-146092409D01*
X91734047Y-146185266D01*
X91734047Y-146247171D01*
X91703095Y-146340028D01*
X91641190Y-146401933D01*
X91579285Y-146432885D01*
X91455476Y-146463838D01*
X91362619Y-146463838D01*
X91238809Y-146432885D01*
X91176904Y-146401933D01*
X91115000Y-146340028D01*
X91084047Y-146247171D01*
X91084047Y-146185266D01*
X91115000Y-146092409D01*
X91145952Y-146061457D01*
X91145952Y-145813838D02*
X91115000Y-145782885D01*
X91084047Y-145720980D01*
X91084047Y-145566219D01*
X91115000Y-145504314D01*
X91145952Y-145473361D01*
X91207857Y-145442409D01*
X91269761Y-145442409D01*
X91362619Y-145473361D01*
X91734047Y-145844790D01*
X91734047Y-145442409D01*
X91145952Y-145194790D02*
X91115000Y-145163838D01*
X91084047Y-145101933D01*
X91084047Y-144947171D01*
X91115000Y-144885266D01*
X91145952Y-144854314D01*
X91207857Y-144823361D01*
X91269761Y-144823361D01*
X91362619Y-144854314D01*
X91734047Y-145225742D01*
X91734047Y-144823361D01*
%TO.C,R15*%
X76163142Y-100293847D02*
X75946476Y-99984323D01*
X75791714Y-100293847D02*
X75791714Y-99643847D01*
X76039333Y-99643847D01*
X76101238Y-99674800D01*
X76132190Y-99705752D01*
X76163142Y-99767657D01*
X76163142Y-99860514D01*
X76132190Y-99922419D01*
X76101238Y-99953371D01*
X76039333Y-99984323D01*
X75791714Y-99984323D01*
X76782190Y-100293847D02*
X76410761Y-100293847D01*
X76596476Y-100293847D02*
X76596476Y-99643847D01*
X76534571Y-99736704D01*
X76472666Y-99798609D01*
X76410761Y-99829561D01*
X77370285Y-99643847D02*
X77060761Y-99643847D01*
X77029809Y-99953371D01*
X77060761Y-99922419D01*
X77122666Y-99891466D01*
X77277428Y-99891466D01*
X77339333Y-99922419D01*
X77370285Y-99953371D01*
X77401238Y-100015276D01*
X77401238Y-100170038D01*
X77370285Y-100231942D01*
X77339333Y-100262895D01*
X77277428Y-100293847D01*
X77122666Y-100293847D01*
X77060761Y-100262895D01*
X77029809Y-100231942D01*
%TO.C,R20*%
X71414047Y-121804457D02*
X71104523Y-122021123D01*
X71414047Y-122175885D02*
X70764047Y-122175885D01*
X70764047Y-121928266D01*
X70795000Y-121866361D01*
X70825952Y-121835409D01*
X70887857Y-121804457D01*
X70980714Y-121804457D01*
X71042619Y-121835409D01*
X71073571Y-121866361D01*
X71104523Y-121928266D01*
X71104523Y-122175885D01*
X70825952Y-121556838D02*
X70795000Y-121525885D01*
X70764047Y-121463980D01*
X70764047Y-121309219D01*
X70795000Y-121247314D01*
X70825952Y-121216361D01*
X70887857Y-121185409D01*
X70949761Y-121185409D01*
X71042619Y-121216361D01*
X71414047Y-121587790D01*
X71414047Y-121185409D01*
X70764047Y-120783028D02*
X70764047Y-120721123D01*
X70795000Y-120659219D01*
X70825952Y-120628266D01*
X70887857Y-120597314D01*
X71011666Y-120566361D01*
X71166428Y-120566361D01*
X71290238Y-120597314D01*
X71352142Y-120628266D01*
X71383095Y-120659219D01*
X71414047Y-120721123D01*
X71414047Y-120783028D01*
X71383095Y-120844933D01*
X71352142Y-120875885D01*
X71290238Y-120906838D01*
X71166428Y-120937790D01*
X71011666Y-120937790D01*
X70887857Y-120906838D01*
X70825952Y-120875885D01*
X70795000Y-120844933D01*
X70764047Y-120783028D01*
%TO.C,U4*%
X99072761Y-132232047D02*
X99072761Y-132758238D01*
X99103714Y-132820142D01*
X99134666Y-132851095D01*
X99196571Y-132882047D01*
X99320380Y-132882047D01*
X99382285Y-132851095D01*
X99413238Y-132820142D01*
X99444190Y-132758238D01*
X99444190Y-132232047D01*
X100032285Y-132448714D02*
X100032285Y-132882047D01*
X99877523Y-132201095D02*
X99722761Y-132665380D01*
X100125142Y-132665380D01*
D13*
%TO.C,J9*%
X126175999Y-132800435D02*
X126175999Y-134200434D01*
X111626000Y-134200434D02*
X111626000Y-135600432D01*
X126626001Y-134200434D02*
X126175999Y-134200434D01*
X110626000Y-131700434D02*
X110626000Y-132800435D01*
X127626001Y-132800435D02*
X126175999Y-132800435D01*
X112076002Y-134200434D02*
X111626000Y-134200434D01*
X127626001Y-131700434D02*
X110626000Y-131700434D01*
X126626001Y-134200434D02*
X126626001Y-135600432D01*
X112076002Y-132800435D02*
X112076002Y-134200434D01*
X127626001Y-131700434D02*
X127626001Y-132800435D01*
X112076002Y-132800435D02*
X110626000Y-132800435D01*
X125326001Y-138400401D02*
X112926000Y-138400401D01*
D14*
X123750998Y-141250400D02*
G75*
G03*
X123750998Y-141250400I-125001J0D01*
G01*
D15*
%TO.C,Q6*%
X114960400Y-123596400D02*
X116230400Y-123596400D01*
X114960400Y-122326400D02*
X114960400Y-123596400D01*
X122580400Y-119786400D02*
X114960400Y-119786400D01*
X114960400Y-122326400D02*
X116230400Y-122326400D01*
X122580400Y-123596400D02*
X122580400Y-119786400D01*
X114960400Y-119786400D02*
X114960400Y-122326400D01*
X116230400Y-122326400D02*
X116230400Y-123596400D01*
X116230400Y-123596400D02*
X122580400Y-123596400D01*
D10*
%TO.C,Q2*%
X76835000Y-104355000D02*
X77485000Y-104355000D01*
X76835000Y-107475000D02*
X76185000Y-107475000D01*
X76835000Y-107475000D02*
X77485000Y-107475000D01*
X76835000Y-104355000D02*
X75160000Y-104355000D01*
%TO.C,J11*%
X132031800Y-127806200D02*
X132031800Y-121746200D01*
X132031800Y-129866200D02*
X130971800Y-129866200D01*
X132031800Y-121746200D02*
X127911800Y-121746200D01*
X129971800Y-127806200D02*
X129971800Y-129866200D01*
X129971800Y-129866200D02*
X127911800Y-129866200D01*
X132031800Y-128806200D02*
X132031800Y-129866200D01*
X132031800Y-127806200D02*
X129971800Y-127806200D01*
X127911800Y-129866200D02*
X127911800Y-121746200D01*
%TO.C,R27*%
X92820258Y-129017500D02*
X92345742Y-129017500D01*
X92820258Y-130062500D02*
X92345742Y-130062500D01*
%TO.C,R23*%
X118505500Y-127448542D02*
X118505500Y-127923058D01*
X117460500Y-127448542D02*
X117460500Y-127923058D01*
%TO.C,C4*%
X75540780Y-127556800D02*
X75259620Y-127556800D01*
X75540780Y-128576800D02*
X75259620Y-128576800D01*
%TO.C,C6*%
X94171380Y-122984800D02*
X93890220Y-122984800D01*
X94171380Y-124004800D02*
X93890220Y-124004800D01*
%TO.C,J1*%
X96085000Y-106690000D02*
X96085000Y-108490000D01*
X98335000Y-107440000D02*
X101285000Y-107440000D01*
X102045000Y-114300000D02*
X102045000Y-106680000D01*
X96075000Y-114300000D02*
X102045000Y-114300000D01*
X96835000Y-110990000D02*
X96835000Y-109990000D01*
X96835000Y-108490000D02*
X96835000Y-106690000D01*
X95785000Y-113340000D02*
X95785000Y-114590000D01*
X96085000Y-114290000D02*
X96835000Y-114290000D01*
X96835000Y-109990000D02*
X96085000Y-109990000D01*
X98335000Y-106690000D02*
X98335000Y-107440000D01*
X101285000Y-113540000D02*
X101285000Y-110490000D01*
X96835000Y-114290000D02*
X96835000Y-112490000D01*
X95785000Y-114590000D02*
X97035000Y-114590000D01*
X96085000Y-112490000D02*
X96085000Y-114290000D01*
X96835000Y-112490000D02*
X96085000Y-112490000D01*
X102045000Y-106680000D02*
X96075000Y-106680000D01*
X98335000Y-114290000D02*
X98335000Y-113540000D01*
X96075000Y-106680000D02*
X96075000Y-114300000D01*
X98335000Y-113540000D02*
X101285000Y-113540000D01*
X101285000Y-107440000D02*
X101285000Y-110490000D01*
X96835000Y-106690000D02*
X96085000Y-106690000D01*
X96085000Y-108490000D02*
X96835000Y-108490000D01*
X96085000Y-110990000D02*
X96835000Y-110990000D01*
X96085000Y-109990000D02*
X96085000Y-110990000D01*
%TO.C,Q3*%
X84328000Y-104355000D02*
X82653000Y-104355000D01*
X84328000Y-107475000D02*
X83678000Y-107475000D01*
X84328000Y-104355000D02*
X84978000Y-104355000D01*
X84328000Y-107475000D02*
X84978000Y-107475000D01*
%TO.C,D2*%
X101728600Y-106183800D02*
X103198600Y-106183800D01*
X103198600Y-106183800D02*
X103198600Y-103898800D01*
X101728600Y-103898800D02*
X101728600Y-106183800D01*
%TO.C,R14*%
X125721342Y-148931100D02*
X126195858Y-148931100D01*
X125721342Y-149976100D02*
X126195858Y-149976100D01*
%TO.C,R11*%
X83836742Y-101201500D02*
X84311258Y-101201500D01*
X83836742Y-102246500D02*
X84311258Y-102246500D01*
%TO.C,J3*%
X121262000Y-156941000D02*
X121262000Y-152471000D01*
X108862000Y-143541000D02*
X121262000Y-143541000D01*
X121262000Y-156941000D02*
X108862000Y-156941000D01*
X108862000Y-156941000D02*
X108862000Y-152471000D01*
X121872000Y-148941000D02*
X121372000Y-148441000D01*
X108862000Y-149011000D02*
X108862000Y-143541000D01*
X121262000Y-143541000D02*
X121262000Y-149011000D01*
X121872000Y-147941000D02*
X121872000Y-148941000D01*
X121372000Y-148441000D02*
X121872000Y-147941000D01*
%TO.C,J8*%
X99079000Y-105515000D02*
X93199000Y-105515000D01*
X99199000Y-102395000D02*
X99199000Y-101405000D01*
X92029000Y-103545000D02*
X92029000Y-102395000D01*
X100249000Y-102395000D02*
X99199000Y-102395000D01*
X100249000Y-103545000D02*
X100249000Y-102395000D01*
X92029000Y-102395000D02*
X93079000Y-102395000D01*
D13*
%TO.C,D4*%
X124331800Y-150441200D02*
G75*
G03*
X124331800Y-150441200I-75000J0D01*
G01*
D15*
%TO.C,U2*%
X73898400Y-125056800D02*
X73898400Y-123456800D01*
X77028400Y-125056800D02*
X77028400Y-123456800D01*
D16*
X74363400Y-126656800D02*
G75*
G03*
X74363400Y-126656800I-100000J0D01*
G01*
D10*
%TO.C,R9*%
X76343742Y-101201500D02*
X76818258Y-101201500D01*
X76343742Y-102246500D02*
X76818258Y-102246500D01*
D13*
%TO.C,D5*%
X98257000Y-149098000D02*
G75*
G03*
X98257000Y-149098000I-75000J0D01*
G01*
D10*
%TO.C,C13*%
X92091000Y-143137836D02*
X92091000Y-142922164D01*
X92811000Y-143137836D02*
X92811000Y-142922164D01*
%TO.C,U1*%
X87484000Y-136911000D02*
X86224000Y-136911000D01*
X87484000Y-130901000D02*
X87484000Y-136911000D01*
X80664000Y-136911000D02*
X81924000Y-136911000D01*
X80664000Y-133151000D02*
X80664000Y-136911000D01*
%TO.C,R21*%
X88916742Y-108900700D02*
X89391258Y-108900700D01*
X88916742Y-109945700D02*
X89391258Y-109945700D01*
%TO.C,C10*%
X99929836Y-147468000D02*
X99714164Y-147468000D01*
X99929836Y-148188000D02*
X99714164Y-148188000D01*
%TO.C,D9*%
X81264000Y-100921000D02*
X81264000Y-104771000D01*
X79264000Y-100921000D02*
X79264000Y-104771000D01*
X81264000Y-100921000D02*
X79264000Y-100921000D01*
%TO.C,R5*%
X93087000Y-142876359D02*
X93087000Y-143183641D01*
X93847000Y-142876359D02*
X93847000Y-143183641D01*
%TO.C,R28*%
X107024700Y-148547858D02*
X107024700Y-148073342D01*
X105979700Y-148547858D02*
X105979700Y-148073342D01*
%TO.C,D10*%
X88884000Y-102064000D02*
X88884000Y-105914000D01*
X86884000Y-102064000D02*
X86884000Y-105914000D01*
X88884000Y-102064000D02*
X86884000Y-102064000D01*
%TO.C,D3*%
X73771000Y-100921000D02*
X71771000Y-100921000D01*
X73771000Y-100921000D02*
X73771000Y-104771000D01*
X71771000Y-100921000D02*
X71771000Y-104771000D01*
D15*
%TO.C,Y1*%
X94096400Y-128342800D02*
X92136400Y-128342800D01*
X92136400Y-124742800D02*
X94096400Y-124742800D01*
D16*
X89516400Y-127742800D02*
G75*
G03*
X89516400Y-127742800I-100000J0D01*
G01*
D15*
%TO.C,J12*%
X102514000Y-153230500D02*
X102514000Y-154670500D01*
X102514000Y-157410500D02*
X102514000Y-158640500D01*
X93574000Y-153230500D02*
X93574000Y-154670500D01*
X102514000Y-158640500D02*
X93574000Y-158640500D01*
X93574000Y-158640500D02*
X93574000Y-157410500D01*
D16*
X94744000Y-149640500D02*
G75*
G03*
X94744000Y-149640500I-100000J0D01*
G01*
D10*
%TO.C,C17*%
X95139000Y-143137836D02*
X95139000Y-142922164D01*
X95859000Y-143137836D02*
X95859000Y-142922164D01*
%TO.C,C5*%
X72261000Y-123684420D02*
X72261000Y-123965580D01*
X73281000Y-123684420D02*
X73281000Y-123965580D01*
%TO.C,R16*%
X116981500Y-127448542D02*
X116981500Y-127923058D01*
X115936500Y-127448542D02*
X115936500Y-127923058D01*
%TO.C,C14*%
X96875000Y-142922164D02*
X96875000Y-143137836D01*
X96155000Y-142922164D02*
X96155000Y-143137836D01*
%TO.C,SW1*%
X126333800Y-113435600D02*
X126333800Y-118415600D01*
X123783800Y-112945600D02*
X124133800Y-112945600D01*
X130573800Y-119795600D02*
X130573800Y-112055600D01*
X123783800Y-118905600D02*
X124133800Y-118905600D01*
X124083800Y-112055600D02*
X123783800Y-112055600D01*
X130573800Y-112055600D02*
X126723800Y-112055600D01*
X123783800Y-119795600D02*
X123783800Y-118905600D01*
X123783800Y-112945600D02*
X123783800Y-112055600D01*
X124083800Y-119795600D02*
X123783800Y-119795600D01*
X126723800Y-119795600D02*
X130573800Y-119795600D01*
%TO.C,R17*%
X83836742Y-102852500D02*
X84311258Y-102852500D01*
X83836742Y-103897500D02*
X84311258Y-103897500D01*
%TO.C,R12*%
X111317300Y-120463542D02*
X111317300Y-120938058D01*
X110272300Y-120463542D02*
X110272300Y-120938058D01*
D13*
%TO.C,TP19*%
X78458000Y-93192600D02*
G75*
G03*
X78458000Y-93192600I-1750000J0D01*
G01*
D10*
%TO.C,J10*%
X103324000Y-135499000D02*
X104074000Y-135499000D01*
X103314000Y-135509000D02*
X109284000Y-135509000D01*
X103314000Y-127889000D02*
X103314000Y-135509000D01*
X103324000Y-133699000D02*
X103324000Y-135499000D01*
X105574000Y-128649000D02*
X108524000Y-128649000D01*
X109284000Y-135509000D02*
X109284000Y-127889000D01*
X103324000Y-132199000D02*
X104074000Y-132199000D01*
X105574000Y-134749000D02*
X108524000Y-134749000D01*
X104074000Y-133699000D02*
X103324000Y-133699000D01*
X105574000Y-135499000D02*
X105574000Y-134749000D01*
X105574000Y-127899000D02*
X105574000Y-128649000D01*
X103024000Y-135799000D02*
X104274000Y-135799000D01*
X108524000Y-128649000D02*
X108524000Y-131699000D01*
X103024000Y-134549000D02*
X103024000Y-135799000D01*
X104074000Y-129699000D02*
X104074000Y-127899000D01*
X103324000Y-127899000D02*
X103324000Y-129699000D01*
X109284000Y-127889000D02*
X103314000Y-127889000D01*
X104074000Y-132199000D02*
X104074000Y-131199000D01*
X108524000Y-134749000D02*
X108524000Y-131699000D01*
X104074000Y-131199000D02*
X103324000Y-131199000D01*
X104074000Y-135499000D02*
X104074000Y-133699000D01*
X103324000Y-129699000D02*
X104074000Y-129699000D01*
X103324000Y-131199000D02*
X103324000Y-132199000D01*
X104074000Y-127899000D02*
X103324000Y-127899000D01*
%TO.C,Q1*%
X69342000Y-104355000D02*
X69992000Y-104355000D01*
X69342000Y-107475000D02*
X68692000Y-107475000D01*
X69342000Y-107475000D02*
X69992000Y-107475000D01*
X69342000Y-104355000D02*
X67667000Y-104355000D01*
%TO.C,C11*%
X84097400Y-128740780D02*
X84097400Y-128459620D01*
X85117400Y-128740780D02*
X85117400Y-128459620D01*
%TO.C,C12*%
X94153400Y-130623364D02*
X94153400Y-130839036D01*
X94873400Y-130623364D02*
X94873400Y-130839036D01*
D15*
%TO.C,U3*%
X105026000Y-147203000D02*
X98926000Y-147203000D01*
X105026000Y-142103000D02*
X98926000Y-142103000D01*
D16*
X106161000Y-146558000D02*
G75*
G03*
X106161000Y-146558000I-100000J0D01*
G01*
D10*
%TO.C,R24*%
X106211900Y-152535658D02*
X106211900Y-152061142D01*
X105166900Y-152535658D02*
X105166900Y-152061142D01*
%TO.C,J7*%
X94074000Y-112677000D02*
X95064000Y-112677000D01*
X94074000Y-107507000D02*
X94074000Y-108557000D01*
X92924000Y-107507000D02*
X94074000Y-107507000D01*
X90954000Y-112557000D02*
X90954000Y-108677000D01*
X94074000Y-113727000D02*
X94074000Y-112677000D01*
X92924000Y-113727000D02*
X94074000Y-113727000D01*
%TO.C,R13*%
X126354100Y-152129258D02*
X126354100Y-151654742D01*
X125309100Y-152129258D02*
X125309100Y-151654742D01*
%TO.C,C23*%
X90438164Y-139213000D02*
X90653836Y-139213000D01*
X90438164Y-139933000D02*
X90653836Y-139933000D01*
%TO.C,R10*%
X94115658Y-120533900D02*
X93641142Y-120533900D01*
X94115658Y-121578900D02*
X93641142Y-121578900D01*
%TO.C,R8*%
X105018100Y-106206058D02*
X105018100Y-105731542D01*
X103973100Y-106206058D02*
X103973100Y-105731542D01*
%TO.C,D8*%
X111939400Y-119799200D02*
X111939400Y-122084200D01*
X111939400Y-122084200D02*
X113409400Y-122084200D01*
X113409400Y-122084200D02*
X113409400Y-119799200D01*
%TO.C,C19*%
X90438164Y-141076000D02*
X90653836Y-141076000D01*
X90438164Y-140356000D02*
X90653836Y-140356000D01*
%TO.C,R22*%
X88916742Y-111749100D02*
X89391258Y-111749100D01*
X88916742Y-110704100D02*
X89391258Y-110704100D01*
%TO.C,J5*%
X87667600Y-142256000D02*
X87667600Y-144056000D01*
X78467600Y-156956000D02*
X78467600Y-142256000D01*
X87667600Y-148456000D02*
X87667600Y-156956000D01*
X79867600Y-141956000D02*
X78167600Y-141956000D01*
X85567600Y-142256000D02*
X87667600Y-142256000D01*
X87667600Y-156956000D02*
X78467600Y-156956000D01*
X78167600Y-141956000D02*
X78167600Y-143556000D01*
X78467600Y-142256000D02*
X80567600Y-142256000D01*
%TO.C,R26*%
X107605300Y-143899658D02*
X107605300Y-143425142D01*
X108650300Y-143899658D02*
X108650300Y-143425142D01*
%TO.C,R19*%
X70016900Y-124050058D02*
X70016900Y-123575542D01*
X68971900Y-124050058D02*
X68971900Y-123575542D01*
D13*
%TO.C,D6*%
X97989000Y-149098000D02*
G75*
G03*
X97989000Y-149098000I-75000J0D01*
G01*
D10*
%TO.C,J2*%
X95785000Y-122845000D02*
X97035000Y-122845000D01*
X102045000Y-114935000D02*
X96075000Y-114935000D01*
X95785000Y-121595000D02*
X95785000Y-122845000D01*
X96085000Y-118245000D02*
X96085000Y-119245000D01*
X96085000Y-122545000D02*
X96835000Y-122545000D01*
X101285000Y-115695000D02*
X101285000Y-118745000D01*
X102045000Y-122555000D02*
X102045000Y-114935000D01*
X96075000Y-122555000D02*
X102045000Y-122555000D01*
X98335000Y-122545000D02*
X98335000Y-121795000D01*
X96075000Y-114935000D02*
X96075000Y-122555000D01*
X101285000Y-121795000D02*
X101285000Y-118745000D01*
X96835000Y-114945000D02*
X96085000Y-114945000D01*
X96835000Y-122545000D02*
X96835000Y-120745000D01*
X96085000Y-116745000D02*
X96835000Y-116745000D01*
X96835000Y-116745000D02*
X96835000Y-114945000D01*
X96835000Y-119245000D02*
X96835000Y-118245000D01*
X96835000Y-118245000D02*
X96085000Y-118245000D01*
X98335000Y-115695000D02*
X101285000Y-115695000D01*
X96835000Y-120745000D02*
X96085000Y-120745000D01*
X96085000Y-119245000D02*
X96835000Y-119245000D01*
X96085000Y-114945000D02*
X96085000Y-116745000D01*
X96085000Y-120745000D02*
X96085000Y-122545000D01*
X98335000Y-121795000D02*
X101285000Y-121795000D01*
X98335000Y-114945000D02*
X98335000Y-115695000D01*
%TO.C,R3*%
X103617500Y-151113258D02*
X103617500Y-150638742D01*
X104662500Y-151113258D02*
X104662500Y-150638742D01*
%TO.C,C20*%
X95838600Y-130778364D02*
X95838600Y-130994036D01*
X95118600Y-130778364D02*
X95118600Y-130994036D01*
%TO.C,C3*%
X82436580Y-128877600D02*
X82155420Y-128877600D01*
X82436580Y-129897600D02*
X82155420Y-129897600D01*
%TO.C,C9*%
X70817200Y-130518780D02*
X70817200Y-130237620D01*
X69797200Y-130518780D02*
X69797200Y-130237620D01*
%TO.C,C2*%
X75540780Y-130075400D02*
X75259620Y-130075400D01*
X75540780Y-129055400D02*
X75259620Y-129055400D01*
%TO.C,C21*%
X108178400Y-136123400D02*
X104268400Y-136123400D01*
X104268400Y-136123400D02*
X104268400Y-137993400D01*
X104268400Y-137993400D02*
X108178400Y-137993400D01*
%TO.C,R7*%
X68850742Y-103897500D02*
X69325258Y-103897500D01*
X68850742Y-102852500D02*
X69325258Y-102852500D01*
%TO.C,F1*%
X116781000Y-114136852D02*
X116781000Y-111364348D01*
X120201000Y-114136852D02*
X120201000Y-111364348D01*
%TO.C,J4*%
X109284000Y-127127000D02*
X109284000Y-119507000D01*
X109274000Y-123817000D02*
X109274000Y-122817000D01*
X107024000Y-127117000D02*
X107024000Y-126367000D01*
X108524000Y-121317000D02*
X109274000Y-121317000D01*
X109574000Y-120467000D02*
X109574000Y-119217000D01*
X107024000Y-126367000D02*
X104074000Y-126367000D01*
X103314000Y-127127000D02*
X109284000Y-127127000D01*
X109274000Y-127117000D02*
X109274000Y-125317000D01*
X108524000Y-123817000D02*
X109274000Y-123817000D01*
X107024000Y-119517000D02*
X107024000Y-120267000D01*
X109274000Y-125317000D02*
X108524000Y-125317000D01*
X103314000Y-119507000D02*
X103314000Y-127127000D01*
X108524000Y-122817000D02*
X108524000Y-123817000D01*
X104074000Y-126367000D02*
X104074000Y-123317000D01*
X108524000Y-127117000D02*
X109274000Y-127117000D01*
X104074000Y-120267000D02*
X104074000Y-123317000D01*
X109274000Y-119517000D02*
X108524000Y-119517000D01*
X107024000Y-120267000D02*
X104074000Y-120267000D01*
X108524000Y-125317000D02*
X108524000Y-127117000D01*
X109274000Y-121317000D02*
X109274000Y-119517000D01*
X108524000Y-119517000D02*
X108524000Y-121317000D01*
X109274000Y-122817000D02*
X108524000Y-122817000D01*
X109284000Y-119507000D02*
X103314000Y-119507000D01*
X109574000Y-119217000D02*
X108324000Y-119217000D01*
%TO.C,C7*%
X89675580Y-130050000D02*
X89394420Y-130050000D01*
X89675580Y-129030000D02*
X89394420Y-129030000D01*
%TO.C,R1*%
X93107742Y-148067500D02*
X93582258Y-148067500D01*
X93107742Y-149112500D02*
X93582258Y-149112500D01*
%TO.C,R2*%
X102853258Y-149112500D02*
X102378742Y-149112500D01*
X102853258Y-148067500D02*
X102378742Y-148067500D01*
%TO.C,L1*%
X72261800Y-132307400D02*
X72261800Y-132757400D01*
X78461800Y-138507400D02*
X78461800Y-138057400D01*
X72261800Y-138507400D02*
X72261800Y-138057400D01*
X78461800Y-138507400D02*
X72261800Y-138507400D01*
X78461800Y-132307400D02*
X78461800Y-132757400D01*
X72261800Y-132307400D02*
X78461800Y-132307400D01*
%TO.C,R18*%
X77531700Y-123706658D02*
X77531700Y-123232142D01*
X78576700Y-123706658D02*
X78576700Y-123232142D01*
D13*
%TO.C,D12*%
X106983600Y-151228600D02*
G75*
G03*
X106983600Y-151228600I-75000J0D01*
G01*
D10*
%TO.C,J6*%
X113409000Y-118542000D02*
X113409000Y-118042000D01*
X113169000Y-118302000D02*
X113169000Y-108022000D01*
X109748000Y-111656000D02*
X109783000Y-111691000D01*
X103248000Y-118302000D02*
X113169000Y-118302000D01*
X112609000Y-118302000D02*
X112609000Y-108022000D01*
X109532000Y-111849000D02*
X109578000Y-111896000D01*
X106208000Y-118302000D02*
X106208000Y-108022000D01*
X103248000Y-108022000D02*
X113169000Y-108022000D01*
X111109000Y-118302000D02*
X111109000Y-108022000D01*
X112669000Y-118542000D02*
X113409000Y-118542000D01*
X107234000Y-109552000D02*
X107270000Y-109587000D01*
X103248000Y-118302000D02*
X103248000Y-108022000D01*
X107440000Y-109347000D02*
X107486000Y-109394000D01*
X110189253Y-115673195D02*
G75*
G02*
X110044000Y-116386000I-1680253J-28805D01*
G01*
X109192042Y-117237426D02*
G75*
G02*
X107825000Y-117237000I-683042J1535426D01*
G01*
X107825958Y-114166574D02*
G75*
G02*
X109193000Y-114167000I683042J-1535426D01*
G01*
X110043756Y-115018682D02*
G75*
G02*
X110189000Y-115702000I-1534756J-683318D01*
G01*
X106973574Y-116385042D02*
G75*
G02*
X106974000Y-115018000I1535426J683042D01*
G01*
X110189000Y-110622000D02*
G75*
G03*
X110189000Y-110622000I-1680000J0D01*
G01*
%TO.C,C16*%
X90775200Y-137090036D02*
X90775200Y-136874364D01*
X91495200Y-137090036D02*
X91495200Y-136874364D01*
%TO.C,R6*%
X68850742Y-102246500D02*
X69325258Y-102246500D01*
X68850742Y-101201500D02*
X69325258Y-101201500D01*
%TO.C,C8*%
X72544400Y-130544180D02*
X72544400Y-130263020D01*
X71524400Y-130544180D02*
X71524400Y-130263020D01*
%TO.C,C15*%
X101365164Y-136224600D02*
X101580836Y-136224600D01*
X101365164Y-135504600D02*
X101580836Y-135504600D01*
%TO.C,D7*%
X95477000Y-118148000D02*
X95477000Y-115863000D01*
X95477000Y-115863000D02*
X94007000Y-115863000D01*
X94007000Y-115863000D02*
X94007000Y-118148000D01*
%TO.C,C1*%
X75540780Y-131599400D02*
X75259620Y-131599400D01*
X75540780Y-130579400D02*
X75259620Y-130579400D01*
%TO.C,D11*%
X115452400Y-124698400D02*
X115452400Y-128548400D01*
X113452400Y-124698400D02*
X113452400Y-128548400D01*
X115452400Y-124698400D02*
X113452400Y-124698400D01*
%TO.C,R4*%
X94103000Y-142876359D02*
X94103000Y-143183641D01*
X94863000Y-142876359D02*
X94863000Y-143183641D01*
%TO.C,R25*%
X107452900Y-147240258D02*
X107452900Y-146765742D01*
X108497900Y-147240258D02*
X108497900Y-146765742D01*
%TO.C,C18*%
X101174436Y-140949000D02*
X100958764Y-140949000D01*
X101174436Y-140229000D02*
X100958764Y-140229000D01*
%TO.C,C22*%
X91795000Y-143137836D02*
X91795000Y-142922164D01*
X91075000Y-143137836D02*
X91075000Y-142922164D01*
%TO.C,R15*%
X76343742Y-103897500D02*
X76818258Y-103897500D01*
X76343742Y-102852500D02*
X76818258Y-102852500D01*
%TO.C,R20*%
X71642500Y-123600942D02*
X71642500Y-124075458D01*
X70597500Y-123600942D02*
X70597500Y-124075458D01*
%TO.C,U4*%
X92270000Y-133550000D02*
X92270000Y-134200000D01*
X98840000Y-133550000D02*
X99490000Y-133550000D01*
X98840000Y-140770000D02*
X99490000Y-140770000D01*
X99490000Y-133550000D02*
X99490000Y-134200000D01*
X92920000Y-140770000D02*
X92270000Y-140770000D01*
X92920000Y-133550000D02*
X92270000Y-133550000D01*
X92270000Y-140770000D02*
X92270000Y-140120000D01*
%TD*%
M02*
