G04 #@! TF.GenerationSoftware,KiCad,Pcbnew,6.0.0-d3dd2cf0fa~116~ubuntu20.04.1*
G04 #@! TF.CreationDate,2023-02-13T12:17:36+00:00*
G04 #@! TF.ProjectId,pixel-pump-mainboard-panel,70697865-6c2d-4707-956d-702d6d61696e,rev?*
G04 #@! TF.SameCoordinates,Original*
G04 #@! TF.FileFunction,Legend,Bot*
G04 #@! TF.FilePolarity,Positive*
%FSLAX46Y46*%
G04 Gerber Fmt 4.6, Leading zero omitted, Abs format (unit mm)*
G04 Created by KiCad (PCBNEW 6.0.0-d3dd2cf0fa~116~ubuntu20.04.1) date 2023-02-13 12:17:36*
%MOMM*%
%LPD*%
G01*
G04 APERTURE LIST*
%ADD10C,0.120000*%
G04 APERTURE END LIST*
D10*
G04 #@! TO.C,TP13*
X95000000Y-42116399D02*
G75*
G03*
X95000000Y-42116399I-1200000J0D01*
G01*
G04 #@! TO.C,TP6*
X147669000Y-106922019D02*
G75*
G03*
X147669000Y-106922019I-1200000J0D01*
G01*
G04 #@! TO.C,TP24*
X77137000Y-118560019D02*
G75*
G03*
X77137000Y-118560019I-1200000J0D01*
G01*
G04 #@! TO.C,TP1*
X45717200Y-74488799D02*
G75*
G03*
X45717200Y-74488799I-1200000J0D01*
G01*
G04 #@! TO.C,TP10*
X14850000Y-112288019D02*
G75*
G03*
X14850000Y-112288019I-1200000J0D01*
G01*
G04 #@! TO.C,TP9*
X21917400Y-109263619D02*
G75*
G03*
X21917400Y-109263619I-1200000J0D01*
G01*
G04 #@! TO.C,TP16*
X101120600Y-49850799D02*
G75*
G03*
X101120600Y-49850799I-1200000J0D01*
G01*
G04 #@! TO.C,TP7*
X18500000Y-107676019D02*
G75*
G03*
X18500000Y-107676019I-1200000J0D01*
G01*
G04 #@! TO.C,TP31*
X61693800Y-71745599D02*
G75*
G03*
X61693800Y-71745599I-1200000J0D01*
G01*
G04 #@! TO.C,TP11*
X110137600Y-45710599D02*
G75*
G03*
X110137600Y-45710599I-1200000J0D01*
G01*
G04 #@! TO.C,TP22*
X69186800Y-56175399D02*
G75*
G03*
X69186800Y-56175399I-1200000J0D01*
G01*
G04 #@! TO.C,TP11*
X31137600Y-45710599D02*
G75*
G03*
X31137600Y-45710599I-1200000J0D01*
G01*
G04 #@! TO.C,TP25*
X134902600Y-49418999D02*
G75*
G03*
X134902600Y-49418999I-1200000J0D01*
G01*
G04 #@! TO.C,TP1*
X124717200Y-74488799D02*
G75*
G03*
X124717200Y-74488799I-1200000J0D01*
G01*
G04 #@! TO.C,TP3*
X65128000Y-106922019D02*
G75*
G03*
X65128000Y-106922019I-1200000J0D01*
G01*
G04 #@! TO.C,TP25*
X55902600Y-127678619D02*
G75*
G03*
X55902600Y-127678619I-1200000J0D01*
G01*
G04 #@! TO.C,TP1*
X124717200Y-152748419D02*
G75*
G03*
X124717200Y-152748419I-1200000J0D01*
G01*
G04 #@! TO.C,TP14*
X148263000Y-123640019D02*
G75*
G03*
X148263000Y-123640019I-1200000J0D01*
G01*
G04 #@! TO.C,TP16*
X22120600Y-128110419D02*
G75*
G03*
X22120600Y-128110419I-1200000J0D01*
G01*
G04 #@! TO.C,TP12*
X151946000Y-42586399D02*
G75*
G03*
X151946000Y-42586399I-1200000J0D01*
G01*
G04 #@! TO.C,TP28*
X55801000Y-124783019D02*
G75*
G03*
X55801000Y-124783019I-1200000J0D01*
G01*
G04 #@! TO.C,TP7*
X97500000Y-29416399D02*
G75*
G03*
X97500000Y-29416399I-1200000J0D01*
G01*
G04 #@! TO.C,TP4*
X14850000Y-108926019D02*
G75*
G03*
X14850000Y-108926019I-1200000J0D01*
G01*
G04 #@! TO.C,TP1*
X45717200Y-152748419D02*
G75*
G03*
X45717200Y-152748419I-1200000J0D01*
G01*
G04 #@! TO.C,TP31*
X61693800Y-150005219D02*
G75*
G03*
X61693800Y-150005219I-1200000J0D01*
G01*
G04 #@! TO.C,TP9*
X100917400Y-31003999D02*
G75*
G03*
X100917400Y-31003999I-1200000J0D01*
G01*
X21917400Y-31003999D02*
G75*
G03*
X21917400Y-31003999I-1200000J0D01*
G01*
G04 #@! TO.C,TP16*
X101120600Y-128110419D02*
G75*
G03*
X101120600Y-128110419I-1200000J0D01*
G01*
X22120600Y-49850799D02*
G75*
G03*
X22120600Y-49850799I-1200000J0D01*
G01*
G04 #@! TO.C,TP27*
X53057800Y-49520599D02*
G75*
G03*
X53057800Y-49520599I-1200000J0D01*
G01*
G04 #@! TO.C,TP6*
X147669000Y-28662399D02*
G75*
G03*
X147669000Y-28662399I-1200000J0D01*
G01*
G04 #@! TO.C,TP4*
X14850000Y-30666399D02*
G75*
G03*
X14850000Y-30666399I-1200000J0D01*
G01*
G04 #@! TO.C,TP26*
X132007000Y-42840399D02*
G75*
G03*
X132007000Y-42840399I-1200000J0D01*
G01*
G04 #@! TO.C,TP2*
X42618400Y-74488799D02*
G75*
G03*
X42618400Y-74488799I-1200000J0D01*
G01*
G04 #@! TO.C,TP15*
X148644000Y-126688019D02*
G75*
G03*
X148644000Y-126688019I-1200000J0D01*
G01*
G04 #@! TO.C,TP9*
X100917400Y-109263619D02*
G75*
G03*
X100917400Y-109263619I-1200000J0D01*
G01*
G04 #@! TO.C,TP5*
X35150800Y-56607199D02*
G75*
G03*
X35150800Y-56607199I-1200000J0D01*
G01*
G04 #@! TO.C,TP10*
X93850000Y-112288019D02*
G75*
G03*
X93850000Y-112288019I-1200000J0D01*
G01*
G04 #@! TO.C,TP20*
X58544200Y-71694799D02*
G75*
G03*
X58544200Y-71694799I-1200000J0D01*
G01*
G04 #@! TO.C,TP22*
X69186800Y-134435019D02*
G75*
G03*
X69186800Y-134435019I-1200000J0D01*
G01*
G04 #@! TO.C,TP27*
X132057800Y-49520599D02*
G75*
G03*
X132057800Y-49520599I-1200000J0D01*
G01*
G04 #@! TO.C,TP12*
X151946000Y-120846019D02*
G75*
G03*
X151946000Y-120846019I-1200000J0D01*
G01*
G04 #@! TO.C,TP15*
X69644000Y-48428399D02*
G75*
G03*
X69644000Y-48428399I-1200000J0D01*
G01*
G04 #@! TO.C,TP6*
X68669000Y-106922019D02*
G75*
G03*
X68669000Y-106922019I-1200000J0D01*
G01*
G04 #@! TO.C,TP26*
X132007000Y-121100019D02*
G75*
G03*
X132007000Y-121100019I-1200000J0D01*
G01*
G04 #@! TO.C,TP24*
X77137000Y-40300399D02*
G75*
G03*
X77137000Y-40300399I-1200000J0D01*
G01*
G04 #@! TO.C,TP2*
X121618400Y-74488799D02*
G75*
G03*
X121618400Y-74488799I-1200000J0D01*
G01*
G04 #@! TO.C,TP15*
X148644000Y-48428399D02*
G75*
G03*
X148644000Y-48428399I-1200000J0D01*
G01*
G04 #@! TO.C,TP5*
X35150800Y-134866819D02*
G75*
G03*
X35150800Y-134866819I-1200000J0D01*
G01*
G04 #@! TO.C,TP23*
X151285600Y-138422819D02*
G75*
G03*
X151285600Y-138422819I-1200000J0D01*
G01*
G04 #@! TO.C,TP26*
X53007000Y-42840399D02*
G75*
G03*
X53007000Y-42840399I-1200000J0D01*
G01*
G04 #@! TO.C,TP4*
X93850000Y-108926019D02*
G75*
G03*
X93850000Y-108926019I-1200000J0D01*
G01*
G04 #@! TO.C,TP6*
X68669000Y-28662399D02*
G75*
G03*
X68669000Y-28662399I-1200000J0D01*
G01*
G04 #@! TO.C,TP23*
X72285600Y-60163199D02*
G75*
G03*
X72285600Y-60163199I-1200000J0D01*
G01*
G04 #@! TO.C,TP22*
X148186800Y-56175399D02*
G75*
G03*
X148186800Y-56175399I-1200000J0D01*
G01*
G04 #@! TO.C,TP20*
X137544200Y-71694799D02*
G75*
G03*
X137544200Y-71694799I-1200000J0D01*
G01*
G04 #@! TO.C,TP23*
X151285600Y-60163199D02*
G75*
G03*
X151285600Y-60163199I-1200000J0D01*
G01*
G04 #@! TO.C,TP12*
X72946000Y-42586399D02*
G75*
G03*
X72946000Y-42586399I-1200000J0D01*
G01*
G04 #@! TO.C,TP14*
X69263000Y-123640019D02*
G75*
G03*
X69263000Y-123640019I-1200000J0D01*
G01*
G04 #@! TO.C,TP25*
X134902600Y-127678619D02*
G75*
G03*
X134902600Y-127678619I-1200000J0D01*
G01*
G04 #@! TO.C,TP31*
X140693800Y-150005219D02*
G75*
G03*
X140693800Y-150005219I-1200000J0D01*
G01*
G04 #@! TO.C,TP28*
X55801000Y-46523399D02*
G75*
G03*
X55801000Y-46523399I-1200000J0D01*
G01*
G04 #@! TO.C,TP2*
X42618400Y-152748419D02*
G75*
G03*
X42618400Y-152748419I-1200000J0D01*
G01*
G04 #@! TO.C,TP13*
X16000000Y-42116399D02*
G75*
G03*
X16000000Y-42116399I-1200000J0D01*
G01*
G04 #@! TO.C,TP14*
X69263000Y-45380399D02*
G75*
G03*
X69263000Y-45380399I-1200000J0D01*
G01*
G04 #@! TO.C,TP25*
X55902600Y-49418999D02*
G75*
G03*
X55902600Y-49418999I-1200000J0D01*
G01*
G04 #@! TO.C,TP3*
X144128000Y-28662399D02*
G75*
G03*
X144128000Y-28662399I-1200000J0D01*
G01*
G04 #@! TO.C,TP23*
X72285600Y-138422819D02*
G75*
G03*
X72285600Y-138422819I-1200000J0D01*
G01*
G04 #@! TO.C,TP10*
X14850000Y-34028399D02*
G75*
G03*
X14850000Y-34028399I-1200000J0D01*
G01*
G04 #@! TO.C,TP5*
X114150800Y-56607199D02*
G75*
G03*
X114150800Y-56607199I-1200000J0D01*
G01*
G04 #@! TO.C,TP3*
X144128000Y-106922019D02*
G75*
G03*
X144128000Y-106922019I-1200000J0D01*
G01*
G04 #@! TO.C,TP24*
X156137000Y-118560019D02*
G75*
G03*
X156137000Y-118560019I-1200000J0D01*
G01*
G04 #@! TO.C,TP3*
X65128000Y-28662399D02*
G75*
G03*
X65128000Y-28662399I-1200000J0D01*
G01*
G04 #@! TO.C,TP14*
X148263000Y-45380399D02*
G75*
G03*
X148263000Y-45380399I-1200000J0D01*
G01*
G04 #@! TO.C,TP7*
X18500000Y-29416399D02*
G75*
G03*
X18500000Y-29416399I-1200000J0D01*
G01*
G04 #@! TO.C,TP26*
X53007000Y-121100019D02*
G75*
G03*
X53007000Y-121100019I-1200000J0D01*
G01*
G04 #@! TO.C,TP4*
X93850000Y-30666399D02*
G75*
G03*
X93850000Y-30666399I-1200000J0D01*
G01*
G04 #@! TO.C,TP11*
X110137600Y-123970219D02*
G75*
G03*
X110137600Y-123970219I-1200000J0D01*
G01*
G04 #@! TO.C,TP13*
X95000000Y-120376019D02*
G75*
G03*
X95000000Y-120376019I-1200000J0D01*
G01*
X16000000Y-120376019D02*
G75*
G03*
X16000000Y-120376019I-1200000J0D01*
G01*
G04 #@! TO.C,TP20*
X137544200Y-149954419D02*
G75*
G03*
X137544200Y-149954419I-1200000J0D01*
G01*
G04 #@! TO.C,TP27*
X53057800Y-127780219D02*
G75*
G03*
X53057800Y-127780219I-1200000J0D01*
G01*
G04 #@! TO.C,TP15*
X69644000Y-126688019D02*
G75*
G03*
X69644000Y-126688019I-1200000J0D01*
G01*
G04 #@! TO.C,TP11*
X31137600Y-123970219D02*
G75*
G03*
X31137600Y-123970219I-1200000J0D01*
G01*
G04 #@! TO.C,TP2*
X121618400Y-152748419D02*
G75*
G03*
X121618400Y-152748419I-1200000J0D01*
G01*
G04 #@! TO.C,TP28*
X134801000Y-46523399D02*
G75*
G03*
X134801000Y-46523399I-1200000J0D01*
G01*
G04 #@! TO.C,TP7*
X97500000Y-107676019D02*
G75*
G03*
X97500000Y-107676019I-1200000J0D01*
G01*
G04 #@! TO.C,TP12*
X72946000Y-120846019D02*
G75*
G03*
X72946000Y-120846019I-1200000J0D01*
G01*
G04 #@! TO.C,TP20*
X58544200Y-149954419D02*
G75*
G03*
X58544200Y-149954419I-1200000J0D01*
G01*
G04 #@! TO.C,TP10*
X93850000Y-34028399D02*
G75*
G03*
X93850000Y-34028399I-1200000J0D01*
G01*
G04 #@! TO.C,TP27*
X132057800Y-127780219D02*
G75*
G03*
X132057800Y-127780219I-1200000J0D01*
G01*
G04 #@! TO.C,TP5*
X114150800Y-134866819D02*
G75*
G03*
X114150800Y-134866819I-1200000J0D01*
G01*
G04 #@! TO.C,TP22*
X148186800Y-134435019D02*
G75*
G03*
X148186800Y-134435019I-1200000J0D01*
G01*
G04 #@! TO.C,TP24*
X156137000Y-40300399D02*
G75*
G03*
X156137000Y-40300399I-1200000J0D01*
G01*
G04 #@! TO.C,TP28*
X134801000Y-124783019D02*
G75*
G03*
X134801000Y-124783019I-1200000J0D01*
G01*
G04 #@! TO.C,TP31*
X140693800Y-71745599D02*
G75*
G03*
X140693800Y-71745599I-1200000J0D01*
G01*
G04 #@! TD*
M02*
