G04 #@! TF.GenerationSoftware,KiCad,Pcbnew,6.0.0-d3dd2cf0fa~116~ubuntu20.04.1*
G04 #@! TF.CreationDate,2023-02-24T20:34:38+00:00*
G04 #@! TF.ProjectId,pixel-pump-mainboard-panel,70697865-6c2d-4707-956d-702d6d61696e,9*
G04 #@! TF.SameCoordinates,Original*
G04 #@! TF.FileFunction,Soldermask,Top*
G04 #@! TF.FilePolarity,Negative*
%FSLAX46Y46*%
G04 Gerber Fmt 4.6, Leading zero omitted, Abs format (unit mm)*
G04 Created by KiCad (PCBNEW 6.0.0-d3dd2cf0fa~116~ubuntu20.04.1) date 2023-02-24 20:34:38*
%MOMM*%
%LPD*%
G01*
G04 APERTURE LIST*
G04 Aperture macros list*
%AMRoundRect*
0 Rectangle with rounded corners*
0 $1 Rounding radius*
0 $2 $3 $4 $5 $6 $7 $8 $9 X,Y pos of 4 corners*
0 Add a 4 corners polygon primitive as box body*
4,1,4,$2,$3,$4,$5,$6,$7,$8,$9,$2,$3,0*
0 Add four circle primitives for the rounded corners*
1,1,$1+$1,$2,$3*
1,1,$1+$1,$4,$5*
1,1,$1+$1,$6,$7*
1,1,$1+$1,$8,$9*
0 Add four rect primitives between the rounded corners*
20,1,$1+$1,$2,$3,$4,$5,0*
20,1,$1+$1,$4,$5,$6,$7,0*
20,1,$1+$1,$6,$7,$8,$9,0*
20,1,$1+$1,$8,$9,$2,$3,0*%
G04 Aperture macros list end*
%ADD10C,0.500000*%
%ADD11RoundRect,0.225000X0.250000X-0.225000X0.250000X0.225000X-0.250000X0.225000X-0.250000X-0.225000X0*%
%ADD12RoundRect,0.200000X-0.275000X0.200000X-0.275000X-0.200000X0.275000X-0.200000X0.275000X0.200000X0*%
%ADD13RoundRect,0.150000X-0.587500X-0.150000X0.587500X-0.150000X0.587500X0.150000X-0.587500X0.150000X0*%
%ADD14RoundRect,0.200000X-0.200000X-0.275000X0.200000X-0.275000X0.200000X0.275000X-0.200000X0.275000X0*%
%ADD15R,1.800000X2.500000*%
%ADD16RoundRect,0.050000X0.387500X0.050000X-0.387500X0.050000X-0.387500X-0.050000X0.387500X-0.050000X0*%
%ADD17RoundRect,0.050000X0.050000X0.387500X-0.050000X0.387500X-0.050000X-0.387500X0.050000X-0.387500X0*%
%ADD18RoundRect,0.144000X1.456000X1.456000X-1.456000X1.456000X-1.456000X-1.456000X1.456000X-1.456000X0*%
%ADD19RoundRect,0.225000X-0.250000X0.225000X-0.250000X-0.225000X0.250000X-0.225000X0.250000X0.225000X0*%
%ADD20RoundRect,0.140000X0.140000X0.170000X-0.140000X0.170000X-0.140000X-0.170000X0.140000X-0.170000X0*%
%ADD21RoundRect,0.225000X0.225000X0.250000X-0.225000X0.250000X-0.225000X-0.250000X0.225000X-0.250000X0*%
%ADD22R,1.100000X1.100000*%
%ADD23C,0.800000*%
%ADD24C,6.400000*%
%ADD25RoundRect,0.250000X0.750000X-0.600000X0.750000X0.600000X-0.750000X0.600000X-0.750000X-0.600000X0*%
%ADD26O,2.000000X1.700000*%
%ADD27C,0.700000*%
%ADD28R,0.600000X1.450000*%
%ADD29R,0.300000X1.450000*%
%ADD30O,1.050000X2.100000*%
%ADD31RoundRect,0.200000X0.200000X0.275000X-0.200000X0.275000X-0.200000X-0.275000X0.200000X-0.275000X0*%
%ADD32RoundRect,0.218750X-0.256250X0.218750X-0.256250X-0.218750X0.256250X-0.218750X0.256250X0.218750X0*%
%ADD33RoundRect,0.250000X0.312500X1.450000X-0.312500X1.450000X-0.312500X-1.450000X0.312500X-1.450000X0*%
%ADD34R,0.990600X1.498600*%
%ADD35R,3.276600X1.498600*%
%ADD36R,1.500000X2.000000*%
%ADD37R,3.800000X2.000000*%
%ADD38RoundRect,0.140000X-0.140000X-0.170000X0.140000X-0.170000X0.140000X0.170000X-0.140000X0.170000X0*%
%ADD39RoundRect,0.150000X-0.150000X-0.625000X0.150000X-0.625000X0.150000X0.625000X-0.150000X0.625000X0*%
%ADD40RoundRect,0.250000X-0.350000X-0.650000X0.350000X-0.650000X0.350000X0.650000X-0.350000X0.650000X0*%
%ADD41RoundRect,0.135000X-0.185000X0.135000X-0.185000X-0.135000X0.185000X-0.135000X0.185000X0.135000X0*%
%ADD42RoundRect,0.375000X0.375000X0.725000X-0.375000X0.725000X-0.375000X-0.725000X0.375000X-0.725000X0*%
%ADD43RoundRect,0.250000X0.262500X0.450000X-0.262500X0.450000X-0.262500X-0.450000X0.262500X-0.450000X0*%
%ADD44RoundRect,0.250000X-0.250000X-0.475000X0.250000X-0.475000X0.250000X0.475000X-0.250000X0.475000X0*%
%ADD45RoundRect,0.200000X0.275000X-0.200000X0.275000X0.200000X-0.275000X0.200000X-0.275000X-0.200000X0*%
%ADD46C,1.500000*%
%ADD47RoundRect,0.150000X0.625000X-0.150000X0.625000X0.150000X-0.625000X0.150000X-0.625000X-0.150000X0*%
%ADD48RoundRect,0.250000X0.650000X-0.350000X0.650000X0.350000X-0.650000X0.350000X-0.650000X-0.350000X0*%
%ADD49RoundRect,0.140000X-0.170000X0.140000X-0.170000X-0.140000X0.170000X-0.140000X0.170000X0.140000X0*%
%ADD50R,2.600000X2.600000*%
%ADD51C,2.600000*%
%ADD52RoundRect,0.250000X-1.100000X0.325000X-1.100000X-0.325000X1.100000X-0.325000X1.100000X0.325000X0*%
%ADD53RoundRect,0.375000X-0.725000X0.375000X-0.725000X-0.375000X0.725000X-0.375000X0.725000X0.375000X0*%
%ADD54RoundRect,0.150000X0.587500X0.150000X-0.587500X0.150000X-0.587500X-0.150000X0.587500X-0.150000X0*%
%ADD55R,1.800000X1.400000*%
%ADD56C,3.000000*%
%ADD57R,1.350000X1.350000*%
%ADD58O,1.350000X1.350000*%
%ADD59C,1.000000*%
%ADD60RoundRect,0.150000X0.150000X-0.587500X0.150000X0.587500X-0.150000X0.587500X-0.150000X-0.587500X0*%
%ADD61RoundRect,0.150000X-0.150000X0.587500X-0.150000X-0.587500X0.150000X-0.587500X0.150000X0.587500X0*%
%ADD62RoundRect,0.250000X1.100000X-0.325000X1.100000X0.325000X-1.100000X0.325000X-1.100000X-0.325000X0*%
%ADD63RoundRect,0.250000X-0.750000X0.600000X-0.750000X-0.600000X0.750000X-0.600000X0.750000X0.600000X0*%
%ADD64R,0.600000X1.550000*%
%ADD65R,1.200000X1.800000*%
%ADD66RoundRect,0.140000X0.170000X-0.140000X0.170000X0.140000X-0.170000X0.140000X-0.170000X-0.140000X0*%
%ADD67R,0.965200X0.381000*%
%ADD68R,0.381000X0.965200*%
%ADD69R,2.159000X2.159000*%
%ADD70C,2.300000*%
%ADD71R,1.500000X1.500000*%
%ADD72R,1.040000X0.440000*%
%ADD73R,3.400000X4.300000*%
%ADD74R,4.400000X1.800000*%
%ADD75O,4.000000X1.800000*%
%ADD76O,1.800000X4.000000*%
%ADD77C,2.800000*%
%ADD78C,2.200000*%
%ADD79C,1.700000*%
%ADD80RoundRect,0.225000X-0.225000X-0.250000X0.225000X-0.250000X0.225000X0.250000X-0.225000X0.250000X0*%
%ADD81RoundRect,0.150000X-0.625000X0.150000X-0.625000X-0.150000X0.625000X-0.150000X0.625000X0.150000X0*%
%ADD82RoundRect,0.250000X-0.650000X0.350000X-0.650000X-0.350000X0.650000X-0.350000X0.650000X0.350000X0*%
G04 APERTURE END LIST*
D10*
G04 #@! TO.C,REF\u002A\u002A*
X104635400Y-11200000D03*
G04 #@! TD*
G04 #@! TO.C,REF\u002A\u002A*
X137352000Y-153160875D03*
G04 #@! TD*
D11*
G04 #@! TO.C,C11*
X29607400Y-128301219D03*
X29607400Y-126751219D03*
G04 #@! TD*
D12*
G04 #@! TO.C,R8*
X58665000Y-42269399D03*
X58665000Y-43919399D03*
G04 #@! TD*
D13*
G04 #@! TO.C,Q3*
X28390500Y-103891019D03*
X28390500Y-105791019D03*
X30265500Y-104841019D03*
G04 #@! TD*
D14*
G04 #@! TO.C,R6*
X92263000Y-22390399D03*
X93913000Y-22390399D03*
G04 #@! TD*
D15*
G04 #@! TO.C,D5*
X35487000Y-69299199D03*
X35487000Y-73299199D03*
G04 #@! TD*
D10*
G04 #@! TO.C,REF\u002A\u002A*
X78799999Y-114251619D03*
G04 #@! TD*
D16*
G04 #@! TO.C,U4*
X44317500Y-138686019D03*
X44317500Y-138286019D03*
X44317500Y-137886019D03*
X44317500Y-137486019D03*
X44317500Y-137086019D03*
X44317500Y-136686019D03*
X44317500Y-136286019D03*
X44317500Y-135886019D03*
X44317500Y-135486019D03*
X44317500Y-135086019D03*
X44317500Y-134686019D03*
X44317500Y-134286019D03*
X44317500Y-133886019D03*
X44317500Y-133486019D03*
D17*
X43480000Y-132648519D03*
X43080000Y-132648519D03*
X42680000Y-132648519D03*
X42280000Y-132648519D03*
X41880000Y-132648519D03*
X41480000Y-132648519D03*
X41080000Y-132648519D03*
X40680000Y-132648519D03*
X40280000Y-132648519D03*
X39880000Y-132648519D03*
X39480000Y-132648519D03*
X39080000Y-132648519D03*
X38680000Y-132648519D03*
X38280000Y-132648519D03*
D16*
X37442500Y-133486019D03*
X37442500Y-133886019D03*
X37442500Y-134286019D03*
X37442500Y-134686019D03*
X37442500Y-135086019D03*
X37442500Y-135486019D03*
X37442500Y-135886019D03*
X37442500Y-136286019D03*
X37442500Y-136686019D03*
X37442500Y-137086019D03*
X37442500Y-137486019D03*
X37442500Y-137886019D03*
X37442500Y-138286019D03*
X37442500Y-138686019D03*
D17*
X38280000Y-139523519D03*
X38680000Y-139523519D03*
X39080000Y-139523519D03*
X39480000Y-139523519D03*
X39880000Y-139523519D03*
X40280000Y-139523519D03*
X40680000Y-139523519D03*
X41080000Y-139523519D03*
X41480000Y-139523519D03*
X41880000Y-139523519D03*
X42280000Y-139523519D03*
X42680000Y-139523519D03*
X43080000Y-139523519D03*
X43480000Y-139523519D03*
D18*
X40880000Y-136086019D03*
G04 #@! TD*
D19*
G04 #@! TO.C,C21*
X50968800Y-148315819D03*
X50968800Y-149865819D03*
G04 #@! TD*
D20*
G04 #@! TO.C,C22*
X125978400Y-56581799D03*
X125018400Y-56581799D03*
G04 #@! TD*
D21*
G04 #@! TO.C,C7*
X114310000Y-50206399D03*
X112760000Y-50206399D03*
G04 #@! TD*
D14*
G04 #@! TO.C,R15*
X99756000Y-24041399D03*
X101406000Y-24041399D03*
G04 #@! TD*
D22*
G04 #@! TO.C,D9*
X104264000Y-22387399D03*
X104264000Y-25187399D03*
G04 #@! TD*
D23*
G04 #@! TO.C,H5*
X97418400Y-94226819D03*
D24*
X95018400Y-94226819D03*
D23*
X93321344Y-92529763D03*
X96715456Y-92529763D03*
X95018400Y-91826819D03*
X93321344Y-95923875D03*
X95018400Y-96626819D03*
X96715456Y-95923875D03*
X92618400Y-94226819D03*
G04 #@! TD*
D10*
G04 #@! TO.C,REF\u002A\u002A*
X78799999Y-35991999D03*
G04 #@! TD*
D25*
G04 #@! TO.C,J2*
X122535000Y-40661399D03*
D26*
X122535000Y-38161399D03*
G04 #@! TD*
D27*
G04 #@! TO.C,J12*
X40154000Y-151316519D03*
X45934000Y-151316519D03*
D28*
X39794000Y-149871519D03*
X40594000Y-149871519D03*
D29*
X41794000Y-149871519D03*
X42794000Y-149871519D03*
X43294000Y-149871519D03*
X44294000Y-149871519D03*
D28*
X46294000Y-149871519D03*
X45494000Y-149871519D03*
D29*
X44794000Y-149871519D03*
X43794000Y-149871519D03*
X42294000Y-149871519D03*
X41294000Y-149871519D03*
D30*
X38724000Y-150786519D03*
X47364000Y-150786519D03*
X38724000Y-154966519D03*
X47364000Y-154966519D03*
G04 #@! TD*
D20*
G04 #@! TO.C,C18*
X125546600Y-139515019D03*
X124586600Y-139515019D03*
G04 #@! TD*
D12*
G04 #@! TO.C,R22*
X66158000Y-40491399D03*
X66158000Y-42141399D03*
G04 #@! TD*
G04 #@! TO.C,R10*
X137538000Y-49127399D03*
X137538000Y-50777399D03*
G04 #@! TD*
D31*
G04 #@! TO.C,R27*
X117408000Y-128466019D03*
X115758000Y-128466019D03*
G04 #@! TD*
D32*
G04 #@! TO.C,D7*
X139316000Y-127424519D03*
X139316000Y-128999519D03*
G04 #@! TD*
D33*
G04 #@! TO.C,F1*
X22067500Y-70653399D03*
X17792500Y-70653399D03*
G04 #@! TD*
D10*
G04 #@! TO.C,REF\u002A\u002A*
X137952000Y-153160875D03*
G04 #@! TD*
D23*
G04 #@! TO.C,H4*
X22888800Y-143350419D03*
D24*
X20488800Y-143350419D03*
D23*
X18088800Y-143350419D03*
X22185856Y-141653363D03*
X20488800Y-145750419D03*
X18791744Y-145047475D03*
X22185856Y-145047475D03*
X18791744Y-141653363D03*
X20488800Y-140950419D03*
G04 #@! TD*
D34*
G04 #@! TO.C,Q4*
X102613000Y-53914799D03*
X100327000Y-53914799D03*
X98041000Y-53914799D03*
D35*
X100327000Y-60213999D03*
G04 #@! TD*
D33*
G04 #@! TO.C,F1*
X101067500Y-70653399D03*
X96792500Y-70653399D03*
G04 #@! TD*
D12*
G04 #@! TO.C,R12*
X58665000Y-45698399D03*
X58665000Y-47348399D03*
G04 #@! TD*
D36*
G04 #@! TO.C,U1*
X31374000Y-52517399D03*
X29074000Y-52517399D03*
X26774000Y-52517399D03*
D37*
X29074000Y-58817399D03*
G04 #@! TD*
D11*
G04 #@! TO.C,C11*
X29607400Y-50041599D03*
X29607400Y-48491599D03*
G04 #@! TD*
D10*
G04 #@! TO.C,REF\u002A\u002A*
X104035400Y-11200000D03*
G04 #@! TD*
D32*
G04 #@! TO.C,D2*
X139316000Y-42306899D03*
X139316000Y-43881899D03*
G04 #@! TD*
D38*
G04 #@! TO.C,C23*
X35066000Y-138499019D03*
X36026000Y-138499019D03*
G04 #@! TD*
D39*
G04 #@! TO.C,J9*
X132126400Y-137563419D03*
X133126400Y-137563419D03*
X134126400Y-137563419D03*
X135126400Y-137563419D03*
D40*
X130826400Y-135038419D03*
X136426400Y-135038419D03*
G04 #@! TD*
D41*
G04 #@! TO.C,R4*
X118483000Y-63186399D03*
X118483000Y-64206399D03*
G04 #@! TD*
D42*
G04 #@! TO.C,L2*
X38942000Y-100971019D03*
X32642000Y-100971019D03*
G04 #@! TD*
D20*
G04 #@! TO.C,C18*
X125546600Y-61255399D03*
X124586600Y-61255399D03*
G04 #@! TD*
D43*
G04 #@! TO.C,R19*
X21096500Y-51476399D03*
X19271500Y-51476399D03*
G04 #@! TD*
G04 #@! TO.C,R19*
X100096500Y-129736019D03*
X98271500Y-129736019D03*
G04 #@! TD*
D44*
G04 #@! TO.C,C2*
X17600000Y-111226019D03*
X19500000Y-111226019D03*
G04 #@! TD*
D45*
G04 #@! TO.C,R28*
X52315000Y-68303399D03*
X52315000Y-66653399D03*
G04 #@! TD*
D21*
G04 #@! TO.C,C25*
X150708200Y-131082219D03*
X149158200Y-131082219D03*
G04 #@! TD*
D31*
G04 #@! TO.C,R2*
X48441000Y-147516019D03*
X46791000Y-147516019D03*
G04 #@! TD*
D41*
G04 #@! TO.C,R4*
X39483000Y-141446019D03*
X39483000Y-142466019D03*
G04 #@! TD*
D46*
G04 #@! TO.C,FID2*
X151965200Y-73396599D03*
G04 #@! TD*
D24*
G04 #@! TO.C,H3*
X45076000Y-126180019D03*
D23*
X43378944Y-127877075D03*
X43378944Y-124482963D03*
X46773056Y-124482963D03*
X46773056Y-127877075D03*
X47476000Y-126180019D03*
X45076000Y-128580019D03*
X42676000Y-126180019D03*
X45076000Y-123780019D03*
G04 #@! TD*
D47*
G04 #@! TO.C,J7*
X70912000Y-125902019D03*
X70912000Y-124902019D03*
X70912000Y-123902019D03*
X70912000Y-122902019D03*
D48*
X68387000Y-127202019D03*
X68387000Y-121602019D03*
G04 #@! TD*
D49*
G04 #@! TO.C,C12*
X118513400Y-129177219D03*
X118513400Y-130137219D03*
G04 #@! TD*
D10*
G04 #@! TO.C,REF\u002A\u002A*
X25635401Y-11200000D03*
G04 #@! TD*
G04 #@! TO.C,REF\u002A\u002A*
X157799999Y-115451619D03*
G04 #@! TD*
D32*
G04 #@! TO.C,D7*
X60316000Y-49164899D03*
X60316000Y-50739899D03*
G04 #@! TD*
D12*
G04 #@! TO.C,R8*
X137665000Y-42269399D03*
X137665000Y-43919399D03*
G04 #@! TD*
D50*
G04 #@! TO.C,J6*
X138625200Y-112565819D03*
D51*
X143705200Y-112565819D03*
G04 #@! TD*
D13*
G04 #@! TO.C,Q2*
X99897500Y-103891019D03*
X99897500Y-105791019D03*
X101772500Y-104841019D03*
G04 #@! TD*
D46*
G04 #@! TO.C,FID4*
X96669400Y-151808619D03*
G04 #@! TD*
D10*
G04 #@! TO.C,REF\u002A\u002A*
X26235401Y-89459619D03*
G04 #@! TD*
D45*
G04 #@! TO.C,R3*
X128140000Y-150627019D03*
X128140000Y-148977019D03*
G04 #@! TD*
D14*
G04 #@! TO.C,R29*
X146238000Y-52238399D03*
X147888000Y-52238399D03*
G04 #@! TD*
D52*
G04 #@! TO.C,C5*
X93600000Y-50391399D03*
X93600000Y-53341399D03*
G04 #@! TD*
D53*
G04 #@! TO.C,L1*
X96957500Y-41216399D03*
X96957500Y-47516399D03*
G04 #@! TD*
D54*
G04 #@! TO.C,D4*
X118663500Y-147069019D03*
X118663500Y-145169019D03*
X116788500Y-146119019D03*
G04 #@! TD*
D38*
G04 #@! TO.C,C19*
X113456400Y-139464219D03*
X114416400Y-139464219D03*
G04 #@! TD*
D10*
G04 #@! TO.C,REF\u002A\u002A*
X90200000Y-47031399D03*
G04 #@! TD*
D45*
G04 #@! TO.C,R28*
X52315000Y-146563019D03*
X52315000Y-144913019D03*
G04 #@! TD*
D19*
G04 #@! TO.C,C21*
X129968800Y-70056199D03*
X129968800Y-71606199D03*
G04 #@! TD*
D23*
G04 #@! TO.C,H5*
X93321344Y-14270143D03*
X97418400Y-15967199D03*
X93321344Y-17664255D03*
X95018400Y-18367199D03*
X95018400Y-13567199D03*
X96715456Y-17664255D03*
D24*
X95018400Y-15967199D03*
D23*
X96715456Y-14270143D03*
X92618400Y-15967199D03*
G04 #@! TD*
D55*
G04 #@! TO.C,Y1*
X119270000Y-46026399D03*
X114870000Y-46026399D03*
X114870000Y-48426399D03*
X119270000Y-48426399D03*
G04 #@! TD*
D10*
G04 #@! TO.C,REF\u002A\u002A*
X105235400Y-89459619D03*
G04 #@! TD*
D12*
G04 #@! TO.C,R25*
X61967000Y-129038019D03*
X61967000Y-130688019D03*
G04 #@! TD*
D49*
G04 #@! TO.C,C14*
X116430600Y-63216399D03*
X116430600Y-64176399D03*
G04 #@! TD*
D11*
G04 #@! TO.C,C11*
X108607400Y-50041599D03*
X108607400Y-48491599D03*
G04 #@! TD*
D10*
G04 #@! TO.C,REF\u002A\u002A*
X102835400Y-11200000D03*
G04 #@! TD*
D49*
G04 #@! TO.C,C12*
X118513400Y-50917599D03*
X118513400Y-51877599D03*
G04 #@! TD*
D21*
G04 #@! TO.C,C7*
X114310000Y-128466019D03*
X112760000Y-128466019D03*
G04 #@! TD*
D32*
G04 #@! TO.C,D8*
X139316000Y-45735899D03*
X139316000Y-47310899D03*
G04 #@! TD*
D10*
G04 #@! TO.C,REF\u002A\u002A*
X78799999Y-37191999D03*
G04 #@! TD*
G04 #@! TO.C,REF\u002A\u002A*
X157799999Y-35391999D03*
G04 #@! TD*
D23*
G04 #@! TO.C,H2*
X75678256Y-104874163D03*
X73981200Y-108971219D03*
X75678256Y-108268275D03*
X72284144Y-104874163D03*
D24*
X73981200Y-106571219D03*
D23*
X72284144Y-108268275D03*
X73981200Y-104171219D03*
X71581200Y-106571219D03*
X76381200Y-106571219D03*
G04 #@! TD*
D10*
G04 #@! TO.C,REF\u002A\u002A*
X139752000Y-153160875D03*
G04 #@! TD*
D14*
G04 #@! TO.C,R26*
X53268000Y-140785019D03*
X54918000Y-140785019D03*
G04 #@! TD*
D13*
G04 #@! TO.C,D6*
X74192300Y-53058399D03*
X74192300Y-54958399D03*
X76067300Y-54008399D03*
G04 #@! TD*
D41*
G04 #@! TO.C,R5*
X117467000Y-63186399D03*
X117467000Y-64206399D03*
G04 #@! TD*
D33*
G04 #@! TO.C,F1*
X101067500Y-148913019D03*
X96792500Y-148913019D03*
G04 #@! TD*
D56*
G04 #@! TO.C,REF\u002A\u002A*
X4000000Y-160519239D03*
G04 #@! TD*
D10*
G04 #@! TO.C,REF\u002A\u002A*
X60152000Y-74901255D03*
G04 #@! TD*
G04 #@! TO.C,REF\u002A\u002A*
X11200001Y-124091019D03*
G04 #@! TD*
D46*
G04 #@! TO.C,FID2*
X151965200Y-151656219D03*
G04 #@! TD*
D57*
G04 #@! TO.C,J11*
X154971800Y-49472599D03*
D58*
X152971800Y-49472599D03*
X154971800Y-47472599D03*
X152971800Y-47472599D03*
X154971800Y-45472599D03*
X152971800Y-45472599D03*
X154971800Y-43472599D03*
X152971800Y-43472599D03*
G04 #@! TD*
D10*
G04 #@! TO.C,REF\u002A\u002A*
X23835401Y-11200000D03*
G04 #@! TD*
D59*
G04 #@! TO.C,REF\u002A\u002A*
X165000000Y-164519239D03*
G04 #@! TD*
D13*
G04 #@! TO.C,Q2*
X20897500Y-103891019D03*
X20897500Y-105791019D03*
X22772500Y-104841019D03*
G04 #@! TD*
D46*
G04 #@! TO.C,FID3*
X77332000Y-103269219D03*
G04 #@! TD*
D60*
G04 #@! TO.C,D1*
X59721600Y-62624699D03*
X61621600Y-62624699D03*
X60671600Y-60749699D03*
G04 #@! TD*
D13*
G04 #@! TO.C,Q3*
X28390500Y-25631399D03*
X28390500Y-27531399D03*
X30265500Y-26581399D03*
G04 #@! TD*
D10*
G04 #@! TO.C,REF\u002A\u002A*
X90200000Y-124691019D03*
G04 #@! TD*
G04 #@! TO.C,REF\u002A\u002A*
X78799999Y-36591999D03*
G04 #@! TD*
D22*
G04 #@! TO.C,D9*
X25264000Y-22387399D03*
X25264000Y-25187399D03*
G04 #@! TD*
D45*
G04 #@! TO.C,R24*
X150187200Y-71706999D03*
X150187200Y-70056999D03*
G04 #@! TD*
D53*
G04 #@! TO.C,L1*
X17957500Y-41216399D03*
X17957500Y-47516399D03*
G04 #@! TD*
D10*
G04 #@! TO.C,REF\u002A\u002A*
X157799999Y-116051619D03*
G04 #@! TD*
D61*
G04 #@! TO.C,Q5*
X65457000Y-128417519D03*
X63557000Y-128417519D03*
X64507000Y-130292519D03*
G04 #@! TD*
D10*
G04 #@! TO.C,REF\u002A\u002A*
X59552000Y-74901255D03*
G04 #@! TD*
D32*
G04 #@! TO.C,D7*
X139316000Y-49164899D03*
X139316000Y-50739899D03*
G04 #@! TD*
D10*
G04 #@! TO.C,REF\u002A\u002A*
X60752000Y-153160875D03*
G04 #@! TD*
D25*
G04 #@! TO.C,J1*
X122535000Y-32406399D03*
D26*
X122535000Y-29906399D03*
G04 #@! TD*
D45*
G04 #@! TO.C,R24*
X150187200Y-149966619D03*
X150187200Y-148316619D03*
G04 #@! TD*
D34*
G04 #@! TO.C,Q4*
X102613000Y-132174419D03*
X100327000Y-132174419D03*
X98041000Y-132174419D03*
D35*
X100327000Y-138473619D03*
G04 #@! TD*
D32*
G04 #@! TO.C,D8*
X60316000Y-45735899D03*
X60316000Y-47310899D03*
G04 #@! TD*
D10*
G04 #@! TO.C,REF\u002A\u002A*
X103435400Y-11200000D03*
G04 #@! TD*
D57*
G04 #@! TO.C,J11*
X75971800Y-127732219D03*
D58*
X73971800Y-127732219D03*
X75971800Y-125732219D03*
X73971800Y-125732219D03*
X75971800Y-123732219D03*
X73971800Y-123732219D03*
X75971800Y-121732219D03*
X73971800Y-121732219D03*
G04 #@! TD*
D20*
G04 #@! TO.C,C15*
X35624600Y-62601599D03*
X34664600Y-62601599D03*
G04 #@! TD*
D39*
G04 #@! TO.C,J9*
X53126400Y-137563419D03*
X54126400Y-137563419D03*
X55126400Y-137563419D03*
X56126400Y-137563419D03*
D40*
X57426400Y-135038419D03*
X51826400Y-135038419D03*
G04 #@! TD*
D46*
G04 #@! TO.C,FID4*
X96669400Y-73548999D03*
G04 #@! TD*
D45*
G04 #@! TO.C,R24*
X71187200Y-71706999D03*
X71187200Y-70056999D03*
G04 #@! TD*
D44*
G04 #@! TO.C,C2*
X96600000Y-111226019D03*
X98500000Y-111226019D03*
G04 #@! TD*
D62*
G04 #@! TO.C,C4*
X23500000Y-47541399D03*
X23500000Y-44591399D03*
G04 #@! TD*
D14*
G04 #@! TO.C,R15*
X20756000Y-24041399D03*
X22406000Y-24041399D03*
G04 #@! TD*
D21*
G04 #@! TO.C,C24*
X75492800Y-51603399D03*
X73942800Y-51603399D03*
G04 #@! TD*
D10*
G04 #@! TO.C,REF\u002A\u002A*
X90200000Y-124091019D03*
G04 #@! TD*
D23*
G04 #@! TO.C,H2*
X152981200Y-30711599D03*
X151284144Y-30008655D03*
X151284144Y-26614543D03*
X150581200Y-28311599D03*
D24*
X152981200Y-28311599D03*
D23*
X152981200Y-25911599D03*
X154678256Y-30008655D03*
X155381200Y-28311599D03*
X154678256Y-26614543D03*
G04 #@! TD*
D62*
G04 #@! TO.C,C4*
X23500000Y-125801019D03*
X23500000Y-122851019D03*
G04 #@! TD*
D10*
G04 #@! TO.C,REF\u002A\u002A*
X90200000Y-126491019D03*
G04 #@! TD*
D11*
G04 #@! TO.C,C27*
X135404400Y-124872219D03*
X135404400Y-123322219D03*
G04 #@! TD*
D10*
G04 #@! TO.C,REF\u002A\u002A*
X157799999Y-37791999D03*
G04 #@! TD*
D52*
G04 #@! TO.C,C5*
X93600000Y-128651019D03*
X93600000Y-131601019D03*
G04 #@! TD*
D23*
G04 #@! TO.C,H4*
X101185856Y-63393743D03*
X97791744Y-66787855D03*
X97088800Y-65090799D03*
D24*
X99488800Y-65090799D03*
D23*
X97791744Y-63393743D03*
X101185856Y-66787855D03*
X101888800Y-65090799D03*
X99488800Y-62690799D03*
X99488800Y-67490799D03*
G04 #@! TD*
D21*
G04 #@! TO.C,C6*
X118805800Y-44161199D03*
X117255800Y-44161199D03*
G04 #@! TD*
D32*
G04 #@! TO.C,D2*
X60316000Y-120566519D03*
X60316000Y-122141519D03*
G04 #@! TD*
D14*
G04 #@! TO.C,R13*
X66476000Y-132022019D03*
X68126000Y-132022019D03*
G04 #@! TD*
G04 #@! TO.C,R6*
X92263000Y-100650019D03*
X93913000Y-100650019D03*
G04 #@! TD*
D21*
G04 #@! TO.C,C25*
X150708200Y-52822599D03*
X149158200Y-52822599D03*
G04 #@! TD*
D63*
G04 #@! TO.C,J4*
X51900200Y-31227199D03*
D26*
X51900200Y-33727199D03*
G04 #@! TD*
D14*
G04 #@! TO.C,R11*
X107249000Y-22390399D03*
X108899000Y-22390399D03*
G04 #@! TD*
D10*
G04 #@! TO.C,REF\u002A\u002A*
X11200001Y-124691019D03*
G04 #@! TD*
D61*
G04 #@! TO.C,Q5*
X65457000Y-50157899D03*
X63557000Y-50157899D03*
X64507000Y-52032899D03*
G04 #@! TD*
D44*
G04 #@! TO.C,C2*
X17600000Y-32966399D03*
X19500000Y-32966399D03*
G04 #@! TD*
D22*
G04 #@! TO.C,D3*
X96771000Y-22387399D03*
X96771000Y-25187399D03*
G04 #@! TD*
D12*
G04 #@! TO.C,R14*
X93950000Y-37541399D03*
X93950000Y-39191399D03*
G04 #@! TD*
D64*
G04 #@! TO.C,J10*
X150521600Y-133848019D03*
X149521600Y-133848019D03*
X148521600Y-133848019D03*
X147521600Y-133848019D03*
X146521600Y-133848019D03*
X145521600Y-133848019D03*
X144521600Y-133848019D03*
X143521600Y-133848019D03*
X142521600Y-133848019D03*
X141521600Y-133848019D03*
D65*
X151821600Y-136373019D03*
X140221600Y-136373019D03*
G04 #@! TD*
D20*
G04 #@! TO.C,C18*
X46546600Y-61255399D03*
X45586600Y-61255399D03*
G04 #@! TD*
D16*
G04 #@! TO.C,U4*
X123317500Y-60426399D03*
X123317500Y-60026399D03*
X123317500Y-59626399D03*
X123317500Y-59226399D03*
X123317500Y-58826399D03*
X123317500Y-58426399D03*
X123317500Y-58026399D03*
X123317500Y-57626399D03*
X123317500Y-57226399D03*
X123317500Y-56826399D03*
X123317500Y-56426399D03*
X123317500Y-56026399D03*
X123317500Y-55626399D03*
X123317500Y-55226399D03*
D17*
X122480000Y-54388899D03*
X122080000Y-54388899D03*
X121680000Y-54388899D03*
X121280000Y-54388899D03*
X120880000Y-54388899D03*
X120480000Y-54388899D03*
X120080000Y-54388899D03*
X119680000Y-54388899D03*
X119280000Y-54388899D03*
X118880000Y-54388899D03*
X118480000Y-54388899D03*
X118080000Y-54388899D03*
X117680000Y-54388899D03*
X117280000Y-54388899D03*
D16*
X116442500Y-55226399D03*
X116442500Y-55626399D03*
X116442500Y-56026399D03*
X116442500Y-56426399D03*
X116442500Y-56826399D03*
X116442500Y-57226399D03*
X116442500Y-57626399D03*
X116442500Y-58026399D03*
X116442500Y-58426399D03*
X116442500Y-58826399D03*
X116442500Y-59226399D03*
X116442500Y-59626399D03*
X116442500Y-60026399D03*
X116442500Y-60426399D03*
D17*
X117280000Y-61263899D03*
X117680000Y-61263899D03*
X118080000Y-61263899D03*
X118480000Y-61263899D03*
X118880000Y-61263899D03*
X119280000Y-61263899D03*
X119680000Y-61263899D03*
X120080000Y-61263899D03*
X120480000Y-61263899D03*
X120880000Y-61263899D03*
X121280000Y-61263899D03*
X121680000Y-61263899D03*
X122080000Y-61263899D03*
X122480000Y-61263899D03*
D18*
X119880000Y-57826399D03*
G04 #@! TD*
D46*
G04 #@! TO.C,FID1*
X91716400Y-12563599D03*
G04 #@! TD*
D13*
G04 #@! TO.C,Q1*
X13404500Y-25631399D03*
X13404500Y-27531399D03*
X15279500Y-26581399D03*
G04 #@! TD*
D32*
G04 #@! TO.C,D8*
X60316000Y-123995519D03*
X60316000Y-125570519D03*
G04 #@! TD*
D66*
G04 #@! TO.C,C16*
X115135200Y-58128599D03*
X115135200Y-57168599D03*
G04 #@! TD*
D10*
G04 #@! TO.C,REF\u002A\u002A*
X60752000Y-74901255D03*
G04 #@! TD*
G04 #@! TO.C,REF\u002A\u002A*
X90200000Y-48231399D03*
G04 #@! TD*
D20*
G04 #@! TO.C,C10*
X124302000Y-68494399D03*
X123342000Y-68494399D03*
G04 #@! TD*
D14*
G04 #@! TO.C,R29*
X146238000Y-130498019D03*
X147888000Y-130498019D03*
G04 #@! TD*
D22*
G04 #@! TO.C,D10*
X110912800Y-28286199D03*
X113712800Y-28286199D03*
G04 #@! TD*
D66*
G04 #@! TO.C,C16*
X36135200Y-58128599D03*
X36135200Y-57168599D03*
G04 #@! TD*
D64*
G04 #@! TO.C,J10*
X71521600Y-55588399D03*
X70521600Y-55588399D03*
X69521600Y-55588399D03*
X68521600Y-55588399D03*
X67521600Y-55588399D03*
X66521600Y-55588399D03*
X65521600Y-55588399D03*
X64521600Y-55588399D03*
X63521600Y-55588399D03*
X62521600Y-55588399D03*
D65*
X72821600Y-58113399D03*
X61221600Y-58113399D03*
G04 #@! TD*
D59*
G04 #@! TO.C,REF\u002A\u002A*
X4000000Y-164519239D03*
G04 #@! TD*
D12*
G04 #@! TO.C,R25*
X61967000Y-50778399D03*
X61967000Y-52428399D03*
G04 #@! TD*
D67*
G04 #@! TO.C,U2*
X21105000Y-116491219D03*
X21105000Y-115856219D03*
X21105000Y-115195819D03*
X21105000Y-114560819D03*
D68*
X20165200Y-113621019D03*
X19530200Y-113621019D03*
X18869800Y-113621019D03*
X18234800Y-113621019D03*
D67*
X17295000Y-114560819D03*
X17295000Y-115195819D03*
X17295000Y-115856219D03*
X17295000Y-116491219D03*
D68*
X18234800Y-117431019D03*
X18869800Y-117431019D03*
X19530200Y-117431019D03*
X20165200Y-117431019D03*
D69*
X19200000Y-115526019D03*
G04 #@! TD*
D21*
G04 #@! TO.C,C6*
X39805800Y-122420819D03*
X38255800Y-122420819D03*
G04 #@! TD*
D70*
G04 #@! TO.C,J3*
X145062000Y-71407399D03*
X133062000Y-71407399D03*
D71*
X140592000Y-69107399D03*
D46*
X139572000Y-66567399D03*
X138552000Y-69107399D03*
X137532000Y-66567399D03*
G04 #@! TD*
D10*
G04 #@! TO.C,REF\u002A\u002A*
X11200001Y-125891019D03*
G04 #@! TD*
G04 #@! TO.C,REF\u002A\u002A*
X25035401Y-11200000D03*
G04 #@! TD*
D14*
G04 #@! TO.C,R15*
X99756000Y-102301019D03*
X101406000Y-102301019D03*
G04 #@! TD*
D25*
G04 #@! TO.C,J1*
X43535000Y-110666019D03*
D26*
X43535000Y-108166019D03*
G04 #@! TD*
D12*
G04 #@! TO.C,R14*
X14950000Y-115801019D03*
X14950000Y-117451019D03*
G04 #@! TD*
D10*
G04 #@! TO.C,REF\u002A\u002A*
X138552000Y-74901255D03*
G04 #@! TD*
D52*
G04 #@! TO.C,C1*
X102500000Y-116951019D03*
X102500000Y-119901019D03*
G04 #@! TD*
G04 #@! TO.C,C5*
X14600000Y-128651019D03*
X14600000Y-131601019D03*
G04 #@! TD*
D14*
G04 #@! TO.C,R7*
X92263000Y-24041399D03*
X93913000Y-24041399D03*
G04 #@! TD*
D64*
G04 #@! TO.C,J10*
X150521600Y-55588399D03*
X149521600Y-55588399D03*
X148521600Y-55588399D03*
X147521600Y-55588399D03*
X146521600Y-55588399D03*
X145521600Y-55588399D03*
X144521600Y-55588399D03*
X143521600Y-55588399D03*
X142521600Y-55588399D03*
X141521600Y-55588399D03*
D65*
X151821600Y-58113399D03*
X140221600Y-58113399D03*
G04 #@! TD*
D14*
G04 #@! TO.C,R9*
X99756000Y-100650019D03*
X101406000Y-100650019D03*
G04 #@! TD*
D12*
G04 #@! TO.C,R10*
X58538000Y-127387019D03*
X58538000Y-129037019D03*
G04 #@! TD*
D47*
G04 #@! TO.C,J7*
X149912000Y-47642399D03*
X149912000Y-46642399D03*
X149912000Y-45642399D03*
X149912000Y-44642399D03*
D48*
X147387000Y-48942399D03*
X147387000Y-43342399D03*
G04 #@! TD*
D23*
G04 #@! TO.C,H1*
X67263200Y-143350419D03*
X67966144Y-141653363D03*
X69663200Y-140950419D03*
X69663200Y-145750419D03*
X72063200Y-143350419D03*
X71360256Y-145047475D03*
D24*
X69663200Y-143350419D03*
D23*
X71360256Y-141653363D03*
X67966144Y-145047475D03*
G04 #@! TD*
D46*
G04 #@! TO.C,FID3*
X77332000Y-25009599D03*
G04 #@! TD*
D10*
G04 #@! TO.C,REF\u002A\u002A*
X58952000Y-153160875D03*
G04 #@! TD*
D27*
G04 #@! TO.C,J12*
X119154000Y-73056899D03*
X124934000Y-73056899D03*
D28*
X118794000Y-71611899D03*
X119594000Y-71611899D03*
D29*
X120794000Y-71611899D03*
X121794000Y-71611899D03*
X122294000Y-71611899D03*
X123294000Y-71611899D03*
D28*
X125294000Y-71611899D03*
X124494000Y-71611899D03*
D29*
X123794000Y-71611899D03*
X122794000Y-71611899D03*
X121294000Y-71611899D03*
X120294000Y-71611899D03*
D30*
X117724000Y-72526899D03*
X126364000Y-72526899D03*
X117724000Y-76706899D03*
X126364000Y-76706899D03*
G04 #@! TD*
D34*
G04 #@! TO.C,Q4*
X23613000Y-53914799D03*
X21327000Y-53914799D03*
X19041000Y-53914799D03*
D35*
X21327000Y-60213999D03*
G04 #@! TD*
D12*
G04 #@! TO.C,R8*
X137665000Y-120529019D03*
X137665000Y-122179019D03*
G04 #@! TD*
D31*
G04 #@! TO.C,R2*
X127441000Y-69256399D03*
X125791000Y-69256399D03*
G04 #@! TD*
D46*
G04 #@! TO.C,FID2*
X72965200Y-151656219D03*
G04 #@! TD*
D10*
G04 #@! TO.C,REF\u002A\u002A*
X78799999Y-116051619D03*
G04 #@! TD*
D56*
G04 #@! TO.C,REF\u002A\u002A*
X4000000Y-7000000D03*
G04 #@! TD*
D12*
G04 #@! TO.C,R22*
X145158000Y-40491399D03*
X145158000Y-42141399D03*
G04 #@! TD*
D62*
G04 #@! TO.C,C4*
X102500000Y-47541399D03*
X102500000Y-44591399D03*
G04 #@! TD*
D12*
G04 #@! TO.C,R20*
X23600000Y-50541399D03*
X23600000Y-52191399D03*
G04 #@! TD*
D14*
G04 #@! TO.C,R17*
X107249000Y-102301019D03*
X108899000Y-102301019D03*
G04 #@! TD*
D10*
G04 #@! TO.C,REF\u002A\u002A*
X157799999Y-114851619D03*
G04 #@! TD*
G04 #@! TO.C,REF\u002A\u002A*
X139752000Y-74901255D03*
G04 #@! TD*
D23*
G04 #@! TO.C,H2*
X152981200Y-108971219D03*
X150581200Y-106571219D03*
X155381200Y-106571219D03*
X152981200Y-104171219D03*
X151284144Y-108268275D03*
D24*
X152981200Y-106571219D03*
D23*
X151284144Y-104874163D03*
X154678256Y-108268275D03*
X154678256Y-104874163D03*
G04 #@! TD*
D61*
G04 #@! TO.C,Q5*
X144457000Y-50157899D03*
X142557000Y-50157899D03*
X143507000Y-52032899D03*
G04 #@! TD*
D12*
G04 #@! TO.C,R25*
X140967000Y-129038019D03*
X140967000Y-130688019D03*
G04 #@! TD*
D38*
G04 #@! TO.C,C23*
X114066000Y-138499019D03*
X115026000Y-138499019D03*
G04 #@! TD*
D16*
G04 #@! TO.C,U4*
X123317500Y-138686019D03*
X123317500Y-138286019D03*
X123317500Y-137886019D03*
X123317500Y-137486019D03*
X123317500Y-137086019D03*
X123317500Y-136686019D03*
X123317500Y-136286019D03*
X123317500Y-135886019D03*
X123317500Y-135486019D03*
X123317500Y-135086019D03*
X123317500Y-134686019D03*
X123317500Y-134286019D03*
X123317500Y-133886019D03*
X123317500Y-133486019D03*
D17*
X122480000Y-132648519D03*
X122080000Y-132648519D03*
X121680000Y-132648519D03*
X121280000Y-132648519D03*
X120880000Y-132648519D03*
X120480000Y-132648519D03*
X120080000Y-132648519D03*
X119680000Y-132648519D03*
X119280000Y-132648519D03*
X118880000Y-132648519D03*
X118480000Y-132648519D03*
X118080000Y-132648519D03*
X117680000Y-132648519D03*
X117280000Y-132648519D03*
D16*
X116442500Y-133486019D03*
X116442500Y-133886019D03*
X116442500Y-134286019D03*
X116442500Y-134686019D03*
X116442500Y-135086019D03*
X116442500Y-135486019D03*
X116442500Y-135886019D03*
X116442500Y-136286019D03*
X116442500Y-136686019D03*
X116442500Y-137086019D03*
X116442500Y-137486019D03*
X116442500Y-137886019D03*
X116442500Y-138286019D03*
X116442500Y-138686019D03*
D17*
X117280000Y-139523519D03*
X117680000Y-139523519D03*
X118080000Y-139523519D03*
X118480000Y-139523519D03*
X118880000Y-139523519D03*
X119280000Y-139523519D03*
X119680000Y-139523519D03*
X120080000Y-139523519D03*
X120480000Y-139523519D03*
X120880000Y-139523519D03*
X121280000Y-139523519D03*
X121680000Y-139523519D03*
X122080000Y-139523519D03*
X122480000Y-139523519D03*
D18*
X119880000Y-136086019D03*
G04 #@! TD*
D49*
G04 #@! TO.C,C14*
X37430600Y-141476019D03*
X37430600Y-142436019D03*
G04 #@! TD*
D10*
G04 #@! TO.C,REF\u002A\u002A*
X78799999Y-37791999D03*
G04 #@! TD*
D46*
G04 #@! TO.C,FID1*
X12716400Y-90823219D03*
G04 #@! TD*
D10*
G04 #@! TO.C,REF\u002A\u002A*
X11200001Y-46431399D03*
G04 #@! TD*
D67*
G04 #@! TO.C,U2*
X100105000Y-116491219D03*
X100105000Y-115856219D03*
X100105000Y-115195819D03*
X100105000Y-114560819D03*
D68*
X99165200Y-113621019D03*
X98530200Y-113621019D03*
X97869800Y-113621019D03*
X97234800Y-113621019D03*
D67*
X96295000Y-114560819D03*
X96295000Y-115195819D03*
X96295000Y-115856219D03*
X96295000Y-116491219D03*
D68*
X97234800Y-117431019D03*
X97869800Y-117431019D03*
X98530200Y-117431019D03*
X99165200Y-117431019D03*
D69*
X98200000Y-115526019D03*
G04 #@! TD*
D63*
G04 #@! TO.C,J4*
X130900200Y-109486819D03*
D26*
X130900200Y-111986819D03*
G04 #@! TD*
D13*
G04 #@! TO.C,Q3*
X107390500Y-25631399D03*
X107390500Y-27531399D03*
X109265500Y-26581399D03*
G04 #@! TD*
D45*
G04 #@! TO.C,R3*
X49140000Y-150627019D03*
X49140000Y-148977019D03*
G04 #@! TD*
D12*
G04 #@! TO.C,R8*
X58665000Y-120529019D03*
X58665000Y-122179019D03*
G04 #@! TD*
D70*
G04 #@! TO.C,J3*
X145062000Y-149667019D03*
X133062000Y-149667019D03*
D71*
X140592000Y-147367019D03*
D46*
X139572000Y-144827019D03*
X138552000Y-147367019D03*
X137532000Y-144827019D03*
G04 #@! TD*
D72*
G04 #@! TO.C,U3*
X128821000Y-145484019D03*
X128821000Y-144214019D03*
X128821000Y-142944019D03*
X128821000Y-141674019D03*
X123131000Y-141674019D03*
X123131000Y-142944019D03*
X123131000Y-144214019D03*
X123131000Y-145484019D03*
D73*
X125976000Y-143579019D03*
G04 #@! TD*
D42*
G04 #@! TO.C,L2*
X117942000Y-100971019D03*
X111642000Y-100971019D03*
G04 #@! TD*
D20*
G04 #@! TO.C,C18*
X46546600Y-139515019D03*
X45586600Y-139515019D03*
G04 #@! TD*
D10*
G04 #@! TO.C,REF\u002A\u002A*
X11200001Y-45831399D03*
G04 #@! TD*
D45*
G04 #@! TO.C,R24*
X71187200Y-149966619D03*
X71187200Y-148316619D03*
G04 #@! TD*
D46*
G04 #@! TO.C,FID3*
X156332000Y-103269219D03*
G04 #@! TD*
D10*
G04 #@! TO.C,REF\u002A\u002A*
X59552000Y-153160875D03*
G04 #@! TD*
D21*
G04 #@! TO.C,C7*
X35310000Y-128466019D03*
X33760000Y-128466019D03*
G04 #@! TD*
D13*
G04 #@! TO.C,D6*
X74192300Y-131318019D03*
X74192300Y-133218019D03*
X76067300Y-132268019D03*
G04 #@! TD*
D74*
G04 #@! TO.C,J5*
X107067600Y-142182019D03*
D75*
X107067600Y-147982019D03*
D76*
X111867600Y-145182019D03*
G04 #@! TD*
D15*
G04 #@! TO.C,D5*
X114487000Y-147558819D03*
X114487000Y-151558819D03*
G04 #@! TD*
D52*
G04 #@! TO.C,C1*
X23500000Y-38691399D03*
X23500000Y-41641399D03*
G04 #@! TD*
D77*
G04 #@! TO.C,TP19*
X43298000Y-23790399D03*
G04 #@! TD*
D24*
G04 #@! TO.C,H2*
X73981200Y-28311599D03*
D23*
X72284144Y-30008655D03*
X73981200Y-25911599D03*
X76381200Y-28311599D03*
X72284144Y-26614543D03*
X73981200Y-30711599D03*
X71581200Y-28311599D03*
X75678256Y-26614543D03*
X75678256Y-30008655D03*
G04 #@! TD*
D24*
G04 #@! TO.C,H1*
X148663200Y-65090799D03*
D23*
X146263200Y-65090799D03*
X146966144Y-63393743D03*
X150360256Y-63393743D03*
X151063200Y-65090799D03*
X148663200Y-67490799D03*
X146966144Y-66787855D03*
X150360256Y-66787855D03*
X148663200Y-62690799D03*
G04 #@! TD*
D19*
G04 #@! TO.C,C21*
X50968800Y-70056199D03*
X50968800Y-71606199D03*
G04 #@! TD*
D25*
G04 #@! TO.C,J2*
X43535000Y-118921019D03*
D26*
X43535000Y-116421019D03*
G04 #@! TD*
D14*
G04 #@! TO.C,R13*
X66476000Y-53762399D03*
X68126000Y-53762399D03*
G04 #@! TD*
D23*
G04 #@! TO.C,H5*
X17715456Y-14270143D03*
X14321344Y-17664255D03*
D24*
X16018400Y-15967199D03*
D23*
X13618400Y-15967199D03*
X17715456Y-17664255D03*
X18418400Y-15967199D03*
X16018400Y-13567199D03*
X14321344Y-14270143D03*
X16018400Y-18367199D03*
G04 #@! TD*
D32*
G04 #@! TO.C,D8*
X139316000Y-123995519D03*
X139316000Y-125570519D03*
G04 #@! TD*
D70*
G04 #@! TO.C,J3*
X54062000Y-149667019D03*
X66062000Y-149667019D03*
D71*
X61592000Y-147367019D03*
D46*
X60572000Y-144827019D03*
X59552000Y-147367019D03*
X58532000Y-144827019D03*
G04 #@! TD*
D13*
G04 #@! TO.C,Q1*
X92404500Y-103891019D03*
X92404500Y-105791019D03*
X94279500Y-104841019D03*
G04 #@! TD*
D45*
G04 #@! TO.C,R3*
X49140000Y-72367399D03*
X49140000Y-70717399D03*
G04 #@! TD*
D49*
G04 #@! TO.C,C12*
X39513400Y-50917599D03*
X39513400Y-51877599D03*
G04 #@! TD*
D10*
G04 #@! TO.C,REF\u002A\u002A*
X58352000Y-153160875D03*
G04 #@! TD*
G04 #@! TO.C,REF\u002A\u002A*
X105235400Y-11200000D03*
G04 #@! TD*
D23*
G04 #@! TO.C,H3*
X43378944Y-46223343D03*
X46773056Y-46223343D03*
X47476000Y-47920399D03*
X45076000Y-50320399D03*
X43378944Y-49617455D03*
D24*
X45076000Y-47920399D03*
D23*
X45076000Y-45520399D03*
X46773056Y-49617455D03*
X42676000Y-47920399D03*
G04 #@! TD*
D27*
G04 #@! TO.C,J12*
X40154000Y-73056899D03*
X45934000Y-73056899D03*
D28*
X39794000Y-71611899D03*
X40594000Y-71611899D03*
D29*
X41794000Y-71611899D03*
X42794000Y-71611899D03*
X43294000Y-71611899D03*
X44294000Y-71611899D03*
D28*
X46294000Y-71611899D03*
X45494000Y-71611899D03*
D29*
X44794000Y-71611899D03*
X43794000Y-71611899D03*
X42294000Y-71611899D03*
X41294000Y-71611899D03*
D30*
X38724000Y-72526899D03*
X47364000Y-72526899D03*
X38724000Y-76706899D03*
X47364000Y-76706899D03*
G04 #@! TD*
D50*
G04 #@! TO.C,J6*
X59625200Y-34306199D03*
D51*
X64705200Y-34306199D03*
G04 #@! TD*
D10*
G04 #@! TO.C,REF\u002A\u002A*
X78799999Y-113651619D03*
G04 #@! TD*
D21*
G04 #@! TO.C,C8*
X65282000Y-62906399D03*
X63732000Y-62906399D03*
G04 #@! TD*
D10*
G04 #@! TO.C,REF\u002A\u002A*
X104635400Y-89459619D03*
G04 #@! TD*
D25*
G04 #@! TO.C,J2*
X122535000Y-118921019D03*
D26*
X122535000Y-116421019D03*
G04 #@! TD*
D42*
G04 #@! TO.C,L2*
X117942000Y-22711399D03*
X111642000Y-22711399D03*
G04 #@! TD*
D21*
G04 #@! TO.C,C8*
X65282000Y-141166019D03*
X63732000Y-141166019D03*
G04 #@! TD*
D56*
G04 #@! TO.C,REF\u002A\u002A*
X165000000Y-160519239D03*
G04 #@! TD*
D31*
G04 #@! TO.C,R27*
X117408000Y-50206399D03*
X115758000Y-50206399D03*
G04 #@! TD*
D12*
G04 #@! TO.C,R22*
X66158000Y-118751019D03*
X66158000Y-120401019D03*
G04 #@! TD*
D25*
G04 #@! TO.C,J1*
X122535000Y-110666019D03*
D26*
X122535000Y-108166019D03*
G04 #@! TD*
D57*
G04 #@! TO.C,J11*
X75971800Y-49472599D03*
D58*
X73971800Y-49472599D03*
X75971800Y-47472599D03*
X73971800Y-47472599D03*
X75971800Y-45472599D03*
X73971800Y-45472599D03*
X75971800Y-43472599D03*
X73971800Y-43472599D03*
G04 #@! TD*
D20*
G04 #@! TO.C,C10*
X124302000Y-146754019D03*
X123342000Y-146754019D03*
G04 #@! TD*
D11*
G04 #@! TO.C,C11*
X108607400Y-128301219D03*
X108607400Y-126751219D03*
G04 #@! TD*
D60*
G04 #@! TO.C,D1*
X59721600Y-140884319D03*
X61621600Y-140884319D03*
X60671600Y-139009319D03*
G04 #@! TD*
D12*
G04 #@! TO.C,R25*
X140967000Y-50778399D03*
X140967000Y-52428399D03*
G04 #@! TD*
D10*
G04 #@! TO.C,REF\u002A\u002A*
X157799999Y-114251619D03*
G04 #@! TD*
D14*
G04 #@! TO.C,R9*
X99756000Y-22390399D03*
X101406000Y-22390399D03*
G04 #@! TD*
D63*
G04 #@! TO.C,J4*
X51900200Y-109486819D03*
D26*
X51900200Y-111986819D03*
G04 #@! TD*
D10*
G04 #@! TO.C,REF\u002A\u002A*
X58952000Y-74901255D03*
G04 #@! TD*
D12*
G04 #@! TO.C,R14*
X93950000Y-115801019D03*
X93950000Y-117451019D03*
G04 #@! TD*
D33*
G04 #@! TO.C,F1*
X22067500Y-148913019D03*
X17792500Y-148913019D03*
G04 #@! TD*
D13*
G04 #@! TO.C,Q1*
X13404500Y-103891019D03*
X13404500Y-105791019D03*
X15279500Y-104841019D03*
G04 #@! TD*
D47*
G04 #@! TO.C,J7*
X70912000Y-47642399D03*
X70912000Y-46642399D03*
X70912000Y-45642399D03*
X70912000Y-44642399D03*
D48*
X68387000Y-48942399D03*
X68387000Y-43342399D03*
G04 #@! TD*
D14*
G04 #@! TO.C,R17*
X107249000Y-24041399D03*
X108899000Y-24041399D03*
G04 #@! TD*
D20*
G04 #@! TO.C,C22*
X46978400Y-134841419D03*
X46018400Y-134841419D03*
G04 #@! TD*
D55*
G04 #@! TO.C,Y1*
X119270000Y-124286019D03*
X114870000Y-124286019D03*
X114870000Y-126686019D03*
X119270000Y-126686019D03*
G04 #@! TD*
D34*
G04 #@! TO.C,Q4*
X23613000Y-132174419D03*
X21327000Y-132174419D03*
X19041000Y-132174419D03*
D35*
X21327000Y-138473619D03*
G04 #@! TD*
D12*
G04 #@! TO.C,R21*
X143380000Y-118751019D03*
X143380000Y-120401019D03*
G04 #@! TD*
D66*
G04 #@! TO.C,C13*
X41799400Y-66307399D03*
X41799400Y-65347399D03*
G04 #@! TD*
D22*
G04 #@! TO.C,D9*
X104264000Y-100647019D03*
X104264000Y-103447019D03*
G04 #@! TD*
D41*
G04 #@! TO.C,R4*
X39483000Y-63186399D03*
X39483000Y-64206399D03*
G04 #@! TD*
D10*
G04 #@! TO.C,REF\u002A\u002A*
X26235401Y-11200000D03*
G04 #@! TD*
D14*
G04 #@! TO.C,R26*
X132268000Y-140785019D03*
X133918000Y-140785019D03*
G04 #@! TD*
D24*
G04 #@! TO.C,H1*
X148663200Y-143350419D03*
D23*
X150360256Y-141653363D03*
X148663200Y-140950419D03*
X146966144Y-145047475D03*
X151063200Y-143350419D03*
X146966144Y-141653363D03*
X148663200Y-145750419D03*
X146263200Y-143350419D03*
X150360256Y-145047475D03*
G04 #@! TD*
D20*
G04 #@! TO.C,C15*
X35624600Y-140861219D03*
X34664600Y-140861219D03*
G04 #@! TD*
D19*
G04 #@! TO.C,C21*
X129968800Y-148315819D03*
X129968800Y-149865819D03*
G04 #@! TD*
D41*
G04 #@! TO.C,R4*
X118483000Y-141446019D03*
X118483000Y-142466019D03*
G04 #@! TD*
D12*
G04 #@! TO.C,R20*
X23600000Y-128801019D03*
X23600000Y-130451019D03*
G04 #@! TD*
D10*
G04 #@! TO.C,REF\u002A\u002A*
X58352000Y-74901255D03*
G04 #@! TD*
D52*
G04 #@! TO.C,C5*
X14600000Y-50391399D03*
X14600000Y-53341399D03*
G04 #@! TD*
D66*
G04 #@! TO.C,C17*
X119499000Y-143170019D03*
X119499000Y-142210019D03*
G04 #@! TD*
D10*
G04 #@! TO.C,REF\u002A\u002A*
X90200000Y-47631399D03*
G04 #@! TD*
D22*
G04 #@! TO.C,D3*
X17771000Y-100647019D03*
X17771000Y-103447019D03*
G04 #@! TD*
D20*
G04 #@! TO.C,C22*
X125978400Y-134841419D03*
X125018400Y-134841419D03*
G04 #@! TD*
D49*
G04 #@! TO.C,C9*
X36438400Y-141484219D03*
X36438400Y-142444219D03*
G04 #@! TD*
D11*
G04 #@! TO.C,C3*
X106400000Y-49941399D03*
X106400000Y-48391399D03*
G04 #@! TD*
D10*
G04 #@! TO.C,REF\u002A\u002A*
X11200001Y-126491019D03*
G04 #@! TD*
D23*
G04 #@! TO.C,H5*
X16018400Y-96626819D03*
X17715456Y-92529763D03*
X13618400Y-94226819D03*
X18418400Y-94226819D03*
X14321344Y-95923875D03*
X16018400Y-91826819D03*
D24*
X16018400Y-94226819D03*
D23*
X17715456Y-95923875D03*
X14321344Y-92529763D03*
G04 #@! TD*
D50*
G04 #@! TO.C,J6*
X59625200Y-112565819D03*
D51*
X64705200Y-112565819D03*
G04 #@! TD*
D12*
G04 #@! TO.C,R20*
X102600000Y-128801019D03*
X102600000Y-130451019D03*
G04 #@! TD*
D59*
G04 #@! TO.C,REF\u002A\u002A*
X165000000Y-3000000D03*
G04 #@! TD*
D14*
G04 #@! TO.C,R29*
X67238000Y-52238399D03*
X68888000Y-52238399D03*
G04 #@! TD*
D72*
G04 #@! TO.C,U3*
X49821000Y-145484019D03*
X49821000Y-144214019D03*
X49821000Y-142944019D03*
X49821000Y-141674019D03*
X44131000Y-141674019D03*
X44131000Y-142944019D03*
X44131000Y-144214019D03*
X44131000Y-145484019D03*
D73*
X46976000Y-143579019D03*
G04 #@! TD*
D43*
G04 #@! TO.C,R19*
X100096500Y-51476399D03*
X98271500Y-51476399D03*
G04 #@! TD*
D14*
G04 #@! TO.C,R7*
X13263000Y-102301019D03*
X14913000Y-102301019D03*
G04 #@! TD*
D21*
G04 #@! TO.C,C7*
X35310000Y-50206399D03*
X33760000Y-50206399D03*
G04 #@! TD*
D61*
G04 #@! TO.C,Q5*
X144457000Y-128417519D03*
X142557000Y-128417519D03*
X143507000Y-130292519D03*
G04 #@! TD*
D21*
G04 #@! TO.C,C24*
X75492800Y-129863019D03*
X73942800Y-129863019D03*
G04 #@! TD*
D32*
G04 #@! TO.C,D2*
X60316000Y-42306899D03*
X60316000Y-43881899D03*
G04 #@! TD*
D14*
G04 #@! TO.C,R6*
X13263000Y-22390399D03*
X14913000Y-22390399D03*
G04 #@! TD*
D60*
G04 #@! TO.C,D1*
X138721600Y-62624699D03*
X140621600Y-62624699D03*
X139671600Y-60749699D03*
G04 #@! TD*
D12*
G04 #@! TO.C,R21*
X64380000Y-40491399D03*
X64380000Y-42141399D03*
G04 #@! TD*
D55*
G04 #@! TO.C,Y1*
X40270000Y-46026399D03*
X35870000Y-46026399D03*
X35870000Y-48426399D03*
X40270000Y-48426399D03*
G04 #@! TD*
D49*
G04 #@! TO.C,C14*
X37430600Y-63216399D03*
X37430600Y-64176399D03*
G04 #@! TD*
D53*
G04 #@! TO.C,L1*
X17957500Y-119476019D03*
X17957500Y-125776019D03*
G04 #@! TD*
D20*
G04 #@! TO.C,C22*
X46978400Y-56581799D03*
X46018400Y-56581799D03*
G04 #@! TD*
D12*
G04 #@! TO.C,R10*
X137538000Y-127387019D03*
X137538000Y-129037019D03*
G04 #@! TD*
D46*
G04 #@! TO.C,FID1*
X91716400Y-90823219D03*
G04 #@! TD*
D11*
G04 #@! TO.C,C3*
X106400000Y-128201019D03*
X106400000Y-126651019D03*
G04 #@! TD*
G04 #@! TO.C,C3*
X27400000Y-128201019D03*
X27400000Y-126651019D03*
G04 #@! TD*
D20*
G04 #@! TO.C,C10*
X45302000Y-146754019D03*
X44342000Y-146754019D03*
G04 #@! TD*
D39*
G04 #@! TO.C,J9*
X53126400Y-59303799D03*
X54126400Y-59303799D03*
X55126400Y-59303799D03*
X56126400Y-59303799D03*
D40*
X57426400Y-56778799D03*
X51826400Y-56778799D03*
G04 #@! TD*
D78*
G04 #@! TO.C,SW1*
X149403800Y-40091999D03*
X149403800Y-33091999D03*
D79*
X151903800Y-34341999D03*
X151903800Y-38841999D03*
G04 #@! TD*
D10*
G04 #@! TO.C,REF\u002A\u002A*
X157799999Y-36991999D03*
G04 #@! TD*
D14*
G04 #@! TO.C,R6*
X13263000Y-100650019D03*
X14913000Y-100650019D03*
G04 #@! TD*
D72*
G04 #@! TO.C,U3*
X49821000Y-67224399D03*
X49821000Y-65954399D03*
X49821000Y-64684399D03*
X49821000Y-63414399D03*
X44131000Y-63414399D03*
X44131000Y-64684399D03*
X44131000Y-65954399D03*
X44131000Y-67224399D03*
D73*
X46976000Y-65319399D03*
G04 #@! TD*
D23*
G04 #@! TO.C,H1*
X71360256Y-63393743D03*
X69663200Y-62690799D03*
X72063200Y-65090799D03*
D24*
X69663200Y-65090799D03*
D23*
X69663200Y-67490799D03*
X67966144Y-63393743D03*
X67966144Y-66787855D03*
X67263200Y-65090799D03*
X71360256Y-66787855D03*
G04 #@! TD*
D20*
G04 #@! TO.C,C28*
X35486600Y-141901019D03*
X34526600Y-141901019D03*
G04 #@! TD*
D12*
G04 #@! TO.C,R21*
X143380000Y-40491399D03*
X143380000Y-42141399D03*
G04 #@! TD*
D31*
G04 #@! TO.C,R2*
X127441000Y-147516019D03*
X125791000Y-147516019D03*
G04 #@! TD*
D25*
G04 #@! TO.C,J2*
X43535000Y-40661399D03*
D26*
X43535000Y-38161399D03*
G04 #@! TD*
D78*
G04 #@! TO.C,SW1*
X149403800Y-111351619D03*
X149403800Y-118351619D03*
D79*
X151903800Y-112601619D03*
X151903800Y-117101619D03*
G04 #@! TD*
D12*
G04 #@! TO.C,R12*
X58665000Y-123958019D03*
X58665000Y-125608019D03*
G04 #@! TD*
D25*
G04 #@! TO.C,J1*
X43535000Y-32406399D03*
D26*
X43535000Y-29906399D03*
G04 #@! TD*
D49*
G04 #@! TO.C,C20*
X119478600Y-129332219D03*
X119478600Y-130292219D03*
G04 #@! TD*
D20*
G04 #@! TO.C,C28*
X114486600Y-141901019D03*
X113526600Y-141901019D03*
G04 #@! TD*
D10*
G04 #@! TO.C,REF\u002A\u002A*
X60152000Y-153160875D03*
G04 #@! TD*
D44*
G04 #@! TO.C,C2*
X96600000Y-32966399D03*
X98500000Y-32966399D03*
G04 #@! TD*
D10*
G04 #@! TO.C,REF\u002A\u002A*
X138552000Y-153160875D03*
G04 #@! TD*
D66*
G04 #@! TO.C,C17*
X40499000Y-143170019D03*
X40499000Y-142210019D03*
G04 #@! TD*
D20*
G04 #@! TO.C,C28*
X114486600Y-63641399D03*
X113526600Y-63641399D03*
G04 #@! TD*
D36*
G04 #@! TO.C,U1*
X110374000Y-130777019D03*
X108074000Y-130777019D03*
X105774000Y-130777019D03*
D37*
X108074000Y-137077019D03*
G04 #@! TD*
D22*
G04 #@! TO.C,D10*
X110912800Y-106545819D03*
X113712800Y-106545819D03*
G04 #@! TD*
D15*
G04 #@! TO.C,D5*
X114487000Y-69299199D03*
X114487000Y-73299199D03*
G04 #@! TD*
D10*
G04 #@! TO.C,REF\u002A\u002A*
X78799999Y-114851619D03*
G04 #@! TD*
G04 #@! TO.C,REF\u002A\u002A*
X102835400Y-89459619D03*
G04 #@! TD*
D21*
G04 #@! TO.C,C24*
X154492800Y-51603399D03*
X152942800Y-51603399D03*
G04 #@! TD*
D22*
G04 #@! TO.C,D3*
X17771000Y-22387399D03*
X17771000Y-25187399D03*
G04 #@! TD*
D14*
G04 #@! TO.C,R9*
X20756000Y-22390399D03*
X22406000Y-22390399D03*
G04 #@! TD*
D49*
G04 #@! TO.C,C12*
X39513400Y-129177219D03*
X39513400Y-130137219D03*
G04 #@! TD*
D10*
G04 #@! TO.C,REF\u002A\u002A*
X90200000Y-45831399D03*
G04 #@! TD*
D14*
G04 #@! TO.C,R15*
X20756000Y-102301019D03*
X22406000Y-102301019D03*
G04 #@! TD*
D46*
G04 #@! TO.C,FID4*
X17669400Y-73548999D03*
G04 #@! TD*
D10*
G04 #@! TO.C,REF\u002A\u002A*
X78799999Y-115451619D03*
G04 #@! TD*
D49*
G04 #@! TO.C,C9*
X115438400Y-63224599D03*
X115438400Y-64184599D03*
G04 #@! TD*
D67*
G04 #@! TO.C,U2*
X100105000Y-38231599D03*
X100105000Y-37596599D03*
X100105000Y-36936199D03*
X100105000Y-36301199D03*
D68*
X99165200Y-35361399D03*
X98530200Y-35361399D03*
X97869800Y-35361399D03*
X97234800Y-35361399D03*
D67*
X96295000Y-36301199D03*
X96295000Y-36936199D03*
X96295000Y-37596599D03*
X96295000Y-38231599D03*
D68*
X97234800Y-39171399D03*
X97869800Y-39171399D03*
X98530200Y-39171399D03*
X99165200Y-39171399D03*
D69*
X98200000Y-37266399D03*
G04 #@! TD*
D66*
G04 #@! TO.C,C17*
X119499000Y-64910399D03*
X119499000Y-63950399D03*
G04 #@! TD*
D45*
G04 #@! TO.C,R28*
X131315000Y-146563019D03*
X131315000Y-144913019D03*
G04 #@! TD*
D21*
G04 #@! TO.C,C6*
X39805800Y-44161199D03*
X38255800Y-44161199D03*
G04 #@! TD*
D66*
G04 #@! TO.C,C13*
X120799400Y-66307399D03*
X120799400Y-65347399D03*
G04 #@! TD*
D11*
G04 #@! TO.C,C27*
X135404400Y-46612599D03*
X135404400Y-45062599D03*
G04 #@! TD*
D10*
G04 #@! TO.C,REF\u002A\u002A*
X157799999Y-36191999D03*
G04 #@! TD*
D14*
G04 #@! TO.C,R17*
X28249000Y-102301019D03*
X29899000Y-102301019D03*
G04 #@! TD*
D10*
G04 #@! TO.C,REF\u002A\u002A*
X11200001Y-47631399D03*
G04 #@! TD*
D13*
G04 #@! TO.C,Q2*
X99897500Y-25631399D03*
X99897500Y-27531399D03*
X101772500Y-26581399D03*
G04 #@! TD*
D66*
G04 #@! TO.C,C16*
X36135200Y-136388219D03*
X36135200Y-135428219D03*
G04 #@! TD*
D12*
G04 #@! TO.C,R21*
X64380000Y-118751019D03*
X64380000Y-120401019D03*
G04 #@! TD*
D16*
G04 #@! TO.C,U4*
X44317500Y-60426399D03*
X44317500Y-60026399D03*
X44317500Y-59626399D03*
X44317500Y-59226399D03*
X44317500Y-58826399D03*
X44317500Y-58426399D03*
X44317500Y-58026399D03*
X44317500Y-57626399D03*
X44317500Y-57226399D03*
X44317500Y-56826399D03*
X44317500Y-56426399D03*
X44317500Y-56026399D03*
X44317500Y-55626399D03*
X44317500Y-55226399D03*
D17*
X43480000Y-54388899D03*
X43080000Y-54388899D03*
X42680000Y-54388899D03*
X42280000Y-54388899D03*
X41880000Y-54388899D03*
X41480000Y-54388899D03*
X41080000Y-54388899D03*
X40680000Y-54388899D03*
X40280000Y-54388899D03*
X39880000Y-54388899D03*
X39480000Y-54388899D03*
X39080000Y-54388899D03*
X38680000Y-54388899D03*
X38280000Y-54388899D03*
D16*
X37442500Y-55226399D03*
X37442500Y-55626399D03*
X37442500Y-56026399D03*
X37442500Y-56426399D03*
X37442500Y-56826399D03*
X37442500Y-57226399D03*
X37442500Y-57626399D03*
X37442500Y-58026399D03*
X37442500Y-58426399D03*
X37442500Y-58826399D03*
X37442500Y-59226399D03*
X37442500Y-59626399D03*
X37442500Y-60026399D03*
X37442500Y-60426399D03*
D17*
X38280000Y-61263899D03*
X38680000Y-61263899D03*
X39080000Y-61263899D03*
X39480000Y-61263899D03*
X39880000Y-61263899D03*
X40280000Y-61263899D03*
X40680000Y-61263899D03*
X41080000Y-61263899D03*
X41480000Y-61263899D03*
X41880000Y-61263899D03*
X42280000Y-61263899D03*
X42680000Y-61263899D03*
X43080000Y-61263899D03*
X43480000Y-61263899D03*
D18*
X40880000Y-57826399D03*
G04 #@! TD*
D32*
G04 #@! TO.C,D2*
X139316000Y-120566519D03*
X139316000Y-122141519D03*
G04 #@! TD*
D10*
G04 #@! TO.C,REF\u002A\u002A*
X90200000Y-125291019D03*
G04 #@! TD*
D49*
G04 #@! TO.C,C20*
X119478600Y-51072599D03*
X119478600Y-52032599D03*
G04 #@! TD*
D20*
G04 #@! TO.C,C15*
X114624600Y-62601599D03*
X113664600Y-62601599D03*
G04 #@! TD*
D14*
G04 #@! TO.C,R29*
X67238000Y-130498019D03*
X68888000Y-130498019D03*
G04 #@! TD*
D66*
G04 #@! TO.C,C13*
X120799400Y-144567019D03*
X120799400Y-143607019D03*
G04 #@! TD*
D72*
G04 #@! TO.C,U3*
X128821000Y-67224399D03*
X128821000Y-65954399D03*
X128821000Y-64684399D03*
X128821000Y-63414399D03*
X123131000Y-63414399D03*
X123131000Y-64684399D03*
X123131000Y-65954399D03*
X123131000Y-67224399D03*
D73*
X125976000Y-65319399D03*
G04 #@! TD*
D38*
G04 #@! TO.C,C19*
X34456400Y-61204599D03*
X35416400Y-61204599D03*
G04 #@! TD*
D31*
G04 #@! TO.C,R27*
X38408000Y-50206399D03*
X36758000Y-50206399D03*
G04 #@! TD*
D49*
G04 #@! TO.C,C20*
X40478600Y-51072599D03*
X40478600Y-52032599D03*
G04 #@! TD*
D67*
G04 #@! TO.C,U2*
X21105000Y-38231599D03*
X21105000Y-37596599D03*
X21105000Y-36936199D03*
X21105000Y-36301199D03*
D68*
X20165200Y-35361399D03*
X19530200Y-35361399D03*
X18869800Y-35361399D03*
X18234800Y-35361399D03*
D67*
X17295000Y-36301199D03*
X17295000Y-36936199D03*
X17295000Y-37596599D03*
X17295000Y-38231599D03*
D68*
X18234800Y-39171399D03*
X18869800Y-39171399D03*
X19530200Y-39171399D03*
X20165200Y-39171399D03*
D69*
X19200000Y-37266399D03*
G04 #@! TD*
D21*
G04 #@! TO.C,C24*
X154492800Y-129863019D03*
X152942800Y-129863019D03*
G04 #@! TD*
D22*
G04 #@! TO.C,D10*
X31912800Y-106545819D03*
X34712800Y-106545819D03*
G04 #@! TD*
D14*
G04 #@! TO.C,R17*
X28249000Y-24041399D03*
X29899000Y-24041399D03*
G04 #@! TD*
D43*
G04 #@! TO.C,R19*
X21096500Y-129736019D03*
X19271500Y-129736019D03*
G04 #@! TD*
D12*
G04 #@! TO.C,R12*
X137665000Y-123958019D03*
X137665000Y-125608019D03*
G04 #@! TD*
D36*
G04 #@! TO.C,U1*
X110374000Y-52517399D03*
X108074000Y-52517399D03*
X105774000Y-52517399D03*
D37*
X108074000Y-58817399D03*
G04 #@! TD*
D64*
G04 #@! TO.C,J10*
X71521600Y-133848019D03*
X70521600Y-133848019D03*
X69521600Y-133848019D03*
X68521600Y-133848019D03*
X67521600Y-133848019D03*
X66521600Y-133848019D03*
X65521600Y-133848019D03*
X64521600Y-133848019D03*
X63521600Y-133848019D03*
X62521600Y-133848019D03*
D65*
X72821600Y-136373019D03*
X61221600Y-136373019D03*
G04 #@! TD*
D10*
G04 #@! TO.C,REF\u002A\u002A*
X103435400Y-89459619D03*
G04 #@! TD*
D14*
G04 #@! TO.C,R9*
X20756000Y-100650019D03*
X22406000Y-100650019D03*
G04 #@! TD*
D45*
G04 #@! TO.C,R23*
X148409200Y-149966619D03*
X148409200Y-148316619D03*
G04 #@! TD*
D14*
G04 #@! TO.C,R7*
X92263000Y-102301019D03*
X93913000Y-102301019D03*
G04 #@! TD*
D45*
G04 #@! TO.C,R3*
X128140000Y-72367399D03*
X128140000Y-70717399D03*
G04 #@! TD*
D31*
G04 #@! TO.C,R2*
X48441000Y-69256399D03*
X46791000Y-69256399D03*
G04 #@! TD*
D78*
G04 #@! TO.C,SW1*
X70403800Y-33091999D03*
X70403800Y-40091999D03*
D79*
X72903800Y-34341999D03*
X72903800Y-38841999D03*
G04 #@! TD*
D23*
G04 #@! TO.C,H4*
X97088800Y-143350419D03*
X99488800Y-140950419D03*
X101185856Y-145047475D03*
X97791744Y-141653363D03*
X101888800Y-143350419D03*
D24*
X99488800Y-143350419D03*
D23*
X97791744Y-145047475D03*
X101185856Y-141653363D03*
X99488800Y-145750419D03*
G04 #@! TD*
D12*
G04 #@! TO.C,R1*
X115897200Y-153574419D03*
X115897200Y-155224419D03*
G04 #@! TD*
D10*
G04 #@! TO.C,REF\u002A\u002A*
X11200001Y-47031399D03*
G04 #@! TD*
D66*
G04 #@! TO.C,C17*
X40499000Y-64910399D03*
X40499000Y-63950399D03*
G04 #@! TD*
D12*
G04 #@! TO.C,R14*
X14950000Y-37541399D03*
X14950000Y-39191399D03*
G04 #@! TD*
D46*
G04 #@! TO.C,FID3*
X156332000Y-25009599D03*
G04 #@! TD*
D11*
G04 #@! TO.C,C3*
X27400000Y-49941399D03*
X27400000Y-48391399D03*
G04 #@! TD*
D74*
G04 #@! TO.C,J5*
X28067600Y-63922399D03*
D75*
X28067600Y-69722399D03*
D76*
X32867600Y-66922399D03*
G04 #@! TD*
D21*
G04 #@! TO.C,C25*
X71708200Y-131082219D03*
X70158200Y-131082219D03*
G04 #@! TD*
D38*
G04 #@! TO.C,C23*
X35066000Y-60239399D03*
X36026000Y-60239399D03*
G04 #@! TD*
D10*
G04 #@! TO.C,REF\u002A\u002A*
X139152000Y-153160875D03*
G04 #@! TD*
D41*
G04 #@! TO.C,R5*
X117467000Y-141446019D03*
X117467000Y-142466019D03*
G04 #@! TD*
D13*
G04 #@! TO.C,D6*
X153192300Y-131318019D03*
X153192300Y-133218019D03*
X155067300Y-132268019D03*
G04 #@! TD*
D41*
G04 #@! TO.C,R5*
X38467000Y-141446019D03*
X38467000Y-142466019D03*
G04 #@! TD*
D14*
G04 #@! TO.C,R26*
X53268000Y-62525399D03*
X54918000Y-62525399D03*
G04 #@! TD*
D13*
G04 #@! TO.C,Q2*
X20897500Y-25631399D03*
X20897500Y-27531399D03*
X22772500Y-26581399D03*
G04 #@! TD*
D70*
G04 #@! TO.C,J3*
X54062000Y-71407399D03*
X66062000Y-71407399D03*
D71*
X61592000Y-69107399D03*
D46*
X60572000Y-66567399D03*
X59552000Y-69107399D03*
X58532000Y-66567399D03*
G04 #@! TD*
D14*
G04 #@! TO.C,R11*
X28249000Y-22390399D03*
X29899000Y-22390399D03*
G04 #@! TD*
D60*
G04 #@! TO.C,D1*
X138721600Y-140884319D03*
X140621600Y-140884319D03*
X139671600Y-139009319D03*
G04 #@! TD*
D15*
G04 #@! TO.C,D5*
X35487000Y-147558819D03*
X35487000Y-151558819D03*
G04 #@! TD*
D78*
G04 #@! TO.C,SW1*
X70403800Y-111351619D03*
X70403800Y-118351619D03*
D79*
X72903800Y-112601619D03*
X72903800Y-117101619D03*
G04 #@! TD*
D10*
G04 #@! TO.C,REF\u002A\u002A*
X90200000Y-125891019D03*
G04 #@! TD*
G04 #@! TO.C,REF\u002A\u002A*
X157799999Y-113651619D03*
G04 #@! TD*
D39*
G04 #@! TO.C,J9*
X132126400Y-59303799D03*
X133126400Y-59303799D03*
X134126400Y-59303799D03*
X135126400Y-59303799D03*
D40*
X136426400Y-56778799D03*
X130826400Y-56778799D03*
G04 #@! TD*
D14*
G04 #@! TO.C,R13*
X145476000Y-53762399D03*
X147126000Y-53762399D03*
G04 #@! TD*
D22*
G04 #@! TO.C,D10*
X31912800Y-28286199D03*
X34712800Y-28286199D03*
G04 #@! TD*
D80*
G04 #@! TO.C,C26*
X69828000Y-50638199D03*
X71378000Y-50638199D03*
G04 #@! TD*
D10*
G04 #@! TO.C,REF\u002A\u002A*
X137352000Y-74901255D03*
G04 #@! TD*
D54*
G04 #@! TO.C,D4*
X118663500Y-68809399D03*
X118663500Y-66909399D03*
X116788500Y-67859399D03*
G04 #@! TD*
D22*
G04 #@! TO.C,D9*
X25264000Y-100647019D03*
X25264000Y-103447019D03*
G04 #@! TD*
D41*
G04 #@! TO.C,R5*
X38467000Y-63186399D03*
X38467000Y-64206399D03*
G04 #@! TD*
D36*
G04 #@! TO.C,U1*
X31374000Y-130777019D03*
X29074000Y-130777019D03*
X26774000Y-130777019D03*
D37*
X29074000Y-137077019D03*
G04 #@! TD*
D10*
G04 #@! TO.C,REF\u002A\u002A*
X24435401Y-89459619D03*
G04 #@! TD*
D63*
G04 #@! TO.C,J4*
X130900200Y-31227199D03*
D26*
X130900200Y-33727199D03*
G04 #@! TD*
D23*
G04 #@! TO.C,H3*
X126476000Y-47920399D03*
X122378944Y-49617455D03*
X124076000Y-45520399D03*
X121676000Y-47920399D03*
X122378944Y-46223343D03*
D24*
X124076000Y-47920399D03*
D23*
X125773056Y-49617455D03*
X124076000Y-50320399D03*
X125773056Y-46223343D03*
G04 #@! TD*
D12*
G04 #@! TO.C,R12*
X137665000Y-45698399D03*
X137665000Y-47348399D03*
G04 #@! TD*
D11*
G04 #@! TO.C,C27*
X56404400Y-124872219D03*
X56404400Y-123322219D03*
G04 #@! TD*
D81*
G04 #@! TO.C,J8*
X50024800Y-44455199D03*
X50024800Y-45455199D03*
X50024800Y-46455199D03*
X50024800Y-47455199D03*
X50024800Y-48455199D03*
X50024800Y-49455199D03*
D82*
X52549800Y-43155199D03*
X52549800Y-50755199D03*
G04 #@! TD*
D57*
G04 #@! TO.C,J11*
X154971800Y-127732219D03*
D58*
X152971800Y-127732219D03*
X154971800Y-125732219D03*
X152971800Y-125732219D03*
X154971800Y-123732219D03*
X152971800Y-123732219D03*
X154971800Y-121732219D03*
X152971800Y-121732219D03*
G04 #@! TD*
D45*
G04 #@! TO.C,R28*
X131315000Y-68303399D03*
X131315000Y-66653399D03*
G04 #@! TD*
D10*
G04 #@! TO.C,REF\u002A\u002A*
X137952000Y-74901255D03*
G04 #@! TD*
D42*
G04 #@! TO.C,L2*
X38942000Y-22711399D03*
X32642000Y-22711399D03*
G04 #@! TD*
D77*
G04 #@! TO.C,TP19*
X122298000Y-23790399D03*
G04 #@! TD*
D46*
G04 #@! TO.C,FID2*
X72965200Y-73396599D03*
G04 #@! TD*
D49*
G04 #@! TO.C,C14*
X116430600Y-141476019D03*
X116430600Y-142436019D03*
G04 #@! TD*
D66*
G04 #@! TO.C,C13*
X41799400Y-144567019D03*
X41799400Y-143607019D03*
G04 #@! TD*
D14*
G04 #@! TO.C,R7*
X13263000Y-24041399D03*
X14913000Y-24041399D03*
G04 #@! TD*
D21*
G04 #@! TO.C,C8*
X144282000Y-62906399D03*
X142732000Y-62906399D03*
G04 #@! TD*
D31*
G04 #@! TO.C,R27*
X38408000Y-128466019D03*
X36758000Y-128466019D03*
G04 #@! TD*
D10*
G04 #@! TO.C,REF\u002A\u002A*
X25635401Y-89459619D03*
G04 #@! TD*
D50*
G04 #@! TO.C,J6*
X138625200Y-34306199D03*
D51*
X143705200Y-34306199D03*
G04 #@! TD*
D54*
G04 #@! TO.C,D4*
X39663500Y-68809399D03*
X39663500Y-66909399D03*
X37788500Y-67859399D03*
G04 #@! TD*
D46*
G04 #@! TO.C,FID4*
X17669400Y-151808619D03*
G04 #@! TD*
D21*
G04 #@! TO.C,C25*
X71708200Y-52822599D03*
X70158200Y-52822599D03*
G04 #@! TD*
D45*
G04 #@! TO.C,R23*
X148409200Y-71706999D03*
X148409200Y-70056999D03*
G04 #@! TD*
D21*
G04 #@! TO.C,C8*
X144282000Y-141166019D03*
X142732000Y-141166019D03*
G04 #@! TD*
D13*
G04 #@! TO.C,Q1*
X92404500Y-25631399D03*
X92404500Y-27531399D03*
X94279500Y-26581399D03*
G04 #@! TD*
D81*
G04 #@! TO.C,J8*
X129024800Y-122714819D03*
X129024800Y-123714819D03*
X129024800Y-124714819D03*
X129024800Y-125714819D03*
X129024800Y-126714819D03*
X129024800Y-127714819D03*
D82*
X131549800Y-129014819D03*
X131549800Y-121414819D03*
G04 #@! TD*
D54*
G04 #@! TO.C,D4*
X39663500Y-147069019D03*
X39663500Y-145169019D03*
X37788500Y-146119019D03*
G04 #@! TD*
D10*
G04 #@! TO.C,REF\u002A\u002A*
X11200001Y-125291019D03*
G04 #@! TD*
D81*
G04 #@! TO.C,J8*
X50024800Y-122714819D03*
X50024800Y-123714819D03*
X50024800Y-124714819D03*
X50024800Y-125714819D03*
X50024800Y-126714819D03*
X50024800Y-127714819D03*
D82*
X52549800Y-121414819D03*
X52549800Y-129014819D03*
G04 #@! TD*
D10*
G04 #@! TO.C,REF\u002A\u002A*
X23835401Y-89459619D03*
G04 #@! TD*
G04 #@! TO.C,REF\u002A\u002A*
X24435401Y-11200000D03*
G04 #@! TD*
D77*
G04 #@! TO.C,TP19*
X122298000Y-102050019D03*
G04 #@! TD*
D27*
G04 #@! TO.C,J12*
X124934000Y-151316519D03*
X119154000Y-151316519D03*
D28*
X118794000Y-149871519D03*
X119594000Y-149871519D03*
D29*
X120794000Y-149871519D03*
X121794000Y-149871519D03*
X122294000Y-149871519D03*
X123294000Y-149871519D03*
D28*
X125294000Y-149871519D03*
X124494000Y-149871519D03*
D29*
X123794000Y-149871519D03*
X122794000Y-149871519D03*
X121294000Y-149871519D03*
X120294000Y-149871519D03*
D30*
X117724000Y-150786519D03*
X126364000Y-150786519D03*
X117724000Y-154966519D03*
X126364000Y-154966519D03*
G04 #@! TD*
D52*
G04 #@! TO.C,C1*
X102500000Y-38691399D03*
X102500000Y-41641399D03*
G04 #@! TD*
D22*
G04 #@! TO.C,D3*
X96771000Y-100647019D03*
X96771000Y-103447019D03*
G04 #@! TD*
D80*
G04 #@! TO.C,C26*
X148828000Y-128897819D03*
X150378000Y-128897819D03*
G04 #@! TD*
D20*
G04 #@! TO.C,C28*
X35486600Y-63641399D03*
X34526600Y-63641399D03*
G04 #@! TD*
D49*
G04 #@! TO.C,C9*
X115438400Y-141484219D03*
X115438400Y-142444219D03*
G04 #@! TD*
D59*
G04 #@! TO.C,REF\u002A\u002A*
X4000000Y-3000000D03*
G04 #@! TD*
D80*
G04 #@! TO.C,C26*
X69828000Y-128897819D03*
X71378000Y-128897819D03*
G04 #@! TD*
D12*
G04 #@! TO.C,R22*
X145158000Y-118751019D03*
X145158000Y-120401019D03*
G04 #@! TD*
D23*
G04 #@! TO.C,H4*
X20488800Y-67490799D03*
X18088800Y-65090799D03*
X22888800Y-65090799D03*
X22185856Y-63393743D03*
X20488800Y-62690799D03*
X18791744Y-66787855D03*
X18791744Y-63393743D03*
D24*
X20488800Y-65090799D03*
D23*
X22185856Y-66787855D03*
G04 #@! TD*
D10*
G04 #@! TO.C,REF\u002A\u002A*
X25035401Y-89459619D03*
G04 #@! TD*
D12*
G04 #@! TO.C,R20*
X102600000Y-50541399D03*
X102600000Y-52191399D03*
G04 #@! TD*
D23*
G04 #@! TO.C,H3*
X125773056Y-127877075D03*
X121676000Y-126180019D03*
X124076000Y-123780019D03*
X125773056Y-124482963D03*
D24*
X124076000Y-126180019D03*
D23*
X122378944Y-124482963D03*
X124076000Y-128580019D03*
X122378944Y-127877075D03*
X126476000Y-126180019D03*
G04 #@! TD*
D49*
G04 #@! TO.C,C20*
X40478600Y-129332219D03*
X40478600Y-130292219D03*
G04 #@! TD*
D14*
G04 #@! TO.C,R13*
X145476000Y-132022019D03*
X147126000Y-132022019D03*
G04 #@! TD*
G04 #@! TO.C,R26*
X132268000Y-62525399D03*
X133918000Y-62525399D03*
G04 #@! TD*
D32*
G04 #@! TO.C,D7*
X60316000Y-127424519D03*
X60316000Y-128999519D03*
G04 #@! TD*
D62*
G04 #@! TO.C,C4*
X102500000Y-125801019D03*
X102500000Y-122851019D03*
G04 #@! TD*
D80*
G04 #@! TO.C,C26*
X148828000Y-50638199D03*
X150378000Y-50638199D03*
G04 #@! TD*
D47*
G04 #@! TO.C,J7*
X149912000Y-125902019D03*
X149912000Y-124902019D03*
X149912000Y-123902019D03*
X149912000Y-122902019D03*
D48*
X147387000Y-127202019D03*
X147387000Y-121602019D03*
G04 #@! TD*
D52*
G04 #@! TO.C,C1*
X23500000Y-116951019D03*
X23500000Y-119901019D03*
G04 #@! TD*
D12*
G04 #@! TO.C,R10*
X58538000Y-49127399D03*
X58538000Y-50777399D03*
G04 #@! TD*
D10*
G04 #@! TO.C,REF\u002A\u002A*
X139152000Y-74901255D03*
G04 #@! TD*
D45*
G04 #@! TO.C,R23*
X69409200Y-149966619D03*
X69409200Y-148316619D03*
G04 #@! TD*
D12*
G04 #@! TO.C,R1*
X115897200Y-75314799D03*
X115897200Y-76964799D03*
G04 #@! TD*
D77*
G04 #@! TO.C,TP19*
X43298000Y-102050019D03*
G04 #@! TD*
D10*
G04 #@! TO.C,REF\u002A\u002A*
X90200000Y-46431399D03*
G04 #@! TD*
D46*
G04 #@! TO.C,FID1*
X12716400Y-12563599D03*
G04 #@! TD*
D20*
G04 #@! TO.C,C15*
X114624600Y-140861219D03*
X113664600Y-140861219D03*
G04 #@! TD*
D21*
G04 #@! TO.C,C6*
X118805800Y-122420819D03*
X117255800Y-122420819D03*
G04 #@! TD*
D74*
G04 #@! TO.C,J5*
X107067600Y-63922399D03*
D75*
X107067600Y-69722399D03*
D76*
X111867600Y-66922399D03*
G04 #@! TD*
D20*
G04 #@! TO.C,C10*
X45302000Y-68494399D03*
X44342000Y-68494399D03*
G04 #@! TD*
D49*
G04 #@! TO.C,C9*
X36438400Y-63224599D03*
X36438400Y-64184599D03*
G04 #@! TD*
D38*
G04 #@! TO.C,C19*
X34456400Y-139464219D03*
X35416400Y-139464219D03*
G04 #@! TD*
D14*
G04 #@! TO.C,R11*
X107249000Y-100650019D03*
X108899000Y-100650019D03*
G04 #@! TD*
D45*
G04 #@! TO.C,R23*
X69409200Y-71706999D03*
X69409200Y-70056999D03*
G04 #@! TD*
D13*
G04 #@! TO.C,D6*
X153192300Y-53058399D03*
X153192300Y-54958399D03*
X155067300Y-54008399D03*
G04 #@! TD*
D38*
G04 #@! TO.C,C23*
X114066000Y-60239399D03*
X115026000Y-60239399D03*
G04 #@! TD*
D14*
G04 #@! TO.C,R11*
X28249000Y-100650019D03*
X29899000Y-100650019D03*
G04 #@! TD*
D55*
G04 #@! TO.C,Y1*
X40270000Y-124286019D03*
X35870000Y-124286019D03*
X35870000Y-126686019D03*
X40270000Y-126686019D03*
G04 #@! TD*
D10*
G04 #@! TO.C,REF\u002A\u002A*
X11200001Y-48231399D03*
G04 #@! TD*
D13*
G04 #@! TO.C,Q3*
X107390500Y-103891019D03*
X107390500Y-105791019D03*
X109265500Y-104841019D03*
G04 #@! TD*
D81*
G04 #@! TO.C,J8*
X129024800Y-44455199D03*
X129024800Y-45455199D03*
X129024800Y-46455199D03*
X129024800Y-47455199D03*
X129024800Y-48455199D03*
X129024800Y-49455199D03*
D82*
X131549800Y-43155199D03*
X131549800Y-50755199D03*
G04 #@! TD*
D12*
G04 #@! TO.C,R1*
X36897200Y-75314799D03*
X36897200Y-76964799D03*
G04 #@! TD*
D10*
G04 #@! TO.C,REF\u002A\u002A*
X104035400Y-89459619D03*
G04 #@! TD*
D66*
G04 #@! TO.C,C16*
X115135200Y-136388219D03*
X115135200Y-135428219D03*
G04 #@! TD*
D11*
G04 #@! TO.C,C27*
X56404400Y-46612599D03*
X56404400Y-45062599D03*
G04 #@! TD*
D10*
G04 #@! TO.C,REF\u002A\u002A*
X78799999Y-35391999D03*
G04 #@! TD*
D53*
G04 #@! TO.C,L1*
X96957500Y-119476019D03*
X96957500Y-125776019D03*
G04 #@! TD*
D74*
G04 #@! TO.C,J5*
X28067600Y-142182019D03*
D75*
X28067600Y-147982019D03*
D76*
X32867600Y-145182019D03*
G04 #@! TD*
D56*
G04 #@! TO.C,REF\u002A\u002A*
X165000000Y-7000000D03*
G04 #@! TD*
D12*
G04 #@! TO.C,R1*
X36897200Y-153574419D03*
X36897200Y-155224419D03*
G04 #@! TD*
D38*
G04 #@! TO.C,C19*
X113456400Y-61204599D03*
X114416400Y-61204599D03*
G04 #@! TD*
M02*
