G04 #@! TF.GenerationSoftware,KiCad,Pcbnew,6.0.0-d3dd2cf0fa~116~ubuntu20.04.1*
G04 #@! TF.CreationDate,2023-02-13T12:17:36+00:00*
G04 #@! TF.ProjectId,pixel-pump-mainboard-panel,70697865-6c2d-4707-956d-702d6d61696e,rev?*
G04 #@! TF.SameCoordinates,Original*
G04 #@! TF.FileFunction,Soldermask,Bot*
G04 #@! TF.FilePolarity,Negative*
%FSLAX46Y46*%
G04 Gerber Fmt 4.6, Leading zero omitted, Abs format (unit mm)*
G04 Created by KiCad (PCBNEW 6.0.0-d3dd2cf0fa~116~ubuntu20.04.1) date 2023-02-13 12:17:36*
%MOMM*%
%LPD*%
G01*
G04 APERTURE LIST*
G04 Aperture macros list*
%AMRoundRect*
0 Rectangle with rounded corners*
0 $1 Rounding radius*
0 $2 $3 $4 $5 $6 $7 $8 $9 X,Y pos of 4 corners*
0 Add a 4 corners polygon primitive as box body*
4,1,4,$2,$3,$4,$5,$6,$7,$8,$9,$2,$3,0*
0 Add four circle primitives for the rounded corners*
1,1,$1+$1,$2,$3*
1,1,$1+$1,$4,$5*
1,1,$1+$1,$6,$7*
1,1,$1+$1,$8,$9*
0 Add four rect primitives between the rounded corners*
20,1,$1+$1,$2,$3,$4,$5,0*
20,1,$1+$1,$4,$5,$6,$7,0*
20,1,$1+$1,$6,$7,$8,$9,0*
20,1,$1+$1,$8,$9,$2,$3,0*%
G04 Aperture macros list end*
%ADD10C,0.500000*%
%ADD11C,3.000000*%
%ADD12C,0.800000*%
%ADD13C,6.400000*%
%ADD14C,2.300000*%
%ADD15R,1.500000X1.500000*%
%ADD16C,1.500000*%
%ADD17RoundRect,0.250000X-0.750000X0.600000X-0.750000X-0.600000X0.750000X-0.600000X0.750000X0.600000X0*%
%ADD18O,2.000000X1.700000*%
%ADD19C,0.700000*%
%ADD20O,1.050000X2.100000*%
%ADD21RoundRect,0.250000X0.750000X-0.600000X0.750000X0.600000X-0.750000X0.600000X-0.750000X-0.600000X0*%
%ADD22C,2.800000*%
%ADD23C,2.200000*%
%ADD24C,1.700000*%
%ADD25R,4.400000X1.800000*%
%ADD26O,4.000000X1.800000*%
%ADD27O,1.800000X4.000000*%
%ADD28R,2.600000X2.600000*%
%ADD29C,2.600000*%
%ADD30R,1.350000X1.350000*%
%ADD31O,1.350000X1.350000*%
%ADD32C,2.000000*%
%ADD33C,1.000000*%
G04 APERTURE END LIST*
D10*
G04 #@! TO.C,REF\u002A\u002A*
X104760400Y-89459619D03*
G04 #@! TD*
G04 #@! TO.C,REF\u002A\u002A*
X90200000Y-47756399D03*
G04 #@! TD*
D11*
G04 #@! TO.C,REF\u002A\u002A*
X165000000Y-160519239D03*
G04 #@! TD*
D10*
G04 #@! TO.C,REF\u002A\u002A*
X78799999Y-35141999D03*
G04 #@! TD*
G04 #@! TO.C,REF\u002A\u002A*
X90200000Y-123841019D03*
G04 #@! TD*
G04 #@! TO.C,REF\u002A\u002A*
X23585401Y-11200000D03*
G04 #@! TD*
G04 #@! TO.C,REF\u002A\u002A*
X90200000Y-125291019D03*
G04 #@! TD*
D12*
G04 #@! TO.C,H3*
X47476000Y-126180019D03*
X45076000Y-123780019D03*
X43378944Y-124482963D03*
X46773056Y-127877075D03*
D13*
X45076000Y-126180019D03*
D12*
X42676000Y-126180019D03*
X46773056Y-124482963D03*
X45076000Y-128580019D03*
X43378944Y-127877075D03*
G04 #@! TD*
D14*
G04 #@! TO.C,J3*
X133062000Y-149667019D03*
X145062000Y-149667019D03*
D15*
X140592000Y-147367019D03*
D16*
X139572000Y-144827019D03*
X138552000Y-147367019D03*
X137532000Y-144827019D03*
G04 #@! TD*
D10*
G04 #@! TO.C,REF\u002A\u002A*
X11200001Y-46306399D03*
G04 #@! TD*
G04 #@! TO.C,REF\u002A\u002A*
X137102000Y-153160875D03*
G04 #@! TD*
G04 #@! TO.C,REF\u002A\u002A*
X78799999Y-115576619D03*
G04 #@! TD*
G04 #@! TO.C,REF\u002A\u002A*
X26485401Y-11200000D03*
G04 #@! TD*
G04 #@! TO.C,REF\u002A\u002A*
X157799999Y-114851619D03*
G04 #@! TD*
G04 #@! TO.C,REF\u002A\u002A*
X140002000Y-153160875D03*
G04 #@! TD*
G04 #@! TO.C,REF\u002A\u002A*
X78799999Y-38041999D03*
G04 #@! TD*
G04 #@! TO.C,REF\u002A\u002A*
X90200000Y-126016019D03*
G04 #@! TD*
D17*
G04 #@! TO.C,J4*
X130900200Y-31227199D03*
D18*
X130900200Y-33727199D03*
G04 #@! TD*
D19*
G04 #@! TO.C,J12*
X124934000Y-73056899D03*
X119154000Y-73056899D03*
D20*
X117724000Y-72526899D03*
X126364000Y-72526899D03*
X117724000Y-76706899D03*
X126364000Y-76706899D03*
G04 #@! TD*
D11*
G04 #@! TO.C,REF\u002A\u002A*
X4000000Y-7000000D03*
G04 #@! TD*
D10*
G04 #@! TO.C,REF\u002A\u002A*
X25760401Y-11200000D03*
G04 #@! TD*
D12*
G04 #@! TO.C,H5*
X17715456Y-95923875D03*
X14321344Y-92529763D03*
X13618400Y-94226819D03*
X16018400Y-91826819D03*
D13*
X16018400Y-94226819D03*
D12*
X18418400Y-94226819D03*
X17715456Y-92529763D03*
X16018400Y-96626819D03*
X14321344Y-95923875D03*
G04 #@! TD*
D10*
G04 #@! TO.C,REF\u002A\u002A*
X11200001Y-45581399D03*
G04 #@! TD*
G04 #@! TO.C,REF\u002A\u002A*
X90200000Y-45581399D03*
G04 #@! TD*
G04 #@! TO.C,REF\u002A\u002A*
X90200000Y-126741019D03*
G04 #@! TD*
D21*
G04 #@! TO.C,J1*
X122535000Y-110666019D03*
D18*
X122535000Y-108166019D03*
G04 #@! TD*
D10*
G04 #@! TO.C,REF\u002A\u002A*
X11200001Y-48481399D03*
G04 #@! TD*
D12*
G04 #@! TO.C,H4*
X101888800Y-143350419D03*
X97791744Y-145047475D03*
X101185856Y-145047475D03*
D13*
X99488800Y-143350419D03*
D12*
X97088800Y-143350419D03*
X97791744Y-141653363D03*
X99488800Y-145750419D03*
X99488800Y-140950419D03*
X101185856Y-141653363D03*
G04 #@! TD*
G04 #@! TO.C,H1*
X151063200Y-65090799D03*
X150360256Y-66787855D03*
X148663200Y-62690799D03*
D13*
X148663200Y-65090799D03*
D12*
X148663200Y-67490799D03*
X146263200Y-65090799D03*
X146966144Y-66787855D03*
X146966144Y-63393743D03*
X150360256Y-63393743D03*
G04 #@! TD*
D19*
G04 #@! TO.C,J12*
X124934000Y-151316519D03*
X119154000Y-151316519D03*
D20*
X117724000Y-150786519D03*
X126364000Y-150786519D03*
X117724000Y-154966519D03*
X126364000Y-154966519D03*
G04 #@! TD*
D13*
G04 #@! TO.C,H5*
X95018400Y-15967199D03*
D12*
X92618400Y-15967199D03*
X96715456Y-14270143D03*
X95018400Y-18367199D03*
X95018400Y-13567199D03*
X93321344Y-17664255D03*
X97418400Y-15967199D03*
X93321344Y-14270143D03*
X96715456Y-17664255D03*
G04 #@! TD*
D21*
G04 #@! TO.C,J1*
X122535000Y-32406399D03*
D18*
X122535000Y-29906399D03*
G04 #@! TD*
D10*
G04 #@! TO.C,REF\u002A\u002A*
X140002000Y-74901255D03*
G04 #@! TD*
D12*
G04 #@! TO.C,H4*
X99488800Y-67490799D03*
X97791744Y-66787855D03*
X101185856Y-66787855D03*
X97791744Y-63393743D03*
X101888800Y-65090799D03*
X99488800Y-62690799D03*
X97088800Y-65090799D03*
X101185856Y-63393743D03*
D13*
X99488800Y-65090799D03*
G04 #@! TD*
D10*
G04 #@! TO.C,REF\u002A\u002A*
X24310401Y-89459619D03*
G04 #@! TD*
D21*
G04 #@! TO.C,J1*
X43535000Y-110666019D03*
D18*
X43535000Y-108166019D03*
G04 #@! TD*
D10*
G04 #@! TO.C,REF\u002A\u002A*
X138552000Y-153160875D03*
G04 #@! TD*
D22*
G04 #@! TO.C,TP19*
X122298000Y-23790399D03*
G04 #@! TD*
D10*
G04 #@! TO.C,REF\u002A\u002A*
X103310400Y-89459619D03*
G04 #@! TD*
G04 #@! TO.C,REF\u002A\u002A*
X24310401Y-11200000D03*
G04 #@! TD*
D17*
G04 #@! TO.C,J4*
X51900200Y-31227199D03*
D18*
X51900200Y-33727199D03*
G04 #@! TD*
D17*
G04 #@! TO.C,J4*
X51900200Y-109486819D03*
D18*
X51900200Y-111986819D03*
G04 #@! TD*
D10*
G04 #@! TO.C,REF\u002A\u002A*
X78799999Y-36591999D03*
G04 #@! TD*
D23*
G04 #@! TO.C,SW1*
X149403800Y-118351619D03*
X149403800Y-111351619D03*
D24*
X151903800Y-112601619D03*
X151903800Y-117101619D03*
G04 #@! TD*
D10*
G04 #@! TO.C,REF\u002A\u002A*
X157799999Y-35141999D03*
G04 #@! TD*
D11*
G04 #@! TO.C,REF\u002A\u002A*
X165000000Y-7000000D03*
G04 #@! TD*
D14*
G04 #@! TO.C,J3*
X54062000Y-149667019D03*
X66062000Y-149667019D03*
D15*
X61592000Y-147367019D03*
D16*
X60572000Y-144827019D03*
X59552000Y-147367019D03*
X58532000Y-144827019D03*
G04 #@! TD*
D25*
G04 #@! TO.C,J5*
X107067600Y-63922399D03*
D26*
X107067600Y-69722399D03*
D27*
X111867600Y-66922399D03*
G04 #@! TD*
D12*
G04 #@! TO.C,H3*
X125773056Y-127877075D03*
D13*
X124076000Y-126180019D03*
D12*
X126476000Y-126180019D03*
X122378944Y-127877075D03*
X125773056Y-124482963D03*
X121676000Y-126180019D03*
X124076000Y-123780019D03*
X124076000Y-128580019D03*
X122378944Y-124482963D03*
G04 #@! TD*
D23*
G04 #@! TO.C,SW1*
X149403800Y-33091999D03*
X149403800Y-40091999D03*
D24*
X151903800Y-34341999D03*
X151903800Y-38841999D03*
G04 #@! TD*
D10*
G04 #@! TO.C,REF\u002A\u002A*
X157799999Y-37316999D03*
G04 #@! TD*
G04 #@! TO.C,REF\u002A\u002A*
X137827000Y-153160875D03*
G04 #@! TD*
D21*
G04 #@! TO.C,J2*
X122535000Y-118921019D03*
D18*
X122535000Y-116421019D03*
G04 #@! TD*
D10*
G04 #@! TO.C,REF\u002A\u002A*
X78799999Y-113401619D03*
G04 #@! TD*
D12*
G04 #@! TO.C,H4*
X20488800Y-145750419D03*
X22185856Y-145047475D03*
D13*
X20488800Y-143350419D03*
D12*
X18088800Y-143350419D03*
X22185856Y-141653363D03*
X18791744Y-145047475D03*
X22888800Y-143350419D03*
X18791744Y-141653363D03*
X20488800Y-140950419D03*
G04 #@! TD*
D25*
G04 #@! TO.C,J5*
X28067600Y-142182019D03*
D26*
X28067600Y-147982019D03*
D27*
X32867600Y-145182019D03*
G04 #@! TD*
D10*
G04 #@! TO.C,REF\u002A\u002A*
X78799999Y-114851619D03*
G04 #@! TD*
G04 #@! TO.C,REF\u002A\u002A*
X61002000Y-153160875D03*
G04 #@! TD*
G04 #@! TO.C,REF\u002A\u002A*
X25035401Y-11200000D03*
G04 #@! TD*
D12*
G04 #@! TO.C,H2*
X155381200Y-106571219D03*
X154678256Y-108268275D03*
D13*
X152981200Y-106571219D03*
D12*
X151284144Y-104874163D03*
X152981200Y-104171219D03*
X154678256Y-104874163D03*
X151284144Y-108268275D03*
X150581200Y-106571219D03*
X152981200Y-108971219D03*
G04 #@! TD*
D10*
G04 #@! TO.C,REF\u002A\u002A*
X137102000Y-74901255D03*
G04 #@! TD*
G04 #@! TO.C,REF\u002A\u002A*
X104035400Y-89459619D03*
G04 #@! TD*
G04 #@! TO.C,REF\u002A\u002A*
X58827000Y-74901255D03*
G04 #@! TD*
G04 #@! TO.C,REF\u002A\u002A*
X157799999Y-114126619D03*
G04 #@! TD*
D14*
G04 #@! TO.C,J3*
X145062000Y-71407399D03*
X133062000Y-71407399D03*
D15*
X140592000Y-69107399D03*
D16*
X139572000Y-66567399D03*
X138552000Y-69107399D03*
X137532000Y-66567399D03*
G04 #@! TD*
D10*
G04 #@! TO.C,REF\u002A\u002A*
X58827000Y-153160875D03*
G04 #@! TD*
D22*
G04 #@! TO.C,TP19*
X43298000Y-23790399D03*
G04 #@! TD*
D13*
G04 #@! TO.C,H2*
X73981200Y-28311599D03*
D12*
X72284144Y-30008655D03*
X73981200Y-25911599D03*
X76381200Y-28311599D03*
X72284144Y-26614543D03*
X73981200Y-30711599D03*
X71581200Y-28311599D03*
X75678256Y-26614543D03*
X75678256Y-30008655D03*
G04 #@! TD*
D10*
G04 #@! TO.C,REF\u002A\u002A*
X90200000Y-48481399D03*
G04 #@! TD*
D12*
G04 #@! TO.C,H2*
X154678256Y-30008655D03*
X152981200Y-25911599D03*
X155381200Y-28311599D03*
D13*
X152981200Y-28311599D03*
D12*
X154678256Y-26614543D03*
X150581200Y-28311599D03*
X151284144Y-30008655D03*
X152981200Y-30711599D03*
X151284144Y-26614543D03*
G04 #@! TD*
G04 #@! TO.C,H5*
X17715456Y-14270143D03*
X14321344Y-17664255D03*
D13*
X16018400Y-15967199D03*
D12*
X13618400Y-15967199D03*
X17715456Y-17664255D03*
X18418400Y-15967199D03*
X16018400Y-13567199D03*
X14321344Y-14270143D03*
X16018400Y-18367199D03*
G04 #@! TD*
D10*
G04 #@! TO.C,REF\u002A\u002A*
X59552000Y-74901255D03*
G04 #@! TD*
D12*
G04 #@! TO.C,H3*
X43378944Y-46223343D03*
X46773056Y-46223343D03*
X47476000Y-47920399D03*
X45076000Y-50320399D03*
X43378944Y-49617455D03*
D13*
X45076000Y-47920399D03*
D12*
X45076000Y-45520399D03*
X46773056Y-49617455D03*
X42676000Y-47920399D03*
G04 #@! TD*
D19*
G04 #@! TO.C,J12*
X40154000Y-73056899D03*
X45934000Y-73056899D03*
D20*
X38724000Y-72526899D03*
X47364000Y-72526899D03*
X38724000Y-76706899D03*
X47364000Y-76706899D03*
G04 #@! TD*
D28*
G04 #@! TO.C,J6*
X59625200Y-34306199D03*
D29*
X64705200Y-34306199D03*
G04 #@! TD*
D25*
G04 #@! TO.C,J5*
X107067600Y-142182019D03*
D26*
X107067600Y-147982019D03*
D27*
X111867600Y-145182019D03*
G04 #@! TD*
D22*
G04 #@! TO.C,TP19*
X122298000Y-102050019D03*
G04 #@! TD*
D30*
G04 #@! TO.C,J11*
X75971800Y-49472599D03*
D31*
X73971800Y-49472599D03*
X75971800Y-47472599D03*
X73971800Y-47472599D03*
X75971800Y-45472599D03*
X73971800Y-45472599D03*
X75971800Y-43472599D03*
X73971800Y-43472599D03*
G04 #@! TD*
D17*
G04 #@! TO.C,J4*
X130900200Y-109486819D03*
D18*
X130900200Y-111986819D03*
G04 #@! TD*
D10*
G04 #@! TO.C,REF\u002A\u002A*
X102585400Y-11200000D03*
G04 #@! TD*
G04 #@! TO.C,REF\u002A\u002A*
X157799999Y-115576619D03*
G04 #@! TD*
G04 #@! TO.C,REF\u002A\u002A*
X138552000Y-74901255D03*
G04 #@! TD*
G04 #@! TO.C,REF\u002A\u002A*
X11200001Y-126016019D03*
G04 #@! TD*
G04 #@! TO.C,REF\u002A\u002A*
X25760401Y-89459619D03*
G04 #@! TD*
G04 #@! TO.C,REF\u002A\u002A*
X105485400Y-89459619D03*
G04 #@! TD*
D30*
G04 #@! TO.C,J11*
X75971800Y-127732219D03*
D31*
X73971800Y-127732219D03*
X75971800Y-125732219D03*
X73971800Y-125732219D03*
X75971800Y-123732219D03*
X73971800Y-123732219D03*
X75971800Y-121732219D03*
X73971800Y-121732219D03*
G04 #@! TD*
D30*
G04 #@! TO.C,J11*
X154971800Y-49472599D03*
D31*
X152971800Y-49472599D03*
X154971800Y-47472599D03*
X152971800Y-47472599D03*
X154971800Y-45472599D03*
X152971800Y-45472599D03*
X154971800Y-43472599D03*
X152971800Y-43472599D03*
G04 #@! TD*
D30*
G04 #@! TO.C,J11*
X154971800Y-127732219D03*
D31*
X152971800Y-127732219D03*
X154971800Y-125732219D03*
X152971800Y-125732219D03*
X154971800Y-123732219D03*
X152971800Y-123732219D03*
X154971800Y-121732219D03*
X152971800Y-121732219D03*
G04 #@! TD*
D10*
G04 #@! TO.C,REF\u002A\u002A*
X90200000Y-47031399D03*
G04 #@! TD*
D21*
G04 #@! TO.C,J2*
X43535000Y-118921019D03*
D18*
X43535000Y-116421019D03*
G04 #@! TD*
D28*
G04 #@! TO.C,J6*
X138625200Y-34306199D03*
D29*
X143705200Y-34306199D03*
G04 #@! TD*
D28*
G04 #@! TO.C,J6*
X138625200Y-112565819D03*
D29*
X143705200Y-112565819D03*
G04 #@! TD*
D12*
G04 #@! TO.C,H1*
X71360256Y-141653363D03*
X71360256Y-145047475D03*
X67263200Y-143350419D03*
D13*
X69663200Y-143350419D03*
D12*
X69663200Y-145750419D03*
X67966144Y-141653363D03*
X67966144Y-145047475D03*
X72063200Y-143350419D03*
X69663200Y-140950419D03*
G04 #@! TD*
D10*
G04 #@! TO.C,REF\u002A\u002A*
X60277000Y-153160875D03*
G04 #@! TD*
G04 #@! TO.C,REF\u002A\u002A*
X11200001Y-47756399D03*
G04 #@! TD*
G04 #@! TO.C,REF\u002A\u002A*
X11200001Y-123841019D03*
G04 #@! TD*
G04 #@! TO.C,REF\u002A\u002A*
X11200001Y-126741019D03*
G04 #@! TD*
G04 #@! TO.C,REF\u002A\u002A*
X104035400Y-11200000D03*
G04 #@! TD*
G04 #@! TO.C,REF\u002A\u002A*
X26485401Y-89459619D03*
G04 #@! TD*
D22*
G04 #@! TO.C,TP19*
X43298000Y-102050019D03*
G04 #@! TD*
D12*
G04 #@! TO.C,H1*
X71360256Y-63393743D03*
X69663200Y-62690799D03*
X72063200Y-65090799D03*
D13*
X69663200Y-65090799D03*
D12*
X69663200Y-67490799D03*
X67966144Y-63393743D03*
X67966144Y-66787855D03*
X67263200Y-65090799D03*
X71360256Y-66787855D03*
G04 #@! TD*
D10*
G04 #@! TO.C,REF\u002A\u002A*
X102585400Y-89459619D03*
G04 #@! TD*
D21*
G04 #@! TO.C,J2*
X43535000Y-40661399D03*
D18*
X43535000Y-38161399D03*
G04 #@! TD*
D12*
G04 #@! TO.C,H3*
X121676000Y-47920399D03*
X125773056Y-46223343D03*
X125773056Y-49617455D03*
D13*
X124076000Y-47920399D03*
D12*
X124076000Y-50320399D03*
X126476000Y-47920399D03*
X124076000Y-45520399D03*
X122378944Y-49617455D03*
X122378944Y-46223343D03*
G04 #@! TD*
D21*
G04 #@! TO.C,J1*
X43535000Y-32406399D03*
D18*
X43535000Y-29906399D03*
G04 #@! TD*
D10*
G04 #@! TO.C,REF\u002A\u002A*
X78799999Y-35866999D03*
G04 #@! TD*
G04 #@! TO.C,REF\u002A\u002A*
X58102000Y-153160875D03*
G04 #@! TD*
D12*
G04 #@! TO.C,H1*
X146966144Y-145047475D03*
X150360256Y-141653363D03*
X151063200Y-143350419D03*
X146263200Y-143350419D03*
X148663200Y-140950419D03*
D13*
X148663200Y-143350419D03*
D12*
X146966144Y-141653363D03*
X148663200Y-145750419D03*
X150360256Y-145047475D03*
G04 #@! TD*
D10*
G04 #@! TO.C,REF\u002A\u002A*
X25035401Y-89459619D03*
G04 #@! TD*
G04 #@! TO.C,REF\u002A\u002A*
X139277000Y-153160875D03*
G04 #@! TD*
G04 #@! TO.C,REF\u002A\u002A*
X157799999Y-113401619D03*
G04 #@! TD*
D11*
G04 #@! TO.C,REF\u002A\u002A*
X4000000Y-160519239D03*
G04 #@! TD*
D12*
G04 #@! TO.C,H2*
X75678256Y-104874163D03*
D13*
X73981200Y-106571219D03*
D12*
X73981200Y-104171219D03*
X72284144Y-108268275D03*
X71581200Y-106571219D03*
X72284144Y-104874163D03*
X76381200Y-106571219D03*
X73981200Y-108971219D03*
X75678256Y-108268275D03*
G04 #@! TD*
D10*
G04 #@! TO.C,REF\u002A\u002A*
X23585401Y-89459619D03*
G04 #@! TD*
G04 #@! TO.C,REF\u002A\u002A*
X157799999Y-36591999D03*
G04 #@! TD*
G04 #@! TO.C,REF\u002A\u002A*
X78799999Y-37316999D03*
G04 #@! TD*
G04 #@! TO.C,REF\u002A\u002A*
X11200001Y-47031399D03*
G04 #@! TD*
D19*
G04 #@! TO.C,J12*
X40154000Y-151316519D03*
X45934000Y-151316519D03*
D20*
X38724000Y-150786519D03*
X47364000Y-150786519D03*
X38724000Y-154966519D03*
X47364000Y-154966519D03*
G04 #@! TD*
D10*
G04 #@! TO.C,REF\u002A\u002A*
X157799999Y-38041999D03*
G04 #@! TD*
D28*
G04 #@! TO.C,J6*
X59625200Y-112565819D03*
D29*
X64705200Y-112565819D03*
G04 #@! TD*
D10*
G04 #@! TO.C,REF\u002A\u002A*
X61002000Y-74901255D03*
G04 #@! TD*
G04 #@! TO.C,REF\u002A\u002A*
X90200000Y-46306399D03*
G04 #@! TD*
D23*
G04 #@! TO.C,SW1*
X70403800Y-33091999D03*
X70403800Y-40091999D03*
D24*
X72903800Y-34341999D03*
X72903800Y-38841999D03*
G04 #@! TD*
D25*
G04 #@! TO.C,J5*
X28067600Y-63922399D03*
D26*
X28067600Y-69722399D03*
D27*
X32867600Y-66922399D03*
G04 #@! TD*
D12*
G04 #@! TO.C,H5*
X92618400Y-94226819D03*
X93321344Y-95923875D03*
X97418400Y-94226819D03*
D13*
X95018400Y-94226819D03*
D12*
X96715456Y-92529763D03*
X93321344Y-92529763D03*
X95018400Y-91826819D03*
X95018400Y-96626819D03*
X96715456Y-95923875D03*
G04 #@! TD*
D10*
G04 #@! TO.C,REF\u002A\u002A*
X157799999Y-35866999D03*
G04 #@! TD*
G04 #@! TO.C,REF\u002A\u002A*
X90200000Y-124566019D03*
G04 #@! TD*
G04 #@! TO.C,REF\u002A\u002A*
X60277000Y-74901255D03*
G04 #@! TD*
D14*
G04 #@! TO.C,J3*
X54062000Y-71407399D03*
X66062000Y-71407399D03*
D15*
X61592000Y-69107399D03*
D16*
X60572000Y-66567399D03*
X59552000Y-69107399D03*
X58532000Y-66567399D03*
G04 #@! TD*
D10*
G04 #@! TO.C,REF\u002A\u002A*
X137827000Y-74901255D03*
G04 #@! TD*
G04 #@! TO.C,REF\u002A\u002A*
X105485400Y-11200000D03*
G04 #@! TD*
G04 #@! TO.C,REF\u002A\u002A*
X58102000Y-74901255D03*
G04 #@! TD*
D23*
G04 #@! TO.C,SW1*
X70403800Y-111351619D03*
X70403800Y-118351619D03*
D24*
X72903800Y-112601619D03*
X72903800Y-117101619D03*
G04 #@! TD*
D10*
G04 #@! TO.C,REF\u002A\u002A*
X104760400Y-11200000D03*
G04 #@! TD*
D12*
G04 #@! TO.C,H4*
X20488800Y-67490799D03*
X18088800Y-65090799D03*
X22888800Y-65090799D03*
X22185856Y-63393743D03*
X20488800Y-62690799D03*
X18791744Y-66787855D03*
X18791744Y-63393743D03*
D13*
X20488800Y-65090799D03*
D12*
X22185856Y-66787855D03*
G04 #@! TD*
D21*
G04 #@! TO.C,J2*
X122535000Y-40661399D03*
D18*
X122535000Y-38161399D03*
G04 #@! TD*
D10*
G04 #@! TO.C,REF\u002A\u002A*
X103310400Y-11200000D03*
G04 #@! TD*
G04 #@! TO.C,REF\u002A\u002A*
X78799999Y-114126619D03*
G04 #@! TD*
G04 #@! TO.C,REF\u002A\u002A*
X139277000Y-74901255D03*
G04 #@! TD*
G04 #@! TO.C,REF\u002A\u002A*
X59552000Y-153160875D03*
G04 #@! TD*
G04 #@! TO.C,REF\u002A\u002A*
X11200001Y-124566019D03*
G04 #@! TD*
G04 #@! TO.C,REF\u002A\u002A*
X11200001Y-125291019D03*
G04 #@! TD*
G04 #@! TO.C,REF\u002A\u002A*
X78799999Y-116301619D03*
G04 #@! TD*
G04 #@! TO.C,REF\u002A\u002A*
X157799999Y-116301619D03*
G04 #@! TD*
D32*
G04 #@! TO.C,TP13*
X93800000Y-42116399D03*
G04 #@! TD*
G04 #@! TO.C,TP6*
X146469000Y-106922019D03*
G04 #@! TD*
G04 #@! TO.C,TP24*
X75937000Y-118560019D03*
G04 #@! TD*
G04 #@! TO.C,TP1*
X44517200Y-74488799D03*
G04 #@! TD*
G04 #@! TO.C,TP10*
X13650000Y-112288019D03*
G04 #@! TD*
G04 #@! TO.C,TP9*
X20717400Y-109263619D03*
G04 #@! TD*
G04 #@! TO.C,TP16*
X99920600Y-49850799D03*
G04 #@! TD*
G04 #@! TO.C,TP7*
X17300000Y-107676019D03*
G04 #@! TD*
G04 #@! TO.C,TP31*
X60493800Y-71745599D03*
G04 #@! TD*
G04 #@! TO.C,TP11*
X108937600Y-45710599D03*
G04 #@! TD*
G04 #@! TO.C,TP22*
X67986800Y-56175399D03*
G04 #@! TD*
G04 #@! TO.C,TP11*
X29937600Y-45710599D03*
G04 #@! TD*
D33*
G04 #@! TO.C,REF\u002A\u002A*
X165000000Y-3000000D03*
G04 #@! TD*
D32*
G04 #@! TO.C,TP25*
X133702600Y-49418999D03*
G04 #@! TD*
G04 #@! TO.C,TP1*
X123517200Y-74488799D03*
G04 #@! TD*
G04 #@! TO.C,TP3*
X63928000Y-106922019D03*
G04 #@! TD*
G04 #@! TO.C,TP25*
X54702600Y-127678619D03*
G04 #@! TD*
G04 #@! TO.C,TP1*
X123517200Y-152748419D03*
G04 #@! TD*
G04 #@! TO.C,TP14*
X147063000Y-123640019D03*
G04 #@! TD*
G04 #@! TO.C,TP16*
X20920600Y-128110419D03*
G04 #@! TD*
G04 #@! TO.C,TP12*
X150746000Y-42586399D03*
G04 #@! TD*
G04 #@! TO.C,TP28*
X54601000Y-124783019D03*
G04 #@! TD*
G04 #@! TO.C,TP7*
X96300000Y-29416399D03*
G04 #@! TD*
G04 #@! TO.C,TP4*
X13650000Y-108926019D03*
G04 #@! TD*
G04 #@! TO.C,TP1*
X44517200Y-152748419D03*
G04 #@! TD*
G04 #@! TO.C,TP31*
X60493800Y-150005219D03*
G04 #@! TD*
G04 #@! TO.C,TP9*
X99717400Y-31003999D03*
G04 #@! TD*
G04 #@! TO.C,TP9*
X20717400Y-31003999D03*
G04 #@! TD*
G04 #@! TO.C,TP16*
X99920600Y-128110419D03*
G04 #@! TD*
G04 #@! TO.C,TP16*
X20920600Y-49850799D03*
G04 #@! TD*
G04 #@! TO.C,TP27*
X51857800Y-49520599D03*
G04 #@! TD*
G04 #@! TO.C,TP6*
X146469000Y-28662399D03*
G04 #@! TD*
G04 #@! TO.C,TP4*
X13650000Y-30666399D03*
G04 #@! TD*
G04 #@! TO.C,TP26*
X130807000Y-42840399D03*
G04 #@! TD*
G04 #@! TO.C,TP2*
X41418400Y-74488799D03*
G04 #@! TD*
G04 #@! TO.C,TP15*
X147444000Y-126688019D03*
G04 #@! TD*
G04 #@! TO.C,TP9*
X99717400Y-109263619D03*
G04 #@! TD*
G04 #@! TO.C,TP5*
X33950800Y-56607199D03*
G04 #@! TD*
G04 #@! TO.C,TP10*
X92650000Y-112288019D03*
G04 #@! TD*
G04 #@! TO.C,TP20*
X57344200Y-71694799D03*
G04 #@! TD*
G04 #@! TO.C,TP22*
X67986800Y-134435019D03*
G04 #@! TD*
G04 #@! TO.C,TP27*
X130857800Y-49520599D03*
G04 #@! TD*
G04 #@! TO.C,TP12*
X150746000Y-120846019D03*
G04 #@! TD*
G04 #@! TO.C,TP15*
X68444000Y-48428399D03*
G04 #@! TD*
G04 #@! TO.C,TP6*
X67469000Y-106922019D03*
G04 #@! TD*
G04 #@! TO.C,TP26*
X130807000Y-121100019D03*
G04 #@! TD*
G04 #@! TO.C,TP24*
X75937000Y-40300399D03*
G04 #@! TD*
G04 #@! TO.C,TP2*
X120418400Y-74488799D03*
G04 #@! TD*
G04 #@! TO.C,TP15*
X147444000Y-48428399D03*
G04 #@! TD*
G04 #@! TO.C,TP5*
X33950800Y-134866819D03*
G04 #@! TD*
G04 #@! TO.C,TP23*
X150085600Y-138422819D03*
G04 #@! TD*
G04 #@! TO.C,TP26*
X51807000Y-42840399D03*
G04 #@! TD*
G04 #@! TO.C,TP4*
X92650000Y-108926019D03*
G04 #@! TD*
G04 #@! TO.C,TP6*
X67469000Y-28662399D03*
G04 #@! TD*
G04 #@! TO.C,TP23*
X71085600Y-60163199D03*
G04 #@! TD*
G04 #@! TO.C,TP22*
X146986800Y-56175399D03*
G04 #@! TD*
G04 #@! TO.C,TP20*
X136344200Y-71694799D03*
G04 #@! TD*
G04 #@! TO.C,TP23*
X150085600Y-60163199D03*
G04 #@! TD*
G04 #@! TO.C,TP12*
X71746000Y-42586399D03*
G04 #@! TD*
G04 #@! TO.C,TP14*
X68063000Y-123640019D03*
G04 #@! TD*
G04 #@! TO.C,TP25*
X133702600Y-127678619D03*
G04 #@! TD*
G04 #@! TO.C,TP31*
X139493800Y-150005219D03*
G04 #@! TD*
G04 #@! TO.C,TP28*
X54601000Y-46523399D03*
G04 #@! TD*
G04 #@! TO.C,TP2*
X41418400Y-152748419D03*
G04 #@! TD*
G04 #@! TO.C,TP13*
X14800000Y-42116399D03*
G04 #@! TD*
G04 #@! TO.C,TP14*
X68063000Y-45380399D03*
G04 #@! TD*
G04 #@! TO.C,TP25*
X54702600Y-49418999D03*
G04 #@! TD*
G04 #@! TO.C,TP3*
X142928000Y-28662399D03*
G04 #@! TD*
G04 #@! TO.C,TP23*
X71085600Y-138422819D03*
G04 #@! TD*
G04 #@! TO.C,TP10*
X13650000Y-34028399D03*
G04 #@! TD*
G04 #@! TO.C,TP5*
X112950800Y-56607199D03*
G04 #@! TD*
G04 #@! TO.C,TP3*
X142928000Y-106922019D03*
G04 #@! TD*
G04 #@! TO.C,TP24*
X154937000Y-118560019D03*
G04 #@! TD*
G04 #@! TO.C,TP3*
X63928000Y-28662399D03*
G04 #@! TD*
G04 #@! TO.C,TP14*
X147063000Y-45380399D03*
G04 #@! TD*
G04 #@! TO.C,TP7*
X17300000Y-29416399D03*
G04 #@! TD*
G04 #@! TO.C,TP26*
X51807000Y-121100019D03*
G04 #@! TD*
G04 #@! TO.C,TP4*
X92650000Y-30666399D03*
G04 #@! TD*
G04 #@! TO.C,TP11*
X108937600Y-123970219D03*
G04 #@! TD*
G04 #@! TO.C,TP13*
X93800000Y-120376019D03*
G04 #@! TD*
G04 #@! TO.C,TP13*
X14800000Y-120376019D03*
G04 #@! TD*
G04 #@! TO.C,TP20*
X136344200Y-149954419D03*
G04 #@! TD*
G04 #@! TO.C,TP27*
X51857800Y-127780219D03*
G04 #@! TD*
G04 #@! TO.C,TP15*
X68444000Y-126688019D03*
G04 #@! TD*
D33*
G04 #@! TO.C,REF\u002A\u002A*
X165000000Y-164519239D03*
G04 #@! TD*
D32*
G04 #@! TO.C,TP11*
X29937600Y-123970219D03*
G04 #@! TD*
G04 #@! TO.C,TP2*
X120418400Y-152748419D03*
G04 #@! TD*
G04 #@! TO.C,TP28*
X133601000Y-46523399D03*
G04 #@! TD*
G04 #@! TO.C,TP7*
X96300000Y-107676019D03*
G04 #@! TD*
G04 #@! TO.C,TP12*
X71746000Y-120846019D03*
G04 #@! TD*
G04 #@! TO.C,TP20*
X57344200Y-149954419D03*
G04 #@! TD*
G04 #@! TO.C,TP10*
X92650000Y-34028399D03*
G04 #@! TD*
G04 #@! TO.C,TP27*
X130857800Y-127780219D03*
G04 #@! TD*
G04 #@! TO.C,TP5*
X112950800Y-134866819D03*
G04 #@! TD*
D33*
G04 #@! TO.C,REF\u002A\u002A*
X4000000Y-3000000D03*
G04 #@! TD*
G04 #@! TO.C,REF\u002A\u002A*
X4000000Y-164519239D03*
G04 #@! TD*
D32*
G04 #@! TO.C,TP22*
X146986800Y-134435019D03*
G04 #@! TD*
G04 #@! TO.C,TP24*
X154937000Y-40300399D03*
G04 #@! TD*
G04 #@! TO.C,TP28*
X133601000Y-124783019D03*
G04 #@! TD*
G04 #@! TO.C,TP31*
X139493800Y-71745599D03*
G04 #@! TD*
M02*
