M48
; DRILL file {KiCad 6.0.0-d3dd2cf0fa~116~ubuntu20.04.1} date Mon Feb 13 12:17:36 2023
; FORMAT={-:-/ absolute / metric / decimal}
; #@! TF.CreationDate,2023-02-13T12:17:36+00:00
; #@! TF.GenerationSoftware,Kicad,Pcbnew,6.0.0-d3dd2cf0fa~116~ubuntu20.04.1
; #@! TF.FileFunction,MixedPlating,1,4
FMAT,2
METRIC
; #@! TA.AperFunction,Plated,PTH,ViaDrill
T1C0.300
; #@! TA.AperFunction,Plated,PTH,ViaDrill
T2C0.350
; #@! TA.AperFunction,Plated,PTH,ViaDrill
T3C0.500
; #@! TA.AperFunction,Plated,PTH,ComponentDrill
T4C0.500
; #@! TA.AperFunction,Plated,PTH,ComponentDrill
T5C0.650
; #@! TA.AperFunction,Plated,PTH,ComponentDrill
T6C0.800
; #@! TA.AperFunction,Plated,PTH,ComponentDrill
T7C0.900
; #@! TA.AperFunction,Plated,PTH,ComponentDrill
T8C1.000
; #@! TA.AperFunction,Plated,PTH,ComponentDrill
T9C1.300
; #@! TA.AperFunction,Plated,PTH,ComponentDrill
T10C1.600
; #@! TA.AperFunction,Plated,PTH,ComponentDrill
T11C3.200
; #@! TA.AperFunction,NonPlated,NPTH,ComponentDrill
T12C0.500
; #@! TA.AperFunction,NonPlated,NPTH,ComponentDrill
T13C0.700
; #@! TA.AperFunction,NonPlated,NPTH,ComponentDrill
T14C2.300
; #@! TA.AperFunction,NonPlated,NPTH,ComponentDrill
T15C3.000
%
G90
G05
T1
X13.402Y-28.235
X13.402Y-106.495
X13.91Y-37.532
X13.91Y-115.791
X14.139Y-28.667
X14.139Y-106.927
X14.825Y-21.25
X14.825Y-99.51
X14.9Y-43.816
X14.9Y-122.076
X14.952Y-25.137
X14.952Y-103.396
X16.15Y-35.366
X16.15Y-36.216
X16.15Y-113.626
X16.15Y-114.476
X16.2Y-37.766
X16.2Y-38.466
X16.2Y-116.026
X16.2Y-116.726
X16.25Y-34.016
X16.25Y-112.276
X16.3Y-32.116
X16.3Y-33.016
X16.3Y-110.376
X16.3Y-111.276
X17.15Y-27.066
X17.15Y-105.326
X17.3Y-35.366
X17.3Y-113.626
X17.39Y-53.381
X17.39Y-54.397
X17.39Y-55.413
X17.39Y-56.302
X17.39Y-131.641
X17.39Y-132.657
X17.39Y-133.673
X17.39Y-134.562
X17.4Y-34.216
X17.4Y-112.476
X17.55Y-31.816
X17.55Y-110.076
X18.406Y-55.413
X18.406Y-56.302
X18.406Y-133.673
X18.406Y-134.562
X18.65Y-28.416
X18.65Y-106.676
X19.2Y-34.266
X19.2Y-112.526
X19.422Y-55.413
X19.422Y-56.302
X19.422Y-133.673
X19.422Y-134.562
X20.4Y-40.266
X20.4Y-41.166
X20.4Y-42.116
X20.4Y-43.016
X20.4Y-43.966
X20.4Y-44.816
X20.4Y-118.526
X20.4Y-119.426
X20.4Y-120.376
X20.4Y-121.276
X20.4Y-122.226
X20.4Y-123.076
X20.45Y-34.266
X20.45Y-112.526
X20.895Y-28.21
X20.895Y-106.47
X21.05Y-39.166
X21.05Y-117.426
X21.2Y-40.266
X21.2Y-41.216
X21.2Y-42.116
X21.2Y-43.016
X21.2Y-43.966
X21.2Y-44.816
X21.2Y-118.526
X21.2Y-119.476
X21.2Y-120.376
X21.2Y-121.276
X21.2Y-122.226
X21.2Y-123.076
X21.225Y-26.635
X21.225Y-104.895
X21.7Y-29.166
X21.7Y-107.426
X22.165Y-21.276
X22.165Y-99.535
X22.394Y-25.213
X22.394Y-103.472
X22.45Y-35.466
X22.45Y-36.766
X22.45Y-113.726
X22.45Y-115.026
X22.55Y-30.116
X22.55Y-43.166
X22.55Y-108.376
X22.55Y-121.426
X23.105Y-28.515
X23.105Y-106.774
X23.435Y-70.806
X23.435Y-149.065
X23.5Y-43.166
X23.5Y-121.426
X23.842Y-30.75
X23.842Y-109.01
X23.9Y-35.466
X23.9Y-36.716
X23.9Y-113.726
X23.9Y-114.976
X24.45Y-43.166
X24.45Y-121.426
X24.451Y-27.296
X24.451Y-105.555
X25.137Y-59.147
X25.137Y-137.407
X25.4Y-46.966
X25.4Y-47.966
X25.4Y-125.226
X25.4Y-126.226
X26.1Y-46.966
X26.1Y-47.966
X26.1Y-125.226
X26.1Y-126.226
X26.128Y-34.077
X26.128Y-112.337
X26.28Y-30.699
X26.28Y-108.959
X26.331Y-54.22
X26.331Y-55.134
X26.331Y-132.479
X26.331Y-133.394
X26.5Y-45.466
X26.5Y-123.726
X27.169Y-26.584
X27.169Y-104.844
X27.296Y-54.22
X27.296Y-55.134
X27.296Y-132.479
X27.296Y-133.394
X28.261Y-41.393
X28.261Y-119.652
X28.312Y-58.842
X28.312Y-137.102
X28.388Y-28.185
X28.388Y-106.444
X29.074Y-53.864
X29.074Y-55.337
X29.074Y-58.817
X29.074Y-132.124
X29.074Y-133.597
X29.074Y-137.077
X29.15Y-73.295
X29.15Y-151.555
X29.277Y-50.968
X29.277Y-129.228
X29.607Y-47.616
X29.607Y-125.875
X29.684Y-21.276
X29.684Y-99.535
X29.836Y-25.213
X29.836Y-103.472
X29.887Y-58.842
X29.887Y-137.102
X30.293Y-43.399
X30.293Y-121.659
X30.395Y-49.419
X30.395Y-127.679
X30.75Y-50.892
X30.75Y-129.152
X31.411Y-54.22
X31.411Y-132.479
X31.614Y-44.11
X31.614Y-122.37
X31.622Y-50.257
X31.622Y-128.517
X31.741Y-25.391
X31.741Y-103.65
X31.868Y-46.904
X31.868Y-125.164
X31.893Y-27.231
X31.893Y-105.491
X32.884Y-45.761
X32.884Y-124.021
X33.265Y-44.11
X33.265Y-122.37
X33.316Y-53.534
X33.316Y-131.793
X33.519Y-37.938
X33.519Y-116.198
X33.683Y-62.667
X33.683Y-140.927
X33.773Y-49.317
X33.773Y-61.078
X33.773Y-127.577
X33.773Y-139.337
X33.798Y-43.45
X33.798Y-121.71
X34.027Y-62.094
X34.027Y-140.353
X34.052Y-51.146
X34.052Y-129.406
X34.154Y-60.239
X34.154Y-138.499
X34.967Y-51.222
X34.967Y-129.482
X35.17Y-59.35
X35.17Y-137.61
X35.297Y-57.191
X35.297Y-135.451
X35.576Y-67.199
X35.576Y-145.459
X35.602Y-64.354
X35.602Y-142.614
X35.627Y-66.056
X35.627Y-144.316
X36.034Y-61.636
X36.034Y-139.896
X36.059Y-75.225
X36.059Y-153.485
X36.063Y-59.182
X36.063Y-137.441
X36.44Y-64.938
X36.44Y-143.198
X36.655Y-58.682
X36.655Y-136.942
X36.846Y-44.542
X36.846Y-122.802
X36.872Y-28.997
X36.872Y-107.257
X36.897Y-36.16
X36.897Y-114.42
X36.948Y-38.268
X36.948Y-76.241
X36.948Y-116.528
X36.948Y-154.501
X36.973Y-51.934
X36.973Y-130.193
X37.014Y-43.465
X37.014Y-121.725
X37.304Y-35.271
X37.304Y-113.531
X37.405Y-62.525
X37.405Y-140.785
X37.456Y-64.938
X37.456Y-143.198
X37.55Y-46.236
X37.55Y-124.496
X37.558Y-51.4
X37.558Y-129.66
X37.582Y-52.925
X37.582Y-131.185
X37.583Y-74.336
X37.583Y-152.596
X37.964Y-68.621
X37.964Y-146.881
X38.243Y-33.95
X38.243Y-112.21
X38.65Y-55.642
X38.65Y-56.76
X38.65Y-57.903
X38.65Y-58.995
X38.65Y-60.036
X38.65Y-133.902
X38.65Y-135.019
X38.65Y-136.162
X38.65Y-137.254
X38.65Y-138.296
X38.85Y-48.426
X38.85Y-126.686
X38.853Y-51.036
X38.853Y-52.035
X38.853Y-70.526
X38.853Y-129.296
X38.853Y-130.295
X38.853Y-148.786
X39.488Y-29.988
X39.488Y-108.248
X39.666Y-35.982
X39.666Y-114.242
X39.742Y-67.859
X39.742Y-146.119
X39.767Y-66.132
X39.767Y-144.392
X40.225Y-62.983
X40.225Y-141.242
X40.606Y-65.777
X40.606Y-144.036
X40.86Y-60.062
X40.86Y-138.321
X40.885Y-67.487
X40.885Y-145.747
X41.042Y-51.587
X41.042Y-129.847
X41.418Y-74.489
X41.418Y-152.748
X41.52Y-55.591
X41.52Y-133.851
X41.647Y-68.621
X41.647Y-146.881
X42.02Y-52.968
X42.02Y-131.228
X42.104Y-60.062
X42.104Y-138.321
X42.612Y-66.539
X42.612Y-144.798
X42.688Y-65.7
X42.688Y-143.96
X42.815Y-55.591
X42.815Y-133.851
X43.12Y-57.903
X43.12Y-58.868
X43.12Y-60.011
X43.12Y-136.162
X43.12Y-137.127
X43.12Y-138.27
X43.146Y-56.81
X43.146Y-135.07
X44.39Y-69.307
X44.39Y-147.567
X44.517Y-74.489
X44.517Y-152.748
X44.695Y-61.255
X44.695Y-139.515
X45.469Y-56.826
X45.469Y-135.086
X46.143Y-68.24
X46.143Y-146.5
X46.6Y-57.649
X46.6Y-135.908
X46.625Y-56.074
X46.625Y-134.333
X46.963Y-70.569
X46.963Y-148.828
X47.108Y-39.538
X47.108Y-117.798
X47.286Y-61.306
X47.286Y-139.566
X47.362Y-36.871
X47.362Y-115.131
X47.464Y-57.598
X47.464Y-135.857
X48.099Y-70.679
X48.099Y-148.938
X48.226Y-54.651
X48.226Y-132.911
X48.556Y-53.813
X48.556Y-132.073
X48.632Y-44.364
X48.632Y-122.624
X48.936Y-58.337
X48.936Y-136.596
X48.951Y-57.687
X48.951Y-135.947
X48.988Y-57.039
X48.988Y-135.299
X49.14Y-43.729
X49.14Y-121.989
X49.242Y-56.201
X49.242Y-134.46
X49.445Y-69.485
X49.445Y-147.745
X49.546Y-38.065
X49.546Y-116.325
X50.029Y-50.46
X50.029Y-128.72
X50.639Y-68.901
X50.639Y-147.16
X50.918Y-63.795
X50.918Y-142.055
X51.172Y-67.859
X51.172Y-146.119
X51.204Y-44.865
X51.204Y-123.125
X51.299Y-39.157
X51.299Y-45.507
X51.299Y-47.031
X51.299Y-117.417
X51.299Y-123.767
X51.299Y-125.291
X51.994Y-46.226
X51.994Y-124.485
X52.061Y-53.127
X52.061Y-131.387
X52.112Y-58.715
X52.112Y-136.975
X52.188Y-39.284
X52.188Y-117.544
X52.315Y-45.634
X52.315Y-58.08
X52.315Y-123.894
X52.315Y-136.34
X52.451Y-44.861
X52.451Y-123.12
X52.569Y-47.158
X52.569Y-125.418
X53.077Y-38.522
X53.077Y-116.782
X53.636Y-67.377
X53.636Y-145.636
X54.093Y-41.316
X54.093Y-57.572
X54.093Y-119.576
X54.093Y-135.832
X54.296Y-63.872
X54.296Y-142.131
X54.347Y-40.681
X54.347Y-118.941
X54.474Y-36.998
X54.474Y-115.258
X55.744Y-40.3
X55.744Y-118.56
X55.769Y-67.834
X55.769Y-146.094
X55.871Y-44.237
X55.871Y-122.497
X56.125Y-57.953
X56.125Y-136.213
X56.227Y-56.226
X56.227Y-134.486
X56.43Y-47.717
X56.43Y-125.977
X56.557Y-49.724
X56.557Y-127.983
X56.633Y-41.062
X56.633Y-119.322
X56.735Y-43.653
X56.735Y-121.913
X56.887Y-59.757
X56.887Y-138.016
X56.963Y-62.094
X56.963Y-140.353
X57.141Y-50.46
X57.141Y-52.492
X57.141Y-128.72
X57.141Y-130.752
X58.538Y-40.808
X58.538Y-119.068
X58.614Y-60.646
X58.614Y-138.905
X58.69Y-61.332
X58.69Y-139.591
X58.919Y-40.173
X58.919Y-118.433
X59.046Y-54.143
X59.046Y-132.403
X59.276Y-57.164
X59.276Y-135.424
X60.062Y-39.919
X60.062Y-118.179
X60.621Y-56.15
X60.621Y-134.41
X60.746Y-40.696
X60.746Y-118.956
X60.951Y-48.428
X60.951Y-52.238
X60.951Y-126.688
X60.951Y-130.498
X61.118Y-45.018
X61.118Y-123.278
X61.205Y-41.189
X61.205Y-41.951
X61.205Y-119.449
X61.205Y-120.211
X61.637Y-56.277
X61.637Y-61.179
X61.637Y-134.537
X61.637Y-139.439
X62.069Y-70.552
X62.069Y-148.811
X62.094Y-33.188
X62.094Y-48.174
X62.094Y-111.448
X62.094Y-126.434
X62.348Y-30.648
X62.348Y-108.908
X62.373Y-72.482
X62.373Y-150.742
X62.475Y-57.445
X62.475Y-135.705
X62.593Y-44.793
X62.593Y-123.053
X63.008Y-52.264
X63.008Y-130.523
X63.07Y-41.958
X63.07Y-120.218
X63.44Y-65.878
X63.44Y-144.138
X63.491Y-56.683
X63.491Y-134.943
X63.745Y-64.447
X63.745Y-142.707
X63.796Y-53.432
X63.796Y-131.692
X63.999Y-68.469
X63.999Y-146.729
X64.38Y-39.411
X64.38Y-117.671
X64.634Y-48.936
X64.634Y-127.196
X64.761Y-53.508
X64.761Y-131.768
X65.269Y-42.459
X65.269Y-64.303
X65.269Y-120.719
X65.269Y-142.563
X65.294Y-68.952
X65.294Y-147.211
X65.396Y-41.443
X65.396Y-119.703
X65.65Y-53.381
X65.65Y-131.641
X66.158Y-39.411
X66.158Y-43.729
X66.158Y-117.671
X66.158Y-121.989
X66.183Y-59.35
X66.183Y-137.61
X67.174Y-34.204
X67.174Y-36.617
X67.174Y-42.332
X67.174Y-112.464
X67.174Y-114.877
X67.174Y-120.592
X67.301Y-58.944
X67.301Y-137.204
X67.53Y-69.206
X67.53Y-147.465
X67.682Y-30.902
X67.682Y-109.162
X68.444Y-59.198
X68.444Y-137.458
X68.469Y-50.181
X68.469Y-128.441
X68.909Y-46.862
X68.909Y-125.121
X69.257Y-53.356
X69.257Y-131.616
X69.46Y-44.745
X69.46Y-59.122
X69.46Y-123.005
X69.46Y-137.381
X70.4Y-69.383
X70.4Y-147.643
X70.984Y-53.889
X70.984Y-132.149
X71.009Y-52.315
X71.009Y-130.574
X71.492Y-48.682
X71.492Y-126.942
X72.178Y-51.197
X72.178Y-129.457
X72.483Y-71.644
X72.483Y-149.904
X73.143Y-53.889
X73.143Y-132.149
X73.194Y-59.731
X73.194Y-137.991
X76.318Y-51.349
X76.318Y-129.609
X77.195Y-51.341
X77.195Y-129.601
X77.207Y-53.381
X77.207Y-131.641
X77.715Y-51.73
X77.715Y-129.99
X92.402Y-28.235
X92.402Y-106.495
X92.91Y-37.532
X92.91Y-115.791
X93.139Y-28.667
X93.139Y-106.927
X93.825Y-21.25
X93.825Y-99.51
X93.9Y-43.816
X93.9Y-122.076
X93.952Y-25.137
X93.952Y-103.396
X95.15Y-35.366
X95.15Y-36.216
X95.15Y-113.626
X95.15Y-114.476
X95.2Y-37.766
X95.2Y-38.466
X95.2Y-116.026
X95.2Y-116.726
X95.25Y-34.016
X95.25Y-112.276
X95.3Y-32.116
X95.3Y-33.016
X95.3Y-110.376
X95.3Y-111.276
X96.15Y-27.066
X96.15Y-105.326
X96.3Y-35.366
X96.3Y-113.626
X96.39Y-53.381
X96.39Y-54.397
X96.39Y-55.413
X96.39Y-56.302
X96.39Y-131.641
X96.39Y-132.657
X96.39Y-133.673
X96.39Y-134.562
X96.4Y-34.216
X96.4Y-112.476
X96.55Y-31.816
X96.55Y-110.076
X97.406Y-55.413
X97.406Y-56.302
X97.406Y-133.673
X97.406Y-134.562
X97.65Y-28.416
X97.65Y-106.676
X98.2Y-34.266
X98.2Y-112.526
X98.422Y-55.413
X98.422Y-56.302
X98.422Y-133.673
X98.422Y-134.562
X99.4Y-40.266
X99.4Y-41.166
X99.4Y-42.116
X99.4Y-43.016
X99.4Y-43.966
X99.4Y-44.816
X99.4Y-118.526
X99.4Y-119.426
X99.4Y-120.376
X99.4Y-121.276
X99.4Y-122.226
X99.4Y-123.076
X99.45Y-34.266
X99.45Y-112.526
X99.895Y-28.21
X99.895Y-106.47
X100.05Y-39.166
X100.05Y-117.426
X100.2Y-40.266
X100.2Y-41.216
X100.2Y-42.116
X100.2Y-43.016
X100.2Y-43.966
X100.2Y-44.816
X100.2Y-118.526
X100.2Y-119.476
X100.2Y-120.376
X100.2Y-121.276
X100.2Y-122.226
X100.2Y-123.076
X100.225Y-26.635
X100.225Y-104.895
X100.7Y-29.166
X100.7Y-107.426
X101.165Y-21.276
X101.165Y-99.535
X101.394Y-25.213
X101.394Y-103.472
X101.45Y-35.466
X101.45Y-36.766
X101.45Y-113.726
X101.45Y-115.026
X101.55Y-30.116
X101.55Y-43.166
X101.55Y-108.376
X101.55Y-121.426
X102.105Y-28.515
X102.105Y-106.774
X102.435Y-70.806
X102.435Y-149.065
X102.5Y-43.166
X102.5Y-121.426
X102.842Y-30.75
X102.842Y-109.01
X102.9Y-35.466
X102.9Y-36.716
X102.9Y-113.726
X102.9Y-114.976
X103.45Y-43.166
X103.45Y-121.426
X103.451Y-27.296
X103.451Y-105.555
X104.137Y-59.147
X104.137Y-137.407
X104.4Y-46.966
X104.4Y-47.966
X104.4Y-125.226
X104.4Y-126.226
X105.1Y-46.966
X105.1Y-47.966
X105.1Y-125.226
X105.1Y-126.226
X105.128Y-34.077
X105.128Y-112.337
X105.28Y-30.699
X105.28Y-108.959
X105.331Y-54.22
X105.331Y-55.134
X105.331Y-132.479
X105.331Y-133.394
X105.5Y-45.466
X105.5Y-123.726
X106.169Y-26.584
X106.169Y-104.844
X106.296Y-54.22
X106.296Y-55.134
X106.296Y-132.479
X106.296Y-133.394
X107.261Y-41.393
X107.261Y-119.652
X107.312Y-58.842
X107.312Y-137.102
X107.388Y-28.185
X107.388Y-106.444
X108.074Y-53.864
X108.074Y-55.337
X108.074Y-58.817
X108.074Y-132.124
X108.074Y-133.597
X108.074Y-137.077
X108.15Y-73.295
X108.15Y-151.555
X108.277Y-50.968
X108.277Y-129.228
X108.607Y-47.616
X108.607Y-125.875
X108.684Y-21.276
X108.684Y-99.535
X108.836Y-25.213
X108.836Y-103.472
X108.887Y-58.842
X108.887Y-137.102
X109.293Y-43.399
X109.293Y-121.659
X109.395Y-49.419
X109.395Y-127.679
X109.75Y-50.892
X109.75Y-129.152
X110.411Y-54.22
X110.411Y-132.479
X110.614Y-44.11
X110.614Y-122.37
X110.622Y-50.257
X110.622Y-128.517
X110.741Y-25.391
X110.741Y-103.65
X110.868Y-46.904
X110.868Y-125.164
X110.893Y-27.231
X110.893Y-105.491
X111.884Y-45.761
X111.884Y-124.021
X112.265Y-44.11
X112.265Y-122.37
X112.316Y-53.534
X112.316Y-131.793
X112.519Y-37.938
X112.519Y-116.198
X112.683Y-62.667
X112.683Y-140.927
X112.773Y-49.317
X112.773Y-61.078
X112.773Y-127.577
X112.773Y-139.337
X112.798Y-43.45
X112.798Y-121.71
X113.027Y-62.094
X113.027Y-140.353
X113.052Y-51.146
X113.052Y-129.406
X113.154Y-60.239
X113.154Y-138.499
X113.967Y-51.222
X113.967Y-129.482
X114.17Y-59.35
X114.17Y-137.61
X114.297Y-57.191
X114.297Y-135.451
X114.576Y-67.199
X114.576Y-145.459
X114.602Y-64.354
X114.602Y-142.614
X114.627Y-66.056
X114.627Y-144.316
X115.034Y-61.636
X115.034Y-139.896
X115.059Y-75.225
X115.059Y-153.485
X115.063Y-59.182
X115.063Y-137.441
X115.44Y-64.938
X115.44Y-143.198
X115.655Y-58.682
X115.655Y-136.942
X115.846Y-44.542
X115.846Y-122.802
X115.872Y-28.997
X115.872Y-107.257
X115.897Y-36.16
X115.897Y-114.42
X115.948Y-38.268
X115.948Y-76.241
X115.948Y-116.528
X115.948Y-154.501
X115.973Y-51.934
X115.973Y-130.193
X116.014Y-43.465
X116.014Y-121.725
X116.304Y-35.271
X116.304Y-113.531
X116.405Y-62.525
X116.405Y-140.785
X116.456Y-64.938
X116.456Y-143.198
X116.55Y-46.236
X116.55Y-124.496
X116.558Y-51.4
X116.558Y-129.66
X116.582Y-52.925
X116.582Y-131.185
X116.583Y-74.336
X116.583Y-152.596
X116.964Y-68.621
X116.964Y-146.881
X117.243Y-33.95
X117.243Y-112.21
X117.65Y-55.642
X117.65Y-56.76
X117.65Y-57.903
X117.65Y-58.995
X117.65Y-60.036
X117.65Y-133.902
X117.65Y-135.019
X117.65Y-136.162
X117.65Y-137.254
X117.65Y-138.296
X117.85Y-48.426
X117.85Y-126.686
X117.853Y-51.036
X117.853Y-52.035
X117.853Y-70.526
X117.853Y-129.296
X117.853Y-130.295
X117.853Y-148.786
X118.488Y-29.988
X118.488Y-108.248
X118.666Y-35.982
X118.666Y-114.242
X118.742Y-67.859
X118.742Y-146.119
X118.767Y-66.132
X118.767Y-144.392
X119.225Y-62.983
X119.225Y-141.242
X119.606Y-65.777
X119.606Y-144.036
X119.86Y-60.062
X119.86Y-138.321
X119.885Y-67.487
X119.885Y-145.747
X120.042Y-51.587
X120.042Y-129.847
X120.418Y-74.489
X120.418Y-152.748
X120.52Y-55.591
X120.52Y-133.851
X120.647Y-68.621
X120.647Y-146.881
X121.019Y-52.968
X121.019Y-131.228
X121.104Y-60.062
X121.104Y-138.321
X121.612Y-66.539
X121.612Y-144.798
X121.688Y-65.7
X121.688Y-143.96
X121.815Y-55.591
X121.815Y-133.851
X122.12Y-57.903
X122.12Y-58.868
X122.12Y-60.011
X122.12Y-136.162
X122.12Y-137.127
X122.12Y-138.27
X122.146Y-56.81
X122.146Y-135.07
X123.39Y-69.307
X123.39Y-147.567
X123.517Y-74.489
X123.517Y-152.748
X123.695Y-61.255
X123.695Y-139.515
X124.469Y-56.826
X124.469Y-135.086
X125.143Y-68.24
X125.143Y-146.5
X125.6Y-57.649
X125.6Y-135.908
X125.625Y-56.074
X125.625Y-134.333
X125.963Y-70.569
X125.963Y-148.828
X126.108Y-39.538
X126.108Y-117.798
X126.286Y-61.306
X126.286Y-139.566
X126.362Y-36.871
X126.362Y-115.131
X126.464Y-57.598
X126.464Y-135.857
X127.099Y-70.679
X127.099Y-148.938
X127.226Y-54.651
X127.226Y-132.911
X127.556Y-53.813
X127.556Y-132.073
X127.632Y-44.364
X127.632Y-122.624
X127.936Y-58.337
X127.936Y-136.596
X127.951Y-57.687
X127.951Y-135.947
X127.988Y-57.039
X127.988Y-135.299
X128.14Y-43.729
X128.14Y-121.989
X128.242Y-56.201
X128.242Y-134.46
X128.445Y-69.485
X128.445Y-147.745
X128.546Y-38.065
X128.546Y-116.325
X129.029Y-50.46
X129.029Y-128.72
X129.639Y-68.901
X129.639Y-147.16
X129.918Y-63.795
X129.918Y-142.055
X130.172Y-67.859
X130.172Y-146.119
X130.204Y-44.865
X130.204Y-123.125
X130.299Y-39.157
X130.299Y-45.507
X130.299Y-47.031
X130.299Y-117.417
X130.299Y-123.767
X130.299Y-125.291
X130.994Y-46.226
X130.994Y-124.485
X131.061Y-53.127
X131.061Y-131.387
X131.112Y-58.715
X131.112Y-136.975
X131.188Y-39.284
X131.188Y-117.544
X131.315Y-45.634
X131.315Y-58.08
X131.315Y-123.894
X131.315Y-136.34
X131.451Y-44.861
X131.451Y-123.12
X131.569Y-47.158
X131.569Y-125.418
X132.077Y-38.522
X132.077Y-116.782
X132.636Y-67.377
X132.636Y-145.636
X133.093Y-41.316
X133.093Y-57.572
X133.093Y-119.576
X133.093Y-135.832
X133.296Y-63.872
X133.296Y-142.131
X133.347Y-40.681
X133.347Y-118.941
X133.474Y-36.998
X133.474Y-115.258
X134.744Y-40.3
X134.744Y-118.56
X134.769Y-67.834
X134.769Y-146.094
X134.871Y-44.237
X134.871Y-122.497
X135.125Y-57.953
X135.125Y-136.213
X135.227Y-56.226
X135.227Y-134.486
X135.43Y-47.717
X135.43Y-125.977
X135.557Y-49.724
X135.557Y-127.983
X135.633Y-41.062
X135.633Y-119.322
X135.735Y-43.653
X135.735Y-121.913
X135.887Y-59.757
X135.887Y-138.016
X135.963Y-62.094
X135.963Y-140.353
X136.141Y-50.46
X136.141Y-52.492
X136.141Y-128.72
X136.141Y-130.752
X137.538Y-40.808
X137.538Y-119.068
X137.614Y-60.646
X137.614Y-138.905
X137.69Y-61.332
X137.69Y-139.591
X137.919Y-40.173
X137.919Y-118.433
X138.046Y-54.143
X138.046Y-132.403
X138.276Y-57.164
X138.276Y-135.424
X139.062Y-39.919
X139.062Y-118.179
X139.621Y-56.15
X139.621Y-134.41
X139.746Y-40.696
X139.746Y-118.956
X139.951Y-48.428
X139.951Y-52.238
X139.951Y-126.688
X139.951Y-130.498
X140.118Y-45.018
X140.118Y-123.278
X140.205Y-41.189
X140.205Y-41.951
X140.205Y-119.449
X140.205Y-120.211
X140.637Y-56.277
X140.637Y-61.179
X140.637Y-134.537
X140.637Y-139.439
X141.069Y-70.552
X141.069Y-148.811
X141.094Y-33.188
X141.094Y-48.174
X141.094Y-111.448
X141.094Y-126.434
X141.348Y-30.648
X141.348Y-108.908
X141.373Y-72.482
X141.373Y-150.742
X141.475Y-57.445
X141.475Y-135.705
X141.594Y-44.793
X141.594Y-123.053
X142.008Y-52.264
X142.008Y-130.523
X142.07Y-41.958
X142.07Y-120.218
X142.44Y-65.878
X142.44Y-144.138
X142.491Y-56.683
X142.491Y-134.943
X142.745Y-64.447
X142.745Y-142.707
X142.796Y-53.432
X142.796Y-131.692
X142.999Y-68.469
X142.999Y-146.729
X143.38Y-39.411
X143.38Y-117.671
X143.634Y-48.936
X143.634Y-127.196
X143.761Y-53.508
X143.761Y-131.768
X144.269Y-42.459
X144.269Y-64.303
X144.269Y-120.719
X144.269Y-142.563
X144.294Y-68.952
X144.294Y-147.211
X144.396Y-41.443
X144.396Y-119.703
X144.65Y-53.381
X144.65Y-131.641
X145.158Y-39.411
X145.158Y-43.729
X145.158Y-117.671
X145.158Y-121.989
X145.183Y-59.35
X145.183Y-137.61
X146.174Y-34.204
X146.174Y-36.617
X146.174Y-42.332
X146.174Y-112.464
X146.174Y-114.877
X146.174Y-120.592
X146.301Y-58.944
X146.301Y-137.204
X146.53Y-69.206
X146.53Y-147.465
X146.682Y-30.902
X146.682Y-109.162
X147.444Y-59.198
X147.444Y-137.458
X147.469Y-50.181
X147.469Y-128.441
X147.909Y-46.862
X147.909Y-125.121
X148.257Y-53.356
X148.257Y-131.616
X148.46Y-44.745
X148.46Y-59.122
X148.46Y-123.005
X148.46Y-137.381
X149.4Y-69.383
X149.4Y-147.643
X149.984Y-53.889
X149.984Y-132.149
X150.009Y-52.315
X150.009Y-130.574
X150.492Y-48.682
X150.492Y-126.942
X151.178Y-51.197
X151.178Y-129.457
X151.483Y-71.644
X151.483Y-149.904
X152.143Y-53.889
X152.143Y-132.149
X152.194Y-59.731
X152.194Y-137.991
X155.318Y-51.349
X155.318Y-129.609
X156.195Y-51.341
X156.195Y-129.601
X156.207Y-53.381
X156.207Y-131.641
X156.715Y-51.73
X156.715Y-129.99
T2
X26.153Y-37.176
X26.153Y-115.436
X27.956Y-32.731
X27.956Y-110.991
X30.623Y-30.953
X30.623Y-109.213
X72.381Y-45.126
X72.381Y-123.386
X105.153Y-37.176
X105.153Y-115.436
X106.956Y-32.731
X106.956Y-110.991
X109.623Y-30.953
X109.623Y-109.213
X151.381Y-45.126
X151.381Y-123.386
T3
X24.8Y-49.766
X24.8Y-128.026
X25.137Y-56.937
X25.137Y-135.197
X103.8Y-49.766
X103.8Y-128.026
X104.137Y-56.937
X104.137Y-135.197
T4
X13.618Y-15.967
X13.618Y-94.227
X14.321Y-14.27
X14.321Y-17.664
X14.321Y-92.53
X14.321Y-95.924
X16.018Y-13.567
X16.018Y-18.367
X16.018Y-91.827
X16.018Y-96.627
X17.715Y-14.27
X17.715Y-17.664
X17.715Y-92.53
X17.715Y-95.924
X18.089Y-65.091
X18.089Y-143.35
X18.418Y-15.967
X18.418Y-94.227
X18.792Y-63.394
X18.792Y-66.788
X18.792Y-141.653
X18.792Y-145.047
X20.489Y-62.691
X20.489Y-67.491
X20.489Y-140.95
X20.489Y-145.75
X22.186Y-63.394
X22.186Y-66.788
X22.186Y-141.653
X22.186Y-145.047
X22.889Y-65.091
X22.889Y-143.35
X42.676Y-47.92
X42.676Y-126.18
X43.379Y-46.223
X43.379Y-49.617
X43.379Y-124.483
X43.379Y-127.877
X45.076Y-45.52
X45.076Y-50.32
X45.076Y-123.78
X45.076Y-128.58
X46.773Y-46.223
X46.773Y-49.617
X46.773Y-124.483
X46.773Y-127.877
X47.476Y-47.92
X47.476Y-126.18
X67.263Y-65.091
X67.263Y-143.35
X67.966Y-63.394
X67.966Y-66.788
X67.966Y-141.653
X67.966Y-145.047
X69.663Y-62.691
X69.663Y-67.491
X69.663Y-140.95
X69.663Y-145.75
X71.36Y-63.394
X71.36Y-66.788
X71.36Y-141.653
X71.36Y-145.047
X71.581Y-28.312
X71.581Y-106.571
X72.063Y-65.091
X72.063Y-143.35
X72.284Y-26.615
X72.284Y-30.009
X72.284Y-104.874
X72.284Y-108.268
X73.981Y-25.912
X73.981Y-30.712
X73.981Y-104.171
X73.981Y-108.971
X75.678Y-26.615
X75.678Y-30.009
X75.678Y-104.874
X75.678Y-108.268
X76.381Y-28.312
X76.381Y-106.571
X92.618Y-15.967
X92.618Y-94.227
X93.321Y-14.27
X93.321Y-17.664
X93.321Y-92.53
X93.321Y-95.924
X95.018Y-13.567
X95.018Y-18.367
X95.018Y-91.827
X95.018Y-96.627
X96.715Y-14.27
X96.715Y-17.664
X96.715Y-92.53
X96.715Y-95.924
X97.089Y-65.091
X97.089Y-143.35
X97.418Y-15.967
X97.418Y-94.227
X97.792Y-63.394
X97.792Y-66.788
X97.792Y-141.653
X97.792Y-145.047
X99.489Y-62.691
X99.489Y-67.491
X99.489Y-140.95
X99.489Y-145.75
X101.186Y-63.394
X101.186Y-66.788
X101.186Y-141.653
X101.186Y-145.047
X101.889Y-65.091
X101.889Y-143.35
X121.676Y-47.92
X121.676Y-126.18
X122.379Y-46.223
X122.379Y-49.617
X122.379Y-124.483
X122.379Y-127.877
X124.076Y-45.52
X124.076Y-50.32
X124.076Y-123.78
X124.076Y-128.58
X125.773Y-46.223
X125.773Y-49.617
X125.773Y-124.483
X125.773Y-127.877
X126.476Y-47.92
X126.476Y-126.18
X146.263Y-65.091
X146.263Y-143.35
X146.966Y-63.394
X146.966Y-66.788
X146.966Y-141.653
X146.966Y-145.047
X148.663Y-62.691
X148.663Y-67.491
X148.663Y-140.95
X148.663Y-145.75
X150.36Y-63.394
X150.36Y-66.788
X150.36Y-141.653
X150.36Y-145.047
X150.581Y-28.312
X150.581Y-106.571
X151.063Y-65.091
X151.063Y-143.35
X151.284Y-26.615
X151.284Y-30.009
X151.284Y-104.874
X151.284Y-108.268
X152.981Y-25.912
X152.981Y-30.712
X152.981Y-104.171
X152.981Y-108.971
X154.678Y-26.615
X154.678Y-30.009
X154.678Y-104.874
X154.678Y-108.268
X155.381Y-28.312
X155.381Y-106.571
T6
X73.972Y-43.473
X73.972Y-45.473
X73.972Y-47.473
X73.972Y-49.473
X73.972Y-121.732
X73.972Y-123.732
X73.972Y-125.732
X73.972Y-127.732
X75.972Y-43.473
X75.972Y-45.473
X75.972Y-47.473
X75.972Y-49.473
X75.972Y-121.732
X75.972Y-123.732
X75.972Y-125.732
X75.972Y-127.732
X152.972Y-43.473
X152.972Y-45.473
X152.972Y-47.473
X152.972Y-49.473
X152.972Y-121.732
X152.972Y-123.732
X152.972Y-125.732
X152.972Y-127.732
X154.972Y-43.473
X154.972Y-45.473
X154.972Y-47.473
X154.972Y-49.473
X154.972Y-121.732
X154.972Y-123.732
X154.972Y-125.732
X154.972Y-127.732
T7
X58.532Y-66.567
X58.532Y-144.827
X59.552Y-69.107
X59.552Y-147.367
X60.572Y-66.567
X60.572Y-144.827
X61.592Y-69.107
X61.592Y-147.367
X137.532Y-66.567
X137.532Y-144.827
X138.552Y-69.107
X138.552Y-147.367
X139.572Y-66.567
X139.572Y-144.827
X140.592Y-69.107
X140.592Y-147.367
T8
X43.535Y-29.906
X43.535Y-32.406
X43.535Y-38.161
X43.535Y-40.661
X43.535Y-108.166
X43.535Y-110.666
X43.535Y-116.421
X43.535Y-118.921
X51.9Y-31.227
X51.9Y-33.727
X51.9Y-109.487
X51.9Y-111.987
X72.904Y-34.342
X72.904Y-38.842
X72.904Y-112.602
X72.904Y-117.102
X122.535Y-29.906
X122.535Y-32.406
X122.535Y-38.161
X122.535Y-40.661
X122.535Y-108.166
X122.535Y-110.666
X122.535Y-116.421
X122.535Y-118.921
X130.9Y-31.227
X130.9Y-33.727
X130.9Y-109.487
X130.9Y-111.987
X151.904Y-34.342
X151.904Y-38.842
X151.904Y-112.602
X151.904Y-117.102
T9
X59.625Y-34.306
X59.625Y-112.566
X64.705Y-34.306
X64.705Y-112.566
X70.404Y-33.092
X70.404Y-40.092
X70.404Y-111.352
X70.404Y-118.352
X138.625Y-34.306
X138.625Y-112.566
X143.705Y-34.306
X143.705Y-112.566
X149.404Y-33.092
X149.404Y-40.092
X149.404Y-111.352
X149.404Y-118.352
T10
X43.298Y-23.79
X43.298Y-102.05
X122.298Y-23.79
X122.298Y-102.05
T11
X16.018Y-15.967
X16.018Y-94.227
X20.489Y-65.091
X20.489Y-143.35
X45.076Y-47.92
X45.076Y-126.18
X69.663Y-65.091
X69.663Y-143.35
X73.981Y-28.312
X73.981Y-106.571
X95.018Y-15.967
X95.018Y-94.227
X99.489Y-65.091
X99.489Y-143.35
X124.076Y-47.92
X124.076Y-126.18
X148.663Y-65.091
X148.663Y-143.35
X152.981Y-28.312
X152.981Y-106.571
T12
X11.2Y-45.581
X11.2Y-46.306
X11.2Y-47.031
X11.2Y-47.756
X11.2Y-48.481
X11.2Y-123.841
X11.2Y-124.566
X11.2Y-125.291
X11.2Y-126.016
X11.2Y-126.741
X23.585Y-11.2
X23.585Y-89.46
X24.31Y-11.2
X24.31Y-89.46
X25.035Y-11.2
X25.035Y-89.46
X25.76Y-11.2
X25.76Y-89.46
X26.485Y-11.2
X26.485Y-89.46
X58.102Y-74.901
X58.102Y-153.161
X58.827Y-74.901
X58.827Y-153.161
X59.552Y-74.901
X59.552Y-153.161
X60.277Y-74.901
X60.277Y-153.161
X61.002Y-74.901
X61.002Y-153.161
X78.8Y-35.142
X78.8Y-35.867
X78.8Y-36.592
X78.8Y-37.317
X78.8Y-38.042
X78.8Y-113.402
X78.8Y-114.127
X78.8Y-114.852
X78.8Y-115.577
X78.8Y-116.302
X90.2Y-45.581
X90.2Y-46.306
X90.2Y-47.031
X90.2Y-47.756
X90.2Y-48.481
X90.2Y-123.841
X90.2Y-124.566
X90.2Y-125.291
X90.2Y-126.016
X90.2Y-126.741
X102.585Y-11.2
X102.585Y-89.46
X103.31Y-11.2
X103.31Y-89.46
X104.035Y-11.2
X104.035Y-89.46
X104.76Y-11.2
X104.76Y-89.46
X105.485Y-11.2
X105.485Y-89.46
X137.102Y-74.901
X137.102Y-153.161
X137.827Y-74.901
X137.827Y-153.161
X138.552Y-74.901
X138.552Y-153.161
X139.277Y-74.901
X139.277Y-153.161
X140.002Y-74.901
X140.002Y-153.161
X157.8Y-35.142
X157.8Y-35.867
X157.8Y-36.592
X157.8Y-37.317
X157.8Y-38.042
X157.8Y-113.402
X157.8Y-114.127
X157.8Y-114.852
X157.8Y-115.577
X157.8Y-116.302
T13
X40.154Y-73.057
X40.154Y-151.317
X45.934Y-73.057
X45.934Y-151.317
X119.154Y-73.057
X119.154Y-151.317
X124.934Y-73.057
X124.934Y-151.317
T14
X54.062Y-71.407
X54.062Y-149.667
X66.062Y-71.407
X66.062Y-149.667
X133.062Y-71.407
X133.062Y-149.667
X145.062Y-71.407
X145.062Y-149.667
T15
X4.0Y-7.0
X4.0Y-160.519
X165.0Y-7.0
X165.0Y-160.519
T5
X38.724Y-71.977G85X38.724Y-73.077
G05
X38.724Y-76.407G85X38.724Y-77.007
G05
X38.724Y-150.237G85X38.724Y-151.337
G05
X38.724Y-154.667G85X38.724Y-155.267
G05
X47.364Y-71.977G85X47.364Y-73.077
G05
X47.364Y-76.407G85X47.364Y-77.007
G05
X47.364Y-150.237G85X47.364Y-151.337
G05
X47.364Y-154.667G85X47.364Y-155.267
G05
X117.724Y-71.977G85X117.724Y-73.077
G05
X117.724Y-76.407G85X117.724Y-77.007
G05
X117.724Y-150.237G85X117.724Y-151.337
G05
X117.724Y-154.667G85X117.724Y-155.267
G05
X126.364Y-71.977G85X126.364Y-73.077
G05
X126.364Y-76.407G85X126.364Y-77.007
G05
X126.364Y-150.237G85X126.364Y-151.337
G05
X126.364Y-154.667G85X126.364Y-155.267
G05
T6
X26.768Y-63.922G85X29.368Y-63.922
G05
X26.968Y-69.722G85X29.168Y-69.722
G05
X26.768Y-142.182G85X29.368Y-142.182
G05
X26.968Y-147.982G85X29.168Y-147.982
G05
X32.868Y-68.022G85X32.868Y-65.822
G05
X32.868Y-146.282G85X32.868Y-144.082
G05
X105.768Y-63.922G85X108.368Y-63.922
G05
X105.968Y-69.722G85X108.168Y-69.722
G05
X105.768Y-142.182G85X108.368Y-142.182
G05
X105.968Y-147.982G85X108.168Y-147.982
G05
X111.868Y-68.022G85X111.868Y-65.822
G05
X111.868Y-146.282G85X111.868Y-144.082
G05
T0
M30
